<?xml version="1.0" encoding="UTF-8"?>
<svg width="42px" height="40px" viewBox="0 0 42 40" version="1.1" xmlns="http://www.w3.org/2000/svg" xmlns:xlink="http://www.w3.org/1999/xlink">
    <!-- Generator: Sketch 55.2 (78181) - https://sketchapp.com -->
    <title>LinkedIn 2</title>
    <desc>Created with Sketch.</desc>
    <g id="About-us" stroke="none" stroke-width="1" fill="none" fill-rule="evenodd">
        <g id="About-(desktop)" transform="translate(-100.000000, -4959.000000)" fill="#0089CB" fill-rule="nonzero">
            <g id="LinkedIn-2" transform="translate(100.000000, 4959.000000)">
                <path d="M42,24.5239683 L42,40 L32.9980401,40 L32.9980401,25.5604596 C32.9980401,21.9331293 31.6960036,19.4576182 28.4375926,19.4576182 C25.9502089,19.4576182 24.4699651,21.1259313 23.8187516,22.7397434 C23.5812721,23.3166749 23.5201445,24.119688 23.5201445,24.9272753 L23.5201445,40 L14.5151575,40 C14.5151575,40 14.6364361,15.5441579 14.5151575,13.0103503 L23.5192657,13.0103503 L23.5192657,16.8360251 C23.5010055,16.8646381 23.4772771,16.8954896 23.4600911,16.9232267 L23.5192657,16.9232267 L23.5192657,16.8360251 C24.7155495,14.999635 26.8519868,12.3762901 31.6339973,12.3762901 C37.5585852,12.3762901 42,16.2337896 42,24.5239683 Z M5.09555772,0 C2.01496337,0 0,2.01390747 0,4.66226442 C0,7.25290874 1.9566676,9.32793514 4.97603675,9.32793514 L5.03618783,9.32793514 C8.17644501,9.32793514 10.129402,7.25329804 10.129402,4.66226442 C10.0702274,2.01390747 8.17644501,0 5.09555772,0 Z M0.534817271,40 L9.53638661,40 L9.53638661,13.0103503 L0.534817271,13.0103503 L0.534817271,40 Z" id="LinkedIn"></path>
            </g>
        </g>
    </g>
</svg>