<?xml version="1.0" encoding="utf-8"?>
<!-- Generator: Adobe Illustrator 17.1.0, SVG Export Plug-In . SVG Version: 6.00 Build 0)  -->
<!DOCTYPE svg PUBLIC "-//W3C//DTD SVG 1.1//EN" "http://www.w3.org/Graphics/SVG/1.1/DTD/svg11.dtd">
<svg version="1.1" id="Layer_1" xmlns="http://www.w3.org/2000/svg" xmlns:xlink="http://www.w3.org/1999/xlink" x="0px" y="0px"
	 width="14px" height="14px" viewBox="0 0 14 14" enable-background="new 0 0 14 14" xml:space="preserve">
<g>
	<g>
		<path fill-rule="evenodd" clip-rule="evenodd" fill="#5D5E5E" d="M2.8,0H1C0.4,0,0,0.4,0,1v1.8c0,0.6,0.4,1,1,1h1.8
			c0.6,0,1-0.4,1-1V1C3.8,0.4,3.4,0,2.8,0z M13,0H6.1c-0.6,0-1,0.4-1,1v1.8c0,0.6,0.4,1,1,1H13c0.6,0,1-0.4,1-1V1
			C14,0.4,13.6,0,13,0z M2.8,5.1H1c-0.6,0-1,0.4-1,1v1.8c0,0.6,0.4,1,1,1h1.8c0.6,0,1-0.4,1-1V6.1C3.8,5.5,3.4,5.1,2.8,5.1z M13,5.1
			H6.1c-0.6,0-1,0.4-1,1v1.8c0,0.6,0.4,1,1,1H13c0.6,0,1-0.4,1-1V6.1C14,5.5,13.6,5.1,13,5.1z M2.8,10.2H1c-0.6,0-1,0.4-1,1V13
			c0,0.6,0.4,1,1,1h1.8c0.6,0,1-0.4,1-1v-1.8C3.8,10.6,3.4,10.2,2.8,10.2z M13,10.2H6.1c-0.6,0-1,0.4-1,1V13c0,0.6,0.4,1,1,1H13
			c0.6,0,1-0.4,1-1v-1.8C14,10.6,13.6,10.2,13,10.2z"/>
	</g>
</g>
</svg>
