<svg xmlns="http://www.w3.org/2000/svg" width="151" height="80" viewBox="66 -30 151 80" enable-background="new 66 -30 151 80"><path stroke="#B3B3B3" stroke-width="2" d="M73.8-18.2c-4.4.8-7.3 4.9-6.5 9.3l7.6 43.3c.8 4.3 4.9 7.3 9.3 6.5l59.7-10.5c3.3-.6 7.4-3.3 9.1-6.1l14.4-22.5c2.4-3.7 1.5-8.9-2-11.6l-21.2-16.2c-2.6-2-7.4-3.2-10.7-2.6 0-.1-59.7 10.4-59.7 10.4z" fill="none"/><circle stroke="#B3B3B3" stroke-width="2" cx="157.2" cy="-2.9" r="3.5" fill="none"/><path stroke="#B3B3B3" stroke-width="2" d="M95.9 9.1l11.5 7.4 18-24.5M157.2-2.9c23.3-7.1 31.6 22.2 57.5-13.1" fill="none"/></svg>