<svg xmlns="http://www.w3.org/2000/svg" width="164" height="31"><path d="M127.26 23h-1.394l-2.45-8.126c-.115-.36-.245-.814-.39-1.362-.143-.548-.218-.877-.223-.988-.122.73-.316 1.53-.58 2.4L119.847 23h-1.395l-3.23-12.136h1.495l1.918 7.496c.265 1.05.46 2.003.58 2.855.15-1.012.372-2.003.665-2.97l2.176-7.38h1.494l2.283 7.445c.265.858.49 1.826.672 2.905.105-.785.304-1.743.598-2.872l1.91-7.48h1.493L127.26 23zm10.194 0l-.274-1.295h-.067c-.453.57-.906.956-1.357 1.158-.45.202-1.014.303-1.69.303-.9 0-1.608-.232-2.12-.697-.512-.466-.768-1.127-.768-1.985 0-1.837 1.47-2.8 4.408-2.89l1.544-.05v-.563c0-.714-.154-1.24-.46-1.58-.308-.342-.8-.512-1.474-.512-.758 0-1.616.233-2.573.697l-.424-1.054c.447-.243.94-.434 1.473-.573.534-.138 1.07-.207 1.606-.207 1.083 0 1.887.24 2.41.722.523.482.785 1.254.785 2.316V23h-1.02zm-3.113-.97c.86 0 1.532-.236 2.022-.707.49-.47.735-1.13.735-1.975v-.822l-1.378.058c-1.097.04-1.887.21-2.37.51-.485.302-.727.77-.727 1.407 0 .5.15.88.452 1.14.302.26.724.39 1.266.39zm8.35.97h-1.377V10.084h1.378V23zm4.3 0h-1.377V10.084h1.378V23zm6.766.166c-1.344 0-2.405-.41-3.183-1.23-.778-.818-1.166-1.955-1.166-3.41 0-1.467.36-2.63 1.083-3.495.722-.862 1.692-1.294 2.91-1.294 1.14 0 2.04.375 2.705 1.125s.997 1.74.997 2.97v.87h-6.268c.028 1.068.298 1.88.81 2.432.512.554 1.232.83 2.162.83.98 0 1.948-.204 2.905-.614v1.23c-.486.21-.946.36-1.38.45-.435.092-.96.138-1.574.138zm-.373-8.276c-.73 0-1.313.238-1.748.714-.434.476-.69 1.134-.767 1.976h4.756c0-.87-.194-1.535-.58-1.997-.388-.462-.942-.693-1.66-.693zm9.006 7.14c.243 0 .478-.02.705-.055.227-.036.406-.073.54-.112v1.054c-.15.072-.37.13-.66.178-.29.047-.553.07-.785.07-1.76 0-2.64-.926-2.64-2.78v-5.412h-1.303v-.664l1.303-.574.58-1.942h.798v2.108h2.64v1.07h-2.64v5.355c0 .548.13.97.39 1.262.26.292.617.44 1.07.44z" fill="#777"/><path d="M107.274 22.797c-.262.155-.523.31-.837.467-.836.363-1.673.467-2.405.467-.784 0-2.04-.05-3.294-.985-1.778-1.246-2.563-3.375-2.563-5.244 0-3.84 3.138-5.71 5.7-5.71.89 0 1.83.207 2.562.675 1.255.83 1.57 1.87 1.726 2.44l-5.857 2.336-1.934.157c.627 3.167 2.77 4.984 5.124 4.984 1.255 0 2.196-.466 3.033-.88l-1.256 1.297zm-2.353-7.373c.47-.156.733-.31.733-.675 0-.987-1.098-2.13-2.458-2.13-.993 0-2.876.78-2.876 3.427 0 .415.052.883.052 1.298l4.55-1.92zm-7.32 7.892h-4.392c.575-.727.68-.83.68-1.298v-4.05c0-1.92.052-4.673.104-7.27 0-1.245.105-2.854.157-3.997h-1.936l1.883-.88h3.555c-.784.466-1.045.57-1.098 1.453-.21 1.92-.21 4.932-.21 8.463v5.71c0 .987.158 1.143.995 1.195.417.053.835.105 1.254.105l-.994.57zm-8.21-10.332c.576.467 1.778 1.454 1.778 3.375 0 1.816-1.045 2.698-2.09 3.53-.315.31-.68.674-.68 1.193 0 .52.365.83.626 1.04l.89.674c1.097.934 2.09 1.765 2.09 3.478 0 2.337-2.247 4.673-6.588 4.673-3.608 0-5.386-1.713-5.386-3.53 0-.883.47-2.18 1.935-3.012 1.57-.934 3.66-1.09 4.76-1.142-.367-.467-.733-.935-.733-1.662 0-.415.104-.674.26-.986-.26 0-.574.052-.783.052-2.668 0-4.132-1.973-4.132-3.894 0-1.142.523-2.388 1.62-3.323 1.413-1.14 3.138-1.35 4.445-1.35h5.125l-1.62.884H89.39zM87.613 23.99h-.576c-.21 0-1.568.053-2.614.416-.575.208-2.144.78-2.144 2.544 0 1.766 1.725 3.012 4.39 3.012 2.407 0 3.662-1.143 3.662-2.7 0-1.246-.837-1.92-2.72-3.27zm.732-4.672c.575-.57.627-1.35.627-1.817 0-1.764-1.098-4.568-3.137-4.568-.628 0-1.36.31-1.726.83-.42.52-.576 1.195-.576 1.818 0 1.66.993 4.413 3.137 4.413.577 0 1.256-.312 1.675-.675zm-14.38 4.36c-3.974 0-6.066-3.062-6.066-5.866 0-3.27 2.666-6.022 6.483-6.022 3.66 0 5.96 2.855 5.96 5.867-.05 2.907-2.352 6.022-6.378 6.022m3.085-2.026c.575-.778.732-1.765.732-2.75 0-2.182-1.046-6.336-4.13-6.336-.838 0-1.622.312-2.25.83-.993.884-1.15 1.974-1.15 3.012 0 2.44 1.203 6.49 4.236 6.49.993 0 1.987-.467 2.562-1.246M60.683 23.68c-3.974 0-6.066-3.064-6.066-5.868 0-3.27 2.667-6.022 6.484-6.022 3.662 0 5.962 2.855 5.962 5.867-.052 2.907-2.353 6.022-6.38 6.022m3.086-2.026c.575-.778.732-1.765.732-2.75 0-2.182-1.046-6.336-4.13-6.336-.837 0-1.674.312-2.25.83-.993.884-1.15 1.974-1.15 3.012 0 2.44 1.203 6.49 4.236 6.49.993 0 1.987-.467 2.562-1.246m-10.824 1.143l-3.347.778c-1.36.208-2.562.416-3.87.416-6.483 0-8.94-4.724-8.94-8.41 0-4.517 3.503-8.67 9.464-8.67 1.256 0 2.458.207 3.556.466 1.778.468 2.563 1.09 3.086 1.454l-1.935 1.817-.837.208.575-.934c-.784-.778-2.248-2.18-5.02-2.18-3.712 0-6.484 2.804-6.484 6.853 0 4.362 3.19 8.463 8.263 8.463 1.517 0 2.25-.31 2.98-.57v-3.74l-3.555.21 1.883-.988h4.968l-.627.57c-.156.157-.208.21-.208.365 0 .207-.053.882-.053 1.09v2.804" fill="#777"/><path d="M11.403 13.933C9.628 11.5 7.167 9.367 4.37 7.883c-.418-.233-.904-.35-1.39-.35-1.088 0-2.076.584-2.595 1.55-.77 1.417-.218 3.2 1.206 3.95 4.304 2.3 7.084 6.667 7.42 11.734v-.017c-.052-.567.05-1.117.3-1.633.034-.067.084-.15.134-.234 1.34-2.2 2.06-4.733 2.06-7.333 0-.55-.05-1.083-.1-1.617" fill="#478CF6"/><path d="M7.353 18.84c.94 1.782 1.515 3.792 1.656 5.927v-.017c-.052-.567.05-1.117.3-1.633.034-.067.084-.15.134-.234 1.34-2.2 2.06-4.733 2.06-7.333 0-.36-.022-.712-.05-1.062l-4.1 4.35z" fill="#376FCA"/><path d="M25.95 1.85C25.448.733 24.36 0 23.198 0c-.457 0-.897.1-1.306.317-1.526.766-2.17 2.7-1.447 4.3 1.542 3.466 2.313 7.116 2.313 10.916 0 3.8-.976 7.4-2.486 10.8-.016.05-.26.67-.26 1.37 0 .2.04.604.103.87.204.918.912 1.66 1.825 2.11.41.2.85.317 1.306.317 1.117 0 2.14-.65 2.675-1.683.613-1.217 1.227-2.8 1.762-4.85.173-.617.315-1.2.44-1.817.488-2.317.756-4.683.756-7.117-.016-2.4-.283-4.816-.77-7.116-.49-2.267-1.213-4.467-2.157-6.567z" fill="#09A058"/><path d="M14.735 5.05c-.05-.1-.117-.183-.184-.267-.216-.283-.468-.516-.77-.7-.485-.316-1.07-.5-1.674-.5-.502 0-.753.067-1.105.2-.367.15-.752.35-1.104.717-.35.367-.552.733-.703 1.133-.302.784-.25 1.8.25 2.634 1.073 1.716 1.71 3.683 1.943 5.7.067.533.1 1.083.1 1.616 0 2.6-.702 5.134-2.06 7.334-.05.083-.082.15-.133.233-.268.517-.35 1.1-.3 1.65.083.933.602 1.817 1.472 2.35.218.133.47.233.704.317.283.083.585.133.886.133 1.09 0 2.077-.55 2.646-1.483 1.708-2.784 2.696-5.95 2.914-9.2.033-.434.05-.884.05-1.317.016-3.767-1.005-7.4-2.93-10.55" fill="#DA453B"/><path d="M20.31 26.4c1.626-3.4 2.446-7.05 2.446-10.85 0-1.3-.084-2.25-.15-2.867-2.127-3.383-5.208-6.416-8.825-8.616 0 0 .085.05.085.066.25.184.452.367.686.65.05.067.135.167.185.267 1.926 3.167 2.93 6.783 2.93 10.5 0 .45-.016.883-.05 1.317 1.54 2.916 2.378 6.233 2.378 9.716v1.05c.017-.366.1-.75.235-1.083.05-.05.067-.1.083-.15" fill="#F7BD00"/><path d="M22.618 12.797c.064.618.138 1.53.138 2.753 0 3.8-.82 7.45-2.445 10.85-.015.05-.032.1-.082.15-.134.333-.218.717-.235 1.083v-1.05c0-3.356-.777-6.56-2.212-9.397l4.838-4.39z" fill="#C39500"/></svg>