<?xml version="1.0" ?><svg height="24px" version="1.1" viewBox="0 0 24 24" width="24px" xmlns="http://www.w3.org/2000/svg" xmlns:sketch="http://www.bohemiancoding.com/sketch/ns" xmlns:xlink="http://www.w3.org/1999/xlink"><title/><desc/><defs/><g fill="none" fill-rule="evenodd" id="miu" stroke="none" stroke-width="1"><g id="Artboard-1" transform="translate(-215.000000, -587.000000)"><g id="slice" transform="translate(215.000000, 119.000000)"/><path d="M231.582414,594 L235.988889,594 C235.988889,594 237,594 237,595.018519 L237,604.981481 C237,606 235.988889,606 235.988889,606 L218.011111,606 C218.011111,606 217,606 217,604.981481 L217,595.018519 C217,594 218.011111,594 218.011111,594 L222.473662,594 L223.587207,592 L230.314929,592 L231.582414,594 Z M232.2,593 L236,593 C236,593 238,593 238,595 L238,605 C238,607 236,607 236,607 L218,607 C218,607 216,607 216,605 L216,595 C216,593 218,593 218,593 L221.8,593 L222.73872,591.435467 C222.882298,591.196171 223.224053,591 223.500436,591 L230.499564,591 C230.769203,591 231.116979,591.194965 231.26128,591.435467 L232.2,593 L232.2,593 Z M227,604 C229.485281,604 231.5,601.985281 231.5,599.5 C231.5,597.014719 229.485281,595 227,595 C224.514719,595 222.5,597.014719 222.5,599.5 C222.5,601.985281 224.514719,604 227,604 Z M227,603 C228.932997,603 230.5,601.432997 230.5,599.5 C230.5,597.567003 228.932997,596 227,596 C225.067003,596 223.5,597.567003 223.5,599.5 C223.5,601.432997 225.067003,603 227,603 Z M233,597 C233.552285,597 234,596.552285 234,596 C234,595.447715 233.552285,595 233,595 C232.447715,595 232,595.447715 232,596 C232,596.552285 232.447715,597 233,597 Z M219.221677,591.5 C219.099248,591.5 219,591.588743 219,591.699961 L219,592.300039 C219,592.410474 219.09918,592.5 219.221677,592.5 L220.778323,592.5 C220.900752,592.5 221,592.411257 221,592.300039 L221,591.699961 C221,591.589526 220.90082,591.5 220.778323,591.5 L219.221677,591.5 Z" fill="#000000" id="device-camera-capture-photo-outline-stroke"/></g></g></svg>