<svg xmlns="http://www.w3.org/2000/svg" width="20" height="16" viewBox="0 0 20 16"><path d="M6.827 7.765h-1.82c0-2.725 2.246-4.94 5.006-4.94 1.093 0 2.134.345 2.983.975.153.112.362.1.488-.04l1.425-1.592c.132-.15.117-.387-.04-.512C13.5.584 11.8 0 10.01 0c-4.34 0-7.867 3.48-7.867 7.765H.325c-.272 0-.423.286-.253.478l3.25 3.646c.13.146.378.146.508 0L7.08 8.24c.17-.192.02-.478-.253-.478zm13.1-.008l-3.25-3.646c-.13-.146-.377-.146-.507 0L12.92 7.76c-.17.192-.02.478.253.478h1.82c0 2.725-2.246 4.94-5.006 4.94-1.093 0-2.134-.345-2.983-.975-.153-.11-.362-.1-.488.04L5.09 13.833c-.133.15-.118.387.04.512C6.5 15.416 8.198 16 9.988 16c4.34 0 7.867-3.48 7.867-7.765h1.82c.273 0 .424-.286.254-.478z" fill="#ABABAB" fill-rule="evenodd"/></svg>