<svg xmlns="http://www.w3.org/2000/svg" width="18" height="18" viewBox="0 0 18 18"><path d="M9 18c4.97 0 9-4.03 9-9s-4.03-9-9-9-9 4.03-9 9 4.03 9 9 9zM5.85 7.162h1.546c.053-.803.6-1.317 1.45-1.317.828 0 1.38.494 1.38 1.18 0 .65-.275 1-1.092 1.493-.908.534-1.29 1.126-1.23 2.114l.006.448h1.527v-.376c0-.65.244-.987 1.106-1.494.896-.534 1.396-1.238 1.396-2.246 0-1.455-1.207-2.495-3.01-2.495-1.955 0-3.03 1.13-3.08 2.69zm2.896 7.058c.672 0 1.093-.414 1.093-1.046 0-.64-.423-1.054-1.095-1.054-.66 0-1.093.415-1.093 1.054 0 .632.434 1.046 1.093 1.046z" fill="#B5B5B5" fill-rule="evenodd"/></svg>