<svg width="51" height="40" viewBox="0 0 51 40" xmlns="http://www.w3.org/2000/svg"><title>Group 39</title><g fill="none" fill-rule="evenodd"><path d="M37.322 23.381c-.01.142-.018.285-.023.427" fill="#93B9F4"/><path d="M41.681 5.878C37.617 6.049 30.493 3.66 25.482 0 20.468 3.66 13.343 6.049 9.278 5.878 9.408 25.539 10.748 31.452 25.48 40c14.732-8.548 16.074-14.461 16.201-34.122" fill="#3F72BA"/><path d="M40.58 6.606c-3.79.15-10.43-1.955-15.1-5.181-4.67 3.226-11.31 5.332-15.098 5.18.118 17.33 1.368 22.543 15.098 30.077 13.73-7.535 14.98-12.747 15.1-30.077" fill="#E5EEFD"/><path d="M40.58 6.606c-3.79.15-10.43-1.955-15.1-5.181-4.67 3.226-11.31 5.332-15.098 5.18.118 17.33 1.368 22.543 15.098 30.077 13.73-7.535 14.98-12.747 15.1-30.077z" stroke="#717791" stroke-width="2.5" stroke-linecap="round" stroke-linejoin="round"/><path d="M25.48 33.99c-6.046-3.42-8.949-6.925-10.542-10.177-1.62-3.31-2.066-7.73-2.18-14.883 3.877-.212 8.75-2.446 12.722-4.729 3.973 2.284 8.846 4.518 12.722 4.73-.114 7.151-.56 11.571-2.18 14.882-1.592 3.252-4.496 6.756-10.542 10.177" fill="#FFF"/><path d="M23.868 33.556c-2.523-.498-4.484-2.108-6.281-3.836-1.805-1.747-3.322-3.832-4.341-6.225-.993-2.418-1.371-4.913-1.574-7.33a71.984 71.984 0 0 1-.163-7.21V8.95a1.276 1.276 0 0 1 .961-1.212l.22-.056c.567-.144 1.155-.124 1.771-.128.614 0 1.248-.008 1.91.018h.013a.707.707 0 0 1 .368 1.294 8.913 8.913 0 0 1-1.853.945c-.652.242-1.347.44-2.072.367l1.182-1.268v.004c.139 2.351.242 4.696.487 6.987.238 2.287.589 4.534 1.38 6.52.793 1.992 2.057 3.851 3.57 5.48 1.522 1.661 3.397 2.891 4.891 4.895l.006.007a.477.477 0 0 1-.475.753M21.11 5.765c.536-.649 1.15-1.106 1.78-1.53.63-.425 1.275-.812 1.967-1.117l.205-.09a1.099 1.099 0 0 1 1.041.09h.001c1.938 1.112 3.93 2.126 5.971 2.955 2.034.817 4.15 1.478 6.193 1.61h.019c.661.06 1.16.616 1.165 1.267.01 2.52-.016 5.051-.289 7.612-.28 2.543-.695 5.203-1.937 7.674-1.2 2.405-2.909 4.517-4.882 6.234a21.66 21.66 0 0 1-6.639 3.916.461.461 0 0 1-.454-.788l.005-.004c1.941-1.593 3.87-3.085 5.566-4.775 1.72-1.658 3.154-3.558 4.11-5.678.915-2.069 1.343-4.43 1.58-6.848.227-2.42.34-4.898.44-7.382l1.181 1.267h-.002c-2.52-.168-4.807-.917-6.995-1.788-2.183-.887-4.262-1.949-6.278-3.104h1.245c-.673.41-1.395.737-2.13 1.027-.736.291-1.488.55-2.318.615a.685.685 0 0 1-.583-1.117l.038-.046zm-2.662.851c-.047-.268-.02-.34.021-.375l.124-.109c.038-.04.093-.04.14-.063a.306.306 0 0 1 .166.001l.067.016a1.494 1.494 0 0 1 .873 2.301.339.339 0 0 1-.13.118c-.054.017-.098.056-.158.054l-.174.01c-.058.003-.13-.03-.277-.259a4.475 4.475 0 0 1-.64-1.62l-.012-.074z" fill="#717791"/><path d="M24.012 23.695a1.22 1.22 0 0 1-.864-.358L18.91 19.1a1.223 1.223 0 0 1 1.73-1.729l3.372 3.372 7.26-7.259A1.222 1.222 0 1 1 33 15.214l-8.124 8.123a1.223 1.223 0 0 1-.865.358" fill="#FFF"/><path d="M31.545 13.278A1.224 1.224 0 0 1 33 15.214l-8.124 8.123a1.219 1.219 0 0 1-1.73 0L18.91 19.1a1.225 1.225 0 0 1 0-1.73 1.225 1.225 0 0 1 1.73 0l3.372 3.372 5.186-5.186" fill="#96C0FF"/><path d="M31.296 12.828c.326-.387.906-.548 1.445-.435.55.109 1.022.506 1.28 1.009a2.127 2.127 0 0 1-.311 2.39l-.366.386-2.73 2.837-2.73 2.838-1.364 1.419-.684.707-.186.19a2.357 2.357 0 0 1-1.252.638 2.375 2.375 0 0 1-1.808-.43c-.302-.237-.358-.328-.485-.442l-.353-.344-1.407-1.376-1.407-1.376-.705-.688-.175-.172a2.449 2.449 0 0 1-.691-1.265 2.448 2.448 0 0 1 .392-1.885 2.464 2.464 0 0 1 3.503-.555c.312.253.353.327.485.449l.349.347 2.789 2.778.01.012h-1.767l5.612-4.761a.65.65 0 0 1 .916.916l-4.76 5.612a1.154 1.154 0 0 1-1.626.134l-.057-.051-.085-.083-.012-.011-2.777-2.79-.576-.576c.007.004.013.003.013.003.012-.002.014-.015.009-.018l-.007-.003c.004.006-.013-.012.01.016l.172.176.689.703 1.376 1.408 1.375 1.408.572.586c.01.012.03.022.054.022a.081.081 0 0 0 .03-.006l.017-.01.16-.156.709-.685 1.419-1.365 2.837-2.73 2.838-2.73.326-.313a.297.297 0 0 0 .072-.101.334.334 0 0 0 .002-.256c-.102-.148-.162-.32-.642-.471l-.262-.082a.512.512 0 0 1-.236-.818" fill="#717791"/><path d="M43.172 24.04c-4.421.973-10.712 1.58-17.691 1.58-13.382 0-24.231-2.232-24.231-4.986 0-1.307 2.443-2.496 6.439-3.385m35.064-.113c4.304.9 6.958 2.135 6.958 3.498 0 1.112-1.771 2.14-4.764 2.969m-37.062 12c.38-1.591 1.655-3.905 3.616-6.635m-3.456 8.484a1.137 1.137 0 0 1-.19-.356" stroke="#96C0FF" stroke-width="2.5" stroke-linecap="round" stroke-linejoin="round"/><path d="M38.882 4.165c1.939-.875 3.342-1.07 3.965-.429 1.92 1.973-4.297 11.14-13.89 20.471-8.111 7.894-16.038 13.378-19.452 13.687" stroke="#96C0FF" stroke-width="2.5" stroke-linecap="round" stroke-linejoin="round"/><path d="M13.44 17.928a111.035 111.035 0 0 0 5.982 6.28c9.591 9.332 18.923 15.297 20.844 13.323.926-.951-.039-3.573-2.36-7.078M12.079 16.342c.06.072.12.144.182.216M9.87 4.338c-2.131-1.02-3.674-1.283-4.337-.602-1.241 1.276.921 5.561 5.197 10.953" stroke="#96C0FF" stroke-width="2.5" stroke-linecap="round" stroke-linejoin="round"/></g></svg>