<svg width="30" height="53" viewBox="0 0 30 53" xmlns="http://www.w3.org/2000/svg" xmlns:xlink="http://www.w3.org/1999/xlink"><title>Group 26</title><defs><path id="a" d="M0 .371h29.946V53H0z"/></defs><g fill="none" fill-rule="evenodd"><path d="M28.591 27.709c-.01.15-.018.3-.025.451" fill="#93B9F4"/><path d="M28.606 6.72v39.135a5.431 5.431 0 0 1-5.432 5.432H6.73a5.431 5.431 0 0 1-5.432-5.432V6.72A5.433 5.433 0 0 1 6.73 1.288h16.443a5.427 5.427 0 0 1 5.352 4.516c.054.298.08.604.08.916" fill="#FFF"/><path d="M28.606 45.117v.738a5.431 5.431 0 0 1-5.432 5.432H6.73a5.431 5.431 0 0 1-5.432-5.432v-.738h27.307zm-.081-39.313H1.377A5.43 5.43 0 0 1 6.73 1.288h16.442a5.426 5.426 0 0 1 5.352 4.516" fill="#E5EEFD"/><path d="M.047 15.325c-.064-.047-.023-.093.042-.14a.999.999 0 0 1 .285-.139 2.883 2.883 0 0 1 1.847 0 .975.975 0 0 1 .284.14c.065.046.106.092.042.14a2.128 2.128 0 0 1-2.5 0" fill="#717791"/><g transform="translate(0 -.371)"><mask id="b" fill="#fff"><use xlink:href="#a"/></mask><path d="M.597 14.276C.41 12.818.284 11.359.158 9.9.101 9.17.04 8.44.048 7.713l-.002-.547.028-.655A6.678 6.678 0 0 1 6.24.422c.483-.033.818-.024 1.185-.026L8.517.395 17.27.382l4.376-.006c.762.014 1.364-.042 2.34.049a6.68 6.68 0 0 1 2.552.852 6.742 6.742 0 0 1 3.165 4.214c.111.438.175.889.19 1.339.023.465.007.757.012 1.144l.004 2.188.012 8.75.026 17.504v8.75l-.002 1.103a7.536 7.536 0 0 1-.144 1.354 6.78 6.78 0 0 1-5.588 5.29c-.224.04-.45.065-.677.07-.237.014-.45.02-.618.017l-1.093-.001h-2.188l-4.376-.001c-2.94-.006-5.782.012-8.804-.026a6.741 6.741 0 0 1-6.407-5.94 10.734 10.734 0 0 1-.048-1.246l.03-8.751.028-8.751.015-4.376c-.015-1.46.068-2.917.618-4.376a.647.647 0 0 1 1.21 0c.55 1.459.633 2.917.618 4.376l.014 4.376.03 8.75.03 8.752a7.87 7.87 0 0 0 .036.938c.036.276.096.546.184.808a4.15 4.15 0 0 0 .832 1.423 4.106 4.106 0 0 0 2.916 1.37l8.698-.003 4.376-.001 2.188-.001h1.093c.2.003.35-.004.476-.013.138-.001.274-.016.41-.042a4.097 4.097 0 0 0 3.371-3.193c.052-.27.08-.543.087-.82l.001-1.085v-8.751l.025-17.503.013-8.751.004-2.188c-.004-.343.01-.78-.009-1.044a3.725 3.725 0 0 0-.113-.822 4.154 4.154 0 0 0-1.939-2.597 4.096 4.096 0 0 0-1.567-.528c-.475-.06-1.336-.03-2.03-.038l-4.377-.006-8.752-.013-1.093-.002c-.363-.001-.758-.004-1.002.016a4.158 4.158 0 0 0-3.854 3.787l-.02.439-.002.547c.008.729-.053 1.458-.11 2.188-.126 1.458-.25 2.917-.44 4.375a.704.704 0 0 1-1.399 0" fill="#717791" mask="url(#b)"/></g><path d="M13.12 2.864c.318-.247.638-.348.957-.421.32-.075.64-.061.958-.048.638.04 1.277.144 1.916.469a.86.86 0 0 1 0 1.533c-.639.324-1.278.427-1.916.468-.319.014-.639.028-.958-.047-.319-.074-.639-.175-.958-.421a.97.97 0 0 1 0-1.533m3.802 46.619c-.043.613-.504 1.136-1.089 1.39-.594.259-1.282.21-1.893-.014-1.241-.442-2.046-1.845-1.799-3.114.201-1.288 1.335-2.264 2.532-2.316a2.352 2.352 0 0 1 1.62.48c.439.349.706.864.723 1.367a.459.459 0 0 1-.709.402l-.103-.066c-.554-.357-.963-.33-1.265-.221-.3.125-.431.434-.386.645.035.221.16.368.325.46.081.052.179.04.301.094.133.05.315.124.714.135l.35.01a.699.699 0 0 1 .68.718l-.001.03m8.896-4.846c.227-.189.453-.296.68-.408a3.67 3.67 0 0 1 .678-.213c.453-.09.905-.142 1.358-.052a1.274 1.274 0 0 1 0 2.5c-.453.09-.905.04-1.358-.053a3.591 3.591 0 0 1-.678-.212c-.227-.112-.453-.219-.68-.408a.752.752 0 0 1 0-1.154m-4.684-.007c.126-.36.25-.518.377-.607.124-.064.25-.19.375.435a3.885 3.885 0 0 1 0 1.512c-.125.624-.25.5-.376.436-.125-.09-.25-.25-.377-.607a1.768 1.768 0 0 1 0-1.17" fill="#717791"/><path d="M1.333 43.964c1.483-.09 2.966-.117 4.45-.151 1.483-.024 2.966-.014 4.449 0 1.484.029 2.967.052 4.45.114 1.484.089 2.967-.094 4.45.803a.566.566 0 0 1 0 .969c-1.483.897-2.966.713-4.45.803-1.483.062-2.966.084-4.45.113-1.483.014-2.966.024-4.45 0-1.483-.033-2.966-.06-4.45-.151a1.253 1.253 0 0 1 0-2.5M4.423 5.31c2.008-.688 4.018-.6 6.027-.665l6.029-.112c4.018-.022 8.036-.043 12.055.082a1.25 1.25 0 0 1 1.21 1.289 1.255 1.255 0 0 1-1.21 1.21c-4.02.127-8.037.105-12.055.084l-6.028-.113c-2.01-.066-4.02.024-6.029-.664a.587.587 0 0 1 0-1.111" fill="#717791"/></g></svg>