<svg width="43" height="44" viewBox="0 0 43 44" xmlns="http://www.w3.org/2000/svg" xmlns:xlink="http://www.w3.org/1999/xlink"><title>Group 20</title><defs><path id="a" d="M0 .205h42.148V37H0z"/></defs><g fill="none" fill-rule="evenodd"><path fill="#FFF" d="M35.697 16.629H4.849L7.878 1.555h24.79z"/><path stroke="#717791" stroke-width="3" stroke-linecap="round" stroke-linejoin="round" d="M35.697 16.629H4.849L7.878 1.555h24.79z"/><path d="M1.438 41.267a2.041 2.041 0 0 1-.516-1.549l2.703-30.27a1.564 1.564 0 0 1 1.557-1.425h31.74c.432 0 .792.33.831.76l2.733 30.776a1.781 1.781 0 0 1-1.775 1.94H2.981" fill="#FFF"/><g transform="translate(0 6.14)"><mask id="b" fill="#fff"><use xlink:href="#a"/></mask><path d="M.868 35.64A2.78 2.78 0 0 1 0 33.603l.004-.569c.004-.716.008-1.432.034-2.146.038-1.429.101-2.855.186-4.28.155-2.85.412-5.692.648-8.535l.718-8.529.36-4.264.182-2.158C2.253 1.708 3.468.5 4.89.383L22.151.28 30.71.237l4.28-.022L36.06.21l.535-.003.267-.002h.08l.2.01a2.503 2.503 0 0 1 1.736.919c.17.208.305.444.402.697.047.127.085.257.111.39.026.115.045.315.045.315l.1 1.065 1.507 17.052.754 8.526.177 2.132.09 1.066.043.533c.013.203.033.274.042.69.002 1.394-.92 2.707-2.222 3.18a3.306 3.306 0 0 1-1.003.212c-.2.011-.288.007-.368.007l-.268-.002-1.069-.006-17.119-.1c-5.706-.01-11.412-.027-17.118-1.134a.404.404 0 0 1 0-.793C8.687 33.857 14.393 33.84 20.1 33.83l17.12-.1 1.068-.007h.268c.098 0 .19-.003.167-.006a.06.06 0 0 0 .038-.01c.047-.02.083-.083.076-.125l-.387-4.106-.76-8.525-1.523-17.05-.089-1.066c-.007-.086 0 .022.01.051a.784.784 0 0 0 .04.131.851.851 0 0 0 .79.547h-.056l-.267-.002-.535-.003-1.07-.005-4.28-.022-8.558-.044-16.975-.087c-.016 0-.048.015-.05.041l-.2 2.104-.403 4.261-.805 8.521c-.27 2.84-.522 5.682-.874 8.515a129.111 129.111 0 0 1-.575 4.245c-.1.708-.224 1.413-.346 2.118l-.087.496c-.02.1-.027.2-.02.302.012.203.07.42.192.613l.037.06a.765.765 0 0 1-1.177.962" fill="#717791" mask="url(#b)"/></g><path fill="#E5EEFD" d="M4.844 8.026l5.443-3.005L7.833 1.5h24.86l-1.814 3.094 6.216 3.426z"/><path stroke="#717791" stroke-width="3" stroke-linecap="round" stroke-linejoin="round" d="M4.844 8.026l5.443-3.005L7.833 1.5h24.86l-1.814 3.094 6.216 3.426zm23.625 7.217v3.437c0 4.446-4.014 7.38-8.46 7.38h-.001c-4.447 0-7.643-2.934-7.643-7.38v-3.437"/><path d="M15.078 16.812c-.065.753-.639 1.395-1.363 1.707-.735.317-1.585.256-2.34-.02-1.532-.547-2.527-2.278-2.224-3.85a3.537 3.537 0 0 1 1.097-2.011 3.41 3.41 0 0 1 2.033-.86 2.929 2.929 0 0 1 2.01.59c.546.43.883 1.068.912 1.693a.55.55 0 0 1-.863.479l-.11-.076c-.684-.472-1.222-.468-1.63-.33-.408.155-.604.567-.555.865a.83.83 0 0 0 .456.663c.12.072.261.06.43.117.181.055.42.129.913.123l.386-.004a.841.841 0 0 1 .848.914m15.514 0c-.065.753-.639 1.395-1.363 1.707-.736.317-1.585.256-2.34-.02-1.533-.547-2.527-2.278-2.225-3.85a3.544 3.544 0 0 1 1.098-2.011 3.409 3.409 0 0 1 2.032-.86 2.93 2.93 0 0 1 2.011.59c.546.43.883 1.068.912 1.693a.551.551 0 0 1-.864.479l-.11-.076c-.683-.472-1.22-.468-1.63-.33-.407.155-.603.567-.554.865a.828.828 0 0 0 .456.663c.12.072.261.06.43.117.181.055.42.129.913.123l.386-.004a.841.841 0 0 1 .848.914" fill="#717791"/></g></svg>