<svg width="66" height="43" viewBox="0 0 66 43" xmlns="http://www.w3.org/2000/svg" xmlns:xlink="http://www.w3.org/1999/xlink"><title>Group 16</title><defs><path id="a" d="M.921.477h58.606v42.382H.921z"/><path id="c" d="M.298.723h63.265v35.276H.298z"/><path id="e" d="M0 .907h25.718V26.68H0z"/></defs><g fill="none" fill-rule="evenodd"><path d="M58.584 3.337H25.07V3.09a1.817 1.817 0 0 0-1.82-1.817h-11.3a1.817 1.817 0 0 0-1.818 1.817v.246h-2.26A2.654 2.654 0 0 0 5.218 5.99v33.562c0 .842.682 1.524 1.523 1.524h52.973c.842 0 1.524-.682 1.524-1.524V5.99a2.654 2.654 0 0 0-2.654-2.654" fill="#B8D4FF"/><g transform="translate(3 -.477)"><mask id="b" fill="#fff"><use xlink:href="#a"/></mask><path d="M57.585 6.383c-.298-.566-.625-.955-1.053-1.181a1.719 1.719 0 0 0-.655-.17 2.458 2.458 0 0 0-.347.008l-.587.015-4.696.012-9.392.004-18.785.009a1.265 1.265 0 0 1-1.265-1.264v-.001l-.002-.255c-.002-.03 0-.057-.008-.083a.477.477 0 0 0-.05-.156.58.58 0 0 0-.228-.236.722.722 0 0 0-.153-.056c-.069-.007-.055-.012-.293-.011h-1.094l-4.376.002-4.376.003H9.131c-.238-.001-.224.005-.292.01a.796.796 0 0 0-.15.057.566.566 0 0 0-.225.235.48.48 0 0 0-.049.153c-.007.026-.006.054-.008.082v.26A1.27 1.27 0 0 1 7.13 5.088H4.9l-.144.008A1.374 1.374 0 0 0 3.52 6.22c-.017.087-.019.16-.024.266v.496l.001.99.003 7.935.008 15.867.004 7.934c-.002.456.001.34.023.418a.23.23 0 0 0 .102.107.167.167 0 0 0 .07.02c.015.006.013 0 .048.006l.248-.001h.992l3.966-.002 15.868-.008 31.735.01c.23.002.154-.003.204-.006a.165.165 0 0 0 .066-.027.216.216 0 0 0 .096-.113.152.152 0 0 0 .015-.072l.003-.442.002-.992.005-3.967.011-7.933.022-15.868a1.25 1.25 0 0 1 2.5 0l.022 15.868.012 7.933.005 3.967.001.992-.003.55a2.804 2.804 0 0 1-1.334 2.278c-.259.16-.546.28-.845.348a3.418 3.418 0 0 1-.782.073l-31.735.01-15.868-.007-3.966-.002-.992-.001h-.248c-.129-.004-.297-.008-.444-.035-.302-.047-.6-.14-.87-.284a2.823 2.823 0 0 1-1.246-1.298c-.286-.521-.28-1.323-.269-1.522l.003-7.934.008-15.867.004-7.934V6.487a3.942 3.942 0 0 1 1.575-3.161 3.934 3.934 0 0 1 2.034-.771l.351-.016h2.231L5.858 3.816l.001-.293a3.1 3.1 0 0 1 .043-.462c.052-.305.145-.607.288-.883A3.111 3.111 0 0 1 7.461.86c.273-.148.568-.256.872-.32.291-.062.672-.065.798-.062h1.094l4.376.003 4.376.002h1.094c.126-.002.506 0 .797.062.303.065.597.173.87.32a3.11 3.11 0 0 1 1.267 1.316c.142.275.236.576.287.88.028.153.038.307.043.46l.001.294-1.266-1.266 18.785.009 9.392.005 4.696.01.587.016c.236.01.555.048.82.113.552.143 1.053.43 1.467.789.84.704 1.3 1.84 1.068 2.838a.669.669 0 0 1-1.242.163l-.058-.11z" fill="#717791" mask="url(#b)"/></g><path d="M61.72 8.372H22.34v-1.01a1.818 1.818 0 0 0-1.818-1.819H9.22a1.818 1.818 0 0 0-1.818 1.818v1.011H3.866a2.654 2.654 0 0 0-2.654 2.653l2.877 28.373a2.024 2.024 0 0 0 2.014 1.821h53.62a2.026 2.026 0 0 0 2.016-1.838l2.634-28.356a2.653 2.653 0 0 0-2.653-2.653" fill="#FFF"/><path d="M33.567 9.175c-.297.362-.595.461-.893.496-.298.016-.596-.052-.894-.413a1.31 1.31 0 0 1 0-1.664c.298-.36.596-.429.894-.412.298.034.596.134.893.496a1.179 1.179 0 0 1 0 1.497" fill="#717791"/><g transform="translate(2 6.523)"><mask id="d" fill="#fff"><use xlink:href="#c"/></mask><path d="M2.004 26.262c.429.453.687.922.833 1.404.038.491.062.985.124 1.474l.298 2.944.074.726c.01.096.037.185.08.27a.785.785 0 0 0 .69.42h14.06l23.677.002 11.838.002h3.7l.355-.002a.78.78 0 0 0 .765-.702l.034-.362.139-1.475.28-2.946 2.239-23.57-.005.11c.013-.7-.55-1.372-1.252-1.454-.103-.018-.136-.015-.303-.02h-.474l-.946-.003-1.892-.004-7.57-.014-7.57-.015c-2.523-.006-5.047-.057-7.57-.358a.792.792 0 0 1 0-1.572c2.523-.3 5.047-.352 7.57-.357l7.57-.015 7.57-.015L58.21.726l.946-.002.474-.001c.146.003.432.004.64.041 1.843.22 3.32 1.941 3.294 3.792l-.001.02-.005.09-2.142 23.58-.267 2.949-.135 1.472-.035.373a3.29 3.29 0 0 1-.642 1.652 3.275 3.275 0 0 1-2.575 1.303l-.384.002H41.839L18.162 36H4.104a3.27 3.27 0 0 1-3.256-2.917l-.076-.745-.3-2.945c-.036-.491-.112-.98-.174-1.47a3.49 3.49 0 0 1 .535-1.541.744.744 0 0 1 1.17-.119" fill="#717791" mask="url(#d)"/></g><g transform="translate(0 3.523)"><mask id="f" fill="#fff"><use xlink:href="#e"/></mask><path d="M25.41 5.453c-.256.157-.512.309-.768.399a3.926 3.926 0 0 1-.767.25c-.511.13-1.023.178-1.535-.031l-.526-.215a1.034 1.034 0 0 1-.641-.953l-.004-1.075a.652.652 0 0 0-.54-.575c-.034-.01-.071-.006-.107-.011H9.22c-.036.005-.073.002-.107.01a.633.633 0 0 0-.367.197.657.657 0 0 0-.173.379l-.004 1.075A1.171 1.171 0 0 1 7.408 6.07h-.006l-1.926.015-.963.007c-.303.004-.71 0-.821.019-.71.08-1.27.745-1.267 1.445l-.007-.122c.302 3.11.627 6.217.892 9.33l.417 4.669.208 2.334c.07.778.178 1.552-.102 2.366a.808.808 0 0 1-1.46.148c-.438-.741-.487-1.521-.575-2.297l-.264-2.33L1.004 17C.64 13.897.334 10.787.007 7.68A1.124 1.124 0 0 1 0 7.567v-.01a3.836 3.836 0 0 1 .978-2.563A3.841 3.841 0 0 1 3.41 3.735c.527-.045.764-.016 1.103-.021l.963.008 1.926.014-1.168 1.167v-.595c.004-.223-.011-.325.014-.708A2.992 2.992 0 0 1 9.22.907h11.302a2.974 2.974 0 0 1 2.178.945 2.99 2.99 0 0 1 .793 1.748c.026.383.01.485.015.708v.595L22.34 3.736c.512-.21 1.024-.162 1.535-.032.256.057.512.137.767.25.256.09.512.243.768.399a.645.645 0 0 1 0 1.1" fill="#717791" mask="url(#f)"/></g></g></svg>