<svg width="57" height="43" viewBox="0 0 57 43" xmlns="http://www.w3.org/2000/svg" xmlns:xlink="http://www.w3.org/1999/xlink"><title>Group 21</title><defs><path id="a" d="M0 42.2h56.179V0H0z"/></defs><g fill="none" fill-rule="evenodd"><path d="M51.596 41.1H4.584A3.484 3.484 0 0 1 1.1 37.616V4.583A3.483 3.483 0 0 1 4.584 1.1h47.012a3.483 3.483 0 0 1 3.483 3.483v33.033a3.483 3.483 0 0 1-3.483 3.484" fill="#FFF"/><mask id="b" fill="#fff"><use xlink:href="#a"/></mask><path fill="#B8D4FF" mask="url(#b)" d="M1.644 6.929h52.907v-5.47H1.644z"/><path d="M51.596 41.1H4.584A3.484 3.484 0 0 1 1.1 37.616V4.583A3.483 3.483 0 0 1 4.584 1.1h47.012a3.483 3.483 0 0 1 3.483 3.483v33.033a3.483 3.483 0 0 1-3.483 3.484z" stroke="#717791" stroke-width="2.2" stroke-linecap="round" stroke-linejoin="round" mask="url(#b)"/><path d="M55.08 6.913H6.967" fill="#FFF" mask="url(#b)"/><path d="M55.08 8.013l-12.028.095-12.029-.003-12.028-.087-6.014-.047c-2.005-.014-4.009.022-6.013-.514a.564.564 0 0 1 0-1.09c2.004-.535 4.008-.5 6.013-.513l6.014-.047 12.028-.086 12.03-.004 12.026.096a1.1 1.1 0 0 1 0 2.2M4.863 4.009a.711.711 0 1 1-1.423 0 .711.711 0 0 1 1.423 0m2.397 0a.712.712 0 1 1-1.423 0 .712.712 0 0 1 1.424 0m2.397 0a.712.712 0 1 1-1.423 0 .712.712 0 0 1 1.423 0" fill="#717791" mask="url(#b)"/><path d="M27.451 20.782c.57-.001.761.446.761.998l.02 12.505c0 .552-.188 1-.759 1.003L7.43 35.34c-.57.002-.759-.446-.76-.997l-.02-12.506c0-.552.188-1.001.76-1.002l20.041-.054z" fill="#FFF" mask="url(#b)"/><path d="M27.451 20.782c.57-.001.761.446.761.998l.02 12.505c0 .552-.188 1-.759 1.003L7.43 35.34c-.57.002-.759-.446-.76-.997l-.02-12.506c0-.552.188-1.001.76-1.002l20.041-.054z" fill="#B8D4FF" mask="url(#b)"/><path fill="#96C0FF" mask="url(#b)" d="M28.215 30.737l-.033 1.042-.03 2.734-.307.756-19.825-.122h-.004l.004-.005 1.814-1.905 3.31-3.02 3.422 2.752 7.15-6.589z"/><path fill="#B8D4FF" mask="url(#b)" d="M8.02 35.143v.005h-.004z"/><path d="M15.444 24.812a2.011 2.011 0 1 1-4.022.006 2.011 2.011 0 0 1 4.022-.006" fill="#FFF" mask="url(#b)"/><path d="M49.316 16.24H8.146a1.805 1.805 0 0 1 0-3.61h41.17a1.805 1.805 0 0 1 0 3.61" fill="#B8D4FF" mask="url(#b)"/><path d="M32.041 21.375c2.951-.121 5.903-.118 8.854-.096l4.428.093c1.477.02 2.952.045 4.428.573a.546.546 0 0 1 0 1.032c-1.476.527-2.951.552-4.428.572l-4.428.094c-2.951.022-5.903.024-8.854-.097a1.087 1.087 0 0 1 0-2.171m0 11.328a61.287 61.287 0 0 1 5.249-.099c.875.017 1.75.045 2.625.09.875.031 1.75.05 2.625.58a.602.602 0 0 1 0 1.031c-.875.53-1.75.548-2.625.58-.875.044-1.75.072-2.625.09a61.7 61.7 0 0 1-5.249-.1 1.088 1.088 0 0 1 0-2.172m9.839-5.28c.656-.33 1.312-.478 1.968-.566a18.043 18.043 0 0 1 1.968-.13c.656 0 1.312.043 1.967.092.657.05 1.312.15 1.968.433a.718.718 0 0 1 0 1.316c-.656.283-1.311.382-1.968.433-.655.049-1.311.092-1.967.09a18.04 18.04 0 0 1-1.968-.127c-.656-.09-1.312-.238-1.968-.567a.544.544 0 0 1 0-.974m-10.197 0c.656-.33 1.312-.478 1.968-.566a18.043 18.043 0 0 1 1.968-.13c.656 0 1.31.043 1.967.092.656.05 1.312.15 1.968.433a.717.717 0 0 1 0 1.316c-.656.283-1.312.382-1.968.433-.656.049-1.311.092-1.967.09a18.04 18.04 0 0 1-1.968-.127c-.656-.09-1.312-.238-1.968-.567a.544.544 0 0 1 0-.974" fill="#96C0FF" mask="url(#b)"/></g></svg>