<svg width="64" height="52" viewBox="0 0 64 52" xmlns="http://www.w3.org/2000/svg" xmlns:xlink="http://www.w3.org/1999/xlink"><title>Group 16</title><defs><path id="a" d="M0 .301h63.813v48.354H0z"/></defs><g fill="none" fill-rule="evenodd"><path d="M27.48 4.307a13.768 13.768 0 0 0-6.837 1.21c-3.195 1.465-7.77 3.561-9.027 4.127a8.58 8.58 0 0 0-.643.323l-4.194 2.326a2.299 2.299 0 0 0-.968 2.981l2.935 6.303 7.223-1.884.626 10.684-.294 17.118a2.584 2.584 0 0 0 2.52 2.627l23.216.56 5.038-.198a2.767 2.767 0 0 0 2.657-2.685l.68-23.38 1.282-.909 5.78 2.67 4.777-11.637L43.206 4.411l-15.727-.104z" fill="#A9EBC8"/><path d="M47.945 51.667c-2.532.104-5.057-.076-7.585-.12l-7.582-.248c-2.527-.09-5.055-.158-7.58-.279l-7.58-.332a.427.427 0 1 1 .022-.855l7.586.072c2.53.013 5.057.081 7.585.124l7.585.156c2.528.09 5.058.044 7.581.283a.6.6 0 0 1-.032 1.2" fill="#717791"/><g transform="translate(0 -.3)"><mask id="b" fill="#fff"><use xlink:href="#a"/></mask><path d="M13.05 48.41c-.48-2.356-.517-4.7-.49-7.043l.052-7.03c.012-2.343.097-4.684.143-7.026.06-2.34.15-4.683.274-7.023l1.474 1.017h-.001l-5.105 2.108-1.277.527A2.585 2.585 0 0 1 4.995 23c-.1-.139-.22-.393-.251-.465l-.14-.314-.564-1.262-2.253-5.043-1.127-2.52-.282-.632-.141-.313a3.045 3.045 0 0 1-.18-.536 2.584 2.584 0 0 1 1.487-2.907l.632-.278 1.265-.556 2.527-1.112 5.057-2.224L21.138.391c.147-.065.308-.094.459-.09l21.235.566h.009c.155.004.306.043.436.11l9.869 4.98 4.93 2.49 2.467 1.245 1.234.621.616.311a2.584 2.584 0 0 1 1.333 2.978 2.97 2.97 0 0 1-.207.527l-.157.309-.316.614-1.26 2.457-2.52 4.916-.628 1.23c-.114.2-.166.377-.431.755a2.584 2.584 0 0 1-3.17.782l-1.247-.596-4.986-2.378-.005-.002 1.526-.934a200.643 200.643 0 0 1-.212 5.37c-.093 1.79-.151 3.581-.274 5.37-.237 3.58-.422 7.16-.72 10.736a.433.433 0 1 1-.865-.023c-.106-3.588-.1-7.173-.148-10.759-.028-1.793.01-3.584.012-5.377.004-1.791.022-3.584.073-5.375a1.068 1.068 0 0 1 1.527-.936l.006.003 4.984 2.378 1.247.595a.44.44 0 0 0 .39-.006c.15-.101.117-.035.392-.578l.629-1.229 2.52-4.915 1.259-2.458.315-.614.157-.306c.035-.07.033-.073.047-.114a.451.451 0 0 0-.234-.513l-.616-.31-1.233-.623-2.465-1.245-4.93-2.487-9.855-4.975.445.11-21.237-.565.458-.09-10.113 4.447-5.057 2.224-2.528 1.112-1.265.556-.631.277a.443.443 0 0 0-.258.498c.012.04.009.042.042.117l.14.316.283.63 1.127 2.523 2.253 5.043.564 1.26c.245.558.212.482.358.593a.44.44 0 0 0 .394.026l1.275-.529 5.106-2.108a1.048 1.048 0 0 1 1.476.954v.06a274.291 274.291 0 0 1-.101 7.027c-.08 2.343-.118 4.684-.23 7.025l-.323 7.022c-.098 2.34-.261 4.678-.863 7.007a.306.306 0 0 1-.596-.017" fill="#717791" mask="url(#b)"/></g><path d="M22.876 6.704l-.123-.635a.55.55 0 0 1 .816-.582l.05.029.505.293.005.003a.845.845 0 1 1-1.253.892M43.43 1.933c-.244 1.798-.904 3.574-1.997 5.045-1.086 1.47-2.49 2.73-4.153 3.502-1.637.815-3.473 1.183-5.277 1.15-1.8-.03-3.612-.627-4.954-1.78a.426.426 0 0 1 .368-.739l.01.002c1.595.348 3.078.57 4.58.507 1.49-.043 2.968-.409 4.257-1.13 1.292-.706 2.444-1.669 3.303-2.867.869-1.186 1.449-2.565 1.753-4.016l.006-.036a1.068 1.068 0 0 1 2.104.362" fill="#717791"/><path d="M37.163 20.197c1.402-.045 5.437.145 6.96.185" fill="#FFF"/><path d="M37.139 19.456c1.162-.155 2.332-.164 3.502-.131.585.019 1.169.059 1.753.126.584.077 1.167.155 1.746.307a.642.642 0 0 1-.033 1.248c-.58.122-1.157.169-1.734.215-.577.036-1.152.046-1.727.033-1.151-.028-2.301-.098-3.46-.316l-.085-.016a.743.743 0 0 1 .038-1.466" fill="#717791"/></g></svg>