<svg width="45" height="43" viewBox="0 0 45 43" xmlns="http://www.w3.org/2000/svg" xmlns:xlink="http://www.w3.org/1999/xlink"><title>Group 39</title><defs><path id="a" d="M.938.5h22.136v15.328H.938z"/><path id="c" d="M0 .295h14.14v13.371H0z"/></defs><g fill="none" fill-rule="evenodd"><path d="M22.527 6.728l1.871-4.997a.724.724 0 0 1 .863-.447l16.89 4.419a.726.726 0 0 1 .474 1.005l-3.407 7.403" fill="#FFF"/><g transform="translate(21 -.5)"><mask id="b" fill="#fff"><use xlink:href="#a"/></mask><path d="M.942 7.01c.155-1.423.505-2.772.914-4.1l.329-.987.041-.123A1.975 1.975 0 0 1 4.143.501c.241.003.51.08.533.085l.252.063.505.125 1.009.252 8.073 2.01 4.024 1.05 2.011.53 1.107.3c.979.32 1.593 1.401 1.373 2.406-.175.626-.226.577-.299.781l-.218.472-.447.94-.898 1.875a230.239 230.239 0 0 1-1.814 3.744 1.25 1.25 0 0 1-2.271-1.045c.541-1.277 1.1-2.546 1.663-3.813l.842-1.902.421-.95.217-.474c.061-.113.193-.464.099-.176-.071.32.12.645.427.753l-.903-.234-2.012-.522-4.023-1.056-8.023-2.202-1.003-.275-.501-.138-.251-.069c-.143-.038-.044-.009.024-.01a.528.528 0 0 0 .507-.345l-.051.12-.4.96c-.563 1.27-1.186 2.517-2.003 3.691A.645.645 0 0 1 .942 7.01" fill="#717791" mask="url(#b)"/></g><path d="M13.637 2.333L1.817 5.215a.725.725 0 0 0-.489 1.003l3.496 7.736" fill="#FFF"/><g transform="translate(0 1.5)"><mask id="d" fill="#fff"><use xlink:href="#c"/></mask><path d="M13.767 1.365c-1.737.59-3.487 1.126-5.235 1.67-1.75.54-3.495 1.093-5.26 1.574l-.66.183-.33.091-.165.046a.523.523 0 0 0 .404-.425.56.56 0 0 0-.017-.256c-.001-.014-.02-.054-.015-.043l.036.077.073.155L3.762 6.92c.752 1.667 1.506 3.33 2.202 5.022a1.25 1.25 0 0 1-2.278 1.028c-.81-1.64-1.56-3.305-2.314-4.97L.279 5.487l-.07-.157-.032-.08-.078-.201A1.99 1.99 0 0 1 1.524 2.5l.168-.035.336-.072.67-.14c1.787-.385 3.59-.7 5.393-1.026 1.802-.322 3.603-.65 5.417-.925a.55.55 0 0 1 .259 1.063" fill="#717791" mask="url(#d)"/></g><path d="M21.68 9.3l-2.837-7.58a.726.726 0 0 0-.851-.45l-.791.193" fill="#FFF"/><path d="M20.51 9.738l-1.384-4.8-.69-2.4-.174-.598a.127.127 0 0 0-.046-.11c.054-.094-.522.043-.903.094l-.013.002a.475.475 0 0 1-.21-.923l.592-.195c.12-.057.6-.186.932-.047.354.11.661.392.81.744l.262.566 1.055 2.263 2.11 4.527a1.254 1.254 0 1 1-2.342.877" fill="#717791"/><path d="M28.423 39.407l9.521-2.728a1.79 1.79 0 0 0 1.298-1.724l-.024-20.843-17.254 5.995.026 21.108 1.301-.338" fill="#E5EEFD"/><path d="M28.229 38.727c2.564-1.052 5.176-1.941 7.806-2.765l.987-.305.494-.153c.108-.032.104-.036.133-.046l.069-.035a.545.545 0 0 0 .247-.368c.007-.059.008-.053.006-.278l-.042-4.133c-.05-5.51-.133-11.021-.13-16.531l1.886 1.339-8.626 2.999-8.647 2.937-.002.001.912-1.285a728.692 728.692 0 0 0-.2 10.554l-.044 5.277-.02 2.638c.034.879-.132 1.759.192 2.638v.002l-1.575-1.218c.203-.11.436-.104.677-.067.242.043.492.113.763.266a.98.98 0 0 1 .37 1.336l-.016.03a2.286 2.286 0 0 1-.537.603c-.193.15-.393.268-.624.271l-.736.007a.895.895 0 0 1-.84-1.225v-.002c.322-.88.154-1.759.185-2.638l-.026-2.639-.057-5.276a714.093 714.093 0 0 0-.227-10.553 1.307 1.307 0 0 1 .86-1.266l.052-.018.002-.001 8.605-3.057 8.627-2.996a1.422 1.422 0 0 1 1.885 1.34c.016 5.51-.054 11.021-.091 16.532l-.032 4.132c0 .119 0 .472-.06.752a3.044 3.044 0 0 1-2.252 2.376l-.5.132-.998.264c-2.668.694-5.354 1.322-8.087 1.788a.71.71 0 0 1-.39-1.359" fill="#717791"/><path d="M25.74 40.175l.52-.148" fill="#E5EEFD"/><path d="M25.565 39.565c.014-.28.072-.404.136-.506a.5.5 0 0 1 .214-.234 1.278 1.278 0 1 1 .688 2.404.505.505 0 0 1-.305-.085c-.108-.054-.223-.127-.383-.358a1.978 1.978 0 0 1-.35-1.221" fill="#717791"/><path d="M4.825 13.955l17.139 6.152-.002 21.143-15.95-4.57a1.793 1.793 0 0 1-1.296-1.73l.109-20.995z" fill="#E5EEFD"/><path d="M4.825 13.955l17.139 6.152-.002 21.143-15.95-4.57a1.793 1.793 0 0 1-1.296-1.73l.109-20.995z" stroke="#717791" stroke-width="2.5" stroke-linecap="round" stroke-linejoin="round"/><path d="M21.964 20.106l-3.959 8.84a.912.912 0 0 1-1.174.471L2.467 23.595a.911.911 0 0 1-.521-1.137l2.724-8.047a.913.913 0 0 1 .619-.586l16.034-4.459a.914.914 0 0 1 .484 0l16.949 4.62a.91.91 0 0 1 .621.577l2.772 7.922a.911.911 0 0 1-.528 1.15l-14.366 5.632a.913.913 0 0 1-1.156-.458l-4.135-8.703" fill="#FFF"/><path d="M4.77 24.529l-2.303-.934a.911.911 0 0 1-.521-1.137L4.67 14.41a.915.915 0 0 1 .62-.586l16.033-4.458a.914.914 0 0 1 .484-.002l16.95 4.62a.907.907 0 0 1 .62.579l2.772 7.922a.91.91 0 0 1-.527 1.149l-14.367 5.632a.91.91 0 0 1-1.155-.457l-4.136-8.703" stroke="#717791" stroke-width="2.5" stroke-linecap="round" stroke-linejoin="round"/><path d="M23.105 20.617c-.646 1.49-1.28 2.982-1.957 4.457l-1.005 2.217-1.06 2.265c-.436.867-1.49 1.336-2.418 1.084a2.268 2.268 0 0 1-.31-.104l-.14-.059-.28-.118-.56-.238-2.227-.987a91.744 91.744 0 0 1-4.398-2.106.825.825 0 0 1 .617-1.522c1.56.473 3.097.997 4.623 1.551l2.285.841.973.375a.322.322 0 0 0-.366.15l.933-2.175.986-2.225c.65-1.487 1.341-2.955 2.022-4.428a1.25 1.25 0 0 1 2.282 1.022" fill="#717791"/><path d="M21.964 20.106l-16.787-6.03c-.005.008-.178-.17.112-.25l16.034-4.46a.914.914 0 0 1 .484 0l16.949 4.62c.29.078.298.185.052.272l-16.844 5.848" fill="#E5EEFD"/><path d="M21.964 20.106l-16.787-6.03c-.005.008-.178-.17.112-.25l16.034-4.46a.914.914 0 0 1 .484 0l16.949 4.62c.29.078.298.185.052.272l-16.844 5.848" stroke="#717791" stroke-width="2.5" stroke-linecap="round" stroke-linejoin="round"/><path stroke="#717791" stroke-width="2.5" stroke-linecap="round" stroke-linejoin="round" d="M39.219 14.111l-17.255 5.995-17.14-6.152"/></g></svg>