<svg width="63" height="43" viewBox="0 0 63 43" xmlns="http://www.w3.org/2000/svg" xmlns:xlink="http://www.w3.org/1999/xlink"><title>Group 10</title><defs><path id="a" d="M.111.622h57.666V42H.111z"/></defs><g fill="none" fill-rule="evenodd"><path d="M37.893 37.33l-20.534-6.49a5.064 5.064 0 0 1-2.566-1.844L7.52 17.223c-2.366-3.25-.909-7.86 2.894-9.16l12.718-5.455a5.065 5.065 0 0 1 3.16-.036l32.33 10.217a4.118 4.118 0 0 1 2.686 5.167l-6.452 20.416a4.118 4.118 0 0 1-5.167 2.686l-1.752-.554" fill="#A9EBC8"/><g transform="translate(5 .417)"><mask id="b" fill="#fff"><use xlink:href="#a"/></mask><path d="M32.695 37.54c-2.087-.242-4.09-.75-6.071-1.323-1.977-.587-3.957-1.165-5.918-1.803l-5.89-1.897-2.97-.963a6.308 6.308 0 0 1-3.053-2.246 1.338 1.338 0 0 1-.053-.078L1.449 17.468l.054.079C.159 15.739-.25 13.257.445 11.113c.658-2.156 2.415-3.96 4.558-4.674l-.091.035L17.622 1c.028-.012.063-.025.092-.035A6.374 6.374 0 0 1 20.552.67c.454.047.998.195 1.345.31l1.093.345 4.37 1.374 8.736 2.762 17.467 5.542c.195.065.336.1.575.189.236.082.468.175.69.293a5.09 5.09 0 0 1 1.228.859 5.38 5.38 0 0 1 1.533 2.536 5.384 5.384 0 0 1-.04 2.965l-.695 2.203-2.771 8.733-2.772 8.734-.173.546-.087.272-.128.35a5.142 5.142 0 0 1-.735 1.295 5.141 5.141 0 0 1-2.371 1.74 4.83 4.83 0 0 1-2.904.11c-.501-.152-.83-.314-1.173-.481a14.07 14.07 0 0 1-1.03-.543.77.77 0 0 1 .454-1.433c.389.03.774.083 1.154.147.385.062.78.146 1.025.158a3.58 3.58 0 0 0 1.603-.265c.489-.21.939-.53 1.256-.955.165-.208.292-.443.389-.691l.07-.187.086-.273.172-.547 2.75-8.74 2.75-8.74.679-2.167a2.825 2.825 0 0 0-.791-2.886 2.522 2.522 0 0 0-.642-.446 2.379 2.379 0 0 0-.364-.154c-.117-.047-.345-.112-.513-.167L35.307 7.957l-8.736-2.76-4.367-1.387-1.091-.347a4.343 4.343 0 0 0-.881-.214 3.793 3.793 0 0 0-1.681.169l.093-.035L5.918 8.819l-.01.004-.081.03a4.694 4.694 0 0 0-2.964 3.024 4.704 4.704 0 0 0 .676 4.187c.017.025.037.054.052.08l7.257 11.783-.052-.078a3.839 3.839 0 0 0 1.849 1.369l2.928.905 5.91 1.832c1.97.605 3.924 1.269 5.88 1.925 1.95.669 3.882 1.406 5.728 2.406a.67.67 0 0 1-.396 1.254" fill="#717791" mask="url(#b)"/></g><path d="M11.391 13.408a3.253 3.253 0 1 1 6.203 1.961 3.253 3.253 0 0 1-6.203-1.96z" stroke="#717791" stroke-width="2.5" stroke-linecap="round" stroke-linejoin="round"/><path d="M15.056 11.745A7.278 7.278 0 0 1 1.59 6.335a7.276 7.276 0 0 1 11.263-3.66" stroke="#717791" stroke-width="2.5" stroke-linecap="round" stroke-linejoin="round"/></g></svg>