<svg width="43" height="43" viewBox="0 0 43 43" xmlns="http://www.w3.org/2000/svg"><title>Group 11</title><g fill="none" fill-rule="evenodd"><path d="M39.172 21.25c0 4.147-1.41 7.96-3.773 10.994-3.28-4.215-8.397-6.924-14.149-6.924-5.747 0-10.868 2.71-14.149 6.924A17.81 17.81 0 0 1 3.328 21.25c0-9.894 8.028-17.922 17.922-17.922 9.9 0 17.922 8.028 17.922 17.922" fill="#D5BEFD"/><path d="M41.25 21.25c0 5.071-1.889 9.7-4.995 13.225A19.946 19.946 0 0 1 21.25 41.25c-5.977 0-11.34-2.624-15.006-6.779a19.908 19.908 0 0 1-4.994-13.22c0-11.044 8.957-20 20-20 11.048 0 20 8.956 20 20z" stroke="#717791" stroke-width="2.5" stroke-linecap="round" stroke-linejoin="round"/><path d="M27.224 15.276a5.974 5.974 0 1 1-11.949 0 5.974 5.974 0 0 1 11.95 0" fill="#FFF"/><path d="M27.224 15.276a5.974 5.974 0 1 1-11.949 0 5.974 5.974 0 0 1 11.95 0z" stroke="#717791" stroke-width="2.5" stroke-linecap="round" stroke-linejoin="round"/><path d="M6.954 31.861c.157-.293.312-.546.496-.84.189-.296.372-.602.59-.877.426-.564.893-1.101 1.41-1.59 1.025-.984 2.21-1.801 3.466-2.48a17.395 17.395 0 0 1 8.245-2.102 17.42 17.42 0 0 1 8.246 2.058c2.507 1.325 4.658 3.43 5.898 5.848l.02.038a.556.556 0 0 1-.87.665c-1.017-.925-1.945-1.712-2.973-2.449a20.953 20.953 0 0 0-3.195-1.882c-2.221-1.058-4.673-1.558-7.113-1.541a16.285 16.285 0 0 0-7.073 1.657c-1.101.541-2.127 1.224-3.111 1.971-.494.373-.972.771-1.447 1.181-.242.201-.463.424-.71.627-.244.214-.515.47-.785.683a.74.74 0 0 1-1.115-.929l.02-.038z" fill="#717791"/></g></svg>