<svg width="41" height="43" viewBox="0 0 41 43" xmlns="http://www.w3.org/2000/svg"><title>Group 15</title><g fill="none" fill-rule="evenodd"><path d="M29.322 37.978c-.334-.02-.672-.016-1.002-.065-1.782-.268-3.346.237-4.797 1.258-2.256 1.587-2.277 1.593-4.555-.008-1.479-1.039-3.06-1.464-4.871-1.253-2.545.297-2.672.214-3.746-2.153-.78-1.719-1.992-2.925-3.713-3.702-2.346-1.06-2.43-1.19-2.138-3.756.21-1.839-.24-3.434-1.303-4.926-1.554-2.183-1.556-2.25.007-4.44 1.065-1.494 1.504-3.092 1.294-4.929-.29-2.547-.19-2.71 2.146-3.75 1.729-.769 2.931-1.974 3.708-3.699 1.076-2.385 1.22-2.463 3.814-2.147 1.788.217 3.343-.223 4.794-1.255 2.276-1.619 2.302-1.618 4.553-.019 1.471 1.045 3.046 1.494 4.862 1.272 2.558-.314 2.741-.203 3.795 2.176.756 1.707 1.948 2.897 3.652 3.655 2.386 1.061 2.483 1.218 2.188 3.793-.21 1.84.248 3.434 1.315 4.924 1.531 2.138 1.533 2.266.017 4.381-1.084 1.511-1.547 3.125-1.33 4.991.294 2.51.172 2.696-2.166 3.738-1.702.758-2.943 1.925-3.654 3.652-.118.287-.279.556-.398.843-.463 1.108-1.215 1.7-2.473 1.42" fill="#FFF"/><path d="M28.057 35.34c-.282-.018-.566-.014-.845-.056-1.502-.224-2.821.2-4.045 1.062-1.901 1.338-1.92 1.343-3.84-.007-1.247-.877-2.581-1.234-4.108-1.057-2.145.25-2.253.182-3.158-1.815-.658-1.45-1.68-2.467-3.13-3.122-1.98-.894-2.051-1.003-1.804-3.166.178-1.551-.202-2.896-1.098-4.154-1.312-1.84-1.313-1.897.006-3.745.897-1.26 1.268-2.608 1.09-4.155-.245-2.149-.16-2.287 1.81-3.162 1.457-.648 2.472-1.665 3.128-3.12.906-2.01 1.027-2.077 3.215-1.81 1.508.183 2.818-.189 4.042-1.059 1.92-1.365 1.94-1.364 3.84-.014 1.24.88 2.568 1.258 4.099 1.07 2.157-.264 2.31-.17 3.2 1.836.638 1.44 1.643 2.443 3.079 3.082 2.01.896 2.094 1.027 1.846 3.198-.178 1.552.207 2.896 1.108 4.151 1.292 1.805 1.293 1.912.013 3.695-.914 1.274-1.303 2.636-1.12 4.21.247 2.116.146 2.272-1.827 3.15-1.435.64-2.481 1.625-3.081 3.08-.1.241-.234.47-.335.71-.391.935-1.024 1.434-2.085 1.197" fill="#D5BEFD"/><path d="M40.2 24.3c-.003.892-.166 1.532-.31 2.208-.139.68-.15 1.353-.055 2.099.048.417.096.845.112 1.332.005.467.011 1.12-.39 1.81-.425.663-.962.96-1.365 1.189-.42.227-.81.404-1.192.576-1.365.59-2.415 1.489-3.049 2.72-.079.153-.152.31-.22.47l-.258.555c-.166.33-.35.858-.698 1.329-.329.474-.876.954-1.54 1.165-.664.218-1.306.168-1.838.055l.184.026c-.504-.034-1.154-.066-1.49-.114a5.12 5.12 0 0 0-1.189.039c-.78.114-1.539.432-2.256.888-.338.215-.758.528-1.18.813-.442.276-.883.634-1.747.836a2.703 2.703 0 0 1-1.322-.1 4.81 4.81 0 0 1-.887-.428c-.488-.295-.888-.582-1.293-.863-.704-.498-1.442-.841-2.226-1.016a5.52 5.52 0 0 0-1.2-.135c-.42-.004-.785.039-1.32.102-.517.045-1.009.13-1.743.053a2.686 2.686 0 0 1-1.219-.442 3.009 3.009 0 0 1-.824-.862c-.678-1.076-.922-1.957-1.375-2.62a5.98 5.98 0 0 0-1.68-1.74 6.946 6.946 0 0 0-1.087-.606c-.449-.205-.907-.402-1.424-.691a4.045 4.045 0 0 1-.849-.613c-.307-.275-.59-.754-.699-1.167-.22-.86-.109-1.38-.086-1.915l.077-.758a7.71 7.71 0 0 0 .044-.625 5.622 5.622 0 0 0-.092-1.2 6.095 6.095 0 0 0-.912-2.23l-.83-1.21c-.265-.46-.687-.95-.77-1.964a2.834 2.834 0 0 1 .258-1.262c.146-.323.301-.578.45-.811.291-.452.611-.875.853-1.23.475-.694.81-1.437.963-2.221.078-.392.114-.795.111-1.204a6.5 6.5 0 0 0-.036-.62l-.075-.742c-.036-.521-.113-1.054.027-1.831.083-.4.298-.862.596-1.194.3-.346.59-.517.863-.695.528-.307.992-.506 1.446-.71a7.47 7.47 0 0 0 1.118-.595 5.873 5.873 0 0 0 1.712-1.717c.233-.355.41-.695.607-1.132.214-.456.408-.91.735-1.442.172-.267.377-.564.718-.852.35-.291.812-.477 1.2-.545.76-.116 1.281-.032 1.798.013l.737.085c.207.023.413.039.617.04.41.009.812-.027 1.204-.105.785-.157 1.533-.504 2.234-.99.39-.268.794-.564 1.255-.856.245-.147.488-.3.83-.436a2.57 2.57 0 0 1 1.25-.202c.946.124 1.394.522 1.85.79l1.198.835c.71.467 1.47.787 2.266.926.398.07.808.093 1.222.077.388-.012.873-.09 1.406-.135.524-.03 1.09-.123 1.912.122.405.132.81.406 1.072.697.25.283.435.566.568.814.28.506.475.968.677 1.417.173.39.376.76.611 1.102.467.687 1.072 1.238 1.76 1.722.641.492 1.581.87 2.401 1.736a.631.631 0 0 1-.624 1.04l-.079-.022c-.813-.226-1.796-.383-2.812-.94-.98-.535-1.83-1.351-2.47-2.276a9.165 9.165 0 0 1-.819-1.454c-.2-.442-.394-.877-.59-1.226-.097-.184-.194-.303-.264-.39-.07-.067-.085-.068-.142-.093-.119-.05-.555-.056-.998-.007-.44.037-.923.123-1.512.152a7.96 7.96 0 0 1-1.699-.098c-1.134-.188-2.212-.646-3.137-1.25l-1.213-.833c-.359-.246-.75-.437-.793-.411.006-.032-.27.06-.637.3-.364.233-.748.514-1.16.804-.9.633-1.955 1.142-3.089 1.375a7.92 7.92 0 0 1-1.71.164 8.751 8.751 0 0 1-.846-.051l-.72-.08c-.453-.05-.916-.071-1.124-.031-.09.025-.09.03-.123.049a1.47 1.47 0 0 0-.209.276c-.186.3-.385.744-.582 1.176-.2.454-.468.988-.772 1.45a8.283 8.283 0 0 1-2.386 2.42 9.963 9.963 0 0 1-1.46.794c-.437.196-.869.395-1.184.583-.135.089-.267.18-.28.213-.026.038-.024.028-.048.105-.038.189-.023.643.026 1.092l.077.716c.03.278.048.559.052.843a8.261 8.261 0 0 1-.148 1.712c-.215 1.139-.7 2.214-1.324 3.135-.308.452-.577.81-.812 1.183-.25.37-.335.662-.309.625-.032-.021.123.343.372.699l.836 1.2c.617.93 1.093 2.017 1.292 3.163.101.57.141 1.15.123 1.719-.01.28-.034.573-.064.837l-.075.7c-.044.432-.054.91-.009 1 .024.055-.012.02.044.074.053.05.167.14.341.235.335.19.774.39 1.213.592.504.23.998.505 1.465.828a8.484 8.484 0 0 1 2.354 2.462c.623.978.945 2.007 1.33 2.577.088.142.154.2.167.205.02.006.007.027.147.04.24.038.73-.004 1.181-.05.436-.05 1.046-.121 1.603-.11a7.951 7.951 0 0 1 1.706.203c1.126.253 2.186.77 3.073 1.408.395.278.792.56 1.14.772.18.114.325.177.426.219.09.023.086.02.122.02.097-.01.49-.21.86-.467.39-.258.752-.532 1.24-.842.93-.587 2.013-1.05 3.172-1.213a7.434 7.434 0 0 1 1.737-.047c.632.084.961.078 1.43.117h.021a1.7 1.7 0 0 1 .164.026c.268.057.478.054.602.01.124-.04.238-.115.382-.311.147-.194.244-.45.441-.856l.265-.564a8.61 8.61 0 0 1 .306-.645c.87-1.722 2.502-3.046 4.162-3.733a16.13 16.13 0 0 0 1.033-.491c.314-.161.495-.327.514-.367.096-.025.084-.944-.024-1.707-.11-.886-.1-1.88.1-2.812.187-.938.662-1.84 1.516-2.354a.656.656 0 0 1 .996.562v.042z" fill="#717791"/><path d="M13.828 27.973c.76-1.602 1.878-2.844 3.014-4.069 1.152-1.21 2.391-2.33 3.598-3.486 2.425-2.298 4.846-4.599 7.34-6.829a.902.902 0 0 1 1.272 1.273c-2.229 2.493-4.53 4.915-6.828 7.34-1.155 1.206-2.277 2.445-3.486 3.597-1.225 1.136-2.468 2.256-4.07 3.014a.63.63 0 0 1-.84-.84" fill="#717791"/><path d="M18.153 13.575a3.315 3.315 0 1 1-4.689 0 3.315 3.315 0 0 1 4.689 0zM29.042 24.33a3.317 3.317 0 1 1-4.69 4.69 3.317 3.317 0 0 1 4.69-4.69z" stroke="#717791" stroke-width="2.2" stroke-linecap="round" stroke-linejoin="round"/><path d="M39.23 14.206c.21.467.195.877.122 1.273-.078.394-.206.777-.487 1.12a1.001 1.001 0 0 1-1.757-.44c-.087-.434-.02-.832.097-1.217.122-.383.3-.753.707-1.066a.865.865 0 0 1 1.318.33" fill="#717791"/></g></svg>