<svg width="45" height="43" viewBox="0 0 45 43" xmlns="http://www.w3.org/2000/svg" xmlns:xlink="http://www.w3.org/1999/xlink"><title>Group 19</title><defs><path id="a" d="M0 .626h29.851v28.587H0z"/><path id="c" d="M.461.635h3.33v2.766H.46z"/></defs><g fill="none" fill-rule="evenodd"><path d="M27.137 16.102c0 6.747-5.469 12.215-12.215 12.215-6.746 0-12.215-5.468-12.215-12.215 0-6.745 5.47-12.215 12.215-12.215 6.746 0 12.215 5.47 12.215 12.215" fill="#B8D4FF"/><g transform="translate(0 .365)"><mask id="b" fill="#fff"><use xlink:href="#a"/></mask><path d="M21.789 1.879c1.686.29 3.167 1.259 4.327 2.486a12.88 12.88 0 0 1 2.724 4.283c1.225 3.19 1.325 6.74.366 9.995a15.213 15.213 0 0 1-5.935 8.023 15.119 15.119 0 0 1-9.669 2.49c-3.375-.305-6.661-1.763-9.079-4.153C2.102 22.636.469 19.439.097 16.058c-.387-3.362.389-6.86 2.223-9.704a15.055 15.055 0 0 1 3.387-3.726C7.029 1.592 8.596.823 10.265.63a.74.74 0 0 1 .487 1.356l-.02.013c-1.268.819-2.46 1.569-3.569 2.464a12.718 12.718 0 0 0-2.811 3.168c-1.509 2.404-2.113 5.327-1.758 8.127.326 2.807 1.68 5.453 3.696 7.42 2.018 1.98 4.735 3.18 7.535 3.448a12.581 12.581 0 0 0 8.035-2.053 12.707 12.707 0 0 0 4.949-6.665c.812-2.693.718-5.7-.435-8.265-.52-1.304-1.294-2.485-2.154-3.6-.889-1.107-1.885-2.083-2.896-3.328l-.014-.018a.507.507 0 0 1 .479-.82" fill="#717791" mask="url(#b)"/></g><g transform="translate(16 -.635)"><mask id="d" fill="#fff"><use xlink:href="#c"/></mask><path d="M1.196.878l.896-.207a1.384 1.384 0 0 1 .63 2.694 1.404 1.404 0 0 1-1.158-.25l-.641-.493-.091-.07A.947.947 0 0 1 1.196.878" fill="#717791" mask="url(#d)"/></g><path d="M18.382 6.434c1.346-.034 2.495.721 3.415 1.609.936.892 1.646 2.027 2.09 3.246a9.721 9.721 0 0 1 .573 3.822 9.544 9.544 0 0 1-.921 3.765c-1.1 2.368-3.217 4.276-5.758 5.047a9.027 9.027 0 0 1-3.906.32 8.74 8.74 0 0 1-1.902-.473c-.598-.26-1.142-.706-1.391-1.483a.587.587 0 0 1 .38-.74c.003 0 .006 0 .009-.002l.039-.012c.74-.22 1.238-.202 1.722-.116.47.116.943.205 1.423.234.96.07 1.92-.053 2.83-.319a7.303 7.303 0 0 0 4.314-3.56c.886-1.702 1.06-3.831.328-5.64a8.35 8.35 0 0 0-1.512-2.477c-.642-.763-1.412-1.303-2.15-2.239l-.028-.037a.584.584 0 0 1 .445-.945M6.321 16.8c-.522-.52-.783-1.178-.92-1.847-.122-.674-.06-1.363.02-2.044a8.588 8.588 0 0 1 1.538-3.797c.817-1.11 1.871-2.037 3.08-2.66 1.18-.636 2.555-1.06 3.89-.69a.606.606 0 0 1 .16 1.095l-.036.022c-1.029.643-1.952 1.001-2.813 1.582a7.414 7.414 0 0 0-2.09 2.172c-.543.837-.964 1.753-1.18 2.736-.207 1.003-.226 1.947-.67 3.186l-.012.03a.587.587 0 0 1-.967.215" fill="#717791"/><path stroke="#717791" stroke-width="2.5" stroke-linecap="round" stroke-linejoin="round" d="M31.084 27.308l-1.963 1.963-4.471-4.47 1.963-1.964z"/><path d="M31.885 34.391l-5.443-5.443 4.319-4.319 11.272 11.273a3.053 3.053 0 1 1-4.32 4.32l-.248-.25" fill="#FFF"/><path d="M31.885 34.391l-5.443-5.443 4.319-4.319 11.272 11.273a3.053 3.053 0 1 1-4.32 4.32l-.248-.25" stroke="#717791" stroke-width="2.5" stroke-linecap="round" stroke-linejoin="round"/></g></svg>