<svg width="22" height="22" viewBox="0 0 22 22" fill="none" xmlns="http://www.w3.org/2000/svg">
<path fill-rule="evenodd" clip-rule="evenodd" d="M12.4559 2.36258C12.4847 2.24647 12.5 2.12502 12.5 2C12.5 1.17157 11.8284 0.5 11 0.5C10.1716 0.5 9.5 1.17157 9.5 2C9.5 2.12411 9.51507 2.24469 9.54349 2.36003C8.13613 2.64253 6.83125 3.3345 5.80122 4.36453C4.42596 5.73979 3.65334 7.60506 3.65334 9.54998V14.1333C3.65334 14.6195 3.46018 15.0859 3.11637 15.4297C2.77255 15.7735 2.30624 15.9666 1.82001 15.9666V15.9667C1.3199 15.9739 0.916687 16.3815 0.916687 16.8833C0.916687 17.3851 1.3199 17.7927 1.82001 17.7999V17.8H1.83335H20.1533H20.1667V17.7999C20.6668 17.7927 21.07 17.3851 21.07 16.8833C21.07 16.3815 20.6668 15.9739 20.1667 15.9667V15.9666C19.6805 15.9666 19.2141 15.7735 18.8703 15.4297C18.5265 15.0859 18.3334 14.6195 18.3334 14.1333V9.54998C18.3334 7.60506 17.5607 5.73979 16.1855 4.36453C15.1585 3.33759 13.8584 2.64669 12.4559 2.36258ZM10.9933 4.04998C9.53706 4.05175 8.14081 4.63101 7.11093 5.66089C6.07948 6.69234 5.50002 8.09129 5.50002 9.54998V14.1333C5.50002 14.7825 5.32785 15.414 5.00879 15.9666H16.9779C16.6588 15.414 16.4867 14.7825 16.4867 14.1333V9.54998C16.4867 8.09129 15.9072 6.69234 14.8758 5.66089C13.8459 4.63101 12.4496 4.05175 10.9933 4.04998ZM8.95423 18.7571C9.39215 18.503 9.95308 18.6521 10.2071 19.09C10.2877 19.2289 10.4033 19.3442 10.5425 19.4244C10.6817 19.5045 10.8394 19.5467 11 19.5467C11.1606 19.5467 11.3184 19.5045 11.4575 19.4244C11.5967 19.3442 11.7124 19.2289 11.7929 19.09C12.047 18.6521 12.6079 18.503 13.0458 18.7571C13.4837 19.0111 13.6328 19.572 13.3788 20.0099C13.137 20.4267 12.7901 20.7726 12.3726 21.013C11.9551 21.2535 11.4818 21.3801 11 21.3801C10.5183 21.3801 10.0449 21.2535 9.62746 21.013C9.20999 20.7726 8.86301 20.4267 8.62127 20.0099C8.36724 19.572 8.51631 19.0111 8.95423 18.7571Z" fill="#7E8E9D"/>
</svg>
