<svg width="22" height="22" viewBox="0 0 22 22" fill="none" xmlns="http://www.w3.org/2000/svg">
<path fill-rule="evenodd" clip-rule="evenodd" d="M11 9.16667C9.98748 9.16667 9.16667 9.98748 9.16667 11C9.16667 12.0125 9.98748 12.8333 11 12.8333C12.0125 12.8333 12.8333 12.0125 12.8333 11C12.8333 9.98748 12.0125 9.16667 11 9.16667ZM7.33333 11C7.33333 8.97496 8.97496 7.33333 11 7.33333C13.025 7.33333 14.6667 8.97496 14.6667 11C14.6667 13.025 13.025 14.6667 11 14.6667C8.97496 14.6667 7.33333 13.025 7.33333 11Z" fill="#7E8E9D"/>
<path fill-rule="evenodd" clip-rule="evenodd" d="M11 1.83333C10.7569 1.83333 10.5237 1.92991 10.3518 2.10182C10.1799 2.27373 10.0833 2.50689 10.0833 2.75V2.90949C10.0814 3.38323 9.94106 3.84608 9.67948 4.24106C9.41791 4.63605 9.04654 4.94592 8.6111 5.13254C8.5336 5.16576 8.45205 5.18805 8.36881 5.19893C7.97315 5.33749 7.54722 5.37164 7.13259 5.29646C6.655 5.20987 6.21431 4.98219 5.86734 4.64279L5.86011 4.63572L5.80515 4.58068C5.72002 4.49545 5.61856 4.42748 5.50728 4.38135C5.396 4.33522 5.27671 4.31147 5.15625 4.31147C5.03579 4.31147 4.9165 4.33522 4.80522 4.38135C4.69394 4.42748 4.59284 4.49509 4.50771 4.58032L4.50699 4.58104C4.42176 4.66618 4.35415 4.76727 4.30802 4.87855C4.26189 4.98984 4.23814 5.10912 4.23814 5.22958C4.23814 5.35005 4.26189 5.46933 4.30802 5.58061C4.35415 5.69189 4.42176 5.79299 4.50699 5.87813L4.5695 5.94063C4.9089 6.28761 5.13654 6.72834 5.22313 7.20592C5.308 7.67399 5.25354 8.15647 5.06683 8.59354C4.89673 9.03955 4.5989 9.42578 4.21029 9.70372C3.81383 9.98728 3.34123 10.145 2.85394 10.1564L2.8325 10.1567H2.75C2.50689 10.1567 2.27373 10.2532 2.10182 10.4252C1.92991 10.5971 1.83333 10.8302 1.83333 11.0733C1.83333 11.3164 1.92991 11.5496 2.10182 11.7215C2.27373 11.8934 2.50689 11.99 2.75 11.99H2.90949C3.38323 11.9919 3.84608 12.1323 4.24106 12.3938C4.63467 12.6545 4.94377 13.0242 5.13059 13.4577C5.32499 13.9006 5.38277 14.3914 5.29646 14.8674C5.20987 15.345 4.98219 15.7857 4.64279 16.1327L4.63572 16.1399L4.58068 16.1948C4.49545 16.28 4.42748 16.3814 4.38135 16.4927C4.33522 16.604 4.31147 16.7233 4.31147 16.8438C4.31147 16.9642 4.33522 17.0835 4.38135 17.1948C4.42748 17.3061 4.49509 17.4072 4.58032 17.4923L4.58104 17.493C4.66617 17.5782 4.76727 17.6459 4.87855 17.692C4.98984 17.7381 5.10912 17.7619 5.22958 17.7619C5.35005 17.7619 5.46933 17.7381 5.58061 17.692C5.6919 17.6459 5.79299 17.5782 5.87813 17.493L5.94063 17.4305C6.28761 17.0911 6.72834 16.8635 7.20592 16.7769C7.67399 16.692 8.15646 16.7465 8.59354 16.9332C9.03955 17.1033 9.42578 17.4011 9.70372 17.7897C9.98728 18.1862 10.145 18.6588 10.1564 19.1461L10.1567 19.1675V19.25C10.1567 19.4931 10.2532 19.7263 10.4252 19.8982C10.5971 20.0701 10.8302 20.1667 11.0733 20.1667C11.3164 20.1667 11.5496 20.0701 11.7215 19.8982C11.8934 19.7263 11.99 19.4931 11.99 19.25V19.0942L11.99 19.0905C11.9919 18.6168 12.1323 18.1539 12.3938 17.7589C12.6545 17.3653 13.0243 17.0562 13.4578 16.8694C13.9007 16.675 14.3915 16.6172 14.8674 16.7035C15.345 16.7901 15.7857 17.0178 16.1327 17.3572L16.1399 17.3643L16.1948 17.4193C16.28 17.5045 16.3814 17.5725 16.4927 17.6187C16.604 17.6648 16.7233 17.6885 16.8438 17.6885C16.9642 17.6885 17.0835 17.6648 17.1948 17.6187C17.3061 17.5725 17.4072 17.5049 17.4923 17.4197L17.493 17.419C17.5782 17.3338 17.6459 17.2327 17.692 17.1214C17.7381 17.0102 17.7619 16.8909 17.7619 16.7704C17.7619 16.65 17.7381 16.5307 17.692 16.4194C17.6459 16.3081 17.5782 16.207 17.493 16.1219L17.4305 16.0594C17.0911 15.7124 16.8635 15.2717 16.7769 14.7941C16.6906 14.3181 16.7483 13.8273 16.9427 13.3845C17.1295 12.9509 17.4386 12.5812 17.8323 12.3205C18.2273 12.0589 18.6901 11.9186 19.1638 11.9167L19.1675 11.9167L19.25 11.9167C19.4931 11.9167 19.7263 11.8201 19.8982 11.6482C20.0701 11.4763 20.1667 11.2431 20.1667 11C20.1667 10.7569 20.0701 10.5237 19.8982 10.3518C19.7263 10.1799 19.4931 10.0833 19.25 10.0833H19.0942L19.0905 10.0833C18.6168 10.0814 18.1539 9.94106 17.7589 9.67948C17.364 9.41791 17.0541 9.04654 16.8675 8.6111C16.8342 8.5336 16.8119 8.45205 16.8011 8.36881C16.6625 7.97314 16.6284 7.54721 16.7035 7.13259C16.7901 6.655 17.0178 6.21431 17.3572 5.86734L17.3643 5.86012L17.4193 5.80515C17.5045 5.72002 17.5725 5.61856 17.6187 5.50728C17.6648 5.396 17.6885 5.27671 17.6885 5.15625C17.6885 5.03579 17.6648 4.9165 17.6187 4.80522C17.5725 4.69394 17.5049 4.59284 17.4197 4.50771L17.419 4.50699C17.3338 4.42176 17.2327 4.35415 17.1214 4.30802C17.0102 4.26189 16.8909 4.23814 16.7704 4.23814C16.65 4.23814 16.5307 4.26189 16.4194 4.30802C16.3081 4.35415 16.207 4.42176 16.1219 4.50699L16.0594 4.5695C15.7124 4.9089 15.2717 5.13654 14.7941 5.22313C14.3181 5.30943 13.8272 5.25166 13.3844 5.05726C12.9509 4.87043 12.5812 4.56134 12.3205 4.16773C12.0589 3.77275 11.9186 3.3099 11.9167 2.83616L11.9167 2.8325V2.75C11.9167 2.50689 11.8201 2.27373 11.6482 2.10182C11.4763 1.92991 11.2431 1.83333 11 1.83333ZM17.7833 13.75L18.622 14.1201C18.5739 14.229 18.5595 14.3499 18.5808 14.467C18.6018 14.5829 18.6567 14.6899 18.7384 14.7745L18.7887 14.8248C18.7885 14.8247 18.7888 14.8249 18.7887 14.8248C19.0442 15.0801 19.2472 15.3836 19.3856 15.7173C19.524 16.0512 19.5952 16.409 19.5952 16.7704C19.5952 17.1318 19.524 17.4897 19.3856 17.8235C19.2472 18.1573 19.0443 18.4606 18.7887 18.716L18.1408 18.0675L18.7894 18.7153C18.534 18.971 18.2307 19.1738 17.8968 19.3122C17.563 19.4506 17.2051 19.5219 16.8438 19.5219C16.4824 19.5219 16.1245 19.4506 15.7907 19.3122C15.457 19.1739 15.1538 18.9712 14.8985 18.7157C14.8986 18.7158 14.8984 18.7156 14.8985 18.7157L14.8479 18.6651C14.7632 18.5833 14.6562 18.5285 14.5403 18.5075C14.4232 18.4862 14.3024 18.5006 14.1935 18.5486L14.1845 18.5526C14.0777 18.5984 13.9865 18.6743 13.9224 18.7712C13.8585 18.8677 13.8241 18.9807 13.8233 19.0965V19.25C13.8233 19.9793 13.5336 20.6788 13.0179 21.1945C12.5022 21.7103 11.8027 22 11.0733 22C10.344 22 9.64452 21.7103 9.12879 21.1945C8.61307 20.6788 8.32333 19.9793 8.32333 19.25V19.1807C8.31899 19.0641 8.28049 18.9512 8.21255 18.8562C8.14299 18.759 8.04579 18.6849 7.93358 18.6437C7.91546 18.637 7.89755 18.6298 7.87988 18.622C7.77097 18.5739 7.65015 18.5595 7.533 18.5808C7.41713 18.6018 7.31011 18.6567 7.22544 18.7384L7.17521 18.7887C7.17533 18.7885 7.17509 18.7888 7.17521 18.7887C6.91988 19.0442 6.61636 19.2472 6.28267 19.3856C5.94883 19.524 5.59098 19.5952 5.22958 19.5952C4.86819 19.5952 4.51034 19.524 4.1765 19.3856C3.84297 19.2473 3.53993 19.0447 3.28468 18.7894C3.02899 18.534 2.82616 18.2307 2.68777 17.8968C2.54937 17.563 2.47814 17.2051 2.47814 16.8438C2.47814 16.4824 2.54937 16.1245 2.68777 15.7907C2.82616 15.4568 3.02899 15.1535 3.28468 14.8981L3.33493 14.8479C3.41668 14.7632 3.47154 14.6562 3.49254 14.5403C3.51378 14.4232 3.49945 14.3024 3.45138 14.1935L3.44741 14.1845C3.40163 14.0777 3.32567 13.9865 3.22879 13.9224C3.13229 13.8585 3.01927 13.8241 2.90354 13.8233H2.75C2.02065 13.8233 1.32118 13.5336 0.805456 13.0179C0.289732 12.5022 0 11.8027 0 11.0733C0 10.344 0.289732 9.64452 0.805456 9.12879C1.32118 8.61307 2.02065 8.32333 2.75 8.32333H2.81933C2.93593 8.31899 3.04875 8.28049 3.14376 8.21255C3.241 8.14299 3.31507 8.04579 3.35634 7.93358C3.36301 7.91546 3.37025 7.89755 3.37804 7.87988C3.42611 7.77097 3.44045 7.65015 3.41921 7.533C3.3982 7.41714 3.34334 7.31012 3.26159 7.22545L3.21135 7.17521C2.95566 6.91981 2.75282 6.61651 2.61443 6.28267C2.47604 5.94882 2.40481 5.59098 2.40481 5.22958C2.40481 4.86819 2.47604 4.51034 2.61443 4.1765C2.75276 3.84281 2.95547 3.53964 3.21099 3.28432C3.46631 3.0288 3.76948 2.82609 4.10316 2.68777C4.43701 2.54937 4.79486 2.47814 5.15625 2.47814C5.51764 2.47814 5.87549 2.54937 6.20934 2.68777C6.54318 2.82616 6.84647 3.02899 7.10188 3.28468L7.15212 3.33492C7.23679 3.41667 7.3438 3.47154 7.45967 3.49254C7.57681 3.51378 7.69763 3.49945 7.80655 3.45138C7.86525 3.42547 7.92635 3.40587 7.98881 3.39279C8.05273 3.3494 8.1079 3.2938 8.15095 3.22879C8.21486 3.13229 8.24927 3.01927 8.25 2.90354V2.75C8.25 2.02065 8.53973 1.32118 9.05546 0.805456C9.57118 0.289732 10.2707 0 11 0C11.7293 0 12.4288 0.289732 12.9445 0.805456C13.4603 1.32118 13.75 2.02065 13.75 2.75V2.83021C13.7507 2.94593 13.7851 3.05895 13.849 3.15546C13.9132 3.25234 14.0043 3.32835 14.1111 3.37412L14.1201 3.37799C14.2291 3.42606 14.3499 3.44045 14.467 3.41921C14.5829 3.3982 14.6899 3.34334 14.7745 3.2616L14.8248 3.21135C15.0802 2.95566 15.3835 2.75282 15.7173 2.61443C16.0512 2.47604 16.409 2.40481 16.7704 2.40481C17.1318 2.40481 17.4897 2.47604 17.8235 2.61443C18.1573 2.75282 18.4606 2.95566 18.716 3.21135C18.9714 3.4666 19.174 3.76963 19.3122 4.10316C19.4506 4.43701 19.5219 4.79486 19.5219 5.15625C19.5219 5.51764 19.4506 5.87549 19.3122 6.20934C19.1739 6.54302 18.9712 6.84619 18.7157 7.10151C18.7158 7.10139 18.7156 7.10163 18.7157 7.10151L18.6651 7.15212C18.5833 7.23679 18.5285 7.3438 18.5075 7.45967C18.4862 7.57681 18.5006 7.69763 18.5486 7.80655C18.5745 7.86525 18.5941 7.92635 18.6072 7.98881C18.6506 8.05272 18.7062 8.1079 18.7712 8.15095C18.8677 8.21486 18.9807 8.24927 19.0965 8.25H19.25C19.9793 8.25 20.6788 8.53973 21.1945 9.05546C21.7103 9.57118 22 10.2707 22 11C22 11.7293 21.7103 12.4288 21.1945 12.9445C20.6788 13.4603 19.9793 13.75 19.25 13.75H19.1698C19.0541 13.7507 18.941 13.7851 18.8445 13.849C18.7477 13.9132 18.6717 14.0043 18.6259 14.1111L17.7833 13.75Z" fill="#7E8E9D"/>
</svg>
