<?xml version="1.0" encoding="UTF-8"?>
<svg width="21px" height="21px" viewBox="0 0 21 21" version="1.1" xmlns="http://www.w3.org/2000/svg" xmlns:xlink="http://www.w3.org/1999/xlink">
    <!-- Generator: Sketch 52.6 (67491) - http://www.bohemiancoding.com/sketch -->
    <title>Group 2</title>
    <desc>Created with Sketch.</desc>
    <g id="v3" stroke="none" stroke-width="1" fill="none" fill-rule="evenodd" stroke-linecap="round" stroke-linejoin="round">
        <g id="License-expired" transform="translate(-953.000000, -49.000000)" stroke="#FFFFFF">
            <g id="Group-12" transform="translate(0.000000, 30.000000)">
                <g id="Group-2" transform="translate(953.000000, 20.000000)">
                    <path d="M7.9812,3.2865 L8.9112,0.4975 L11.0882,0.4975 L12.0192,3.2865 C12.4732,3.4235 12.9082,3.6035 13.3182,3.8255 L13.3172,3.8245 L15.9482,2.5105 L17.4872,4.0495 L16.1722,6.6805 C16.3942,7.0915 16.5752,7.5265 16.7112,7.9805 L16.7102,7.9785 L19.5002,8.9085 L19.5002,11.0865 L16.7102,12.0155 C16.5742,12.4705 16.3932,12.9045 16.1722,13.3145 L17.4872,15.9455 L15.9482,17.4845 L13.3172,16.1705 C12.9072,16.3905 12.4732,16.5715 12.0192,16.7085 L11.0882,19.4975 L8.9112,19.4975 L7.9812,16.7085 L7.9782,16.7075 C7.5252,16.5705 7.0912,16.3905 6.6812,16.1695 L6.6822,16.1705 L4.0522,17.4845 L2.5132,15.9455 L3.8272,13.3145 L3.8282,13.3155 C3.6062,12.9055 3.4252,12.4705 3.2882,12.0155 L3.2892,12.0155 L0.5002,11.0865 L0.5002,8.9085 L3.2892,7.9785 C3.4252,7.5245 3.6062,7.0905 3.8272,6.6805 L2.5132,4.0495 L4.0522,2.5105 L6.6822,3.8245 L6.6552,3.8405 C7.0532,3.6225 7.4762,3.4435 7.9172,3.3065" id="Stroke-1"></path>
                    <path d="M12.8499,9.9974 C12.8499,11.5714 11.5739,12.8474 9.9999,12.8474 C8.4259,12.8474 7.1499,11.5714 7.1499,9.9974 C7.1499,8.4234 8.4259,7.1474 9.9999,7.1474 C11.5739,7.1474 12.8499,8.4234 12.8499,9.9974 Z" id="Stroke-3"></path>
                </g>
            </g>
        </g>
    </g>
</svg>