<svg width="22" height="22" viewBox="0 0 22 22" fill="none" xmlns="http://www.w3.org/2000/svg">
<path fill-rule="evenodd" clip-rule="evenodd" d="M11 2.75002C6.44366 2.75002 2.75001 6.44367 2.75001 11C2.75001 15.5564 6.44366 19.25 11 19.25C15.5564 19.25 19.25 15.5564 19.25 11C19.25 6.44367 15.5564 2.75002 11 2.75002ZM0.916672 11C0.916672 5.43115 5.43113 0.916687 11 0.916687C16.5689 0.916687 21.0833 5.43115 21.0833 11C21.0833 16.5689 16.5689 21.0834 11 21.0834C5.43113 21.0834 0.916672 16.5689 0.916672 11Z" fill="#7E8E9D"/>
<path fill-rule="evenodd" clip-rule="evenodd" d="M11 8.25002C9.48122 8.25002 8.25 9.48124 8.25 11C8.25 12.5188 9.48122 13.75 11 13.75C12.5188 13.75 13.75 12.5188 13.75 11C13.75 9.48124 12.5188 8.25002 11 8.25002ZM6.41667 11C6.41667 8.46871 8.4687 6.41669 11 6.41669C13.5313 6.41669 15.5833 8.46871 15.5833 11C15.5833 13.5313 13.5313 15.5834 11 15.5834C8.4687 15.5834 6.41667 13.5313 6.41667 11Z" fill="#7E8E9D"/>
<path fill-rule="evenodd" clip-rule="evenodd" d="M3.87099 3.87101C4.22897 3.51302 4.80937 3.51302 5.16735 3.87101L9.05402 7.75767C9.412 8.11565 9.412 8.69605 9.05402 9.05403C8.69604 9.41201 8.11564 9.41201 7.75766 9.05403L3.87099 5.16737C3.51301 4.80939 3.51301 4.22899 3.87099 3.87101Z" fill="#7E8E9D"/>
<path fill-rule="evenodd" clip-rule="evenodd" d="M12.946 12.946C13.304 12.588 13.8844 12.588 14.2424 12.946L18.129 16.8327C18.487 17.1907 18.487 17.7711 18.129 18.129C17.771 18.487 17.1906 18.487 16.8327 18.129L12.946 14.2424C12.588 13.8844 12.588 13.304 12.946 12.946Z" fill="#7E8E9D"/>
<path fill-rule="evenodd" clip-rule="evenodd" d="M18.129 3.87101C18.487 4.22899 18.487 4.80939 18.129 5.16737L14.2424 9.05403C13.8844 9.41201 13.304 9.41201 12.946 9.05403C12.588 8.69605 12.588 8.11565 12.946 7.75767L16.8327 3.87101C17.1906 3.51302 17.771 3.51302 18.129 3.87101Z" fill="#7E8E9D"/>
<path fill-rule="evenodd" clip-rule="evenodd" d="M17.4782 4.52184C17.8362 4.87982 17.8362 5.46022 17.4782 5.8182L14.2424 9.05403C13.8844 9.41201 13.304 9.41201 12.946 9.05403C12.588 8.69605 12.588 8.11565 12.946 7.75767L16.1818 4.52184C16.5398 4.16386 17.1202 4.16386 17.4782 4.52184Z" fill="#7E8E9D"/>
<path fill-rule="evenodd" clip-rule="evenodd" d="M9.05402 12.946C9.412 13.304 9.412 13.8844 9.05402 14.2424L5.16735 18.129C4.80937 18.487 4.22897 18.487 3.87099 18.129C3.51301 17.7711 3.51301 17.1907 3.87099 16.8327L7.75766 12.946C8.11564 12.588 8.69604 12.588 9.05402 12.946Z" fill="#7E8E9D"/>
</svg>
