<?xml version="1.0" encoding="UTF-8"?>
<svg width="20px" height="20px" viewBox="0 0 20 20" version="1.1" xmlns="http://www.w3.org/2000/svg" xmlns:xlink="http://www.w3.org/1999/xlink">
    <!-- Generator: Sketch 52.6 (67491) - http://www.bohemiancoding.com/sketch -->
    <title>Fill 1</title>
    <desc>Created with Sketch.</desc>
    <g id="v3" stroke="none" stroke-width="1" fill="none" fill-rule="evenodd">
        <g id="License-expired" transform="translate(-1014.000000, -50.000000)" fill="#FFFFFF">
            <g id="Group-12" transform="translate(0.000000, 30.000000)">
                <path d="M1018.003,36.69525 L1020.672,34.02625 C1021.609,34.80125 1022.764,35.24525 1023.996,35.24525 C1025.229,35.24525 1026.383,34.80125 1027.32,34.02625 L1029.989,36.69525 C1026.583,39.74325 1021.409,39.74325 1018.003,36.69525 M1017.296,24.00225 L1019.965,26.67125 C1019.19,27.60825 1018.746,28.76225 1018.746,29.99525 C1018.746,31.22725 1019.19,32.38225 1019.965,33.31925 L1017.296,35.98825 C1014.248,32.58225 1014.248,27.40825 1017.296,24.00225 M1029.989,23.29525 L1027.32,25.96425 C1026.383,25.18825 1025.229,24.74525 1023.996,24.74525 C1022.764,24.74525 1021.609,25.18825 1020.672,25.96425 L1018.003,23.29525 C1019.706,21.77025 1021.848,20.99925 1023.996,20.99925 C1026.145,20.99925 1028.286,21.77025 1029.989,23.29525 M1019.746,29.99525 C1019.746,28.86025 1020.189,27.79325 1020.991,26.99025 C1021.794,26.18725 1022.861,25.74525 1023.996,25.74525 C1025.131,25.74525 1026.198,26.18725 1027.001,26.99025 C1027.804,27.79325 1028.246,28.86025 1028.246,29.99525 C1028.246,31.13025 1027.804,32.19725 1027.001,33.00025 C1026.198,33.80225 1025.131,34.24525 1023.996,34.24525 C1022.861,34.24525 1021.794,33.80225 1020.991,33.00025 C1020.189,32.19725 1019.746,31.13025 1019.746,29.99525 M1030.696,35.98825 L1028.027,33.31925 C1028.803,32.38225 1029.246,31.22725 1029.246,29.99525 C1029.246,28.76225 1028.803,27.60825 1028.027,26.67125 L1030.696,24.00225 C1033.744,27.40825 1033.744,32.58225 1030.696,35.98825 M1031.067,22.92425 C1027.169,19.02525 1020.823,19.02525 1016.925,22.92425 C1013.025,26.82325 1013.025,33.16725 1016.925,37.06625 C1018.874,39.01525 1021.436,39.99125 1023.996,39.99125 C1026.557,39.99125 1029.118,39.01525 1031.067,37.06625 C1034.967,33.16725 1034.967,26.82325 1031.067,22.92425" id="Fill-1"></path>
            </g>
        </g>
    </g>
</svg>