<?xml version="1.0" encoding="UTF-8"?>
<svg width="24" height="21" viewBox="0 0 24 21" fill="none" xmlns="http://www.w3.org/2000/svg">
    <path d="M22.9493 18.0474C23.6931 19.3597 22.7595 21 21.2739 21H1.9364C0.447983 21 -0.481325 19.3571 0.261009 18.0474L9.92989 0.98376C10.674 -0.329109 12.5378 -0.32673 13.2807 0.98376L22.9493 18.0474ZM11.6053 14.5195C10.5816 14.5195 9.75166 15.3642 9.75166 16.4062C9.75166 17.4483 10.5816 18.293 11.6053 18.293C12.629 18.293 13.4589 17.4483 13.4589 16.4062C13.4589 15.3642 12.629 14.5195 11.6053 14.5195ZM9.84543 7.73776L10.1443 13.3159C10.1583 13.5769 10.3704 13.7812 10.6272 13.7812H12.5834C12.8402 13.7812 13.0522 13.5769 13.0662 13.3159L13.3651 7.73776C13.3802 7.45582 13.1597 7.21875 12.8823 7.21875H10.3282C10.0508 7.21875 9.83032 7.45582 9.84543 7.73776Z" fill="white"/>
</svg>
