<?xml version="1.0" standalone="no"?>
<!DOCTYPE svg PUBLIC "-//W3C//DTD SVG 1.1//EN" "http://www.w3.org/Graphics/SVG/1.1/DTD/svg11.dtd">
<svg xmlns="http://www.w3.org/2000/svg">
<defs >
<font id="Exo2" horiz-adv-x="557" ><font-face
    font-family="Exo 2 Medium"
    units-per-em="1000"
    panose-1="0 0 6 0 0 0 0 0 0 0"
    ascent="1001"
    descent="-199"
    alphabetic="0" />
<glyph unicode=" " glyph-name="space" horiz-adv-x="222" />
<glyph unicode="!" glyph-name="exclam" horiz-adv-x="277" d="M187 396L177 213H100L90 396V695H187V396ZM127 124H151Q171 124 179 116T187 89V36Q187 16 179 8T151 0H127Q107 0 100 8T92 36V89Q92 108 100 116T127 124Z" />
<glyph unicode="&quot;" glyph-name="quotedbl" horiz-adv-x="358" d="M139 474H73L67 690H145L139 474ZM286 474H220L214 690H292L286 474Z" />
<glyph unicode="#" glyph-name="numbersign" horiz-adv-x="688" d="M525 444L495 271H604L592 210H484L448 0H371L408 210H233L197 0H120L157 210H41L53 271H167L198 444H83L95 505H208L240 690H317L285 505H459L491 690H568L536 505H646L634 444H525ZM449 444H274L244
271H418L449 444Z" />
<glyph unicode="$" glyph-name="dollar" horiz-adv-x="565" d="M319 390L376 374Q453 353 484 306T516 178Q516 63 464 26T280 -12L271 -125H220L229 -11Q146 -7 64 8L71 85Q199 82 237 81L255 307L192 324Q118 344 87 391T55 520Q55 579 67 615T111 671T180 696T282
702H293L300 798H350L343 700Q427 697 490 681L484 608Q396 612 336 612L319 390ZM269 404L286 613Q208 613 182 598T156 517Q156 466 174 445T240 412L269 404ZM304 293L287 81Q362 81 388 100T414 179Q414 232 396 252T332 285L304 293Z" />
<glyph unicode="%" glyph-name="percent" horiz-adv-x="896" d="M117 703T207 703T333 657T370 498Q370 387 334 340T207 293T81 340T44 498Q44 610 80 656ZM260 0H192L633 690H701L260 0ZM206 643Q156 643 137 611T118 498Q118 416 137 385T206 353Q257 353 276
384T295 498T276 611T206 643ZM689 400Q778 400 814 353T851 195Q851 83 815 37T689 -10Q599 -10 563 36T526 195Q526 306 562 353T689 400ZM739 339T688 339T618 308T600 195Q599 113 618 82T688 50T758 81T777 195Q777 278 758 308Z" />
<glyph unicode="&amp;" glyph-name="ampersand" horiz-adv-x="770" d="M713 75L724 4Q679 -9 615 -9Q513 -9 494 73Q450 27 398 8T267 -11Q157 -11 111 30T64 175Q64 258 95 304T200 356V360Q138 366 111 405T84 521Q84 569 94 601T123 653T175 683T247 697T346
701Q439 701 506 690L494 615Q452 618 343 618Q250 618 218 598T186 507Q186 441 213 418T312 395H492L500 518H581V395H703V319H581V138Q581 103 594 89T642 75H713ZM490 319H306Q229 319 200 293T170 192Q170 125 196 101T292 76Q417 77 490 148V319Z" />
<glyph unicode="&apos;" glyph-name="quotesingle" horiz-adv-x="211" d="M139 474H73L67 690H145L139 474Z" />
<glyph unicode="(" glyph-name="parenleft" horiz-adv-x="360" d="M319 790L331 745Q234 699 190 592T145 313Q145 -25 331 -120L319 -165Q181 -113 116 2T51 312Q51 507 116 623T319 790Z" />
<glyph unicode=")" glyph-name="parenright" horiz-adv-x="360" d="M29 745L41 790Q180 739 245 623T310 312Q310 118 245 3T41 -165L29 -120Q215 -25 215 313Q215 485 171 592T29 745Z" />
<glyph unicode="*" glyph-name="asterisk" horiz-adv-x="450" d="M244 529L346 400L300 366L224 490L149 367L102 401L204 529L196 691H254L244 529ZM186 557V532L174 516L50 549L69 603L186 557ZM399 548L275 516L262 532V557L381 603L399 548Z" />
<glyph unicode="+" glyph-name="plus" horiz-adv-x="550" d="M495 263H311V89H238V263H54V335H237V510H311V335H495V263Z" />
<glyph unicode="," glyph-name="comma" horiz-adv-x="232" d="M103 124H131Q150 124 157 117T165 89V25Q164 -64 127 -134L81 -122Q92 -66 92 0Q65 0 65 31V89Q66 108 74 116T103 124Z" />
<glyph unicode="-" glyph-name="hyphen" horiz-adv-x="442" d="M373 216H69V290H373V216Z" />
<glyph unicode="." glyph-name="period" horiz-adv-x="233" d="M101 124H132Q152 124 160 117T168 89V36Q168 16 160 8T132 0H101Q81 0 73 8T65 36V89Q65 109 73 116T101 124Z" />
<glyph unicode="/" glyph-name="slash" horiz-adv-x="522" d="M104 -67H25L418 690H497L104 -67Z" />
<glyph unicode="0" glyph-name="zero" horiz-adv-x="607" d="M170 703T303 703T490 621T545 345T491 70T303 -13T116 69T61 345T115 620ZM302 616Q222 616 191 556T159 345T190 135T302 74Q385 74 416 134T448 345T417 556T302 616Z" />
<glyph unicode="1" glyph-name="one" horiz-adv-x="402" d="M293 0H193V534Q193 570 198 596L32 545L20 620L193 690H293V0Z" />
<glyph unicode="2" glyph-name="two" horiz-adv-x="563" d="M65 599L59 677Q171 702 273 702Q382 702 434 671T487 551Q487 487 461 433T367 304L175 93Q222 97 285 97H511V0H54V63Q54 90 69 105L261 322Q389 460 386 545Q385 588 357 601T264 614Q174 614 65 599Z" />
<glyph unicode="3" glyph-name="three" d="M69 607L62 685Q165 703 260 703Q375 703 425 668T475 543Q475 388 374 369V365Q438 354 464 312T493 192Q495 85 444 36T272 -13Q177 -13 51 5L57 86Q174 76 247 76Q328 76 361 104T394 203Q394 264 367 293T264 323H137V401H264Q335
402 357 432T379 519Q378 580 351 597T245 615Q163 615 69 607Z" />
<glyph unicode="4" glyph-name="four" horiz-adv-x="619" d="M577 174L487 164V0H392V164H115Q70 164 49 199T45 277L236 690H334L148 284Q140 264 147 255T172 245H392V445L410 557H487V245H577V174Z" />
<glyph unicode="5" glyph-name="five" horiz-adv-x="538" d="M460 604H174L164 432L242 425Q375 414 430 365T484 207Q484 161 475 126T443 57T374 6T259 -12Q161 -12 49 13L61 94Q155 77 235 77Q324 77 354 107T386 207Q387 227 385 243T379 271T367 294T350
310T326 322T298 331T260 337T218 341T166 346L114 351Q97 352 87 364T77 394L93 690H464L460 604Z" />
<glyph unicode="6" glyph-name="six" horiz-adv-x="574" d="M477 687L469 614Q424 617 334 617Q286 617 258 609T207 576T175 506T163 385Q197 422 235 437T331 452Q439 452 480 402T521 226Q521 167 513 128T481 55T414 5T300 -12Q225 -12 180 3T109 61T73 165T64
332Q64 451 79 525T131 637T214 689T334 702Q420 702 477 687ZM301 74Q379 74 402 109T426 226Q426 307 401 339T305 371Q264 371 233 359T162 314Q162 236 165 196T184 125T226 84T301 74Z" />
<glyph unicode="7" glyph-name="seven" horiz-adv-x="514" d="M37 690H430Q462 690 475 673T479 625L266 0H166L355 552Q366 584 378 605H41L37 690Z" />
<glyph unicode="8" glyph-name="eight" horiz-adv-x="607" d="M180 356V360Q82 371 82 518Q82 617 128 659T303 701Q432 700 478 659T525 518Q525 371 427 360V356Q489 350 515 304T541 172Q541 74 492 32T303 -11Q167 -12 117 31T66 172Q66 257 91 303T180 356ZM383
620T304 620T199 597T173 508Q173 442 199 420T305 398T409 419T434 508Q434 573 409 596ZM305 318Q218 317 189 293T160 194Q160 125 189 100T304 75Q389 75 417 100T445 194Q445 269 418 293T305 318Z" />
<glyph unicode="9" glyph-name="nine" horiz-adv-x="574" d="M85 3L93 77Q141 74 237 74T370 121T411 308Q375 269 336 254T240 238Q53 238 53 463Q52 587 103 644T277 702Q321 702 353 697T411 680T452 649T480 603T497 539T505 457T508 353Q508 260 498 197T469
93T416 28T341 -3T238 -12Q148 -12 85 3ZM267 318Q308 318 339 331T411 378Q411 430 410 460T404 522T391 568T367 596T330 613T276 617Q199 617 173 581T148 463Q147 389 173 354T267 318Z" />
<glyph unicode=":" glyph-name="colon" horiz-adv-x="242" d="M101 442H133Q153 442 161 435T169 407V353Q169 333 161 326T133 318H101Q82 318 74 326T66 353V407Q66 426 74 434T101 442ZM101 124H133Q153 124 161 117T169 89V36Q169 16 161 8T133 0H101Q81 0
74 8T66 36V89Q66 108 74 116T101 124Z" />
<glyph unicode=";" glyph-name="semicolon" horiz-adv-x="243" d="M107 442H138Q158 442 166 435T174 407V353Q174 333 166 326T138 318H107Q87 318 79 325T71 353V407Q71 427 79 434T107 442ZM109 124H137Q156 124 163 117T171 89V25Q170 -64 133 -134L88 -122Q98
-63 98 0Q70 0 72 31V89Q73 108 81 116T109 124Z" />
<glyph unicode="&lt;" glyph-name="less" horiz-adv-x="528" d="M460 432L134 298L460 167V90L51 260V336L460 509V432Z" />
<glyph unicode="=" glyph-name="equal" horiz-adv-x="585" d="M513 363H71V435H513V363ZM513 152H71V224H513V152Z" />
<glyph unicode="&gt;" glyph-name="greater" horiz-adv-x="528" d="M477 336V260L68 90V167L394 298L68 432V509L477 336Z" />
<glyph unicode="?" glyph-name="question" horiz-adv-x="504" d="M43 621L38 691Q50 693 75 697T113 703T149 707T199 711T261 712Q465 712 465 557Q465 516 447 481T403 420T351 366T306 299T284 213H202Q201 264 216 306T255 377T303 431T344 484T362 540Q364
586 335 608T240 630Q144 630 43 621ZM231 124H255Q275 124 283 117T291 89V36Q291 16 283 8T255 0H231Q211 0 203 8T195 36V89Q195 109 203 116T231 124Z" />
<glyph unicode="@" glyph-name="at" horiz-adv-x="723" d="M354 588H499Q575 588 614 554T653 441V132H581L571 207Q540 175 488 150T379 124Q319 124 283 155T247 246V296Q247 346 276 373T362 400H562V438Q562 478 545 493T480 508H355Q306 508 281 507T231
497T195 475T176 432T165 365T163 267Q163 219 164 188T170 128T181 84T201 55T228 36T269 26T321 22T390 21H651V-51Q496 -60 391 -60Q314 -61 267 -58T181 -40T123 -7T91 53T75 141T71 267Q71 343 74 389T88 474T117 533T168 566T244 584T354 588ZM562 341L396
337Q362 336 350 325T337 284V263Q337 201 398 201Q440 201 485 217T562 263V341Z" />
<glyph unicode="A" glyph-name="A" horiz-adv-x="626" d="M450 208H175L111 0H9L225 663Q233 690 262 690H364Q394 690 400 663L617 0H514L450 208ZM424 295L343 557Q340 566 335 585T326 613H299L283 557L202 295H424Z" />
<glyph unicode="B" glyph-name="B" horiz-adv-x="622" d="M428 360V356Q503 349 534 304T566 172Q566 68 517 30T344 -8Q175 -8 84 0V690Q165 698 314 698Q444 698 494 661T545 518Q545 443 517 405T428 360ZM182 396H322Q394 396 421 418T449 506Q449 570 419
591T309 613H182V396ZM182 78L329 77Q408 77 436 99T465 189Q465 264 435 291T323 319H182V78Z" />
<glyph unicode="C" glyph-name="C" horiz-adv-x="572" d="M527 88L537 12Q454 -12 332 -12Q181 -12 120 68T59 345T120 622T332 702Q440 702 523 682L513 605Q433 613 332 613Q237 613 201 555T164 345T200 135T332 77Q459 77 527 88Z" />
<glyph unicode="D" glyph-name="D" horiz-adv-x="665" d="M84 0V690Q215 699 333 699Q485 699 545 622T606 345T546 68T333 -9Q215 -9 84 0ZM184 611V81Q248 78 333 78Q427 78 463 136T500 345T464 554T333 612Q303 612 254 612T184 611Z" />
<glyph unicode="E" glyph-name="E" horiz-adv-x="562" d="M508 83L513 6Q422 -2 217 -2Q153 -2 116 31T78 122V568Q79 625 116 658T217 692Q422 692 513 684L508 606H234Q204 606 192 592T179 542V404H470V323H179V147Q179 112 191 98T234 83H508Z" />
<glyph unicode="F" glyph-name="F" horiz-adv-x="540" d="M502 606H246Q211 606 197 592T182 542V393H464V312H182V0H82V563Q82 624 119 658T221 692Q419 692 507 683L502 606Z" />
<glyph unicode="G" glyph-name="G" horiz-adv-x="629" d="M564 398V0H490L480 70Q393 -13 275 -13Q161 -13 110 74T59 348Q59 487 88 563T179 671T353 703Q461 703 545 682L535 606Q451 614 359 614Q312 614 283 609T229 587T192 540T172 461T165 341Q165 192
195 133T303 74Q376 74 466 135V398H564Z" />
<glyph unicode="H" glyph-name="H" horiz-adv-x="670" d="M586 690V0H486V325H184V0H84V690H184V411H486V690H586Z" />
<glyph unicode="I" glyph-name="I" horiz-adv-x="268" d="M184 0H84V690H184V0Z" />
<glyph unicode="J" glyph-name="J" horiz-adv-x="343" d="M262 690V151Q262 72 227 31T126 -9Q67 -9 28 4L39 76H88Q162 76 162 146V690H262Z" />
<glyph unicode="K" glyph-name="K" horiz-adv-x="597" d="M255 319H177Q184 277 184 248V0H84V690H184V478Q184 435 177 400H255L458 690H567L372 408Q356 385 330 360V357Q358 333 378 305L580 0H469L255 319Z" />
<glyph unicode="L" glyph-name="L" horiz-adv-x="515" d="M182 690V148Q182 113 196 99T245 84H490L495 7Q398 -2 229 -2Q82 -2 82 134V690H182Z" />
<glyph unicode="M" glyph-name="M" horiz-adv-x="881" d="M633 690H742Q781 690 783 649L811 0H711L687 607H667L527 116Q518 82 484 82H397Q362 82 353 116L212 607H193L170 0H71L97 649Q99 690 138 690H249Q280 690 291 656L408 252Q418 216 431 159H449Q461
212 473 253L589 656Q600 690 633 690Z" />
<glyph unicode="N" glyph-name="N" horiz-adv-x="708" d="M624 690V39Q624 0 587 0H492Q462 0 449 31L234 501Q198 579 193 597H179Q184 557 184 501V0H84V651Q84 690 122 690H214Q243 690 258 659L467 201Q471 192 481 172T499 133T515 98H530Q525 158 525 205V690H624Z" />
<glyph unicode="O" glyph-name="O" horiz-adv-x="669" d="M334 703Q488 703 549 625T610 345T549 65T334 -13Q181 -13 120 65T59 345T120 625T334 703ZM431 614T334 614T201 556T164 345T200 134T334 76T468 134T505 345T468 556Z" />
<glyph unicode="P" glyph-name="P" horiz-adv-x="592" d="M84 0V690Q169 699 324 699Q453 699 501 653T550 481Q550 354 504 308T336 262Q261 262 184 271V0H84ZM184 348H322Q395 349 422 376T449 481T422 586T322 613Q222 613 184 612V348Z" />
<glyph unicode="Q" glyph-name="Q" horiz-adv-x="671" d="M335 703Q489 703 550 625T611 345T550 65T335 -13Q182 -13 121 65T59 345T120 625T335 703ZM432 614T335 614T202 556T165 345T201 134T335 76T469 134T506 345T469 556ZM266 -102L293 -41Q412 -87 566
-109L534 -209Q406 -182 266 -102Z" />
<glyph unicode="R" glyph-name="R" horiz-adv-x="620" d="M578 0H471L412 215Q390 284 325 284L183 285V0H84V690Q169 699 325 699Q450 699 501 656T553 499Q553 416 524 374T426 323V318Q493 298 513 218L578 0ZM183 370H323Q397 371 424 396T452 493Q452 563
425 588T323 613Q221 613 183 612V370Z" />
<glyph unicode="S" glyph-name="S" horiz-adv-x="563" d="M330 285L190 324Q116 344 85 391T53 520Q53 579 65 615T109 671T178 696T280 702Q402 702 488 681L482 608Q337 613 284 613Q206 613 180 598T154 517Q154 466 172 445T237 412L374 374Q451 353 482 306T514
178Q514 64 462 26T279 -12Q169 -12 62 8L69 82Q225 77 281 77Q359 78 385 97T412 179Q412 232 394 252T330 285Z" />
<glyph unicode="T" glyph-name="T" horiz-adv-x="584" d="M561 601H342V0H241V601H24V690H561V601Z" />
<glyph unicode="U" glyph-name="U" horiz-adv-x="666" d="M587 690V266Q587 114 531 51T337 -13Q196 -13 138 50T79 266V690H179V266Q179 160 213 118T333 76Q418 76 452 118T487 266V690H587Z" />
<glyph unicode="V" glyph-name="V" horiz-adv-x="612" d="M597 690L393 28Q384 0 355 0H257Q228 0 219 28L15 690H118L274 153Q279 134 293 77H320Q326 106 339 153L494 690H597Z" />
<glyph unicode="W" glyph-name="W" horiz-adv-x="951" d="M921 690L789 29Q780 0 750 0H639Q607 0 600 30L500 537Q490 589 486 615H465L450 537L351 30Q349 17 338 9T312 0H200Q169 0 162 29L30 690H136L235 164Q238 147 247 76H270Q275 119 285 164L384 657Q391
690 422 690H529Q543 690 553 681T567 657L665 163Q673 123 680 76H703Q705 90 709 119T716 162L815 690H921Z" />
<glyph unicode="X" glyph-name="X" horiz-adv-x="615" d="M319 320H295L131 0H22L212 357L35 690H143L294 396H320L471 690H579L402 357L592 0H483L319 320Z" />
<glyph unicode="Y" glyph-name="Y" horiz-adv-x="574" d="M337 239V0H237V240L9 690H115L254 407Q262 390 284 327H291Q312 389 321 406L460 690H564L337 239Z" />
<glyph unicode="Z" glyph-name="Z" horiz-adv-x="568" d="M521 85V0H48V85L405 605H53V690H514V605L158 85H521Z" />
<glyph unicode="[" glyph-name="bracketleft" horiz-adv-x="332" d="M292 705H195Q180 705 180 689V-86Q180 -102 195 -102H292V-165H147Q89 -165 89 -107V710Q89 736 105 752T147 768H292V705Z" />
<glyph unicode="\" glyph-name="backslash" horiz-adv-x="523" d="M498 -67H418L25 690H105L498 -67Z" />
<glyph unicode="]" glyph-name="bracketright" horiz-adv-x="332" d="M40 768H185Q210 768 226 752T243 710V-107Q243 -132 227 -148T185 -165H40V-102H136Q152 -102 152 -86V689Q152 705 136 705H40V768Z" />
<glyph unicode="^" glyph-name="asciicircum" horiz-adv-x="433" d="M403 392L364 368L221 541H213L69 368L30 392L182 605H252L403 392Z" />
<glyph unicode="_" glyph-name="underscore" horiz-adv-x="576" d="M507 -73H69V0H507V-73Z" />
<glyph unicode="`" glyph-name="grave" horiz-adv-x="322" d="M256 580L224 535L25 652L79 726L256 580Z" />
<glyph unicode="a" glyph-name="a" horiz-adv-x="551" d="M79 407L70 478Q202 501 307 501Q396 501 438 465T480 340V0H404L393 77Q309 -9 198 -9Q130 -9 90 27T49 129V180Q49 238 85 270T187 302H383V340Q382 385 362 402T286 419Q231 419 79 407ZM147 167V141Q147
105 164 89T218 73Q305 73 383 141V229H205Q173 228 160 213T147 167Z" />
<glyph unicode="b" glyph-name="b" horiz-adv-x="573" d="M170 700V525Q170 458 160 414Q242 501 344 501Q435 501 478 441T521 246Q521 115 473 52T301 -12Q170 -12 73 23V700H170ZM170 349V84Q230 69 299 69Q366 70 393 109T421 246Q420 344 398 380T310 417Q276
417 246 401T170 349Z" />
<glyph unicode="c" glyph-name="c" horiz-adv-x="491" d="M446 80L455 15Q381 -12 285 -12Q157 -12 105 45T52 244T104 443T285 501Q383 501 447 476L434 414Q359 419 302 419Q218 419 186 382T153 244T185 106T302 69Q384 69 446 80Z" />
<glyph unicode="d" glyph-name="d" horiz-adv-x="575" d="M424 0L416 67Q322 -12 224 -12Q134 -12 94 52T53 246Q53 386 98 443T239 501Q331 501 407 457Q403 500 403 553V700H500V0H424ZM403 133V393Q312 417 263 417Q201 417 177 383T153 247T176 109T257 72Q294
72 322 85T403 133Z" />
<glyph unicode="e" glyph-name="e" horiz-adv-x="539" d="M373 197H154Q161 121 193 95T300 69Q365 69 471 81L480 17Q414 -12 287 -12Q159 -12 106 46T52 245Q52 387 104 444T278 501Q390 501 441 460T492 337Q492 197 373 197ZM153 272H347Q395 272 395 337Q394
382 370 400T283 419Q211 419 183 389T153 272Z" />
<glyph unicode="f" glyph-name="f" horiz-adv-x="385" d="M393 638H294Q249 638 231 621T212 562V488H363V413H212V0H115V413H27V483L115 488V573Q115 644 149 680T260 717Q354 717 401 710L393 638Z" />
<glyph unicode="g" glyph-name="g" horiz-adv-x="561" d="M535 436L466 429Q483 395 483 344Q483 261 436 225T271 188Q217 188 174 196Q158 175 165 150T205 120L385 92Q454 82 483 49T513 -47Q513 -134 462 -167T277 -200Q142 -200 90 -168T38 -50Q38 -9 56
15T116 63Q81 92 84 140T123 214Q59 247 59 343Q59 429 106 465T272 501Q345 501 388 488H540L535 436ZM271 261Q339 261 366 279T393 344Q393 391 367 409T271 427Q201 427 174 409T147 344Q147 299 174 280T271 261ZM335 21L178 42Q132 4 132 -42Q132 -90 159
-104T276 -118Q362 -118 390 -104T418 -42Q418 -8 403 2T335 21Z" />
<glyph unicode="h" glyph-name="h" horiz-adv-x="583" d="M173 700V511Q173 461 166 416Q282 501 379 501Q443 501 477 467T511 366V0H414V338Q414 384 401 401T352 419Q314 419 275 402T172 347V0H75V700H173Z" />
<glyph unicode="i" glyph-name="i" horiz-adv-x="254" d="M104 696H150Q178 696 178 668V612Q178 583 150 583H104Q76 583 76 612V668Q76 696 104 696ZM175 0H79V488H175V0Z" />
<glyph unicode="j" glyph-name="j" horiz-adv-x="256" d="M106 696H152Q180 696 180 668V612Q180 583 152 583H106Q77 583 77 612V668Q77 696 106 696ZM177 488V-5Q177 -65 151 -117T78 -202L24 -160Q80 -89 80 -5V488H177Z" />
<glyph unicode="k" glyph-name="k" horiz-adv-x="517" d="M228 240H167Q172 197 172 164V0H75V700H173V393Q173 350 167 310H227L374 488H486L339 311Q326 293 303 275V273Q322 258 339 231L502 0H390L228 240Z" />
<glyph unicode="l" glyph-name="l" horiz-adv-x="302" d="M173 700V141Q172 110 188 95T236 79H281L292 4Q263 -9 199 -9Q142 -9 109 24T76 119V700H173Z" />
<glyph unicode="m" glyph-name="m" horiz-adv-x="875" d="M155 488L160 413Q262 501 356 501Q457 501 480 416Q577 501 672 501Q736 501 769 467T803 366V0H708V338Q707 381 691 400T637 419Q604 419 574 404T486 347V0H393V338Q393 382 376 400T322 419Q290 419
260 404T171 348V0H75V488H155Z" />
<glyph unicode="n" glyph-name="n" horiz-adv-x="583" d="M157 488L163 413Q278 501 379 501Q444 501 477 467T511 366V0H414V338Q414 384 401 401T352 419Q314 419 276 402T172 346V0H75V488H157Z" />
<glyph unicode="o" glyph-name="o" horiz-adv-x="570" d="M158 501T285 501T465 442T518 243T465 45T285 -13T105 45T52 243T105 442ZM361 419T285 419T181 382T153 243Q153 142 181 105T285 68T389 105T417 243Q417 345 389 382Z" />
<glyph unicode="p" glyph-name="p" horiz-adv-x="584" d="M155 488L162 413Q200 453 256 477T365 501Q531 501 531 241Q531 103 486 46T345 -12Q247 -12 169 37Q173 -5 171 -62V-199H75V488H155ZM171 346V98Q272 72 319 72Q382 72 406 106T431 242Q431 339 409
378T332 417Q269 417 171 346Z" />
<glyph unicode="q" glyph-name="q" horiz-adv-x="572" d="M499 -199H402V-39Q402 25 410 62Q319 -13 220 -13Q135 -13 94 48T52 243Q52 374 101 437T275 501Q403 501 499 465V-199ZM403 133V404Q341 421 274 419Q205 417 179 380T152 236Q152 148 173 110T253
72Q291 72 323 86T403 133Z" />
<glyph unicode="r" glyph-name="r" horiz-adv-x="404" d="M388 501L377 410H347Q290 410 172 354V0H75V488H150L160 414Q269 501 365 501H388Z" />
<glyph unicode="s" glyph-name="s" horiz-adv-x="509" d="M295 192L159 226Q98 242 73 273T48 365Q48 446 91 474T241 501Q358 499 449 484L441 414Q288 419 256 419Q185 419 164 411T142 365Q142 348 145 338T160 320T180 311T211 301L349 267Q411 251 437 222T463
130Q463 44 416 17T251 -11Q149 -11 57 3L64 75Q120 70 231 70Q313 70 341 81T369 130Q369 146 365 156T348 174T328 183T295 192Z" />
<glyph unicode="t" glyph-name="t" horiz-adv-x="388" d="M345 79L356 4Q310 -9 241 -9Q179 -9 147 26T114 128V413H25V483L114 487V631H210V488H361V413H210V141Q210 107 224 93T274 79H345Z" />
<glyph unicode="u" glyph-name="u" horiz-adv-x="572" d="M497 488V0H420L413 67Q306 -13 205 -13Q72 -13 72 122V488H169V150Q168 105 184 88T239 70Q296 70 401 135V488H497Z" />
<glyph unicode="v" glyph-name="v" horiz-adv-x="534" d="M518 488L344 24Q334 0 310 0H223Q198 0 190 24L16 488H119L233 152L260 68H273L302 152L415 488H518Z" />
<glyph unicode="w" glyph-name="w" horiz-adv-x="826" d="M803 488L666 27Q658 0 629 0H542Q512 0 505 31L434 352Q432 361 430 376T425 405T419 430H407L391 352L321 31Q314 0 283 0H197Q167 0 161 27L23 488H123L217 136Q229 86 232 61H245L262 136L334 458Q341
488 370 488H457Q486 488 493 457L564 136Q566 126 581 61H594Q601 106 609 136L703 488H803Z" />
<glyph unicode="x" glyph-name="x" horiz-adv-x="533" d="M276 216H257L125 0H20L180 252L32 488H136L256 291H277L396 488H500L353 252L513 0H408L276 216Z" />
<glyph unicode="y" glyph-name="y" horiz-adv-x="533" d="M516 488L327 -23Q259 -203 103 -205L93 -141Q150 -124 183 -94T236 -18L243 0H223Q195 0 189 25L16 488H120L241 133Q253 102 258 73H272Q282 100 292 133L412 488H516Z" />
<glyph unicode="z" glyph-name="z" horiz-adv-x="512" d="M464 79V0H48V79L353 409H52V488H460V409L156 79H464Z" />
<glyph unicode="{" glyph-name="braceleft" horiz-adv-x="323" d="M281 768V707Q231 707 213 689T194 626V453Q195 391 176 365T102 328Q158 311 177 286T198 207V-24Q198 -69 216 -86T285 -104V-165Q105 -180 105 -31V222Q105 241 103 252T90 271T74 282T44 294V362Q83
374 92 384T101 438V634Q101 783 281 768Z" />
<glyph unicode="|" glyph-name="bar" horiz-adv-x="249" d="M159 -169H89V781H159V-169Z" />
<glyph unicode="}" glyph-name="braceright" horiz-adv-x="324" d="M43 707V768Q223 783 223 634V438Q223 395 232 385T280 362V294Q239 278 230 267Q219 254 219 222V-31Q219 -180 39 -165V-104Q89 -104 107 -87T126 -24V207Q127 260 146 285T222 328Q167 338
148 364T130 453V626Q130 671 112 689T43 707Z" />
<glyph unicode="~" glyph-name="asciitilde" horiz-adv-x="523" d="M124 225H75Q67 288 89 320T152 351Q188 349 260 323T357 294T391 303T400 346H450Q457 285 435 253T372 223Q331 225 260 251T166 279Q141 282 133 270T124 225Z" />
<glyph unicode="&#xa0;" glyph-name="uni00A0" horiz-adv-x="222" />
<glyph unicode="&#xa1;" glyph-name="exclamdown" horiz-adv-x="261" d="M119 496H143Q162 496 170 488T178 460V406Q178 386 170 379T143 371H119Q99 371 91 379T83 406V460Q83 480 91 488T119 496ZM179 100V-194H82V100L92 283H169L179 100Z" />
<glyph unicode="&#xa2;" glyph-name="cent" horiz-adv-x="508" d="M445 184L454 119Q384 95 296 93L287 0H238L247 94Q140 101 96 159T51 349Q51 490 104 547T285 605H293L301 690H351L343 603Q403 596 446 581L434 516Q392 521 335 523L305 174Q375 174 445 184ZM255
177L284 523Q207 520 177 483T147 349Q147 262 171 224T255 177Z" />
<glyph unicode="&#xa3;" glyph-name="sterling" horiz-adv-x="571" d="M521 86V0H60V86Q146 126 137 267L133 335H55V391H130L123 520Q120 577 131 614T169 670T229 695T315 702Q395 702 499 692L493 612Q416 615 317 615Q259 615 238 595T221 518L228 391H433L430
335H232L236 267Q240 198 224 157T165 81Q188 86 233 86H521Z" />
<glyph unicode="&#xa4;" glyph-name="currency" horiz-adv-x="592" d="M485 120L412 193Q362 154 296 154T179 192L108 121L63 166L134 237Q98 287 98 351Q98 418 137 469L66 540L108 582L178 511Q230 549 296 549Q363 549 414 510L486 582L527 540L455 468Q493
416 493 351Q493 287 454 235L528 162L485 120ZM296 212Q352 211 392 252T433 352T393 451T296 492Q238 492 197 451T156 352T197 253T296 212Z" />
<glyph unicode="&#xa5;" glyph-name="yen" horiz-adv-x="621" d="M397 326H535V269H366L361 258V213H535V156H361V0H261V156H91V213H261V258L255 269H92L90 326H225L33 690H137L275 420Q282 406 293 379T308 341H315Q318 347 329 376T346 420L484 690H588L397 326Z" />
<glyph unicode="&#xa6;" glyph-name="brokenbar" horiz-adv-x="251" d="M160 381H90V781H160V381ZM160 -169H90V231H160V-169Z" />
<glyph unicode="&#xa7;" glyph-name="section" horiz-adv-x="545" d="M329 319L161 416Q109 446 85 479T60 571Q60 649 108 676T261 703Q387 701 479 691L473 615Q386 621 288 621Q254 621 236 620T199 615T172 599T163 569Q162 537 178 518T227 482L383 394Q454
356 472 297T469 156H399Q404 221 390 257T329 319ZM76 383H146Q141 317 155 282T217 221L385 125Q436 96 461 62T486 -32Q486 -75 473 -102T430 -143T369 -160T285 -165Q157 -163 66 -153L74 -77Q167 -83 260 -84Q293 -84 311 -83T347 -77T374 -60T382 -29Q384
2 368 21T321 59L164 146Q93 183 74 242T76 383Z" />
<glyph unicode="&#xa8;" glyph-name="dieresis" horiz-adv-x="413" d="M103 697H135Q161 697 161 670V616Q161 589 135 589H103Q77 589 77 616V670Q77 697 103 697ZM280 697H312Q339 697 339 670V616Q339 589 312 589H280Q254 589 254 616V670Q254 697 280 697Z" />
<glyph unicode="&#xa9;" glyph-name="copyright" horiz-adv-x="832" d="M264 703T416 703T672 602T776 345T672 89T416 -13T160 89T56 345T160 601ZM544 652T416 652T199 564T109 345T198 126T416 38T633 126T723 345T634 564ZM559 200L566 145Q506 129 421 129Q314
129 270 178T226 347T270 516T421 565Q500 565 556 551L548 496Q491 500 420 500Q352 500 327 467T301 347T326 227T420 194Q510 194 559 200Z" />
<glyph unicode="&#xaa;" glyph-name="ordfeminine" horiz-adv-x="441" d="M84 540L76 594Q179 609 253 609Q312 609 341 584T371 498V273H313L304 333Q241 266 161 266Q116 266 89 289T61 354V392Q61 430 86 451T156 473H298V498Q298 548 238 548Q188 548 84 540ZM132
385V370Q132 347 144 338T184 328Q239 328 298 374V432L179 423Q153 422 143 413T132 385Z" />
<glyph unicode="&#xab;" glyph-name="guillemotleft" horiz-adv-x="491" d="M254 427L132 251L255 72L204 38L43 240V262L203 460L254 427ZM440 427L318 251L441 72L390 38L229 240V262L389 460L440 427Z" />
<glyph unicode="&#xac;" glyph-name="logicalnot" horiz-adv-x="590" d="M513 334V132H440V261H71V334H513Z" />
<glyph unicode="&#xad;" glyph-name="softhyphen" horiz-adv-x="441" d="M373 216H69V290H373V216Z" />
<glyph unicode="&#xae;" glyph-name="registered" horiz-adv-x="548" d="M274 702Q366 702 431 637T496 480Q496 387 431 322T274 257Q181 257 116 322T51 480Q51 572 116 637T274 702ZM196 289T274 289T407 345T463 480T408 614T274 670T141 615T85 480T140 345ZM328
474V472Q357 468 367 434L396 354H349L323 432Q312 458 283 458H218V354H174V608Q209 611 283 611Q339 611 362 595T386 538Q386 481 328 474ZM218 490H282Q316 491 329 500T341 533Q342 559 329 567T282 576H218V490Z" />
<glyph unicode="&#xaf;" glyph-name="overscore" horiz-adv-x="400" d="M341 606H59V677H341V606Z" />
<glyph unicode="&#xb0;" glyph-name="degree" horiz-adv-x="359" d="M180 703Q233 703 272 666T311 576Q311 523 272 485T180 446Q126 446 88 484T49 576Q49 628 87 665T180 703ZM210 645T180 645T130 626T110 576Q110 545 130 525T180 505Q209 505 229 525T250
576Q250 606 230 625Z" />
<glyph unicode="&#xb1;" glyph-name="plusminus" horiz-adv-x="586" d="M514 397V325H329V194H256V325H72V397H256V528H330V397H514ZM72 137H514V65H72V137Z" />
<glyph unicode="&#xb2;" glyph-name="twosuperior" horiz-adv-x="434" d="M67 710L63 767Q138 781 205 781Q287 781 322 762T358 684Q358 621 278 544L156 425Q184 429 223 427H374V360H59V402Q59 422 71 434L194 553Q273 629 276 676Q277 701 259 709T200 717Q135
717 67 710Z" />
<glyph unicode="&#xb3;" glyph-name="threesuperior" horiz-adv-x="415" d="M69 716L65 771Q139 782 201 782Q284 782 316 761T349 686Q349 592 273 581V579Q320 573 339 548T360 475Q362 410 327 381T208 352Q145 352 57 363L61 419Q126 415 189 415Q242 415
262 430T283 485Q283 514 266 530T200 547H115V604H200Q225 604 241 609T264 624T273 644T275 667Q275 698 257 708T189 719Q117 719 69 716Z" />
<glyph unicode="&#xb4;" glyph-name="acute" horiz-adv-x="321" d="M285 652L86 535L54 580L231 726L285 652Z" />
<glyph unicode="&#xb6;" glyph-name="paragraph" horiz-adv-x="593" d="M266 -210V201Q144 212 91 270T37 450Q37 588 107 645T344 702Q437 702 498 685V0H426V636Q406 637 338 640V-210H266Z" />
<glyph unicode="&#xb7;" glyph-name="middot" horiz-adv-x="242" d="M105 320H137Q156 320 164 312T172 285V231Q172 212 164 204T137 196H105Q85 196 77 204T69 231V285Q69 304 77 312T105 320Z" />
<glyph unicode="&#xb8;" glyph-name="cedilla" horiz-adv-x="236" d="M77 -87L87 -42Q153 -36 179 -49T205 -107Q204 -172 155 -206T32 -231L48 -180Q86 -181 110 -163T136 -115Q137 -99 125 -94T77 -87Z" />
<glyph unicode="&#xb9;" glyph-name="onesuperior" horiz-adv-x="296" d="M222 360H147V666Q147 693 150 707L41 679L31 732L147 774H222V360Z" />
<glyph unicode="&#xba;" glyph-name="ordmasculine" horiz-adv-x="443" d="M221 609Q313 609 350 570T387 436T350 303T221 265Q130 265 93 303T56 436T93 570T221 609ZM272 549T221 549T151 525T131 436Q132 371 151 348T221 325Q273 325 292 348T311 436T292 525Z" />
<glyph unicode="&#xbb;" glyph-name="guillemotright" horiz-adv-x="491" d="M262 262V240L102 38L50 72L173 251L51 427L103 460L262 262ZM448 262V240L287 38L236 72L359 251L237 427L288 460L448 262Z" />
<glyph unicode="&#xbc;" glyph-name="onequarter" horiz-adv-x="867" d="M150 276V582Q150 604 154 623L44 595L35 648L150 690H225V276H150ZM648 690L207 0H139L580 690H648ZM827 101L779 95V0H708V94H519Q491 94 478 112T479 162L601 414H674L557 174Q553 166
558 160T574 153H708V268L721 334H779V153H827V101Z" />
<glyph unicode="&#xbd;" glyph-name="onehalf" horiz-adv-x="890" d="M225 276H150V582Q150 604 154 623L44 595L35 648L150 690H225V276ZM200 0H131L572 690H640L200 0ZM535 350L531 407Q606 421 673 421Q754 421 790 402T826 324Q826 263 746 184L623 65Q653
69 690 67H842V0H527V42Q527 62 539 74L662 193Q741 269 744 316Q745 341 727 349T668 357Q603 357 535 350Z" />
<glyph unicode="&#xbe;" glyph-name="threequarters" horiz-adv-x="959" d="M270 495V493Q317 487 336 462T357 389Q358 324 323 295T204 266Q142 266 54 277L58 333Q123 329 186 329Q239 329 259 344T280 398Q280 428 263 444T197 461L112 463V515L197 518Q229
518 246 528T268 550T272 580Q272 611 254 622T186 633Q114 633 66 630L62 685Q129 695 197 695Q281 695 313 675T345 600Q345 554 329 528T270 495ZM749 690L308 0H240L680 690H749ZM919 101L869 95V0H798V94H611Q583 94 570 112T570 162L693 414H766L649 174Q645
166 649 160T665 153H798V268L811 334H869V153H919V101Z" />
<glyph unicode="&#xbf;" glyph-name="questiondown" horiz-adv-x="500" d="M249 501H273Q292 501 300 494T308 466V412Q308 392 301 384T273 376H249Q229 376 221 384T213 412V466Q213 486 221 493T249 501ZM219 289H300Q301 238 286 195T247 124T200 70T159 17T140
-39Q138 -85 167 -107T262 -129Q339 -129 460 -120L465 -189Q458 -190 438 -194T410 -199T386 -203T357 -206T327 -208T288 -210T242 -211Q38 -211 38 -56Q38 -15 56 20T99 81T151 135T197 202T219 289Z" />
<glyph unicode="&#xc0;" glyph-name="Agrave" horiz-adv-x="626" d="M333 726L134 843L188 917L365 771L333 726ZM450 208H175L111 0H9L225 663Q233 690 262 690H364Q394 690 400 663L617 0H514L450 208ZM424 295L343 557Q340 566 335 585T326 613H299L283 557L202
295H424Z" />
<glyph unicode="&#xc1;" glyph-name="Aacute" horiz-adv-x="626" d="M277 726L244 771L421 917L476 843L277 726ZM450 208H175L111 0H9L225 663Q233 690 262 690H364Q394 690 400 663L617 0H514L450 208ZM424 295L343 557Q340 566 335 585T326 613H299L283 557L202
295H424Z" />
<glyph unicode="&#xc2;" glyph-name="Acircumflex" horiz-adv-x="626" d="M179 729L147 770L278 899H348L480 770L446 729L317 825H309L179 729ZM450 208H175L111 0H9L225 663Q233 690 262 690H364Q394 690 400 663L617 0H514L450 208ZM424 295L343 557Q340 566
335 585T326 613H299L283 557L202 295H424Z" />
<glyph unicode="&#xc3;" glyph-name="Atilde" horiz-adv-x="626" d="M197 763H153Q146 823 169 854T231 883Q264 880 310 856T382 829Q409 826 419 837T429 878H473Q480 820 458 789T395 760Q358 763 311 787T242 815Q216 818 207 806T197 763ZM450 208H175L111
0H9L225 663Q233 690 262 690H364Q394 690 400 663L617 0H514L450 208ZM424 295L343 557Q340 566 335 585T326 613H299L283 557L202 295H424Z" />
<glyph unicode="&#xc4;" glyph-name="Adieresis" horiz-adv-x="626" d="M241 765H208Q182 765 182 792V846Q182 872 208 872H241Q266 872 266 846V792Q266 765 241 765ZM418 765H386Q359 765 359 792V846Q359 872 386 872H418Q444 872 444 846V792Q444 765 418
765ZM450 208H175L111 0H9L225 663Q233 690 262 690H364Q394 690 400 663L617 0H514L450 208ZM424 295L343 557Q340 566 335 585T326 613H299L283 557L202 295H424Z" />
<glyph unicode="&#xc5;" glyph-name="Aring" horiz-adv-x="626" d="M313 714Q268 714 236 744T204 820T236 896T313 927T390 896T423 820T391 745T313 714ZM313 879Q289 879 273 863T257 820Q257 794 273 778T313 762Q338 762 354 778T370 820T354 862T313 879ZM450
208H175L111 0H9L225 663Q233 690 262 690H364Q394 690 400 663L617 0H514L450 208ZM424 295L343 557Q340 566 335 585T326 613H299L283 557L202 295H424Z" />
<glyph unicode="&#xc6;" glyph-name="AE" horiz-adv-x="915" d="M861 84L865 6Q770 -2 568 -2Q515 -2 483 33T450 122V216H223L101 0H-4L329 577Q365 643 415 667T565 691Q759 691 865 684L861 605H608Q579 605 562 587T544 538V404H822V322H544V148Q544 114 559
99T608 84H861ZM450 299V552Q450 572 459 592T480 623H471Q443 607 417 562L269 299H450Z" />
<glyph unicode="&#xc7;" glyph-name="Ccedilla" horiz-adv-x="572" d="M527 88L537 12Q454 -12 332 -12Q181 -12 120 68T59 345T120 622T332 702Q440 702 523 682L513 605Q433 613 332 613Q237 613 201 555T164 345T200 135T332 77Q459 77 527 88ZM268 -99L278
-54Q343 -48 370 -61T396 -119Q394 -184 345 -218T223 -243L238 -192Q276 -193 300 -175T327 -127Q328 -111 316 -106T268 -99Z" />
<glyph unicode="&#xc8;" glyph-name="Egrave" horiz-adv-x="562" d="M329 746L130 863L185 937L362 790L329 746ZM508 83L513 6Q422 -2 217 -2Q153 -2 116 31T78 122V568Q79 625 116 658T217 692Q422 692 513 684L508 606H234Q204 606 192 592T179 542V404H470V323H179V147Q179
112 191 98T234 83H508Z" />
<glyph unicode="&#xc9;" glyph-name="Eacute" horiz-adv-x="562" d="M273 746L241 790L418 937L473 863L273 746ZM508 83L513 6Q422 -2 217 -2Q153 -2 116 31T78 122V568Q79 625 116 658T217 692Q422 692 513 684L508 606H234Q204 606 192 592T179 542V404H470V323H179V147Q179
112 191 98T234 83H508Z" />
<glyph unicode="&#xca;" glyph-name="Ecircumflex" horiz-adv-x="562" d="M176 748L144 790L275 919H345L476 790L443 748L314 845H306L176 748ZM508 83L513 6Q422 -2 217 -2Q153 -2 116 31T78 122V568Q79 625 116 658T217 692Q422 692 513 684L508 606H234Q204
606 192 592T179 542V404H470V323H179V147Q179 112 191 98T234 83H508Z" />
<glyph unicode="&#xcb;" glyph-name="Edieresis" horiz-adv-x="562" d="M237 785H205Q179 785 179 811V866Q179 892 205 892H237Q263 892 263 866V811Q263 785 237 785ZM414 785H383Q356 785 356 811V866Q356 892 383 892H414Q441 892 441 866V811Q441 785 414
785ZM508 83L513 6Q422 -2 217 -2Q153 -2 116 31T78 122V568Q79 625 116 658T217 692Q422 692 513 684L508 606H234Q204 606 192 592T179 542V404H470V323H179V147Q179 112 191 98T234 83H508Z" />
<glyph unicode="&#xcc;" glyph-name="Igrave" horiz-adv-x="268" d="M186 771L154 726L-46 843L9 917L186 771ZM184 0H84V690H184V0Z" />
<glyph unicode="&#xcd;" glyph-name="Iacute" horiz-adv-x="268" d="M297 843L98 726L65 771L242 917L297 843ZM184 0H84V690H184V0Z" />
<glyph unicode="&#xce;" glyph-name="Icircumflex" horiz-adv-x="268" d="M301 770L267 729L138 825H130L0 729L-32 770L99 899H169L301 770ZM184 0H84V690H184V0Z" />
<glyph unicode="&#xcf;" glyph-name="Idieresis" horiz-adv-x="268" d="M29 872H62Q87 872 87 846V792Q87 765 62 765H29Q3 765 3 792V846Q3 872 29 872ZM207 872H239Q265 872 265 846V792Q265 765 239 765H207Q180 765 180 792V846Q180 872 207 872ZM184 0H84V690H184V0Z"
/>
<glyph unicode="&#xd0;" glyph-name="Eth" horiz-adv-x="670" d="M89 393V690Q220 699 338 699Q489 699 549 622T610 345T550 69T338 -9Q220 -9 89 0V338H22V393H89ZM188 338V81Q254 78 338 78Q432 78 468 136T505 345T469 554T338 612Q307 612 258 612T188 611V393H334V338H188Z"
/>
<glyph unicode="&#xd1;" glyph-name="Ntilde" horiz-adv-x="708" d="M245 763H201Q194 823 217 854T279 883Q312 880 358 856T431 829Q457 826 467 837T477 878H521Q528 820 506 789T443 760Q406 763 359 787T291 815Q264 818 255 806T245 763ZM624 690V39Q624
0 587 0H492Q462 0 449 31L234 501Q198 579 193 597H179Q184 557 184 501V0H84V651Q84 690 122 690H214Q243 690 258 659L467 201Q471 192 481 172T499 133T515 98H530Q525 158 525 205V690H624Z" />
<glyph unicode="&#xd2;" glyph-name="Ograve" horiz-adv-x="669" d="M385 771L353 726L154 843L209 917L385 771ZM334 703Q488 703 549 625T610 345T549 65T334 -13Q181 -13 120 65T59 345T120 625T334 703ZM431 614T334 614T201 556T164 345T200 134T334 76T468
134T505 345T468 556Z" />
<glyph unicode="&#xd3;" glyph-name="Oacute" horiz-adv-x="669" d="M496 843L297 726L265 771L442 917L496 843ZM334 703Q488 703 549 625T610 345T549 65T334 -13Q181 -13 120 65T59 345T120 625T334 703ZM431 614T334 614T201 556T164 345T200 134T334 76T468
134T505 345T468 556Z" />
<glyph unicode="&#xd4;" glyph-name="Ocircumflex" horiz-adv-x="669" d="M500 770L467 729L337 825H329L200 729L168 770L298 899H369L500 770ZM334 703Q488 703 549 625T610 345T549 65T334 -13Q181 -13 120 65T59 345T120 625T334 703ZM431 614T334 614T201
556T164 345T200 134T334 76T468 134T505 345T468 556Z" />
<glyph unicode="&#xd5;" glyph-name="Otilde" horiz-adv-x="669" d="M217 763H173Q166 823 189 854T252 883Q284 880 330 856T403 829T440 837T450 878H494Q501 820 479 789T415 760Q378 763 331 787T263 815Q236 818 227 806T217 763ZM334 703Q488 703 549 625T610
345T549 65T334 -13Q181 -13 120 65T59 345T120 625T334 703ZM431 614T334 614T201 556T164 345T200 134T334 76T468 134T505 345T468 556Z" />
<glyph unicode="&#xd6;" glyph-name="Odieresis" horiz-adv-x="669" d="M228 872H261Q287 872 287 846V792Q287 765 261 765H228Q203 765 203 792V846Q203 872 228 872ZM406 872H438Q465 872 465 846V792Q465 765 438 765H406Q380 765 380 792V846Q380 872 406
872ZM334 703Q488 703 549 625T610 345T549 65T334 -13Q181 -13 120 65T59 345T120 625T334 703ZM431 614T334 614T201 556T164 345T200 134T334 76T468 134T505 345T468 556Z" />
<glyph unicode="&#xd7;" glyph-name="multiply" horiz-adv-x="484" d="M42 422L399 101L446 158L90 479L42 422Z" />
<glyph unicode="&#xd8;" glyph-name="Oslash" horiz-adv-x="669" d="M543 731L511 662Q564 625 587 550T610 345Q610 143 549 65T334 -13Q255 -13 204 6L173 -59L123 -38L155 31Q104 68 82 143T59 345Q59 547 120 625T334 703Q412 703 462 686L492 751L543 731ZM202
132L421 598Q388 614 334 614Q237 614 201 556T164 345Q164 191 202 132ZM464 562L245 94Q280 76 334 76Q431 76 468 134T505 345Q505 506 464 562Z" />
<glyph unicode="&#xd9;" glyph-name="Ugrave" horiz-adv-x="666" d="M386 771L354 726L154 843L209 917L386 771ZM587 690V266Q587 114 531 51T337 -13Q196 -13 138 50T79 266V690H179V266Q179 160 213 118T333 76Q418 76 452 118T487 266V690H587Z" />
<glyph unicode="&#xda;" glyph-name="Uacute" horiz-adv-x="666" d="M497 843L298 726L265 771L442 917L497 843ZM587 690V266Q587 114 531 51T337 -13Q196 -13 138 50T79 266V690H179V266Q179 160 213 118T333 76Q418 76 452 118T487 266V690H587Z" />
<glyph unicode="&#xdb;" glyph-name="Ucircumflex" horiz-adv-x="666" d="M501 770L467 729L338 825H330L200 729L168 770L299 899H369L501 770ZM587 690V266Q587 114 531 51T337 -13Q196 -13 138 50T79 266V690H179V266Q179 160 213 118T333 76Q418 76 452 118T487
266V690H587Z" />
<glyph unicode="&#xdc;" glyph-name="Udieresis" horiz-adv-x="666" d="M229 872H261Q287 872 287 846V792Q287 765 261 765H229Q203 765 203 792V846Q203 872 229 872ZM407 872H438Q465 872 465 846V792Q465 765 438 765H407Q380 765 380 792V846Q380 872 407
872ZM587 690V266Q587 114 531 51T337 -13Q196 -13 138 50T79 266V690H179V266Q179 160 213 118T333 76Q418 76 452 118T487 266V690H587Z" />
<glyph unicode="&#xdd;" glyph-name="Yacute" horiz-adv-x="574" d="M250 726L218 771L395 917L449 843L250 726ZM337 239V0H237V240L9 690H115L254 407Q262 390 284 327H291Q312 389 321 406L460 690H564L337 239Z" />
<glyph unicode="&#xde;" glyph-name="Thorn" horiz-adv-x="594" d="M184 690V568Q222 570 325 570Q453 570 501 524T550 348Q550 220 504 174T336 128Q270 128 184 136V0H84V561V690H184ZM184 214H322Q396 215 422 242T449 348Q449 429 422 456T322 484Q222 484
184 483V214Z" />
<glyph unicode="&#xdf;" glyph-name="germandbls" horiz-adv-x="680" d="M461 305L560 258Q607 235 626 207T645 127Q645 46 603 18T465 -11Q393 -11 306 0L312 73Q373 68 445 68Q507 69 529 80T551 132Q551 147 548 156T534 175T516 188T486 203L385 251Q304
290 304 365Q304 380 306 393T317 417T330 436T350 454T370 469T396 484T421 499Q456 522 469 539T482 584Q482 615 455 629T348 644Q267 644 239 622T211 534V0H114V412H26V488H114V545Q114 653 168 688T344 723Q470 723 521 694T573 586Q573 546 556 517T489
455Q476 446 452 432T419 412T404 395T396 368Q396 346 410 335T461 305Z" />
<glyph unicode="&#xe0;" glyph-name="agrave" horiz-adv-x="551" d="M289 547L90 664L144 738L321 591L289 547ZM79 407L70 478Q202 501 307 501Q396 501 438 465T480 340V0H404L393 77Q309 -9 198 -9Q130 -9 90 27T49 129V180Q49 238 85 270T187 302H383V340Q382
385 362 402T286 419Q231 419 79 407ZM147 167V141Q147 105 164 89T218 73Q305 73 383 141V229H205Q173 228 160 213T147 167Z" />
<glyph unicode="&#xe1;" glyph-name="aacute" horiz-adv-x="551" d="M233 547L201 591L378 738L432 664L233 547ZM79 407L70 478Q202 501 307 501Q396 501 438 465T480 340V0H404L393 77Q309 -9 198 -9Q130 -9 90 27T49 129V180Q49 238 85 270T187 302H383V340Q382
385 362 402T286 419Q231 419 79 407ZM147 167V141Q147 105 164 89T218 73Q305 73 383 141V229H205Q173 228 160 213T147 167Z" />
<glyph unicode="&#xe2;" glyph-name="acircumflex" horiz-adv-x="551" d="M135 549L103 591L234 720H304L436 591L402 549L273 646H265L135 549ZM79 407L70 478Q202 501 307 501Q396 501 438 465T480 340V0H404L393 77Q309 -9 198 -9Q130 -9 90 27T49 129V180Q49
238 85 270T187 302H383V340Q382 385 362 402T286 419Q231 419 79 407ZM147 167V141Q147 105 164 89T218 73Q305 73 383 141V229H205Q173 228 160 213T147 167Z" />
<glyph unicode="&#xe3;" glyph-name="atilde" horiz-adv-x="551" d="M153 584H109Q102 643 125 674T187 703Q220 700 266 677T339 650Q365 646 375 658T385 698H429Q436 640 414 609T351 581Q314 584 267 608T199 636Q172 639 163 627T153 584ZM79 407L70 478Q202
501 307 501Q396 501 438 465T480 340V0H404L393 77Q309 -9 198 -9Q130 -9 90 27T49 129V180Q49 238 85 270T187 302H383V340Q382 385 362 402T286 419Q231 419 79 407ZM147 167V141Q147 105 164 89T218 73Q305 73 383 141V229H205Q173 228 160 213T147 167Z" />
<glyph unicode="&#xe4;" glyph-name="adieresis" horiz-adv-x="551" d="M197 585H164Q139 585 139 612V666Q139 693 164 693H197Q223 693 223 666V612Q223 585 197 585ZM374 585H342Q316 585 316 612V666Q316 693 342 693H374Q401 693 401 666V612Q401 585 374
585ZM79 407L70 478Q202 501 307 501Q396 501 438 465T480 340V0H404L393 77Q309 -9 198 -9Q130 -9 90 27T49 129V180Q49 238 85 270T187 302H383V340Q382 385 362 402T286 419Q231 419 79 407ZM147 167V141Q147 105 164 89T218 73Q305 73 383 141V229H205Q173
228 160 213T147 167Z" />
<glyph unicode="&#xe5;" glyph-name="aring" horiz-adv-x="551" d="M270 534Q224 534 193 564T161 641Q161 686 193 717T270 748T347 717T379 641T347 565T270 534ZM270 699Q245 699 229 684T213 641Q213 615 229 599T270 583Q294 583 310 599T326 641T310 683T270
699ZM79 407L70 478Q202 501 307 501Q396 501 438 465T480 340V0H404L393 77Q309 -9 198 -9Q130 -9 90 27T49 129V180Q49 238 85 270T187 302H383V340Q382 385 362 402T286 419Q231 419 79 407ZM147 167V141Q147 105 164 89T218 73Q305 73 383 141V229H205Q173
228 160 213T147 167Z" />
<glyph unicode="&#xe6;" glyph-name="ae" horiz-adv-x="870" d="M699 197H485Q491 121 523 95T630 69Q697 69 801 81L810 17Q745 -12 618 -12Q533 -12 483 12T407 91Q375 53 320 22T198 -9Q130 -9 90 27T49 129V180Q49 238 85 270T187 302H383V340Q383 385 363
402T286 419Q231 419 79 407L70 478Q202 501 307 501Q407 501 447 456Q499 501 609 501Q720 501 771 460T822 337Q824 197 699 197ZM483 272H672Q725 272 725 337Q725 381 700 400T613 419Q541 419 513 389T483 272ZM147 167V141Q147 105 164 89T218 73Q256 73
303 91T390 147Q383 187 382 229H205Q173 228 160 213T147 167Z" />
<glyph unicode="&#xe7;" glyph-name="ccedilla" horiz-adv-x="491" d="M446 80L455 15Q381 -12 285 -12Q157 -12 105 45T52 244T104 443T285 501Q383 501 447 476L434 414Q359 419 302 419Q218 419 186 382T153 244T185 106T302 69Q384 69 446 80ZM221 -99L231
-54Q296 -48 323 -61T349 -119Q347 -184 298 -218T176 -243L191 -192Q229 -193 253 -175T280 -127Q281 -111 269 -106T221 -99Z" />
<glyph unicode="&#xe8;" glyph-name="egrave" horiz-adv-x="539" d="M300 547L101 664L155 738L332 591L300 547ZM373 197H154Q161 121 193 95T300 69Q365 69 471 81L480 17Q414 -12 287 -12Q159 -12 106 46T52 245Q52 387 104 444T278 501Q390 501 441 460T492
337Q492 197 373 197ZM153 272H347Q395 272 395 337Q394 382 370 400T283 419Q211 419 183 389T153 272Z" />
<glyph unicode="&#xe9;" glyph-name="eacute" horiz-adv-x="539" d="M244 547L212 591L388 738L443 664L244 547ZM373 197H154Q161 121 193 95T300 69Q365 69 471 81L480 17Q414 -12 287 -12Q159 -12 106 46T52 245Q52 387 104 444T278 501Q390 501 441 460T492
337Q492 197 373 197ZM153 272H347Q395 272 395 337Q394 382 370 400T283 419Q211 419 183 389T153 272Z" />
<glyph unicode="&#xea;" glyph-name="ecircumflex" horiz-adv-x="539" d="M146 549L114 591L245 720H315L447 591L413 549L284 646H276L146 549ZM373 197H154Q161 121 193 95T300 69Q365 69 471 81L480 17Q414 -12 287 -12Q159 -12 106 46T52 245Q52 387 104 444T278
501Q390 501 441 460T492 337Q492 197 373 197ZM153 272H347Q395 272 395 337Q394 382 370 400T283 419Q211 419 183 389T153 272Z" />
<glyph unicode="&#xeb;" glyph-name="edieresis" horiz-adv-x="539" d="M208 585H175Q150 585 150 612V666Q150 693 175 693H208Q234 693 234 666V612Q234 585 208 585ZM385 585H353Q327 585 327 612V666Q327 693 353 693H385Q411 693 411 666V612Q411 585 385
585ZM373 197H154Q161 121 193 95T300 69Q365 69 471 81L480 17Q414 -12 287 -12Q159 -12 106 46T52 245Q52 387 104 444T278 501Q390 501 441 460T492 337Q492 197 373 197ZM153 272H347Q395 272 395 337Q394 382 370 400T283 419Q211 419 183 389T153 272Z" />
<glyph unicode="&#xec;" glyph-name="igrave" horiz-adv-x="255" d="M180 591L148 547L-52 664L3 738L180 591ZM176 0H79V488H176V0Z" />
<glyph unicode="&#xed;" glyph-name="iacute" horiz-adv-x="255" d="M291 664L92 547L59 591L236 738L291 664ZM176 0H79V488H176V0Z" />
<glyph unicode="&#xee;" glyph-name="icircumflex" horiz-adv-x="255" d="M295 591L261 549L132 646H124L-6 549L-38 591L93 720H163L295 591ZM176 0H79V488H176V0Z" />
<glyph unicode="&#xef;" glyph-name="idieresis" horiz-adv-x="255" d="M23 693H56Q81 693 81 666V612Q81 585 56 585H23Q-3 585 -3 612V666Q-3 693 23 693ZM201 693H233Q259 693 259 666V612Q259 585 233 585H201Q174 585 174 612V666Q174 693 201 693ZM176 0H79V488H176V0Z"
/>
<glyph unicode="&#xf0;" glyph-name="eth" horiz-adv-x="561" d="M447 671L382 621Q501 515 501 283Q501 136 453 62T276 -13Q161 -13 107 42T53 218Q53 334 100 391T258 449Q333 449 389 416Q371 515 315 569L240 510L206 552L269 602Q209 631 119 628L130 698Q248
704 336 654L412 715L447 671ZM277 68Q353 68 376 118T400 288Q400 329 398 348Q344 367 274 367Q208 367 181 331T154 219Q154 136 182 102T277 68Z" />
<glyph unicode="&#xf1;" glyph-name="ntilde" horiz-adv-x="583" d="M182 584H138Q131 644 153 675T216 703Q249 700 295 677T367 650Q394 646 404 658T414 698H458Q465 640 443 609T380 581Q343 584 296 608T227 636Q201 639 192 627T182 584ZM157 488L163 413Q278
501 379 501Q444 501 477 467T511 366V0H414V338Q414 384 401 401T352 419Q314 419 276 402T172 346V0H75V488H157Z" />
<glyph unicode="&#xf2;" glyph-name="ograve" horiz-adv-x="570" d="M336 591L304 547L104 664L159 738L336 591ZM158 501T285 501T465 442T518 243T465 45T285 -13T105 45T52 243T105 442ZM361 419T285 419T181 382T153 243Q153 142 181 105T285 68T389 105T417
243Q417 345 389 382Z" />
<glyph unicode="&#xf3;" glyph-name="oacute" horiz-adv-x="570" d="M447 664L248 547L215 591L392 738L447 664ZM158 501T285 501T465 442T518 243T465 45T285 -13T105 45T52 243T105 442ZM361 419T285 419T181 382T153 243Q153 142 181 105T285 68T389 105T417
243Q417 345 389 382Z" />
<glyph unicode="&#xf4;" glyph-name="ocircumflex" horiz-adv-x="570" d="M451 591L417 549L288 646H280L150 549L118 591L249 720H319L451 591ZM158 501T285 501T465 442T518 243T465 45T285 -13T105 45T52 243T105 442ZM361 419T285 419T181 382T153 243Q153
142 181 105T285 68T389 105T417 243Q417 345 389 382Z" />
<glyph unicode="&#xf5;" glyph-name="otilde" horiz-adv-x="570" d="M168 584H124Q117 644 139 675T202 703Q235 700 281 677T353 650Q380 646 390 658T400 698H444Q451 640 429 609T366 581Q329 584 282 608T213 636Q187 639 178 627T168 584ZM158 501T285 501T465
442T518 243T465 45T285 -13T105 45T52 243T105 442ZM361 419T285 419T181 382T153 243Q153 142 181 105T285 68T389 105T417 243Q417 345 389 382Z" />
<glyph unicode="&#xf6;" glyph-name="odieresis" horiz-adv-x="570" d="M179 693H212Q237 693 237 666V612Q237 585 212 585H179Q153 585 153 612V666Q153 693 179 693ZM357 693H389Q415 693 415 666V612Q415 585 389 585H357Q330 585 330 612V666Q330 693 357
693ZM158 501T285 501T465 442T518 243T465 45T285 -13T105 45T52 243T105 442ZM361 419T285 419T181 382T153 243Q153 142 181 105T285 68T389 105T417 243Q417 345 389 382Z" />
<glyph unicode="&#xf7;" glyph-name="divide" horiz-adv-x="567" d="M270 529H295Q315 529 322 521T330 493V447Q330 428 323 421T295 413H270Q250 413 243 420T235 447V493Q235 513 242 521T270 529ZM505 259H62V331H505V259ZM270 176H295Q315 176 322 168T330
140V95Q330 75 323 68T295 60H270Q250 60 243 67T235 95V140Q235 160 242 168T270 176Z" />
<glyph unicode="&#xf8;" glyph-name="oslash" horiz-adv-x="570" d="M448 543L418 477Q471 452 494 396T518 243Q518 103 465 45T285 -13Q233 -13 194 -4L159 -78L116 -57L148 13Q98 38 75 94T52 243Q52 383 105 442T285 501Q332 501 372 493L405 564L448 543ZM188
98L335 415Q316 419 285 419Q209 419 181 382T153 243Q153 133 188 98ZM379 394L230 74Q253 68 285 68Q361 68 389 105T417 243Q417 359 379 394Z" />
<glyph unicode="&#xf9;" glyph-name="ugrave" horiz-adv-x="572" d="M308 551L109 668L164 742L340 596L308 551ZM497 488V0H420L413 67Q306 -13 205 -13Q72 -13 72 122V488H169V150Q168 105 184 88T239 70Q296 70 401 135V488H497Z" />
<glyph unicode="&#xfa;" glyph-name="uacute" horiz-adv-x="572" d="M252 551L220 596L397 742L451 668L252 551ZM497 488V0H420L413 67Q306 -13 205 -13Q72 -13 72 122V488H169V150Q168 105 184 88T239 70Q296 70 401 135V488H497Z" />
<glyph unicode="&#xfb;" glyph-name="ucircumflex" horiz-adv-x="572" d="M155 554L122 595L253 724H323L455 595L422 554L292 650H284L155 554ZM497 488V0H420L413 67Q306 -13 205 -13Q72 -13 72 122V488H169V150Q168 105 184 88T239 70Q296 70 401 135V488H497Z" />
<glyph unicode="&#xfc;" glyph-name="udieresis" horiz-adv-x="572" d="M216 590H183Q158 590 158 617V671Q158 697 183 697H216Q242 697 242 671V617Q242 590 216 590ZM393 590H361Q335 590 335 617V671Q335 697 361 697H393Q420 697 420 671V617Q420 590 393
590ZM497 488V0H420L413 67Q306 -13 205 -13Q72 -13 72 122V488H169V150Q168 105 184 88T239 70Q296 70 401 135V488H497Z" />
<glyph unicode="&#xfd;" glyph-name="yacute" horiz-adv-x="533" d="M232 547L200 591L377 738L432 664L232 547ZM516 488L327 -23Q259 -203 103 -205L93 -141Q150 -124 183 -94T236 -18L243 0H223Q195 0 189 25L16 488H120L241 133Q253 102 258 73H272Q282 100
292 133L412 488H516Z" />
<glyph unicode="&#xfe;" glyph-name="thorn" horiz-adv-x="576" d="M172 700V537Q172 469 168 435Q251 500 346 500T481 439T522 240Q522 100 480 44T343 -13Q250 -13 169 29Q172 -1 172 -62V-199H75V700H172ZM172 355V101Q258 67 311 67Q373 67 397 104T422 241Q422
342 398 380T315 418Q258 418 172 355Z" />
<glyph unicode="&#xff;" glyph-name="ydieresis" horiz-adv-x="533" d="M196 585H164Q138 585 138 612V666Q138 693 164 693H196Q222 693 222 666V612Q222 585 196 585ZM373 585H342Q315 585 315 612V666Q315 693 342 693H373Q400 693 400 666V612Q400 585 373
585ZM516 488L327 -23Q259 -203 103 -205L93 -141Q150 -124 183 -94T236 -18L243 0H223Q195 0 189 25L16 488H120L241 133Q253 102 258 73H272Q282 100 292 133L412 488H516Z" />
<glyph unicode="&#x2013;" glyph-name="endash" horiz-adv-x="586" d="M517 216H69V290H517V216Z" />
<glyph unicode="&#x2014;" glyph-name="emdash" horiz-adv-x="889" d="M819 216H69V290H819V216Z" />
<glyph unicode="&#x2018;" glyph-name="quoteleft" horiz-adv-x="221" d="M124 491H96Q77 491 70 498T62 524V582Q63 665 100 729L145 717Q135 664 135 605Q163 605 161 577V524Q160 505 152 498T124 491Z" />
<glyph unicode="&#x2019;" glyph-name="quoteright" horiz-adv-x="218" d="M95 722H123Q143 722 150 715T158 690V631Q157 552 120 484L74 496Q85 548 85 608Q58 608 58 636V690Q59 708 67 715T95 722Z" />
<glyph unicode="&#x201a;" glyph-name="quotesinglbase" horiz-adv-x="232" d="M103 115H131Q151 115 158 108T166 83V24Q165 -56 128 -123L82 -111Q93 -51 93 1Q66 1 66 29V83Q67 115 103 115Z" />
<glyph unicode="&#x201c;" glyph-name="quotedblleft" horiz-adv-x="381" d="M124 491H96Q77 491 70 498T62 524V582Q63 665 100 729L145 717Q135 664 135 605Q163 605 161 577V524Q160 505 152 498T124 491ZM284 491H256Q237 491 230 498T222 524V582Q223 662
260 729L306 717Q295 666 295 605Q323 605 321 577V524Q320 505 312 498T284 491Z" />
<glyph unicode="&#x201d;" glyph-name="quotedblright" horiz-adv-x="378" d="M95 722H123Q143 722 150 715T158 690V631Q157 552 120 484L74 496Q85 548 85 608Q58 608 58 636V690Q59 708 67 715T95 722ZM255 722H284Q303 722 310 715T318 690V631Q317 552 280
484L234 496Q245 548 245 608Q218 608 218 636V690Q219 708 227 715T255 722Z" />
<glyph unicode="&#x201e;" glyph-name="quotedblbase" horiz-adv-x="392" d="M103 115H131Q151 115 158 108T166 83V24Q165 -56 128 -123L82 -111Q93 -51 93 1Q66 1 66 29V83Q67 101 75 108T103 115ZM263 115H291Q311 115 318 108T326 83V24Q325 -56 288 -123L242
-111Q253 -51 253 1Q226 1 226 29V83Q227 101 235 108T263 115Z" />
<glyph unicode="&#x2022;" glyph-name="bullet" horiz-adv-x="365" d="M178 362H191Q239 362 258 343T277 276V263Q277 212 258 193T191 173H178Q127 173 108 192T88 263V276Q88 324 107 343T178 362Z" />
<glyph unicode="&#x2039;" glyph-name="guilsinglleft" horiz-adv-x="296" d="M250 427L128 251L251 72L200 38L39 240V262L199 460L250 427Z" />
<glyph unicode="&#x203a;" glyph-name="guilsinglright" horiz-adv-x="298" d="M258 262V240L97 38L45 72L168 251L46 427L98 460L258 262Z" />
</font>
</defs>
</svg>
