<?xml version="1.0" encoding="utf-8"?>
<!-- Generator: Adobe Illustrator 17.1.0, SVG Export Plug-In . SVG Version: 6.00 Build 0)  -->
<!DOCTYPE svg PUBLIC "-//W3C//DTD SVG 1.1//EN" "http://www.w3.org/Graphics/SVG/1.1/DTD/svg11.dtd">
<svg version="1.1" id="Layer_1" xmlns="http://www.w3.org/2000/svg" xmlns:xlink="http://www.w3.org/1999/xlink" x="0px" y="0px"
	 width="26.9px" height="21px" viewBox="0 0 26.9 21" enable-background="new 0 0 26.9 21" xml:space="preserve">
<g>
	<g>
		<path fill="#FFFFFF" d="M12.5,17.3c-1.1,0-1.9,0.8-1.9,1.9c0,1,0.9,1.9,1.9,1.9c1.1,0,1.9-0.8,1.9-1.9
			C14.4,18.1,13.6,17.3,12.5,17.3z M21.7,17.3c-1.1,0-1.9,0.8-1.9,1.9c0,1,0.9,1.9,1.9,1.9c1.1,0,1.9-0.8,1.9-1.9
			C23.6,18.1,22.8,17.3,21.7,17.3z M24,13.9H10.6L6,0.6C5.8,0.3,5.5,0,5.1,0H1C0.4,0,0,0.4,0,0.9c0,0.5,0.4,0.9,1,0.9h3.4L9,15.2
			c0.1,0.4,0.5,0.6,0.9,0.6H24c0.5,0,1-0.4,1-0.9C25,14.3,24.5,13.9,24,13.9z M26.1,3.6L9.5,2.2c0,0-0.1,0-0.1,0
			C8.9,2.2,8.7,2.5,8.8,3l2.9,8.3c0.2,0.5,0.8,0.9,1.3,0.9h12.1c0.5,0,1-0.4,1.1-0.9l0.7-6.7C27,4.1,26.6,3.6,26.1,3.6z M24.3,10.3
			H13.4l-2.1-6.1l13.6,1.1L24.3,10.3z"/>
	</g>
</g>
</svg>
