<svg xmlns="http://www.w3.org/2000/svg" width="24" height="24" viewBox="0 0 24 24"><path fill="#fff" d="M12 0c-6.627 0-12 5.373-12 12 0 4.912 2.954 9.134 7.183 10.99-.034-.837-.006-1.844.208-2.755.231-.975 1.544-6.539 1.544-6.539s-.384-.767-.384-1.899c0-1.777 1.031-3.106 2.315-3.106 1.092 0 1.619.819 1.619 1.801 0 1.097-.7 2.738-1.06 4.259-.3 1.271.639 2.311 1.894 2.311 2.274 0 3.805-2.92 3.805-6.38 0-2.629-1.771-4.598-4.992-4.598-3.642 0-5.908 2.713-5.908 5.746 0 1.047.309 1.783.79 2.354.223.263.254.367.173.668l-.244.963c-.081.305-.327.414-.601.3-1.676-.683-2.457-2.52-2.457-4.583 0-3.409 2.875-7.496 8.576-7.496 4.582 0 7.596 3.315 7.596 6.875 0 4.708-2.616 8.225-6.475 8.225-1.295 0-2.514-.702-2.931-1.497 0 0-.697 2.765-.845 3.3-.253.924-.752 1.85-1.207 2.57 1.08.316 2.219.491 3.401.491 6.626 0 12-5.373 12-12s-5.374-12-12-12z"/></svg>