<svg xmlns="http://www.w3.org/2000/svg" width="24" height="24" viewBox="0 0 24 24"><path fill="#fff" d="M12 0c-6.627 0-12 5.373-12 12s5.373 12 12 12 12-5.373 12-12-5.373-12-12-12zm-3.68 17.293h-2.763v-8.88h2.763v8.88zm-1.38-10.093c-.887 0-1.603-.718-1.603-1.601.001-.882.717-1.599 1.603-1.599.883 0 1.601.717 1.601 1.599s-.718 1.601-1.601 1.601zm11.722 10.093h-2.759v-4.318c0-1.03-.021-2.354-1.436-2.354-1.438 0-1.656 1.121-1.656 2.279v4.393h-2.759v-8.88h2.648v1.214h.039c.367-.699 1.268-1.434 2.612-1.434 2.793 0 3.311 1.839 3.311 4.23v4.87z"/></svg>