<svg xmlns="http://www.w3.org/2000/svg" width="24" height="24" viewBox="0 0 24 24"><path fill="#fff" d="M12 0c-6.627 0-12 5.373-12 12s5.373 12 12 12 12-5.373 12-12-5.373-12-12-12zm5.958 8.943l.009.398c0 4.063-3.093 8.747-8.747 8.747-1.736 0-3.354-.509-4.713-1.382.24.029.484.044.733.044 1.44 0 2.766-.491 3.818-1.316-1.345-.024-2.48-.914-2.872-2.136.188.036.38.055.579.055.279 0 .551-.036.809-.107-1.406-.282-2.465-1.524-2.465-3.015v-.038c.414.23.888.368 1.392.384-.825-.551-1.367-1.492-1.367-2.559 0-.563.151-1.091.416-1.546 1.517 1.861 3.782 3.084 6.337 3.212-.052-.224-.08-.46-.08-.7 0-1.699 1.378-3.074 3.074-3.074.885 0 1.685.372 2.244.97.701-.138 1.358-.395 1.953-.746-.229.718-.717 1.32-1.353 1.701.623-.074 1.215-.24 1.768-.484-.413.618-.934 1.159-1.535 1.592z"/></svg>