<svg xmlns="http://www.w3.org/2000/svg" width="346.436" height="103.244" viewBox="0 0 346.436 103.244"><g fill="#fff"><path d="M193.204 16.256c17.789 0 33.156 10.529 40.223 25.679h4.115c-7.307-17.279-24.43-29.434-44.338-29.434-6.977 0-13.607 1.505-19.601 4.191 1.347.751 2.655 1.564 3.923 2.431 4.877-1.849 10.16-2.867 15.678-2.867"/><path d="M152.989 41.935c3.541-7.584 9.155-14.013 16.121-18.538-1.273-.68-2.578-1.306-3.923-1.857-7.146 5.139-12.818 12.193-16.293 20.395h4.095zM236.445 65.11c0-6.145-4.404-10.736-10.441-10.736-5.996 0-10.396 4.592-10.396 10.736 0 6.15 4.4 10.744 10.396 10.744 6.037 0 10.441-4.594 10.441-10.744m-23.683 0c0-7.775 5.924-13.205 13.242-13.205 7.363 0 13.281 5.43 13.281 13.205 0 7.782-5.918 13.205-13.281 13.205-7.318 0-13.242-5.423-13.242-13.205"/><path d="M248.057 54.639h-7.93v-2.427h18.59v2.427h-7.926v23.374h-2.734v-23.374zM262.551 52.211h2.738v14.534h13.811v-14.534h2.732v25.804h-2.732v-8.766h-13.811v8.766h-2.738v-25.804zM287.94 52.211h15.711v2.429h-12.976v12.105h11.572v2.393h-11.572v6.447h13.508v2.43h-16.243v-25.804zM328.247 73.081l2.273-1.214c1.213 2.165 3 4.021 6.641 4.021 2.998 0 5.354-1.67 5.354-4.401 0-2.618-1.633-3.945-4.857-5.388l-2.051-.951c-3.678-1.665-5.689-3.45-5.689-7.054 0-3.72 2.92-6.188 6.793-6.188 3.449 0 5.613 1.598 6.982 3.875l-2.199 1.365c-.992-1.594-2.355-2.809-4.783-2.809-2.545 0-4.102 1.479-4.102 3.68 0 2.275 1.219 3.301 4.102 4.631l2.047.946c4.291 1.899 6.49 4.024 6.49 7.893 0 4.253-3.379 6.829-8.01 6.829-4.933 0-7.626-2.5-8.991-5.235M314.563 68.813h-2.922v-14.163h2.922c5.809 0 8.01 3.039 8.01 7.098 0 4.062-2.166 7.065-8.01 7.065m25.256 16.851l-.053.004-.461.107c-.736.158-1.473.24-2.213.24-1.172 0-2.305-.197-3.404-.586-1.094-.391-2.125-.91-3.084-1.553-.963-.646-1.859-1.39-2.682-2.23-.826-.84-1.566-1.713-2.232-2.615-1.256-1.77-2.396-3.446-3.398-5.023-.99-1.548-1.764-2.836-2.33-3.879l.066-.031c3.572-1.437 5.395-4.477 5.395-8.35 0-5.58-3.646-9.527-10.709-9.527h-5.805v25.818h2.732v-6.837h3.072c.914 0 1.863-.072 2.734-.226l.236-.055.205.375c.406.709.832 1.436 1.283 2.182.453.755.891 1.484 1.307 2.189.42.704 1.068 1.629 1.373 2.111 1.051 1.624 2.166 2.814 3.143 3.955.977 1.145 2.004 2.072 3.084 2.795 1.08.721 2.268 1.252 3.559 1.601 1.293.344 2.797.515 4.508.515 1.191 0 2.309-.154 3.355-.466.193-.062.363-.156.395-.272.042-.143-.013-.227-.076-.242"/><path d="M67.302 74.485c3.11 0 4.591-1.822 4.591-4.405 0-2.576-1.592-4.398-4.78-4.398h-5.615v8.804h5.804zm-.642-12.217c2.387 0 3.526-1.327 3.526-3.264 0-1.938-1.099-3.266-3.604-3.266h-5.084v6.529h5.162zm-9.183-10.056h9.369c4.82 0 7.288 2.922 7.288 6.488 0 2.464-1.252 4.213-3.491 4.969 3.453.797 5.271 3.266 5.271 6.567 0 4.438-2.958 7.777-8.381 7.777h-10.056v-25.801zM89.463 74.485c3.114 0 4.595-1.822 4.595-4.405 0-2.576-1.597-4.398-4.784-4.398h-5.614v8.804h5.803zm-.642-12.217c2.389 0 3.528-1.327 3.528-3.264 0-1.938-1.097-3.266-3.605-3.266h-5.084v6.529h5.161zm-9.185-10.056h9.375c4.816 0 7.284 2.922 7.284 6.488 0 2.464-1.252 4.213-3.491 4.969 3.454.797 5.274 3.266 5.274 6.567 0 4.438-2.956 7.777-8.382 7.777h-10.06v-25.801zM101.952 52.21h3.984v25.805h-3.984v-25.805zM117.207 62.95c-1.025-1.1-2.43-2.886-2.43-2.886s.269 2.128.269 3.72v14.23h-3.721v-26.072h.533l14.23 15.293c.986 1.064 2.39 2.885 2.39 2.885s-.267-2.277-.267-3.715v-14.195h3.719v26.07h-.493l-14.23-15.33zM134.895 73.002l3.3-1.819c1.212 2.014 2.769 3.607 5.917 3.607 2.62 0 4.476-1.403 4.476-3.529 0-2.24-1.518-3.225-4.321-4.478l-1.711-.758c-3.756-1.673-6.031-3.568-6.031-7.552 0-3.833 2.96-6.569 7.248-6.569 3.412 0 5.729 1.295 7.285 4.063l-3.148 1.936c-.988-1.707-2.125-2.506-4.136-2.506-2.05 0-3.34 1.253-3.34 3 0 1.934 1.102 2.806 3.72 3.944l1.667.761c4.404 1.936 6.757 3.984 6.757 8.119 0 4.517-3.532 7.137-8.387 7.137-4.896 0-7.856-2.431-9.296-5.356M49.513 65.087c0-5.571-3.693-9.703-9.204-9.703-5.569 0-9.326 4.132-9.326 9.703s3.757 9.7 9.326 9.7c5.511 0 9.204-4.129 9.204-9.7m-22.973 0c0-7.576 6.01-13.522 13.77-13.522 7.703 0 13.65 5.946 13.65 13.522 0 7.575-5.947 13.457-13.65 13.457-7.76 0-13.77-5.882-13.77-13.457M8.16 63.467h-3.809v-19.213h3.809c9.012 0 10.905 5.239 10.905 9.634 0 6.266-3.773 9.579-10.905 9.579m37.034 25.835l-.829.174c-1.175.252-2.353.383-3.536.383-1.874 0-3.687-.317-5.441-.938-1.752-.625-3.4-1.45-4.935-2.485-1.536-1.032-2.966-2.222-4.291-3.565-1.315-1.344-2.506-2.735-3.562-4.178-2.016-2.83-3.833-5.513-5.44-8.035-1.059-1.66-1.95-3.115-2.708-4.412l1.745-.586c4.762-2.053 7.379-6.221 7.379-11.771 0-8.492-5.684-13.564-15.205-13.564h-8.371v38.236h4.351v-11.216h4.02c.765 0 1.534-.045 2.279-.117.49.85.994 1.703 1.524 2.587.726 1.201 1.418 2.368 2.09 3.496.672 1.128 1.714 2.608 2.195 3.376 1.68 2.596 3.46 4.5 5.023 6.329 1.562 1.826 3.208 3.31 4.937 4.468 1.725 1.15 3.628 2.001 5.69 2.559 2.067.549 4.469.825 7.208.825 1.906 0 3.695-.251 5.366-.747.306-.098.585-.247.634-.438.059-.227-.026-.399-.123-.381M167.22 57.878h9.244c4.111 0 6.107-1.998 6.107-6.107 0-4.052-2.359-6.106-7.018-6.106h-8.334v12.213zm0 17.924h9.803c6.971 0 8.436-4.201 8.436-7.727 0-4.984-3.014-7.727-8.486-7.727h-9.752v15.454zm10.056 2.469h-12.779v-35.073h11.258c5.973 0 9.541 3.205 9.541 8.574 0 3.43-1.242 5.837-3.604 7.029 3.973 1.318 6.488 4.866 6.488 9.275.001 6.382-4.077 10.195-10.904 10.195"/><path d="M198.221 68.805c5.846 0 8.008-2.998 8.008-7.059s-2.199-7.094-8.008-7.094h-2.918v14.152h2.918zm11.084 9.22h-3.225l-4.971-7.056c-.873.15-1.824.226-2.734.226h-3.072v6.83h-2.732v-25.804h5.805c7.061 0 10.703 3.947 10.703 9.525 0 3.869-1.826 6.906-5.391 8.344l5.617 7.935zM149.288 19.517l-12.658-15.469h25.316l-12.658 15.469zm10.036-5.929l8.247-9.54-5.787-4.047h-25.008l-5.783 4.047 8.217 9.517c-15.508 3.293-28.283 14.078-34.332 28.378h4.115c6.098-13.074 18.385-22.69 33.07-25.083l7.225 8.352 7.191-8.329c14.635 2.424 26.876 12.021 32.956 25.06h4.115c-6.032-14.268-18.765-25.034-34.226-28.355"/><path d="M284.26 86.66h-1.23v-.776h3.34v.776h-1.229v3.525h-.881v-3.525zM287.024 85.837h.07l2.119 2.329 2.088-2.329h.078v4.349h-.857v-1.616c0-.289.031-.753.031-.753s-.258.381-.461.607l-.855.955h-.082l-.852-.955c-.205-.227-.461-.607-.461-.607s.031.464.031.753v1.616h-.85v-4.349zM62.455 98.831c-.913 0-2.444-.379-2.444-2.92v-4.586h-1.321v-1.528h1.321v-4.454h1.734v4.454h2.393v1.528h-2.393v4.607c0 1.17.431 1.328.854 1.328.515 0 .79-.215 1.048-.453l.119-.11.981 1.138-.096.102c-.388.408-1.08.894-2.196.894"/><path d="M74.531 98.645h-1.755v-5.188c0-1.469-.663-2.215-1.969-2.215-1.542 0-2.501.975-2.501 2.545v4.858h-1.756v-15.199h1.756v7.598c.637-.907 1.674-1.433 2.873-1.433 2.037 0 3.353 1.446 3.353 3.683v5.351zM78.563 93.447h5.435c-.188-1.447-1.176-2.307-2.671-2.307-1.442 0-2.487.879-2.764 2.307m2.969 5.363c-2.81 0-4.773-1.887-4.773-4.588 0-2.586 2.006-4.609 4.569-4.609 1.265 0 2.355.434 3.148 1.259.891.925 1.352 2.285 1.295 3.829l-.005.15h-7.229c.244 1.527 1.353 2.43 2.995 2.43 1.333 0 2.142-.588 2.585-1.082l.109-.122 1.11 1.085-.099.113c-.901 1.019-2.147 1.535-3.705 1.535M94.3 93.447h5.436c-.188-1.447-1.177-2.307-2.672-2.307-1.442 0-2.487.879-2.764 2.307m2.97 5.363c-2.812 0-4.775-1.887-4.775-4.588 0-2.586 2.006-4.609 4.569-4.609 1.266 0 2.355.434 3.15 1.259.891.925 1.351 2.285 1.295 3.829l-.005.15h-7.23c.244 1.527 1.353 2.43 2.996 2.43 1.332 0 2.142-.588 2.585-1.082l.108-.122 1.11 1.085-.099.113c-.902 1.019-2.147 1.535-3.704 1.535"/><path d="M111.759 98.645h-1.755v-5.188c0-1.469-.664-2.215-1.969-2.215-1.545 0-2.502.975-2.502 2.545v4.858h-1.757v-8.848h1.76l-.03 1.291c.646-.936 1.691-1.478 2.901-1.478 2.037 0 3.353 1.446 3.353 3.683v5.352zM117.874 91.038c-1.175 0-1.905.674-1.905 1.76 0 1.099.73 1.782 1.905 1.782 1.164 0 1.885-.684 1.885-1.782-.001-1.086-.722-1.76-1.885-1.76m-1.508 7.609c-.909.273-1.367.783-1.367 1.512 0 1.336 1.519 1.617 2.793 1.617 1.853 0 2.915-.605 2.915-1.658 0-.764-.355-1.201-2.226-1.329l-2.115-.142zm1.426 4.597c-2.793 0-4.529-1.136-4.529-2.962 0-1.029.588-1.781 1.748-2.239-.599-.325-.922-.872-.922-1.575 0-.691.38-1.27 1.054-1.611-.522-.535-.806-1.256-.806-2.059 0-1.846 1.496-3.187 3.559-3.187.445 0 .863.062 1.241.187h3.224v1.404h-1.492c.329.451.501.997.501 1.596 0 1.859-1.461 3.209-3.475 3.209-.681 0-1.277-.128-1.769-.381-.337.111-.529.363-.529.698 0 .28.1.661.966.71l2.188.166c2.512.189 3.732 1.125 3.732 2.856 0 1.965-1.798 3.188-4.691 3.188M127.033 94.727c-.812 0-1.782.221-1.782 1.267 0 1.099 1.035 1.327 1.905 1.327 1.133 0 2.278-.576 2.278-1.678v-.916h-2.401zm-.207 4.083c-2.06 0-3.29-1.03-3.29-2.754 0-1.687 1.3-2.733 3.394-2.733h2.504v-.051c0-1.455-.586-2.132-1.844-2.132-1.008 0-1.781.384-2.37 1.174l-.103.138-1.119-1.014.083-.115c.835-1.135 2.05-1.711 3.61-1.711 2.19 0 3.496 1.359 3.496 3.64v5.394h-1.763l.045-.945c-.651.737-1.537 1.109-2.643 1.109M137.406 91.038c-1.176 0-1.906.674-1.906 1.76 0 1.099.73 1.782 1.906 1.782 1.163 0 1.885-.684 1.885-1.782 0-1.086-.723-1.76-1.885-1.76m-1.509 7.609c-.907.273-1.367.783-1.367 1.512 0 1.336 1.519 1.617 2.793 1.617 1.853 0 2.915-.605 2.915-1.658 0-.764-.355-1.201-2.225-1.329l-2.116-.142zm1.426 4.597c-2.793 0-4.527-1.136-4.527-2.962 0-1.029.586-1.781 1.748-2.239-.6-.325-.924-.872-.924-1.575 0-.691.38-1.27 1.054-1.611-.521-.535-.805-1.256-.805-2.059 0-1.846 1.497-3.187 3.558-3.187.446 0 .864.062 1.243.187h3.223v1.404h-1.492c.329.451.503.997.503 1.596 0 1.859-1.463 3.209-3.477 3.209-.681 0-1.277-.128-1.768-.381-.337.111-.53.363-.53.698 0 .28.1.661.966.71l2.188.166c2.512.189 3.734 1.125 3.734 2.856-.001 1.965-1.8 3.188-4.694 3.188M144.728 93.447h5.435c-.188-1.447-1.175-2.307-2.671-2.307-1.442 0-2.487.879-2.764 2.307m2.969 5.363c-2.811 0-4.773-1.887-4.773-4.588 0-2.586 2.006-4.609 4.568-4.609 1.267 0 2.356.434 3.15 1.259.89.927 1.351 2.286 1.293 3.829l-.005.15h-7.229c.244 1.527 1.353 2.43 2.995 2.43 1.333 0 2.142-.588 2.585-1.082l.11-.122 1.108 1.085-.097.113c-.901 1.019-2.147 1.535-3.705 1.535"/><path d="M167.155 98.645h-1.733v-5.436c0-1.359-.532-1.967-1.722-1.967-1.335 0-2.131.92-2.131 2.463v4.94h-1.758v-5.436c0-1.342-.54-1.967-1.699-1.967-1.348 0-2.15.92-2.15 2.463v4.94h-1.758v-8.848h1.762l-.031 1.154c.601-.869 1.473-1.341 2.51-1.341 1.201 0 2.134.579 2.603 1.603.673-1.023 1.724-1.603 2.923-1.603 1.965 0 3.186 1.308 3.186 3.414v5.621zM171.19 93.447h5.436c-.188-1.447-1.174-2.307-2.672-2.307-1.441 0-2.486.879-2.764 2.307m2.969 5.363c-2.768 0-4.774-1.93-4.774-4.588 0-2.586 2.007-4.609 4.569-4.609 1.268 0 2.357.434 3.15 1.259.891.927 1.35 2.286 1.291 3.83l-.004.149h-7.229c.244 1.527 1.354 2.43 2.996 2.43 1.33 0 2.143-.588 2.586-1.082l.109-.121 1.109 1.084-.1.113c-.898 1.019-2.144 1.535-3.703 1.535"/><path d="M188.647 98.645h-1.754v-5.188c0-1.469-.662-2.215-1.969-2.215-1.545 0-2.504.975-2.504 2.545v4.858h-1.756v-8.848h1.76l-.029 1.291c.645-.936 1.693-1.478 2.9-1.478 2.035 0 3.352 1.446 3.352 3.683v5.352zM194.248 98.831c-.912 0-2.447-.379-2.447-2.92v-4.586h-1.318v-1.528h1.318v-4.454h1.736v4.454h2.393v1.528h-2.393v4.607c0 1.17.432 1.328.854 1.328.516 0 .791-.215 1.051-.453l.117-.109.984 1.137-.098.102c-.388.408-1.082.894-2.197.894"/><path d="M205.088 98.645h-1.756v-8.848h1.76l-.029 1.148c.543-.853 1.35-1.313 2.322-1.313.643 0 1.127.135 1.572.439l.107.072-.686 1.551-.154-.106c-.297-.205-.652-.304-1.088-.304-1.283 0-2.049 1.014-2.049 2.71v4.651zM211.715 87.635c-.652 0-1.186-.522-1.186-1.167 0-.654.533-1.188 1.186-1.188.656 0 1.189.533 1.189 1.188.001.644-.533 1.167-1.189 1.167m.879 11.011h-1.754v-8.848h1.754v8.848zM223.462 98.645h-1.754v-5.188c0-1.469-.664-2.215-1.969-2.215-1.545 0-2.504.975-2.504 2.545v4.858h-1.756v-8.848h1.76l-.029 1.291c.645-.936 1.693-1.478 2.9-1.478 2.035 0 3.352 1.446 3.352 3.683v5.352zM229.578 91.038c-1.174 0-1.906.674-1.906 1.76 0 1.099.732 1.782 1.906 1.782 1.162 0 1.885-.684 1.885-1.782 0-1.086-.722-1.76-1.885-1.76m-1.509 7.609c-.906.273-1.367.783-1.367 1.512 0 1.336 1.518 1.617 2.793 1.617 1.854 0 2.916-.605 2.916-1.658 0-.764-.355-1.201-2.225-1.329l-2.117-.142zm1.425 4.597c-2.791 0-4.527-1.136-4.527-2.962 0-1.029.59-1.781 1.75-2.24-.602-.324-.926-.871-.926-1.574 0-.691.383-1.27 1.057-1.611-.523-.535-.809-1.256-.809-2.059 0-1.846 1.496-3.187 3.559-3.187.445 0 .865.062 1.244.187h3.221v1.404h-1.492c.33.451.504.996.504 1.596 0 1.859-1.463 3.209-3.477 3.209-.682 0-1.275-.128-1.768-.381-.338.113-.531.364-.531.698 0 .28.102.661.967.71l2.189.166c2.512.189 3.732 1.125 3.732 2.856.001 1.965-1.796 3.188-4.693 3.188M243.953 98.809c-1.727 0-3.109-.752-3.789-2.063l-.07-.132 1.379-.791.076.132c.555.92 1.32 1.368 2.342 1.368 1.037 0 1.658-.42 1.658-1.123 0-.762-.529-.957-2.064-1.402l-.049-.016c-1.303-.38-2.691-.932-2.691-2.685 0-1.487 1.191-2.485 2.961-2.485 1.275 0 2.303.5 2.973 1.446l.088.122-1.236.953-.094-.13c-.443-.61-1.008-.905-1.73-.905-.818 0-1.328.359-1.328.937 0 .675.385.875 1.908 1.315 1.521.412 2.936 1.035 2.936 2.768-.002 1.684-1.223 2.691-3.27 2.691M252.225 98.831c-.914 0-2.447-.379-2.447-2.92v-4.586h-1.318v-1.528h1.318v-4.454h1.736v4.454h2.393v1.528h-2.393v4.607c0 1.17.432 1.328.854 1.328.516 0 .791-.215 1.051-.453l.117-.109.984 1.137-.098.102c-.389.408-1.082.894-2.197.894M260.368 91.183c-1.715 0-2.914 1.25-2.914 3.039s1.199 3.039 2.914 3.039c1.695 0 2.877-1.25 2.877-3.039s-1.182-3.039-2.877-3.039m0 7.628c-2.631 0-4.691-2.017-4.691-4.589 0-2.586 2.061-4.609 4.691-4.609 2.611 0 4.654 2.023 4.654 4.609 0 2.572-2.043 4.589-4.654 4.589"/><path d="M269.087 98.645h-1.754v-8.848h1.76l-.032 1.148c.543-.853 1.35-1.313 2.324-1.313.643 0 1.127.135 1.572.439l.107.072-.688 1.551-.152-.106c-.297-.205-.652-.304-1.09-.304-1.281 0-2.049 1.014-2.049 2.71v4.651zM275.86 93.447h5.434c-.186-1.447-1.174-2.307-2.67-2.307-1.443 0-2.488.879-2.764 2.307m2.969 5.363c-2.768 0-4.773-1.93-4.773-4.588 0-2.586 2.006-4.609 4.568-4.609 1.268 0 2.355.434 3.15 1.259.893.925 1.352 2.285 1.295 3.829l-.004.15h-7.23c.244 1.527 1.352 2.43 2.994 2.43 1.332 0 2.143-.588 2.588-1.082l.107-.122 1.111 1.085-.102.113c-.899 1.019-2.147 1.535-3.704 1.535M344.877 50.965h.271c.314 0 .568-.105.568-.36 0-.225-.164-.374-.523-.374-.15 0-.256.014-.316.03v.704zm-.014 1.38h-.57v-2.459c.225-.031.539-.075.945-.075.465 0 .674.075.84.194.149.105.254.285.254.525 0 .3-.227.495-.51.585v.03c.238.075.359.27.436.6.074.374.133.508.178.6h-.598c-.076-.092-.121-.3-.197-.6-.043-.255-.194-.375-.508-.375h-.27v.975zm-1.515-1.275c0 1.093.826 1.963 1.92 1.963 1.064.015 1.873-.87 1.873-1.949 0-1.094-.809-1.979-1.902-1.979-1.065.001-1.891.886-1.891 1.965m4.422 0c0 1.38-1.107 2.474-2.518 2.474-1.408 0-2.533-1.094-2.533-2.474s1.125-2.459 2.549-2.459c1.394 0 2.502 1.079 2.502 2.459"/></g></svg>