<svg width="136" height="83" viewBox="0 0 136 83" xmlns="http://www.w3.org/2000/svg" xmlns:xlink="http://www.w3.org/1999/xlink"><title>Group 67</title><defs><path id="a" d="M0 .506h135.05v2.605H0z"/><path id="c" d="M0 82.963h135.05V.469H0z"/></defs><g fill="none" fill-rule="evenodd"><path d="M.7 81.23h133.43H.7z" fill="#E5EEFD"/><g transform="translate(0 -.432)"><g transform="translate(0 79.852)"><mask id="b" fill="#fff"><use xlink:href="#a"/></mask><path d="M.7 1.066C6.257.726 11.817.682 17.377.674l16.68-.057 33.357-.11 33.359.004 16.678.002c5.56.015 11.12.036 16.678.327a.97.97 0 0 1 0 1.938c-5.558.291-11.119.312-16.678.327l-16.678.002-33.359.005L34.057 3l-16.68-.057C11.819 2.936 6.258 2.893.7 2.552a.745.745 0 0 1 0-1.486" fill="#717791" mask="url(#b)"/></g><mask id="d" fill="#fff"><use xlink:href="#c"/></mask><path fill="#E5EEFD" mask="url(#d)" d="M3.165 80.997h121.087v-4.193H3.165z"/><path d="M2.434 79.766a14.387 14.387 0 0 1-.384-1.48c-.112-.495-.201-.989-.183-1.482l.002-.051a1.297 1.297 0 0 1 1.296-1.246h121.293a1.107 1.107 0 0 1 1.091 1.297l-.588 3.373a.72.72 0 0 1-1.418 0l-.589-3.373 1.298 1.296H3.165l1.298-1.296c.02.493-.072.987-.183 1.482-.098.493-.23.987-.385 1.48a.765.765 0 0 1-1.46 0" fill="#717791" mask="url(#d)"/><path fill="#FFF" mask="url(#d)" d="M18.432 76.406h101.623V4.053H8.019v72.353z"/><path stroke="#717791" stroke-width="2.5" stroke-linecap="round" stroke-linejoin="round" mask="url(#d)" d="M18.432 76.406h101.623V4.053H8.019v72.353h10.413"/><path fill="#FFF" mask="url(#d)" d="M17.385 6.515H6.37v-4.75h115.393v4.75H35.04"/><path d="M17.385 7.25c-1.835.31-3.67.4-5.507.466a96.575 96.575 0 0 1-5.507.096h-.014a1.296 1.296 0 0 1-1.283-1.297v-4.75c0-.716.58-1.296 1.297-1.296h115.392c.716 0 1.297.58 1.297 1.296v4.75c0 .714-.577 1.293-1.29 1.297h-.007l-21.682.12-21.68.003-21.68-.083-10.841-.05c-3.613-.09-7.227.232-10.84-.584a.72.72 0 0 1 0-1.405c3.613-.815 7.227-.493 10.84-.584l10.84-.05 21.68-.083 21.681.004 21.682.12-1.298 1.295v-4.75l1.298 1.296H6.37l1.3-1.296v4.75L6.37 5.22c1.835-.018 3.671.01 5.507.096 1.836.066 3.672.156 5.507.465a.746.746 0 0 1 0 1.47" fill="#717791" mask="url(#d)"/><path d="M31.245 6.515h-.413" fill="#FFF" mask="url(#d)"/><path d="M31.245 7.812l-.414-.171a1.218 1.218 0 0 1 0-2.25l.414-.172a1.404 1.404 0 0 1 1.074 2.593 1.41 1.41 0 0 1-1.074 0" fill="#717791" mask="url(#d)"/><path fill="#CFE2FF" mask="url(#d)" d="M17.61 63.075h70.103V20.007H17.609z"/><path fill="#FFF" mask="url(#d)" d="M51.878 20.007L25.63 63.075H17.7l26.245-43.068zm22.518 0L48.15 63.075H31.354l26.245-43.068z"/><path d="M16.962 51.728c-.597-2.643-.44-5.286-.519-7.93l-.117-7.93c-.033-5.287-.068-10.574.006-15.86v-.018c.01-.699.58-1.258 1.277-1.258h70.104c.705 0 1.278.57 1.278 1.276v43.067c0 .705-.573 1.276-1.278 1.276H17.609c-.604 0-1.108-.43-1.223-1l-.054-.276c-.172-.861-.002-1.722.12-2.583.118-.86.288-1.722.51-2.583a.667.667 0 0 1 1.294 0c.222.86.392 1.723.51 2.583.122.861.294 1.722.121 2.583l-1.278-1.276h70.104l-1.277 1.276V20.008l1.277 1.275H17.609l1.278-1.275c.074 5.286.039 10.573.005 15.86l-.117 7.93c-.078 2.644.078 5.287-.519 7.93a.663.663 0 0 1-1.294 0" fill="#A3ACD6" mask="url(#d)"/><path fill="#FFF" mask="url(#d)" d="M113.723 69.713V23.68H93.072v49.997h20.65"/><path d="M113.084 69.713c-.713-1.918-.623-3.836-.648-5.754l-.054-5.754-.097-11.509.007-11.508c.035-3.836.052-7.672.133-11.509l1.298 1.297h-20.65l1.297-1.297v49.997l-1.298-1.296h20.65a1.296 1.296 0 1 1 0 2.592h-20.65c-.717 0-1.297-.58-1.297-1.296V23.679c0-.715.58-1.296 1.297-1.296h20.65c.708 0 1.283.565 1.298 1.267v.03c.082 3.836.098 7.672.134 11.508l.008 11.508-.098 11.51-.055 5.753c-.024 1.918.067 3.836-.648 5.754a.68.68 0 0 1-1.277 0" fill="#A3ACD6" mask="url(#d)"/><path fill="#CFE2FF" mask="url(#d)" d="M93.84 56.208h19.12V24.807H93.84z"/><path fill="#E5EEFD" mask="url(#d)" d="M89.683 76.274h27.114v-2.598H89.683z"/><path stroke="#717791" stroke-width="2.5" stroke-linecap="round" stroke-linejoin="round" mask="url(#d)" d="M89.683 76.274h27.114v-2.598H89.683z"/><path fill="#CFE2FF" mask="url(#d)" d="M93.805 72.227h19.12V58.023h-19.12z"/><g mask="url(#d)"><path d="M93.805 57.852h19.233" fill="#A4C9FF"/><path d="M93.805 57.852h19.233" stroke="#A3ACD6" stroke-width="2.5" stroke-linecap="round" stroke-linejoin="round"/></g><g mask="url(#d)"><path d="M112.62 24.703H94.779" fill="#A4C9FF"/><path d="M112.62 24.703H94.779" stroke="#717791" stroke-width="2.5" stroke-linecap="round" stroke-linejoin="round"/></g><path fill="#FFBFBF" mask="url(#d)" d="M16.497 19.35H2.98l12.06-8.819h10.697z"/><path stroke="#717791" stroke-width="2.5" stroke-linecap="round" stroke-linejoin="round" mask="url(#d)" d="M16.497 19.35H2.98l12.06-8.819h10.697z"/><path fill="#FFF" mask="url(#d)" d="M29.941 19.35H16.426l9.476-8.819h10.697z"/><path stroke="#717791" stroke-width="2.5" stroke-linecap="round" stroke-linejoin="round" mask="url(#d)" d="M29.941 19.35H16.426l9.476-8.819h10.697z"/><path fill="#FFBFBF" mask="url(#d)" d="M43.33 19.35H29.814l6.729-8.819H47.24z"/><path stroke="#717791" stroke-width="2.5" stroke-linecap="round" stroke-linejoin="round" mask="url(#d)" d="M43.33 19.35H29.814l6.729-8.819H47.24z"/><path fill="#FFF" mask="url(#d)" d="M57.058 19.35H43.542l3.824-8.819h10.827z"/><path stroke="#717791" stroke-width="2.5" stroke-linecap="round" stroke-linejoin="round" mask="url(#d)" d="M57.058 19.35H43.542l3.824-8.819h10.827z"/><path fill="#FFBFBF" mask="url(#d)" d="M111.368 19.35h14.035l-12.58-8.819h-10.696z"/><path stroke="#717791" stroke-width="2.5" stroke-linecap="round" stroke-linejoin="round" mask="url(#d)" d="M111.368 19.35h14.035l-12.58-8.819h-10.696z"/><path fill="#FFF" mask="url(#d)" d="M97.743 19.35h13.516l-9.477-8.819H91.085z"/><path stroke="#717791" stroke-width="2.5" stroke-linecap="round" stroke-linejoin="round" mask="url(#d)" d="M97.743 19.35h13.516l-9.477-8.819H91.085z"/><path fill="#FFBFBF" mask="url(#d)" d="M84.354 19.35H97.87l-6.728-8.819H80.444z"/><path stroke="#717791" stroke-width="2.5" stroke-linecap="round" stroke-linejoin="round" mask="url(#d)" d="M84.354 19.35H97.87l-6.728-8.819H80.444z"/><path fill="#FFF" mask="url(#d)" d="M70.627 19.35h13.516l-3.825-8.819H69.491z"/><path stroke="#717791" stroke-width="2.5" stroke-linecap="round" stroke-linejoin="round" mask="url(#d)" d="M70.627 19.35h13.516l-3.825-8.819H69.491z"/><path fill="#FFBFBF" mask="url(#d)" d="M70.503 19.35H56.987l1.17-8.819h10.956z"/><path stroke="#717791" stroke-width="2.5" stroke-linecap="round" stroke-linejoin="round" mask="url(#d)" d="M70.503 19.35H56.987l1.17-8.819h10.956z"/><path d="M9.641 31.289a6.814 6.814 0 0 1-6.817-6.81V19.27h13.635v5.208a6.814 6.814 0 0 1-6.818 6.81" fill="#FFBFBF" mask="url(#d)"/><path d="M9.641 31.289a6.814 6.814 0 0 1-6.817-6.81V19.27h13.635v5.208a6.814 6.814 0 0 1-6.818 6.81z" stroke="#717791" stroke-width="2.5" stroke-linecap="round" stroke-linejoin="round" mask="url(#d)"/><path d="M23.278 31.289a6.814 6.814 0 0 1-6.818-6.81V19.27h13.634v5.208a6.813 6.813 0 0 1-6.816 6.81" fill="#FFF" mask="url(#d)"/><path d="M23.278 31.289a6.814 6.814 0 0 1-6.818-6.81V19.27h13.634v5.208a6.813 6.813 0 0 1-6.816 6.81z" stroke="#717791" stroke-width="2.5" stroke-linecap="round" stroke-linejoin="round" mask="url(#d)"/><path d="M36.676 31.289a6.814 6.814 0 0 1-6.817-6.81V19.27h13.635v5.208a6.814 6.814 0 0 1-6.818 6.81" fill="#FFBFBF" mask="url(#d)"/><path d="M36.676 31.289a6.814 6.814 0 0 1-6.817-6.81V19.27h13.635v5.208a6.814 6.814 0 0 1-6.818 6.81z" stroke="#717791" stroke-width="2.5" stroke-linecap="round" stroke-linejoin="round" mask="url(#d)"/><path d="M50.392 31.289a6.814 6.814 0 0 1-6.818-6.81V19.27h13.635v5.208a6.814 6.814 0 0 1-6.817 6.81" fill="#FFF" mask="url(#d)"/><path d="M50.392 31.289a6.814 6.814 0 0 1-6.818-6.81V19.27h13.635v5.208a6.814 6.814 0 0 1-6.817 6.81z" stroke="#717791" stroke-width="2.5" stroke-linecap="round" stroke-linejoin="round" mask="url(#d)"/><path d="M63.79 31.289a6.814 6.814 0 0 1-6.817-6.81V19.27h13.635v5.208a6.814 6.814 0 0 1-6.818 6.81" fill="#FFBFBF" mask="url(#d)"/><path d="M63.79 31.289a6.814 6.814 0 0 1-6.817-6.81V19.27h13.635v5.208a6.814 6.814 0 0 1-6.818 6.81z" stroke="#717791" stroke-width="2.5" stroke-linecap="round" stroke-linejoin="round" mask="url(#d)"/><path d="M77.584 31.289a6.813 6.813 0 0 1-6.817-6.81V19.27h13.634v5.208a6.814 6.814 0 0 1-6.817 6.81" fill="#FFF" mask="url(#d)"/><path d="M77.584 31.289a6.813 6.813 0 0 1-6.817-6.81V19.27h13.634v5.208a6.814 6.814 0 0 1-6.817 6.81z" stroke="#717791" stroke-width="2.5" stroke-linecap="round" stroke-linejoin="round" mask="url(#d)"/><path d="M91.22 31.289a6.814 6.814 0 0 1-6.818-6.81V19.27h13.635v5.208a6.814 6.814 0 0 1-6.817 6.81" fill="#FFBFBF" mask="url(#d)"/><path d="M91.22 31.289a6.814 6.814 0 0 1-6.818-6.81V19.27h13.635v5.208a6.814 6.814 0 0 1-6.817 6.81z" stroke="#717791" stroke-width="2.5" stroke-linecap="round" stroke-linejoin="round" mask="url(#d)"/><path d="M104.777 31.289a6.814 6.814 0 0 1-6.818-6.81V19.27h13.635v5.208a6.814 6.814 0 0 1-6.817 6.81" fill="#FFF" mask="url(#d)"/><path d="M104.777 31.289a6.814 6.814 0 0 1-6.818-6.81V19.27h13.635v5.208a6.814 6.814 0 0 1-6.817 6.81z" stroke="#717791" stroke-width="2.5" stroke-linecap="round" stroke-linejoin="round" mask="url(#d)"/><path d="M118.413 31.289a6.814 6.814 0 0 1-6.818-6.81V19.27h13.636v5.208a6.814 6.814 0 0 1-6.818 6.81" fill="#FFBFBF" mask="url(#d)"/><path d="M118.413 31.289a6.814 6.814 0 0 1-6.818-6.81V19.27h13.636v5.208a6.814 6.814 0 0 1-6.818 6.81z" stroke="#717791" stroke-width="2.5" stroke-linecap="round" stroke-linejoin="round" mask="url(#d)"/></g></g></svg>