<svg width="97" height="83" viewBox="0 0 97 83" xmlns="http://www.w3.org/2000/svg" xmlns:xlink="http://www.w3.org/1999/xlink"><title>Group 16</title><defs><path id="a" d="M.435.43h17.528v19.274H.435z"/></defs><g fill="none" fill-rule="evenodd"><path fill="#CFE2FF" d="M21.176 14.468l69.654-.885 3.78 4.936-8.315 26.582-3.905 1.013-50.885.38z"/><path d="M1.172.04c2.541.188 5.043.564 7.539.97 1.244.217 2.49.432 3.727.684 1.367.23 2.883.803 4.12 1.621a11.464 11.464 0 0 1 3.234 3.128c.424.625.803 1.284 1.099 1.98.143.332.295.74.392 1.024l.31.9 2.478 7.193c1.664 4.791 3.225 9.619 4.842 14.426a911.32 911.32 0 0 1 4.673 14.485l.001.004-1.464-1.05 37.383-.323 9.345-.04 2.336-.011 1.17-.005c.308-.009.515-.021.768-.08a3.365 3.365 0 0 0 2.286-1.746c.124-.22.192-.44.276-.703l.312-1.13.627-2.263 1.25-4.524 2.504-9.05 1.266-4.52.317-1.13c.064-.284.115-.49.128-.74a3.306 3.306 0 0 0-2.237-3.342 3.307 3.307 0 0 0-.701-.15l-.382-.022h-2.92l-18.692.005-18.692.005c-6.23.001-12.46-.1-18.69-.765a1.298 1.298 0 0 1-1.151-1.43 1.299 1.299 0 0 1 1.15-1.157c6.231-.664 12.46-.766 18.691-.765l18.692.005 18.692.004 2.335.001h.585l.782.043a7.315 7.315 0 0 1 1.579.337c2.065.678 3.754 2.31 4.532 4.326a7.37 7.37 0 0 1 .488 3.19c-.028.533-.151 1.092-.272 1.568l-.317 1.13-1.276 4.517-2.581 9.027-1.29 4.514-.645 2.256-.322 1.13c-.148.483-.334 1.008-.592 1.47-.997 1.899-2.86 3.296-4.95 3.706-.506.116-1.082.15-1.55.15l-1.17-.004-2.336-.01-9.345-.04-37.383-.324a1.568 1.568 0 0 1-1.458-1.032l-.005-.018-.002-.003a909.765 909.765 0 0 1-5.166-14.316c-1.663-4.792-3.382-9.564-4.998-14.372l-2.441-7.206-.306-.901a11.158 11.158 0 0 0-.282-.754 7.785 7.785 0 0 0-2.911-3.47 7.197 7.197 0 0 0-1.356-.704c-.235-.102-.48-.174-.72-.26-.257-.068-.464-.135-.798-.208-1.233-.276-2.457-.59-3.682-.902C5.554 3.716 3.118 3.035.72 2.165A1.098 1.098 0 0 1 1.17.04" fill="#717791"/><path d="M83.69 25.902c-3.985.47-7.97.625-11.956.713-3.985.088-7.972.192-11.957.196-3.984.013-7.97-.076-11.956-.231-3.986-.188-7.97-.478-11.956-1.138a.771.771 0 0 1 0-1.522c3.986-.66 7.97-.95 11.956-1.138 3.986-.155 7.972-.243 11.956-.231 3.985.004 7.972.108 11.957.196 3.985.088 7.971.243 11.957.713.67.08 1.15.691 1.072 1.364a1.226 1.226 0 0 1-1.072 1.078m-2.724 10.8c-3.532.184-7.064.35-10.595.441-3.531.095-7.062.23-10.595.256l-10.594.144c-3.531-.004-7.064-.094-10.594-.535a1.233 1.233 0 1 1 0-2.447c3.53-.44 7.063-.531 10.594-.535l10.594.144c3.533.027 7.064.162 10.595.256 3.531.09 7.063.257 10.595.44a.917.917 0 0 1 .866.966.921.921 0 0 1-.866.87M30.85 46.169l.06-.098a1.541 1.541 0 0 1 2.122-.53c.558.336.83.972.73 1.58l-.007.046c-.355 2.172.083 4.44 1.298 6.249 1.204 1.802 3.065 3.145 5.15 3.627.526.098 1.052.204 1.59.204l.401.021.48-.002.966-.007 3.862-.03 7.725-.058c5.15-.02 10.3-.116 15.45-.066 5.15.097 10.3.227 15.449.957a.959.959 0 0 1 0 1.896c-5.15.731-10.3.86-15.449.957-5.15.051-10.3-.045-15.45-.066l-7.725-.058-3.862-.029-.966-.007-.486-.005-.562-.034c-.752-.02-1.496-.165-2.23-.325-2.934-.731-5.521-2.642-7.116-5.182-1.615-2.54-2.14-5.714-1.565-8.63l2.847 1.096-.059.097a1.544 1.544 0 0 1-2.123.532 1.56 1.56 0 0 1-.53-2.135" fill="#717791"/><g transform="translate(31.99 62.443)"><mask id="b" fill="#fff"><use xlink:href="#a"/></mask><path d="M17.45 14.917c-.703 1.806-2.248 3.327-4.138 4.12-1.897.825-4.084.855-6.08.252-1.995-.618-3.803-1.89-5.019-3.624C1.003 13.937.348 11.79.445 9.671c.069-2.127.921-4.2 2.253-5.827C4.067 2.242 5.947 1.081 7.995.651c2.032-.446 4.213-.228 6.041.733 1.822.942 3.263 2.55 3.877 4.405a.987.987 0 0 1-.621 1.246.977.977 0 0 1-1.038-.275l-.03-.03c-2.027-2.267-4.838-3.216-7.403-2.556-1.272.314-2.38 1.106-3.195 2.1-.787 1.018-1.288 2.265-1.298 3.556-.178 2.585 1.548 5.127 4.017 6.008 2.508.85 5.352.175 7.675-1.879l.031-.027a.875.875 0 0 1 1.24.08.89.89 0 0 1 .159.905" fill="#717791" mask="url(#b)"/></g><path d="M79.204 63.704c2.022-.341 4.261.322 5.938 1.714a7.707 7.707 0 0 1 2.038 2.548c.485.987.755 2.068.85 3.144.183 2.136-.151 4.347-1.283 6.185-1.098 1.83-2.801 3.284-4.798 4.033-1.994.743-4.237.811-6.254.107-2.016-.681-3.809-2.063-4.898-3.898-1.112-1.81-1.597-4.014-1.297-6.101.296-2.084 1.457-4.048 3.154-5.13a.806.806 0 0 1 1.116.252c.17.27.164.602.01.857l-.019.032c-.857 1.413-1.365 2.841-1.466 4.316-.122 1.47.239 2.949 1.04 4.154.792 1.208 1.98 2.145 3.336 2.597 1.352.472 2.874.431 4.214-.054 2.733-.955 4.55-4.032 3.953-6.873-.858-2.704-2.674-4.885-5.746-5.987l-.054-.02a.975.975 0 0 1 .166-1.876" fill="#717791"/></g></svg>