<svg width="107" height="83" viewBox="0 0 107 83" xmlns="http://www.w3.org/2000/svg" xmlns:xlink="http://www.w3.org/1999/xlink"><title>Group 30</title><defs><path id="a" d="M0 83.085h106.96V0H0z"/></defs><g fill="none" fill-rule="evenodd"><path d="M102.7 81.636H4.26a2.819 2.819 0 0 1-2.815-2.823V4.273A2.82 2.82 0 0 1 4.26 1.449h98.44a2.819 2.819 0 0 1 2.814 2.824v74.54a2.818 2.818 0 0 1-2.814 2.823" fill="#FFF"/><mask id="b" fill="#fff"><use xlink:href="#a"/></mask><path fill="#B8D4FF" mask="url(#b)" d="M2.492 12.723h102.003V2.144H2.492z"/><path d="M102.7 81.636H4.26a2.819 2.819 0 0 1-2.815-2.823V4.273A2.82 2.82 0 0 1 4.26 1.449h98.44a2.819 2.819 0 0 1 2.814 2.824v74.54a2.818 2.818 0 0 1-2.814 2.823z" stroke="#717791" stroke-width="2.485" stroke-linecap="round" stroke-linejoin="round" mask="url(#b)"/><path d="M105.514 12.69H12.757" fill="#FFF" mask="url(#b)"/><path d="M105.515 13.857l-23.19.102-23.19-.004-23.189-.092-11.594-.05c-3.865-.015-7.73.023-11.595-.545a.583.583 0 0 1 0-1.155c3.865-.568 7.73-.53 11.595-.545l11.594-.05 23.19-.092 23.189-.004 23.19.102c.642.002 1.16.527 1.157 1.171a1.164 1.164 0 0 1-1.157 1.162M8.701 7.075c0 .76-.614 1.377-1.372 1.377a1.375 1.375 0 0 1-1.372-1.377c0-.76.614-1.376 1.372-1.376.758 0 1.372.616 1.372 1.376m4.622 0c0 .76-.614 1.377-1.372 1.377a1.375 1.375 0 0 1-1.373-1.377c0-.76.614-1.376 1.373-1.376.758 0 1.372.616 1.372 1.376m4.621 0c0 .76-.614 1.377-1.372 1.377a1.374 1.374 0 0 1-1.371-1.377c0-.76.613-1.376 1.371-1.376s1.372.616 1.372 1.376" fill="#717791" mask="url(#b)"/><path d="M30.19 39.674l18.63.126m22.86-.126l21.49.146M57.336 66.75l21.49.146" stroke="#717791" stroke-width="2" stroke-linecap="round" stroke-linejoin="round" mask="url(#b)"/><g mask="url(#b)"><path d="M55.177 39.674l12.234.126" fill="#B8D4FF"/><path d="M55.177 39.674l12.234.126" stroke="#96C0FF" stroke-width="2" stroke-linecap="round" stroke-linejoin="round"/></g><path d="M15.018 39.589l7.67.055" stroke="#717791" stroke-width="2" stroke-linecap="round" stroke-linejoin="round" mask="url(#b)"/><g mask="url(#b)"><path d="M41.296 48.687l11.228.126" fill="#B8D4FF"/><path d="M41.296 48.687l11.228.126" stroke="#96C0FF" stroke-width="2" stroke-linecap="round" stroke-linejoin="round"/></g><path d="M58.725 48.687l28.58.322M15.02 48.6l18.774.056m7.506 9.043l26.031.126m-52.308-.212l18.774.055m1.952 9.043l14.333.07" stroke="#717791" stroke-width="2" stroke-linecap="round" stroke-linejoin="round" mask="url(#b)"/><g mask="url(#b)"><path d="M15.025 66.625l11.593.034" fill="#B8D4FF"/><path d="M15.025 66.625l11.593.034" stroke="#96C0FF" stroke-width="2" stroke-linecap="round" stroke-linejoin="round"/></g><path d="M14.979 25.726l52.777.215" stroke="#717791" stroke-width="2" stroke-linecap="round" stroke-linejoin="round" mask="url(#b)"/></g></svg>