<?xml version="1.0" encoding="UTF-8"?>
<svg width="30" height="27" viewBox="0 0 30 27" fill="none" xmlns="http://www.w3.org/2000/svg">
    <path d="M29.6619 22.7231C30.6232 24.3754 29.4165 26.4407 27.4964 26.4407H2.50234C0.578537 26.4407 -0.622609 24.3722 0.33687 22.7231L12.8341 1.23863C13.7959 -0.414375 16.2049 -0.411379 17.165 1.23863L29.6619 22.7231ZM14.9995 18.2812C13.6763 18.2812 12.6037 19.3448 12.6037 20.6568C12.6037 21.9687 13.6763 23.0323 14.9995 23.0323C16.3227 23.0323 17.3954 21.9687 17.3954 20.6568C17.3954 19.3448 16.3227 18.2812 14.9995 18.2812ZM12.7249 9.74246L13.1112 16.7658C13.1293 17.0944 13.4034 17.3517 13.7353 17.3517H16.2637C16.5957 17.3517 16.8697 17.0944 16.8878 16.7658L17.2742 9.74246C17.2937 9.38747 17.0086 9.08898 16.6501 9.08898H13.3489C12.9904 9.08898 12.7054 9.38747 12.7249 9.74246Z" fill="#FF4A4A"/>
</svg>
