<svg width="30" height="28" viewBox="0 0 30 28" fill="none" xmlns="http://www.w3.org/2000/svg">
<path d="M29.6624 23.5224C30.6237 25.1745 29.417 27.2398 27.4969 27.2398H2.50283C0.579025 27.2398 -0.62212 25.1713 0.337359 23.5224L12.8345 2.03841C13.7964 0.385441 16.2054 0.388436 17.1655 2.03841L29.6624 23.5224V23.5224ZM15 19.0806C13.6768 19.0806 12.6042 20.1441 12.6042 21.4561C12.6042 22.768 13.6768 23.8315 15 23.8315C16.3232 23.8315 17.3958 22.768 17.3958 21.4561C17.3958 20.1441 16.3232 19.0806 15 19.0806ZM12.7254 10.542L13.1117 17.5651C13.1298 17.8938 13.4039 18.1511 13.7358 18.1511H16.2642C16.5962 18.1511 16.8702 17.8938 16.8883 17.5651L17.2746 10.542C17.2942 10.187 17.0091 9.88855 16.6506 9.88855H13.3494C12.9908 9.88855 12.7058 10.187 12.7254 10.542V10.542Z" fill="#FFBB0D"/>
</svg>
