<svg width="30" height="30" viewBox="0 0 30 30" fill="none" xmlns="http://www.w3.org/2000/svg">
<path d="M29.5312 15C29.5312 23.0254 23.0254 29.5312 15 29.5312C6.97459 29.5312 0.46875 23.0254 0.46875 15C0.46875 6.97459 6.97459 0.46875 15 0.46875C23.0254 0.46875 29.5312 6.97459 29.5312 15ZM13.3192 22.6942L24.1004 11.9129C24.4665 11.5468 24.4665 10.9532 24.1004 10.5871L22.7746 9.26133C22.4085 8.89518 21.8149 8.89518 21.4488 9.26133L12.6562 18.0538L8.55123 13.9488C8.18514 13.5827 7.59152 13.5827 7.22537 13.9488L5.89957 15.2746C5.53348 15.6407 5.53348 16.2343 5.89957 16.6004L11.9933 22.6941C12.3595 23.0603 12.953 23.0603 13.3192 22.6942Z" fill="#87B563"/>
</svg>
