<svg width="30" height="30" viewBox="0 0 30 30" fill="none" xmlns="http://www.w3.org/2000/svg">
<path d="M29.5312 15C29.5312 23.0272 23.0248 29.5312 15 29.5312C6.97518 29.5312 0.46875 23.0272 0.46875 15C0.46875 6.97752 6.97518 0.46875 15 0.46875C23.0248 0.46875 29.5312 6.97752 29.5312 15ZM15 17.9297C13.5114 17.9297 12.3047 19.1364 12.3047 20.625C12.3047 22.1136 13.5114 23.3203 15 23.3203C16.4886 23.3203 17.6953 22.1136 17.6953 20.625C17.6953 19.1364 16.4886 17.9297 15 17.9297ZM12.441 8.24145L12.8757 16.2102C12.896 16.5831 13.2043 16.875 13.5778 16.875H16.4222C16.7957 16.875 17.104 16.5831 17.1243 16.2102L17.559 8.24145C17.5809 7.83867 17.2603 7.5 16.8569 7.5H13.143C12.7397 7.5 12.4191 7.83867 12.441 8.24145V8.24145Z" fill="#FF4A4A"/>
</svg>
