<?xml version="1.0" encoding="UTF-8"?>
<svg width="13px" height="7px" viewBox="0 0 13 7" version="1.1" xmlns="http://www.w3.org/2000/svg" xmlns:xlink="http://www.w3.org/1999/xlink">
    <!-- Generator: Sketch 52.6 (67491) - http://www.bohemiancoding.com/sketch -->
    <title>Fill 1</title>
    <desc>Created with Sketch.</desc>
    <g id="v3" stroke="none" stroke-width="1" fill="none" fill-rule="evenodd">
        <g id="V6.0-More" transform="translate(-562.000000, -488.000000)" fill="#161D25">
            <path d="M565.708812,497.791688 C565.580812,497.791688 565.452812,497.742688 565.354812,497.645688 C565.159812,497.449688 565.159812,497.133688 565.354812,496.937688 L570.645812,491.647688 C570.841812,491.451688 570.841812,491.131688 570.645812,490.935688 L565.354812,485.645688 C565.159812,485.449688 565.159812,485.133688 565.354812,484.937688 C565.550812,484.742688 565.866812,484.742688 566.062812,484.937688 L571.352812,490.228688 C571.937812,490.814688 571.937812,491.768688 571.353812,492.354688 L566.062812,497.645688 C565.964812,497.742688 565.836812,497.791688 565.708812,497.791688" id="Fill-1" transform="translate(568.500125, 491.291563) rotate(-270.000000) translate(-568.500125, -491.291563) "></path>
        </g>
    </g>
</svg>