<?xml version="1.0" encoding="UTF-8"?>
<svg width="20px" height="20px" viewBox="0 0 20 20" version="1.1" xmlns="http://www.w3.org/2000/svg" xmlns:xlink="http://www.w3.org/1999/xlink">
    <!-- Generator: Sketch 52.6 (67491) - http://www.bohemiancoding.com/sketch -->
    <title>Fill 1</title>
    <desc>Created with Sketch.</desc>
    <g id="v3" stroke="none" stroke-width="1" fill="none" fill-rule="evenodd">
        <g id="V6.0" transform="translate(-15.000000, -234.000000)" fill="#161D25">
            <path d="M16.5557,235 C16.2497,235 15.9997,235.25 15.9997,235.556 L15.9997,250.333 C15.9997,251.804 17.1967,253 18.6667,253 L31.3337,253 C32.8037,253 33.9997,251.804 33.9997,250.333 L33.9997,239.778 C33.9997,239.472 33.7507,239.222 33.4447,239.222 L26.0577,239.222 C25.8687,239.222 25.6957,239.115 25.6107,238.946 L23.6357,235 L16.5557,235 Z M31.3337,254 L18.6667,254 C16.6447,254 14.9997,252.355 14.9997,250.333 L14.9997,235.556 C14.9997,234.698 15.6977,234 16.5557,234 L23.9447,234 C24.1337,234 24.3067,234.107 24.3917,234.276 L26.3677,238.222 L33.4447,238.222 C34.3027,238.222 34.9997,238.92 34.9997,239.778 L34.9997,250.333 C34.9997,252.355 33.3547,254 31.3337,254 Z" id="Fill-1"></path>
        </g>
    </g>
</svg>