<?xml version="1.0" encoding="UTF-8"?>
<svg width="7px" height="13px" viewBox="0 0 7 13" version="1.1" xmlns="http://www.w3.org/2000/svg" xmlns:xlink="http://www.w3.org/1999/xlink">
    <!-- Generator: Sketch 52.6 (67491) - http://www.bohemiancoding.com/sketch -->
    <title>Fill 1</title>
    <desc>Created with Sketch.</desc>
    <g id="v3" stroke="none" stroke-width="1" fill="none" fill-rule="evenodd">
        <g id="V6.0-Modules" transform="translate(-459.000000, -237.000000)" fill="#838D9A">
            <path d="M459.50025,250.00025 C459.37225,250.00025 459.24425,249.95125 459.14625,249.85425 C458.95125,249.65825 458.95125,249.34225 459.14625,249.14625 L464.43725,243.85625 C464.63325,243.66025 464.63325,243.34025 464.43725,243.14425 L459.14625,237.85425 C458.95125,237.65825 458.95125,237.34225 459.14625,237.14625 C459.34225,236.95125 459.65825,236.95125 459.85425,237.14625 L465.14425,242.43725 C465.72925,243.02325 465.72925,243.97725 465.14525,244.56325 L459.85425,249.85425 C459.75625,249.95125 459.62825,250.00025 459.50025,250.00025" id="Fill-1" transform="translate(462.291563, 243.500125) rotate(-360.000000) translate(-462.291563, -243.500125) "></path>
        </g>
    </g>
</svg>