<?xml version="1.0" encoding="UTF-8"?>
<svg width="20px" height="20px" viewBox="0 0 20 20" version="1.1" xmlns="http://www.w3.org/2000/svg" xmlns:xlink="http://www.w3.org/1999/xlink">
    <!-- Generator: Sketch 52.6 (67491) - http://www.bohemiancoding.com/sketch -->
    <title>Group</title>
    <desc>Created with Sketch.</desc>
    <g id="v3" stroke="none" stroke-width="1" fill="none" fill-rule="evenodd">
        <g id="V6.0" transform="translate(-15.000000, -275.000000)" fill="#161D25">
            <g id="Group" transform="translate(15.000000, 275.000000)">
                <path d="M4.352,16.997 C4.495,14.912 6.571,13.666 10,13.666 C13.43,13.666 15.506,14.912 15.648,16.997 C14.102,18.247 12.139,19 10,19 C7.862,19 5.898,18.247 4.352,16.997 M1,10 C1,5.038 5.038,1 10,1 C14.963,1 19,5.038 19,10 C19,12.385 18.061,14.551 16.541,16.164 C15.969,13.981 13.574,12.666 10,12.666 C6.428,12.666 4.032,13.981 3.459,16.163 C1.939,14.551 1,12.385 1,10 M20,10 C20,4.486 15.515,0 10,0 C4.486,0 0,4.486 0,10 C0,13.005 1.339,15.699 3.445,17.533 C3.471,17.565 3.502,17.591 3.536,17.616 C5.281,19.1 7.536,20 10,20 C12.466,20 14.722,19.099 16.467,17.615 C16.499,17.59 16.529,17.565 16.555,17.534 C18.661,15.7 20,13.006 20,10" id="Fill-1"></path>
                <path d="M10.271,5 C11.523,5 12.542,6.019 12.542,7.271 C12.542,8.523 11.523,9.542 10.271,9.542 C9.019,9.542 8,8.523 8,7.271 C8,6.019 9.019,5 10.271,5 M10.271,10.542 C12.074,10.542 13.542,9.075 13.542,7.271 C13.542,5.467 12.074,4 10.271,4 C8.467,4 7,5.467 7,7.271 C7,9.075 8.467,10.542 10.271,10.542" id="Fill-4"></path>
            </g>
        </g>
    </g>
</svg>