<?xml version="1.0" encoding="UTF-8"?>
<svg width="20px" height="20px" viewBox="0 0 20 20" version="1.1" xmlns="http://www.w3.org/2000/svg" xmlns:xlink="http://www.w3.org/1999/xlink">
    <!-- Generator: Sketch 52.6 (67491) - http://www.bohemiancoding.com/sketch -->
    <title>Group 7</title>
    <desc>Created with Sketch.</desc>
    <g id="v3" stroke="none" stroke-width="1" fill="none" fill-rule="evenodd">
        <g id="V6.0" transform="translate(-15.000000, -111.000000)" fill="#161D25">
            <g id="Group-7" transform="translate(15.000000, 111.000000)">
                <path d="M17.125,19 L2.875,19 C1.841,19 1,18.159 1,17.125 L1,16.824 L5.708,12.644 L8.148,14.881 C8.343,15.058 8.644,15.055 8.834,14.871 L14.891,9.004 L19,13.163 L19,17.125 C19,18.159 18.159,19 17.125,19 M2.875,1 L17.125,1 C18.159,1 19,1.841 19,2.875 L19,11.74 L15.254,7.949 C15.062,7.755 14.748,7.751 14.551,7.941 L8.477,13.825 L6.051,11.602 C5.861,11.43 5.572,11.427 5.381,11.597 L1,15.486 L1,2.875 C1,1.841 1.841,1 2.875,1 M17.125,0 L2.875,0 C1.29,0 0,1.29 0,2.875 L0,17.125 C0,18.71 1.29,20 2.875,20 L17.125,20 C18.71,20 20,18.71 20,17.125 L20,2.875 C20,1.29 18.71,0 17.125,0" id="Fill-1"></path>
                <path d="M5.25,3.8496 C6.022,3.8496 6.65,4.4776 6.65,5.2496 C6.65,6.0226 6.022,6.6506 5.25,6.6506 C4.478,6.6506 3.85,6.0226 3.85,5.2496 C3.85,4.4776 4.478,3.8496 5.25,3.8496 M5.25,7.6506 C6.573,7.6506 7.65,6.5736 7.65,5.2496 C7.65,3.9266 6.573,2.8496 5.25,2.8496 C3.927,2.8496 2.85,3.9266 2.85,5.2496 C2.85,6.5736 3.927,7.6506 5.25,7.6506" id="Fill-3"></path>
            </g>
        </g>
    </g>
</svg>