<?xml version="1.0" encoding="UTF-8"?>
<svg width="12px" height="12px" viewBox="0 0 12 12" version="1.1" xmlns="http://www.w3.org/2000/svg" xmlns:xlink="http://www.w3.org/1999/xlink">
    <!-- Generator: Sketch 52.6 (67491) - http://www.bohemiancoding.com/sketch -->
    <title>Fill 1</title>
    <desc>Created with Sketch.</desc>
    <g id="v3" stroke="none" stroke-width="1" fill="none" fill-rule="evenodd">
        <g id="V6.0-More" transform="translate(-563.000000, -279.000000)" fill="#F89406">
            <path d="M574.981475,283.540421 C574.935593,283.403224 574.811357,283.308458 574.667357,283.299972 L570.747578,283.077203 L569.331573,279.209509 C569.229925,278.930164 568.770394,278.930164 568.668747,279.209509 L567.252742,283.077203 L563.332963,283.299972 C563.188962,283.308458 563.064727,283.403224 563.018844,283.539714 C562.972256,283.676911 563.013903,283.828253 563.123315,283.921604 L566.184032,286.540377 L565.168264,290.559412 C565.131558,290.70156 565.187323,290.851487 565.307323,290.935645 C565.427323,291.020509 565.586853,291.020509 565.708266,290.938473 L568.999807,288.694518 L572.291348,290.938473 C572.351348,290.979491 572.420525,291 572.490408,291 C572.560996,291 572.632291,290.978784 572.692997,290.935645 C572.812997,290.851487 572.868762,290.70156 572.832056,290.559412 L571.815582,286.540377 L574.876299,283.921604 C574.986417,283.828253 575.027358,283.676911 574.981475,283.540421" id="Fill-1"></path>
        </g>
    </g>
</svg>