<?xml version="1.0" encoding="UTF-8"?>
<svg width="20px" height="20px" viewBox="0 0 20 20" version="1.1" xmlns="http://www.w3.org/2000/svg" xmlns:xlink="http://www.w3.org/1999/xlink">
    <!-- Generator: Sketch 52.6 (67491) - http://www.bohemiancoding.com/sketch -->
    <title>Fill 1</title>
    <desc>Created with Sketch.</desc>
    <g id="v3" stroke="none" stroke-width="1" fill="none" fill-rule="evenodd">
        <g id="V6.0" transform="translate(-15.000000, -70.000000)" fill="#161D25">
            <path d="M25,71.0025 C24.426,71.0025 23.853,71.1975 23.375,71.5865 L17.036,76.7455 C16.387,77.2735 16,78.1055 16,78.9695 L16,86.1925 C16,87.7415 17.194,89.0025 18.662,89.0025 L31.337,89.0025 C32.806,89.0025 34,87.7415 34,86.1925 L34,78.9695 C34,78.1055 33.612,77.2735 32.963,76.7455 L26.626,71.5865 C26.147,71.1975 25.573,71.0025 25,71.0025 M31.337,90.0025 L18.662,90.0025 C16.643,90.0025 15,88.2935 15,86.1925 L15,78.9695 C15,77.7905 15.512,76.6965 16.405,75.9695 L22.743,70.8115 C24.07,69.7295 25.927,69.7295 27.257,70.8115 L33.594,75.9695 C34.488,76.6965 35,77.7905 35,78.9695 L35,86.1925 C35,88.2935 33.357,90.0025 31.337,90.0025" id="Fill-1"></path>
        </g>
    </g>
</svg>