<?xml version="1.0" encoding="UTF-8"?>
<svg width="20px" height="20px" viewBox="0 0 20 20" version="1.1" xmlns="http://www.w3.org/2000/svg" xmlns:xlink="http://www.w3.org/1999/xlink">
    <!-- Generator: Sketch 52.6 (67491) - http://www.bohemiancoding.com/sketch -->
    <title>Group 18</title>
    <desc>Created with Sketch.</desc>
    <g id="v3" stroke="none" stroke-width="1" fill="none" fill-rule="evenodd">
        <g id="V6.0-More" transform="translate(-256.000000, -439.000000)" fill="#161D25">
            <g id="Group-18" transform="translate(256.000000, 439.000000)">
                <path d="M10,15.2593 C7.657,15.2593 5.75,13.3523 5.75,11.0093 C5.75,8.6663 7.657,6.7593 10,6.7593 C12.343,6.7593 14.25,8.6663 14.25,11.0093 C14.25,13.3523 12.343,15.2593 10,15.2593 M10,5.7593 C7.105,5.7593 4.75,8.1143 4.75,11.0093 C4.75,13.9043 7.105,16.2593 10,16.2593 C12.895,16.2593 15.25,13.9043 15.25,11.0093 C15.25,8.1143 12.895,5.7593 10,5.7593" id="Fill-1"></path>
                <path d="M19,17.125 C19,18.159 18.159,19 17.125,19 L2.875,19 C1.841,19 1,18.159 1,17.125 L1,5.745 C1,4.711 1.841,3.87 2.875,3.87 L4.623,3.87 L5.648,1.58 C5.902,1.06 6.26,1 6.507,1 L13.493,1 C13.74,1 14.098,1.06 14.344,1.564 L15.376,3.87 L17.125,3.87 C18.159,3.87 19,4.711 19,5.745 L19,17.125 Z M17.125,2.87 L16.024,2.87 L15.25,1.14 C14.89,0.405 14.266,0 13.493,0 L6.507,0 C5.734,0 5.11,0.405 4.743,1.156 L3.976,2.87 L2.875,2.87 C1.29,2.87 0,4.159 0,5.745 L0,17.125 C0,18.71 1.29,20 2.875,20 L17.125,20 C18.71,20 20,18.71 20,17.125 L20,5.745 C20,4.159 18.71,2.87 17.125,2.87 Z" id="Fill-3"></path>
            </g>
        </g>
    </g>
</svg>