<?xml version="1.0" encoding="UTF-8"?>
<svg width="20px" height="20px" viewBox="0 0 20 20" version="1.1" xmlns="http://www.w3.org/2000/svg" xmlns:xlink="http://www.w3.org/1999/xlink">
    <!-- Generator: Sketch 52.6 (67491) - http://www.bohemiancoding.com/sketch -->
    <title>Fill 1</title>
    <desc>Created with Sketch.</desc>
    <g id="v3" stroke="none" stroke-width="1" fill="none" fill-rule="evenodd">
        <g id="V6.0" transform="translate(-15.000000, -398.000000)" fill="#161D25">
            <path d="M25,405.0025 C19.437,405.0025 16.183,404.0155 16,403.5025 L16,401.7015 C17.921,402.7005 22.193,403.0025 25,403.0025 C27.807,403.0025 32.079,402.7005 34,401.7015 L34,403.4895 C33.805,404.0195 30.554,405.0025 25,405.0025 M34.002,406.4865 C33.817,407.0155 30.563,408.0025 25,408.0025 C19.447,408.0025 16.195,407.0195 16,406.5215 L16,406.5155 C16.053,406.3755 16.667,405.9035 18.723,405.5115 C20.738,405.8745 23.177,406.0025 25,406.0025 C26.822,406.0025 29.263,405.8745 31.277,405.5115 C33.344,405.9055 33.954,406.3805 34.002,406.4865 M25,411.0025 C19.437,411.0025 16.183,410.0155 16,409.5025 L16,407.7015 C17.921,408.7005 22.193,409.0025 25,409.0025 C27.807,409.0025 32.079,408.7005 34,407.7015 L34,409.4895 C33.805,410.0195 30.554,411.0025 25,411.0025 M34.002,412.4865 C33.817,413.0155 30.563,414.0025 25,414.0025 C19.447,414.0025 16.195,413.0195 16,412.5215 L16,412.5155 C16.053,412.3755 16.667,411.9035 18.722,411.5125 C20.737,411.8745 23.177,412.0025 25,412.0025 C26.823,412.0025 29.264,411.8745 31.278,411.5115 C33.344,411.9065 33.954,412.3815 34.002,412.4865 M25,417.0025 C19.437,417.0025 16.183,416.0155 16,415.5025 L16,413.7015 C17.921,414.7005 22.193,415.0025 25,415.0025 C27.807,415.0025 32.079,414.7005 34,413.7015 L34,415.4895 C33.805,416.0195 30.554,417.0025 25,417.0025 M25,399.0025 C30.507,399.0025 33.752,399.9695 33.995,400.5025 C33.752,401.0355 30.507,402.0025 25,402.0025 C19.447,402.0025 16.195,401.0195 16,400.5215 L16,400.5155 C16.195,399.9855 19.447,399.0025 25,399.0025 M35,403.5025 L35,400.5025 C35,398.5285 28.714,398.0025 25,398.0025 C21.286,398.0025 15,398.5285 15,400.5025 L15,403.5025 C15,404.1465 15.675,404.6335 16.706,405.0015 C15.571,405.3995 15,405.8945 15,406.5025 L15,409.5025 C15,410.1465 15.675,410.6335 16.706,411.0015 C15.571,411.3995 15,411.8945 15,412.5025 L15,415.5025 C15,417.4765 21.286,418.0025 25,418.0025 C28.714,418.0025 35,417.4765 35,415.5025 L35,412.5025 C35,411.8955 34.429,411.3995 33.294,411.0015 C34.324,410.6345 35,410.1465 35,409.5025 L35,406.5025 C35,405.8945 34.43,405.3995 33.294,405.0015 C34.324,404.6335 35,404.1465 35,403.5025" id="Fill-1"></path>
        </g>
    </g>
</svg>