<?xml version="1.0" encoding="UTF-8"?>
<svg width="20px" height="20px" viewBox="0 0 20 20" version="1.1" xmlns="http://www.w3.org/2000/svg" xmlns:xlink="http://www.w3.org/1999/xlink">
    <!-- Generator: Sketch 52.6 (67491) - http://www.bohemiancoding.com/sketch -->
    <title>Fill 1</title>
    <desc>Created with Sketch.</desc>
    <g id="v3" stroke="none" stroke-width="1" fill="none" fill-rule="evenodd">
        <g id="V6.0" transform="translate(-15.000000, -439.000000)" fill="#161D25">
            <path d="M33.3208,448.1373 L33.3208,446.0203 C33.7188,446.2093 34.0008,446.6093 34.0008,447.0783 C34.0008,447.5483 33.7188,447.9483 33.3208,448.1373 Z M31.0428,453.9763 L25.6238,450.2273 L25.6238,443.9303 L31.0648,440.1653 C31.2018,440.0593 31.3668,440.0023 31.5418,440.0023 C31.9708,440.0023 32.3208,440.3523 32.3208,440.7823 L32.3208,453.3763 C32.3208,453.9813 31.5958,454.4033 31.0428,453.9763 Z M24.6238,449.9903 L21.4048,449.9903 C21.2608,449.9903 21.1238,450.0513 21.0288,450.1593 C20.9348,450.2673 20.8908,450.4113 20.9088,450.5543 L21.8698,458.0023 L19.9488,458.0023 L18.9718,450.4253 C18.9398,450.1763 18.7278,449.9903 18.4758,449.9903 L17.0508,449.9903 C16.4718,449.9903 16.0008,449.5193 16.0008,448.9403 L15.9998,445.2183 C15.9998,444.6393 16.4708,444.1683 17.0508,444.1683 L24.6238,444.1683 L24.6238,449.9903 Z M35.0008,447.0783 C35.0008,446.0503 34.2808,445.1913 33.3208,444.9633 L33.3208,440.7823 C33.3208,439.8003 32.5228,439.0023 31.5418,439.0023 C31.1428,439.0023 30.7658,439.1313 30.4728,439.3603 L24.9678,443.1683 L17.0508,443.1683 C15.9198,443.1683 14.9998,444.0883 14.9998,445.2183 L15.0008,448.9403 C15.0008,450.0703 15.9208,450.9903 17.0508,450.9903 L18.0368,450.9903 L19.0138,458.5673 C19.0458,458.8163 19.2578,459.0023 19.5098,459.0023 L22.4388,459.0023 C22.5818,459.0023 22.7188,458.9413 22.8138,458.8323 C22.9088,458.7253 22.9528,458.5803 22.9348,458.4383 L21.9738,450.9903 L24.9678,450.9903 L30.4508,454.7823 C30.7658,455.0273 31.1428,455.1563 31.5418,455.1563 C32.5228,455.1563 33.3208,454.3583 33.3208,453.3763 L33.3208,449.1953 C34.2808,448.9673 35.0008,448.1083 35.0008,447.0783 Z" id="Fill-1"></path>
        </g>
    </g>
</svg>