<?xml version="1.0" encoding="UTF-8"?>
<svg width="20px" height="20px" viewBox="0 0 20 20" version="1.1" xmlns="http://www.w3.org/2000/svg" xmlns:xlink="http://www.w3.org/1999/xlink">
    <!-- Generator: Sketch 52.6 (67491) - http://www.bohemiancoding.com/sketch -->
    <title>Group 8</title>
    <desc>Created with Sketch.</desc>
    <g id="v3" stroke="none" stroke-width="1" fill="none" fill-rule="evenodd">
        <g id="V6.0" transform="translate(-15.000000, -562.000000)" fill="#161D25">
            <g id="Group-8" transform="translate(25.000000, 572.000000) rotate(-180.000000) translate(-25.000000, -572.000000) translate(15.000000, 562.000000)">
                <path d="M15.3228,9.6465 L12.4728,6.7965 C12.2778,6.6015 11.9618,6.6015 11.7658,6.7965 C11.5708,6.9925 11.5708,7.3085 11.7658,7.5035 L13.7648,9.5025 L5.0308,9.5025 C4.7548,9.5025 4.5308,9.7265 4.5308,10.0025 C4.5308,10.2795 4.7548,10.5025 5.0308,10.5025 L13.7598,10.5025 L11.7658,12.4965 C11.5708,12.6915 11.5708,13.0075 11.7658,13.2035 C11.8638,13.3005 11.9918,13.3495 12.1198,13.3495 C12.2478,13.3495 12.3758,13.3005 12.4728,13.2035 L15.3128,10.3635 C15.3648,10.3145 15.4048,10.2555 15.4318,10.1895 C15.4458,10.1565 15.4468,10.1215 15.4528,10.0855 C15.4578,10.0575 15.4688,10.0325 15.4688,10.0025 C15.4688,10.0015 15.4688,10.0015 15.4688,10.0015 C15.4688,9.8735 15.4208,9.7445 15.3228,9.6465" id="Fill-1"></path>
                <path d="M10,19 C5.038,19 1,14.963 1,10 C1,5.037 5.038,1 10,1 C14.962,1 19,5.037 19,10 C19,14.963 14.962,19 10,19 M10,0 C4.486,0 0,4.486 0,10 C0,15.514 4.486,20 10,20 C15.514,20 20,15.514 20,10 C20,4.486 15.514,0 10,0" id="Fill-3"></path>
            </g>
        </g>
    </g>
</svg>