<?xml version="1.0" encoding="UTF-8"?>
<svg width="20px" height="20px" viewBox="0 0 20 20" version="1.1" xmlns="http://www.w3.org/2000/svg" xmlns:xlink="http://www.w3.org/1999/xlink">
    <!-- Generator: Sketch 52.6 (67491) - http://www.bohemiancoding.com/sketch -->
    <title>Fill 1</title>
    <desc>Created with Sketch.</desc>
    <g id="v3" stroke="none" stroke-width="1" fill="none" fill-rule="evenodd">
        <g id="V6.0" transform="translate(-15.000000, -316.000000)" fill="#161D25">
            <path d="M25,317.039 L33.154,320.3 L25,323.561 L16.846,320.3 L25,317.039 Z M25.5,324.438 L34,321.039 L34,331.362 L25.5,334.762 L25.5,324.438 Z M16,321.039 L24.5,324.438 L24.5,334.762 L16,331.362 L16,321.039 Z M34.919,331.957 C34.932,331.936 34.95,331.919 34.96,331.896 C34.966,331.881 34.965,331.864 34.97,331.848 C34.985,331.801 34.999,331.754 34.999,331.705 C34.999,331.703 35,331.702 35,331.7 L35,320.3 C35,320.207 34.968,320.124 34.923,320.05 C34.913,320.032 34.903,320.017 34.89,320 C34.836,319.931 34.771,319.872 34.688,319.838 C34.688,319.838 34.687,319.836 34.686,319.836 L25.186,316.036 C25.066,315.988 24.934,315.988 24.814,316.036 L15.314,319.836 C15.313,319.836 15.312,319.838 15.312,319.838 C15.229,319.872 15.164,319.931 15.11,320 C15.097,320.017 15.087,320.032 15.077,320.05 C15.032,320.124 15,320.207 15,320.3 L15,331.7 C15,331.702 15.001,331.703 15.001,331.705 C15.001,331.754 15.015,331.801 15.03,331.848 C15.035,331.864 15.034,331.881 15.04,331.896 C15.05,331.919 15.068,331.936 15.081,331.957 C15.102,331.991 15.12,332.027 15.147,332.055 C15.157,332.064 15.171,332.069 15.181,332.078 C15.221,332.111 15.262,332.142 15.311,332.162 C15.312,332.163 15.313,332.164 15.314,332.164 L24.805,335.961 C24.805,335.961 24.806,335.961 24.806,335.961 L24.814,335.965 C24.874,335.989 24.937,336 25,336 C25.063,336 25.126,335.989 25.186,335.965 L25.194,335.961 C25.194,335.961 25.195,335.961 25.195,335.961 L34.686,332.164 C34.687,332.164 34.688,332.163 34.689,332.162 C34.738,332.142 34.779,332.111 34.819,332.078 C34.829,332.069 34.843,332.064 34.853,332.055 C34.88,332.027 34.898,331.991 34.919,331.957 Z" id="Fill-1"></path>
        </g>
    </g>
</svg>