<?xml version="1.0" encoding="UTF-8"?>
<svg width="20px" height="20px" viewBox="0 0 20 20" version="1.1" xmlns="http://www.w3.org/2000/svg" xmlns:xlink="http://www.w3.org/1999/xlink">
    <!-- Generator: Sketch 52.6 (67491) - http://www.bohemiancoding.com/sketch -->
    <title>Group 17</title>
    <desc>Created with Sketch.</desc>
    <g id="v3" stroke="none" stroke-width="1" fill="none" fill-rule="evenodd">
        <g id="V6.0" transform="translate(-15.000000, -521.000000)" fill="#161D25">
            <g id="Group-17" transform="translate(15.000000, 521.000000)">
                <path d="M10,19 C5.038,19 1,14.963 1,10 C1,5.037 5.038,1 10,1 C14.962,1 19,5.037 19,10 C19,14.963 14.962,19 10,19 M10,0 C4.486,0 0,4.486 0,10 C0,15.514 4.486,20 10,20 C15.514,20 20,15.514 20,10 C20,4.486 15.514,0 10,0" id="Fill-3"></path>
                <g id="Group-15" transform="translate(5.000000, 9.000000)" fill-rule="nonzero">
                    <circle id="Oval" cx="1" cy="1" r="1"></circle>
                    <circle id="Oval" cx="5" cy="1" r="1"></circle>
                    <circle id="Oval" cx="9" cy="1" r="1"></circle>
                </g>
            </g>
        </g>
    </g>
</svg>