<?xml version="1.0" encoding="UTF-8"?>
<svg width="20px" height="20px" viewBox="0 0 20 20" version="1.1" xmlns="http://www.w3.org/2000/svg" xmlns:xlink="http://www.w3.org/1999/xlink">
    <!-- Generator: Sketch 52.6 (67491) - http://www.bohemiancoding.com/sketch -->
    <title>Group 3</title>
    <desc>Created with Sketch.</desc>
    <g id="v3" stroke="none" stroke-width="1" fill="none" fill-rule="evenodd">
        <g id="V6.0" transform="translate(-15.000000, -193.000000)" fill="#161D25">
            <g id="Group-3" transform="translate(15.000000, 193.000000)">
                <path d="M3.0749,17.8489 C3.1919,18.4739 3.8249,19.0009 4.4589,19.0009 L15.5419,19.0009 C16.1749,19.0009 16.8089,18.4739 16.9259,17.8489 L18.8979,7.2979 L1.1019,7.2979 L3.0749,17.8489 Z M15.5419,20.0009 L4.4589,20.0009 C3.3379,20.0009 2.2989,19.1369 2.0919,18.0329 L0.0089,6.8899 C-0.0191,6.7439 0.0209,6.5929 0.1159,6.4789 C0.2109,6.3649 0.3509,6.2979 0.4999,6.2979 L19.4999,6.2979 C19.6489,6.2979 19.7899,6.3649 19.8849,6.4789 C19.9799,6.5929 20.0189,6.7439 19.9919,6.8899 L17.9089,18.0329 C17.7019,19.1369 16.6619,20.0009 15.5419,20.0009 Z" id="Fill-1"></path>
                <path d="M5.2497,4.1223 C5.1737,4.1223 5.0967,4.1053 5.0237,4.0683 C4.7777,3.9433 4.6797,3.6423 4.8047,3.3963 L6.3877,0.2753 C6.5127,0.0283 6.8137,-0.0717 7.0597,0.0553 C7.3067,0.1803 7.4047,0.4813 7.2797,0.7273 L5.6957,3.8483 C5.6077,4.0223 5.4327,4.1223 5.2497,4.1223" id="Fill-4"></path>
                <path d="M14.7507,4.1223 C14.5677,4.1223 14.3927,4.0223 14.3047,3.8483 L12.7207,0.7273 C12.5957,0.4813 12.6937,0.1803 12.9407,0.0553 C13.1857,-0.0717 13.4867,0.0283 13.6127,0.2753 L15.1957,3.3963 C15.3207,3.6423 15.2227,3.9433 14.9767,4.0683 C14.9037,4.1053 14.8267,4.1223 14.7507,4.1223" id="Fill-7"></path>
            </g>
        </g>
    </g>
</svg>