<?xml version="1.0" encoding="UTF-8"?>
<svg width="20px" height="20px" viewBox="0 0 20 20" version="1.1" xmlns="http://www.w3.org/2000/svg" xmlns:xlink="http://www.w3.org/1999/xlink">
    <!-- Generator: Sketch 52.6 (67491) - http://www.bohemiancoding.com/sketch -->
    <title>Group 5</title>
    <desc>Created with Sketch.</desc>
    <g id="v3" stroke="none" stroke-width="1" fill="none" fill-rule="evenodd">
        <g id="V6.0" transform="translate(-15.000000, -152.000000)" fill="#161D25">
            <g id="Group-5" transform="translate(15.000000, 152.000000)">
                <path d="M13.2178,4.6622 C12.6318,5.2482 12.6318,6.1982 13.2178,6.7842 C13.8038,7.3702 14.7528,7.3702 15.3388,6.7842 C15.9248,6.1982 15.9248,5.2482 15.3388,4.6622 C14.7528,4.0772 13.8038,4.0772 13.2178,4.6622" id="Fill-1"></path>
                <path d="M18.9883,10.1129 C18.9693,10.5839 18.7753,11.0269 18.4413,11.3609 L11.3493,18.4529 C10.6193,19.1829 9.4293,19.1829 8.6993,18.4529 L1.5493,11.3009 C1.1953,10.9469 1.0003,10.4769 1.0003,9.9769 C1.0003,9.4759 1.1953,9.0059 1.5493,8.6519 L8.6403,1.5599 C8.9743,1.2269 9.4173,1.0319 9.8883,1.0129 L9.8863,0.9669 C10.5153,1.0119 12.3483,1.0099 18.1143,1.0029 L18.1143,1.0019 C18.3463,1.0109 18.5623,1.1059 18.7293,1.2719 C18.8953,1.4389 18.9903,1.6549 18.9993,1.8869 L18.9883,10.1129 Z M19.4363,0.5649 C19.0603,0.1889 18.5443,-0.0021 18.0083,0.0029 C17.0563,0.0039 9.9713,0.0139 9.8473,0.0139 C9.1253,0.0429 8.4453,0.3419 7.9333,0.8529 L0.8423,7.9449 C0.2993,8.4879 0.000299999998,9.2089 0.000299999998,9.9769 C0.000299999998,10.7439 0.2993,11.4659 0.8423,12.0089 L7.9923,19.1599 C8.5533,19.7199 9.2893,19.9999 10.0253,19.9999 C10.7603,19.9999 11.4973,19.7199 12.0563,19.1599 L19.1483,12.0679 C19.6603,11.5559 19.9583,10.8769 19.9883,10.1339 L19.9993,1.9939 C20.0173,1.4619 19.8123,0.9419 19.4363,0.5649 Z" id="Fill-3"></path>
            </g>
        </g>
    </g>
</svg>