<?xml version="1.0" encoding="UTF-8"?>
<svg width="20px" height="20px" viewBox="0 0 20 20" version="1.1" xmlns="http://www.w3.org/2000/svg" xmlns:xlink="http://www.w3.org/1999/xlink">
    <!-- Generator: Sketch 52.6 (67491) - http://www.bohemiancoding.com/sketch -->
    <title>Group 16</title>
    <desc>Created with Sketch.</desc>
    <g id="v3" stroke="none" stroke-width="1" fill="none" fill-rule="evenodd">
        <g id="V6.0-More" transform="translate(-256.000000, -398.000000)" fill="#161D25">
            <g id="Group-16" transform="translate(256.000000, 397.000000)">
                <path d="M15.2246,20.9978 L2.8746,20.9978 C1.2896,20.9978 -0.0004,19.7078 -0.0004,18.1228 L-0.0004,5.7728 C-0.0004,4.1878 1.2896,2.8978 2.8746,2.8978 L10.4746,2.8978 C10.7506,2.8978 10.9746,3.1218 10.9746,3.3978 C10.9746,3.6748 10.7506,3.8978 10.4746,3.8978 L2.8746,3.8978 C1.8416,3.8978 0.9996,4.7398 0.9996,5.7728 L0.9996,18.1228 C0.9996,19.1568 1.8416,19.9978 2.8746,19.9978 L15.2246,19.9978 C16.2586,19.9978 17.0996,19.1568 17.0996,18.1228 L17.0996,10.5228 C17.0996,10.2468 17.3236,10.0228 17.5996,10.0228 C17.8756,10.0228 18.0996,10.2468 18.0996,10.5228 L18.0996,18.1228 C18.0996,19.7078 16.8096,20.9978 15.2246,20.9978" id="Fill-1"></path>
                <path d="M9.5806,11.4172 L11.2246,11.4172 L18.6596,3.9822 C19.1126,3.5292 19.1126,2.7912 18.6596,2.3382 C18.2066,1.8852 17.4686,1.8852 17.0156,2.3382 L9.5806,9.7732 L9.5806,11.4172 Z M11.6386,12.4172 L8.5806,12.4172 L8.5806,9.3592 L16.3086,1.6312 C17.1506,0.7882 18.5226,0.7882 19.3666,1.6312 C20.2096,2.4742 20.2096,3.8462 19.3666,4.6892 L11.6386,12.4172 Z" id="Fill-4"></path>
            </g>
        </g>
    </g>
</svg>