<?xml version="1.0" encoding="UTF-8"?>
<svg width="20px" height="20px" viewBox="0 0 20 20" version="1.1" xmlns="http://www.w3.org/2000/svg" xmlns:xlink="http://www.w3.org/1999/xlink">
    <!-- Generator: Sketch 52.6 (67491) - http://www.bohemiancoding.com/sketch -->
    <title>Group 12</title>
    <desc>Created with Sketch.</desc>
    <g id="v3" stroke="none" stroke-width="1" fill="none" fill-rule="evenodd">
        <g id="V6.0-More" transform="translate(-256.000000, -357.000000)" fill="#161D25">
            <g id="Group-12" transform="translate(256.000000, 357.000000)">
                <path d="M3.2141,13.9277 C0.2611,10.9737 0.2611,6.1677 3.2141,3.2147 C4.6911,1.7387 6.6311,0.9997 8.5701,0.9997 C10.5101,0.9997 12.4501,1.7387 13.9271,3.2147 C16.8801,6.1677 16.8801,10.9737 13.9271,13.9277 C10.9751,16.8807 6.1681,16.8817 3.2141,13.9277 M19.8491,19.1427 L14.9701,14.2627 C17.9631,10.8997 17.8581,5.7317 14.6341,2.5077 C11.2901,-0.8363 5.8511,-0.8363 2.5071,2.5077 C-0.8359,5.8507 -0.8359,11.2907 2.5071,14.6347 C4.1791,16.3067 6.3741,17.1427 8.5701,17.1427 C10.6101,17.1427 12.6431,16.4117 14.2631,14.9697 L19.1421,19.8497 C19.2391,19.9477 19.3671,19.9957 19.4951,19.9957 C19.6231,19.9957 19.7511,19.9477 19.8491,19.8497 C20.0441,19.6547 20.0441,19.3377 19.8491,19.1427" id="Fill-1"></path>
                <path d="M12.4153,5.6987 L7.7303,10.3837 L4.7263,7.3777 C4.5303,7.1827 4.2143,7.1827 4.0193,7.3777 C3.8233,7.5737 3.8233,7.8897 4.0193,8.0847 L7.3773,11.4437 C7.4713,11.5377 7.5983,11.5907 7.7303,11.5907 C7.8633,11.5907 7.9903,11.5377 8.0843,11.4437 L13.1223,6.4057 C13.3173,6.2107 13.3173,5.8937 13.1223,5.6987 C12.9273,5.5037 12.6103,5.5037 12.4153,5.6987" id="Fill-4"></path>
            </g>
        </g>
    </g>
</svg>