<?xml version="1.0" encoding="UTF-8"?>
<svg width="20px" height="20px" viewBox="0 0 20 20" version="1.1" xmlns="http://www.w3.org/2000/svg" xmlns:xlink="http://www.w3.org/1999/xlink">
    <!-- Generator: Sketch 52.6 (67491) - http://www.bohemiancoding.com/sketch -->
    <title>Group 6</title>
    <desc>Created with Sketch.</desc>
    <g id="v3" stroke="none" stroke-width="1" fill="none" fill-rule="evenodd">
        <g id="V6.0" transform="translate(-15.000000, -480.000000)" fill="#161D25">
            <g id="Group-6" transform="translate(15.000000, 479.000000)">
                <path d="M16.0491,9.4448 C15.0111,9.1218 14.0451,8.5518 13.2451,7.7528 C12.4451,6.9528 11.8761,5.9858 11.5531,4.9488 C13.3931,4.2148 14.9841,4.2738 15.8541,5.1438 C16.7221,6.0128 16.7821,7.6058 16.0491,9.4448 M10.5411,4.3668 C10.5241,4.3898 10.5101,4.4128 10.4971,4.4378 C10.4821,4.4698 10.4691,4.5018 10.4611,4.5368 C10.4531,4.5638 10.4491,4.5908 10.4461,4.6198 C10.4441,4.6558 10.4451,4.6908 10.4501,4.7278 C10.4531,4.7438 10.4481,4.7588 10.4521,4.7758 C10.7821,6.1508 11.5031,7.4238 12.5381,8.4598 C13.5731,9.4948 14.8471,10.2158 16.2221,10.5458 C16.2611,10.5548 16.3001,10.5588 16.3391,10.5588 C16.5451,10.5588 16.7281,10.4268 16.8011,10.2298 C16.8061,10.2208 16.8171,10.2168 16.8211,10.2078 C17.1841,9.3968 17.4011,8.6168 17.4961,7.8858 C17.6021,7.9018 17.7061,7.9238 17.8131,7.9238 C19.0191,7.9238 20.0001,6.9418 20.0001,5.7358 C20.0001,5.4598 19.7771,5.2358 19.5001,5.2358 C19.2241,5.2358 19.0001,5.4598 19.0001,5.7358 C19.0001,6.3908 18.4671,6.9238 17.8131,6.9238 C17.7241,6.9238 17.6371,6.9128 17.5521,6.8938 C17.5081,5.9008 17.1761,5.0518 16.5611,4.4368 C15.9451,3.8208 15.0961,3.4898 14.1041,3.4458 C14.0851,3.3608 14.0741,3.2738 14.0741,3.1848 C14.0741,2.5298 14.6071,1.9978 15.2611,1.9978 C15.5381,1.9978 15.7611,1.7738 15.7611,1.4978 C15.7611,1.2208 15.5381,0.9978 15.2611,0.9978 C14.0551,0.9978 13.0741,1.9788 13.0741,3.1848 C13.0741,3.2928 13.0951,3.3958 13.1111,3.5008 C12.3631,3.5968 11.5631,3.8258 10.7311,4.2038 C10.7131,4.2128 10.7011,4.2268 10.6841,4.2378 C10.6581,4.2538 10.6341,4.2688 10.6121,4.2898 C10.5851,4.3128 10.5621,4.3388 10.5411,4.3668" id="Fill-1"></path>
                <path d="M13.3582,13.4086 C10.4412,16.3246 6.6562,17.4676 5.0932,15.9046 C4.3612,15.1736 4.1902,13.9366 4.6112,12.4236 C5.0592,10.8096 6.1172,9.1116 7.5882,7.6396 C8.0852,7.1426 8.6162,6.7106 9.1592,6.3116 C9.5002,7.5886 10.1682,8.8156 11.1742,9.8226 C12.1802,10.8286 13.4032,11.5086 14.6782,11.8486 C14.2812,12.3896 13.8502,12.9166 13.3582,13.4086 M19.0102,10.5096 C16.7972,11.6726 13.8652,11.0986 11.8812,9.1156 C9.8992,7.1336 9.3262,4.2016 10.4882,1.9876 C10.6172,1.7436 10.5232,1.4406 10.2782,1.3126 C10.0332,1.1846 9.7332,1.2796 9.6032,1.5226 C9.0082,2.6556 8.8172,3.9426 8.9562,5.2236 C8.2322,5.7176 7.5312,6.2826 6.8812,6.9326 C6.7032,7.1116 6.5322,7.2946 6.3652,7.4786 L4.8292,5.9426 C4.6342,5.7476 4.3172,5.7476 4.1222,5.9426 C3.9272,6.1376 3.9272,6.4546 4.1222,6.6496 L5.7172,8.2456 C5.2022,8.9006 4.7622,9.5816 4.4052,10.2686 C2.9522,10.0216 1.4962,10.2116 0.2682,10.8576 C0.0232,10.9856 -0.0708,11.2886 0.0572,11.5326 C0.1472,11.7026 0.3212,11.8006 0.5012,11.8006 C0.5792,11.8006 0.6582,11.7816 0.7332,11.7426 C1.6932,11.2386 2.8252,11.0696 3.9742,11.2136 C3.8482,11.5286 3.7342,11.8436 3.6472,12.1546 C3.1262,14.0316 3.3882,15.6136 4.3862,16.6116 C5.0672,17.2936 6.0042,17.6186 7.0802,17.6186 C7.9172,17.6186 8.8382,17.4136 9.7862,17.0326 C9.9272,18.1776 9.7582,19.3056 9.2542,20.2646 C9.1262,20.5096 9.2202,20.8116 9.4652,20.9396 C9.5392,20.9786 9.6192,20.9976 9.6972,20.9976 C9.8772,20.9976 10.0512,20.8996 10.1402,20.7296 C10.7852,19.5016 10.9752,18.0476 10.7302,16.5956 C11.4062,16.2426 12.0832,15.7996 12.7482,15.2746 L14.3482,16.8756 C14.4452,16.9726 14.5732,17.0216 14.7012,17.0216 C14.8292,17.0216 14.9572,16.9726 15.0552,16.8756 C15.2502,16.6796 15.2502,16.3636 15.0552,16.1686 L13.5132,14.6266 C13.6982,14.4596 13.8842,14.2966 14.0652,14.1156 C14.7082,13.4716 15.2702,12.7786 15.7612,12.0586 C16.0162,12.0876 16.2722,12.1036 16.5262,12.1036 C17.5542,12.1036 18.5652,11.8726 19.4752,11.3936 C19.7202,11.2656 19.8142,10.9636 19.6852,10.7196 C19.5572,10.4746 19.2562,10.3796 19.0102,10.5096" id="Fill-4"></path>
            </g>
        </g>
    </g>
</svg>