<?xml version="1.0" encoding="UTF-8"?>
<svg width="20px" height="20px" viewBox="0 0 20 20" version="1.1" xmlns="http://www.w3.org/2000/svg" xmlns:xlink="http://www.w3.org/1999/xlink">
    <!-- Generator: Sketch 52.6 (67491) - http://www.bohemiancoding.com/sketch -->
    <title>Group 11</title>
    <desc>Created with Sketch.</desc>
    <g id="v3" stroke="none" stroke-width="1" fill="none" fill-rule="evenodd">
        <g id="V6.0-More" transform="translate(-256.000000, -316.000000)" fill="#161D25">
            <g id="Group-11" transform="translate(256.000000, 316.000000)">
                <path d="M17.125,19 L2.875,19 C1.841,19 1,18.159 1,17.125 L1,5.036 C1.505,5.475 2.155,5.75 2.875,5.75 L17.125,5.75 C17.845,5.75 18.495,5.475 19,5.036 L19,17.125 C19,18.159 18.159,19 17.125,19 M2.875,1 L17.125,1 C18.159,1 19,1.841 19,2.875 C19,3.909 18.159,4.75 17.125,4.75 L2.875,4.75 C1.841,4.75 1,3.909 1,2.875 C1,1.841 1.841,1 2.875,1 M17.125,0 L2.875,0 C1.29,0 0,1.29 0,2.875 L0,17.125 C0,18.71 1.29,20 2.875,20 L17.125,20 C18.71,20 20,18.71 20,17.125 L20,2.875 C20,1.29 18.71,0 17.125,0" id="Fill-1"></path>
                <path d="M15.2256,8.0918 C14.9496,8.0918 14.7256,8.3158 14.7256,8.5918 C14.7256,11.1968 12.6056,13.3168 9.9996,13.3168 C7.3946,13.3168 5.2756,11.1968 5.2756,8.5918 C5.2756,8.3158 5.0516,8.0918 4.7756,8.0918 C4.4986,8.0918 4.2756,8.3158 4.2756,8.5918 C4.2756,11.7478 6.8436,14.3168 9.9996,14.3168 C13.1576,14.3168 15.7256,11.7478 15.7256,8.5918 C15.7256,8.3158 15.5016,8.0918 15.2256,8.0918" id="Fill-3"></path>
            </g>
        </g>
    </g>
</svg>