<?xml version="1.0" encoding="UTF-8"?>
<svg width="20px" height="18px" viewBox="0 0 20 18" version="1.1" xmlns="http://www.w3.org/2000/svg" xmlns:xlink="http://www.w3.org/1999/xlink">
    <!-- Generator: Sketch 52.6 (67491) - http://www.bohemiancoding.com/sketch -->
    <title>Fill 1</title>
    <desc>Created with Sketch.</desc>
    <g id="v3" stroke="none" stroke-width="1" fill="none" fill-rule="evenodd">
        <g id="V6.0" transform="translate(-15.000000, -358.000000)" fill="#161D25">
            <path d="M31.5,375 L18.5,375 C17.122,375 16,373.878 16,372.5 L16,365.57 L24.841,368.537 C24.893,368.554 24.946,368.563 25,368.563 C25.054,368.563 25.107,368.554 25.159,368.537 L34,365.57 L34,372.5 C34,373.878 32.878,375 31.5,375 M18.5,359 L31.5,359 C32.878,359 34,360.122 34,361.5 L34,364.515 L25,367.535 L16,364.515 L16,361.5 C16,360.122 17.122,359 18.5,359 M31.5,358 L18.5,358 C16.57,358 15,359.57 15,361.5 L15,372.5 C15,374.43 16.57,376 18.5,376 L31.5,376 C33.43,376 35,374.43 35,372.5 L35,361.5 C35,359.57 33.43,358 31.5,358" id="Fill-1"></path>
        </g>
    </g>
</svg>