<?xml version="1.0" encoding="UTF-8"?>
<svg width="16px" height="16px" viewBox="0 0 16 16" version="1.1" xmlns="http://www.w3.org/2000/svg" xmlns:xlink="http://www.w3.org/1999/xlink">
    <!-- Generator: Sketch 52.6 (67491) - http://www.bohemiancoding.com/sketch -->
    <title>Fill 1</title>
    <desc>Created with Sketch.</desc>
    <g id="v3" stroke="none" stroke-width="1" fill="none" fill-rule="evenodd">
        <g id="V6.0" transform="translate(-266.000000, -160.000000)" fill="#2E3D4E">
            <g id="Group-18" transform="translate(266.000000, 159.000000)">
                <path d="M0.4,1 L15.6,1 C15.8208,1 16,1.1792 16,1.4 L16,4.45553491 C16,4.79520431 15.8275798,5.11164995 15.5421651,5.29580686 L10.2578349,8.70539314 C9.97242018,8.88955005 9.8,9.20599569 9.8,9.54566509 L9.8,16.1502428 C9.8,16.4263851 9.57614237,16.6502428 9.3,16.6502428 C9.21502788,16.6502428 9.13145754,16.6285875 9.05717853,16.5873214 L6.71435707,15.2857539 C6.39689188,15.1093844 6.2,14.7747638 6.2,14.4115967 L6.2,9.54566509 C6.2,9.20599569 6.02757982,8.88955005 5.74216515,8.70539314 L0.457834852,5.29580686 C0.172420181,5.11164995 -6.94247978e-17,4.79520431 -1.11022302e-16,4.45553491 L0,1.4 C0,1.1792 0.1792,1 0.4,1 L15.6,1" id="Fill-1"></path>
            </g>
        </g>
    </g>
</svg>