<?xml version="1.0" encoding="UTF-8"?>
<svg width="16px" height="16px" viewBox="0 0 16 16" version="1.1" xmlns="http://www.w3.org/2000/svg" xmlns:xlink="http://www.w3.org/1999/xlink">
    <!-- Generator: Sketch 52.6 (67491) - http://www.bohemiancoding.com/sketch -->
    <title>Group 11</title>
    <desc>Created with Sketch.</desc>
    <g id="v3" stroke="none" stroke-width="1" fill="none" fill-rule="evenodd">
        <g id="V6.0" transform="translate(-957.000000, -153.000000)">
            <g id="Group-11" transform="translate(957.000000, 153.000000)">
                <path d="M0,8 C0,12.411 3.589,16 8,16 C12.411,16 16,12.411 16,8 C16,3.589 12.411,0 8,0 C3.589,0 0,3.589 0,8 Z" id="Fill-3" fill="#161D25"></path>
                <path d="M5.2853,7.498 L7.8543,4.93 C8.0493,4.734 8.0493,4.418 7.8543,4.223 C7.6583,4.027 7.3423,4.027 7.1473,4.223 L3.7293,7.64 C3.6803,7.687 3.6413,7.745 3.6143,7.81 C3.5973,7.852 3.5923,7.897 3.5883,7.943 C3.5853,7.962 3.5763,7.978 3.5763,7.998 C3.5763,8.064 3.5903,8.13 3.6153,8.191 C3.6233,8.21 3.6383,8.223 3.6473,8.239 C3.6693,8.279 3.6893,8.32 3.7233,8.353 L7.1473,11.777 C7.2443,11.875 7.3723,11.924 7.5003,11.924 C7.6283,11.924 7.7563,11.875 7.8543,11.777 C8.0493,11.582 8.0493,11.266 7.8543,11.07 L5.2813,8.498 L11.9233,8.498 C12.1993,8.498 12.4233,8.274 12.4233,7.998 C12.4233,7.722 12.1993,7.498 11.9233,7.498 L5.2853,7.498 Z" id="Fill-1" fill="#FFFFFF"></path>
            </g>
        </g>
    </g>
</svg>