<svg width="10" height="10" viewBox="0 0 10 10" fill="none" xmlns="http://www.w3.org/2000/svg">
    <path d="M5.88797 5.93824L8.7023 5.93824C9.04765 5.93824 9.32762 5.65827 9.32776 5.31277L9.32776 4.68731C9.32776 4.34195 9.04779 4.06198 8.7023 4.06184L5.88797 4.06184L5.88797 1.24751C5.88797 0.902156 5.608 0.622186 5.2625 0.622045L4.63703 0.622045C4.29168 0.622045 4.01171 0.902015 4.01157 1.24751L4.01157 4.06184L1.19724 4.06184C0.851883 4.06184 0.571913 4.34181 0.571773 4.68731L0.571773 5.31277C0.571773 5.65813 0.851883 5.93824 1.19724 5.93824L4.01157 5.93824L4.01157 8.75257C4.01157 9.09793 4.29168 9.37804 4.63703 9.37804H5.2625C5.60786 9.37804 5.88783 9.09807 5.88797 8.75257L5.88797 5.93824Z" fill="white"/>
</svg>
