<svg width="14" height="14" viewBox="0 0 14 14" fill="none" xmlns="http://www.w3.org/2000/svg">
<circle cx="7" cy="7" r="7" fill="#43B0E6"/>
<path d="M8.13727 7L9.84301 5.29426C10.0523 5.08494 10.0523 4.74557 9.84301 4.53608L9.46392 4.15699C9.2546 3.94767 8.91523 3.94767 8.70574 4.15699L7 5.86273L5.29426 4.15699C5.08494 3.94767 4.74557 3.94767 4.53608 4.15699L4.15699 4.53608C3.94767 4.7454 3.94767 5.08477 4.15699 5.29426L5.86273 7L4.15699 8.70574C3.94767 8.91506 3.94767 9.25443 4.15699 9.46392L4.53608 9.84301C4.7454 10.0523 5.08494 10.0523 5.29426 9.84301L7 8.13727L8.70574 9.84301C8.91506 10.0523 9.2546 10.0523 9.46392 9.84301L9.84301 9.46392C10.0523 9.2546 10.0523 8.91523 9.84301 8.70574L8.13727 7Z" fill="white"/>
</svg>
