<?xml version="1.0" encoding="UTF-8"?>
<svg width="13px" height="7px" viewBox="0 0 13 7" version="1.1" xmlns="http://www.w3.org/2000/svg" xmlns:xlink="http://www.w3.org/1999/xlink">
    <!-- Generator: Sketch 52.6 (67491) - http://www.bohemiancoding.com/sketch -->
    <title>Fill 1</title>
    <desc>Created with Sketch.</desc>
    <g id="v3" stroke="none" stroke-width="1" fill="none" fill-rule="evenodd">
        <g id="V6.0" transform="translate(-398.000000, -166.000000)" fill="#2E3D4E">
            <path d="M401.708812,175.791688 C401.580812,175.791688 401.452812,175.742688 401.354812,175.645688 C401.159812,175.449688 401.159812,175.133688 401.354812,174.937688 L406.645812,169.647688 C406.841812,169.451688 406.841812,169.131688 406.645812,168.935688 L401.354812,163.645688 C401.159812,163.449688 401.159812,163.133688 401.354812,162.937688 C401.550812,162.742688 401.866812,162.742688 402.062812,162.937688 L407.352812,168.228688 C407.937812,168.814688 407.937812,169.768688 407.353812,170.354688 L402.062812,175.645688 C401.964812,175.742688 401.836812,175.791688 401.708812,175.791688" id="Fill-1" transform="translate(404.500125, 169.291563) rotate(-270.000000) translate(-404.500125, -169.291563) "></path>
        </g>
    </g>
</svg>