<?xml version="1.0" encoding="UTF-8"?>
<svg width="16px" height="16px" viewBox="0 0 16 16" version="1.1" xmlns="http://www.w3.org/2000/svg" xmlns:xlink="http://www.w3.org/1999/xlink">
    <!-- Generator: Sketch 52.6 (67491) - http://www.bohemiancoding.com/sketch -->
    <title>Fill 1</title>
    <desc>Created with Sketch.</desc>
    <g id="v3" stroke="none" stroke-width="1" fill="none" fill-rule="evenodd">
        <g id="V6.0" transform="translate(-465.000000, -222.000000)" fill="#2E3D4E">
            <path d="M473,232.4 C471.6744,232.4 470.6,231.3252 470.6,230 C470.6,228.6748 471.6744,227.6 473,227.6 C474.3252,227.6 475.4,228.6748 475.4,230 C475.4,231.3252 474.3252,232.4 473,232.4 Z M481,230.55644 L481,229.443541 C481,229.228344 480.862309,229.037287 480.658162,228.969215 L478.6512,228.3 C478.5364,227.9176 478.384,227.552 478.198,227.2068 L479.143811,225.313469 C479.239959,225.120999 479.202203,224.888603 479.05007,224.73647 L478.263207,223.949607 C478.111037,223.797437 477.878569,223.759704 477.68608,223.855931 L475.7936,224.802 C475.4492,224.6164 475.0828,224.4636 474.7,224.3488 L474.030419,222.341765 C473.962324,222.137656 473.771286,222 473.556117,222 L472.443541,222 C472.228344,222 472.037287,222.137691 471.969215,222.341838 L471.318094,224.294536 C471.306751,224.328554 471.279554,224.354919 471.2452,224.3652 C470.8744,224.4808 470.5188,224.6316 470.1832,224.8144 L470.1832,224.8144 C470.189769,224.810827 470.192198,224.802606 470.188626,224.796037 C470.187302,224.793603 470.185263,224.791634 470.182785,224.790395 L468.31352,223.855931 C468.121031,223.759704 467.888563,223.797437 467.736393,223.949607 L466.949588,224.736412 C466.797427,224.888573 466.759688,225.121023 466.855896,225.313508 L467.802,227.2064 C467.616,227.5516 467.4632,227.9176 467.3488,228.3 L465.341838,228.969215 C465.137691,229.037287 465,229.228344 465,229.443541 L465,230.556459 C465,230.771656 465.137691,230.962713 465.341838,231.030785 L467.3488,231.7 C467.4636,232.0824 467.6164,232.4492 467.8024,232.7948 L466.856083,234.686067 C466.759769,234.878556 466.79745,235.111081 466.949624,235.263302 L467.73639,236.050312 C467.888558,236.202526 468.121058,236.240283 468.313573,236.144043 L470.206,235.198 C470.55,235.3832 470.9156,235.5356 471.2976,235.6508 L471.969023,237.658574 C472.037222,237.86251 472.228175,238 472.443211,238 L473.556117,238 C473.771286,238 473.962324,237.862344 474.030419,237.658235 L474.7,235.6512 C475.0824,235.5364 475.4484,235.384 475.794,235.198 L477.686014,236.144007 C477.878534,236.240267 478.111052,236.202516 478.263229,236.050292 L479.3048,235.0084 C479.3048,235.0084 478.198,232.7936 478.198,232.7932 C478.384,232.448 478.5364,232.0824 478.6508,231.7 L480.658138,231.030773 C480.862297,230.962709 481,230.771646 481,230.55644 Z" id="Fill-1"></path>
        </g>
    </g>
</svg>