<svg width="14" height="13" viewBox="0 0 14 13" fill="none" xmlns="http://www.w3.org/2000/svg">
    <path d="M13.8422 10.6041C14.2908 11.3752 13.7277 12.339 12.8316 12.339H1.16774C0.269968 12.339 -0.290567 11.3737 0.15719 10.6041L5.98921 0.578028C6.43806 -0.193375 7.56227 -0.191977 8.01031 0.578028L13.8422 10.6041ZM6.99976 8.53125C6.38228 8.53125 5.88171 9.02758 5.88171 9.63983C5.88171 10.2521 6.38228 10.7484 6.99976 10.7484C7.61725 10.7484 8.11782 10.2521 8.11782 9.63983C8.11782 9.02758 7.61725 8.53125 6.99976 8.53125ZM5.93827 4.54648L6.11857 7.82402C6.127 7.97739 6.25489 8.09746 6.40979 8.09746H7.58973C7.74463 8.09746 7.87253 7.97739 7.88096 7.82402L8.06126 4.54648C8.07037 4.38082 7.93735 4.24153 7.77003 4.24153H6.22947C6.06215 4.24153 5.92915 4.38082 5.93827 4.54648Z" fill="#FFBB0D"/>
</svg>
