<?xml version="1.0" encoding="UTF-8"?>
<svg width="14px" height="14px" viewBox="0 0 14 14" version="1.1" xmlns="http://www.w3.org/2000/svg" xmlns:xlink="http://www.w3.org/1999/xlink">
    <!-- Generator: Sketch 52.6 (67491) - http://www.bohemiancoding.com/sketch -->
    <title>Fill 3</title>
    <desc>Created with Sketch.</desc>
    <g id="v3" stroke="none" stroke-width="1" fill="none" fill-rule="evenodd">
        <g id="V6.0" transform="translate(-911.000000, -74.000000)" fill="#FFFFFF">
            <path d="M918.707751,81.00025 L924.853751,74.87625 C925.048751,74.68125 925.049751,74.36525 924.853751,74.16925 C924.659751,73.97325 924.342751,73.97325 924.146751,74.16825 L918.000751,80.29325 L911.853751,74.14625 C911.658751,73.95125 911.341751,73.95125 911.146751,74.14625 C910.951751,74.34125 910.951751,74.65825 911.146751,74.85325 L917.292751,80.99925 L911.146751,87.12325 C910.951751,87.31725 910.950751,87.63425 911.145751,87.83025 C911.243751,87.92825 911.371751,87.97725 911.499751,87.97725 C911.627751,87.97725 911.755751,87.92825 911.853751,87.83125 L917.999751,81.70625 L924.146751,87.85325 C924.244751,87.95125 924.372751,88.00025 924.499751,88.00025 C924.627751,88.00025 924.755751,87.95125 924.853751,87.85325 C925.048751,87.65825 925.048751,87.34125 924.853751,87.14625 L918.707751,81.00025 Z" id="Fill-3"></path>
        </g>
    </g>
</svg>