<?xml version="1.0" encoding="UTF-8"?>
<svg width="16px" height="16px" viewBox="0 0 16 16" version="1.1" xmlns="http://www.w3.org/2000/svg" xmlns:xlink="http://www.w3.org/1999/xlink">
    <!-- Generator: Sketch 52.6 (67491) - http://www.bohemiancoding.com/sketch -->
    <title>Fill 1</title>
    <desc>Created with Sketch.</desc>
    <g id="v3" stroke="none" stroke-width="1" fill="none" fill-rule="evenodd">
        <g id="V6.0" transform="translate(-880.000000, -73.000000)" fill="#FFFFFF">
            <path d="M883.5,74 C882.122,74 881,75.122 881,76.5 L881,85.5 C881,86.878 882.122,88 883.5,88 L892.5,88 C893.878,88 895,86.878 895,85.5 L895,76.5 C895,75.122 893.878,74 892.5,74 L883.5,74 Z M892.5,89 L883.5,89 C881.57,89 880,87.43 880,85.5 L880,76.5 C880,74.57 881.57,73 883.5,73 L892.5,73 C894.43,73 896,74.57 896,76.5 L896,85.5 C896,87.43 894.43,89 892.5,89 Z" id="Fill-1"></path>
        </g>
    </g>
</svg>