<?xml version="1.0" encoding="UTF-8"?>
<svg width="60px" height="34px" viewBox="0 0 60 34" version="1.1" xmlns="http://www.w3.org/2000/svg" xmlns:xlink="http://www.w3.org/1999/xlink">
    <!-- Generator: Sketch 52.6 (67491) - http://www.bohemiancoding.com/sketch -->
    <title>Group 20</title>
    <desc>Created with Sketch.</desc>
    <defs>
        <polygon id="path-1" points="0 0.497407545 13.6400485 0.497407545 13.6400485 19.1763692 0 19.1763692"></polygon>
    </defs>
    <g id="Contacts" stroke="none" stroke-width="1" fill="none" fill-rule="evenodd">
        <g id="Contact-(desktop)" transform="translate(-740.000000, -800.000000)">
            <g id="Group-2">
                <g id="Group-20" transform="translate(740.000000, 800.000000)">
                    <path d="M58.6928571,22.7723571 C58.6928571,23.4813857 58.6319048,24.1800429 58.51,24.8551286 C55.4052381,20.4915857 50.9709524,17.0727857 45.9357143,15.1653857 C30.6242857,14.9664429 15.2795238,18.7388143 1.8452381,26.0139 C1.83761905,26.0167286 1.82714286,26.0242714 1.82047619,26.0271 C1.03380952,24.6533571 0.585238095,23.0646429 0.585238095,21.3722143 C0.585238095,16.1289857 4.88142857,11.8795286 10.1738095,11.8795286 C10.6795238,11.8795286 11.1738095,11.9172429 11.6557143,11.9936143 C13.1119048,5.14187143 19.2490476,0.000471428571 26.6014286,0.000471428571 C29.97,0.000471428571 33.0804762,1.08192857 35.6052381,2.91201429 C37.1452381,2.20958571 38.862381,1.81735714 40.6671429,1.81735714 C46.8928571,1.81735714 52.022381,6.44867143 52.7347619,12.4207286 C56.3004762,14.5204714 58.6928571,18.3692143 58.6928571,22.7723571" id="Fill-1" fill="#3F72BA"></path>
                    <path d="M6.54342857,31.4238257 L55.372,30.9589971 C55.3929524,30.5988257 56.4339048,29.5786543 56.4548571,29.2184829 C57.9510476,25.5403971 58.4539048,26.5492543 58.6272381,23.9526257 C58.8015238,21.3550543 57.6072381,18.7056257 55.539619,17.0989971 C54.3034286,16.1391686 52.7786667,15.5253686 51.7510476,14.3486829 C49.8053333,12.1197686 50.079619,8.38134 47.7110476,6.59745429 C46.6958095,5.83279714 41.664381,3.55296857 40.4224762,3.84148286 C35.2539048,5.03985429 33.484381,5.63856857 33.3691429,3.56239714 C33.2929524,2.17734 30.604381,3.09379714 29.204381,3.02779714 C25.4329524,2.84959714 21.7310476,3.10888286 18.6348571,5.24634 C15.5377143,7.38379714 13.0653333,11.3881114 11.9291429,14.9521114 C8.43961905,14.2581686 4.60438095,15.7450543 2.51771429,18.6009686 C0.431047619,21.4568829 0.42152381,23.9950543 2.18057143,27.05934 C3.20057143,28.8366257 4.82533333,30.4592829 6.54342857,31.4238257" id="Fill-3" fill="#FFFFFF"></path>
                    <path d="M33.5812381,5.51411143 C34.9812381,3.83016857 37.218381,3.09945429 39.3564762,2.82791143 C41.526,2.60351143 43.7850476,2.92691143 45.7774286,3.88768286 C46.7717143,4.36099714 47.7040952,4.97102571 48.518381,5.71211143 C49.3498095,6.43339714 50.0669524,7.28385429 50.6526667,8.21539714 C51.8450476,10.0662257 52.438381,12.2894829 52.4279048,14.4646543 L52.4279048,14.4655971 L51.438381,13.3039971 C52.2402857,13.44354 53.0374286,13.6471971 53.7888571,13.9743686 C54.5279048,14.3175686 55.2450476,14.7211114 55.8774286,15.2368543 C57.1317143,16.2645686 58.1764762,17.58834 58.7145714,19.11294 C59.1326667,20.6695971 59.3440952,22.2488829 59.1164762,23.7979971 C58.8898095,25.3423971 58.2564762,26.8038257 57.3526667,28.0465114 C57.118381,28.3680257 56.666,28.4406257 56.3412381,28.2096257 C56.0221905,27.9823971 55.9488571,27.54114 56.1688571,27.2205686 C56.9069524,26.1494829 57.3307619,24.8841686 57.4040952,23.6131971 C57.453619,22.35354 57.3040952,21.0316543 56.5955238,19.9850829 C56.0507619,18.8894829 55.306,17.8900543 54.3317143,17.1499114 C53.3755238,16.3909114 52.238381,15.8827114 51.0374286,15.62814 L50.9974286,15.6187114 C50.4364762,15.4999114 50.0517143,15.0105686 50.0469524,14.4655971 L50.0469524,14.4646543 C50.0079048,12.69774 49.5564762,10.9572257 48.6069524,9.46845429 C48.1545714,8.71699714 47.5917143,8.02494 46.9326667,7.43659714 C46.2907619,6.82939714 45.5469524,6.32779714 44.753619,5.93368286 C43.1812381,5.10208286 41.358381,4.77302571 39.5621905,4.88805429 C38.6640952,4.95216857 37.7774286,5.15582571 36.9298095,5.46508286 C36.078381,5.77622571 35.2640952,6.15431143 34.366,6.51825429 L34.338381,6.52956857 C34.0021905,6.66628286 33.618381,6.50788286 33.4812381,6.17505429 C33.386,5.94594 33.433619,5.69325429 33.5812381,5.51411143" id="Fill-5" fill="#717791"></path>
                    <path d="M31.3611429,7.63921714 C31.1830476,7.37616 31.1620952,7.21964571 31.184,7.09801714 C31.2297143,6.98676 31.2944762,6.94056 31.376381,6.85004571 C31.531619,6.68127429 31.756381,6.51344571 32.0001905,6.41350286 C32.5611429,6.18250286 33.2049524,6.44461714 33.4382857,7.00090286 C33.5373333,7.23567429 33.5468571,7.48553143 33.4820952,7.71370286 L33.4220952,7.92301714 C33.3744762,8.09084571 33.3306667,8.21436 33.2373333,8.35201714 C33.1944762,8.41518857 33.131619,8.52267429 33.056381,8.56604571 C32.9573333,8.60093143 32.8135238,8.59998857 32.5144762,8.49156 L32.4173333,8.45761714 C31.9697143,8.29638857 31.6078095,8.00410286 31.3611429,7.63921714" id="Fill-7" fill="#717791"></path>
                    <path d="M12.4604762,18.5594829 C12.2509524,17.8740257 12.0557143,17.1829114 11.9128571,16.4748257 C11.8385714,16.1203114 11.7652381,15.7639114 11.7119048,15.3980829 C11.6861905,15.2142257 11.6604762,15.0322543 11.6452381,14.8333114 C11.6385714,14.75034 11.63,14.5872257 11.6385714,14.5089686 L11.6728571,14.2364829 C11.8490476,12.7844829 12.2633333,11.3617114 12.8652381,10.02474 C14.0766667,7.35268286 16.11,5.05682571 18.6252381,3.50676857 C21.1395238,1.95294 24.1357143,1.17131143 27.097619,1.28068286 C30.062381,1.37402571 33.0109524,2.34894 35.43,4.08285429 L35.4347619,4.08568286 C35.9680952,4.46754 36.0871429,5.20391143 35.7014286,5.73191143 C35.3157143,6.25896857 34.5719048,6.37682571 34.0395238,5.99591143 C34.0347619,5.99214 34.0261905,5.98554 34.0214286,5.98176857 C32.0109524,4.48356857 29.542381,3.59162571 27.0109524,3.47659714 C24.477619,3.36628286 21.9252381,4.01308286 19.7614286,5.32648286 C17.5995238,6.63799714 15.8366667,8.59819714 14.7795238,10.8855686 C14.2557143,12.0301971 13.8890476,13.2483686 13.7290476,14.4985971 C13.6214286,15.0237686 13.5052381,15.6894257 13.482381,16.3333971 C13.4633333,16.9801971 13.4928571,17.63454 13.617619,18.2690829 L13.6185714,18.2766257 C13.6804762,18.5971971 13.4690476,18.9073971 13.1452381,18.9696257 C12.842381,19.0261971 12.5490476,18.8451686 12.4604762,18.5594829" id="Fill-9" fill="#717791"></path>
                    <g id="Group-13" transform="translate(0.000000, 12.492857)">
                        <mask id="mask-2" fill="white">
                            <use xlink:href="#path-1"></use>
                        </mask>
                        <g id="Clip-12"></g>
                        <path d="M5.7352381,19.1376429 C3.56190476,18.2032714 1.74380952,16.4071286 0.795238095,14.1895286 C0.308571429,13.0873286 0.0542857143,11.8842429 0.0019047619,10.6726714 C-0.0228571429,9.4611 0.172380952,8.23538571 0.593333333,7.0851 C1.42666667,4.77792857 3.16666667,2.79321429 5.39333333,1.64104286 C7.6152381,0.4719 10.2990476,0.182442857 12.752381,0.849985714 L12.7647619,0.852814286 C13.3990476,1.02535714 13.7714286,1.67404286 13.5971429,2.30198571 C13.4228571,2.92992857 12.767619,3.29858571 12.1342857,3.12604286 C12.1228571,3.12321429 12.1066667,3.1185 12.0961905,3.11567143 C10.2304762,2.54147143 8.13619048,2.7027 6.34761905,3.53147143 C4.54952381,4.35741429 3.06571429,5.88295714 2.3,7.73284286 C1.52571429,9.57612857 1.46285714,11.7324429 2.15142857,13.6587 C2.83333333,15.5953286 4.29904762,17.2566429 6.15619048,18.2815286 L6.16095238,18.2843571 C6.39333333,18.4116429 6.47619048,18.7020429 6.34761905,18.9321 C6.22666667,19.1480143 5.95904762,19.2328714 5.7352381,19.1376429" id="Fill-11" fill="#717791" mask="url(#mask-2)"></path>
                    </g>
                    <path d="M36.5025714,21.1960886 L33.9768571,21.1960886 C33.6111429,21.1960886 33.3130476,21.49026 33.3130476,21.8523171 L33.3130476,31.1422886 C33.3130476,31.64766 32.9006667,32.0578029 32.3901905,32.0578029 L28.8301905,32.0578029 C28.3197143,32.0578029 27.906381,31.64766 27.906381,31.1422886 L27.906381,21.8523171 C27.906381,21.49026 27.6092381,21.1960886 27.2425714,21.1960886 L24.7178095,21.1960886 C24.0549524,21.1960886 23.6873333,20.4361457 24.1025714,19.9241743 L29.5873333,13.1752029 C30.1130476,12.52746 31.1092381,12.52746 31.6349524,13.1752029 L37.1178095,19.9251171 C37.5330476,20.4361457 37.1654286,21.1960886 36.5025714,21.1960886" id="Fill-14" fill="#B8D4FF"></path>
                    <path d="M27.906,27.84804 L27.906,27.7075543" id="Stroke-16" stroke="#717791" stroke-width="2.5" stroke-linecap="round" stroke-linejoin="round"></path>
                    <path d="M27.906,25.1018743 L27.906,21.8527886 C27.906,21.4897886 27.6088571,21.1956171 27.2431429,21.1956171 L24.7174286,21.1956171 C24.0545714,21.1956171 23.6869524,20.4356743 24.1031429,19.9246457 L29.5879048,13.1747314 C30.1126667,12.5279314 31.1088571,12.5279314 31.6345714,13.1747314 L37.1174286,19.9246457 C37.5326667,20.4366171 37.166,21.1956171 36.5021905,21.1956171 L33.9764762,21.1956171 C33.6107619,21.1956171 33.313619,21.4897886 33.313619,21.8527886 L33.313619,31.14276 C33.313619,31.6471886 32.9002857,32.0573314 32.3898095,32.0573314 L28.8307619,32.0573314 C28.3202857,32.0573314 27.906,31.6471886 27.906,31.14276 L27.906,29.7520457" id="Stroke-18" stroke="#717791" stroke-width="2.5" stroke-linecap="round" stroke-linejoin="round"></path>
                </g>
            </g>
        </g>
    </g>
</svg>