<?xml version="1.0" encoding="UTF-8"?>
<svg width="42px" height="39px" viewBox="0 0 42 39" version="1.1" xmlns="http://www.w3.org/2000/svg" xmlns:xlink="http://www.w3.org/1999/xlink">
    <!-- Generator: Sketch 52.6 (67491) - http://www.bohemiancoding.com/sketch -->
    <title>Group 11</title>
    <desc>Created with Sketch.</desc>
    <defs>
        <polygon id="path-1" points="0.360580697 0.00982902471 35.512007 0.00982902471 35.512007 36.1904762 0.360580697 36.1904762"></polygon>
        <polygon id="path-3" points="0.186724555 0.0619047619 15.9765392 0.0619047619 15.9765392 18.2539813 0.186724555 18.2539813"></polygon>
    </defs>
    <g id="Contacts" stroke="none" stroke-width="1" fill="none" fill-rule="evenodd">
        <g id="Contact-(desktop)" transform="translate(-748.000000, -868.000000)">
            <g id="Group-2">
                <g id="Group-11" transform="translate(749.000000, 867.000000)">
                    <g id="Group-3" transform="translate(0.000000, 3.747810)">
                        <mask id="mask-2" fill="white">
                            <use xlink:href="#path-1"></use>
                        </mask>
                        <g id="Clip-2"></g>
                        <path d="M29.2876349,33.2407619 C25.6262395,35.8369524 20.2314023,36.7712381 16.0408209,35.8369524 C9.80596047,34.4540952 4.0135186,30.6226667 1.56400698,24.4112381 C-0.895993023,18.2055238 0.512309302,10.6645714 4.90407674,5.48266667 C8.98596047,0.656 16.5738209,-1.68209524 21.941007,1.40266667 C21.8647279,1.42171429 21.7874953,1.416 21.7112163,1.38552381 C21.8046581,1.43790476 21.896193,1.49885714 21.9905884,1.55219048 C20.8931233,7.62552381 20.3229372,12.2426667 19.235007,18.3102857 C24.725193,18.0988571 30.2096581,18.6540952 35.512007,19.9312381 C35.4719605,25.0998095 33.3676116,30.3379048 29.2876349,33.2407619" id="Fill-1" fill="#B8D4FF" mask="url(#mask-2)"></path>
                    </g>
                    <path d="M21.0330953,13.7942857 L20.612607,17.5780952 C20.4295372,18.5933333 20.2483744,19.607619 20.0662581,20.6209524 C25.5564442,20.4095238 31.0409093,20.9647619 36.3442116,22.2419048 C36.3041651,27.4104762 34.1998163,32.6485714 30.1179326,35.5514286 C26.4565372,38.147619 21.0626535,39.0819048 16.8730256,38.147619 C10.6372116,36.7657143 4.84381628,32.9342857 2.39430465,26.7228571 C-0.0647418605,20.5171429 1.34451395,12.9761905 5.73532791,7.79333333 C9.81721163,2.96666667 17.4050721,0.628571429 22.7722581,3.71333333" id="Stroke-4" stroke="#717791" stroke-width="2.5" stroke-linecap="round" stroke-linejoin="round"></path>
                    <path d="M39.7592256,18.7766667 L24.9973186,16.4033333 L26.7822488,2.03857143 L27.057807,2.08333333 C35.1176442,3.37857143 40.6793419,10.7709524 39.7592256,18.7766667" id="Fill-6" fill="#A9EBC8"></path>
                    <g id="Group-10" transform="translate(24.790698, 0.890667)">
                        <mask id="mask-4" fill="white">
                            <use xlink:href="#path-3"></use>
                        </mask>
                        <g id="Clip-9"></g>
                        <path d="M0.187646512,12.0465714 L0.513739535,6.52657143 C0.625297674,4.68561905 0.743530233,2.84752381 0.917065116,1.01514286 C0.970460465,0.437047619 1.4843907,0.0122857143 2.06411163,0.0665714286 L2.11369302,0.0722857143 L2.16327442,0.0799047619 C4.19325116,0.375142857 6.24897209,1.03038095 8.0768093,2.058 C9.9218093,3.07228571 11.5589488,4.46752381 12.8633209,6.12847619 C14.1648326,7.79133333 15.108786,9.73133333 15.6322512,11.7684762 C16.1232977,13.810381 16.1185302,15.9884762 15.4262977,17.9389524 C15.3404837,18.1846667 15.0687395,18.3141905 14.8227395,18.2265714 C14.6482512,18.1646667 14.5328791,18.0122857 14.5099953,17.8408571 L14.5099953,17.8332381 C14.2620884,15.9046667 13.9464837,14.1189524 13.3791581,12.4008571 C12.8432977,10.6789524 11.9851581,9.07514286 10.8886465,7.65704762 C9.79785581,6.23419048 8.44199535,5.01228571 6.90687907,4.07038095 C5.36032093,3.12466667 3.6488093,2.52847619 1.8200186,2.21704762 L3.0671814,1.28180952 C2.78590233,3.09990476 2.45122791,4.91228571 2.10797209,6.72371429 L1.07343721,12.1560952 C1.02671628,12.3989524 0.793111628,12.558 0.549972093,12.5113333 C0.326855814,12.4694286 0.173344186,12.2675238 0.187646512,12.0465714" id="Fill-8" fill="#717791" mask="url(#mask-4)"></path>
                    </g>
                </g>
            </g>
        </g>
    </g>
</svg>