<?xml version="1.0" encoding="UTF-8"?>
<svg width="44px" height="44px" viewBox="0 0 44 44" version="1.1" xmlns="http://www.w3.org/2000/svg" xmlns:xlink="http://www.w3.org/1999/xlink">
    <!-- Generator: Sketch 52.6 (67491) - http://www.bohemiancoding.com/sketch -->
    <title>Group 15</title>
    <desc>Created with Sketch.</desc>
    <g id="Contacts" stroke="none" stroke-width="1" fill="none" fill-rule="evenodd" stroke-linecap="round" stroke-linejoin="round">
        <g id="Contact-(desktop)" transform="translate(-748.000000, -1007.000000)">
            <g id="Group-2">
                <g id="Group-15" transform="translate(750.000000, 1009.000000)">
                    <path d="M8.80203774,2.90030189 C8.90845283,3.00709434 9.01411321,3.11426415 9.12015094,3.22181132 C9.73864151,3.85011321 10.3827925,4.48860377 10.9990189,5.15388679 C11.2793962,5.4565283 11.4899623,5.48218868 11.8767547,5.30218868 C13.1582642,4.70483019 14.470717,4.17388679 15.8314717,3.592 L15.8314717,0.188603774 L24.1175094,0.188603774 L24.1175094,3.53388679 C24.3427925,3.63426415 24.5658113,3.73426415 24.7876981,3.83350943 M27.6650566,5.11049057 C27.886566,5.20671698 28.1084528,5.30218868 28.3303396,5.39690566 C28.4597736,5.452 28.7284528,5.35124528 28.8469434,5.23539623 C29.5741132,4.52483019 30.2767547,3.78860377 30.9631698,3.08671698 C32.9352453,5.08369811 34.8571321,7.02935849 36.846566,9.04369811 C36.1020377,9.74520755 35.2514717,10.546717 34.4748679,11.2784151 C35.1276981,12.8508679 35.7288302,14.2991698 36.365434,15.8323774 L39.8126038,15.8323774 L39.8126038,16.5603019 L39.8126038,24.1112453 L36.3782642,24.1112453 C35.7401509,25.6523774 35.1341132,27.1161509 34.4733585,28.712 C35.2473208,29.4395472 36.0986415,30.2395472 36.9178868,31.0097358 C34.9310943,33.0135094 33.0126038,34.9478491 31.0318491,36.9455849 C30.3314717,36.2346415 29.6205283,35.5380377 28.9416604,34.8116226 C28.6763774,34.5282264 28.4820377,34.4935094 28.1126038,34.6678491 C26.8322264,35.2723774 25.5224151,35.8150189 24.1476981,36.4142642 L24.1476981,39.7829434 L15.8469434,39.7829434 L15.8469434,36.4418113 C14.385434,35.7935094 13.0273208,35.1784151 11.6537358,34.5999245 C11.5110943,34.5399245 11.2224151,34.6410566 11.0948679,34.7640755 C10.3635472,35.4689811 9.66090566,36.2029434 8.95486792,36.9206792 C6.99222642,34.9289811 5.08128302,32.9908679 3.06618868,30.946717 C3.70883019,30.3308679 4.42732075,29.6187925 5.17411321,28.9387925 C5.46958491,28.6697358 5.47222642,28.4652075 5.30354717,28.1052075 C4.70392453,26.8233208 4.1605283,25.5150189 3.56467925,24.1455849 L0.188830189,24.1455849 L0.188830189,17.8531321 M0.188830189,16.1433208 L0.188830189,15.8633208 L0.355245283,15.8633208 M2.10618868,15.8633208 L3.67524528,15.8633208 C3.82883019,15.3886038 3.94316981,14.9263396 4.12543396,14.4931321 C4.50467925,13.5923774 4.89788679,12.6961509 5.33184906,11.821434 C5.49071698,11.5010566 5.45977358,11.3169057 5.20920755,11.0836981 C4.46467925,10.3908679 3.73977358,9.67690566 3.02958491,8.99313208 C4.33373585,7.6829434 5.60467925,6.40596226 6.88732075,5.11728302" id="Stroke-1" stroke="#717791" stroke-width="3"></path>
                    <path d="M14.8972453,14.9020755 C14.9319623,14.8696226 14.9666792,14.8371698 15.0017736,14.8050943" id="Stroke-3" stroke="#717791" stroke-width="3"></path>
                    <path d="M16.8783774,13.5687925 C17.7825283,13.1589811 18.7866792,12.9310566 19.8436604,12.9310566 C23.8157358,12.9310566 27.0353585,16.1506792 27.0353585,20.1223774 C27.0353585,24.0944528 23.8157358,27.3140755 19.8436604,27.3140755 C15.8719623,27.3140755 12.6523396,24.0944528 12.6523396,20.1223774 C12.6523396,18.6235094 13.1108302,17.231434 13.8953585,16.0793585" id="Stroke-5" stroke="#717791" stroke-width="3"></path>
                    <path d="M24.4823019,8.25720755 C24.5607925,8.28815094 24.639283,8.3194717 24.7170189,8.35154717" id="Stroke-7" stroke="#A3ACD6" stroke-width="2"></path>
                    <path d="M11.4217736,10.5594717 C12.3025283,9.78437736 13.3063019,9.11909434 14.4213962,8.59418868 C16.8244151,7.464 19.4013962,7.14966038 21.8398868,7.53909434" id="Stroke-9" stroke="#A3ACD6" stroke-width="2"></path>
                    <path d="M10.9683396,29.266566 C9.89588679,28.2258113 8.9894717,26.9775094 8.31588679,25.5450566 C6.86833962,22.4673208 6.75890566,19.1046792 7.75135849,16.1129811" id="Stroke-11" stroke="#A3ACD6" stroke-width="2"></path>
                    <path d="M28.1136226,10.4275472 C29.4521132,11.5679245 30.5747547,13.005283 31.3717358,14.7 C34.3664528,21.0667925 31.6328679,28.6558491 25.2660755,31.650566 C22.0830566,33.1479245 18.5936226,33.2132075 15.5264528,32.1083019" id="Stroke-13" stroke="#A3ACD6" stroke-width="2"></path>
                </g>
            </g>
        </g>
    </g>
</svg>