<?xml version="1.0" encoding="UTF-8"?>
<svg width="29px" height="41px" viewBox="0 0 29 41" version="1.1" xmlns="http://www.w3.org/2000/svg" xmlns:xlink="http://www.w3.org/1999/xlink">
    <!-- Generator: Sketch 52.6 (67491) - http://www.bohemiancoding.com/sketch -->
    <title>Group 78</title>
    <desc>Created with Sketch.</desc>
    <defs>
        <polygon id="path-1" points="0 0.288698413 27.6398182 0.288698413 27.6398182 19.0474286 0 19.0474286"></polygon>
    </defs>
    <g id="Contacts" stroke="none" stroke-width="1" fill="none" fill-rule="evenodd">
        <g id="Contact-(desktop)" transform="translate(-1100.000000, -866.000000)">
            <g id="Group-2">
                <g id="Group-78" transform="translate(1101.000000, 867.000000)">
                    <path d="M26.8402909,34.4236825 L26.8402909,37.7017778 C26.8402909,38.3608254 26.3044727,38.8954286 25.6432909,38.8954286 L2.08447273,38.8954286 C1.42392727,38.8954286 0.887472727,38.3608254 0.887472727,37.7017778 L0.887472727,23.076381 C0.887472727,22.4166984 1.42392727,21.8820952 2.08447273,21.8820952 L25.6432909,21.8820952 C26.3044727,21.8820952 26.8402909,22.4166984 26.8402909,23.076381 L26.8402909,23.1335238" id="Fill-1" fill="#FFFFFF"></path>
                    <g id="Group-5" transform="translate(0.000000, 20.724190)">
                        <mask id="mask-2" fill="white">
                            <use xlink:href="#path-1"></use>
                        </mask>
                        <g id="Clip-4"></g>
                        <path d="M27.2143455,13.6994921 C27.6203455,14.4544127 27.6483455,15.2093333 27.6368909,15.964254 L27.6388,16.5306032 L27.6394364,16.8131429 L27.6400727,16.9547302 L27.6305273,17.1750476 C27.5713455,17.8061587 27.1920727,18.3940952 26.6416182,18.7064762 C26.3692545,18.8671111 26.0536182,18.956 25.7392545,18.971873 L25.1334364,18.9775873 L23.9981636,18.980127 L21.7282545,18.987746 L12.6486182,19.0156825 L3.56898182,19.043619 L2.43434545,19.0467937 L2.15052727,19.0474286 L2.07607273,19.0474286 L1.95389091,19.0423492 C1.87243636,19.0404444 1.79098182,19.0264762 1.70952727,19.0137778 C1.38561818,18.9579048 1.07698182,18.8169524 0.817345455,18.6182222 C0.293618182,18.2391746 -0.0207454545,17.5325079 0.00343636364,16.9369524 L-0.000381818182,15.804254 L0.00343636364,11.2753651 L0.0276181818,2.11790476 C0.0995272727,1.46393651 0.502981818,0.863936508 1.07698182,0.549015873 C1.36207273,0.389015873 1.6898,0.301396825 2.01434545,0.290603175 L2.61125455,0.288698413 L4.88116364,0.291873016 L9.42098182,0.296952381 L18.5006182,0.352825397 L23.0404364,0.380126984 L25.3103455,0.394730159 L25.5941636,0.396 C25.6870727,0.394730159 25.8856182,0.40615873 26.0243455,0.435365079 C26.3285273,0.49631746 26.6168,0.633460317 26.8573455,0.824571429 C27.0998,1.01504762 27.2913455,1.26711111 27.4192545,1.54711111 C27.5503455,1.81187302 27.5993455,2.17631746 27.5910727,2.40933333 L27.5910727,2.42393651 C27.5758,2.83790476 27.2277091,3.16107937 26.8134364,3.14647619 C26.4125273,3.13250794 26.0962545,2.80488889 26.0886182,2.40933333 C26.0867091,2.26584127 26.0778,2.24806349 26.0453455,2.17060317 C26.0141636,2.10901587 25.9715273,2.05060317 25.9148909,2.00933333 C25.8588909,1.96806349 25.7958909,1.93885714 25.7290727,1.92679365 C25.6813455,1.92171429 25.6908909,1.9191746 25.5941636,1.9191746 L25.3103455,1.92107937 L23.0404364,1.93504762 L18.5006182,1.96298413 L9.42098182,2.01885714 L4.88116364,2.02393651 L2.61125455,2.02711111 L2.07352727,2.02901587 C2.02070909,2.03219048 1.97170909,2.04361905 1.9278,2.06901587 C1.8368,2.12044444 1.77443636,2.21504762 1.76425455,2.31409524 L1.77252727,11.2753651 L1.77507273,15.804254 L1.77189091,16.9369524 C1.76807273,17.0975873 1.81198182,17.1496508 1.8928,17.2271111 C1.93289091,17.2569524 1.9768,17.2817143 2.02643636,17.2880635 C2.03852727,17.2886984 2.05061818,17.2950476 2.06398182,17.2931429 L2.08307273,17.2950476 L2.15052727,17.2956825 L2.43434545,17.2963175 L3.56898182,17.300127 L12.6486182,17.3280635 L21.7282545,17.356 L23.9981636,17.3629841 L25.1334364,17.3661587 L25.6622545,17.3655238 C25.7252545,17.3629841 25.7850727,17.3496508 25.8378909,17.3166349 C25.9486182,17.2563175 26.0237091,17.140127 26.0377091,17.0182222 L26.0434364,15.964254 C26.0319818,15.2093333 26.0599818,14.4544127 26.4659818,13.6994921 C26.5767091,13.4931429 26.8338,13.4156825 27.0412545,13.5261587 C27.1176182,13.5674286 27.1761636,13.628381 27.2143455,13.6994921" id="Fill-3" fill="#717791" mask="url(#mask-2)"></path>
                    </g>
                    <path d="M27.1907364,31.2654603 C27.4834636,31.3359365 27.5840091,31.4064127 27.6247364,31.4768889 C27.6419182,31.5473651 27.6368273,31.6178413 27.6190091,31.6883175 C27.5801909,31.8292698 27.4981,31.9702222 27.2715545,32.1111746 C26.9991909,32.2806984 26.6644636,32.2692698 26.4086455,32.1111746 C26.1821,31.9702222 26.1000091,31.8292698 26.0611909,31.6883175 C26.0433727,31.6178413 26.0382818,31.5473651 26.0554636,31.4768889 C26.0961909,31.4064127 26.1967364,31.3359365 26.4894636,31.2654603 C26.7261909,31.2089524 26.9692818,31.2127619 27.1907364,31.2654603" id="Fill-6" fill="#717791"></path>
                    <path d="M27.1796,24.5266032 C27.2871455,24.9634286 27.3628727,25.4008889 27.4214182,25.8377143 C27.4825091,26.2751746 27.5315091,26.7126349 27.5614182,27.1500952 C27.6008727,27.5869206 27.6129636,28.024381 27.6326909,28.4612063 C27.6447818,28.8986667 27.5957818,29.336127 27.3196,29.7735873 C27.1528727,30.0377143 26.8028727,30.1170794 26.5381455,29.9507302 C26.4643273,29.904381 26.4038727,29.8415238 26.3606,29.7735873 C26.0844182,29.336127 26.0354182,28.8986667 26.0475091,28.4612063 C26.0672364,28.024381 26.0793273,27.5869206 26.1187818,27.1500952 C26.1493273,26.7126349 26.1976909,26.2751746 26.2587818,25.8377143 C26.3173273,25.4008889 26.3930545,24.9634286 26.5012364,24.5266032 C26.5470545,24.3393016 26.7360545,24.2250159 26.9237818,24.2713651 C27.0542364,24.3031111 27.1490545,24.4046984 27.1796,24.5266032" id="Fill-8" fill="#717791"></path>
                    <g id="Group-13" transform="translate(1.272727, 21.994032)">
                        <path d="M25.0868545,0.125587302 L14.4684909,8.30780952 C13.2753091,9.2271746 11.7092182,9.22844444 10.5154,8.31034921 L0.0344909091,0.251936508" id="Fill-10" fill="#E5EEFD"></path>
                        <path d="M25.0868545,0.125587302 L14.4684909,8.30780952 C13.2753091,9.2271746 11.7092182,9.22844444 10.5154,8.31034921 L0.0344909091,0.251936508" id="Stroke-12" stroke="#717791" stroke-width="2.5" stroke-linecap="round" stroke-linejoin="round"></path>
                    </g>
                    <g id="Group-17" transform="translate(0.636364, 13.105143)">
                        <path d="M25.4671455,9.06190476 L14.9576,0.962857143 C13.7765091,0.053015873 12.2263273,0.0517460317 11.0446,0.96031746 L0.372145455,9.16603175" id="Fill-14" fill="#E5EEFD"></path>
                        <path d="M25.4671455,9.06190476 L14.9576,0.962857143 C13.7765091,0.053015873 12.2263273,0.0517460317 11.0446,0.96031746 L0.372145455,9.16603175" id="Stroke-16" stroke="#717791" stroke-width="2.5" stroke-linecap="round" stroke-linejoin="round"></path>
                    </g>
                    <path d="M11.8257364,30.8537778 C11.1378273,31.8474286 10.3481,32.7509206 9.53864545,33.6379048 C9.13264545,34.0798095 8.71519091,34.5121905 8.28691818,34.9344127 C7.87582727,35.3725079 7.44564545,35.7934603 6.66100909,35.9033016 C6.48600909,35.9280635 6.32437273,35.8061587 6.30019091,35.6321905 C6.29764545,35.6163175 6.29700909,35.5991746 6.29700909,35.5839365 C6.30591818,34.7934603 6.66928182,34.3140952 7.05173636,33.8512381 C7.41700909,33.3731429 7.79373636,32.9052063 8.18064545,32.4461587 C8.95891818,31.531873 9.75628182,30.6347302 10.6554636,29.8271111 C10.9774636,29.5382222 11.4738273,29.563619 11.7633727,29.8855238 C12.0115545,30.1604444 12.0274636,30.5623492 11.8257364,30.8537778" id="Fill-18" fill="#717791"></path>
                    <path d="M17.1009364,30.4579048 C17.7328455,30.6439365 18.0573909,31.0998095 18.4723,31.4763175 C18.8700273,31.8680635 19.2664818,32.2598095 19.6355727,32.6769524 C20.0046636,33.0934603 20.3495727,33.5309206 20.6792091,33.9823492 C20.9903909,34.4496508 21.2754818,34.9410794 21.4224818,35.551873 C21.4651182,35.728381 21.3563,35.9055238 21.1793909,35.9480635 C21.1125727,35.9639365 21.0451182,35.9582222 20.9853,35.9353651 C20.3966636,35.7112381 19.9448455,35.3671111 19.5203909,34.9988571 C19.1137545,34.6153651 18.7230273,34.2179048 18.3558455,33.7994921 C17.9893,33.3810794 17.6494818,32.9379048 17.3109364,32.4947302 C16.9902091,32.0356825 16.5784818,31.6566349 16.4747545,31.0071111 C16.4314818,30.7385397 16.6147545,30.4864762 16.8833,30.4439365 C16.9577545,30.431873 17.0334818,30.4382222 17.1009364,30.4579048" id="Fill-20" fill="#717791"></path>
                    <path d="M19.5736545,22.4866667 L5.87274545,22.4866667 C4.91947273,22.4866667 4.14629091,21.715873 4.14629091,20.7647619 L4.14629091,13.42 L18.6063818,13.42 C20.0942,13.42 21.2994727,14.6231746 21.2994727,16.1069841 L21.2994727,20.7647619 C21.2994727,21.715873 20.5269273,22.4866667 19.5736545,22.4866667" id="Fill-22" fill="#3F72BA"></path>
                    <path d="M21.9895455,5.1032381 L22.0048182,20.0149841 C22.0048182,20.4765714 21.6287273,20.8524444 21.1654545,20.8524444 L5.89781818,20.8524444 C5.43454545,20.8524444 5.05845455,20.4765714 5.05845455,20.0149841 L5.05845455,1.63784127 C5.05845455,1.17625397 5.43454545,0.800380952 5.89781818,0.800380952 L17.7150909,0.800380952" id="Fill-24" fill="#FFFFFF"></path>
                    <g id="Group-29" transform="translate(17.818182, 0.406730)">
                        <path d="M0.0145090909,0.393714286 L4.28896364,4.63180952" id="Fill-26" fill="#E5EEFD"></path>
                        <path d="M0.0145090909,0.393714286 L4.28896364,4.63180952" id="Stroke-28" stroke="#717791" stroke-width="2.5" stroke-linecap="round" stroke-linejoin="round"></path>
                    </g>
                    <path d="M22.9024727,5.10260317 L22.9107455,12.839746 L22.9145636,16.7083175 L22.9164727,18.6422857 L22.9177455,19.6099048 L22.9177455,19.8511746 C22.9158364,19.9419683 22.9234727,19.9768889 22.9107455,20.1673651 C22.8814727,20.480381 22.7580182,20.7857778 22.5620182,21.0302222 C22.3666545,21.2746667 22.1006545,21.4619683 21.8002909,21.5616508 C21.6501091,21.6099048 21.4929273,21.6416508 21.3370182,21.6441905 L21.0684727,21.6460952 L20.0992909,21.6460952 L18.1602909,21.6460952 L14.2835636,21.6460952 L6.52883636,21.6460952 L6.04392727,21.6460952 C5.78683636,21.6543492 5.42538182,21.5749841 5.16956364,21.4099048 C4.90038182,21.2486349 4.68083636,21.0086349 4.54401818,20.7248254 C4.47465455,20.583873 4.42692727,20.4314921 4.40210909,20.2759365 C4.38810909,20.1978413 4.38301818,20.120381 4.38110909,20.0422857 L4.38047273,19.9076825 L4.38047273,17.9737143 L4.38047273,14.1051429 L4.38047273,6.36863492 L4.38047273,2.49942857 L4.38047273,2.01625397 L4.38047273,1.77434921 L4.38047273,1.65371429 C4.38110909,1.60419048 4.38301818,1.50514286 4.39383636,1.43403175 C4.46701818,0.802285714 4.93729091,0.251174603 5.5482,0.0753015873 C5.69965455,0.0302222222 5.85683636,0.00926984127 6.01338182,0.00736507937 L6.25647273,0.00673015873 L6.74138182,0.00673015873 L7.71056364,0.00546031746 C9.00301818,0.00673015873 10.2954727,-0.011047619 11.5879273,0.0105396825 C12.2338364,0.0137142857 12.8803818,0.0460952381 13.5262909,0.0626031746 C14.1728364,0.0816507937 14.8187455,0.130539683 15.4652909,0.347047619 C15.7166545,0.430857143 15.8515636,0.701968254 15.7675636,0.952761905 C15.7179273,1.09942857 15.6014727,1.20736508 15.4652909,1.25434921 C14.8187455,1.47022222 14.1728364,1.51911111 13.5262909,1.53879365 C12.8803818,1.55466667 12.2338364,1.58768254 11.5879273,1.59022222 C10.2954727,1.61180952 9.00301818,1.59466667 7.71056364,1.59593651 L6.00256364,1.59657143 C5.9892,1.59911111 5.97138182,1.61942857 5.97265455,1.63212698 L5.97138182,2.49942857 L5.97138182,6.36863492 L5.97138182,14.1051429 L5.97138182,17.9737143 L5.97138182,19.9076825 L5.97201818,20.015619 L5.97265455,20.0226032 C5.97265455,20.0264127 5.97329091,20.0295873 5.97583636,20.0327619 C5.97774545,20.039746 5.98601818,20.0486349 5.99365455,20.0518095 C6.01274545,20.0581587 5.97965455,20.0568889 6.04392727,20.0587937 L6.52883636,20.0587937 L14.2835636,20.0587937 L18.1602909,20.0587937 L20.0992909,20.0587937 L21.0684727,20.0587937 L21.2848364,20.0581587 C21.2905636,20.0600635 21.2924727,20.055619 21.2969273,20.056254 C21.3032909,20.0537143 21.3115636,20.0486349 21.3172909,20.0410159 L21.3115636,5.10387302 C21.3115636,4.66577778 21.6666545,4.31022222 22.1063818,4.3095873 C22.5454727,4.30895238 22.9018364,4.66450794 22.9024727,5.10260317" id="Fill-30" fill="#717791"></path>
                    <path d="M18.6222273,0.800444444 L18.6279545,5.03853968 L17.8325,4.24488889 C18.2162273,4.27853968 18.5999545,4.3191746 18.9830455,4.37504762 C19.1752273,4.40298413 19.3667727,4.42330159 19.5589545,4.46393651 C19.7505,4.50393651 19.9426818,4.56933333 20.1342273,4.58838095 C20.3836818,4.61250794 20.5656818,4.83473016 20.5415,5.08361905 C20.5192273,5.30139683 20.3455,5.46901587 20.1342273,5.48933333 C19.9426818,5.50838095 19.7505,5.5744127 19.5589545,5.6144127 C19.3667727,5.65504762 19.1752273,5.67409524 18.9830455,5.70266667 C18.5999545,5.75853968 18.2162273,5.7991746 17.8325,5.83219048 C17.4296818,5.86711111 17.0745909,5.56996825 17.0395909,5.16742857 L17.0370455,5.10520635 L17.0370455,5.03853968 L17.0434091,0.800444444 C17.0440455,0.36552381 17.3978636,0.0131428571 17.8337727,0.0137777778 C18.2696818,0.0144126984 18.6228636,0.36552381 18.6222273,0.800444444" id="Fill-32" fill="#717791"></path>
                    <path d="M8.86206364,9.42304762 L18.3483364,9.42304762" id="Fill-34" fill="#E5EEFD"></path>
                    <path d="M8.86206364,8.91834921 C9.65242727,8.66184127 10.4427909,8.61930159 11.2337909,8.63263492 C12.0241545,8.6472381 12.8145182,8.65739683 13.6055182,8.68977778 C15.1862455,8.74438095 16.7669727,8.84215873 18.3483364,9.01422222 C18.5748818,9.03898413 18.7377909,9.24215873 18.7129727,9.46755556 C18.6919727,9.66311111 18.5367,9.81104762 18.3483364,9.83136508 C16.7669727,10.0034286 15.1862455,10.1018413 13.6055182,10.1558095 C12.8145182,10.1881905 12.0241545,10.1989841 11.2337909,10.2135873 C10.4427909,10.2269206 9.65242727,10.184381 8.86206364,9.92787302 C8.5827,9.83707937 8.42997273,9.53803175 8.52033636,9.25866667 C8.57506364,9.09168254 8.70679091,8.96977778 8.86206364,8.91834921" id="Fill-36" fill="#A3ACD6"></path>
                    <path d="M12.6292727,11.7742222 L18.3482727,11.7742222" id="Fill-38" fill="#E5EEFD"></path>
                    <path d="M12.6292727,11.3556825 C13.5825455,10.8902857 14.5358182,10.9798095 15.4890909,11.0109206 C16.4423636,11.0610794 17.395,11.1594921 18.3482727,11.3969524 C18.557,11.4490159 18.6836364,11.6598095 18.6314545,11.8686984 C18.5951818,12.0121905 18.4831818,12.1169524 18.3482727,12.1506032 C17.395,12.3886984 16.4423636,12.4871111 15.4890909,12.5372698 C14.5358182,12.568381 13.5825455,12.6579048 12.6292727,12.1925079 C12.3976364,12.0794921 12.3015455,11.800127 12.4154545,11.5690159 C12.4625455,11.4731429 12.5395455,11.3994921 12.6292727,11.3556825" id="Fill-40" fill="#A3ACD6"></path>
                    <path d="M8.86206364,11.7742222 L11.2687909,11.7742222" id="Fill-42" fill="#E5EEFD"></path>
                    <path d="M8.86206364,11.2973968 C9.26297273,10.9240635 9.66388182,10.9767619 10.0654273,10.9970794 C10.4663364,11.032 10.8672455,11.1069206 11.2687909,11.2973968 C11.5328818,11.4224762 11.6448818,11.7373968 11.5195182,12.000254 C11.4654273,12.1145397 11.3750636,12.2008889 11.2687909,12.2510476 C10.8672455,12.4408889 10.4663364,12.5164444 10.0654273,12.5507302 C9.66388182,12.5710476 9.26297273,12.624381 8.86206364,12.2510476 C8.59797273,12.0053333 8.58397273,11.5926349 8.83024545,11.3291429 C8.83979091,11.3183492 8.85124545,11.3075556 8.86206364,11.2973968" id="Fill-44" fill="#A3ACD6"></path>
                    <path d="M17.2419545,14.1253968 L18.3485909,14.1253968" id="Fill-46" fill="#E5EEFD"></path>
                    <path d="M17.2419545,13.8014603 C17.4265,13.5220952 17.6110455,13.4154286 17.7949545,13.3570159 C17.8872273,13.3303492 17.9795,13.3138413 18.0717727,13.3538413 C18.1640455,13.3970159 18.2563182,13.4586032 18.3485909,13.6306667 C18.5197727,13.9493968 18.5051364,14.3227302 18.3485909,14.6205079 C18.2563182,14.7919365 18.1640455,14.8541587 18.0717727,14.8966984 C17.9795,14.9366984 17.8872273,14.9201905 17.7949545,14.8935238 C17.6110455,14.8351111 17.4265,14.7284444 17.2419545,14.4490794 C17.1083182,14.2471746 17.1165909,13.9919365 17.2419545,13.8014603" id="Fill-48" fill="#A3ACD6"></path>
                    <path d="M8.86206364,14.1253968 L15.6686091,14.1253968" id="Fill-50" fill="#E5EEFD"></path>
                    <path d="M8.86206364,13.7589841 C9.9967,13.5888254 11.1307,13.4840635 12.2653364,13.4186667 C12.8323364,13.3831111 13.3999727,13.360254 13.9669727,13.3431111 C14.5346091,13.3139048 15.1016091,13.3240635 15.6686091,13.5875556 C15.9664273,13.7266032 16.0949727,14.0789841 15.9562455,14.376127 C15.8945182,14.5075556 15.7907909,14.6059683 15.6686091,14.6624762 C15.1016091,14.9266032 14.5346091,14.9367619 13.9669727,14.9081905 C13.3999727,14.8904127 12.8323364,14.8675556 12.2653364,14.832 C11.1307,14.7659683 9.9967,14.6612063 8.86206364,14.4916825 C8.65906364,14.4612063 8.51906364,14.2732698 8.54960909,14.0700952 C8.57442727,13.9050159 8.70488182,13.7824762 8.86206364,13.7589841" id="Fill-52" fill="#A3ACD6"></path>
                    <path d="M8.86206364,6.9847619 L15.6686091,6.9847619" id="Fill-54" fill="#E5EEFD"></path>
                    <path d="M8.86206364,6.61796825 C9.9967,6.44844444 11.1307,6.34368254 12.2653364,6.27765079 C12.8323364,6.24209524 13.3999727,6.21987302 13.9669727,6.20209524 C14.5346091,6.17288889 15.1016091,6.18304762 15.6686091,6.4471746 C15.9664273,6.5855873 16.0949727,6.93860317 15.9562455,7.23574603 C15.8945182,7.36653968 15.7907909,7.46495238 15.6686091,7.52209524 C15.1016091,7.78622222 14.5346091,7.79638095 13.9669727,7.7671746 C13.3999727,7.74939683 12.8323364,7.7271746 12.2653364,7.69161905 C11.1307,7.6255873 9.9967,7.5208254 8.86206364,7.35130159 C8.65906364,7.3208254 8.51906364,7.13225397 8.54960909,6.92971429 C8.57442727,6.76463492 8.70488182,6.64146032 8.86206364,6.61796825" id="Fill-56" fill="#A3ACD6"></path>
                    <path d="M16.8026091,6.9847619 L18.1434273,6.9847619" id="Fill-58" fill="#E5EEFD"></path>
                    <path d="M16.8026091,6.61796825 C17.0266091,6.44844444 17.2499727,6.34368254 17.4733364,6.27765079 C17.5847,6.24209524 17.6967,6.21987302 17.8087,6.20209524 C17.9200636,6.17288889 18.0320636,6.18304762 18.1434273,6.4471746 C18.2942455,6.80336508 18.2821545,7.19130159 18.1434273,7.52209524 C18.0320636,7.78622222 17.9200636,7.79638095 17.8087,7.7671746 C17.6967,7.74939683 17.5847,7.7271746 17.4733364,7.69161905 C17.2499727,7.6255873 17.0266091,7.5208254 16.8026091,7.35130159 C16.5996091,7.19701587 16.5601545,6.9087619 16.7147909,6.70622222 C16.7402455,6.67257143 16.7707909,6.64273016 16.8026091,6.61796825" id="Fill-60" fill="#A3ACD6"></path>
                    <path d="M8.86206364,16.4766349 L14.9126091,16.4766349" id="Fill-62" fill="#E5EEFD"></path>
                    <path d="M8.86206364,16.1393016 C9.87006364,15.9012063 10.8787,15.7945397 11.8873364,15.7304127 C12.8959727,15.6910476 13.9039727,15.5666032 14.9126091,16.0148571 C15.1684273,16.1285079 15.2829727,16.4275556 15.1690636,16.6821587 C15.1162455,16.8008889 15.0227,16.8891429 14.9126091,16.9386667 C13.9039727,17.3869206 12.8959727,17.2618413 11.8873364,17.2224762 C10.8787,17.1583492 9.87006364,17.0516825 8.86206364,16.8135873 C8.67560909,16.7697778 8.55979091,16.5831111 8.6037,16.3964444 C8.63488182,16.2650159 8.73860909,16.1685079 8.86206364,16.1393016" id="Fill-64" fill="#A3ACD6"></path>
                    <path d="M10.9495273,28.1984762 L10.9495273,23.6372063" id="Fill-66" fill="#E5EEFD"></path>
                    <path d="M10.6111091,28.1984762 C10.3731091,27.4384762 10.2662,26.6778413 10.2012909,25.9178413 C10.1624727,25.1578413 10.0371091,24.3978413 10.4863818,23.6372063 C10.6372,23.3826032 10.9668364,23.2975238 11.2226545,23.4486349 C11.3028364,23.495619 11.3677455,23.5629206 11.4122909,23.6372063 C11.8615636,24.3978413 11.7362,25.1578413 11.6973818,25.9178413 C11.6331091,26.6778413 11.5255636,27.4384762 11.2875636,28.1984762 C11.2290182,28.3845079 11.0304727,28.4886349 10.8433818,28.4302222 C10.7294727,28.3946667 10.6454727,28.3045079 10.6111091,28.1984762" id="Fill-68" fill="#84B2FD"></path>
                    <path d="M13.4557818,26.0497143 L13.4557818,22.9678095" id="Fill-70" fill="#E5EEFD"></path>
                    <path d="M13.1177455,26.0500317 C12.8791091,25.536381 12.7728364,25.0227302 12.7079273,24.5090794 C12.6691091,23.9954286 12.5437455,23.4817778 12.9930182,22.968127 C13.2163818,22.7135238 13.6045636,22.6868571 13.8603818,22.9097143 C13.8801091,22.9274921 13.9011091,22.9484444 13.9189273,22.968127 C14.3682,23.4817778 14.2428364,23.9954286 14.2040182,24.5090794 C14.1391091,25.0227302 14.0322,25.536381 13.7942,26.0500317 C13.7076545,26.2360635 13.4862,26.3173333 13.2997455,26.2309841 C13.2163818,26.1928889 13.1533818,26.1268571 13.1177455,26.0500317" id="Fill-72" fill="#84B2FD"></path>
                    <path d="M15.1001455,28.3187302 L15.1001455,25.2368254" id="Fill-74" fill="#E5EEFD"></path>
                    <path d="M14.7617909,28.3187302 C14.5237909,27.8050794 14.4168818,27.2914286 14.3519727,26.7777778 C14.3131545,26.264127 14.1877909,25.7504762 14.6370636,25.2368254 C14.8604273,24.9822222 15.2486091,24.9555556 15.5044273,25.1784127 C15.5241545,25.1961905 15.5451545,25.2171429 15.5629727,25.2368254 C16.0122455,25.7504762 15.8868818,26.264127 15.8480636,26.7777778 C15.7831545,27.2914286 15.6762455,27.8050794 15.4382455,28.3187302 C15.3517,28.5047619 15.1302455,28.5860317 14.9437909,28.4996825 C14.8604273,28.4615873 14.7980636,28.3955556 14.7617909,28.3187302" id="Fill-76" fill="#84B2FD"></path>
                </g>
            </g>
        </g>
    </g>
</svg>