<?xml version="1.0" encoding="UTF-8"?>
<svg width="38px" height="43px" viewBox="0 0 38 43" version="1.1" xmlns="http://www.w3.org/2000/svg" xmlns:xlink="http://www.w3.org/1999/xlink">
    <!-- Generator: Sketch 52.6 (67491) - http://www.bohemiancoding.com/sketch -->
    <title>Group 29</title>
    <desc>Created with Sketch.</desc>
    <g id="Contacts" stroke="none" stroke-width="1" fill="none" fill-rule="evenodd">
        <g id="Contact-(desktop)" transform="translate(-1096.000000, -936.000000)">
            <g id="Group-2">
                <g id="Group-29" transform="translate(1096.000000, 938.000000)">
                    <path d="M20.9069761,2.8148 C20.9069761,4.00451429 19.949603,4.96908571 18.7687672,4.96908571 C17.5879313,4.96908571 16.6305582,4.00451429 16.6305582,2.8148 C16.6305582,1.62508571 17.5879313,0.660514286 18.7687672,0.660514286 C19.949603,0.660514286 20.9069761,1.62508571 20.9069761,2.8148" id="Fill-1" fill="#E5EEFD"></path>
                    <path d="M20.9069761,2.8148 C20.9069761,4.00451429 19.949603,4.96908571 18.7687672,4.96908571 C17.5879313,4.96908571 16.6305582,4.00451429 16.6305582,2.8148 C16.6305582,1.62508571 17.5879313,0.660514286 18.7687672,0.660514286 C19.949603,0.660514286 20.9069761,1.62508571 20.9069761,2.8148 Z" id="Stroke-3" stroke="#717791" stroke-width="2.063" stroke-linecap="round" stroke-linejoin="round"></path>
                    <path d="M31.9536328,17.8767429 L31.9536328,31.6150286 C31.9536328,32.7236 31.0620507,33.6218857 29.9594836,33.6218857 L7.57748358,33.6218857 C6.47775224,33.6218857 5.58333433,32.7236 5.58333433,31.6150286 L5.58333433,17.8767429 C5.58333433,12.6881714 8.53542388,8.19617143 12.8373642,6.0116 C14.6205284,5.10302857 16.6345284,4.59217143 18.7682,4.59217143 C22.4116627,4.59217143 25.7063194,6.07845714 28.0923791,8.48245714 C30.479006,10.8870286 31.9536328,14.2064571 31.9536328,17.8767429" id="Fill-5" fill="#E5EEFD"></path>
                    <path d="M31.9536328,17.8767429 L31.9536328,31.6150286 C31.9536328,32.7236 31.0620507,33.6218857 29.9594836,33.6218857 L27.2643194,33.6218857 C28.3668866,33.6218857 29.2590358,32.7236 29.2590358,31.6150286 L29.2590358,17.8767429 C29.2590358,14.2064571 27.7838418,10.8870286 25.3977821,8.48245714 C23.3106179,6.3796 20.5298119,4.98017143 17.4285582,4.66188571 C17.8692448,4.61502857 18.3150358,4.59217143 18.7682,4.59217143 C22.4116627,4.59217143 25.7063194,6.07845714 28.0923791,8.48245714 C30.479006,10.8870286 31.9536328,14.2064571 31.9536328,17.8767429" id="Fill-7" fill="#3F72BA"></path>
                    <path d="M5.75966567,14.3318286 C5.65417313,13.2975429 6.02396418,12.3432571 6.49300896,11.4792571 C6.69945672,11.0289714 6.98077015,10.6209714 7.23088955,10.1952571 C7.5167403,9.79354286 7.7889791,9.37868571 8.10999403,9.0044 C9.36172537,7.47811429 10.9270985,6.21068571 12.7011881,5.34782857 C16.2306507,3.56897143 20.5144418,3.46897143 24.1550687,4.99925714 C27.7968299,6.53868571 30.7086507,9.7044 31.9507403,13.4878286 C32.1191881,13.9552571 32.212203,14.4466857 32.3449194,14.9255429 C32.4464418,15.4112571 32.5037254,15.9061143 32.5836955,16.3969714 C32.619994,16.8918286 32.6398448,17.3895429 32.6653672,17.8849714 L32.668203,19.3009714 L32.6699045,24.9638286 L32.6676358,30.6272571 L32.6676358,31.3346857 C32.6653672,31.4644 32.671606,31.5449714 32.6630985,31.7146857 C32.6596955,31.8746857 32.6358746,32.0341143 32.6052478,32.1906857 C32.4730985,32.8209714 32.1067104,33.3912571 31.6025015,33.7792571 C31.3506806,33.9735429 31.0642627,34.1238286 30.7602627,34.2198286 C30.6065612,34.2638286 30.4517254,34.2998286 30.2934866,34.3186857 C30.1443224,34.3375429 29.9531881,34.3421143 29.8556358,34.3409714 L28.450203,34.3404 L17.209009,34.3352571 L11.5878448,34.3329714 L8.77754627,34.3318286 L8.07539701,34.3318286 C7.82300896,34.3278286 7.65512836,34.3426857 7.30121791,34.3175429 C6.66939701,34.2512571 6.06593433,33.9518286 5.62978507,33.4906857 C5.18853134,33.0341143 4.92196418,32.4072571 4.88850149,31.7712571 L4.86581493,30.3152571 L4.8108,27.4838286 C4.79435224,26.5398286 4.79775522,25.5958286 4.83405373,24.6524 C4.87035224,23.7084 4.95939701,22.7644 5.26226269,21.8204 C5.31954627,21.6415429 5.51011343,21.5438286 5.68763582,21.6015429 C5.79426269,21.6358286 5.87253134,21.7209714 5.9048597,21.8204 C6.20829254,22.7644 6.29677015,23.7084 6.33306866,24.6524 C6.36993433,25.5958286 6.37277015,26.5398286 6.35632239,27.4838286 L6.30187463,30.3152571 L6.2928,31.0226857 L6.28826269,31.3769714 C6.28769552,31.4901143 6.28315821,31.6318286 6.29053134,31.6901143 C6.30641194,31.9958286 6.43118806,32.2924 6.64557612,32.5124 C6.85656119,32.7341143 7.14241194,32.8752571 7.44414328,32.9078286 C7.55757612,32.9186857 7.85930746,32.9135429 8.07539701,32.9146857 L8.77754627,32.9146857 L11.5878448,32.9135429 L17.209009,32.9112571 L28.450203,32.9061143 L29.8556358,32.9055429 C29.9923224,32.9061143 30.035994,32.9021143 30.1193672,32.8941143 C30.1942328,32.8855429 30.2668299,32.8672571 30.3394269,32.8478286 C30.4817851,32.8021143 30.6167701,32.7312571 30.7364418,32.6386857 C30.9752179,32.4535429 31.1499045,32.1838286 31.2111582,31.8884 C31.2236358,31.8135429 31.2366806,31.7392571 31.2372478,31.6626857 C31.2440537,31.5969714 31.2389493,31.4409714 31.2406507,31.3346857 L31.2400836,30.6272571 L31.2378149,24.9638286 L31.2395164,19.3009714 L31.2423522,17.8849714 L31.1742925,16.5461143 C31.1011284,16.1061143 31.0534866,15.6609714 30.9638746,15.2238286 C30.844203,14.7946857 30.7659343,14.3524 30.6150687,13.9324 C29.5136358,10.5324 26.9012776,7.66497143 23.6253373,6.2644 C20.3533672,4.87468571 16.473397,4.94382857 13.2802627,6.54154286 C11.6723522,7.31411429 10.2493373,8.45811429 9.10933731,9.83697143 C8.81554627,10.1741143 8.56939701,10.5506857 8.30736716,10.9129714 C8.08106866,11.2992571 7.82130746,11.6666857 7.63471045,12.0752571 C7.19799403,12.8689714 6.96715821,13.7141143 6.31605373,14.4832571 L6.30017313,14.5015429 C6.18957612,14.6318286 5.99560597,14.6472571 5.86572537,14.5358286 C5.80333731,14.4821143 5.76760597,14.4078286 5.75966567,14.3318286" id="Fill-9" fill="#717791"></path>
                    <path d="M4.91504478,18.0969143 C4.87080597,17.9614857 4.89689552,17.8214857 4.94623881,17.6757714 C4.98934328,17.5329143 5.05059701,17.3912 5.14191045,17.2529143 C5.30525373,17.0072 5.63534328,16.9409143 5.87922388,17.1054857 C5.94274627,17.1477714 5.99379104,17.2020571 6.03235821,17.2626286 L6.05164179,17.2940571 C6.13728358,17.4306286 6.19229851,17.5632 6.22916418,17.6940571 C6.27056716,17.8232 6.29552239,17.9574857 6.25241791,18.0969143 C6.13785075,18.4689143 5.74537313,18.6769143 5.37614925,18.5609143 C5.15325373,18.4912 4.98934328,18.3197714 4.92014925,18.1123429 L4.91504478,18.0969143 Z" id="Fill-11" fill="#717791"></path>
                    <path d="M22.5574806,35.7556571 C22.5574806,37.8636571 20.8610925,39.5728 18.7688239,39.5728 C16.6765552,39.5728 14.9801672,37.8636571 14.9801672,35.7556571 C14.9801672,33.6476571 16.6765552,31.9385143 18.7688239,31.9385143 C20.8610925,31.9385143 22.5574806,33.6476571 22.5574806,35.7556571" id="Fill-13" fill="#E5EEFD"></path>
                    <path d="M22.5574806,35.7556571 C22.5574806,37.8636571 20.8610925,39.5728 18.7688239,39.5728 C16.6765552,39.5728 14.9801672,37.8636571 14.9801672,35.7556571 C14.9801672,33.6476571 16.6765552,31.9385143 18.7688239,31.9385143 C20.8610925,31.9385143 22.5574806,33.6476571 22.5574806,35.7556571 Z" id="Stroke-15" stroke="#717791" stroke-width="2.358" stroke-linecap="round" stroke-linejoin="round"></path>
                    <path d="M9.37119701,30.6424 L33.7144507,30.6424 C35.477197,30.6424 36.9064507,32.0824 36.9064507,33.8584 C36.9064507,35.6349714 35.477197,37.0749714 33.7144507,37.0749714 L3.82319701,37.0749714 C2.06045075,37.0749714 0.631197015,35.6349714 0.631197015,33.8584 C0.631197015,32.0824 2.06045075,30.6424 3.82319701,30.6424 L5.28591343,30.6424" id="Fill-17" fill="#E5EEFD"></path>
                    <path d="M36.9071881,33.8589143 C36.9071881,34.7474857 36.5498746,35.5497714 35.9713672,36.1326286 C35.3934269,36.7149143 34.5971284,37.0749143 33.7151881,37.0749143 L31.020591,37.0749143 C31.9019642,37.0749143 32.6982627,36.7149143 33.2767701,36.1326286 C33.8547104,35.5497714 34.212591,34.7474857 34.212591,33.8589143 C34.212591,32.0817714 32.7816358,30.6429143 31.020591,30.6429143 L33.7151881,30.6429143 C35.4768,30.6429143 36.9071881,32.0817714 36.9071881,33.8589143" id="Fill-19" fill="#3F72BA"></path>
                    <path d="M10.0245134,30.2598857 C11.6137075,29.9570286 13.2029015,30.0267429 14.7926627,30.0004571 L19.5602448,29.9730286 L29.0959761,29.9856 L33.8930507,30.0044571 C34.8464537,30.0421714 35.7817075,30.4621714 36.4486925,31.1496 C37.1230507,31.8296 37.5263045,32.7810286 37.5478567,33.7427429 C37.5807522,34.7027429 37.2387522,35.6764571 36.6080657,36.3998857 C35.9836179,37.1278857 35.0778567,37.6101714 34.1233194,37.7096 L33.766006,37.7296 L33.4591701,37.7324571 L32.8636478,37.7330286 L31.6714687,37.7347429 L29.2876776,37.7370286 L10.2162149,37.7347429 L5.44863284,37.7256 L4.2570209,37.7238857 C3.89403582,37.7256 3.38415522,37.7307429 2.92191642,37.6101714 C1.99063284,37.3867429 1.15917015,36.7947429 0.633976119,35.9930286 C0.0991402985,35.1941714 -0.104471642,34.1856 0.0509313433,33.2421714 C0.200662687,32.2930286 0.722453731,31.4130286 1.4733791,30.8267429 C1.84770746,30.5324571 2.27761791,30.3084571 2.73418507,30.1724571 C2.96275224,30.1044571 3.19642388,30.0616 3.43293134,30.0324571 L3.78797612,30.0147429 L4.09197612,30.0136 C4.88600597,30.0318857 5.68117015,29.9341714 6.47576716,30.2598857 C6.68505075,30.3461714 6.78600597,30.5867429 6.70093134,30.7981714 C6.6572597,30.9050286 6.57388657,30.9844571 6.47576716,31.0250286 C5.68117015,31.3507429 4.88600597,31.2530286 4.09197612,31.2713143 L3.7993194,31.2730286 L3.55940896,31.2856 C3.40117015,31.3078857 3.24406567,31.3358857 3.09093134,31.3816 C2.78579701,31.4747429 2.49824478,31.6256 2.24755821,31.8244571 C1.74334925,32.2216 1.39794627,32.8118857 1.30096119,33.4456 C1.19943881,34.0804571 1.33555821,34.7507429 1.6951403,35.2816 C2.04848358,35.8158857 2.60600597,36.2084571 3.2230806,36.3530286 C3.53388657,36.4301714 3.82654328,36.4284571 4.2570209,36.4261714 L5.44863284,36.4238857 L10.2162149,36.4147429 L29.2876776,36.4124571 L31.6714687,36.4153143 L32.8636478,36.4164571 L33.4591701,36.4170286 L33.748991,36.4153143 L33.9860657,36.4027429 C34.6156179,36.3387429 35.2128418,36.0221714 35.6291403,35.5398857 C36.0488418,35.0593143 36.2745731,34.4221714 36.2552896,33.7816 C36.2428119,33.1416 35.9796478,32.5147429 35.5304537,32.0593143 C35.0852299,31.6004571 34.4692896,31.3216 33.8334985,31.2953143 L29.0959761,31.2993143 L19.5602448,31.3118857 L14.7926627,31.2838857 C13.2029015,31.2581714 11.6137075,31.3278857 10.0245134,31.0250286 C9.81466269,30.9850286 9.67740896,30.7816 9.71711045,30.5701714 C9.74717015,30.4084571 9.87364776,30.2890286 10.0245134,30.2598857" id="Fill-21" fill="#717791"></path>
                    <path d="M33.1289672,6.02771429 C33.1289672,9.278 30.5137731,11.9128571 27.2877433,11.9128571 C24.0617134,11.9128571 21.4465194,9.278 21.4465194,6.02771429 C21.4465194,2.778 24.0617134,0.143142857 27.2877433,0.143142857 C30.5137731,0.143142857 33.1289672,2.778 33.1289672,6.02771429" id="Fill-23" fill="#FD8989"></path>
                    <path d="M33.1289672,6.02771429 C33.1289672,9.278 30.5137731,11.9128571 27.2877433,11.9128571 C24.0617134,11.9128571 21.4465194,9.278 21.4465194,6.02771429 C21.4465194,2.778 24.0617134,0.143142857 27.2877433,0.143142857 C30.5137731,0.143142857 33.1289672,2.778 33.1289672,6.02771429 Z" id="Stroke-25" stroke="#717791" stroke-width="2.5" stroke-linecap="round" stroke-linejoin="round"></path>
                    <polygon id="Fill-27" fill="#FFFFFF" points="26.9734776 4.23251429 26.9564627 4.23251429 25.9332985 4.75251429 25.7529403 3.9468 27.1112985 3.2708 27.9966418 3.2708 27.9966418 8.90165714 26.9734776 8.90165714"></polygon>
                </g>
            </g>
        </g>
    </g>
</svg>