<?xml version="1.0" encoding="UTF-8"?>
<svg width="43px" height="43px" viewBox="0 0 43 43" version="1.1" xmlns="http://www.w3.org/2000/svg" xmlns:xlink="http://www.w3.org/1999/xlink">
    <!-- Generator: Sketch 52.6 (67491) - http://www.bohemiancoding.com/sketch -->
    <title>Group 11</title>
    <desc>Created with Sketch.</desc>
    <g id="Contacts" stroke="none" stroke-width="1" fill="none" fill-rule="evenodd">
        <g id="Contact-(desktop)" transform="translate(-748.000000, -1088.000000)">
            <g id="Group-2">
                <g id="Group-11" transform="translate(750.000000, 1090.000000)">
                    <path d="M37.4584,19.8282462 C37.4584,23.9076308 36.0707077,27.6590154 33.7470154,30.6430154 C30.5187077,26.4971692 25.4860923,23.8319385 19.8282462,23.8319385 C14.1747077,23.8319385 9.13778462,26.4971692 5.90947692,30.6430154 C3.58147692,27.6547077 2.19809231,23.9076308 2.19809231,19.8282462 C2.19809231,10.0953231 10.0953231,2.19809231 19.8282462,2.19809231 C29.5654769,2.19809231 37.4584,10.0953231 37.4584,19.8282462" id="Fill-1" fill="#D5BEFD"></path>
                    <path d="M39.5025846,19.8282462 C39.5025846,24.8165538 37.6447385,29.3704 34.5893538,32.8380923 C30.9844308,36.9260923 25.7075077,39.5027077 19.8281231,39.5027077 C13.9487385,39.5027077 8.67181538,36.9217846 5.06689231,32.8337846 C2.0072,29.3660923 0.154276923,24.8165538 0.154276923,19.8282462 C0.154276923,8.96424615 8.96412308,0.153784615 19.8281231,0.153784615 C30.6964308,0.153784615 39.5025846,8.96424615 39.5025846,19.8282462 Z" id="Stroke-3" stroke="#717791" stroke-width="2.5" stroke-linecap="round" stroke-linejoin="round"></path>
                    <path d="M25.7051077,13.9514462 C25.7051077,17.1969846 23.0743385,19.8283692 19.8281846,19.8283692 C16.5826462,19.8283692 13.9512615,17.1969846 13.9512615,13.9514462 C13.9512615,10.7059077 16.5826462,8.07452308 19.8281846,8.07452308 C23.0743385,8.07452308 25.7051077,10.7059077 25.7051077,13.9514462" id="Fill-5" fill="#FFFFFF"></path>
                    <path d="M25.7051077,13.9514462 C25.7051077,17.1969846 23.0743385,19.8283692 19.8281846,19.8283692 C16.5826462,19.8283692 13.9512615,17.1969846 13.9512615,13.9514462 C13.9512615,10.7059077 16.5826462,8.07452308 19.8281846,8.07452308 C23.0743385,8.07452308 25.7051077,10.7059077 25.7051077,13.9514462 Z" id="Stroke-7" stroke="#717791" stroke-width="2.5" stroke-linecap="round" stroke-linejoin="round"></path>
                    <path d="M5.96621538,30.4448 C6.1416,30.1709538 6.31513846,29.9217231 6.50775385,29.6478769 C6.70283077,29.3721846 6.89113846,29.0878769 7.11452308,28.8331077 C7.54467692,28.3100308 7.99698462,27.7974154 8.50406154,27.3420308 C9.50344615,26.4152615 10.6425231,25.6392615 11.8511385,25.0017231 C14.2671385,23.7272615 17.0000615,23.0164923 19.7428308,23.0103385 C22.4843692,22.9980308 25.2277538,23.6675692 27.6462154,24.9395692 C30.0646769,26.1937231 32.1446769,28.1457231 33.4972923,30.4115692 L33.5102154,30.4331077 C33.6068308,30.5949538 33.5539077,30.8035692 33.3926769,30.9001846 C33.2548308,30.9826462 33.0819077,30.9555692 32.9742154,30.8448 C32.0474462,29.8915692 31.1496,29.0404923 30.1416,28.2724923 C29.1422154,27.5118769 28.0776,26.8484923 26.9569846,26.3057231 C24.7176,25.2109538 22.2296,24.6786462 19.7508308,24.6940308 C17.2720615,24.7038769 14.7914462,25.2694154 12.5742154,26.4011077 C11.4646769,26.9629538 10.4277538,27.6614154 9.45113846,28.4392615 C8.96436923,28.8300308 8.48683077,29.2380308 8.03206154,29.6731077 C7.80006154,29.8866462 7.59206154,30.1229538 7.35821538,30.3395692 C7.12990769,30.5641846 6.88436923,30.8152615 6.63944615,31.0404923 C6.45544615,31.2091077 6.17052308,31.1974154 6.00129231,31.0134154 C5.85975385,30.8595692 5.8456,30.6337231 5.95329231,30.4651077 L5.96621538,30.4448 Z" id="Fill-9" fill="#717791"></path>
                </g>
            </g>
        </g>
    </g>
</svg>