<?xml version="1.0" encoding="UTF-8"?>
<svg width="47px" height="44px" viewBox="0 0 47 44" version="1.1" xmlns="http://www.w3.org/2000/svg" xmlns:xlink="http://www.w3.org/1999/xlink">
    <!-- Generator: Sketch 52.6 (67491) - http://www.bohemiancoding.com/sketch -->
    <title>Group 39</title>
    <desc>Created with Sketch.</desc>
    <g id="Contacts" stroke="none" stroke-width="1" fill="none" fill-rule="evenodd">
        <g id="Contact-(desktop)" transform="translate(-1091.000000, -794.000000)">
            <g id="Group-2">
                <g id="Group-39" transform="translate(1093.000000, 796.000000)">
                    <path d="M32.4410442,28.6909126 L10.0197345,23.3076117 L24.5521947,4.98333981 L32.4410442,28.6909126 Z" id="Stroke-1" stroke="#7282C4" stroke-width="2.5" stroke-linecap="round" stroke-linejoin="round" stroke-dasharray="8.805"></path>
                    <path d="M16.7448814,24.640932 C16.7448814,26.7457864 15.9587221,28.6673398 14.6663681,30.1306408 C13.1411646,31.8556893 10.908846,32.9426796 8.42109381,32.9426796 C5.93334159,32.9426796 3.70102301,31.8537476 2.17581947,30.128699 C0.881518584,28.6653981 0.0973061947,26.7457864 0.0973061947,24.640932 C0.0973061947,20.0568544 3.82484602,16.3391845 8.42109381,16.3391845 C13.0192885,16.3391845 16.7448814,20.0568544 16.7448814,24.640932" id="Fill-3" fill="#FFFFFF"></path>
                    <path d="M16.7448814,24.640932 C16.7448814,26.7457864 15.9587221,28.6673398 14.6663681,30.1306408 C13.1411646,31.8556893 10.908846,32.9426796 8.42109381,32.9426796 C5.93334159,32.9426796 3.70102301,31.8537476 2.17581947,30.128699 C0.881518584,28.6653981 0.0973061947,26.7457864 0.0973061947,24.640932 C0.0973061947,20.0568544 3.82484602,16.3391845 8.42109381,16.3391845 C13.0192885,16.3391845 16.7448814,20.0568544 16.7448814,24.640932 Z" id="Stroke-5" stroke="#717791" stroke-width="2.5" stroke-linecap="round" stroke-linejoin="round"></path>
                    <path d="M15.8799894,24.640932 C15.8799894,26.3624854 15.2928035,27.9450097 14.3100071,29.2044272 C12.9440602,27.4549126 10.8149274,26.3306408 8.42101593,26.3306408 C6.02944071,26.3306408 3.89836106,27.4549126 2.53241416,29.2044272 C1.54728142,27.943068 0.962042478,26.3624854 0.962042478,24.640932 C0.962042478,20.5341359 4.30331681,17.2017087 8.42101593,17.2017087 C12.5406619,17.2017087 15.8799894,20.5341359 15.8799894,24.640932" id="Fill-7" fill="#D5BEFD"></path>
                    <path d="M10.9076,22.1612427 C10.9076,23.5305631 9.79436106,24.6408544 8.42101593,24.6408544 C7.04806018,24.6408544 5.93482124,23.5305631 5.93482124,22.1612427 C5.93482124,20.7919223 7.04806018,19.6816311 8.42101593,19.6816311 C9.79436106,19.6816311 10.9076,20.7919223 10.9076,22.1612427" id="Fill-9" fill="#FFFFFF"></path>
                    <path d="M10.9076,22.1612427 C10.9076,23.5305631 9.79436106,24.6408544 8.42101593,24.6408544 C7.04806018,24.6408544 5.93482124,23.5305631 5.93482124,22.1612427 C5.93482124,20.7919223 7.04806018,19.6816311 8.42101593,19.6816311 C9.79436106,19.6816311 10.9076,20.7919223 10.9076,22.1612427 Z" id="Stroke-11" stroke="#717791" stroke-width="2.5" stroke-linecap="round" stroke-linejoin="round"></path>
                    <path d="M2.48592212,29.0584078 C2.55289558,28.9376311 2.61870088,28.8327767 2.69657699,28.712 C2.77562124,28.5900583 2.85193982,28.464233 2.94383363,28.3512233 C3.12139115,28.1189903 3.31608142,27.8976311 3.53063009,27.6968544 C3.95661239,27.2910291 4.44762124,26.9539417 4.96822301,26.6739417 C6.00864779,26.1112233 7.19703717,25.808699 8.38425841,25.807534 C9.57147965,25.8028738 10.7590903,26.0995728 11.8010726,26.6549126 C12.8407186,27.2013204 13.7335681,28.0665631 14.2592319,29.0615146 L14.2666301,29.0758835 C14.3223115,29.1815146 14.2818159,29.312 14.1762938,29.367534 C14.0929664,29.4114175 13.9936743,29.3951068 13.9282584,29.3349126 C13.5104531,28.9477282 13.1249664,28.6156893 12.6978159,28.3065631 C12.2737805,28.0028738 11.8298867,27.736466 11.3649664,27.5170485 C10.4362938,27.0735534 9.41066549,26.8634563 8.38932035,26.8700583 C7.36680708,26.8758835 6.35013451,27.112 5.43002832,27.5644272 C4.96939115,27.790835 4.53990442,28.0754951 4.13027611,28.3892816 C3.92429381,28.5453981 3.72570973,28.7123883 3.52868319,28.8848155 C3.42783363,28.9690874 3.33671858,29.0626796 3.23470088,29.1485049 C3.13424071,29.2382136 3.0224885,29.344233 2.91151504,29.4343301 C2.7884708,29.5345243 2.60701947,29.5154951 2.50655929,29.3923883 C2.43024071,29.2991845 2.42284248,29.1721942 2.47774513,29.0727767 L2.48592212,29.0584078 Z" id="Fill-13" fill="#717791"></path>
                    <path d="M30.5538336,6.00376699 C30.5538336,7.50163107 29.9942938,8.86862136 29.0749664,9.90978641 C27.9897628,11.1373592 26.4010903,11.9105631 24.6313558,11.9105631 C22.8612319,11.9105631 21.2729487,11.1358058 20.1877451,9.90862136 C19.2668602,8.86745631 18.7088779,7.50163107 18.7088779,6.00376699 C18.7088779,2.74240777 21.3609487,0.0969708738 24.6313558,0.0969708738 C27.902931,0.0969708738 30.5538336,2.74240777 30.5538336,6.00376699" id="Fill-15" fill="#FFFFFF"></path>
                    <path d="M30.5538336,6.00376699 C30.5538336,7.50163107 29.9942938,8.86862136 29.0749664,9.90978641 C27.9897628,11.1373592 26.4010903,11.9105631 24.6313558,11.9105631 C22.8612319,11.9105631 21.2729487,11.1358058 20.1877451,9.90862136 C19.2668602,8.86745631 18.7088779,7.50163107 18.7088779,6.00376699 C18.7088779,2.74240777 21.3609487,0.0969708738 24.6313558,0.0969708738 C27.902931,0.0969708738 30.5538336,2.74240777 30.5538336,6.00376699 Z" id="Stroke-17" stroke="#717791" stroke-width="2.5" stroke-linecap="round" stroke-linejoin="round"></path>
                    <path d="M29.7366407,5.9648932 C29.7366407,7.14314563 29.3348,8.22664078 28.6619504,9.08838835 C27.7270478,7.8911068 26.2695965,7.12139806 24.6310832,7.12139806 C22.9941274,7.12139806 21.535508,7.8911068 20.6006053,9.08838835 C19.9265876,8.22547573 19.525915,7.14314563 19.525915,5.9648932 C19.525915,3.15401942 21.8127469,0.872854369 24.6310832,0.872854369 C27.450977,0.872854369 29.7366407,3.15401942 29.7366407,5.9648932" id="Fill-19" fill="#FDD1BE"></path>
                    <path d="M26.4003115,4.23949515 C26.4003115,5.21386408 25.6083115,6.00376699 24.6313558,6.00376699 C23.6544,6.00376699 22.8624,5.21386408 22.8624,4.23949515 C22.8624,3.26512621 23.6544,2.4752233 24.6313558,2.4752233 C25.6083115,2.4752233 26.4003115,3.26512621 26.4003115,4.23949515" id="Fill-21" fill="#FFFFFF"></path>
                    <path d="M26.4003115,4.23949515 C26.4003115,5.21386408 25.6083115,6.00376699 24.6313558,6.00376699 C23.6544,6.00376699 22.8624,5.21386408 22.8624,4.23949515 C22.8624,3.26512621 23.6544,2.4752233 24.6313558,2.4752233 C25.6083115,2.4752233 26.4003115,3.26512621 26.4003115,4.23949515 Z" id="Stroke-23" stroke="#717791" stroke-width="2.5" stroke-linecap="round" stroke-linejoin="round"></path>
                    <path d="M20.346846,9.09273786 C20.3888991,9.00341748 20.4262796,8.92613592 20.478846,8.83642718 C20.5333593,8.7455534 20.5859257,8.65157282 20.6497841,8.56691262 C20.7732177,8.39254369 20.9110584,8.22749515 21.0652531,8.07836893 C21.3705274,7.77623301 21.7287575,7.52885437 22.1080142,7.32186408 C22.8653593,6.9055534 23.7360142,6.68069903 24.6043327,6.68069903 C25.4730407,6.67759223 26.3413593,6.9008932 27.0990938,7.31254369 C27.8533239,7.71603883 28.4993062,8.36807767 28.8326159,9.10982524 L28.8400142,9.12613592 C28.8894655,9.23603883 28.8404035,9.36458252 28.7302088,9.41390291 C28.6519434,9.44885437 28.5639434,9.43409709 28.5016425,9.3832233 C27.8864212,8.87565049 27.3159788,8.47448544 26.6629876,8.17467961 C26.0185628,7.87526214 25.3118372,7.73817476 24.6093947,7.7432233 C23.9057841,7.7478835 23.206846,7.9063301 22.5694301,8.21234951 C22.2509168,8.36574757 21.9538195,8.56069903 21.6645097,8.77079612 C21.5196602,8.87526214 21.3775363,8.98671845 21.2346336,9.10050485 L21.020085,9.27526214 C20.9461027,9.33545631 20.8569345,9.40807767 20.7724389,9.46866019 C20.6419965,9.56225243 20.4601558,9.53273786 20.3659257,9.40264078 C20.3020673,9.31409709 20.2954478,9.20147573 20.338669,9.10904854 L20.346846,9.09273786 Z" id="Fill-25" fill="#717791"></path>
                    <path d="M43.6429381,30.2445049 C43.6429381,32.7116893 42.7216637,34.9641165 41.2065841,36.679068 C39.4189381,38.7008155 36.8023009,39.9749903 33.8866195,39.9749903 C30.9709381,39.9749903 28.3539115,38.6988738 26.5666549,36.6767379 C25.0492389,34.9617864 24.1303009,32.7116893 24.1303009,30.2445049 C24.1303009,24.8716893 28.4991504,20.5140194 33.8866195,20.5140194 C39.2760354,20.5140194 43.6429381,24.8716893 43.6429381,30.2445049" id="Fill-27" fill="#FFFFFF"></path>
                    <path d="M43.6429381,30.2445049 C43.6429381,32.7116893 42.7216637,34.9641165 41.2065841,36.679068 C39.4189381,38.7008155 36.8023009,39.9749903 33.8866195,39.9749903 C30.9709381,39.9749903 28.3539115,38.6988738 26.5666549,36.6767379 C25.0492389,34.9617864 24.1303009,32.7116893 24.1303009,30.2445049 C24.1303009,24.8716893 28.4991504,20.5140194 33.8866195,20.5140194 C39.2760354,20.5140194 43.6429381,24.8716893 43.6429381,30.2445049 Z" id="Stroke-29" stroke="#717791" stroke-width="2.5" stroke-linecap="round" stroke-linejoin="round"></path>
                    <path d="M42.6291858,30.2445049 C42.6291858,32.2623689 41.9407611,34.1175146 40.7885841,35.5932427 C39.1878407,33.5431456 36.6923009,32.2250874 33.8864248,32.2250874 C31.082885,32.2250874 28.5850088,33.5431456 26.9842655,35.5932427 C25.8297522,34.1151845 25.1436637,32.2623689 25.1436637,30.2445049 C25.1436637,25.4309126 29.0600531,21.5248932 33.8864248,21.5248932 C38.7151327,21.5248932 42.6291858,25.4309126 42.6291858,30.2445049" id="Fill-31" fill="#B8D4FF"></path>
                    <path d="M36.8008212,27.3381359 C36.8008212,28.9431845 35.4960071,30.2445437 33.8866973,30.2445437 C32.2769982,30.2445437 30.9721841,28.9431845 30.9721841,27.3381359 C30.9721841,25.7330874 32.2769982,24.4317282 33.8866973,24.4317282 C35.4960071,24.4317282 36.8008212,25.7330874 36.8008212,27.3381359" id="Fill-33" fill="#FFFFFF"></path>
                    <path d="M36.8008212,27.3381359 C36.8008212,28.9431845 35.4960071,30.2445437 33.8866973,30.2445437 C32.2769982,30.2445437 30.9721841,28.9431845 30.9721841,27.3381359 C30.9721841,25.7330874 32.2769982,24.4317282 33.8866973,24.4317282 C35.4960071,24.4317282 36.8008212,25.7330874 36.8008212,27.3381359 Z" id="Stroke-35" stroke="#717791" stroke-width="2.5" stroke-linecap="round" stroke-linejoin="round"></path>
                    <path d="M26.966315,35.4547961 C27.0484743,35.315767 27.1298549,35.1926602 27.2225274,35.0540194 C27.3175363,34.9142136 27.4086513,34.7693592 27.5168991,34.6392621 C27.7263858,34.3720777 27.9553416,34.1177087 28.2061027,33.8858641 C28.703731,33.4179029 29.2741735,33.0276117 29.8788814,32.7041165 C31.0882973,32.0540194 32.466315,31.7052816 33.843554,31.7033398 C35.2211823,31.6979029 36.5988106,32.0380971 37.8105628,32.6796505 C39.0207575,33.3107184 40.0604035,34.3033398 40.7005451,35.4493592 L40.7087221,35.4637282 C40.7667398,35.5674175 40.7293593,35.6986796 40.6253947,35.7565437 C40.5401204,35.8039223 40.4365451,35.7872233 40.3695717,35.7227573 C39.8937487,35.2610097 39.4444035,34.8579029 38.9440496,34.4878058 C38.4479788,34.1231456 37.9242619,33.8039223 37.3744566,33.5417864 C36.2764035,33.0120777 35.0599788,32.7580971 33.8486159,32.7662524 C32.6364743,32.772466 31.4293947,33.0547961 30.3406867,33.5946019 C29.7959434,33.8645049 29.2874124,34.2027573 28.8053593,34.5782913 C28.563554,34.7654757 28.3310938,34.9658641 28.1017487,35.1728544 C27.9845451,35.2742136 27.8786336,35.386835 27.7610407,35.4905243 C27.6450053,35.5980971 27.5184566,35.7223689 27.3922973,35.8307184 C27.2719788,35.9332427 27.0909168,35.9196505 26.987731,35.8000388 C26.9059611,35.7048932 26.8977841,35.5709126 26.9581381,35.4687767 L26.966315,35.4547961 Z" id="Fill-37" fill="#717791"></path>
                </g>
            </g>
        </g>
    </g>
</svg>