<?xml version="1.0" encoding="UTF-8"?>
<svg width="38px" height="39px" viewBox="0 0 38 39" version="1.1" xmlns="http://www.w3.org/2000/svg" xmlns:xlink="http://www.w3.org/1999/xlink">
    <!-- Generator: Sketch 52.6 (67491) - http://www.bohemiancoding.com/sketch -->
    <title>Group 37</title>
    <desc>Created with Sketch.</desc>
    <defs>
        <polygon id="path-1" points="0.115806557 0.588307692 29.601377 0.588307692 29.601377 38.769136 0.115806557 38.769136"></polygon>
        <polygon id="path-3" points="0 0.476867618 32.9380262 0.476867618 32.9380262 5.53845446 0 5.53845446"></polygon>
    </defs>
    <g id="Contacts" stroke="none" stroke-width="1" fill="none" fill-rule="evenodd">
        <g id="Contact-(desktop)" transform="translate(-754.000000, -1171.000000)">
            <g id="Group-2">
                <g id="Group-37" transform="translate(754.000000, 1171.000000)">
                    <path d="M35.3064852,1.24449231 L10.6083541,1.24449231 C9.63779672,1.24449231 8.85100984,2.02172308 8.85100984,2.97987692 L8.85100984,38.1675692 L30.3041902,38.1675692 C34.0369115,38.1675692 37.0632066,35.1780308 37.0632066,31.4900308 L37.0632066,2.97987692 C37.0632066,2.02172308 36.2770426,1.24449231 35.3064852,1.24449231" id="Fill-1" fill="#FFFFFF"></path>
                    <g id="Group-5" transform="translate(8.098361, 0.027323)">
                        <mask id="mask-2" fill="white">
                            <use xlink:href="#path-1"></use>
                        </mask>
                        <g id="Clip-4"></g>
                        <path d="M1.38911803,34.6327385 L1.38911803,38.1398154 L0.753085246,37.5115077 L15.8278721,37.5115077 L23.3643311,37.5115077 C23.669577,37.5078154 24.0146918,37.5188923 24.2850525,37.5035077 C24.5579049,37.4967385 24.8295115,37.4592 25.0948885,37.3988923 C25.6250197,37.2776615 26.1302328,37.0512 26.5731508,36.7373538 C27.4627246,36.1121231 28.0869213,35.1324308 28.2644623,34.0702769 C28.3161672,33.7982769 28.3217738,33.5508923 28.3286262,33.2487385 L28.3286262,32.3176615 L28.3286262,30.4561231 L28.3286262,26.7336615 L28.3286262,19.2875077 L28.3286262,4.39581538 L28.3286262,2.53427692 C28.3286262,2.44012308 28.3261344,2.42104615 28.3223967,2.3792 C28.318659,2.34104615 28.3093148,2.30473846 28.2981016,2.26843077 C28.2750525,2.19643077 28.2382984,2.12812308 28.1884623,2.06843077 C28.0887902,1.94966154 27.9448885,1.87089231 27.7928885,1.85181538 L24.1068885,1.84566154 L16.5691836,1.84566154 L9.03210164,1.84566154 L5.26324918,1.84566154 L3.37882295,1.84566154 L2.43692131,1.84566154 L1.98590492,1.84750769 C1.90741311,1.84996923 1.83203607,1.86596923 1.76164262,1.89612308 C1.62023279,1.95458462 1.50062623,2.07273846 1.4402,2.21243077 C1.40967541,2.28196923 1.39347869,2.35643077 1.39098689,2.43396923 L1.38911803,2.87766154 L1.38911803,4.7392 L1.38911803,8.46227692 L1.38600328,15.9078154 L1.34924918,23.3533538 L1.33056066,27.0764308 C1.33305246,28.3176615 1.31374098,29.5582769 1.13682295,30.7995077 C1.10629836,31.0087385 0.910068852,31.1545846 0.698888525,31.1250462 C0.523216393,31.1004308 0.392396721,30.9638154 0.36872459,30.7995077 C0.191183607,29.5582769 0.171872131,28.3176615 0.174986885,27.0764308 L0.156298361,23.3533538 L0.118921311,15.9078154 L0.115806557,8.46227692 L0.116429508,4.7392 L0.116429508,2.87766154 L0.118921311,2.39027692 C0.126396721,2.15827692 0.179347541,1.92443077 0.274036066,1.70966154 C0.462790164,1.27889231 0.819118033,0.927507692 1.25580656,0.742276923 C1.47383934,0.648738462 1.71056066,0.597661538 1.94603607,0.590892308 L2.43692131,0.588430769 L3.37882295,0.588430769 L5.26324918,0.588430769 L9.03210164,0.588430769 L16.5691836,0.588430769 L24.1068885,0.588430769 L25.9913148,0.588430769 L26.9332164,0.588430769 L27.4047902,0.588430769 C27.5667574,0.592738462 27.6882328,0.577353846 27.9567246,0.605661538 C28.4289213,0.663507692 28.8718393,0.908430769 29.1714787,1.26966154 C29.3216098,1.44996923 29.4368557,1.6592 29.509741,1.88258462 C29.5446262,1.99458462 29.5714131,2.10904615 29.5863639,2.22535385 C29.6000689,2.33735385 29.6019377,2.47396923 29.6013148,2.53427692 L29.6013148,4.39581538 L29.6013148,19.2875077 L29.6013148,26.7336615 L29.6013148,30.4561231 L29.6013148,32.3176615 L29.6013148,33.2487385 C29.5957082,33.5656615 29.5844951,33.9410462 29.5190852,34.2801231 C29.2873475,35.6690462 28.4731508,36.9465846 27.3138393,37.7601231 C26.7363639,38.1687385 26.0760361,38.4653538 25.3833148,38.6235077 C25.0369541,38.7022769 24.683118,38.7508923 24.3280361,38.7601231 C23.9717082,38.7767385 23.6882656,38.7644308 23.3643311,38.7687385 L15.8278721,38.7687385 L0.753085246,38.7687385 C0.401118033,38.7687385 0.116429508,38.4868923 0.116429508,38.1398154 L0.116429508,34.6327385 C0.116429508,34.2856615 0.401118033,34.0044308 0.753085246,34.0044308 C1.10442951,34.0044308 1.38911803,34.2856615 1.38911803,34.6327385" id="Fill-3" fill="#717791" mask="url(#mask-2)"></path>
                    </g>
                    <path d="M8.85113443,32.5813538 L8.85113443,32.6385846" id="Stroke-6" stroke="#717791" stroke-width="2.043" stroke-linecap="round" stroke-linejoin="round"></path>
                    <path d="M22.326682,34.4244923 L28.5125836,34.4244923 C28.5125836,35.4589538 28.9343213,36.3931077 29.6251738,37.0688 C30.3085508,37.7506462 31.2548131,38.1678769 32.3019934,38.1678769 L4.41996066,38.1678769 C3.37900984,38.1678769 2.42776393,37.7506462 1.74314098,37.0688 C1.05851803,36.3931077 0.636780328,35.4589538 0.636780328,34.4244923 L18.9646164,34.4244923" id="Fill-8" fill="#FFFFFF"></path>
                    <g id="Group-12" transform="translate(0.000000, 33.258092)">
                        <mask id="mask-4" fill="white">
                            <use xlink:href="#path-3"></use>
                        </mask>
                        <g id="Clip-11"></g>
                        <path d="M22.326682,0.829846154 C22.8418623,0.667384615 23.3570426,0.606461538 23.8728459,0.573230769 C24.3886492,0.549846154 24.9044525,0.525230769 25.4196328,0.515384615 C25.9348131,0.498153846 26.4506164,0.503692308 26.9657967,0.501230769 C27.480977,0.495692308 27.9974033,0.514153846 28.5125836,0.537538462 L28.5437311,0.538769231 C28.8838623,0.554153846 29.1492393,0.833538462 29.1486164,1.16646154 C29.1461246,1.98676923 29.4812721,2.78923077 30.0749443,3.36646154 C30.6592721,3.95230769 31.470977,4.28338462 32.3019934,4.28092308 L32.3019934,5.53815385 L15.3957311,5.53815385 L6.94353443,5.53815385 L4.8298623,5.53815385 C4.50219016,5.53692308 4.07671475,5.55107692 3.66868197,5.47415385 C3.26251803,5.40646154 2.86756721,5.27846154 2.49628852,5.10307692 C0.999337705,4.40338462 -0.00984262295,2.82246154 0.000747540984,1.18738462 L0.000124590164,1.16646154 C-0.00921967213,0.828615385 0.260518033,0.547384615 0.602518033,0.538153846 L0.605632787,0.538153846 L0.636780328,0.537538462 C3.6911082,0.471076923 6.74605902,0.476615385 9.80100984,0.477230769 L14.3821902,0.525230769 C15.9096656,0.572 17.437141,0.440923077 18.9646164,0.829846154 C19.1521246,0.877846154 19.2661246,1.06738462 19.2175344,1.25261538 C19.1838951,1.38 19.084223,1.47169231 18.9646164,1.50307692 C17.437141,1.892 15.9096656,1.76092308 14.3821902,1.80769231 L9.80100984,1.85507692 C6.74605902,1.85569231 3.6911082,1.86123077 0.636780328,1.79476923 L1.27281311,1.16646154 L1.27343607,1.18123077 C1.2628459,2.34615385 1.98920656,3.47353846 3.0513377,3.97138462 C3.3148459,4.09630769 3.59517377,4.18738462 3.88422295,4.23476923 C4.17015738,4.29015385 4.4548459,4.27969231 4.8298623,4.28092308 L6.94353443,4.28092308 L15.3957311,4.28092308 L32.3019934,4.28092308 C32.6527148,4.28092308 32.9380262,4.56215385 32.9380262,4.90923077 C32.9380262,5.25507692 32.6552066,5.53569231 32.3063541,5.53815385 L32.3019934,5.53815385 C31.1451738,5.54553846 29.9833705,5.06984615 29.1747803,4.25507692 C28.3499934,3.45692308 27.8684525,2.30861538 27.8759279,1.16646154 L28.5125836,1.79476923 C27.9974033,1.81815385 27.480977,1.83661538 26.9657967,1.83169231 C26.4506164,1.82861538 25.9348131,1.83415385 25.4196328,1.81692308 C24.9044525,1.80707692 24.3886492,1.78246154 23.8728459,1.75969231 C23.3570426,1.72646154 22.8418623,1.66492308 22.326682,1.50307692 C22.1385508,1.44338462 22.034518,1.24461538 22.0943213,1.05876923 C22.1310754,0.946153846 22.2207803,0.863692308 22.326682,0.829846154" id="Fill-10" fill="#717791" mask="url(#mask-4)"></path>
                    </g>
                    <path d="M13.8073311,7.33735385 L32.4404131,7.33735385" id="Fill-13" fill="#FFFFFF"></path>
                    <path d="M13.8073311,6.95876923 C15.3597246,6.65476923 16.912741,6.70092308 18.4657574,6.67938462 C20.0187738,6.66584615 21.5711672,6.69415385 23.1241836,6.736 C26.2289705,6.80184615 29.3356262,6.89907692 32.4404131,7.11261538 C32.5662492,7.12123077 32.6615607,7.22830769 32.6528393,7.35323077 C32.644741,7.46646154 32.5525443,7.55446154 32.4404131,7.56184615 C29.3356262,7.77538462 26.2289705,7.87261538 23.1241836,7.93907692 C21.5711672,7.98030769 20.0187738,8.008 18.4657574,7.99507692 C16.912741,7.97353846 15.3597246,8.02030769 13.8073311,7.71569231 C13.5955279,7.67446154 13.4578557,7.47138462 13.5002164,7.26215385 C13.5319869,7.10461538 13.6572,6.98830769 13.8073311,6.95876923" id="Fill-15" fill="#717791"></path>
                    <path d="M13.8073311,11.6561846 L28.1918885,11.6561846" id="Fill-17" fill="#FFFFFF"></path>
                    <path d="M13.8073311,11.3884308 C15.0058885,11.2838154 16.2050689,11.1964308 17.4030033,11.1268923 C18.6021836,11.0659692 19.800741,10.9748923 20.9999213,10.9779692 C22.1984787,10.9859692 23.3970361,10.9435077 24.5955934,10.9164308 C25.7941508,10.9102769 26.9933311,10.9724308 28.1918885,11.1693538 C28.464118,11.2136615 28.6478885,11.4678154 28.6030361,11.7367385 C28.5669049,11.9508923 28.3968393,12.1096615 28.1918885,12.1435077 C26.9933311,12.3398154 25.7941508,12.4019692 24.5955934,12.3964308 C23.3970361,12.3687385 22.1984787,12.3262769 20.9999213,12.3348923 C19.800741,12.3373538 18.6021836,12.2468923 17.4030033,12.1853538 C16.2050689,12.1158154 15.0058885,12.0290462 13.8073311,11.9238154 C13.657823,11.9108923 13.5469377,11.7804308 13.5606426,11.6321231 C13.5718557,11.5010462 13.6783803,11.3995077 13.8073311,11.3884308" id="Fill-19" fill="#717791"></path>
                    <path d="M13.8073311,15.9752615 L32.4404131,15.9752615" id="Fill-21" fill="#FFFFFF"></path>
                    <path d="M13.8073311,15.7084308 C16.912741,15.2924308 20.0187738,15.3933538 23.1241836,15.3828923 C24.676577,15.3742769 26.2289705,15.4062769 27.7826098,15.4333538 C29.3356262,15.4536615 30.8880197,15.5096615 32.4404131,15.5767385 C32.6640525,15.5865846 32.8359869,15.7724308 32.8260197,15.9927385 C32.8172984,16.2001231 32.6472328,16.3644308 32.4404131,16.3736615 C30.8880197,16.4407385 29.3356262,16.4967385 27.7826098,16.5170462 C26.2289705,16.5441231 24.676577,16.5767385 23.1241836,16.5675077 C20.0187738,16.5570462 16.912741,16.6579692 13.8073311,16.2419692 C13.6584459,16.2216615 13.5537902,16.0862769 13.5737246,15.9392 C13.5905443,15.8161231 13.6889705,15.7244308 13.8073311,15.7084308" id="Fill-23" fill="#717791"></path>
                    <path d="M13.8073311,20.2944 L28.1918885,20.2944" id="Fill-25" fill="#FFFFFF"></path>
                    <path d="M13.8073311,19.9184615 C16.2050689,19.7418462 18.6021836,19.6581538 20.9999213,19.628 C23.3970361,19.6089231 25.7941508,19.5541538 28.1918885,19.9184615 C28.401823,19.9504615 28.5457246,20.1443077 28.5133311,20.3523077 C28.4871672,20.5203077 28.3532328,20.6452308 28.1918885,20.6698462 C25.7941508,21.0341538 23.3970361,20.98 20.9999213,20.9603077 C18.6021836,20.9307692 16.2050689,20.8470769 13.8073311,20.6698462 C13.5973967,20.6544615 13.4397902,20.4735385 13.4553639,20.2661538 C13.4696918,20.0778462 13.6216918,19.932 13.8073311,19.9184615" id="Fill-27" fill="#717791"></path>
                    <path d="M13.8073311,24.6131692 L32.4404131,24.6131692" id="Fill-29" fill="#FFFFFF"></path>
                    <path d="M13.8073311,24.3043077 C15.3597246,24.1153846 16.912741,24.0501538 18.4657574,24.0175385 C20.0187738,23.9898462 21.5711672,23.972 23.1241836,23.972 L27.7826098,24.0390769 C29.3356262,24.0735385 30.8880197,24.1418462 32.4404131,24.3264615 C32.6011344,24.3449231 32.7157574,24.4895385 32.695823,24.6476923 C32.6802492,24.7824615 32.5718557,24.8846154 32.4404131,24.9 C30.8880197,25.0846154 29.3356262,25.1529231 27.7826098,25.188 L23.1241836,25.2544615 C21.5711672,25.2544615 20.0187738,25.2366154 18.4657574,25.2089231 C16.912741,25.1763077 15.3597246,25.1116923 13.8073311,24.9221538 C13.6347738,24.9012308 13.5114295,24.7461538 13.5332328,24.5750769 C13.5512984,24.4304615 13.6671672,24.3215385 13.8073311,24.3043077" id="Fill-31" fill="#717791"></path>
                    <path d="M13.8073311,28.9323077 L28.1918885,28.9323077" id="Fill-33" fill="#FFFFFF"></path>
                    <path d="M13.8073311,28.5585231 C15.0058885,28.3659077 16.2050689,28.3142154 17.4030033,28.2994462 C18.6021836,28.2976 19.800741,28.3068308 20.9999213,28.3289846 C22.1984787,28.3431385 23.3970361,28.3886769 24.5955934,28.4262154 C25.7941508,28.4588308 26.9933311,28.5265231 28.1918885,28.6022154 C28.376282,28.6139077 28.515823,28.7714462 28.5046098,28.9536 C28.4933967,29.1216 28.3569705,29.2520615 28.1918885,29.2625231 C26.9933311,29.3382154 25.7941508,29.4059077 24.5955934,29.4385231 C23.3970361,29.4760615 22.1984787,29.5209846 20.9999213,29.5357538 C19.800741,29.5579077 18.6021836,29.5671385 17.4030033,29.5652923 C16.2050689,29.5505231 15.0058885,29.4988308 13.8073311,29.3062154 C13.5980197,29.2723692 13.4566098,29.0779077 13.4902492,28.8717538 C13.517659,28.7068308 13.6491016,28.5843692 13.8073311,28.5585231" id="Fill-35" fill="#717791"></path>
                </g>
            </g>
        </g>
    </g>
</svg>