<?xml version="1.0" encoding="UTF-8"?>
<svg width="36px" height="42px" viewBox="0 0 36 42" version="1.1" xmlns="http://www.w3.org/2000/svg" xmlns:xlink="http://www.w3.org/1999/xlink">
    <!-- Generator: Sketch 52.6 (67491) - http://www.bohemiancoding.com/sketch -->
    <title>Group 19</title>
    <desc>Created with Sketch.</desc>
    <g id="Contacts" stroke="none" stroke-width="1" fill="none" fill-rule="evenodd">
        <g id="Contact-(desktop)" transform="translate(-751.000000, -932.000000)">
            <g id="Group-2">
                <g id="Group-19" transform="translate(753.000000, 932.000000)">
                    <path d="M7.3217,25.0382716 L5.2152,25.0382716 C2.4732,25.0382716 0.2497,22.842716 0.2497,20.1340741 C0.2497,17.4259259 2.4732,15.2303704 5.2152,15.2303704 L7.3217,15.2303704 L7.3217,25.0382716 Z" id="Fill-1" fill="#B8D4FF"></path>
                    <path d="M7.3217,25.0382716 L5.2152,25.0382716 C2.4732,25.0382716 0.2497,22.842716 0.2497,20.1340741 C0.2497,17.4259259 2.4732,15.2303704 5.2152,15.2303704 L7.3217,15.2303704 L7.3217,25.0382716 Z" id="Stroke-3" stroke="#717791" stroke-width="3" stroke-linecap="round" stroke-linejoin="round"></path>
                    <path d="M26.1786,25.0382716 L28.2851,25.0382716 C31.0271,25.0382716 33.2506,22.842716 33.2506,20.1340741 C33.2506,17.4259259 31.0271,15.2303704 28.2851,15.2303704 L26.1786,15.2303704 L26.1786,25.0382716 Z" id="Fill-5" fill="#B8D4FF"></path>
                    <path d="M32.2172,17.6045926 C31.6862,17.2994074 31.3017,16.9803951 30.8687,16.6999012 C30.4347,16.4297778 29.9622,16.2322469 29.4762,16.1186667 C29.2322,16.0613827 28.9857,16.0223704 28.7377,16.0055802 C28.4922,15.9843457 28.2512,15.9971852 27.9397,15.9981728 C27.3537,16.0031111 26.7677,16.0026173 26.1812,15.9828642 L26.1787,15.9828642 L26.9407,15.2302716 C26.9597,18.4994074 26.9382,21.769037 26.9337,25.0381728 L26.1787,24.2924938 L27.4737,24.2954568 C27.9042,24.2915062 28.3572,24.3137284 28.6952,24.2717531 C29.0612,24.2307654 29.4092,24.1369383 29.7767,24.0712593 C30.1442,23.9912593 30.5137,23.9171852 31.0137,23.9181728 L31.0322,23.9181728 C31.2037,23.9181728 31.3417,24.0554568 31.3417,24.2243457 C31.3412,24.2648395 31.3327,24.3043457 31.3182,24.3399012 C31.1137,24.8332346 30.7167,25.1660741 30.2747,25.3848395 C29.8332,25.614963 29.3347,25.7201481 28.8402,25.7566914 C28.3177,25.7966914 27.9057,25.7724938 27.4737,25.7808889 L26.1787,25.7838519 C25.7627,25.7848395 25.4242,25.4529877 25.4232,25.0421235 L25.4232,25.0411358 L25.4232,25.0381728 C25.4182,21.769037 25.3972,18.4994074 25.4162,15.2302716 C25.4187,14.8199012 25.7512,14.4875556 26.1642,14.477679 L26.1787,14.477679 L26.1812,14.477679 C26.7677,14.4574321 27.3537,14.4569383 27.9397,14.4623704 C28.2147,14.4673086 28.5622,14.4638519 28.8992,14.5157037 C29.2337,14.5586667 29.5657,14.629284 29.8842,14.7394074 C30.5247,14.9448395 31.1157,15.2796543 31.6237,15.6984198 C32.1327,16.1087901 32.5592,16.6485432 32.6747,17.3097778 C32.7027,17.4697778 32.5942,17.6213827 32.4327,17.649037 C32.3607,17.6608889 32.2907,17.6465679 32.2327,17.6134815 L32.2172,17.6045926 Z" id="Fill-7" fill="#717791"></path>
                    <path d="M32.44865,21.8713086 C32.45665,21.4979753 32.52815,21.1774815 32.58765,20.844642 L32.67615,20.3443951 C32.70465,20.1755062 32.72215,20.0051358 32.76665,19.8283457 L32.77815,19.7814321 C32.84215,19.5256296 33.10415,19.3700741 33.36265,19.433284 C33.53665,19.4757531 33.66515,19.6071111 33.71065,19.7651358 C33.83065,20.1774815 33.84415,20.6150123 33.77815,21.0392099 C33.71215,21.4629136 33.56415,21.8821728 33.27165,22.2150123 C33.10215,22.4080988 32.80515,22.4288395 32.60965,22.2614321 C32.50065,22.1680988 32.44565,22.0357531 32.44815,21.9034074 L32.44865,21.8713086 Z" id="Fill-9" fill="#717791"></path>
                    <path d="M27.33585,13.1396543 C27.32985,12.6700247 27.35285,12.1623704 27.32335,11.7243457 L27.29035,11.0537284 C27.28285,10.8300247 27.22885,10.6112593 27.20085,10.3895309 C27.08735,9.50064198 26.80085,8.64434568 26.46535,7.8157037 C25.72485,6.18903704 24.61435,4.69866667 23.15335,3.62903704 C22.44935,3.05916049 21.63235,2.65274074 20.81485,2.27150617 C19.96885,1.95841975 19.10385,1.6665679 18.20035,1.56730864 C17.30485,1.42064198 16.38985,1.43792593 15.48835,1.51002469 L14.81635,1.61224691 L14.48085,1.66360494 L14.15185,1.74804938 L13.49385,1.91496296 L12.85585,2.14409877 C11.14985,2.75644444 9.65235,3.86558025 8.47135,5.21669136 C7.31335,6.59101235 6.50135,8.25224691 6.15985,10.0078025 C6.10235,10.4512593 5.99735,10.889284 5.99785,11.3386667 L5.96335,12.0087901 L5.96335,12.7268148 L5.96535,15.5969383 C5.96385,16.5539753 6.01585,17.5110123 6.04535,18.4675556 C6.05685,19.4245926 6.10385,20.3816296 5.80585,21.3381728 C5.70535,21.6601481 5.35985,21.8413827 5.03385,21.7421235 C4.83185,21.6808889 4.68385,21.523358 4.62435,21.3381728 C4.32635,20.3816296 4.37335,19.4245926 4.38535,18.4675556 C4.41485,17.5110123 4.46685,16.5539753 4.46535,15.5969383 L4.46735,12.7268148 L4.46785,12.0087901 L4.50635,11.2458272 C4.51035,10.734716 4.62335,10.2344691 4.69385,9.72977778 C5.08485,7.72780247 6.01285,5.83298765 7.33435,4.27150617 C8.67885,2.73224691 10.38685,1.4774321 12.33035,0.778666667 L13.05835,0.519901235 L13.80785,0.329283951 L14.18285,0.234962963 L14.56485,0.175209877 L15.32935,0.0611358025 C16.35535,-0.0228148148 17.39285,-0.0371358025 18.41135,0.128296296 C19.43885,0.246320988 20.42585,0.573234568 21.38735,0.935703704 C22.31935,1.36582716 23.24385,1.83595062 24.04535,2.48088889 C25.69985,3.70162963 26.97785,5.37965432 27.82335,7.23446914 C28.21185,8.17619753 28.53735,9.15298765 28.67385,10.1653333 C28.70735,10.4171852 28.76535,10.6675556 28.77685,10.9218765 L28.81785,11.6848395 C28.84985,12.2023704 28.82785,12.6527407 28.83585,13.1396543 C28.84285,13.5485432 28.51235,13.8858272 28.09785,13.8922469 C27.68385,13.8986667 27.34335,13.5722469 27.33635,13.163358 L27.33635,13.1608889 L27.33585,13.1396543 Z" id="Fill-11" fill="#717791"></path>
                    <path d="M16.6508,37.7712099 C18.9913,37.7341728 21.3313,36.9904691 23.1658,35.5420741 C24.0888,34.8339259 24.8968,33.9800988 25.5503,33.0210864 C26.2058,32.0620741 26.6693,30.9840494 26.9683,29.8699753 C27.1363,29.3159012 27.2028,28.7381235 27.2763,28.1662716 L27.3218,27.2996049 C27.3308,27.0018272 27.3253,26.6838025 27.3273,26.376642 L27.3313,22.6610864 L27.3358,18.9455309 C27.3398,18.3267654 27.3378,17.7075062 27.3768,17.0877531 C27.4263,16.4684938 27.4223,15.8492346 27.6378,15.2299753 C27.7228,14.9855309 27.9928,14.8556543 28.2403,14.9396049 C28.3833,14.988 28.4883,15.0996049 28.5348,15.2299753 C28.7498,15.8492346 28.7453,16.4684938 28.7948,17.0877531 C28.8338,17.7075062 28.8323,18.3267654 28.8363,18.9455309 L28.8403,22.6610864 L28.8448,26.376642 C28.8433,26.6887407 28.8498,26.9899753 28.8413,27.310963 L28.7918,28.2996049 C28.7128,28.9539259 28.6328,29.6131852 28.4453,30.2487407 C28.1073,31.5247901 27.5763,32.7588642 26.8298,33.8576296 C26.0863,34.9563951 25.1653,35.9351605 24.1103,36.7470123 C22.0083,38.3988642 19.3138,39.2319506 16.6508,39.2526914 C16.2368,39.2561481 15.8978,38.9272593 15.8948,38.5178765 C15.8913,38.110963 16.2213,37.7781235 16.6323,37.7712099 L16.6508,37.7712099 Z" id="Fill-13" fill="#717791"></path>
                    <path d="M19.3339,39.9485926 L15.5224,39.9485926 C14.7049,39.9485926 14.0424,39.2942716 14.0424,38.487358 C14.0424,37.6804444 14.7049,37.0261235 15.5224,37.0261235 L19.3339,37.0261235 C20.1514,37.0261235 20.8134,37.6804444 20.8134,38.487358 C20.8134,39.2942716 20.1514,39.9485926 19.3339,39.9485926" id="Fill-15" fill="#FFFFFF"></path>
                    <path d="M19.3339,39.9485926 L15.5224,39.9485926 C14.7049,39.9485926 14.0424,39.2942716 14.0424,38.487358 C14.0424,37.6804444 14.7049,37.0261235 15.5224,37.0261235 L19.3339,37.0261235 C20.1514,37.0261235 20.8134,37.6804444 20.8134,38.487358 C20.8134,39.2942716 20.1514,39.9485926 19.3339,39.9485926 Z" id="Stroke-17" stroke="#717791" stroke-width="3" stroke-linecap="round" stroke-linejoin="round"></path>
                </g>
            </g>
        </g>
    </g>
</svg>