<?xml version="1.0" encoding="UTF-8"?>
<svg width="13px" height="7px" viewBox="0 0 13 7" version="1.1" xmlns="http://www.w3.org/2000/svg" xmlns:xlink="http://www.w3.org/1999/xlink">
    <!-- Generator: Sketch 52.6 (67491) - http://www.bohemiancoding.com/sketch -->
    <title>Fill 1</title>
    <desc>Created with Sketch.</desc>
    <g id="v3" stroke="none" stroke-width="1" fill="none" fill-rule="evenodd">
        <g id="License-expired" transform="translate(-1407.000000, -57.000000)" fill="#838D9A">
            <g id="Group-12" transform="translate(0.000000, 30.000000)">
                <g id="Group-14" transform="translate(1131.000000, 13.000000)">
                    <path d="M279.708812,23.7916875 C279.580812,23.7916875 279.452812,23.7426875 279.354812,23.6456875 C279.159812,23.4496875 279.159812,23.1336875 279.354812,22.9376875 L284.645812,17.6476875 C284.841812,17.4516875 284.841812,17.1316875 284.645812,16.9356875 L279.354812,11.6456875 C279.159812,11.4496875 279.159812,11.1336875 279.354812,10.9376875 C279.550812,10.7426875 279.866812,10.7426875 280.062812,10.9376875 L285.352812,16.2286875 C285.937812,16.8146875 285.937812,17.7686875 285.353812,18.3546875 L280.062812,23.6456875 C279.964812,23.7426875 279.836812,23.7916875 279.708812,23.7916875" id="Fill-1" transform="translate(282.500125, 17.291563) rotate(-270.000000) translate(-282.500125, -17.291563) "></path>
                </g>
            </g>
        </g>
    </g>
</svg>