<?xml version="1.0" encoding="UTF-8"?>
<svg width="14px" height="14px" viewBox="0 0 14 14" version="1.1" xmlns="http://www.w3.org/2000/svg" xmlns:xlink="http://www.w3.org/1999/xlink">
    <!-- Generator: Sketch 52.6 (67491) - http://www.bohemiancoding.com/sketch -->
    <title>Fill 3</title>
    <desc>Created with Sketch.</desc>
    <g id="v3" stroke="none" stroke-width="1" fill="none" fill-rule="evenodd">
        <g id="License-expired" transform="translate(-1407.000000, -8.000000)" fill="#FFFFFF">
            <path d="M1414.70775,15.00025 L1420.85375,8.87625 C1421.04875,8.68125 1421.04975,8.36525 1420.85375,8.16925 C1420.65975,7.97325 1420.34275,7.97325 1420.14675,8.16825 L1414.00075,14.29325 L1407.85375,8.14625 C1407.65875,7.95125 1407.34175,7.95125 1407.14675,8.14625 C1406.95175,8.34125 1406.95175,8.65825 1407.14675,8.85325 L1413.29275,14.99925 L1407.14675,21.12325 C1406.95175,21.31725 1406.95075,21.63425 1407.14575,21.83025 C1407.24375,21.92825 1407.37175,21.97725 1407.49975,21.97725 C1407.62775,21.97725 1407.75575,21.92825 1407.85375,21.83125 L1413.99975,15.70625 L1420.14675,21.85325 C1420.24475,21.95125 1420.37275,22.00025 1420.49975,22.00025 C1420.62775,22.00025 1420.75575,21.95125 1420.85375,21.85325 C1421.04875,21.65825 1421.04875,21.34125 1420.85375,21.14625 L1414.70775,15.00025 Z" id="Fill-3"></path>
        </g>
    </g>
</svg>