<svg width="31" height="31" viewBox="0 0 31 31" fill="none" xmlns="http://www.w3.org/2000/svg">
    <path fill-rule="evenodd" clip-rule="evenodd" d="M13.95 0L6.9751 15.53H13.95L20.9251 0H13.95Z" fill="white"/>
    <path fill-rule="evenodd" clip-rule="evenodd" d="M0 0L6.975 15.53H13.95L6.975 0H0Z" fill="white"/>
    <path fill-rule="evenodd" clip-rule="evenodd" d="M31.0001 18.6359C31.0001 19.9226 29.959 20.9654 28.6751 20.9654C27.3909 20.9654 26.3501 19.9226 26.3501 18.6359C26.3501 17.3493 27.3909 16.3064 28.6751 16.3064C29.959 16.3064 31.0001 17.3493 31.0001 18.6359Z" fill="white"/>
    <path fill-rule="evenodd" clip-rule="evenodd" d="M23.4281 20.1889H16.2749C17.128 26.2896 22.362 31 28.6749 31V23.9874C26.2344 23.9874 24.1618 22.3926 23.4281 20.1889Z" fill="white"/>
    <path fill-rule="evenodd" clip-rule="evenodd" d="M23.4281 17.0829C24.1618 14.867 26.2344 13.2634 28.6749 13.2634V6.21198C22.362 6.21198 17.128 10.9485 16.2749 17.0829H23.4281Z" fill="white"/>
</svg>
