<svg width="169" height="39" viewBox="0 0 169 39" fill="none" xmlns="http://www.w3.org/2000/svg">
<g clip-path="url(#clip0_3421_89329)">
<path fill-rule="evenodd" clip-rule="evenodd" d="M17.9643 0L8.98218 19.5H17.9643L26.9467 0H17.9643Z" fill="#CCCCCC"/>
<path fill-rule="evenodd" clip-rule="evenodd" d="M0 0L8.98228 19.5H17.9646L8.98228 0H0Z" fill="#FF4A4A"/>
<path fill-rule="evenodd" clip-rule="evenodd" d="M39.9213 23.4001C39.9213 25.0157 38.5806 26.3251 36.9272 26.3251C35.2735 26.3251 33.9331 25.0157 33.9331 23.4001C33.9331 21.7845 35.2735 20.4751 36.9272 20.4751C38.5806 20.4751 39.9213 21.7845 39.9213 23.4001Z" fill="#FF4A4A"/>
<path fill-rule="evenodd" clip-rule="evenodd" d="M30.1705 25.3501H20.9587C22.0574 33.0103 28.7976 38.9249 36.9272 38.9249V30.1196C33.7844 30.1196 31.1153 28.1171 30.1705 25.3501Z" fill="#FFC10D"/>
<path fill-rule="evenodd" clip-rule="evenodd" d="M30.1705 21.45C31.1153 18.6677 33.7844 16.6541 36.9272 16.6541V7.80005C28.7976 7.80005 22.0574 13.7474 20.9587 21.45H30.1705Z" fill="#FFC10D"/>
<path fill-rule="evenodd" clip-rule="evenodd" d="M59.4666 14.664L64.5127 2.80798H65.705L59.7008 16.744H59.2537L53.2283 2.80798H54.4206L59.4666 14.664ZM68.6219 2.80798H69.7291V16.536H68.6219V2.80798ZM79.6934 10.296L84.4414 16.536H83.1426L78.4159 10.3792H74.988V16.536H73.8809V2.80798H78.6501C79.9489 2.80798 80.9922 3.16158 81.7587 3.86878C82.5252 4.57598 82.9084 5.47038 82.9084 6.57278C82.9084 8.48638 81.7161 9.94238 79.6934 10.296ZM78.6075 3.78558H74.988V9.40158H78.6075C80.6302 9.40158 81.7587 8.25758 81.7587 6.59358C81.7587 4.92958 80.6302 3.78558 78.6075 3.78558ZM84.8459 2.80798H96.2368V3.78558H91.0843V16.536H89.9771V3.78558H84.8459V2.80798ZM104.477 2.59998C106.478 2.59998 108.181 3.28638 109.586 4.63838C110.992 5.99038 111.694 7.67518 111.694 9.67198C111.694 11.648 110.992 13.3328 109.586 14.7056C108.181 16.0576 106.478 16.744 104.477 16.744C102.454 16.744 100.751 16.0576 99.3666 14.7056C97.9827 13.3328 97.28 11.648 97.28 9.67198C97.28 7.67518 97.9827 5.99038 99.3666 4.63838C100.751 3.28638 102.454 2.59998 104.477 2.59998ZM104.498 3.59838C102.773 3.59838 101.325 4.18078 100.176 5.34558C99.0259 6.48958 98.4511 7.92478 98.4511 9.65118C98.4511 11.3776 99.0259 12.8128 100.176 13.9776C101.325 15.1424 102.773 15.7248 104.498 15.7248C106.222 15.7248 107.649 15.1424 108.799 13.9776C109.948 12.8128 110.523 11.3776 110.523 9.65118C110.523 7.94558 109.948 6.51038 108.777 5.34558C107.628 4.18078 106.201 3.59838 104.498 3.59838ZM60.7228 23.4C63.0862 23.4 65.1514 24.4608 66.4076 26.1872L65.5772 26.832C64.4062 25.2096 62.7881 24.3984 60.7441 24.3984C59.0195 24.3984 57.593 24.9808 56.422 26.1456C55.2722 27.2896 54.6974 28.7248 54.6974 30.4512C54.6974 32.1776 55.2722 33.6336 56.422 34.7984C57.5717 35.9424 59.0195 36.5248 60.7441 36.5248C62.8094 36.5248 64.4062 35.7136 65.5772 34.112L66.4076 34.7568C65.1514 36.4832 63.0862 37.544 60.7228 37.544C58.7001 37.544 56.9968 36.8576 55.6129 35.5056C54.229 34.1536 53.5263 32.4688 53.5263 30.472C53.5263 28.4752 54.229 26.7904 55.6129 25.4384C56.9968 24.0864 58.7001 23.4 60.7228 23.4ZM75.7758 23.4C77.7772 23.4 79.4805 24.0864 80.8857 25.4384C82.2909 26.7904 82.9936 28.4752 82.9936 30.472C82.9936 32.448 82.2909 34.1328 80.8857 35.5056C79.4805 36.8576 77.7772 37.544 75.7758 37.544C73.7531 37.544 72.0498 36.8576 70.6659 35.5056C69.2819 34.1328 68.5793 32.448 68.5793 30.472C68.5793 28.4752 69.2819 26.7904 70.6659 25.4384C72.0498 24.0864 73.7531 23.4 75.7758 23.4ZM75.7971 24.3984C74.0725 24.3984 72.6247 24.9808 71.475 26.1456C70.3252 27.2896 69.7504 28.7248 69.7504 30.4512C69.7504 32.1776 70.3252 33.6128 71.475 34.7776C72.6247 35.9424 74.0725 36.5248 75.7971 36.5248C77.5217 36.5248 78.9482 35.9424 80.0979 34.7776C81.2477 33.6128 81.8225 32.1776 81.8225 30.4512C81.8225 28.7456 81.2477 27.3104 80.0766 26.1456C78.9269 24.9808 77.5004 24.3984 75.7971 24.3984ZM92.4682 31.5744L98.3233 23.4H98.7492V37.336H97.642V26.1664L92.7024 33.0512H92.2766L87.3157 26.1664V37.336H86.2085V23.4H86.6344L92.4682 31.5744ZM109.182 31.5744L115.037 23.4H115.463V37.336H114.356V26.1664L109.416 33.0512H108.99L104.029 26.1664V37.336H102.922V23.4H103.348L109.182 31.5744ZM119.636 23.608H128.429V24.5856H120.743V29.432H126.726V30.4096H120.743V36.3584H128.685V37.336H119.636V23.608ZM137.436 31.096L142.183 37.336H140.885L136.158 31.1792H132.73V37.336H131.623V23.608H136.392C137.691 23.608 138.734 23.9616 139.501 24.6688C140.267 25.376 140.651 26.2704 140.651 27.3728C140.651 29.2864 139.458 30.7424 137.436 31.096ZM136.35 24.5856H132.73V30.2016H136.35C138.372 30.2016 139.501 29.0576 139.501 27.3936C139.501 25.7296 138.372 24.5856 136.35 24.5856ZM150.615 23.4C152.978 23.4 155.043 24.4608 156.3 26.1872L155.469 26.832C154.298 25.2096 152.68 24.3984 150.636 24.3984C148.912 24.3984 147.485 24.9808 146.314 26.1456C145.164 27.2896 144.589 28.7248 144.589 30.4512C144.589 32.1776 145.164 33.6336 146.314 34.7984C147.464 35.9424 148.912 36.5248 150.636 36.5248C152.701 36.5248 154.298 35.7136 155.469 34.112L156.3 34.7568C155.043 36.4832 152.978 37.544 150.615 37.544C148.592 37.544 146.889 36.8576 145.505 35.5056C144.121 34.1536 143.418 32.4688 143.418 30.472C143.418 28.4752 144.121 26.7904 145.505 25.4384C146.889 24.0864 148.592 23.4 150.615 23.4ZM159.536 23.608H168.329V24.5856H160.643V29.432H166.626V30.4096H160.643V36.3584H168.585V37.336H159.536V23.608Z" fill="#465769"/>
</g>
<defs>
<clipPath id="clip0_3421_89329">
<rect width="169" height="39" fill="white"/>
</clipPath>
</defs>
</svg>
