<svg id="icon" viewBox="0 0 20 20" fill="currentColor" xmlns="http://www.w3.org/2000/svg">
<path d="M19.6875 10C19.6875 15.3514 15.3499 19.6875 10 19.6875C4.65012 19.6875 0.3125 15.3514 0.3125 10C0.3125 4.65168 4.65012 0.3125 10 0.3125C15.3499 0.3125 19.6875 4.65168 19.6875 10ZM10 11.9531C9.00762 11.9531 8.20312 12.7576 8.20312 13.75C8.20312 14.7424 9.00762 15.5469 10 15.5469C10.9924 15.5469 11.7969 14.7424 11.7969 13.75C11.7969 12.7576 10.9924 11.9531 10 11.9531ZM8.29402 5.4943L8.58379 10.8068C8.59734 11.0554 8.80289 11.25 9.05184 11.25H10.9482C11.1971 11.25 11.4027 11.0554 11.4162 10.8068L11.706 5.4943C11.7206 5.22578 11.5068 5 11.2379 5H8.76203C8.49312 5 8.27938 5.22578 8.29402 5.4943Z"/>
</svg>