<svg
id="icon"
viewBox="0 0 18 18"
fill="currentColor"
xmlns="http://www.w3.org/2000/svg"
>
<path
d="M9.00055 13.0501C6.86727 13.0501 5.14039 11.3989 4.98149 9.3064L2.03117 7.02631C1.64333 7.51287 1.28642 8.02728 0.998425 8.58978C0.934086 8.71705 0.900565 8.85766 0.900565 9.00026C0.900565 9.14287 0.934086 9.28348 0.998425 9.41075C2.52364 12.3867 5.54314 14.4001 9.00055 14.4001C9.75739 14.4001 10.4875 14.2876 11.1912 14.1059L9.7318 12.9767C9.49078 13.0233 9.24602 13.0478 9.00055 13.0501ZM17.8267 14.6842L14.7175 12.2812C15.662 11.4852 16.4388 10.5094 17.0027 9.41047C17.067 9.2832 17.1005 9.14259 17.1005 8.99998C17.1005 8.85737 17.067 8.71676 17.0027 8.5895C15.4775 5.61359 12.458 3.60012 9.00055 3.60012C7.55253 3.60188 6.12804 3.96641 4.85717 4.66043L1.27911 1.8949C1.23245 1.8586 1.1791 1.83184 1.12209 1.81616C1.06509 1.80048 1.00556 1.79619 0.946893 1.80353C0.888229 1.81087 0.831587 1.8297 0.780203 1.85894C0.728819 1.88817 0.6837 1.92725 0.647425 1.97394L0.0953308 2.68465C0.0220928 2.77887 -0.0107246 2.89831 0.0040962 3.01672C0.018917 3.13513 0.0801623 3.2428 0.174362 3.31606L16.722 16.1053C16.7686 16.1416 16.822 16.1684 16.879 16.1841C16.936 16.1998 16.9955 16.2041 17.0542 16.1967C17.1129 16.1894 17.1695 16.1705 17.2209 16.1413C17.2723 16.1121 17.3174 16.073 17.3537 16.0263L17.9061 15.3156C17.9793 15.2213 18.012 15.1019 17.9972 14.9835C17.9823 14.8651 17.921 14.7574 17.8267 14.6842ZM12.6596 10.6904L11.5543 9.836C11.6474 9.56697 11.6968 9.28477 11.7006 9.00012C11.706 8.58338 11.6137 8.17116 11.431 7.79658C11.2483 7.422 10.9802 7.09549 10.6484 6.84328C10.3166 6.59107 9.93031 6.42019 9.52049 6.34437C9.11067 6.26855 8.68878 6.28991 8.28871 6.40672C8.4583 6.63653 8.55004 6.91451 8.55055 7.20012C8.54635 7.29517 8.53183 7.38947 8.50724 7.48137L6.43696 5.88134C7.15611 5.28037 8.06335 4.95081 9.00055 4.95012C9.53249 4.94983 10.0593 5.05438 10.5508 5.25781C11.0423 5.46123 11.4889 5.75954 11.865 6.13568C12.2411 6.51182 12.5394 6.9584 12.7429 7.4499C12.9463 7.94141 13.0508 8.46818 13.0505 9.00012C13.0505 9.60847 12.9018 10.1755 12.6596 10.6907V10.6904Z"
/>
</svg>

