<svg
id="icon"
viewBox="0 0 18 18"
fill="currentColor"
xmlns="http://www.w3.org/2000/svg"
>
<path
d="M17.8912 8.38233C16.1965 5.03444 12.8415 2.76929 8.99998 2.76929C5.15842 2.76929 1.80248 5.03602 0.108733 8.38265C0.037246 8.52583 0 8.68401 0 8.84445C0 9.00488 0.037246 9.16306 0.108733 9.30624C1.80342 12.6541 5.15842 14.9193 8.99998 14.9193C12.8415 14.9193 16.1975 12.6526 17.8912 9.30592C17.9627 9.16275 18 9.00456 18 8.84413C18 8.6837 17.9627 8.52551 17.8912 8.38233ZM8.99998 13.4005C8.10997 13.4005 7.23994 13.1333 6.49992 12.6327C5.7599 12.132 5.18312 11.4204 4.84253 10.5879C4.50193 9.75534 4.41282 8.83923 4.58645 7.95541C4.76008 7.07158 5.18867 6.25973 5.818 5.62253C6.44734 4.98533 7.24916 4.55139 8.12208 4.37558C8.99499 4.19978 9.89979 4.29001 10.7221 4.63486C11.5443 4.97971 12.2471 5.5637 12.7416 6.31297C13.2361 7.06224 13.5 7.94315 13.5 8.84429C13.5003 9.4427 13.3841 10.0353 13.158 10.5882C12.932 11.1412 12.6005 11.6435 12.1826 12.0667C11.7647 12.4898 11.2685 12.8254 10.7224 13.0543C10.1763 13.2832 9.59101 13.4008 8.99998 13.4005ZM8.99998 5.80679C8.73221 5.81058 8.46617 5.85091 8.20905 5.9267C8.42099 6.21833 8.5227 6.5772 8.49572 6.93824C8.46875 7.29928 8.31487 7.63857 8.06201 7.89459C7.80915 8.15062 7.47405 8.30641 7.11747 8.33372C6.76088 8.36103 6.40644 8.25806 6.11842 8.04346C5.95441 8.65526 5.98402 9.30373 6.20307 9.8976C6.42213 10.4915 6.8196 11.0008 7.33955 11.354C7.8595 11.7072 8.47574 11.8864 9.10153 11.8663C9.72733 11.8463 10.3312 11.6281 10.8281 11.2424C11.325 10.8567 11.6899 10.323 11.8715 9.7163C12.0531 9.10961 12.0422 8.46054 11.8404 7.86044C11.6386 7.26035 11.256 6.73944 10.7464 6.37104C10.2369 6.00264 9.62609 5.80529 8.99998 5.80679Z"
/>
</svg>
