<?xml version="1.0" encoding="UTF-8"?>
<svg width="127px" height="30px" viewBox="0 0 127 30" version="1.1" xmlns="http://www.w3.org/2000/svg" xmlns:xlink="http://www.w3.org/1999/xlink">
    <!-- Generator: Sketch 52.6 (67491) - http://www.bohemiancoding.com/sketch -->
    <title>Group 11</title>
    <desc>Created with Sketch.</desc>
    <g id="v3" stroke="none" stroke-width="1" fill="none" fill-rule="evenodd">
        <g id="V6.0" transform="translate(-15.000000, -15.000000)">
            <g id="Group-11" transform="translate(15.000000, 15.000000)">
                <g id="Group-26">
                    <g id="Group-25">
                        <polygon id="Fill-1" fill="#CCCCCC" points="13.4998594 0 6.75 15 13.4998594 15 20.25 0"></polygon>
                        <polygon id="Fill-2" fill="#FF4A4A" points="0 0 6.75 15 13.5 15 6.75 0"></polygon>
                    </g>
                    <g id="Group-24" transform="translate(15.750000, 6.000000)">
                        <path d="M14.25,12 C14.25,13.24275 13.2425,14.25 12,14.25 C10.75725,14.25 9.75,13.24275 9.75,12 C9.75,10.75725 10.75725,9.75 12,9.75 C13.2425,9.75 14.25,10.75725 14.25,12" id="Fill-3" fill="#FF4A4A"></path>
                        <path d="M6.92241562,13.5 L0,13.5 C0.825593686,19.3924662 5.89077584,23.9421307 12,23.9421307 L12,17.1688567 C9.63822141,17.1688567 7.6324431,15.6285014 6.92241562,13.5" id="Fill-6" fill="#FFC10D"></path>
                        <path d="M6.92241562,10.5 C7.6324431,8.3597027 9.63822141,6.81081081 12,6.81081081 L12,0 C5.89077584,0 0.825593686,4.57487838 0,10.5 L6.92241562,10.5 Z" id="Fill-8" fill="#FFC10D"></path>
                    </g>
                </g>
                <path d="M44.688,11.28 L48.48,2.16 L49.376,2.16 L44.864,12.88 L44.528,12.88 L40,2.16 L40.896,2.16 L44.688,11.28 Z M51.568,2.16 L52.4,2.16 L52.4,12.72 L51.568,12.72 L51.568,2.16 Z M59.888,7.92 L63.456,12.72 L62.48,12.72 L58.928,7.984 L56.352,7.984 L56.352,12.72 L55.52,12.72 L55.52,2.16 L59.104,2.16 C60.08,2.16 60.864,2.432 61.44,2.976 C62.016,3.52 62.304,4.208 62.304,5.056 C62.304,6.528 61.408,7.648 59.888,7.92 Z M59.072,2.912 L56.352,2.912 L56.352,7.232 L59.072,7.232 C60.592,7.232 61.44,6.352 61.44,5.072 C61.44,3.792 60.592,2.912 59.072,2.912 Z M63.76,2.16 L72.32,2.16 L72.32,2.912 L68.448,2.912 L68.448,12.72 L67.616,12.72 L67.616,2.912 L63.76,2.912 L63.76,2.16 Z M78.512,2 C80.016,2 81.296,2.528 82.352,3.568 C83.408,4.608 83.936,5.904 83.936,7.44 C83.936,8.96 83.408,10.256 82.352,11.312 C81.296,12.352 80.016,12.88 78.512,12.88 C76.992,12.88 75.712,12.352 74.672,11.312 C73.632,10.256 73.104,8.96 73.104,7.44 C73.104,5.904 73.632,4.608 74.672,3.568 C75.712,2.528 76.992,2 78.512,2 Z M78.528,2.768 C77.232,2.768 76.144,3.216 75.28,4.112 C74.416,4.992 73.984,6.096 73.984,7.424 C73.984,8.752 74.416,9.856 75.28,10.752 C76.144,11.648 77.232,12.096 78.528,12.096 C79.824,12.096 80.896,11.648 81.76,10.752 C82.624,9.856 83.056,8.752 83.056,7.424 C83.056,6.112 82.624,5.008 81.744,4.112 C80.88,3.216 79.808,2.768 78.528,2.768 Z M45.632,18 C47.408,18 48.96,18.816 49.904,20.144 L49.28,20.64 C48.4,19.392 47.184,18.768 45.648,18.768 C44.352,18.768 43.28,19.216 42.4,20.112 C41.536,20.992 41.104,22.096 41.104,23.424 C41.104,24.752 41.536,25.872 42.4,26.768 C43.264,27.648 44.352,28.096 45.648,28.096 C47.2,28.096 48.4,27.472 49.28,26.24 L49.904,26.736 C48.96,28.064 47.408,28.88 45.632,28.88 C44.112,28.88 42.832,28.352 41.792,27.312 C40.752,26.272 40.224,24.976 40.224,23.44 C40.224,21.904 40.752,20.608 41.792,19.568 C42.832,18.528 44.112,18 45.632,18 Z M56.944,18 C58.448,18 59.728,18.528 60.784,19.568 C61.84,20.608 62.368,21.904 62.368,23.44 C62.368,24.96 61.84,26.256 60.784,27.312 C59.728,28.352 58.448,28.88 56.944,28.88 C55.424,28.88 54.144,28.352 53.104,27.312 C52.064,26.256 51.536,24.96 51.536,23.44 C51.536,21.904 52.064,20.608 53.104,19.568 C54.144,18.528 55.424,18 56.944,18 Z M56.96,18.768 C55.664,18.768 54.576,19.216 53.712,20.112 C52.848,20.992 52.416,22.096 52.416,23.424 C52.416,24.752 52.848,25.856 53.712,26.752 C54.576,27.648 55.664,28.096 56.96,28.096 C58.256,28.096 59.328,27.648 60.192,26.752 C61.056,25.856 61.488,24.752 61.488,23.424 C61.488,22.112 61.056,21.008 60.176,20.112 C59.312,19.216 58.24,18.768 56.96,18.768 Z M69.488,24.288 L73.888,18 L74.208,18 L74.208,28.72 L73.376,28.72 L73.376,20.128 L69.664,25.424 L69.344,25.424 L65.616,20.128 L65.616,28.72 L64.784,28.72 L64.784,18 L65.104,18 L69.488,24.288 Z M82.048,24.288 L86.448,18 L86.768,18 L86.768,28.72 L85.936,28.72 L85.936,20.128 L82.224,25.424 L81.904,25.424 L78.176,20.128 L78.176,28.72 L77.344,28.72 L77.344,18 L77.664,18 L82.048,24.288 Z M89.904,18.16 L96.512,18.16 L96.512,18.912 L90.736,18.912 L90.736,22.64 L95.232,22.64 L95.232,23.392 L90.736,23.392 L90.736,27.968 L96.704,27.968 L96.704,28.72 L89.904,28.72 L89.904,18.16 Z M103.28,23.92 L106.848,28.72 L105.872,28.72 L102.32,23.984 L99.744,23.984 L99.744,28.72 L98.912,28.72 L98.912,18.16 L102.496,18.16 C103.472,18.16 104.256,18.432 104.832,18.976 C105.408,19.52 105.696,20.208 105.696,21.056 C105.696,22.528 104.8,23.648 103.28,23.92 Z M102.464,18.912 L99.744,18.912 L99.744,23.232 L102.464,23.232 C103.984,23.232 104.832,22.352 104.832,21.072 C104.832,19.792 103.984,18.912 102.464,18.912 Z M113.184,18 C114.96,18 116.512,18.816 117.456,20.144 L116.832,20.64 C115.952,19.392 114.736,18.768 113.2,18.768 C111.904,18.768 110.832,19.216 109.952,20.112 C109.088,20.992 108.656,22.096 108.656,23.424 C108.656,24.752 109.088,25.872 109.952,26.768 C110.816,27.648 111.904,28.096 113.2,28.096 C114.752,28.096 115.952,27.472 116.832,26.24 L117.456,26.736 C116.512,28.064 114.96,28.88 113.184,28.88 C111.664,28.88 110.384,28.352 109.344,27.312 C108.304,26.272 107.776,24.976 107.776,23.44 C107.776,21.904 108.304,20.608 109.344,19.568 C110.384,18.528 111.664,18 113.184,18 Z M119.888,18.16 L126.496,18.16 L126.496,18.912 L120.72,18.912 L120.72,22.64 L125.216,22.64 L125.216,23.392 L120.72,23.392 L120.72,27.968 L126.688,27.968 L126.688,28.72 L119.888,28.72 L119.888,18.16 Z" id="VIRTO-COMMERCE" fill="#FFFFFF"></path>
            </g>
        </g>
    </g>
</svg>