<?xml version="1.0" encoding="UTF-8"?>
<svg width="30px" height="30px" viewBox="0 0 30 30" version="1.1" xmlns="http://www.w3.org/2000/svg" xmlns:xlink="http://www.w3.org/1999/xlink">
    <!-- Generator: Sketch 52.6 (67491) - http://www.bohemiancoding.com/sketch -->
    <title>Group 26</title>
    <desc>Created with Sketch.</desc>
    <g id="v3" stroke="none" stroke-width="1" fill="none" fill-rule="evenodd">
        <g id="V6.0-Modules" transform="translate(-560.000000, -302.000000)">
            <g id="Group-12" transform="translate(496.000000, 156.000000)">
                <g id="Group-26" transform="translate(64.000000, 146.000000)">
                    <g id="Group-25">
                        <polygon id="Fill-1" fill="#CCCCCC" points="13.4998594 0 6.75 15 13.4998594 15 20.25 0"></polygon>
                        <polygon id="Fill-2" fill="#FF4A4A" points="0 0 6.75 15 13.5 15 6.75 0"></polygon>
                    </g>
                    <g id="Group-24" transform="translate(15.750000, 6.000000)">
                        <path d="M14.25,12 C14.25,13.24275 13.2425,14.25 12,14.25 C10.75725,14.25 9.75,13.24275 9.75,12 C9.75,10.75725 10.75725,9.75 12,9.75 C13.2425,9.75 14.25,10.75725 14.25,12" id="Fill-3" fill="#FF4A4A"></path>
                        <path d="M6.92241562,13.5 L0,13.5 C0.825593686,19.3924662 5.89077584,23.9421307 12,23.9421307 L12,17.1688567 C9.63822141,17.1688567 7.6324431,15.6285014 6.92241562,13.5" id="Fill-6" fill="#FFC10D"></path>
                        <path d="M6.92241562,10.5 C7.6324431,8.3597027 9.63822141,6.81081081 12,6.81081081 L12,0 C5.89077584,0 0.825593686,4.57487838 0,10.5 L6.92241562,10.5 Z" id="Fill-8" fill="#FFC10D"></path>
                    </g>
                </g>
            </g>
        </g>
    </g>
</svg>