<svg width="184" height="43" viewBox="0 0 184 43" fill="none" xmlns="http://www.w3.org/2000/svg">
<path fill-rule="evenodd" clip-rule="evenodd" d="M19.5589 0L9.77953 21.5H19.5589L29.3386 0H19.5589Z" fill="#CCCCCC"/>
<path fill-rule="evenodd" clip-rule="evenodd" d="M0 0L9.77953 21.5H19.5591L9.77953 0H0Z" fill="#FF4A4A"/>
<path fill-rule="evenodd" clip-rule="evenodd" d="M43.4646 25.8C43.4646 27.5813 42.0049 29.025 40.2047 29.025C38.4042 29.025 36.9449 27.5813 36.9449 25.8C36.9449 24.0187 38.4042 22.575 40.2047 22.575C42.0049 22.575 43.4646 24.0187 43.4646 25.8Z" fill="#FF4A4A"/>
<path fill-rule="evenodd" clip-rule="evenodd" d="M32.8482 27.95H22.8189C24.015 36.3959 31.3536 42.9171 40.2047 42.9171V33.2087C36.7829 33.2087 33.8769 31.0008 32.8482 27.95Z" fill="#FFC10D"/>
<path fill-rule="evenodd" clip-rule="evenodd" d="M32.8482 23.65C33.8769 20.5822 36.7829 18.3622 40.2047 18.3622V8.60001C31.3536 8.60001 24.015 15.1573 22.8189 23.65H32.8482Z" fill="#FFC10D"/>
<path fill-rule="evenodd" clip-rule="evenodd" d="M64.7448 16.168L70.2387 3.096H71.5369L64.9998 18.4613H64.513L57.9528 3.096H59.2509L64.7448 16.168ZM74.7127 3.096H75.9181V18.232H74.7127V3.096ZM86.7669 11.352L91.9363 18.232H90.5222L85.376 11.4437H81.6438V18.232H80.4384V3.096H85.631C87.045 3.096 88.1809 3.48587 89.0154 4.2656C89.85 5.04534 90.2672 6.03147 90.2672 7.24694C90.2672 9.3568 88.9691 10.9621 86.7669 11.352ZM85.5846 4.17387H81.6438V10.3659H85.5846C87.7868 10.3659 89.0154 9.10454 89.0154 7.26987C89.0154 5.4352 87.7868 4.17387 85.5846 4.17387ZM92.3767 3.096H104.779V4.17387H99.1688V18.232H97.9633V4.17387H92.3767V3.096ZM113.75 2.86667C115.929 2.86667 117.783 3.62347 119.313 5.11414C120.843 6.6048 121.608 8.4624 121.608 10.664C121.608 12.8427 120.843 14.7003 119.313 16.2139C117.783 17.7045 115.929 18.4613 113.75 18.4613C111.547 18.4613 109.693 17.7045 108.186 16.2139C106.679 14.7003 105.914 12.8427 105.914 10.664C105.914 8.4624 106.679 6.6048 108.186 5.11414C109.693 3.62347 111.547 2.86667 113.75 2.86667ZM113.773 3.96747C111.895 3.96747 110.319 4.6096 109.067 5.89387C107.815 7.1552 107.189 8.7376 107.189 10.6411C107.189 12.5445 107.815 14.1269 109.067 15.4112C110.319 16.6955 111.895 17.3376 113.773 17.3376C115.651 17.3376 117.204 16.6955 118.455 15.4112C119.707 14.1269 120.333 12.5445 120.333 10.6411C120.333 8.76054 119.707 7.17814 118.432 5.89387C117.18 4.6096 115.627 3.96747 113.773 3.96747ZM66.1125 25.8C68.6856 25.8 70.9342 26.9696 72.3019 28.8731L71.3978 29.584C70.1228 27.7952 68.3611 26.9008 66.1357 26.9008C64.258 26.9008 62.7049 27.5429 61.4299 28.8272C60.1781 30.0885 59.5523 31.6709 59.5523 33.5744C59.5523 35.4779 60.1781 37.0832 61.4299 38.3675C62.6817 39.6288 64.258 40.2709 66.1357 40.2709C68.3842 40.2709 70.1228 39.3765 71.3978 37.6107L72.3019 38.3216C70.9342 40.2251 68.6856 41.3947 66.1125 41.3947C63.9103 41.3947 62.0558 40.6379 60.549 39.1472C59.0423 37.6565 58.2773 35.7989 58.2773 33.5973C58.2773 31.3957 59.0423 29.5381 60.549 28.0475C62.0558 26.5568 63.9103 25.8 66.1125 25.8ZM82.5015 25.8C84.6806 25.8 86.5351 26.5568 88.065 28.0475C89.595 29.5381 90.3599 31.3957 90.3599 33.5973C90.3599 35.776 89.595 37.6336 88.065 39.1472C86.5351 40.6379 84.6806 41.3947 82.5015 41.3947C80.2993 41.3947 78.4448 40.6379 76.9381 39.1472C75.4313 37.6336 74.6663 35.776 74.6663 33.5973C74.6663 31.3957 75.4313 29.5381 76.9381 28.0475C78.4448 26.5568 80.2993 25.8 82.5015 25.8ZM82.5247 26.9008C80.6471 26.9008 79.0707 27.5429 77.819 28.8272C76.5672 30.0885 75.9413 31.6709 75.9413 33.5744C75.9413 35.4779 76.5672 37.0603 77.819 38.3445C79.0707 39.6288 80.6471 40.2709 82.5247 40.2709C84.4024 40.2709 85.9555 39.6288 87.2073 38.3445C88.4591 37.0603 89.085 35.4779 89.085 33.5744C89.085 31.6939 88.4591 30.1115 87.1841 28.8272C85.9323 27.5429 84.3792 26.9008 82.5247 26.9008ZM100.676 34.8128L107.05 25.8H107.514V41.1653H106.309V28.8501L100.931 36.4411H100.467L95.0657 28.8501V41.1653H93.8603V25.8H94.3239L100.676 34.8128ZM118.873 34.8128L125.247 25.8H125.711V41.1653H124.506V28.8501L119.128 36.4411H118.664L113.263 28.8501V41.1653H112.057V25.8H112.521L118.873 34.8128ZM130.255 26.0293H139.828V27.1072H131.46V32.4507H137.974V33.5285H131.46V40.0875H140.107V41.1653H130.255V26.0293ZM149.634 34.2853L154.803 41.1653H153.389L148.243 34.3771H144.511V41.1653H143.306V26.0293H148.498C149.912 26.0293 151.048 26.4192 151.883 27.1989C152.717 27.9787 153.134 28.9648 153.134 30.1803C153.134 32.2901 151.836 33.8955 149.634 34.2853ZM148.452 27.1072H144.511V33.2992H148.452C150.654 33.2992 151.883 32.0379 151.883 30.2032C151.883 28.3685 150.654 27.1072 148.452 27.1072ZM163.983 25.8C166.556 25.8 168.805 26.9696 170.172 28.8731L169.268 29.584C167.993 27.7952 166.232 26.9008 164.006 26.9008C162.129 26.9008 160.576 27.5429 159.301 28.8272C158.049 30.0885 157.423 31.6709 157.423 33.5744C157.423 35.4779 158.049 37.0832 159.301 38.3675C160.552 39.6288 162.129 40.2709 164.006 40.2709C166.255 40.2709 167.993 39.3765 169.268 37.6107L170.172 38.3216C168.805 40.2251 166.556 41.3947 163.983 41.3947C161.781 41.3947 159.926 40.6379 158.42 39.1472C156.913 37.6565 156.148 35.7989 156.148 33.5973C156.148 31.3957 156.913 29.5381 158.42 28.0475C159.926 26.5568 161.781 25.8 163.983 25.8ZM173.696 26.0293H183.27V27.1072H174.901V32.4507H181.415V33.5285H174.901V40.0875H183.548V41.1653H173.696V26.0293Z" fill="#465769"/>
</svg>
