<svg xmlns="http://www.w3.org/2000/svg" viewBox="0 0 128 128" width="128" height="128" role="img" aria-label="Module - big brick"><title>Module - big brick</title><defs><linearGradient id="bg" x1="0%" y1="0%" x2="92%" y2="100%"><stop offset="0%" stop-color="#94A6BA"/><stop offset="100%" stop-color="#5B6B7E"/></linearGradient><filter id="lift" x="-30%" y="-30%" width="160%" height="160%"><feDropShadow dx="0" dy="3" stdDeviation="3.5" flood-color="#2A323D" flood-opacity="0.32"/></filter></defs><rect width="128" height="128" rx="28" fill="url(#bg)"/><g transform="translate(64,62)" filter="url(#lift)"><polygon points="0,-36 46,-20 0,-4 -46,-20" fill="#ffffff"/><polygon points="-46,-20 0,-4 0,40 -46,24" fill="#D2DAE2"/><polygon points="46,-20 0,-4 0,40 46,24" fill="#B7C2CE"/><rect x="-10.0" y="-33.4" width="20" height="7" fill="#E0E6EC"/><ellipse cx="0.0" cy="-26.4" rx="10" ry="5" fill="#EDF1F5"/><ellipse cx="0.0" cy="-33.4" rx="10" ry="5" fill="#ffffff"/><rect x="-28.4" y="-27.0" width="20" height="7" fill="#E0E6EC"/><ellipse cx="-18.4" cy="-20.0" rx="10" ry="5" fill="#EDF1F5"/><ellipse cx="-18.4" cy="-27.0" rx="10" ry="5" fill="#ffffff"/><rect x="8.4" y="-27.0" width="20" height="7" fill="#E0E6EC"/><ellipse cx="18.4" cy="-20.0" rx="10" ry="5" fill="#EDF1F5"/><ellipse cx="18.4" cy="-27.0" rx="10" ry="5" fill="#ffffff"/><rect x="-10.0" y="-20.6" width="20" height="7" fill="#E0E6EC"/><ellipse cx="0.0" cy="-13.6" rx="10" ry="5" fill="#EDF1F5"/><ellipse cx="0.0" cy="-20.6" rx="10" ry="5" fill="#ffffff"/></g></svg>