<svg width="123" height="123" viewBox="0 0 123 123" fill="none" xmlns="http://www.w3.org/2000/svg">
<rect y="3" width="120" height="120" fill="none"/>
<path d="M0.140007 46.6465L4.40245 42.384C5.5951 41.1914 6.83961 40.3825 8.13597 39.9572C9.43233 39.532 10.7183 39.5009 11.9939 39.8639C13.2696 40.2269 14.4778 40.9788 15.6186 42.1196C16.7594 43.2604 17.5164 44.4738 17.8898 45.7598C18.2632 47.025 18.2372 48.3058 17.812 49.6022C17.3868 50.8985 16.5727 52.1482 15.3697 53.3513L11.1072 57.6137L0.140007 46.6465ZM13.2385 51.5623C15.5719 49.2288 15.5615 46.885 13.2073 44.5308C10.8635 42.187 8.52488 42.1818 6.19143 44.5153L4.5269 46.1798L11.5739 53.2268L13.2385 51.5623Z" fill="black" fill-opacity="0.5"/>
<path d="M23.2831 45.4378L12.3159 34.4706L19.8763 26.9102L21.7586 28.7925L16.5628 33.9883L19.1296 36.5551L24.0143 31.6705L25.8966 33.5528L21.0119 38.4375L23.7654 41.1909L28.9612 35.9951L30.8435 37.8774L23.2831 45.4378Z" fill="black" fill-opacity="0.5"/>
<path d="M30.8555 15.931L32.7378 14.0486L43.7051 25.0159L41.5739 27.1471L35.0713 20.6445L37.2492 27.8627L35.6936 29.4183L28.5376 27.3026L34.978 33.743L32.8467 35.8742L21.8795 24.907L23.7929 22.9935L34.029 26.167L30.8555 15.931Z" fill="black" fill-opacity="0.5"/>
<path d="M51.4023 17.5986C50.3134 18.6876 49.1363 19.4084 47.871 19.761C46.6058 20.0928 45.3353 20.0565 44.0597 19.6521C42.7737 19.2372 41.5603 18.4594 40.4195 17.3186C39.2787 16.1778 38.5061 14.9696 38.1016 13.694C37.6868 12.408 37.6505 11.1376 37.9927 9.88269C38.3453 8.61744 39.0661 7.44035 40.1551 6.3514C41.244 5.26246 42.4159 4.54687 43.6708 4.20463C44.9361 3.85201 46.2117 3.88313 47.4977 4.29796C48.7733 4.70243 49.9815 5.47506 51.1223 6.61586C52.2631 7.75666 53.0409 8.97005 53.4558 10.256C53.8602 11.5317 53.8913 12.8073 53.5491 14.0829C53.2068 15.3378 52.4913 16.5097 51.4023 17.5986ZM49.52 15.7163C50.4326 14.8037 50.8267 13.7666 50.7023 12.6051C50.5882 11.4331 49.9245 10.2405 48.7111 9.02709C47.4977 7.8137 46.3154 7.14996 45.1642 7.03588C44.0027 6.91143 42.9604 7.31071 42.0374 8.23372C41.1144 9.15673 40.7151 10.199 40.8395 11.3605C40.964 12.5013 41.6329 13.6784 42.8463 14.8918C44.0597 16.1052 45.2472 16.7742 46.4087 16.8986C47.5703 17.0231 48.6073 16.629 49.52 15.7163Z" fill="black" fill-opacity="0.5"/>
<path d="M66.14 110.646L70.4024 106.384C71.5951 105.191 72.8396 104.382 74.136 103.957C75.4323 103.532 76.7183 103.501 77.9939 103.864C79.2696 104.227 80.4778 104.979 81.6186 106.12C82.7594 107.26 83.5164 108.474 83.8898 109.76C84.2632 111.025 84.2372 112.306 83.812 113.602C83.3868 114.899 82.5727 116.148 81.3697 117.351L77.1072 121.614L66.14 110.646ZM79.2385 115.562C81.5719 113.229 81.5615 110.885 79.2073 108.531C76.8635 106.187 74.5249 106.182 72.1914 108.515L70.5269 110.18L77.5739 117.227L79.2385 115.562Z" fill="black" fill-opacity="0.5"/>
<path d="M89.2831 109.438L78.3159 98.4706L85.8763 90.9102L87.7586 92.7925L82.5628 97.9883L85.1296 100.555L90.0143 95.6705L91.8966 97.5528L87.0119 102.437L89.7654 105.191L94.9612 99.9951L96.8435 101.877L89.2831 109.438Z" fill="black" fill-opacity="0.5"/>
<path d="M96.8555 79.931L98.7378 78.0486L109.705 89.0159L107.574 91.1471L101.071 84.6445L103.249 91.8627L101.694 93.4183L94.5376 91.3026L100.978 97.743L98.8467 99.8742L87.8795 88.907L89.7929 86.9935L100.029 90.167L96.8555 79.931Z" fill="black" fill-opacity="0.5"/>
<path d="M117.402 81.5986C116.313 82.6876 115.136 83.4084 113.871 83.761C112.606 84.0928 111.335 84.0565 110.06 83.6521C108.774 83.2372 107.56 82.4594 106.42 81.3186C105.279 80.1778 104.506 78.9696 104.102 77.694C103.687 76.408 103.65 75.1376 103.993 73.8827C104.345 72.6174 105.066 71.4403 106.155 70.3514C107.244 69.2625 108.416 68.5469 109.671 68.2046C110.936 67.852 112.212 67.8831 113.498 68.298C114.773 68.7024 115.981 69.4751 117.122 70.6159C118.263 71.7567 119.041 72.9701 119.456 74.256C119.86 75.5317 119.891 76.8073 119.549 78.0829C119.207 79.3378 118.491 80.5097 117.402 81.5986ZM115.52 79.7163C116.433 78.8037 116.827 77.7666 116.702 76.6051C116.588 75.4331 115.924 74.2405 114.711 73.0271C113.498 71.8137 112.315 71.15 111.164 71.0359C110.003 70.9114 108.96 71.3107 108.037 72.2337C107.114 73.1567 106.715 74.199 106.84 75.3605C106.964 76.5013 107.633 77.6784 108.846 78.8918C110.06 80.1052 111.247 80.7742 112.409 80.8986C113.57 81.0231 114.607 80.629 115.52 79.7163Z" fill="black" fill-opacity="0.5"/>
<path d="M0.140007 111.646L4.40245 107.384C5.5951 106.191 6.83961 105.382 8.13597 104.957C9.43233 104.532 10.7183 104.501 11.9939 104.864C13.2696 105.227 14.4778 105.979 15.6186 107.12C16.7594 108.26 17.5164 109.474 17.8898 110.76C18.2632 112.025 18.2372 113.306 17.812 114.602C17.3868 115.899 16.5727 117.148 15.3697 118.351L11.1072 122.614L0.140007 111.646ZM13.2385 116.562C15.5719 114.229 15.5615 111.885 13.2073 109.531C10.8635 107.187 8.52488 107.182 6.19143 109.515L4.5269 111.18L11.5739 118.227L13.2385 116.562Z" fill="black" fill-opacity="0.5"/>
<path d="M23.2831 110.438L12.3159 99.4706L19.8763 91.9102L21.7586 93.7925L16.5628 98.9883L19.1296 101.555L24.0143 96.6705L25.8966 98.5528L21.0119 103.437L23.7654 106.191L28.9612 100.995L30.8435 102.877L23.2831 110.438Z" fill="black" fill-opacity="0.5"/>
<path d="M30.8555 80.931L32.7378 79.0486L43.7051 90.0159L41.5739 92.1471L35.0713 85.6445L37.2492 92.8627L35.6936 94.4183L28.5376 92.3026L34.978 98.743L32.8467 100.874L21.8795 89.907L23.7929 87.9935L34.029 91.167L30.8555 80.931Z" fill="black" fill-opacity="0.5"/>
<path d="M51.4023 82.5986C50.3134 83.6876 49.1363 84.4084 47.871 84.761C46.6058 85.0928 45.3353 85.0565 44.0597 84.6521C42.7737 84.2372 41.5603 83.4594 40.4195 82.3186C39.2787 81.1778 38.5061 79.9696 38.1016 78.694C37.6868 77.408 37.6505 76.1376 37.9927 74.8827C38.3453 73.6174 39.0661 72.4403 40.1551 71.3514C41.244 70.2625 42.4159 69.5469 43.6708 69.2046C44.9361 68.852 46.2117 68.8831 47.4977 69.298C48.7733 69.7024 49.9815 70.4751 51.1223 71.6159C52.2631 72.7567 53.0409 73.9701 53.4558 75.256C53.8602 76.5317 53.8913 77.8073 53.5491 79.0829C53.2068 80.3378 52.4913 81.5097 51.4023 82.5986ZM49.52 80.7163C50.4326 79.8037 50.8267 78.7666 50.7023 77.6051C50.5882 76.4331 49.9245 75.2405 48.7111 74.0271C47.4977 72.8137 46.3154 72.15 45.1642 72.0359C44.0027 71.9114 42.9604 72.3107 42.0374 73.2337C41.1144 74.1567 40.7151 75.199 40.8395 76.3605C40.964 77.5013 41.6329 78.6784 42.8463 79.8918C44.0597 81.1052 45.2472 81.7742 46.4087 81.8986C47.5703 82.0231 48.6073 81.629 49.52 80.7163Z" fill="black" fill-opacity="0.5"/>
<path d="M66.14 45.6465L70.4024 41.384C71.5951 40.1914 72.8396 39.3825 74.136 38.9572C75.4323 38.532 76.7183 38.5009 77.9939 38.8639C79.2696 39.2269 80.4778 39.9788 81.6186 41.1196C82.7594 42.2604 83.5164 43.4738 83.8898 44.7598C84.2632 46.025 84.2372 47.3058 83.812 48.6022C83.3868 49.8985 82.5727 51.1482 81.3697 52.3513L77.1072 56.6137L66.14 45.6465ZM79.2385 50.5623C81.5719 48.2288 81.5615 45.885 79.2073 43.5308C76.8635 41.187 74.5249 41.1818 72.1914 43.5153L70.5269 45.1798L77.5739 52.2268L79.2385 50.5623Z" fill="black" fill-opacity="0.5"/>
<path d="M89.2831 44.4378L78.3159 33.4706L85.8763 25.9102L87.7586 27.7925L82.5628 32.9883L85.1296 35.5551L90.0143 30.6705L91.8966 32.5528L87.0119 37.4375L89.7654 40.1909L94.9612 34.9951L96.8435 36.8774L89.2831 44.4378Z" fill="black" fill-opacity="0.5"/>
<path d="M96.8555 14.931L98.7378 13.0486L109.705 24.0159L107.574 26.1471L101.071 19.6445L103.249 26.8627L101.694 28.4183L94.5376 26.3026L100.978 32.743L98.8467 34.8742L87.8795 23.907L89.7929 21.9935L100.029 25.167L96.8555 14.931Z" fill="black" fill-opacity="0.5"/>
<path d="M117.402 16.5986C116.313 17.6876 115.136 18.4084 113.871 18.761C112.606 19.0928 111.335 19.0565 110.06 18.6521C108.774 18.2372 107.56 17.4594 106.42 16.3186C105.279 15.1778 104.506 13.9696 104.102 12.694C103.687 11.408 103.65 10.1376 103.993 8.88269C104.345 7.61744 105.066 6.44035 106.155 5.3514C107.244 4.26246 108.416 3.54687 109.671 3.20463C110.936 2.85201 112.212 2.88313 113.498 3.29796C114.773 3.70243 115.981 4.47506 117.122 5.61586C118.263 6.75666 119.041 7.97005 119.456 9.25604C119.86 10.5317 119.891 11.8073 119.549 13.0829C119.207 14.3378 118.491 15.5097 117.402 16.5986ZM115.52 14.7163C116.433 13.8037 116.827 12.7666 116.702 11.6051C116.588 10.4331 115.924 9.24049 114.711 8.02709C113.498 6.8137 112.315 6.14996 111.164 6.03588C110.003 5.91143 108.96 6.31071 108.037 7.23372C107.114 8.15673 106.715 9.19901 106.84 10.3605C106.964 11.5013 107.633 12.6784 108.846 13.8918C110.06 15.1052 111.247 15.7742 112.409 15.8986C113.57 16.0231 114.607 15.629 115.52 14.7163Z" fill="black" fill-opacity="0.5"/>
</svg>
