<svg width="120" height="120" viewBox="0 0 120 120" fill="none" xmlns="http://www.w3.org/2000/svg">
<path d="M10 73.6958L13.4684 70.2274L25.6291 82.3882L33.1439 74.8733L35.97 77.6994L24.9868 88.6826L10 73.6958Z" fill="white" fill-opacity="0.5"/>
<path d="M23.7775 59.9183L27.2459 56.4499L42.2327 71.4367L38.7643 74.9051L23.7775 59.9183Z" fill="white" fill-opacity="0.5"/>
<path d="M45.9841 37.7117L54.4838 59.1857L51.0582 62.6112L29.6056 54.0902L33.3523 50.3435L48.6175 56.4881L42.5371 41.1587L45.9841 37.7117Z" fill="white" fill-opacity="0.5"/>
<path d="M71.8994 36.2035L74.6827 38.9868L63.0786 50.5908L48.0918 35.604L59.4175 24.2783L62.2008 27.0615L54.322 34.9403L57.5763 38.1946L64.5345 31.2364L67.2321 33.9341L60.2739 40.8922L63.7423 44.3606L71.8994 36.2035Z" fill="white" fill-opacity="0.5"/>
<path d="M23.4113 37.946C23.2649 36.9164 22.3114 36.1969 21.2779 36.3441C12.2008 37.6354 4.9594 44.8769 3.66801 53.954C3.52118 54.9855 4.23842 55.9407 5.26995 56.0874C6.30148 56.2342 7.25662 55.5169 7.40345 54.4854C8.45988 47.0597 14.3838 41.1358 21.8093 40.0795C22.8408 39.9327 23.558 38.9775 23.4113 37.946Z" fill="white" fill-opacity="0.5"/>
<path d="M25.4664 45.4832C25.4088 44.4382 24.5146 43.6463 23.479 43.7033C20.2378 43.8819 17.1834 45.2496 14.8785 47.5546C12.5735 49.8596 11.2057 52.9139 11.0271 56.1551C10.9698 57.1953 11.7667 58.0851 12.807 58.1426C13.8474 58.1998 14.7372 57.403 14.7945 56.3627C15.0594 51.5582 18.8821 47.7354 23.6865 47.4706C24.727 47.4133 25.5238 46.5236 25.4664 45.4832Z" fill="white" fill-opacity="0.5"/>
</svg>
