<svg width="20" height="20" viewBox="0 0 20 20" fill="none" xmlns="http://www.w3.org/2000/svg">
<g clip-path="url(#clip0_8432_396166)">
<path d="M10 -0.0236816L18.6603 4.97632V14.9763L10 19.9763L1.33975 14.9763V4.97632L10 -0.0236816Z" fill="#A1C0D4"/>
<path d="M10 9.97632L18.7037 4.97632V14.9763L10 19.9763V9.97632Z" fill="#778FA4"/>
<path d="M10.0003 9.97616L1.29641 4.97626L10.0003 -0.0237399L18.7038 4.97626L10.0003 9.97616Z" fill="#465769"/>
<path d="M10 9.97648L5.18519 12.7424L5.18519 7.21052L10 4.44456L10 9.97648Z" fill="#F89406"/>
<path d="M10 9.97648L14.8148 12.7424L14.8148 7.21052L10 4.44456L10 9.97648Z" fill="#F4BE34"/>
<path d="M10 9.97657L14.8148 12.7424L10 15.5084L5.18518 12.7425L10 9.97657Z" fill="#DE5454"/>
</g>
<defs>
<clipPath id="clip0_8432_396166">
<rect width="20" height="20" fill="white"/>
</clipPath>
</defs>
</svg>
