<svg width="14" height="14" viewBox="0 0 14 14" fill="none" xmlns="http://www.w3.org/2000/svg">
<g clip-path="url(#clip0_1894_151416)">
<path d="M3.72451 9.33599C3.98412 9.07639 4.4053 9.07641 4.66494 9.33599C4.92458 9.5956 4.92455 10.0167 4.66494 10.2764L1.13467 13.753C0.875163 14.0121 0.454753 14.012 0.195213 13.753C-0.0644218 13.4934 -0.0643992 13.0722 0.195213 12.8126L3.72451 9.33599ZM5.71963 11.3301C5.97918 11.071 6.3996 11.0709 6.65908 11.3301C6.91876 11.5897 6.91869 12.011 6.65908 12.2706L5.12392 13.752C4.86435 14.0117 4.44315 14.0124 4.18349 13.753C3.9239 13.4934 3.92406 13.0722 4.18349 12.8126L5.71963 11.3301ZM13.5058 5.34058e-05C13.7795 0.00226589 13.9999 0.22527 13.9999 0.499077C13.9999 2.86889 13.444 5.05157 12.1972 6.30474L10.454 8.19048C10.4125 8.23554 10.3988 8.29959 10.4188 8.35748L10.7079 9.18755C10.9379 9.84958 10.7689 10.5856 10.2733 11.0811L9.5331 11.8213C9.43961 11.9148 9.31276 11.9668 9.18056 11.9669C9.04844 11.9669 8.92148 11.9147 8.82803 11.8213L2.18056 5.1729C1.98586 4.97819 1.98585 4.66254 2.18056 4.46783L2.9208 3.72759C3.41637 3.23213 4.15143 3.063 4.81338 3.29302L5.64346 3.58208C5.70124 3.60212 5.76542 3.58841 5.81045 3.54693L7.69619 1.80376C8.33739 1.16644 9.29644 0.717753 10.3095 0.428764C11.3362 0.135914 12.4712 -0.00826342 13.5058 5.34058e-05ZM1.73037 7.34185C1.98997 7.08217 2.41115 7.08224 2.6708 7.34185C2.93002 7.60137 2.92997 8.02177 2.6708 8.2813L1.13467 9.76373C0.875111 10.0231 0.454796 10.023 0.195213 9.76373C-0.0644331 9.50412 -0.0643946 9.08297 0.195213 8.8233L1.73037 7.34185ZM10.9755 3.01665C10.7159 2.75703 10.2947 2.75703 10.0351 3.01665C9.77562 3.27629 9.7755 3.69751 10.0351 3.95708L10.039 3.96099C10.2986 4.22056 10.7198 4.22046 10.9794 3.96099C11.2391 3.70137 11.2391 3.28018 10.9794 3.02056L10.9755 3.01665Z" fill="white"/>
</g>
<defs>
<clipPath id="clip0_1894_151416">
<rect width="14" height="14" fill="white"/>
</clipPath>
</defs>
</svg>
