<svg width="30" height="30" viewBox="0 0 30 30" fill="none" xmlns="http://www.w3.org/2000/svg">
<path fill-rule="evenodd" clip-rule="evenodd" d="M13.4999 0L6.75 15H13.4999L20.25 0H13.4999Z" fill="#CCCCCC"/>
<path fill-rule="evenodd" clip-rule="evenodd" d="M0 0L6.75 15H13.5L6.75 0H0Z" fill="#FF4A4A"/>
<path fill-rule="evenodd" clip-rule="evenodd" d="M30 18C30 19.2428 28.9925 20.25 27.75 20.25C26.5072 20.25 25.5 19.2428 25.5 18C25.5 16.7572 26.5072 15.75 27.75 15.75C28.9925 15.75 30 16.7572 30 18Z" fill="#FF4A4A"/>
<path fill-rule="evenodd" clip-rule="evenodd" d="M22.6724 19.5H15.75C16.5756 25.3925 21.6408 29.9421 27.75 29.9421V23.1689C25.3882 23.1689 23.3824 21.6285 22.6724 19.5Z" fill="#FFC10D"/>
<path fill-rule="evenodd" clip-rule="evenodd" d="M22.6724 16.5C23.3824 14.3597 25.3882 12.8108 27.75 12.8108V6C21.6408 6 16.5756 10.5749 15.75 16.5H22.6724Z" fill="#FFC10D"/>
</svg>
