<svg width="127" height="30" viewBox="0 0 127 30" fill="none" xmlns="http://www.w3.org/2000/svg">
<path fill-rule="evenodd" clip-rule="evenodd" d="M13.4999 0L6.75 15H13.4999L20.25 0H13.4999Z" fill="#CCCCCC"/>
<path fill-rule="evenodd" clip-rule="evenodd" d="M0 0L6.75 15H13.5L6.75 0H0Z" fill="#FF4A4A"/>
<path fill-rule="evenodd" clip-rule="evenodd" d="M30 18C30 19.2428 28.9925 20.25 27.75 20.25C26.5072 20.25 25.5 19.2428 25.5 18C25.5 16.7572 26.5072 15.75 27.75 15.75C28.9925 15.75 30 16.7572 30 18Z" fill="#FF4A4A"/>
<path fill-rule="evenodd" clip-rule="evenodd" d="M22.6724 19.5H15.75C16.5756 25.3925 21.6408 29.9421 27.75 29.9421V23.1689C25.3882 23.1689 23.3824 21.6285 22.6724 19.5Z" fill="#FFC10D"/>
<path fill-rule="evenodd" clip-rule="evenodd" d="M22.6724 16.5C23.3824 14.3597 25.3882 12.8108 27.75 12.8108V6C21.6408 6 16.5756 10.5749 15.75 16.5H22.6724Z" fill="#FFC10D"/>
<path fill-rule="evenodd" clip-rule="evenodd" d="M44.688 11.28L48.48 2.16H49.376L44.864 12.88H44.528L40 2.16H40.896L44.688 11.28ZM51.568 2.16H52.4V12.72H51.568V2.16ZM59.888 7.92L63.456 12.72H62.48L58.928 7.984H56.352V12.72H55.52V2.16H59.104C60.08 2.16 60.864 2.432 61.44 2.976C62.016 3.52 62.304 4.208 62.304 5.056C62.304 6.528 61.408 7.648 59.888 7.92ZM59.072 2.912H56.352V7.232H59.072C60.592 7.232 61.44 6.352 61.44 5.072C61.44 3.792 60.592 2.912 59.072 2.912ZM63.76 2.16H72.32V2.912H68.448V12.72H67.616V2.912H63.76V2.16ZM78.512 2C80.016 2 81.296 2.528 82.352 3.568C83.408 4.608 83.936 5.904 83.936 7.44C83.936 8.96 83.408 10.256 82.352 11.312C81.296 12.352 80.016 12.88 78.512 12.88C76.992 12.88 75.712 12.352 74.672 11.312C73.632 10.256 73.104 8.96 73.104 7.44C73.104 5.904 73.632 4.608 74.672 3.568C75.712 2.528 76.992 2 78.512 2ZM78.528 2.768C77.232 2.768 76.144 3.216 75.28 4.112C74.416 4.992 73.984 6.096 73.984 7.424C73.984 8.752 74.416 9.856 75.28 10.752C76.144 11.648 77.232 12.096 78.528 12.096C79.824 12.096 80.896 11.648 81.76 10.752C82.624 9.856 83.056 8.752 83.056 7.424C83.056 6.112 82.624 5.008 81.744 4.112C80.88 3.216 79.808 2.768 78.528 2.768ZM45.632 18C47.408 18 48.96 18.816 49.904 20.144L49.28 20.64C48.4 19.392 47.184 18.768 45.648 18.768C44.352 18.768 43.28 19.216 42.4 20.112C41.536 20.992 41.104 22.096 41.104 23.424C41.104 24.752 41.536 25.872 42.4 26.768C43.264 27.648 44.352 28.096 45.648 28.096C47.2 28.096 48.4 27.472 49.28 26.24L49.904 26.736C48.96 28.064 47.408 28.88 45.632 28.88C44.112 28.88 42.832 28.352 41.792 27.312C40.752 26.272 40.224 24.976 40.224 23.44C40.224 21.904 40.752 20.608 41.792 19.568C42.832 18.528 44.112 18 45.632 18ZM56.944 18C58.448 18 59.728 18.528 60.784 19.568C61.84 20.608 62.368 21.904 62.368 23.44C62.368 24.96 61.84 26.256 60.784 27.312C59.728 28.352 58.448 28.88 56.944 28.88C55.424 28.88 54.144 28.352 53.104 27.312C52.064 26.256 51.536 24.96 51.536 23.44C51.536 21.904 52.064 20.608 53.104 19.568C54.144 18.528 55.424 18 56.944 18ZM56.96 18.768C55.664 18.768 54.576 19.216 53.712 20.112C52.848 20.992 52.416 22.096 52.416 23.424C52.416 24.752 52.848 25.856 53.712 26.752C54.576 27.648 55.664 28.096 56.96 28.096C58.256 28.096 59.328 27.648 60.192 26.752C61.056 25.856 61.488 24.752 61.488 23.424C61.488 22.112 61.056 21.008 60.176 20.112C59.312 19.216 58.24 18.768 56.96 18.768ZM69.488 24.288L73.888 18H74.208V28.72H73.376V20.128L69.664 25.424H69.344L65.616 20.128V28.72H64.784V18H65.104L69.488 24.288ZM82.048 24.288L86.448 18H86.768V28.72H85.936V20.128L82.224 25.424H81.904L78.176 20.128V28.72H77.344V18H77.664L82.048 24.288ZM89.904 18.16H96.512V18.912H90.736V22.64H95.232V23.392H90.736V27.968H96.704V28.72H89.904V18.16ZM103.28 23.92L106.848 28.72H105.872L102.32 23.984H99.744V28.72H98.912V18.16H102.496C103.472 18.16 104.256 18.432 104.832 18.976C105.408 19.52 105.696 20.208 105.696 21.056C105.696 22.528 104.8 23.648 103.28 23.92ZM102.464 18.912H99.744V23.232H102.464C103.984 23.232 104.832 22.352 104.832 21.072C104.832 19.792 103.984 18.912 102.464 18.912ZM113.184 18C114.96 18 116.512 18.816 117.456 20.144L116.832 20.64C115.952 19.392 114.736 18.768 113.2 18.768C111.904 18.768 110.832 19.216 109.952 20.112C109.088 20.992 108.656 22.096 108.656 23.424C108.656 24.752 109.088 25.872 109.952 26.768C110.816 27.648 111.904 28.096 113.2 28.096C114.752 28.096 115.952 27.472 116.832 26.24L117.456 26.736C116.512 28.064 114.96 28.88 113.184 28.88C111.664 28.88 110.384 28.352 109.344 27.312C108.304 26.272 107.776 24.976 107.776 23.44C107.776 21.904 108.304 20.608 109.344 19.568C110.384 18.528 111.664 18 113.184 18ZM119.888 18.16H126.496V18.912H120.72V22.64H125.216V23.392H120.72V27.968H126.688V28.72H119.888V18.16Z" fill="white"/>
</svg>
