<?xml version="1.0" encoding="UTF-8"?>
<svg width="34px" height="34px" viewBox="0 0 34 34" version="1.1" xmlns="http://www.w3.org/2000/svg" xmlns:xlink="http://www.w3.org/1999/xlink">
    <!-- Generator: Sketch 52.6 (67491) - http://www.bohemiancoding.com/sketch -->
    <title>Group 20</title>
    <desc>Created with Sketch.</desc>
    <g id="v3" stroke="none" stroke-width="1" fill="none" fill-rule="evenodd">
        <g id="Notification-popup" transform="translate(-1131.000000, -14.000000)">
            <g id="Group-20" transform="translate(1131.000000, 14.000000)">
                <path d="M17,0 C26.3888571,0 34,7.61114286 34,17 C34,26.3888571 26.3888571,34 17,34 C7.61114286,34 0,26.3888571 0,17 C0,7.61114286 7.61114286,0 17,0" id="Fill-1" fill="#FFFFFF"></path>
                <path d="M17,17.6071429 C10.3214286,17.6071429 7.40714286,20.5214286 6.8,23.5571429 C8.98571429,26.9571429 12.75,29.1428571 17,29.1428571 C21.25,29.1428571 25.0142857,26.9571429 27.2,23.5571429 C26.5928571,20.5214286 23.6785714,17.6071429 17,17.6071429" id="Fill-3" fill="#161D25"></path>
                <path d="M17,4.61404286 C19.9507143,4.61404286 22.3428571,7.00618571 22.3428571,9.9569 C22.3428571,12.9076143 19.9507143,15.2997571 17,15.2997571 C14.0492857,15.2997571 11.6571429,12.9076143 11.6571429,9.9569 C11.6571429,7.00618571 14.0492857,4.61404286 17,4.61404286" id="Fill-5" fill="#161D25"></path>
            </g>
        </g>
    </g>
</svg>