<?xml version="1.0" encoding="UTF-8"?>
<svg width="108px" height="69px" viewBox="0 0 108 69" version="1.1" xmlns="http://www.w3.org/2000/svg" xmlns:xlink="http://www.w3.org/1999/xlink">
    <!-- Generator: Sketch 52.6 (67491) - http://www.bohemiancoding.com/sketch -->
    <title>Group 15</title>
    <desc>Created with Sketch.</desc>
    <defs>
        <polygon id="path-1" points="0.59870355 0.159 96.0086841 0.159 96.0086841 68.6752328 0.59870355 68.6752328"></polygon>
        <polygon id="path-3" points="0 0.4141 41.704938 0.4141 41.704938 42.1661672 0 42.1661672"></polygon>
    </defs>
    <g id="Page-2" stroke="none" stroke-width="1" fill="none" fill-rule="evenodd">
        <g id="Index-page" transform="translate(-186.000000, -1833.000000)">
            <g id="Group" transform="translate(100.000000, 1832.000000)">
                <g id="Group-15" transform="translate(86.000000, 0.000000)">
                    <path d="M96.3574,5.6738 L40.7744,5.6738 L40.7744,5.2668 C40.7744,3.6008 39.4244,2.2508 37.7594,2.2508 L19.0144,2.2508 C17.3494,2.2508 15.9994,3.6008 15.9994,5.2668 L15.9994,5.6738 L12.2504,5.6738 C9.8194,5.6738 7.8494,7.6448 7.8494,10.0748 L7.8494,65.7388 C7.8494,67.1338 8.9804,68.2658 10.3754,68.2658 L98.2324,68.2658 C99.6274,68.2658 100.7584,67.1338 100.7584,65.7388 L100.7584,10.0748 C100.7584,7.6448 98.7884,5.6738 96.3574,5.6738" id="Fill-1" fill="#B8D4FF"></path>
                    <g id="Group-5" transform="translate(6.000000, 0.841400)">
                        <mask id="mask-2" fill="white">
                            <use xlink:href="#path-1"></use>
                        </mask>
                        <g id="Clip-4"></g>
                        <path d="M94.1044,9.0751 C93.7874,7.9921 93.2014,7.1011 92.3534,6.5711 C91.9344,6.3081 91.4664,6.1561 91.0004,6.0861 C90.7534,6.0551 90.5524,6.0481 90.2684,6.0581 L89.2944,6.0731 L81.5064,6.0821 L65.9294,6.0821 L34.7744,6.0821 C34.0864,6.0821 33.5284,5.5261 33.5244,4.8391 L33.5244,4.8321 L33.5224,4.3981 C33.5174,4.3081 33.5154,4.2191 33.4974,4.1331 C33.4664,3.9591 33.4184,3.7881 33.3334,3.6331 C33.1784,3.3151 32.9154,3.0511 32.6074,2.8771 C32.4514,2.7951 32.2854,2.7351 32.1134,2.6951 C31.9254,2.6651 31.8164,2.6571 31.4584,2.6591 L29.6444,2.6591 L22.3864,2.6591 L15.1294,2.6591 L13.3144,2.6591 C12.9574,2.6571 12.8484,2.6651 12.6604,2.6951 C12.4884,2.7351 12.3224,2.7951 12.1654,2.8771 C11.8584,3.0511 11.5954,3.3151 11.4394,3.6331 C11.3544,3.7881 11.3074,3.9591 11.2764,4.1331 C11.2584,4.2191 11.2554,4.3081 11.2504,4.3981 L11.2494,4.8321 L11.2494,4.8391 C11.2454,5.5271 10.6864,6.0821 9.9994,6.0821 L6.7094,6.0821 L6.2984,6.0821 L5.9894,6.0961 C5.7934,6.1161 5.5994,6.1451 5.4114,6.2001 C5.0344,6.3041 4.6774,6.4791 4.3634,6.7161 C3.7324,7.1861 3.2904,7.8991 3.1534,8.6691 C3.1154,8.8651 3.1074,9.0501 3.0994,9.2641 L3.0994,10.0871 L3.0994,11.7311 L3.0994,24.8891 L3.0994,51.2061 L3.0994,64.3641 C3.0924,65.0321 3.0944,65.1561 3.2224,65.4391 C3.3344,65.6921 3.5454,65.9001 3.7884,66.0291 C3.9084,66.0971 4.0424,66.1341 4.1784,66.1561 C4.2504,66.1721 4.3064,66.1671 4.3974,66.1741 L4.8084,66.1741 L6.4534,66.1741 L13.0324,66.1741 L39.3484,66.1741 L91.9804,66.1741 C92.3174,66.1771 92.3594,66.1681 92.5194,66.1391 C92.6544,66.1131 92.7814,66.0551 92.8984,65.9831 C93.1364,65.8401 93.3244,65.6121 93.4214,65.3551 C93.4734,65.2281 93.5004,65.0921 93.5034,64.9511 L93.5084,64.1811 L93.5084,62.5361 L93.5084,55.9581 L93.5084,42.8001 L93.5084,16.4831 C93.5084,15.7931 94.0674,15.2331 94.7584,15.2331 C95.4484,15.2331 96.0084,15.7931 96.0084,16.4831 L96.0084,42.8001 L96.0084,55.9581 L96.0084,62.5361 L96.0084,64.1811 C96.0054,64.4791 96.0144,64.6781 96.0014,65.0551 C95.9874,65.4631 95.9044,65.8721 95.7534,66.2551 C95.4594,67.0231 94.9114,67.6831 94.2114,68.1111 C93.8634,68.3251 93.4794,68.4891 93.0774,68.5761 C92.7014,68.6711 92.1924,68.6791 91.9804,68.6741 L39.3484,68.6741 L13.0324,68.6741 L6.4534,68.6741 L4.8084,68.6741 L4.3974,68.6741 C4.2144,68.6671 3.9954,68.6631 3.7974,68.6271 C3.3934,68.5631 2.9944,68.4401 2.6324,68.2461 C1.9064,67.8651 1.3064,67.2521 0.9604,66.5051 C0.7874,66.1341 0.6684,65.7341 0.6244,65.3261 C0.5844,64.8621 0.6044,64.6461 0.5994,64.3641 L0.5994,51.2061 L0.5994,24.8891 L0.5994,11.7311 L0.5994,10.0871 L0.5994,9.2641 C0.6064,8.9301 0.6274,8.5671 0.6934,8.2241 C0.9404,6.8331 1.7354,5.5561 2.8624,4.7161 C3.4244,4.2941 4.0674,3.9771 4.7474,3.7901 C5.0864,3.6931 5.4364,3.6371 5.7854,3.6051 L6.2984,3.5821 L6.7094,3.5821 L9.9994,3.5821 L8.7494,4.8321 L8.7514,4.3601 C8.7584,4.1471 8.7714,3.9341 8.8104,3.7231 C8.8814,3.3021 9.0094,2.8861 9.2074,2.5061 C9.5904,1.7391 10.2124,1.1031 10.9604,0.6871 C11.3374,0.4831 11.7434,0.3351 12.1624,0.2451 C12.5694,0.1601 13.0674,0.1561 13.3144,0.1591 L15.1294,0.1591 L22.3864,0.1591 L29.6444,0.1591 L31.4584,0.1591 C31.7064,0.1561 32.2044,0.1601 32.6104,0.2451 C33.0304,0.3351 33.4364,0.4831 33.8134,0.6871 C34.5614,1.1031 35.1824,1.7391 35.5654,2.5061 C35.7644,2.8861 35.8924,3.3021 35.9634,3.7231 C36.0024,3.9341 36.0154,4.1471 36.0224,4.3601 L36.0244,4.8321 L34.7744,3.5821 L65.9294,3.5821 L81.5064,3.5821 L89.2944,3.5921 L90.2684,3.6071 C90.6334,3.6181 91.0804,3.6661 91.4724,3.7561 C92.2764,3.9501 93.0184,4.3471 93.6384,4.8611 C94.8904,5.8711 95.6094,7.5101 95.4044,9.0211 C95.3554,9.3821 95.0224,9.6351 94.6614,9.5861 C94.3954,9.5501 94.1874,9.3601 94.1174,9.1181 L94.1044,9.0751 Z" id="Fill-3" fill="#717791" mask="url(#mask-2)"></path>
                    </g>
                    <path d="M101.5571,14.0249 L36.2451,14.0249 L36.2451,12.3489 C36.2451,10.6829 34.8951,9.3329 33.2301,9.3329 L14.4851,9.3329 C12.8201,9.3329 11.4701,10.6829 11.4701,12.3489 L11.4701,14.0249 L5.6061,14.0249 C3.1751,14.0249 1.2051,15.9959 1.2051,18.4259 L5.9751,65.4829 C6.1491,67.1969 7.5921,68.5019 9.3151,68.5019 L98.2451,68.5019 C99.9791,68.5019 101.4281,67.1809 101.5881,65.4549 L105.9581,18.4259 C105.9581,15.9959 103.9881,14.0249 101.5571,14.0249" id="Fill-6" fill="#FFFFFF"></path>
                    <path d="M54.8671,14.8633 C54.3731,15.2263 53.8791,15.3243 53.3851,15.3603 C52.8911,15.3763 52.3971,15.3083 51.9041,14.9473 C51.4441,14.6113 51.3441,13.9663 51.6801,13.5063 C51.7431,13.4193 51.8221,13.3433 51.9041,13.2823 C52.3971,12.9213 52.8911,12.8543 53.3851,12.8703 C53.8791,12.9053 54.3731,13.0043 54.8671,13.3663 C55.2801,13.6693 55.3691,14.2503 55.0661,14.6643 C55.0101,14.7413 54.9401,14.8093 54.8671,14.8633" id="Fill-8" fill="#717791"></path>
                    <path d="M5.4496,54.5532 C5.9156,55.3282 6.1996,56.1222 6.3806,56.9262 C6.4506,57.7412 6.5086,58.5572 6.6026,59.3702 L7.0976,64.2532 L7.2216,65.4642 C7.2486,65.7212 7.3236,65.9702 7.4406,66.1972 C7.6736,66.6542 8.0856,67.0212 8.5646,67.2022 C8.8036,67.2942 9.0566,67.3402 9.3186,67.3412 L10.5456,67.3412 L12.9996,67.3412 L32.6346,67.3422 L71.9016,67.3442 L91.5356,67.3452 L96.4446,67.3452 L97.6716,67.3452 L98.2706,67.3432 C98.4006,67.3402 98.5276,67.3262 98.6546,67.3042 C99.1576,67.2082 99.6236,66.9152 99.9316,66.5022 C100.0876,66.2962 100.2026,66.0632 100.2746,65.8172 C100.3066,65.6922 100.3306,65.5662 100.3456,65.4372 L100.4026,64.8312 L100.6326,62.3872 L101.0926,57.5012 L104.7736,18.4062 L104.7686,18.5152 C104.7956,16.9752 103.5616,15.5162 102.0196,15.3342 C101.8146,15.2982 101.6776,15.3032 101.4066,15.2952 L100.6216,15.2942 L99.0526,15.2922 L95.9136,15.2882 L83.3586,15.2732 L70.8046,15.2572 C66.6196,15.2342 62.4346,15.2102 58.2496,14.9012 C57.8156,14.8682 57.4896,14.4902 57.5216,14.0562 C57.5516,13.6622 57.8666,13.3572 58.2496,13.3292 C62.4346,13.0192 66.6196,12.9952 70.8046,12.9722 L83.3586,12.9562 L95.9136,12.9412 L99.0526,12.9372 L100.6216,12.9352 L101.4066,12.9342 C101.6566,12.9392 102.0466,12.9392 102.3566,12.9952 C103.6746,13.1752 104.9156,13.8542 105.7786,14.8622 C106.6516,15.8612 107.1446,17.1892 107.1476,18.5152 C107.1476,18.5512 107.1456,18.5912 107.1426,18.6262 L103.5576,57.7302 L103.1096,62.6182 L102.8846,65.0622 L102.8266,65.6782 C102.7976,65.9562 102.7456,66.2312 102.6706,66.5022 C102.5156,67.0422 102.2616,67.5542 101.9236,68.0022 C101.2516,68.9002 100.2416,69.5382 99.1356,69.7512 C98.8586,69.8022 98.5796,69.8322 98.2996,69.8362 L97.6716,69.8382 L96.4446,69.8382 L91.5356,69.8382 L71.9016,69.8392 L32.6346,69.8412 L12.9996,69.8412 L10.5456,69.8412 L9.3186,69.8412 C8.7616,69.8412 8.1966,69.7392 7.6726,69.5372 C6.6196,69.1382 5.7306,68.3442 5.2176,67.3422 C4.9596,66.8422 4.7966,66.2932 4.7366,65.7372 L4.6106,64.5062 L4.1156,59.6222 C4.0446,58.8072 3.9366,57.9952 3.8426,57.1832 C3.8596,56.3592 3.9766,55.5252 4.2786,54.6722 C4.3986,54.3332 4.7696,54.1562 5.1086,54.2752 C5.2566,54.3272 5.3746,54.4282 5.4496,54.5532" id="Fill-10" fill="#717791"></path>
                    <g id="Group-14" transform="translate(0.000000, 7.841400)">
                        <mask id="mask-4" fill="white">
                            <use xlink:href="#path-3"></use>
                        </mask>
                        <g id="Clip-13"></g>
                        <path d="M41.3369,6.8231 C40.9129,6.9981 40.4879,7.1221 40.0649,7.2221 C39.6399,7.3361 39.2159,7.4161 38.7919,7.4731 C37.9429,7.6031 37.0939,7.6501 36.2459,7.4411 L35.9319,7.3641 C35.4199,7.2381 35.0779,6.7781 35.0779,6.2731 L35.0779,5.2871 C35.0769,4.9831 35.0829,4.5581 35.0689,4.4141 C35.0219,4.0161 34.8609,3.6281 34.5769,3.3361 C34.3009,3.0391 33.9289,2.8371 33.5319,2.7771 C33.4329,2.7561 33.3319,2.7571 33.2299,2.7491 L32.7359,2.7491 L31.7499,2.7491 L23.8579,2.7491 L15.9659,2.7491 L14.9799,2.7491 L14.4859,2.7491 C14.3839,2.7571 14.2829,2.7561 14.1839,2.7771 C13.7869,2.8371 13.4149,3.0391 13.1389,3.3361 C12.8549,3.6281 12.6939,4.0161 12.6469,4.4141 C12.6329,4.5581 12.6389,4.9831 12.6379,5.2871 L12.6379,6.2731 C12.6379,6.9181 12.1149,7.4411 11.4699,7.4411 L8.2759,7.4551 L6.6789,7.4631 C6.1659,7.4691 5.5469,7.4551 5.2249,7.4951 C4.4539,7.5821 3.7329,7.9791 3.2239,8.5601 C2.7159,9.1441 2.4179,9.8951 2.4099,10.6741 L2.4039,10.5531 L3.8959,26.0271 L4.6419,33.7641 L5.0149,37.6331 C5.1409,38.9221 5.2979,40.2081 5.0709,41.5331 C4.9999,41.9481 4.6059,42.2261 4.1909,42.1551 C3.9189,42.1091 3.7049,41.9211 3.6099,41.6811 C3.1219,40.4281 3.0179,39.1371 2.8829,37.8481 L2.4719,33.9841 L1.6499,26.2551 L0.0059,10.7961 C0.0029,10.7591 0.0009,10.7221 -0.0001,10.6851 L-0.0001,10.6741 C-0.0041,9.3221 0.4989,7.9561 1.4119,6.9511 C2.3119,5.9411 3.5919,5.2611 4.9429,5.1181 C5.6799,5.0521 6.1289,5.0911 6.6789,5.0841 L8.2759,5.0911 L11.4699,5.1061 L10.3019,6.2731 L10.3019,5.2871 C10.3079,4.9331 10.2879,4.6991 10.3229,4.1871 C10.4169,3.2811 10.8039,2.3971 11.4359,1.7391 C12.0549,1.0731 12.9019,0.6151 13.8069,0.4721 C14.0319,0.4301 14.2589,0.4221 14.4859,0.4141 L14.9799,0.4141 L15.9659,0.4141 L23.8579,0.4141 L31.7499,0.4141 L32.7359,0.4141 L33.2299,0.4141 C33.4569,0.4221 33.6839,0.4301 33.9089,0.4721 C34.8139,0.6151 35.6609,1.0731 36.2799,1.7391 C36.9119,2.3971 37.2989,3.2811 37.3929,4.1871 C37.4279,4.6991 37.4079,4.9331 37.4139,5.2871 L37.4139,6.2731 L36.2459,5.1061 C37.0939,4.8961 37.9429,4.9441 38.7919,5.0731 C39.2159,5.1311 39.6399,5.2101 40.0649,5.3241 C40.4879,5.4241 40.9129,5.5481 41.3369,5.7231 C41.6409,5.8491 41.7849,6.1971 41.6599,6.5001 C41.5969,6.6521 41.4779,6.7641 41.3369,6.8231" id="Fill-12" fill="#717791" mask="url(#mask-4)"></path>
                    </g>
                </g>
            </g>
        </g>
    </g>
</svg>