<?xml version="1.0" encoding="UTF-8"?>
<svg width="103px" height="79px" viewBox="0 0 103 79" version="1.1" xmlns="http://www.w3.org/2000/svg" xmlns:xlink="http://www.w3.org/1999/xlink">
    <!-- Generator: Sketch 52.6 (67491) - http://www.bohemiancoding.com/sketch -->
    <title>Group 14</title>
    <desc>Created with Sketch.</desc>
    <defs>
        <polygon id="path-1" points="0 79.129 102.183333 79.129 102.183333 0.000111111111 0 0.000111111111"></polygon>
    </defs>
    <g id="Page-2" stroke="none" stroke-width="1" fill="none" fill-rule="evenodd">
        <g id="Index-page" transform="translate(-509.000000, -1822.000000)">
            <g id="Group-14" transform="translate(509.000000, 1822.000000)">
                <path d="M98.114,77.7481111 L4.06955556,77.7481111 C2.584,77.7481111 1.38066667,76.5447778 1.38066667,75.0603333 L1.38066667,4.06922222 C1.38066667,2.58477778 2.584,1.38033333 4.06955556,1.38033333 L98.114,1.38033333 C99.5984444,1.38033333 100.802889,2.58477778 100.802889,4.06922222 L100.802889,75.0603333 C100.802889,76.5447778 99.5984444,77.7481111 98.114,77.7481111" id="Fill-1" fill="#FFFFFF"></path>
                <mask id="mask-2" fill="white">
                    <use xlink:href="#path-1"></use>
                </mask>
                <g id="Clip-4"></g>
                <polygon id="Fill-3" fill="#B8D4FF" mask="url(#mask-2)" points="2.38222222 12.1167778 99.8288889 12.1167778 99.8288889 2.04233333 2.38222222 2.04233333"></polygon>
                <path d="M98.114,77.7481111 L4.06955556,77.7481111 C2.584,77.7481111 1.38066667,76.5447778 1.38066667,75.0603333 L1.38066667,4.06922222 C1.38066667,2.58477778 2.584,1.38033333 4.06955556,1.38033333 L98.114,1.38033333 C99.5984444,1.38033333 100.802889,2.58477778 100.802889,4.06922222 L100.802889,75.0603333 C100.802889,76.5447778 99.5984444,77.7481111 98.114,77.7481111 Z" id="Stroke-5" stroke="#717791" stroke-width="2.485" stroke-linecap="round" stroke-linejoin="round" mask="url(#mask-2)"></path>
                <path d="M100.802778,12.0862222 L12.1872222,12.0862222" id="Fill-6" fill="#FFFFFF" mask="url(#mask-2)"></path>
                <path d="M100.802778,13.1973333 L78.6494444,13.294 L56.495,13.2906667 L34.3416667,13.2028889 L23.2638889,13.1551111 C19.5716667,13.1406667 15.8794444,13.1773333 12.1872222,12.6362222 C11.8838889,12.5917778 11.6738889,12.3095556 11.7183333,12.0051111 C11.7538889,11.7573333 11.9505556,11.5717778 12.1872222,11.5362222 C15.8794444,10.9951111 19.5716667,11.0317778 23.2638889,11.0173333 L34.3416667,10.9695556 L56.495,10.8817778 L78.6494444,10.8784444 L100.802778,10.9751111 C101.416111,10.9773333 101.911667,11.4773333 101.909444,12.0906667 C101.906111,12.7017778 101.411667,13.1951111 100.802778,13.1973333" id="Fill-7" fill="#717791" mask="url(#mask-2)"></path>
                <path d="M8.31255556,6.73855556 C8.31255556,7.46188889 7.72588889,8.04966667 7.00144444,8.04966667 C6.27811111,8.04966667 5.69144444,7.46188889 5.69144444,6.73855556 C5.69144444,6.01411111 6.27811111,5.42744444 7.00144444,5.42744444 C7.72588889,5.42744444 8.31255556,6.01411111 8.31255556,6.73855556" id="Fill-8" fill="#717791" mask="url(#mask-2)"></path>
                <path d="M12.7282222,6.73855556 C12.7282222,7.46188889 12.1415556,8.04966667 11.4171111,8.04966667 C10.6926667,8.04966667 10.106,7.46188889 10.106,6.73855556 C10.106,6.01411111 10.6926667,5.42744444 11.4171111,5.42744444 C12.1415556,5.42744444 12.7282222,6.01411111 12.7282222,6.73855556" id="Fill-9" fill="#717791" mask="url(#mask-2)"></path>
                <path d="M17.1434444,6.73855556 C17.1434444,7.46188889 16.5567778,8.04966667 15.8323333,8.04966667 C15.1078889,8.04966667 14.5212222,7.46188889 14.5212222,6.73855556 C14.5212222,6.01411111 15.1078889,5.42744444 15.8323333,5.42744444 C16.5567778,5.42744444 17.1434444,6.01411111 17.1434444,6.73855556" id="Fill-10" fill="#717791" mask="url(#mask-2)"></path>
                <polyline id="Stroke-11" stroke="#717791" stroke-width="2.485" stroke-linecap="round" stroke-linejoin="round" mask="url(#mask-2)" points="38.6896667 60.8422222 22.8041111 44.9555556 38.6896667 29.0688889"></polyline>
                <polyline id="Stroke-12" stroke="#717791" stroke-width="2.485" stroke-linecap="round" stroke-linejoin="round" mask="url(#mask-2)" points="62.667 60.8422222 78.5536667 44.9555556 62.667 29.0688889"></polyline>
                <path d="M54.9347778,34.946 L47.0325556,53.9115556" id="Stroke-13" stroke="#717791" stroke-width="2.485" stroke-linecap="round" stroke-linejoin="round" mask="url(#mask-2)"></path>
            </g>
        </g>
    </g>
</svg>