<?xml version="1.0" encoding="utf-8"?>
<!-- Generator: Adobe Illustrator 23.0.4, SVG Export Plug-In . SVG Version: 6.00 Build 0)  -->
<svg version="1.1" id="Слой_1" xmlns="http://www.w3.org/2000/svg" xmlns:xlink="http://www.w3.org/1999/xlink" x="0px" y="0px"
	 viewBox="0 0 84 84" style="enable-background:new 0 0 84 84;" xml:space="preserve">
<style type="text/css">
	.st0{fill:#FFFFFF;}
	.st1{fill:#72768E;}
	.st2{fill:#BED2FC;}
</style>
<ellipse transform="matrix(0.1954 -0.9807 0.9807 0.1954 -6.8462 75.5493)" class="st0" cx="42.6" cy="41.9" rx="40" ry="39.3"/>
<path class="st1" d="M7.1,62.7c-0.5,0-1-0.3-1.3-0.8C0,51.2-0.9,38.5,3.6,27.1c3.1-8,8.6-14.7,15.7-19.4c0.7-0.5,1.6-0.3,2.1,0.4
	c0.5,0.7,0.3,1.6-0.4,2.1c-6.6,4.4-11.7,10.6-14.6,18C2.3,38.8,3,50.5,8.4,60.4c0.4,0.7,0.1,1.6-0.6,2C7.6,62.6,7.4,62.7,7.1,62.7z"
	/>
<g>
	<path class="st0" d="M20.7,75.7c-4-2.5-7.5-5.7-10.3-9.4"/>
	<path class="st1" d="M20.7,77.2c-0.3,0-0.6-0.1-0.8-0.2c-4.1-2.6-7.7-5.9-10.6-9.7c-0.5-0.7-0.4-1.6,0.3-2.1
		c0.7-0.5,1.6-0.4,2.1,0.3c2.7,3.6,6.1,6.6,9.9,9c0.7,0.4,0.9,1.4,0.5,2.1C21.7,77,21.2,77.2,20.7,77.2z"/>
</g>
<path class="st1" d="M46.4,83.1c-0.8,0-1.4-0.6-1.5-1.3c-0.1-0.8,0.5-1.6,1.3-1.7c11.5-1.3,21.7-7.6,27.9-17.3
	c0.5-0.7,1.4-0.9,2.1-0.5c0.7,0.5,0.9,1.4,0.5,2.1c-6.7,10.5-17.7,17.2-30.1,18.6C46.5,83.1,46.4,83.1,46.4,83.1z"/>
<g>
	<path class="st0" d="M79.9,54.2c-0.2,0.7-0.4,1.3-0.7,2"/>
	<path class="st1" d="M79.2,57.7c-0.2,0-0.4,0-0.5-0.1c-0.8-0.3-1.2-1.2-0.9-1.9c0.2-0.6,0.5-1.3,0.7-1.9c0.3-0.8,1.1-1.2,1.9-1
		c0.8,0.3,1.2,1.1,1,1.9c-0.2,0.7-0.5,1.4-0.7,2.1C80.3,57.3,79.8,57.7,79.2,57.7z"/>
</g>
<path class="st1" d="M81,51c-0.1,0-0.2,0-0.3,0c-0.8-0.2-1.4-0.9-1.2-1.8C83,31.2,73,13.2,55.9,6.5c-7.3-2.8-15.1-3.4-22.7-1.6
	c-0.8,0.2-1.6-0.3-1.8-1.1C31.2,3,31.7,2.2,32.5,2C40.7,0,49.1,0.6,57,3.7c18.5,7.2,29.3,26.6,25.5,46.1C82.4,50.5,81.8,51,81,51z"
	/>
<path class="st1" d="M42,76.1c-4.2,0-8.3-0.8-12.3-2.3C12.2,66.9,3.6,47.2,10.4,29.8c2.9-7.4,8.3-13.6,15.2-17.4
	c0.6-0.3,1.3-0.1,1.6,0.5c0.3,0.6,0.1,1.3-0.5,1.6c-6.5,3.6-11.5,9.3-14.2,16.2c-6.3,16.2,1.7,34.6,17.9,40.9
	c7.9,3.1,16.4,2.9,24.2-0.5c7.7-3.4,13.7-9.6,16.7-17.4c0.2-0.6,0.4-1.2,0.6-1.8c0.2-0.6,0.9-1,1.5-0.8c0.6,0.2,1,0.9,0.8,1.5
	c-0.2,0.6-0.4,1.3-0.7,1.9c-3.3,8.4-9.7,15.1-18,18.7C51.3,75.1,46.6,76.1,42,76.1z"/>
<g>
	<path class="st0" d="M74.7,43.1c0,0.7-0.1,1.4-0.1,2.1"/>
	<path class="st1" d="M74.6,46.4c0,0-0.1,0-0.1,0c-0.6-0.1-1.1-0.6-1.1-1.3c0.1-0.7,0.1-1.4,0.1-2.1c0-0.7,0.6-1.2,1.2-1.1
		c0.7,0,1.2,0.6,1.1,1.2c0,0.7-0.1,1.5-0.1,2.2C75.7,46,75.2,46.4,74.6,46.4z"/>
</g>
<path class="st1" d="M74.2,37.3c-0.6,0-1.1-0.4-1.2-1c-2-10.8-9.3-19.6-19.6-23.6c-4.6-1.8-9.5-2.5-14.4-2c-0.7,0.1-1.2-0.4-1.3-1.1
	c-0.1-0.6,0.4-1.2,1.1-1.3c5.3-0.5,10.5,0.2,15.5,2.2c11,4.3,18.8,13.8,21,25.4c0.1,0.6-0.3,1.3-0.9,1.4
	C74.3,37.3,74.3,37.3,74.2,37.3z"/>
<g>
	<path class="st0" d="M24.7,6.4c0.6-0.3,1.1-0.5,1.7-0.8"/>
	<path class="st1" d="M24.7,7.9c-0.6,0-1.1-0.3-1.4-0.8c-0.4-0.7-0.1-1.6,0.7-2c0.6-0.3,1.2-0.5,1.8-0.8c0.8-0.3,1.6,0,2,0.8
		c0.3,0.8,0,1.6-0.8,2c-0.6,0.2-1.1,0.5-1.6,0.7C25.1,7.8,24.9,7.9,24.7,7.9z"/>
</g>
<g>
	<g>
		<path class="st2" d="M56.7,35.4c-1,0.9-3.3,0.1-7.2-1.1c-1.1,2.7-2.4,5.2-2.7,6.4c1.9,2.6,3.7,3.2,3.9,4.9c0.3,1.6,0,4.7-3.3,6.1
			c-1.7,0.7-3.7,0.9-5.6,0.9c-1.1,2.7-2.7,6.5-2.8,7.4c-0.4,2.6-0.3,3-0.9,3.4c-1.4,1-4.1,0.1-4.5-1.3c-0.8-2,1.4-5.2,2.6-9
			c-6.1-0.5-9.4-0.5-10.5-2.9c-0.6-1.2,0.9-3.4,4.1-3.1c3,0.2,8,1.9,8.3,0.8c1.8-4.1,2.4-5.2,2.9-6.8c-2.4-2.3-7.5-5-6.1-9.5
			c0.7-2.2,6.4-3.1,11.1-2.4c0.3-0.7,0.6-1.7,1.9-6.1c0.5-1.7,4.2-2,5.2,0.1c1,2.1-1.7,5.6-2,6.7c0.5,0.1,1.2,0.4,1.7,0.5
			c1.4,0.3,1.5,0,2.8,0.4C58.5,31.8,57.5,34.6,56.7,35.4z M44.3,33.7c-1.1-0.1-2.9-0.1-3.8,0.4c0.1,0.4,2.3,2.6,2.5,2.7L44.3,33.7z
			 M45.2,45.2C45.1,45,45,44.9,45,45c-0.4,0.9-1,2.1-1.3,3C45,47.3,47,48.3,45.2,45.2z"/>
	</g>
</g>
<g>
	<path class="st1" d="M38.6,63.3c-0.6,0-1.2-0.1-1.7-0.3c-1.2-0.4-2.1-1.3-2.4-2.2c-0.6-1.7,0.2-3.7,1.2-6.1
		c0.3-0.7,0.6-1.4,0.9-2.2c-0.1,0-0.3,0-0.4,0C31,52,27.9,51.8,26.7,49c-0.4-0.9-0.3-2,0.4-2.9c1-1.4,2.8-2.1,5-2
		c1.2,0.1,2.6,0.4,3.9,0.6c1.1,0.2,2.7,0.5,3.4,0.5c0,0,0,0,0,0l0.6-1.4c1-2.2,1.4-3.2,1.8-4.2c-0.3-0.3-0.7-0.6-1.1-0.9
		c-2.6-2.1-6.2-5-4.8-9.4c1-3.1,7-3.8,11.4-3.4c0.2-0.5,0.4-1.3,0.8-2.5l0.8-2.6c0.4-1.2,1.7-2.1,3.3-2.2c1.8-0.1,3.5,0.7,4.2,2.2
		c1,2.1-0.4,4.7-1.4,6.5c0.1,0,0.2,0,0.2,0.1c0.6,0.1,0.8,0.1,1.2,0.2c0.4,0,0.9,0,1.7,0.3c1.4,0.4,2.3,1.3,2.6,2.6
		c0.4,1.5-0.3,3.2-1.2,3.9c0,0,0,0,0,0c-1.4,1.3-3.6,0.7-7.3-0.5c-0.3,0.7-0.6,1.3-0.8,1.9c-0.5,1.1-0.9,2.1-1.2,2.8
		c0.6,0.8,1.2,1.4,1.8,1.9c0.9,0.9,1.8,1.7,2,3.1c0.5,2.5-0.5,5.9-4.1,7.4c-1.7,0.7-3.6,0.9-5.2,1c-0.3,0.7-0.6,1.4-0.8,2.1
		c-0.7,1.6-1.6,3.8-1.6,4.3c-0.1,0.7-0.2,1.3-0.2,1.7c-0.2,1.2-0.2,1.9-1.1,2.5C40.2,63,39.4,63.3,38.6,63.3z M31.4,46.6
		c-1.3,0-2,0.5-2.4,0.9c-0.2,0.3-0.2,0.4-0.2,0.5c0.6,1.4,2.8,1.6,7.5,2c0.6,0,1.3,0.1,2,0.2c0.4,0,0.7,0.2,0.9,0.5
		c0.2,0.3,0.3,0.7,0.2,1c-0.4,1.4-1,2.7-1.5,3.8c-0.8,1.8-1.5,3.5-1.2,4.4c0.1,0.2,0.4,0.5,0.9,0.7c0.6,0.2,1.3,0.2,1.7,0
		c0-0.2,0.1-0.5,0.1-0.8c0.1-0.4,0.1-1,0.3-1.8c0.1-0.7,0.8-2.3,1.8-4.8c0.4-1,0.8-1.9,1.1-2.8c0.2-0.5,0.6-0.8,1.1-0.8
		c2,0,3.8-0.3,5.1-0.8c3.3-1.3,2.6-4.5,2.6-4.7c-0.1-0.6-0.5-1-1.3-1.8c-0.7-0.7-1.5-1.5-2.4-2.7c-0.2-0.3-0.3-0.7-0.2-1.1
		c0.2-0.8,0.8-2.1,1.5-3.7c0.4-0.9,0.8-1.9,1.3-2.9c0.2-0.6,0.9-0.9,1.5-0.7l0.8,0.2c2,0.6,4.7,1.5,5.2,1.1c0.2-0.2,0.6-1,0.5-1.6
		c0-0.2-0.1-0.6-1-0.8c-0.5-0.2-0.8-0.2-1.1-0.2c-0.4,0-0.8,0-1.6-0.2c-0.4-0.1-1-0.3-1.5-0.4l-0.3-0.1c-0.3-0.1-0.6-0.3-0.7-0.6
		s-0.2-0.6-0.1-0.9c0.1-0.4,0.4-0.9,0.7-1.5c0.6-1.2,1.8-3.3,1.3-4.3c-0.3-0.7-1.2-0.8-1.8-0.8c-0.7,0-1.1,0.3-1.2,0.5l-0.8,2.6
		c-0.7,2.3-0.9,3-1.2,3.6c-0.2,0.5-0.8,0.8-1.3,0.7c-4.8-0.7-9.4,0.4-9.7,1.6c-0.8,2.6,1.2,4.5,4,6.8c0.6,0.5,1.3,1,1.8,1.5
		c0.3,0.3,0.5,0.8,0.3,1.2c-0.4,1.4-0.9,2.4-2.1,5.2l-0.7,1.7c-0.6,1.6-2.7,1.2-6,0.5c-1.3-0.3-2.6-0.5-3.6-0.6
		C31.7,46.6,31.5,46.6,31.4,46.6z M58.7,33.7L58.7,33.7L58.7,33.7z M45.7,47.4c-0.3,0-0.6-0.1-0.8-0.3c-0.4-0.3-0.5-0.9-0.3-1.3
		c0.4-1,0.9-2.1,1.3-3.1c0.1-0.2,0.3-0.5,0.5-0.6c0.3-0.2,1-0.4,1.7,0.4l0,0c0,0,0,0,0,0.1c0,0,0.1,0.1,0.1,0.2l0,0
		c0.8,1.3,1.2,2.3,0.8,3.2c-0.4,0.9-1.3,1-1.9,1.1c-0.3,0-0.6,0.1-0.8,0.2C46.1,47.4,45.9,47.4,45.7,47.4z M45,36.2
		c-0.1,0-0.2,0-0.4-0.1c-0.7-0.2-3.1-2.9-3.3-3.5c-0.2-0.5,0.1-1.1,0.6-1.4c0.9-0.5,2.4-0.7,4.5-0.6c0.4,0,0.7,0.2,1,0.6
		s0.2,0.7,0.1,1.1l-1.3,3.2C45.9,36,45.4,36.2,45,36.2z"/>
</g>
</svg>
