<?xml version="1.0" encoding="UTF-8"?>
<svg width="91px" height="84px" viewBox="0 0 91 84" version="1.1" xmlns="http://www.w3.org/2000/svg" xmlns:xlink="http://www.w3.org/1999/xlink">
    <!-- Generator: Sketch 52.6 (67491) - http://www.bohemiancoding.com/sketch -->
    <title>Group 40</title>
    <desc>Created with Sketch.</desc>
    <defs>
        <polygon id="path-1" points="0.571279245 0.307630189 42.2638075 0.307630189 42.2638075 42 0.571279245 42"></polygon>
    </defs>
    <g id="Page-2" stroke="none" stroke-width="1" fill="none" fill-rule="evenodd">
        <g id="Index-page" transform="translate(-1014.000000, -2611.000000)">
            <g id="Group-40" transform="translate(1014.000000, 2611.000000)">
                <path d="M44.0109283,20.4837962 C43.7961736,20.4837962 43.5790415,20.4140604 43.3975698,20.269834 C42.9680604,19.9306642 42.8951547,19.3077962 43.235117,18.8790792 L47.5634943,13.4064 C47.9018717,12.9768906 48.5255321,12.9039849 48.9550415,13.2439472 C49.3837585,13.583117 49.4566642,14.2059849 49.1174943,14.6354943 L44.7883245,20.1073811 C44.5933811,20.3546264 44.3033434,20.4837962 44.0109283,20.4837962 M53.9268906,21.4957585 C53.5116453,21.4957585 53.1249283,21.2326642 52.9870415,20.8166264 L50.7887774,14.1940981 C50.6168151,13.6750415 50.8981358,13.1147774 51.4171925,12.9420226 C51.9362491,12.7708528 52.4965132,13.0505887 52.6692679,13.5704377 L54.8675321,20.192966 C55.0394943,20.7120226 54.7581736,21.2722868 54.239117,21.4450415 C54.1353057,21.479117 54.0307019,21.4957585 53.9268906,21.4957585 M35.3533811,31.4291547 C35.1386264,31.4291547 34.9214943,31.3594189 34.7400226,31.2151925 C34.3105132,30.8760226 34.2376075,30.2531547 34.5775698,29.8244377 L38.9059472,24.350966 C39.245117,23.9222491 39.8687774,23.8493434 40.2974943,24.1885132 C40.7262113,24.5284755 40.799117,25.1513434 40.4599472,25.5800604 L36.1315698,31.0527396 C35.935834,31.2999849 35.6457962,31.4291547 35.3533811,31.4291547 M58.3226264,34.7408151 C57.9073811,34.7408151 57.5206642,34.4777208 57.3827774,34.061683 L55.1845132,27.4391547 C55.0125509,26.9200981 55.2938717,26.359834 55.8129283,26.1870792 C56.3311925,26.0167019 56.8922491,26.2956453 57.0650038,26.8154943 L59.2632679,33.4380226 C59.4352302,33.9570792 59.1539094,34.5173434 58.6348528,34.6900981 C58.5310415,34.7241736 58.4256453,34.7408151 58.3226264,34.7408151 M26.695834,42.3745132 C26.4810792,42.3745132 26.2639472,42.3047774 26.0824755,42.1605509 C25.652966,41.8213811 25.5808528,41.1985132 25.9200226,40.7697962 L30.2484,35.2963245 C30.5875698,34.8676075 31.2112302,34.7947019 31.6399472,35.1338717 C32.0694566,35.473834 32.1415698,36.0967019 31.8024,36.5254189 L27.4740226,41.9980981 C27.2782868,42.2453434 26.9890415,42.3745132 26.695834,42.3745132 M62.7183623,47.9858717 C62.303117,47.9858717 61.9164,47.7227774 61.7785132,47.3067396 L59.5802491,40.6842113 C59.4082868,40.1643623 59.6896075,39.6040981 60.2086642,39.4321358 C60.7269283,39.2601736 61.2887774,39.5407019 61.4615321,40.0605509 L63.6590038,46.6830792 C63.830966,47.2021358 63.5496453,47.7624 63.0305887,47.9351547 C62.9275698,47.9692302 62.8221736,47.9858717 62.7183623,47.9858717 M26.1133811,50.5312302 C26.0365132,50.5312302 25.9580604,50.5217208 25.8804,50.5027019 L20.9521358,49.3164 C20.6240604,49.2379472 20.3585887,48.9962491 20.2476453,48.6768906 C20.1374943,48.3575321 20.1977208,48.0040981 20.4069283,47.7394189 L21.5908528,46.241683 C21.9308151,45.812966 22.5528906,45.7400604 22.9824,46.0792302 C23.4119094,46.4191925 23.4848151,47.0420604 23.1448528,47.4707774 L22.9221736,47.7528906 L26.3439849,48.5770415 C26.8757208,48.7046264 27.2037962,49.2403245 27.0754189,49.7712679 C26.9660604,50.2253434 26.5603245,50.5312302 26.1133811,50.5312302 M39.680966,53.7969283 C39.6040981,53.7969283 39.5256453,53.7874189 39.4479849,53.7691925 L32.6645887,52.1359472 C32.1320604,52.0075698 31.8047774,51.4726642 31.9331547,50.9409283 C32.0607396,50.4091925 32.5948528,50.0827019 33.1281736,50.2094943 L39.9115698,51.8427396 C40.4440981,51.971117 40.7713811,52.5060226 40.6430038,53.0377585 C40.5336453,53.491834 40.1279094,53.7969283 39.680966,53.7969283 M53.2485509,57.0634189 C53.171683,57.0634189 53.0932302,57.0539094 53.0155698,57.035683 L46.2321736,55.4016453 C45.6996453,55.2740604 45.3723623,54.7391547 45.5007396,54.2074189 C45.629117,53.675683 46.1632302,53.3476075 46.6957585,53.4759849 L53.4791547,55.1092302 C54.011683,55.2368151 54.338966,55.7725132 54.2105887,56.3042491 C54.1012302,56.7575321 53.6954943,57.0634189 53.2485509,57.0634189 M66.8153434,60.329117 C66.7384755,60.329117 66.6608151,60.3204 66.5831547,60.3013811 L59.7997585,58.6681358 C59.2672302,58.5397585 58.9399472,58.0048528 59.0683245,57.473117 C59.1967019,56.9413811 59.7292302,56.615683 60.2633434,56.741683 L65.3136453,57.9580981 L63.9759849,53.9292679 C63.8040226,53.4094189 64.0853434,52.8491547 64.6044,52.6771925 C65.1242491,52.5068151 65.6845132,52.7857585 65.8564755,53.3048151 L67.7551925,59.0263245 C67.8685132,59.3678717 67.787683,59.7434943 67.5444,60.0081736 C67.3550038,60.2150038 67.0887396,60.329117 66.8153434,60.329117" id="Fill-1" fill="#7282C4"></path>
                <path d="M34.8710151,51.0740604 C34.8710151,55.3691547 33.2710528,59.2902113 30.6409019,62.2761736 C27.5368642,65.7962491 22.9937321,68.0143245 17.9307509,68.0143245 C12.8677698,68.0143245 8.32463774,65.7922868 5.2206,62.2722113 C2.58648679,59.2862491 0.990486792,55.3691547 0.990486792,51.0740604 C0.990486792,41.7199472 8.57663774,34.1337962 17.9307509,34.1337962 C27.2888264,34.1337962 34.8710151,41.7199472 34.8710151,51.0740604" id="Fill-3" fill="#FFFFFF"></path>
                <path d="M17.9308302,35.1244415 C9.13618868,35.1244415 1.98113208,42.2794981 1.98113208,51.0741396 C1.98113208,54.9627057 3.39566038,58.7062528 5.96320755,61.6169321 C8.99433962,65.0530075 13.356,67.0238377 17.9308302,67.0238377 C22.5080377,67.0238377 26.8704906,65.0545925 29.8976604,61.6208943 C32.466,58.7062528 33.8805283,54.9603283 33.8805283,51.0741396 C33.8805283,42.2794981 26.7254717,35.1244415 17.9308302,35.1244415 M17.9308302,69.0049698 C12.7870189,69.0049698 7.88411321,66.7892717 4.47815094,62.9268566 C1.59045283,59.6548189 0,55.4453094 0,51.0741396 C0,41.1867057 8.04339623,33.1433094 17.9308302,33.1433094 C27.8182642,33.1433094 35.8616604,41.1867057 35.8616604,51.0741396 C35.8616604,55.4429321 34.2712075,59.6540264 31.3843019,62.9308189 C27.9799245,66.7908566 23.0770189,69.0049698 17.9308302,69.0049698" id="Fill-5" fill="#717791"></path>
                <path d="M33.1108189,51.0740604 C33.1108189,54.5870038 31.9158,57.8162491 29.9156491,60.3861736 C27.1357245,56.8161736 22.8025925,54.5220226 17.9305925,54.5220226 C13.0633472,54.5220226 8.72625283,56.8161736 5.9463283,60.3861736 C3.94142264,57.8122868 2.75036604,54.5870038 2.75036604,51.0740604 C2.75036604,42.6938717 9.55040377,35.893834 17.9305925,35.893834 C26.3147434,35.893834 33.1108189,42.6938717 33.1108189,51.0740604" id="Fill-7" fill="#D5BEFD"></path>
                <path d="M22.9911962,46.0140906 C22.9911962,48.8082792 20.7255736,51.0739019 17.9305925,51.0739019 C15.1364038,51.0739019 12.8707811,48.8082792 12.8707811,46.0140906 C12.8707811,43.2199019 15.1364038,40.9542792 17.9305925,40.9542792 C20.7255736,40.9542792 22.9911962,43.2199019 22.9911962,46.0140906" id="Fill-9" fill="#FFFFFF"></path>
                <path d="M17.9308302,41.9446075 C15.6866038,41.9446075 13.8615849,43.7704189 13.8615849,46.0138528 C13.8615849,48.2580792 15.6866038,50.0838906 17.9308302,50.0838906 C20.1750566,50.0838906 22.0008679,48.2580792 22.0008679,46.0138528 C22.0008679,43.7704189 20.1750566,41.9446075 17.9308302,41.9446075 M17.9308302,52.0650226 C14.5946038,52.0650226 11.8804528,49.3500792 11.8804528,46.0138528 C11.8804528,42.6776264 14.5946038,39.9634755 17.9308302,39.9634755 C21.2670566,39.9634755 23.982,42.6776264 23.982,46.0138528 C23.982,49.3500792 21.2670566,52.0650226 17.9308302,52.0650226" id="Fill-11" fill="#717791"></path>
                <path d="M5.85170943,60.0886075 C5.98801132,59.8413623 6.12193585,59.6274 6.28042642,59.3809472 C6.44129434,59.1329094 6.59661509,58.8761547 6.78363396,58.6447585 C7.14499245,58.1708717 7.54121887,57.719966 7.97786038,57.3102679 C8.84480377,56.4813623 9.84408679,55.7935132 10.9035962,55.2229472 C13.0210302,54.074683 15.4395962,53.4565698 17.8557849,53.4549849 C20.2719736,53.4454755 22.6889547,54.050117 24.8095585,55.184117 C26.9254075,56.2983057 28.7425019,58.0638906 29.8123132,60.0949472 L29.8273698,60.1242679 C29.9406906,60.3390226 29.8582755,60.6060792 29.6435208,60.7194 C29.4739358,60.8089472 29.2718604,60.7756642 29.1387283,60.6520415 C28.2884264,59.8627585 27.5038981,59.1844189 26.6345774,58.5536264 C25.7715962,57.9347208 24.8682,57.3903057 23.9220113,56.9433623 C22.0320113,56.0383811 19.9446906,55.6088717 17.8660868,55.6231358 C15.7851057,55.6350226 13.7160113,56.1160415 11.8434453,57.0392491 C10.9059736,57.5012491 10.0318981,58.0829094 9.19823774,58.7224189 C8.77903019,59.0417774 8.37487925,59.3825321 7.97389811,59.7343811 C7.76865283,59.9063434 7.58321887,60.0973245 7.37559623,60.2716642 C7.1711434,60.4547208 6.94370943,60.6718528 6.71786038,60.8549094 C6.46744528,61.0593623 6.09816226,61.0213245 5.89370943,60.770117 C5.73838868,60.5791358 5.72333208,60.3200038 5.83506792,60.1179283 L5.85170943,60.0886075 Z" id="Fill-13" fill="#717791"></path>
                <path d="M62.974483,13.0436943 C62.974483,16.1001849 61.8357283,18.8896189 59.9647472,21.0141849 C57.7561811,23.5191283 54.5229736,25.0969019 50.9212755,25.0969019 C47.3187849,25.0969019 44.0863698,23.5159585 41.8778038,21.0118075 C40.0036528,18.8872415 38.8680679,16.1001849 38.8680679,13.0436943 C38.8680679,6.38867547 44.2654642,0.990486792 50.9212755,0.990486792 C57.5794642,0.990486792 62.974483,6.38867547 62.974483,13.0436943" id="Fill-15" fill="#FFFFFF"></path>
                <path d="M50.9208792,1.98113208 C44.8205774,1.98113208 39.8582377,6.9434717 39.8582377,13.0437736 C39.8582377,15.7404906 40.8392943,18.3373585 42.6207283,20.3557358 C44.7223132,22.739434 47.7478981,24.1064151 50.9208792,24.1064151 C54.0954453,24.1064151 57.1210302,22.7410189 59.2218226,20.3589057 C61.0024642,18.3373585 61.9835208,15.7389057 61.9835208,13.0437736 C61.9835208,6.9434717 57.0211811,1.98113208 50.9208792,1.98113208 M50.9208792,26.0875472 C47.178917,26.0875472 43.6120868,24.4764906 41.1348792,21.6664528 C39.0340868,19.2859245 37.8771057,16.2238868 37.8771057,13.0437736 C37.8771057,5.8514717 43.7285774,0 50.9208792,0 C58.1131811,0 63.9646528,5.8514717 63.9646528,13.0437736 C63.9646528,16.2215094 62.8076717,19.2851321 60.7076717,21.6688302 C58.2312566,24.477283 54.6644264,26.0875472 50.9208792,26.0875472" id="Fill-17" fill="#717791"></path>
                <path d="M61.3113623,12.9643698 C61.3113623,15.3686717 60.4935509,17.5796151 59.1241925,19.3380679 C57.2215132,16.8949358 54.2553623,15.3242943 50.9207208,15.3242943 C47.5892491,15.3242943 44.6207208,16.8949358 42.7180415,19.3380679 C41.3463057,17.5772377 40.5308717,15.3686717 40.5308717,12.9643698 C40.5308717,7.22859623 45.1849472,2.5737283 50.9207208,2.5737283 C56.6596642,2.5737283 61.3113623,7.22859623 61.3113623,12.9643698" id="Fill-19" fill="#FDD1BE"></path>
                <path d="M54.5213887,9.44366038 C54.5213887,11.4319245 52.9095396,13.0437736 50.9212755,13.0437736 C48.9330113,13.0437736 47.3211623,11.4319245 47.3211623,9.44366038 C47.3211623,7.45539623 48.9330113,5.84354717 50.9212755,5.84354717 C52.9095396,5.84354717 54.5213887,7.45539623 54.5213887,9.44366038" id="Fill-21" fill="#FFFFFF"></path>
                <path d="M50.9212755,6.83371698 C49.4821811,6.83371698 48.3117283,8.00496226 48.3117283,9.44326415 C48.3117283,10.8823585 49.4821811,12.0536038 50.9212755,12.0536038 C52.3603698,12.0536038 53.5308226,10.8823585 53.5308226,9.44326415 C53.5308226,8.00496226 52.3603698,6.83371698 50.9212755,6.83371698 M50.9212755,14.0347358 C48.3901811,14.0347358 46.3305962,11.9751509 46.3305962,9.44326415 C46.3305962,6.91216981 48.3901811,4.85258491 50.9212755,4.85258491 C53.4523698,4.85258491 55.5119547,6.91216981 55.5119547,9.44326415 C55.5119547,11.9751509 53.4523698,14.0347358 50.9212755,14.0347358" id="Fill-23" fill="#717791"></path>
                <path d="M42.2016,19.3469434 C42.2871849,19.1646792 42.3632604,19.0069811 42.4702415,18.8239245 C42.5811849,18.6384906 42.688166,18.446717 42.8181283,18.2739623 C43.0693358,17.9181509 43.3498642,17.5813585 43.6636755,17.2770566 C44.2849585,16.6605283 45.0140151,16.1557358 45.7858642,15.7333585 C47.3271849,14.8838491 49.0991094,14.4250189 50.8662792,14.4250189 C52.6342415,14.4186792 54.4014113,14.8743396 55.9435245,15.7143396 C57.4785057,16.5376981 58.7931849,17.8682264 59.4715245,19.3818113 L59.4865811,19.4150943 C59.5872226,19.6393585 59.4873736,19.9016604 59.2631094,20.0023019 C59.1038264,20.0736226 58.9247321,20.0435094 58.7979396,19.9396981 C57.5458642,18.9039623 56.3849208,18.0853585 55.0559774,17.4735849 C53.7444679,16.8626038 52.306166,16.5828679 50.8765811,16.5931698 C49.4446189,16.6026792 48.022166,16.926 46.7249208,17.5504528 C46.0766943,17.8634717 45.4720528,18.261283 44.8832604,18.69 C44.5884679,18.9031698 44.2992226,19.1306038 44.0083925,19.3627925 L43.5717509,19.7193962 C43.4211849,19.8422264 43.2397132,19.9904151 43.0677509,20.1140377 C42.8022792,20.3050189 42.4322038,20.2447925 42.2404302,19.9793208 C42.1104679,19.7986415 42.0969962,19.5688302 42.1849585,19.3802264 L42.2016,19.3469434 Z" id="Fill-25" fill="#717791"></path>
                <path d="M89.6129434,62.5085208 C89.6129434,67.5429736 87.738,72.1392 84.654566,75.6386717 C81.0164151,79.7641811 75.6911321,82.3642189 69.7572453,82.3642189 C63.8233585,82.3642189 58.497283,79.7602189 54.8599245,75.633917 C51.7717358,72.1344453 49.9015472,67.5429736 49.9015472,62.5085208 C49.9015472,51.5449358 58.7928679,42.6528226 69.7572453,42.6528226 C80.7255849,42.6528226 89.6129434,51.5449358 89.6129434,62.5085208" id="Fill-27" fill="#FFFFFF"></path>
                <g id="Group-31" transform="translate(48.339623, 41.354943)">
                    <mask id="mask-2" fill="white">
                        <use xlink:href="#path-1"></use>
                    </mask>
                    <g id="Clip-30"></g>
                    <path d="M21.4175434,2.28876226 C11.0150151,2.28876226 2.55241132,10.751366 2.55241132,21.1538943 C2.55241132,25.7524981 4.22527925,30.1807245 7.26275094,33.6239321 C10.8462226,37.6876302 16.0050906,40.0190264 21.4175434,40.0190264 C26.8323736,40.0190264 31.9904491,37.6892151 35.5715434,33.6286868 C38.6098075,30.1807245 40.2826755,25.7501208 40.2826755,21.1538943 C40.2826755,10.751366 31.8200717,2.28876226 21.4175434,2.28876226 M21.4175434,42.0001585 C15.4369019,42.0001585 9.73599623,39.4246868 5.77690189,34.9338566 C2.4200717,31.130083 0.571279245,26.2351019 0.571279245,21.1538943 C0.571279245,9.65936604 9.92301509,0.307630189 21.4175434,0.307630189 C32.9120717,0.307630189 42.2638075,9.65936604 42.2638075,21.1538943 C42.2638075,26.2327245 40.4150151,31.1284981 37.0581849,34.9386113 C33.1006755,39.4262717 27.4005623,42.0001585 21.4175434,42.0001585" id="Fill-29" fill="#717791" mask="url(#mask-2)"></path>
                </g>
                <path d="M87.5497925,62.5085208 C87.5497925,66.6261057 86.1487358,70.4116528 83.8038679,73.4229736 C80.5460943,69.2396151 75.4672642,66.5500302 69.7568491,66.5500302 C64.0511887,66.5500302 58.9676038,69.2396151 55.7098302,73.4229736 C53.3602075,70.4068981 51.9639057,66.6261057 51.9639057,62.5085208 C51.9639057,52.6860679 59.9343962,44.7155774 69.7568491,44.7155774 C79.5840566,44.7155774 87.5497925,52.6860679 87.5497925,62.5085208" id="Fill-32" fill="#B8D4FF"></path>
                <path d="M75.6881208,56.5779623 C75.6881208,59.8531698 73.0326113,62.5086792 69.7574038,62.5086792 C66.4814038,62.5086792 63.8258943,59.8531698 63.8258943,56.5779623 C63.8258943,53.3027547 66.4814038,50.6472453 69.7574038,50.6472453 C73.0326113,50.6472453 75.6881208,53.3027547 75.6881208,56.5779623" id="Fill-34" fill="#FFFFFF"></path>
                <path d="M69.757166,51.6374943 C67.0327132,51.6374943 64.8170151,53.8539849 64.8170151,56.5776453 C64.8170151,59.3020981 67.0327132,61.5185887 69.757166,61.5185887 C72.4816189,61.5185887 74.697317,59.3020981 74.697317,56.5776453 C74.697317,53.8539849 72.4816189,51.6374943 69.757166,51.6374943 M69.757166,63.4997208 C65.9407132,63.4997208 62.835883,60.3940981 62.835883,56.5776453 C62.835883,52.7611925 65.9407132,49.6563623 69.757166,49.6563623 C73.5736189,49.6563623 76.6784491,52.7611925 76.6784491,56.5776453 C76.6784491,60.3940981 73.5736189,63.4997208 69.757166,63.4997208" id="Fill-36" fill="#717791"></path>
                <path d="M55.6732981,73.1405434 C55.8405057,72.8568453 56.0061283,72.6064302 56.1947321,72.3227321 C56.3880906,72.0374491 56.5735245,71.7418642 56.7938264,71.4763925 C57.220166,70.9311849 57.6861283,70.4121283 58.1964679,69.939034 C59.2092226,68.9841283 60.370166,68.1877132 61.6008453,67.5276 C64.0622038,66.201034 66.8666943,65.4894113 69.6696,65.4854491 C72.4732981,65.4743547 75.2769962,66.1685434 77.7431094,67.4776755 C80.2060528,68.7654113 82.3219019,70.7917132 83.6246943,73.1294491 L83.6413358,73.1587698 C83.7594113,73.3711472 83.6833358,73.6382038 83.4717509,73.7562792 C83.2982038,73.8529585 83.0874113,73.818883 82.9511094,73.6873358 C81.9827321,72.7451094 81.0682415,71.9225434 80.0499396,71.1673358 C79.0403547,70.4232226 77.9745057,69.7718264 76.8555623,69.2369208 C74.6208453,68.1560151 72.1452226,67.6377509 69.6799019,67.6543925 C67.2129962,67.6670717 64.7563925,68.2431849 62.5406943,69.3446943 C61.4320528,69.8954491 60.3971094,70.5856755 59.4160528,71.3527698 C58.9239396,71.7339396 58.4508453,72.1428453 57.9840906,72.5652226 C57.7455623,72.7720528 57.5300151,73.0018642 57.2906943,73.2134491 C57.0545434,73.4337509 56.7969962,73.6865434 56.5402415,73.9076377 C56.2953736,74.1176377 55.926883,74.0891094 55.716883,73.845034 C55.5504679,73.650883 55.5338264,73.3774868 55.6566566,73.1690717 L55.6732981,73.1405434 Z" id="Fill-38" fill="#717791"></path>
            </g>
        </g>
    </g>
</svg>