<?xml version="1.0" encoding="UTF-8"?>
<svg width="106px" height="84px" viewBox="0 0 106 84" version="1.1" xmlns="http://www.w3.org/2000/svg" xmlns:xlink="http://www.w3.org/1999/xlink">
    <!-- Generator: Sketch 52.6 (67491) - http://www.bohemiancoding.com/sketch -->
    <title>Group 84</title>
    <desc>Created with Sketch.</desc>
    <defs>
        <polygon id="path-1" points="0 0.047550655 37.532373 0.047550655 37.532373 10.4145 0 10.4145"></polygon>
    </defs>
    <g id="Page-2" stroke="none" stroke-width="1" fill="none" fill-rule="evenodd">
        <g id="Index-page" transform="translate(-827.000000, -1818.000000)">
            <g id="Group-84" transform="translate(827.000000, 1818.000000)">
                <path d="M94.5861,9.8068 L71.4371,33.1478 C70.7511,33.8338 69.6391,33.8338 68.9541,33.1478 L66.6121,30.8068 C65.9271,30.1208 65.9271,29.0098 66.6121,28.3238 L88.6061,6.3298" id="Fill-1" fill="#E5EEFD"></path>
                <path d="M70.194,34.7604 C69.463,34.7604 68.732,34.4824 68.176,33.9264 L65.835,31.5844 C64.721,30.4714 64.721,28.6594 65.835,27.5464 L87.828,5.5524 C88.258,5.1224 88.954,5.1224 89.384,5.5524 C89.814,5.9824 89.814,6.6784 89.384,7.1084 L67.39,29.1014 C67.134,29.3574 67.134,29.7734 67.39,30.0294 L69.732,32.3704 C69.987,32.6264 70.403,32.6264 70.66,32.3694 L93.805,9.0324 C94.233,8.6014 94.93,8.5984 95.361,9.0254 C95.792,9.4534 95.795,10.1504 95.367,10.5814 L72.218,33.9224 C71.659,34.4814 70.926,34.7604 70.194,34.7604" id="Fill-3" fill="#717791"></path>
                <path d="M21.1876,37.7853 L27.1816,78.3883 C27.5226,80.6963 29.5036,82.4063 31.8366,82.4063 L91.8746,82.4063 C94.2076,82.4063 96.1876,80.6963 96.5286,78.3883 L102.5616,37.5263 L57.3776,37.5263" id="Fill-5" fill="#E5EEFD"></path>
                <path d="M91.8741,83.5065 L31.8361,83.5065 C28.9791,83.5065 26.5111,81.3755 26.0931,78.5485 L20.0991,37.9455 C20.0111,37.3445 20.4261,36.7855 21.0271,36.6965 C21.6251,36.6125 22.1871,37.0235 22.2761,37.6245 L28.2701,78.2275 C28.5291,79.9835 30.0621,81.3065 31.8361,81.3065 L91.8741,81.3065 C93.6481,81.3065 95.1821,79.9835 95.4401,78.2275 L101.2871,38.6265 L57.3771,38.6265 C56.7701,38.6265 56.2771,38.1335 56.2771,37.5265 C56.2771,36.9195 56.7701,36.4265 57.3771,36.4265 L102.5611,36.4265 C102.8811,36.4265 103.1851,36.5655 103.3941,36.8075 C103.6031,37.0495 103.6961,37.3705 103.6491,37.6875 L97.6171,78.5485 C97.2001,81.3755 94.7311,83.5065 91.8741,83.5065" id="Fill-7" fill="#717791"></path>
                <path d="M103.1295,29.5075 L72.8095,29.5075 C72.0685,29.5075 71.4675,30.1085 71.4675,30.8495 L71.4675,36.4435 C71.4675,37.1845 72.0685,37.7855 72.8095,37.7855 L103.1295,37.7855 C103.8705,37.7855 104.4715,37.1845 104.4715,36.4435 L104.4715,30.8495 C104.4715,30.1085 103.8705,29.5075 103.1295,29.5075" id="Fill-9" fill="#E5EEFD"></path>
                <path d="M72.8097,30.6076 C72.6757,30.6076 72.5677,30.7156 72.5677,30.8496 L72.5677,36.4426 C72.5677,36.5766 72.6757,36.6856 72.8097,36.6856 L103.1297,36.6856 C103.2637,36.6856 103.3717,36.5766 103.3717,36.4426 L103.3717,30.8496 C103.3717,30.7156 103.2637,30.6076 103.1297,30.6076 L72.8097,30.6076 Z M103.1297,38.8856 L72.8097,38.8856 C71.4627,38.8856 70.3677,37.7896 70.3677,36.4426 L70.3677,30.8496 C70.3677,29.5036 71.4627,28.4076 72.8097,28.4076 L103.1297,28.4076 C104.4767,28.4076 105.5717,29.5036 105.5717,30.8496 L105.5717,36.4426 C105.5717,37.7896 104.4767,38.8856 103.1297,38.8856 Z" id="Fill-11" fill="#717791"></path>
                <path d="M26.2516,37.5265 L3.5596,37.5265 L9.5916,78.3885 C9.9326,80.6965 11.9136,82.4065 14.2466,82.4065 L74.2846,82.4065 C76.6176,82.4065 78.5986,80.6965 78.9396,78.3885 L85.3066,35.2585" id="Fill-13" fill="#FFFFFF"></path>
                <path d="M26.2521,38.5456 L3.5601,38.5456 L4.5681,37.3776 L10.0691,74.6406 L10.4131,76.9686 L10.5851,78.1336 C10.6411,78.4826 10.6981,78.7536 10.8201,79.0466 C11.2591,80.1936 12.3181,81.0896 13.5291,81.3146 C13.8561,81.3706 14.0851,81.3926 14.5021,81.3866 L15.6801,81.3866 L18.0341,81.3866 L22.7421,81.3866 L41.5751,81.3866 L60.4081,81.3866 L69.8251,81.3866 L74.4801,81.3776 C75.7091,81.3236 76.8881,80.6006 77.4881,79.5216 C77.6291,79.2506 77.7651,78.9726 77.8361,78.6716 C77.8851,78.5246 77.8981,78.3766 77.9341,78.2156 L78.0201,77.6336 L78.3641,75.3046 L79.0511,70.6476 L80.3771,61.3246 L81.7011,52.0016 L82.4051,47.3456 C82.6311,45.7926 82.8711,44.2416 83.4091,42.7346 C83.5581,42.3176 84.0161,42.1016 84.4321,42.2496 C84.7461,42.3616 84.9461,42.6506 84.9621,42.9636 C85.0421,44.5626 84.8231,46.1166 84.5901,47.6686 L83.9191,52.3286 L82.4921,61.6366 L81.0681,70.9446 L80.3801,75.6026 L80.0371,77.9316 L79.9511,78.5136 C79.9061,78.7376 79.8741,78.9826 79.8031,79.2086 C79.6881,79.6716 79.4861,80.1106 79.2601,80.5296 C78.3271,82.2046 76.5011,83.3276 74.5861,83.4126 L69.8251,83.4256 L60.4081,83.4256 L41.5751,83.4256 L22.7421,83.4256 L18.0341,83.4256 L15.6801,83.4256 L14.5021,83.4256 C14.1361,83.4336 13.5791,83.4046 13.1341,83.3146 C11.2461,82.9596 9.6091,81.5796 8.9221,79.7906 C8.7411,79.3586 8.6331,78.8566 8.5681,78.4316 L8.3961,77.2666 L8.0521,74.9386 L2.5511,37.6756 C2.4691,37.1186 2.8541,36.6006 3.4111,36.5186 C3.4591,36.5106 3.5121,36.5076 3.5601,36.5066 L26.2521,36.5066 C26.8141,36.5066 27.2711,36.9636 27.2711,37.5266 C27.2711,38.0896 26.8141,38.5456 26.2521,38.5456" id="Fill-15" fill="#717791"></path>
                <path d="M84.7169,29.5075 L3.1679,29.5075 C1.9719,29.5075 1.0029,30.4775 1.0029,31.6725 L1.0029,35.6195 C1.0029,36.8155 1.9719,37.7855 3.1679,37.7855 L84.7169,37.7855 C85.9129,37.7855 86.8819,36.8155 86.8819,35.6195 L86.8819,31.6725 C86.8819,30.4775 85.9129,29.5075 84.7169,29.5075" id="Fill-17" fill="#FFFFFF"></path>
                <path d="M13.4567,30.3087 C12.6797,30.4657 11.9017,30.5547 11.1247,30.5777 C10.3467,30.6327 9.5697,30.6297 8.7917,30.3837 C8.3087,30.2307 8.0397,29.7137 8.1937,29.2297 C8.2867,28.9357 8.5197,28.7197 8.7917,28.6317 C9.5697,28.3857 10.3467,28.3827 11.1247,28.4377 C11.9017,28.4607 12.6797,28.5497 13.4567,28.7057 C13.8997,28.7957 14.1857,29.2267 14.0967,29.6687 C14.0297,30.0007 13.7697,30.2457 13.4567,30.3087" id="Fill-19" fill="#717791"></path>
                <path d="M35.5905,30.1222 C34.5485,30.4282 33.5065,30.5312 32.4645,30.5802 C31.4225,30.6382 30.3805,30.6352 29.3385,30.6232 L26.2115,30.6092 C25.1695,30.5272 24.1275,30.4122 23.0855,30.1852 C22.7115,30.1042 22.4735,29.7352 22.5545,29.3602 C22.6135,29.0862 22.8285,28.8862 23.0855,28.8302 C24.1275,28.6032 25.1695,28.4882 26.2115,28.4052 L29.3385,28.3922 C30.3805,28.3802 31.4225,28.3772 32.4645,28.4352 C33.5065,28.4832 34.5485,28.5872 35.5905,28.8932 C35.9295,28.9922 36.1245,29.3482 36.0255,29.6872 C35.9615,29.9032 35.7905,30.0622 35.5905,30.1222" id="Fill-21" fill="#717791"></path>
                <path d="M45.5304,37.2428 C46.3704,36.7488 47.2104,36.8698 48.0514,36.8468 L50.5714,36.8338 L55.6134,36.8078 L65.6954,36.7848 L75.7784,36.7918 L80.8194,36.7978 L83.3404,36.7998 L84.6004,36.8018 L85.1774,36.7988 C85.2704,36.7938 85.3594,36.7738 85.4434,36.7378 C85.6124,36.6668 85.7534,36.5248 85.8294,36.3598 C85.8674,36.2768 85.8904,36.1878 85.8974,36.0958 C85.9014,36.0718 85.9034,35.9598 85.9024,35.8508 L85.9024,35.5348 L85.9054,33.0148 L85.9064,31.7548 L85.9064,31.4398 C85.9084,31.3288 85.9064,31.2198 85.9034,31.1958 C85.8964,31.1028 85.8734,31.0138 85.8354,30.9298 C85.7584,30.7628 85.6164,30.6178 85.4464,30.5458 C85.3614,30.5088 85.2714,30.4878 85.1774,30.4828 L84.5974,30.4788 L74.5154,30.5558 L64.4324,30.6428 L59.3914,30.6158 C57.7104,30.6158 56.0304,30.6228 54.3494,30.1058 C54.0194,30.0038 53.8344,29.6538 53.9354,29.3238 C53.9984,29.1188 54.1604,28.9698 54.3494,28.9098 C56.0304,28.3918 57.7104,28.3998 59.3914,28.3998 L64.4324,28.3718 L74.5154,28.4588 L84.5974,28.5358 C84.8304,28.5388 84.9674,28.5298 85.2784,28.5418 C85.6034,28.5578 85.9284,28.6338 86.2294,28.7648 C86.8324,29.0258 87.3244,29.5128 87.6014,30.1068 C87.7394,30.4038 87.8234,30.7278 87.8474,31.0528 C87.8594,31.2388 87.8574,31.3398 87.8574,31.4398 L87.8574,31.7548 L87.8594,33.0148 L87.8614,35.5348 L87.8624,35.8508 C87.8624,35.9508 87.8644,36.0498 87.8534,36.2358 C87.8304,36.5618 87.7474,36.8868 87.6094,37.1838 C87.3344,37.7818 86.8414,38.2708 86.2374,38.5348 C85.9364,38.6678 85.6094,38.7448 85.2834,38.7618 C84.9684,38.7748 84.8344,38.7658 84.6004,38.7688 L83.3404,38.7698 L80.8194,38.7728 L75.7784,38.7788 L65.6954,38.7848 L55.6134,38.7628 L50.5714,38.7358 L48.0514,38.7228 C47.2104,38.6998 46.3704,38.8218 45.5304,38.3278 C45.2304,38.1518 45.1304,37.7658 45.3064,37.4658 C45.3624,37.3708 45.4414,37.2948 45.5304,37.2428" id="Fill-23" fill="#717791"></path>
                <g id="Group-27" transform="translate(0.000000, 28.506500)">
                    <mask id="mask-2" fill="white">
                        <use xlink:href="#path-1"></use>
                    </mask>
                    <g id="Clip-26"></g>
                    <path d="M5.9928,1.5435 C5.4938,2.0375 4.9938,1.9165 4.4948,1.9395 L2.9968,1.9525 C2.6878,1.9525 2.6468,1.9575 2.5258,1.9915 C2.4188,2.0235 2.3198,2.0825 2.2368,2.1585 C2.0698,2.3135 1.9738,2.5225 1.9798,2.7525 L2.0048,5.7485 L2.0038,7.2465 C2.0048,7.3485 1.9998,7.5455 2.0068,7.5705 C2.0068,7.6255 2.0168,7.6775 2.0308,7.7285 C2.0578,7.8295 2.1058,7.9265 2.1748,8.0095 C2.3158,8.1745 2.5188,8.2735 2.7348,8.2785 L4.2138,8.2805 L7.2098,8.2855 L13.2008,8.2965 C17.1958,8.3105 21.1908,8.3225 25.1848,8.2305 L31.1768,8.1435 L34.1728,8.1705 C35.1708,8.1705 36.1698,8.1635 37.1688,8.6805 C37.4988,8.8515 37.6278,9.2585 37.4568,9.5885 C37.3898,9.7175 37.2878,9.8145 37.1688,9.8765 C36.1698,10.3945 35.1708,10.3865 34.1728,10.3865 L31.1768,10.4145 L25.1848,10.3275 C21.1908,10.2355 17.1958,10.2465 13.2008,10.2615 L7.2098,10.2725 L4.2138,10.2765 L2.6978,10.2755 C1.9128,10.2675 1.1378,9.8925 0.6388,9.2895 C0.3868,8.9885 0.2018,8.6315 0.0988,8.2515 C0.0468,8.0615 0.0138,7.8655 0.0068,7.6705 C-0.0042,7.4465 0.0038,7.3935 0.0008,7.2465 L-0.0002,5.7485 L0.0248,2.7525 C0.0218,1.9805 0.3828,1.2025 0.9708,0.7035 C1.2638,0.4505 1.6108,0.2595 1.9848,0.1545 C2.3438,0.0395 2.8088,0.0435 2.9968,0.0505 L4.4948,0.0635 C4.9938,0.0865 5.4938,-0.0355 5.9928,0.4585 C6.2928,0.7545 6.2948,1.2385 5.9988,1.5375 L5.9928,1.5435 Z" id="Fill-25" fill="#717791" mask="url(#mask-2)"></path>
                </g>
                <path d="M73.4,7.3683 L43.935,36.8333 C43.05,37.7173 41.617,37.7173 40.733,36.8333 L37.715,33.8153 C36.832,32.9313 36.832,31.4983 37.715,30.6153 L67.739,0.5913" id="Fill-28" fill="#FFFFFF"></path>
                <path d="M63.5148,4.8156 L66.8438,1.4866 C67.1628,1.1676 67.6228,1.0726 68.0258,1.2026" id="Fill-30" fill="#FFFFFF"></path>
                <path d="M63.0909,4.3918 C63.2519,3.8478 63.5339,3.4238 63.8499,3.0338 C64.1669,2.6458 64.5009,2.2738 64.8529,1.9208 L65.9119,0.8638 L66.0439,0.7308 C66.0879,0.6838 66.2059,0.5738 66.2929,0.5088 C66.4849,0.3598 66.7029,0.2438 66.9329,0.1638 C67.3929,0.0018 67.9019,0.0018 68.3629,0.1548 C68.9129,0.3388 69.2109,0.9338 69.0279,1.4838 C68.8939,1.8838 68.5439,2.1498 68.1519,2.1958 L67.6879,2.2488 L67.6469,2.2538 C67.6409,2.2558 67.6349,2.2558 67.6299,2.2598 C67.6179,2.2708 67.6439,2.2448 67.5999,2.2868 L67.4669,2.4178 L66.4089,3.4768 C66.0559,3.8298 65.6849,4.1628 65.2969,4.4808 C64.9059,4.7958 64.4829,5.0788 63.9389,5.2388 C63.5769,5.3458 63.1979,5.1398 63.0909,4.7788 C63.0519,4.6468 63.0549,4.5138 63.0909,4.3918" id="Fill-32" fill="#717791"></path>
                <path d="M57.8317,10.4987 L60.5127,7.8177" id="Fill-34" fill="#FFFFFF"></path>
                <path d="M57.1075,9.7751 C57.2175,9.4391 57.5425,9.3171 57.7675,9.0941 L58.5055,8.4931 C58.9945,8.0881 59.4915,7.6921 60.0085,7.3141 C60.3295,7.0791 60.7805,7.1501 61.0155,7.4711 C61.2055,7.7311 61.1955,8.0751 61.0155,8.3221 C60.6385,8.8381 60.2425,9.3361 59.8375,9.8241 L59.2355,10.5631 C59.0135,10.7881 58.8915,11.1121 58.5545,11.2221 C57.9525,11.4201 57.3045,11.0911 57.1075,10.4891 C57.0285,10.2481 57.0345,9.9991 57.1075,9.7751" id="Fill-36" fill="#717791"></path>
                <path d="M74.1237,8.0919 L46.5787,35.6359 L44.8577,37.3579 L44.6347,37.5789 C44.5257,37.6779 44.4207,37.7809 44.2987,37.8649 C44.0657,38.0459 43.8007,38.1839 43.5277,38.2949 C42.9767,38.5079 42.3737,38.5719 41.7917,38.4729 C41.2117,38.3789 40.6537,38.1189 40.2067,37.7369 C39.9557,37.5149 39.8677,37.4109 39.7097,37.2569 L39.2797,36.8269 L37.5577,35.1049 C37.2717,34.7969 37.0057,34.6119 36.6067,34.0739 C36.2737,33.5879 36.0707,33.0089 36.0387,32.4229 C35.9987,31.8349 36.1247,31.2389 36.3937,30.7129 C36.5327,30.4529 36.6967,30.2029 36.8997,29.9909 L37.3527,29.5249 L40.7677,26.0529 L47.6027,19.1159 C48.7367,17.9549 49.8977,16.8209 51.0557,15.6819 L52.7907,13.9749 C53.3727,13.4079 53.8967,12.7859 54.8457,12.5869 C55.2557,12.5009 55.6577,12.7629 55.7437,13.1729 C55.7657,13.2779 55.7637,13.3859 55.7437,13.4849 C55.5447,14.4329 54.9217,14.9579 54.3557,15.5399 L52.6477,17.2749 C51.5097,18.4319 50.3747,19.5929 49.2147,20.7279 L42.2777,27.5629 L38.8057,30.9779 C38.6757,31.1079 38.4837,31.2889 38.4047,31.3779 C38.3247,31.4569 38.2687,31.5539 38.2127,31.6489 C38.1157,31.8459 38.0637,32.0699 38.0807,32.2939 C38.0917,32.5169 38.1707,32.7329 38.2937,32.9149 C38.3687,33.0389 38.7327,33.3799 39.0047,33.6579 L40.7267,35.3799 L41.1567,35.8099 C41.2887,35.9409 41.4777,36.1339 41.5337,36.1779 C41.7027,36.3219 41.9087,36.4179 42.1287,36.4539 C42.3487,36.4929 42.5787,36.4669 42.7847,36.3869 C42.8857,36.3429 42.9867,36.2969 43.0727,36.2259 C43.1207,36.1969 43.1577,36.1529 43.2017,36.1179 L43.4107,35.9109 L45.1317,34.1889 L72.6767,6.6449 C73.0757,6.2449 73.7237,6.2449 74.1237,6.6449 C74.5227,7.0439 74.5227,7.6919 74.1237,8.0919" id="Fill-38" fill="#717791"></path>
                <path d="M44.2008,32.1588 C44.2008,33.1948 43.3618,34.0338 42.3258,34.0338 C41.2898,34.0338 40.4508,33.1948 40.4508,32.1588 C40.4508,31.1228 41.2898,30.2838 42.3258,30.2838 C43.3618,30.2838 44.2008,31.1228 44.2008,32.1588" id="Fill-40" fill="#FFFFFF"></path>
                <path d="M42.3253,31.3839 C41.8983,31.3839 41.5503,31.7319 41.5503,32.1589 C41.5503,32.5869 41.8983,32.9339 42.3253,32.9339 C42.7533,32.9339 43.1003,32.5869 43.1003,32.1589 C43.1003,31.7319 42.7533,31.3839 42.3253,31.3839 M42.3253,35.1339 C40.6843,35.1339 39.3503,33.7999 39.3503,32.1589 C39.3503,30.5179 40.6843,29.1839 42.3253,29.1839 C43.9663,29.1839 45.3013,30.5179 45.3013,32.1589 C45.3013,33.7999 43.9663,35.1339 42.3253,35.1339" id="Fill-42" fill="#717791"></path>
                <polyline id="Fill-44" fill="#FFFFFF" points="67.6871 1.1002 88.3271 4.3462 94.5861 9.8072 73.2441 7.5922"></polyline>
                <path d="M94.5865,10.9069 C94.5485,10.9069 94.5105,10.9049 94.4725,10.9009 L73.1305,8.6869 C72.5255,8.6239 72.0865,8.0829 72.1495,7.4789 C72.2125,6.8749 72.7575,6.4419 73.3575,6.4979 L91.2485,8.3549 L87.8425,5.3839 L67.5165,2.1869 C66.9165,2.0929 66.5055,1.5299 66.6005,0.9289 C66.6945,0.3289 67.2565,-0.0821 67.8575,0.0139 L88.4985,3.2599 C88.7025,3.2909 88.8945,3.3809 89.0505,3.5169 L95.3095,8.9779 C95.6705,9.2929 95.7855,9.8059 95.5945,10.2459 C95.4185,10.6499 95.0205,10.9069 94.5865,10.9069" id="Fill-46" fill="#717791"></path>
                <path d="M22.7325,45.8205 L25.6795,73.7255" id="Fill-48" fill="#FFFFFF"></path>
                <path d="M23.1915,45.7721 C23.5595,48.0841 23.9155,50.3981 24.2325,52.7161 C24.5585,55.0331 24.8875,57.3501 25.1725,59.6701 C25.4595,61.9921 25.7915,64.3081 26.0395,66.6331 C26.3025,68.9571 26.5155,71.2861 26.5935,73.6281 C26.6115,74.1381 26.2125,74.5641 25.7035,74.5821 C25.2385,74.5971 24.8425,74.2671 24.7645,73.8221 C24.3525,71.5141 24.0735,69.1921 23.8455,66.8651 C23.6025,64.5391 23.4435,62.2051 23.2385,59.8751 C23.0335,57.5451 22.8715,55.2111 22.7055,52.8771 C22.5315,50.5441 22.3965,48.2071 22.2735,45.8691 C22.2595,45.6141 22.4555,45.3961 22.7115,45.3831 C22.9485,45.3701 23.1545,45.5421 23.1915,45.7721" id="Fill-50" fill="#717791"></path>
                <path d="M13.4908,45.8205 L16.4368,73.7255" id="Fill-52" fill="#FFFFFF"></path>
                <path d="M14.3048,45.7345 C14.7158,48.0425 15.0478,50.3585 15.3028,52.6835 C15.5828,55.0055 15.7898,57.3345 16.0058,59.6625 C16.4578,64.3175 16.8158,68.9825 17.0958,73.6555 C17.1168,74.0215 16.8388,74.3345 16.4738,74.3565 C16.1298,74.3775 15.8308,74.1285 15.7798,73.7955 C15.0758,69.1665 14.4518,64.5295 13.9228,59.8825 C13.6478,57.5605 13.3638,55.2395 13.1518,52.9105 C12.9158,50.5835 12.7568,48.2495 12.6768,45.9065 C12.6608,45.4535 13.0158,45.0735 13.4688,45.0585 C13.8818,45.0445 14.2348,45.3385 14.3048,45.7345" id="Fill-54" fill="#717791"></path>
                <path d="M33.757,56.8966 L35.055,73.7256" id="Fill-56" fill="#FFFFFF"></path>
                <path d="M34.3087,56.8542 C34.8977,58.2192 34.9477,59.6262 35.1277,61.0232 C35.2937,62.4212 35.4377,63.8202 35.5627,65.2222 C35.6847,66.6232 35.7737,68.0272 35.8417,69.4322 C35.9247,70.8372 35.9507,72.2462 35.5977,73.6842 C35.5227,73.9912 35.2117,74.1792 34.9047,74.1042 C34.7217,74.0592 34.5797,73.9282 34.5117,73.7672 C33.9427,72.4002 33.7517,71.0042 33.6187,69.6042 C33.4707,68.2052 33.3437,66.8042 33.2487,65.4002 C33.1577,63.9972 33.0857,62.5912 33.0347,61.1852 C32.9977,59.7762 32.8317,58.3782 33.2047,56.9392 C33.2867,56.6262 33.6057,56.4382 33.9177,56.5202 C34.0987,56.5662 34.2387,56.6952 34.3087,56.8542" id="Fill-58" fill="#717791"></path>
                <path d="M32.9117,45.943 L33.2677,50.553" id="Fill-60" fill="#FFFFFF"></path>
                <path d="M33.4635,45.9001 C33.9745,46.2471 33.9455,46.6361 34.0465,47.0151 C34.1345,47.3951 34.1995,47.7761 34.2465,48.1591 C34.2895,48.5421 34.3005,48.9281 34.2905,49.3151 C34.3035,49.7001 34.2355,50.0921 33.8105,50.5121 C33.5125,50.8051 33.0525,50.8321 32.7245,50.5951 C32.2395,50.2461 32.1125,49.8701 32.0675,49.4861 C31.9975,49.1061 31.9485,48.7231 31.9325,48.3381 C31.9205,47.9521 31.9265,47.5651 31.9545,47.1761 C31.9965,46.7861 31.9085,46.4071 32.3595,45.9851 C32.6685,45.6971 33.1285,45.6721 33.4635,45.9001" id="Fill-62" fill="#717791"></path>
                <path d="M62.6344,66.444 L61.8654,73.725" id="Fill-64" fill="#FFFFFF"></path>
                <path d="M63.4591,66.5309 C63.6031,67.7729 63.5011,68.9889 63.3331,70.1989 C63.1531,71.4069 62.9181,72.6099 62.4901,73.7909 C62.3681,74.1269 61.9971,74.3009 61.6611,74.1789 C61.4281,74.0939 61.2731,73.8889 61.2411,73.6589 C61.0681,72.4139 61.0901,71.1889 61.1671,69.9699 C61.2551,68.7529 61.4101,67.5419 61.8101,66.3569 C61.9601,65.9119 62.4421,65.6739 62.8871,65.8229 C63.2081,65.9319 63.4221,66.2149 63.4591,66.5309" id="Fill-66" fill="#717791"></path>
                <path d="M64.8121,45.8205 L63.2241,60.8575" id="Fill-68" fill="#FFFFFF"></path>
                <path d="M65.4366,45.8864 C65.4376,47.1534 65.4146,48.4184 65.3336,49.6774 C65.2676,50.9364 65.1976,52.1964 65.0836,53.4514 C64.8346,55.9594 64.7186,58.4814 63.8176,60.9204 C63.6996,61.2394 63.3456,61.4024 63.0266,61.2844 C62.8076,61.2034 62.6626,61.0114 62.6306,60.7954 C62.2596,58.2214 62.6716,55.7314 62.9526,53.2264 C63.1036,51.9754 63.2986,50.7284 63.4966,49.4824 C63.6806,48.2354 63.9226,46.9934 64.1876,45.7544 C64.2606,45.4134 64.5966,45.1964 64.9376,45.2694 C65.2336,45.3324 65.4366,45.5944 65.4366,45.8864" id="Fill-70" fill="#717791"></path>
                <path d="M74.7238,45.6877 L71.7768,73.5927" id="Fill-72" fill="#FFFFFF"></path>
                <path d="M75.1613,45.734 C75.3443,48.105 75.2393,50.445 75.0593,52.777 C74.8533,55.107 74.6193,57.434 74.3633,59.758 C74.1213,62.084 73.8163,64.403 73.5243,66.723 C73.2443,69.045 72.8933,71.359 72.5233,73.671 C72.4573,74.081 72.0723,74.36 71.6623,74.295 C71.2813,74.234 71.0133,73.891 71.0313,73.514 C71.1523,71.175 71.2913,68.839 71.5023,66.51 C71.7033,64.18 71.8883,61.848 72.1373,59.523 C72.3723,57.196 72.6303,54.872 72.9143,52.551 C73.2253,50.233 73.6123,47.922 74.2863,45.642 C74.3563,45.404 74.6053,45.269 74.8423,45.339 C75.0253,45.393 75.1473,45.555 75.1613,45.734" id="Fill-74" fill="#717791"></path>
                <path d="M54.6329,45.943 L52.4899,73.725" id="Fill-76" fill="#FFFFFF"></path>
                <path d="M55.1271,45.9811 C55.1831,48.3141 55.1141,50.6381 55.0461,52.9611 C54.9581,55.2841 54.8321,57.6031 54.6641,59.9191 C54.4981,62.2351 54.3271,64.5511 54.0841,66.8611 C53.8631,69.1731 53.6161,71.4831 53.2891,73.7871 C53.2271,74.2261 52.8201,74.5321 52.3811,74.4691 C51.9761,74.4121 51.6851,74.0621 51.6901,73.6641 C51.7211,71.3371 51.8311,69.0171 51.9671,66.6981 C52.0811,64.3781 52.2681,62.0631 52.4581,59.7491 C52.6481,57.4351 52.8781,55.1231 53.1481,52.8151 C53.4381,50.5081 53.7251,48.2021 54.1381,45.9041 C54.1871,45.6341 54.4461,45.4541 54.7171,45.5021 C54.9541,45.5451 55.1221,45.7491 55.1271,45.9811" id="Fill-78" fill="#717791"></path>
                <path d="M43.2252,46.0651 L44.1622,73.7251" id="Fill-80" fill="#FFFFFF"></path>
                <path d="M43.7594,46.047 C44.1824,48.34 44.3724,50.642 44.4994,52.945 L44.8444,59.856 C44.9744,62.159 45.0204,64.465 45.0824,66.771 L45.1504,70.231 C45.1744,71.383 45.1434,72.538 44.8034,73.704 C44.6994,74.062 44.3244,74.267 43.9664,74.163 C43.7544,74.101 43.5934,73.94 43.5214,73.747 C43.1034,72.608 42.9954,71.457 42.9404,70.305 L42.7744,66.849 C42.6804,64.545 42.5704,62.241 42.5434,59.934 L42.4204,53.015 C42.3894,50.709 42.4244,48.4 42.6904,46.083 C42.7244,45.787 42.9934,45.574 43.2894,45.608 C43.5314,45.636 43.7174,45.819 43.7594,46.047" id="Fill-82" fill="#717791"></path>
            </g>
        </g>
    </g>
</svg>