<?xml version="1.0" encoding="UTF-8"?>
<svg width="73px" height="84px" viewBox="0 0 73 84" version="1.1" xmlns="http://www.w3.org/2000/svg" xmlns:xlink="http://www.w3.org/1999/xlink">
    <!-- Generator: Sketch 52.6 (67491) - http://www.bohemiancoding.com/sketch -->
    <title>Group 19</title>
    <desc>Created with Sketch.</desc>
    <defs>
        <polygon id="path-1" points="0.0726780077 0.0902956923 30.7376087 0.0902956923 30.7376087 58.4202359 0.0726780077 58.4202359"></polygon>
        <polygon id="path-3" points="0.700886674 0.775173913 44.0747953 0.775173913 44.0747953 24.5658003 0.700886674 24.5658003"></polygon>
    </defs>
    <g id="Page-2" stroke="none" stroke-width="1" fill="none" fill-rule="evenodd">
        <g id="Index-page" transform="translate(-683.000000, -2611.000000)">
            <g id="Group-19" transform="translate(683.000000, 2611.000000)">
                <path d="M71.4904826,76.8429261 C71.3900478,77.4820565 71.1252652,78.1029261 70.6504826,78.6781435 C69.9657,79.509013 68.9522217,79.7829261 67.8657,79.7464043 C65.8031348,79.6916217 63.4557,78.5137957 62.5152652,77.7559696 C56.6727,81.9742304 31.4626565,83.161187 18.5248304,79.2898826 C17.5935261,79.0068391 14.6900478,78.6872739 13.8957,78.9337957 C13.6583087,78.9977087 13.4665696,77.6920565 13.2657,77.8472739 C7.75091739,82.1568391 -0.347778261,77.9933609 8.15265652,69.7668391 C7.9883087,69.009013 7.85135217,68.251187 7.74178696,67.4842304 C5.81526522,54.1446652 12.1152652,39.819013 23.199613,32.0124913 C24.5509174,31.0720565 25.9661348,30.2685783 27.4726565,29.611187 C28.6961348,29.0816217 30.0930913,28.5703174 31.4261348,28.269013 C30.9604826,27.6024913 30.339613,25.2833609 30.0383087,24.5255348 C26.8426565,16.4451 22.0309174,13.021187 20.8165696,9.47857826 C20.4878739,8.4924913 20.7343957,7.52466522 21.4100478,6.70292609 C23.1722217,4.53901304 26.8152652,2.7951 31.7365696,4.94075217 C35.0326565,6.37423043 37.5252652,7.66162174 40.4835261,8.26423043 C43.6426565,8.92162174 47.3313522,8.81205652 53.0743957,7.31466522 C55.2748304,6.73944783 57.2470043,6.51118696 57.2470043,6.51118696 C57.2470043,6.51118696 50.2165696,14.281187 47.5870043,23.5303174 C47.5139609,23.7677087 47.4226565,23.9959696 47.3505261,24.2242304 C50.9470043,24.6168391 54.0422217,27.1277087 56.5348304,30.0494478 C65.1183522,40.1020565 69.2078739,53.0307522 69.061787,66.3703174 C69.061787,66.7720565 69.0526565,67.1737957 69.0435261,67.5755348 C69.0252652,67.8951 68.559613,70.6707522 68.6783087,70.7985783 C70.4222217,72.6155348 71.791787,74.8251 71.4904826,76.8429261" id="Fill-1" fill="#B8D4FF"></path>
                <path d="M70.6505739,78.6784174 C69.9657913,79.509287 68.952313,79.7832 67.8657913,79.7466783 C65.802313,79.6918957 63.4557913,78.5140696 62.5153565,77.7562435 C56.6718783,81.9745043 31.4627478,83.1614609 18.5249217,79.2901565 C17.5936174,79.007113 14.6901391,78.6875478 13.8957913,78.9340696 C13.6584,78.9979826 13.4666609,77.6923304 13.2657913,77.8475478 C7.7510087,82.157113 -0.347686957,77.9936348 8.15274783,69.767113 C7.9884,69.009287 7.85144348,68.2514609 7.74187826,67.4845043 C8.5910087,68.4523304 9.05666087,69.7762435 10.6179652,71.7027652 C13.0557913,74.6884174 34.6218783,82.7597217 51.6592696,72.4697217 C59.6849217,67.6214609 65.3366609,66.3432 69.0618783,66.3705913 C69.0618783,66.7723304 69.0527478,67.1740696 69.0436174,67.5758087 C69.0253565,67.8953739 68.5597043,70.6710261 68.6784,70.7988522 C70.9792696,73.1910261 72.6227478,76.277113 70.6505739,78.6784174" id="Fill-3" fill="#96C0FF"></path>
                <g id="Group-7" transform="translate(42.000000, 22.964230)">
                    <mask id="mask-2" fill="white">
                        <use xlink:href="#path-1"></use>
                    </mask>
                    <g id="Clip-6"></g>
                    <path d="M18.4519696,52.9116913 C19.384187,53.1043435 19.8014478,53.6539957 20.4533609,54.0858652 C21.0742304,54.5241261 21.759013,54.8975609 22.4638826,55.1997783 C23.164187,55.5156913 23.899187,55.7421261 24.6159261,55.8836478 C25.327187,56.0315609 26.0539696,56.0909087 26.6410565,55.9566913 C26.9286652,55.888213 27.1897957,55.7941696 27.3952304,55.657213 C27.5961,55.5138652 27.765013,55.3668652 27.9439696,55.109387 C28.2781435,54.6336913 28.4050565,54.0749087 28.3676217,53.4631696 C28.3219696,52.8486913 28.0882304,52.1876478 27.7412739,51.5503435 C27.385187,50.8947783 26.9469261,50.3341696 26.4009261,49.670387 C26.2603174,49.4969087 26.1206217,49.3353 25.9754478,49.1316913 L25.7608826,48.8395174 L25.5408391,48.4770391 C25.4687087,48.3693 25.3965783,48.2049522 25.3335783,48.032387 C25.2651,47.8735174 25.2167087,47.6899957 25.1957087,47.4809087 C25.1601,47.2718217 25.1683174,47.0956043 25.1856652,46.9248652 C25.1975348,46.7340391 25.2267522,46.6071261 25.2541435,46.4820391 L25.5417522,45.2457783 C25.6193609,44.8705174 25.6723174,44.4861261 25.7197957,44.0989957 C25.8905348,42.5386043 25.8567522,40.8933 25.7398826,39.2525609 C25.5234913,35.9537348 25.0267957,32.6749957 24.2333609,29.4711261 C22.6784478,23.0579087 19.8799696,16.9432565 15.9621,11.6521696 C13.9899261,9.02443043 11.8753174,6.42225652 9.32062174,4.61443043 C8.0514913,3.69682174 6.67188261,2.98282174 5.21375217,2.62856087 C4.48696957,2.46238696 3.74557826,2.35464783 2.99962174,2.38295217 C2.24818696,2.38934348 1.53875217,2.49160435 0.646708696,2.22225652 L0.570926087,2.19943043 C0.201143478,2.08803913 -0.00885652174,1.69816957 0.102534783,1.32838696 C0.140882609,1.20147391 0.213926087,1.0919087 0.305230435,1.00882174 C1.04753478,0.343213043 1.99983913,0.0994304348 2.93753478,0.103082609 C3.87796957,0.0510391304 4.82205652,0.162430435 5.73783913,0.354169565 C7.57031739,0.763213043 9.25853478,1.5876913 10.7257957,2.6313 C12.204013,3.67125652 13.4795348,4.91208261 14.6546217,6.20951739 C15.795013,7.51151739 16.8833609,8.84821304 17.8831435,10.255213 C19.9000565,13.0536913 21.6412304,16.0484739 23.0537087,19.1902565 C24.4935783,22.3192565 25.6321435,25.583387 26.4447522,28.9260391 C27.2710565,32.2668652 27.7878391,35.6770826 28.0124478,39.1037348 C28.1320565,40.8220826 28.1767957,42.5632565 27.9823174,44.3555609 C27.9284478,44.8047783 27.8654478,45.2539957 27.7714043,45.7041261 C27.6846652,46.142387 27.553187,46.6189957 27.4874478,46.9303435 C27.4427087,47.2791261 27.4354043,47.1120391 27.5431435,47.3631261 L27.6517957,47.5402565 L27.8152304,47.7548217 C27.9147522,47.8945174 28.0517087,48.0515609 28.1777087,48.2031261 C29.2815783,49.5005609 30.5032304,51.1321696 30.7187087,53.2769087 C30.8127522,54.3387783 30.558013,55.5184304 29.9243609,56.4351261 C29.6404043,56.8779522 29.191187,57.3335609 28.7017957,57.6576913 C28.1996217,57.986387 27.658187,58.1763 27.1267957,58.2949957 C26.0567087,58.5196043 25.0651435,58.4091261 24.1356652,58.2219522 C23.2016217,58.028387 22.3296652,57.7060826 21.5042739,57.3107348 C20.6734043,56.9217783 19.8836217,56.4588652 19.1440565,55.9028217 C18.4364478,55.3467783 17.5581,54.7870826 17.4814043,53.6238652 C17.4549261,53.2349087 17.7489261,52.8989087 18.1378826,52.8733435 C18.2017957,52.8687783 18.2638826,52.8733435 18.3232304,52.885213 L18.4519696,52.9116913 Z" id="Fill-5" fill="#717791" mask="url(#mask-2)"></path>
                </g>
                <path d="M12.7284652,77.5736348 C13.4881174,77.1910696 13.9464652,77.5708957 14.4422478,77.7644609 L15.8684217,78.3990261 C16.0975957,78.4930696 16.3057696,78.5798087 16.4555087,78.6072 L17.2060304,78.7797652 L18.6988565,79.1532 C19.7032043,79.3768957 20.7267261,79.5549391 21.7374652,79.7695043 C22.760987,79.9429826 23.7927261,80.0826783 24.820813,80.2369826 C28.955987,80.7519391 33.1459435,80.9400261 37.3295087,80.9482435 C41.5130739,80.9546348 45.7039435,80.7391565 49.8372913,80.2105043 L51.3849,80.0114609 L52.9197261,79.7585478 C53.9487261,79.6152 54.9494217,79.3842 55.9555957,79.1723739 C56.4641609,79.0774174 56.950813,78.9450261 57.4420304,78.8172 C57.9241174,78.6775043 58.441813,78.5880261 58.8965087,78.4099826 L60.2889,77.9105478 C60.6915522,77.6758957 61.0905522,77.5106348 61.7862913,77.6676783 L61.9479,77.7042 C62.3615087,77.7973304 62.6226391,78.2082 62.5285957,78.6218087 C62.5222043,78.6492 62.513987,78.6765913 62.5057696,78.7021565 C62.2775087,79.3686783 61.7525087,79.7183739 61.2284217,79.9886348 L59.657987,80.6158957 C59.1339,80.8368522 58.6070739,80.9473304 58.0811609,81.1180696 C57.5534217,81.2696348 57.0284217,81.4476783 56.4970304,81.5417217 C55.4342478,81.7617652 54.3732913,81.9991565 53.3095957,82.1443304 C52.2477261,82.3242 51.1822043,82.4638957 50.1166826,82.5679826 C45.8564217,83.0226783 41.5925087,83.2098522 37.3285957,83.2244609 C33.0628565,83.2244609 28.7989435,83.0080696 24.5423348,82.5150261 L21.3521609,82.0831565 C20.2921174,81.8877652 19.2275087,81.7279826 18.1729435,81.4823739 L16.5915522,81.086113 L15.8054217,80.874287 C15.4447696,80.7683739 15.1699435,80.6305043 14.9161174,80.5127217 L13.4799,79.7868522 C13.0224652,79.5275478 12.5202913,79.4636348 12.2965957,78.6975913 L12.2737696,78.6208957 C12.1505087,78.2008957 12.3513783,77.7635478 12.7284652,77.5736348" id="Fill-8" fill="#717791"></path>
                <path d="M7.91718261,68.7642261 C7.25522609,69.6498783 6.62522609,70.2999652 5.91122609,70.9747043 C5.2520087,71.6430522 4.55992174,72.2557043 3.95548696,72.9249652 C3.35653043,73.591487 2.86348696,74.3301391 2.55487826,75.0678783 C2.25813913,75.8065304 2.17870435,76.5387913 2.41792174,77.100313 C2.62609565,77.6755304 3.16570435,78.1448348 3.86783478,78.4388348 C4.5800087,78.7145739 5.41361739,78.8077043 6.23444348,78.7045304 C7.06074783,78.6342261 7.86787826,78.3886174 8.65857391,78.0891391 C9.05666087,77.9366609 9.44653043,77.7586174 9.85466087,77.581487 C10.3559217,77.3422696 10.6636174,77.2902261 11.095487,77.0802261 L11.1320087,77.0619652 C11.4196174,76.9222696 11.7656609,77.0418783 11.9053565,77.329487 C11.9674435,77.455487 11.9784,77.5924435 11.9482696,77.7193565 C11.8040087,78.3155739 11.2927043,78.841487 10.9914,79.1637913 C10.5987913,79.5545739 10.1495739,79.8987913 9.6537913,80.1580957 C8.6750087,80.7095739 7.55926957,81.0200087 6.42161739,81.088487 C5.28487826,81.1496609 4.11618261,81.0054 2.99861739,80.5434 C2.44257391,80.3069217 1.90022609,79.9882696 1.41905217,79.557313 C0.939704348,79.1227043 0.542530435,78.5566174 0.296008696,77.9293565 C-0.221686957,76.6474435 0.0129652174,75.2742261 0.443008696,74.2160087 C0.88766087,73.1322261 1.54231304,72.2429217 2.2197913,71.4184435 C2.90548696,70.5994435 3.67518261,69.8900087 4.51153043,69.2819217 C5.34331304,68.7395739 6.26731304,68.1853565 7.14109565,67.8429652 L7.19861739,67.8210522 C7.51544348,67.6968783 7.87335652,67.8530087 7.99753043,68.1707478 C8.07787826,68.3761826 8.03953043,68.5989652 7.91718261,68.7642261" id="Fill-10" fill="#717791"></path>
                <path d="M32.0022652,25.3790478 C31.4580913,26.076613 30.8737435,25.9880478 30.2903087,26.0903087 L28.5710478,26.452787 L26.8855696,26.937613 L25.2320478,27.5164826 C23.0608304,28.3783957 20.9900478,29.5279174 19.1320043,30.9796565 C15.3967435,33.8730913 12.4567435,37.7599174 10.2718304,42.0000913 C8.0787,46.2493957 6.64065652,50.9022652 5.9850913,55.6455261 C5.6573087,58.017613 5.50117826,60.4107 5.55504783,62.7955696 C5.5797,63.9880043 5.63448261,65.1777 5.75043913,66.3637435 C5.81252609,66.9553957 5.9010913,67.5424826 5.97504783,68.1341348 C6.08917826,68.7175696 6.16404783,69.3000913 5.81983043,69.9940043 L5.79974348,70.0350913 C5.60983043,70.4194826 5.14326522,70.575613 4.75978696,70.3857 C4.69861304,70.3546565 4.63926522,70.3153957 4.59087391,70.2715696 C4.0110913,69.7602652 3.83213478,69.1384826 3.72622174,68.5148739 C3.62943913,67.8885261 3.51713478,67.2630913 3.43222174,66.6349174 C3.27700435,65.3767435 3.16287391,64.1140043 3.12635217,62.8494391 C3.0743087,60.3184826 3.24778696,57.7902652 3.63583043,55.2985696 C4.41739565,50.3179174 5.95039565,45.4587 8.24578696,40.9592217 C10.5503087,36.4734391 13.6911783,32.3419174 17.7204391,29.1690913 C19.734613,27.5968304 21.9487435,26.2318304 24.3564391,25.2950478 L26.181613,24.6559174 C26.8061348,24.4924826 27.4315696,24.3363522 28.0588304,24.1911783 L29.9625261,23.8743522 C30.6007435,23.8405696 31.2380478,23.6168739 31.914613,24.1783957 C32.2615696,24.4660043 32.3163522,24.9773087 32.040613,25.3306565 L32.0022652,25.3790478 Z" id="Fill-12" fill="#717791"></path>
                <g id="Group-16" transform="translate(13.695652, 0.138143)">
                    <mask id="mask-4" fill="white">
                        <use xlink:href="#path-3"></use>
                    </mask>
                    <g id="Clip-15"></g>
                    <path d="M12.2283,22.6547087 C10.064387,20.9482304 8.51860435,18.8208391 6.85138696,16.7409261 C5.2289087,14.6281435 3.62651739,12.4888826 2.19303913,10.1012739 C1.83056087,9.50779565 1.50186522,8.86866522 1.19873478,8.20579565 L0.9933,7.68262174 C0.922995652,7.52923043 0.860908696,7.30644783 0.810691304,7.06540435 C0.671908696,6.60796957 0.688343478,6.12314348 0.732169565,5.64014348 C0.905647826,4.70153478 1.37312609,3.87888261 1.95838696,3.2927087 C2.24051739,2.98044783 2.56647391,2.7531 2.87782174,2.49653478 C3.21016957,2.29840435 3.53521304,2.0664913 3.87943043,1.90579565 C6.6359087,0.563621739 9.67543043,0.540795652 12.4574739,1.18996957 L13.4983435,1.46479565 L14.5063435,1.83001304 C15.1929522,2.07105652 15.7681696,2.35866522 16.3999957,2.62344783 L20.0348217,4.27423043 C22.4297348,5.33975217 24.8319522,6.2454913 27.3309522,6.6444913 C29.8226478,7.08640435 32.3864739,7.01244783 34.9229087,6.63262174 C36.2066478,6.45366522 37.4255609,6.16057826 38.7403435,5.85653478 C40.0889087,5.54518696 41.4100826,5.30596957 42.803387,5.13614348 C43.4242565,5.05944783 43.9903435,5.50136087 44.0661261,6.12314348 C44.1081261,6.46279565 43.9949087,6.7851 43.7830826,7.02066522 L43.7575174,7.04714348 C42.6929087,8.21675217 41.6474739,9.52057826 40.6769087,10.8289696 C39.7036043,12.1464913 38.7914739,13.5078391 37.9423435,14.9038826 C37.0840826,16.2944478 36.3271696,17.7407087 35.6350826,19.2088826 C34.9366043,20.6770565 34.3860391,22.198187 33.8975609,23.7302739 L33.8847783,23.7722739 C33.6939522,24.3712304 33.0539087,24.7026652 32.4540391,24.5118391 C31.8559957,24.321013 31.5245609,23.6818826 31.7144739,23.0838391 C32.2376478,21.4312304 32.8311261,19.8032739 33.5688652,18.2511 C34.3011261,16.6971 35.098213,15.1768826 35.9948217,13.7233174 C36.883213,12.2633609 37.8336913,10.8454043 38.8462565,9.47401304 C39.8679522,8.09896957 40.9143,6.78875217 42.1003435,5.48675217 L43.055387,7.39866522 C41.8063435,7.55114348 40.5052565,7.78396957 39.2607783,8.07340435 C37.9843435,8.36831739 36.6129522,8.69792609 35.2589087,8.88418696 C32.5398652,9.29323043 29.7139957,9.37814348 26.9556913,8.89057826 C24.1873435,8.44683913 21.5678217,7.44979565 19.1089957,6.35414348 L15.4741696,4.70336087 C14.8797783,4.4541 14.2589087,4.14914348 13.6882565,3.95557826 L12.8199522,3.63966522 L11.9306478,3.40501304 C10.738213,3.13292609 9.51382174,2.99596957 8.3076913,3.07175217 C7.10977826,3.15757826 5.92282174,3.43240435 4.90660435,3.93731739 C3.87760435,4.41757826 3.10973478,5.25118696 2.98373478,5.98162174 C2.84677826,6.55775217 3.54616957,7.86614348 4.18986522,8.88783913 C4.85638696,9.96523043 5.65347391,11.0006217 6.45238696,12.0414913 L8.88016957,15.1814478 C10.4615609,17.3170565 12.1415609,19.4225348 13.0874739,22.0365783 C13.1915609,22.3223609 13.0445609,22.6373609 12.7578652,22.7414478 C12.5725174,22.8081 12.3725609,22.7679261 12.2283,22.6547087" id="Fill-14" fill="#717791" mask="url(#mask-4)"></path>
                </g>
                <path d="M40.2258652,54.7444435 C40.1016913,54.6330522 40.0459957,54.5846609 40.0587783,54.5974435 C39.9501261,55.4045739 39.821387,56.4098348 39.7656913,57.2187913 C40.6239522,56.3614435 42.3559957,56.646313 40.2258652,54.7444435 Z M36.8704304,46.2047478 C36.0304304,46.4120087 34.6672565,46.8064435 34.0737783,47.4373565 C34.2536478,47.7085304 36.4257783,48.9046174 36.6166043,48.9046174 L36.8704304,46.2047478 Z M46.7011696,44.6498348 C46.1798217,45.5756609 44.2030826,45.4998783 41.018387,45.4998783 C40.7791696,47.7815739 40.4313,50.0121391 40.4313,50.997313 C42.4920391,52.5577043 43.9757348,52.5987913 44.5591696,53.8149652 C45.1983,54.9498783 45.6931696,57.3877043 43.4635174,59.1845739 C42.3368217,60.0967043 40.831213,60.7422261 39.4525174,61.1704435 C39.2845174,63.4932261 38.9266043,66.726313 39.023387,67.4311826 C39.3018652,69.477313 39.527387,69.7557913 39.1694739,70.2086609 C38.3285609,71.2696174 36.0979957,71.2614 35.4616043,70.3063565 C34.4234739,68.9760522 35.3447348,66.0607043 35.3447348,62.8723565 C30.6133435,63.9095739 28.1216478,64.7148783 26.7274304,63.1462696 C26.0106913,62.3455304 26.6069087,60.3715304 29.1433435,59.8017913 C31.4825609,59.2749652 35.6579087,59.3498348 35.6579087,58.471487 C36.0979957,54.9151826 36.2449957,53.9784 36.2449957,52.6800522 C33.8939087,51.5122696 29.3588217,50.6731826 29.3588217,46.8895304 C29.3588217,45.0515739 33.4994739,43.0063565 37.2027783,42.4685739 C37.2630391,41.8641391 37.2420391,41.0579217 37.2420391,37.4011826 C37.2420391,36.0069652 39.989387,34.8957913 41.2429957,36.276313 C42.4865609,37.6449652 41.272213,40.8908348 41.272213,41.8230522 C41.6703,41.8230522 42.2911696,41.8294435 42.6618652,41.8029652 C43.8095609,41.7244435 43.8259957,41.4706174 44.9116043,41.4706174 C47.2444304,41.4706174 47.150387,43.8481826 46.7011696,44.6498348 Z" id="Fill-17" fill="#FFFFFF"></path>
            </g>
        </g>
    </g>
</svg>