<?xml version="1.0" encoding="UTF-8"?>
<svg width="79px" height="82px" viewBox="0 0 79 82" version="1.1" xmlns="http://www.w3.org/2000/svg" xmlns:xlink="http://www.w3.org/1999/xlink">
    <!-- Generator: Sketch 52.6 (67491) - http://www.bohemiancoding.com/sketch -->
    <title>Group 17</title>
    <desc>Created with Sketch.</desc>
    <defs>
        <polygon id="path-1" points="0.630910785 0.306580315 76.496 0.306580315 76.496 76.1344049 0.630910785 76.1344049"></polygon>
        <polygon id="path-3" points="0 1.008 78.0279731 1.008 78.0279731 82.7824432 0 82.7824432"></polygon>
    </defs>
    <g id="Page-2" stroke="none" stroke-width="1" fill="none" fill-rule="evenodd">
        <g id="Index-page" transform="translate(-1160.000000, -1819.000000)">
            <g id="Group-17" transform="translate(1160.000000, 1818.000000)">
                <g id="Group-3" transform="translate(2.434783, 3.861322)">
                    <mask id="mask-2" fill="white">
                        <use xlink:href="#path-1"></use>
                    </mask>
                    <g id="Clip-2"></g>
                    <path d="M54.4843478,71.4287304 C53.8245217,71.3885565 53.1573913,71.3982957 52.506087,71.3009043 C48.9902609,70.7725565 45.9041739,71.7683826 43.042087,73.7831652 C38.590087,76.915513 38.5462609,76.9264696 34.0516522,73.7661217 C31.1347826,71.7172522 28.0133913,70.8772522 24.4403478,71.2948174 C19.4173913,71.8803826 19.1653913,71.7184696 17.0471304,67.0473391 C15.5083478,63.6532522 13.1186087,61.2732522 9.72208696,59.7393391 C5.08991304,57.6478609 4.92434783,57.3922087 5.50382609,52.3290783 C5.91652174,48.7000348 5.03026087,45.5518609 2.93147826,42.6082087 C-0.137565217,38.3010783 -0.138782609,38.1671652 2.94486957,33.8429913 C5.04608696,30.8981217 5.91408696,27.7438609 5.49895652,24.1209043 C4.92434783,19.0930783 5.12278261,18.7704696 9.73304348,16.7191652 C13.1429565,15.203513 15.5168696,12.823513 17.052,9.42090435 C19.173913,4.71446957 19.4575652,4.55986087 24.5766957,5.18316522 C28.1046957,5.61290435 31.1725217,4.74246957 34.0358261,2.7069913 C38.5292174,-0.487443478 38.5791304,-0.487443478 43.0238261,2.67046957 C45.926087,4.73151304 49.034087,5.61655652 52.6156522,5.17829565 C57.6641739,4.55986087 58.0245217,4.7789913 60.1050435,9.47203478 C61.5987826,12.8417739 63.9483478,15.1901217 67.3132174,16.687513 C72.0184348,18.7802087 72.2132174,19.0894261 71.6313043,24.1720348 C71.2161739,27.8010783 72.1158261,30.9480348 74.2231304,33.8868174 C77.2471304,38.107513 77.2507826,38.359513 74.2547826,42.5351652 C72.1170435,45.5141217 71.2027826,48.7012522 71.6337391,52.3826435 C72.2132174,57.3362087 71.9733913,57.7026435 67.3582609,59.7588174 C63.9994783,61.2549913 61.550087,63.5582957 60.1464348,66.9645565 C59.913913,67.5318609 59.5986087,68.0638609 59.3636522,68.6287304 C58.4506087,70.8151652 56.9653913,71.9838609 54.4843478,71.4287304" id="Fill-1" fill="#FFFFFF" mask="url(#mask-2)"></path>
                </g>
                <path d="M54.4225043,70.0833913 C53.8661565,70.0493043 53.3037217,70.0578261 52.7546783,69.9750435 C49.7903304,69.5306957 47.1887652,70.3694783 44.7746783,72.0689565 C41.0214609,74.7094783 40.9837217,74.7192174 37.1939826,72.0555652 C34.7348522,70.3268696 32.1028522,69.6195652 29.0885913,69.9701739 C24.8545043,70.4632174 24.6414609,70.328087 22.8555478,66.3886087 C21.5590261,63.5265217 19.5430261,61.5202609 16.6797217,60.2273913 C12.7718957,58.4633913 12.6343304,58.247913 13.121287,53.9785217 C13.4706783,50.918 12.7219826,48.264087 10.953113,45.7818261 C8.36493913,42.1491304 8.36372174,42.0371304 10.9640696,38.3910435 C12.7365913,35.9075652 13.4670261,33.2475652 13.1176348,30.1931304 C12.633113,25.9529565 12.801113,25.6802609 16.6882435,23.9515652 C19.5625043,22.6733043 21.5663304,20.6670435 22.8592,17.7976522 C24.6487652,13.8289565 24.8873739,13.6986957 29.2042435,14.2246087 C32.1795478,14.5861739 34.7665043,13.8533043 37.1805913,12.1355652 C40.969113,9.44147826 41.0105043,9.44269565 44.7588522,12.1051304 C47.2058087,13.8435652 49.8280696,14.5910435 52.8472,14.2197391 C57.1044174,13.6986957 57.4075478,13.8825217 59.1630261,17.8402609 C60.4218087,20.6828696 62.4037217,22.6623478 65.2402435,23.9235652 C69.2089391,25.69 69.3720696,25.9505217 68.8814609,30.2357391 C68.5320696,33.2950435 69.2905043,35.9489565 71.0666783,38.4275652 C73.617113,41.9872174 73.6207652,42.1990435 71.0934609,45.7197391 C69.2917217,48.2324348 68.521113,50.9192174 68.8838957,54.0235652 C69.3708522,58.2004348 69.1699826,58.5096522 65.2792,60.2432174 C62.4475478,61.5044348 60.3816348,63.4461739 59.1983304,66.3204348 C59.001113,66.7964348 58.7357217,67.2456522 58.537287,67.7228696 C57.7666783,69.566 56.5152,70.5508696 54.4225043,70.0833913" id="Fill-4" fill="#D5BEFD"></path>
                <g id="Group-8" transform="translate(0.000000, 0.209148)">
                    <mask id="mask-4" fill="white">
                        <use xlink:href="#path-3"></use>
                    </mask>
                    <g id="Clip-7"></g>
                    <path d="M78.0094609,47.8624696 C77.6868522,49.4791652 77.2352,50.8389913 76.9405913,52.2730783 C76.6447652,53.7108174 76.6240696,55.1607304 76.8164174,56.6849043 C76.9101565,57.5017739 77.0026783,58.3332522 77.0306783,59.2365565 C77.0428522,60.1130783 77.0306783,61.2342957 76.3805913,62.3433391 C75.6976348,63.4158609 74.7712,63.951513 74.0103304,64.3788174 C73.2238957,64.8024696 72.4666783,65.1469913 71.7179826,65.4842087 C68.9118957,66.6857739 66.6207652,68.6189913 65.2804174,71.2339478 C65.1124174,71.5589913 64.9565913,71.8901217 64.8141565,72.2297739 L64.3028522,73.3266435 C63.9632,74.0059478 63.6296348,74.9457739 63.0221565,75.7699478 C62.4426783,76.6002087 61.5259826,77.3951652 60.4193739,77.7469913 C59.3152,78.1122087 58.2110261,78.0318609 57.2614609,77.8309913 L57.4854609,77.8626435 C56.5030261,77.7920348 55.3416348,77.7433391 54.5637217,77.6362087 C53.709113,77.5631652 52.8545043,77.5887304 52.013287,77.7153391 C50.3296348,77.9600348 48.7117217,78.6417739 47.2143304,79.5901217 C46.4912,80.0502957 45.685287,80.6541217 44.861113,81.2056 C44.0198957,81.743687 43.1677217,82.3901217 41.7518957,82.7163826 C41.025113,82.8563826 40.2289391,82.7614261 39.5958957,82.5483826 C38.9872,82.3280348 38.4649391,82.0577739 38.0193739,81.7826435 C37.1099826,81.2323826 36.3223304,80.6687304 35.5261565,80.1148174 C34.0677217,79.0800348 32.4899826,78.3374261 30.8136348,77.9612522 C29.9785043,77.7737739 29.1214609,77.6739478 28.2534609,77.6690783 C27.3708522,77.6581217 26.5600696,77.755513 25.5435478,77.8748174 C24.5465043,77.9624696 23.5774609,78.1146435 22.3150261,77.9770783 C21.7087652,77.9259478 20.9320696,77.6849043 20.3136348,77.2563826 C19.6793739,76.8278609 19.2508522,76.283687 18.9379826,75.8040348 C17.7096348,73.8720348 17.1995478,72.0776 16.2414609,70.6508174 C15.3077217,69.1802087 14.1025043,67.9250783 12.6708522,66.9450783 C11.9562435,66.4532522 11.1880696,66.0283826 10.3821565,65.6643826 C9.50076522,65.2602087 8.60476522,64.8706435 7.65276522,64.3386435 C7.18163478,64.0769043 6.67033043,63.7457739 6.16998261,63.2709913 C5.65746087,62.8132522 5.21798261,62.0609043 5.03902609,61.3816 C4.66893913,59.9767304 4.85033043,58.9662957 4.90389565,57.9485565 L5.05606957,56.4742957 C5.10354783,56.0202087 5.13641739,55.5989913 5.1498087,55.1607304 C5.1765913,54.2939478 5.10963478,53.435687 4.95746087,52.5969043 C4.64946087,50.9181217 3.97867826,49.3148174 3.01328696,47.8442087 C2.5458087,47.1381217 1.9152,46.2981217 1.37224348,45.4593391 C1.09102609,45.0344696 0.807373913,44.5767304 0.545634783,44.0398609 C0.296069565,43.5029913 0.0258086957,42.8565565 0.00267826087,42.0628174 C-0.028973913,41.2897739 0.177982609,40.5447304 0.4312,39.9896 C0.685634783,39.4271652 0.969286957,38.9572522 1.25050435,38.5189913 C1.8032,37.6570783 2.41433043,36.8462957 2.91711304,36.1085565 C3.91172174,34.6525565 4.62998261,33.0614261 4.9538087,31.3802087 C5.1205913,30.5402087 5.19485217,29.6807304 5.18633043,28.8127304 C5.18389565,28.3781217 5.15467826,27.9410783 5.11085217,27.5040348 L4.96233043,26.0504696 C4.88563478,25.0485565 4.7578087,24.0271652 4.99398261,22.7172522 C5.13763478,22.0501217 5.47972174,21.3148174 5.96302609,20.7730783 C6.44876522,20.2082087 6.96128696,19.8989913 7.4458087,19.583687 C8.40754783,19.0224696 9.31085217,18.6292522 10.2007652,18.2299478 C11.0468522,17.8562087 11.8028522,17.4629913 12.5357217,16.979687 C13.9929391,16.0301217 15.2176348,14.7871652 16.1696348,13.3262957 C16.6565913,12.5849043 17.0376348,11.8410783 17.4308522,10.9718609 C17.8447652,10.0819478 18.2306783,9.1896 18.8223304,8.22542609 C19.1315478,7.74577391 19.4894609,7.23325217 20.0470261,6.76333913 C20.6167652,6.2909913 21.3545043,5.99273043 22.0058087,5.87464348 C23.2998957,5.6762087 24.3066783,5.81742609 25.301287,5.90873043 L26.7499826,6.07429565 C27.1845913,6.12177391 27.6204174,6.15464348 28.0538087,6.15951304 C28.9205913,6.17290435 29.7800696,6.09742609 30.6200696,5.9269913 C32.301287,5.58855652 33.8948522,4.84351304 35.3508522,3.83064348 C36.1287652,3.29133913 36.9200696,2.71307826 37.7941565,2.15916522 C38.2482435,1.88403478 38.7023304,1.6016 39.2915478,1.36664348 C39.8418087,1.12438261 40.6112,0.945426087 41.3538087,1.0282087 C42.0976348,1.0976 42.7282435,1.35690435 43.2249391,1.61742609 C43.7472,1.87916522 44.1781565,2.16403478 44.6042435,2.44403478 L46.9745043,4.08994783 C48.4560696,5.06264348 50.0752,5.74681739 51.7746783,6.0402087 C52.6232,6.19116522 53.4912,6.2362087 54.365287,6.19968696 C55.2089391,6.17046957 56.1633739,6.01342609 57.181113,5.9269913 C58.1842435,5.86003478 59.2518957,5.71516522 60.6080696,6.1242087 C61.2764174,6.34333913 61.925287,6.7816 62.3720696,7.2722087 C62.7957217,7.75551304 63.1280696,8.25342609 63.3764174,8.71846957 C63.8962435,9.65707826 64.2845913,10.5591652 64.6814609,11.4417739 C65.0430261,12.2549913 65.469113,13.0304696 65.9645913,13.7499478 C66.9518957,15.1962087 68.2386783,16.3831652 69.7080696,17.3558609 C71.1178087,18.3443826 72.9792,19.0273391 74.5995478,20.4821217 C74.9112,20.7621217 74.9367652,21.2405565 74.6567652,21.5522087 C74.4327652,21.8017739 74.0809391,21.867513 73.7899826,21.7409043 L73.7437217,21.7202087 C72.1440696,21.0214261 70.2108522,20.647687 68.3506783,19.5666435 C66.5270261,18.5282087 64.9419826,17.0186435 63.7440696,15.2826435 C63.1414609,14.4158609 62.6325913,13.4942957 62.2089391,12.5471652 C61.8120696,11.6718609 61.4273739,10.8038609 61.0085913,10.0551652 C60.8040696,9.66925217 60.5800696,9.3722087 60.3743304,9.12629565 C60.1625043,8.90838261 59.9859826,8.80246957 59.741287,8.7136 C59.2421565,8.54194783 58.3327652,8.56751304 57.4282435,8.65638261 C56.5237217,8.73307826 55.5705043,8.89986087 54.4858087,8.94977391 C53.4327652,8.99603478 52.3638957,8.94490435 51.3108522,8.76351304 C49.2023304,8.41046957 47.1948522,7.56073043 45.4515478,6.42003478 L43.0630261,4.77533913 C42.3167652,4.28107826 41.5230261,3.8269913 41.0993739,3.82212174 C40.729287,3.74177391 40.0512,4.06316522 39.2939826,4.5416 C38.5404174,5.02368696 37.7734609,5.58368696 36.9687652,6.14733913 C35.269287,7.3416 33.3032,8.28507826 31.197113,8.71603478 C30.1477217,8.93273043 29.0752,9.03133913 28.0136348,9.01673043 C27.4816348,9.01307826 26.9545043,8.97533913 26.4310261,8.91933913 L25.0042435,8.76107826 C24.0863304,8.66612174 23.1501565,8.59916522 22.5317217,8.70629565 C22.2383304,8.77081739 22.0630261,8.84994783 21.8828522,8.98873043 C21.7002435,9.14455652 21.4847652,9.41968696 21.2765913,9.75081739 C20.8565913,10.4325565 20.4633739,11.3127304 20.0713739,12.1734261 C19.6757217,13.0633391 19.1826783,14.0445565 18.609287,14.9162087 C17.4649391,16.6923826 15.9285913,18.2628174 14.1560696,19.4254261 C13.2807652,20.0097739 12.3190261,20.5089043 11.4023304,20.9167304 C10.533113,21.3062957 9.66998261,21.699513 8.96754783,22.1146435 C8.6485913,22.3240348 8.32963478,22.5346435 8.19328696,22.7184696 C8.04111304,22.903513 7.96441739,23.0617739 7.8938087,23.3369043 C7.7805913,23.9309913 7.83293913,24.8574261 7.92546087,25.7704696 L8.07641739,27.1936 C8.1312,27.7158609 8.16528696,28.2429913 8.1725913,28.7725565 C8.1872,29.8329043 8.09954783,30.9054261 7.8938087,31.9584696 C7.49450435,34.0718609 6.59241739,36.0683826 5.41763478,37.799513 C4.83572174,38.6565565 4.28546087,39.3882087 3.80093913,40.1527304 C3.29937391,40.9099478 2.99502609,41.6014261 3.03885217,41.9325565 C3.01937391,42.2831652 3.42598261,43.0489043 3.92389565,43.7890783 C4.43276522,44.5669913 4.9672,45.2669913 5.57224348,46.1642087 C6.72876522,47.9123826 7.60528696,49.9283826 7.9778087,52.051513 C8.16772174,53.1106435 8.2432,54.1868174 8.20911304,55.2471652 C8.19085217,55.7742957 8.14702609,56.3136 8.09102609,56.8188174 L7.94128696,58.2224696 C7.86337391,59.1136 7.80372174,60.0741217 7.96076522,60.5416 C8.03746087,60.7850783 8.08737391,60.9104696 8.29311304,61.1016 C8.49154783,61.2890783 8.78615652,61.5033391 9.15867826,61.7078609 C9.88911304,62.1205565 10.7619826,62.5125565 11.6324174,62.9118609 C12.5819826,63.3452522 13.5084174,63.8589913 14.3800696,64.4640348 C16.1306783,65.6668174 17.645113,67.255513 18.7699826,69.047513 C19.9350261,70.8589913 20.541287,72.8336 21.4117217,74.1508174 C21.621113,74.4770783 21.8195478,74.6949913 21.9887652,74.8021217 C22.1665043,74.9129043 22.3320696,75.0017739 22.685113,75.0334261 C23.3449391,75.1222957 24.3103304,75.0249043 25.2282435,74.9336 C26.1266783,74.8301217 27.2357217,74.6998609 28.285113,74.7217739 C29.3466783,74.7302957 30.4167652,74.8569043 31.4625043,75.0942957 C33.5527652,75.5654261 35.5237217,76.5210783 37.2037217,77.7250783 C37.9889391,78.2753391 38.7729391,78.8329043 39.5118957,79.2833391 C39.8856348,79.5207304 40.2301565,79.6789913 40.5259826,79.7946435 C40.8108522,79.8798609 40.9946783,79.8969043 41.2198957,79.8640348 C41.7032,79.7727304 42.4945043,79.3186435 43.2517217,78.8024696 C44.0345043,78.2838609 44.7710261,77.727513 45.6755478,77.151687 C47.4334609,76.0426435 49.4470261,75.1868174 51.5920696,74.8824696 C52.6585043,74.7242087 53.7444174,74.6962087 54.8108522,74.7911652 C55.9466783,74.9445565 56.717287,74.9457739 57.657113,75.0212522 C57.7289391,75.0261217 57.8129391,75.039513 57.8823304,75.0529043 C59.1910261,75.3207304 60.0237217,75.0942957 60.7285913,74.1118609 C61.0938087,73.6249043 61.3190261,73.0174261 61.6964174,72.2443826 L62.2162435,71.1353391 C62.389113,70.7262957 62.5802435,70.3233391 62.7859826,69.927687 C63.6186783,68.3450783 64.7508522,66.8963826 66.1045913,65.7191652 C67.4449391,64.5334261 69.0202435,63.6313391 70.5797217,62.943513 C71.3125913,62.6172522 72.033287,62.2885565 72.6785043,61.9428174 C73.3310261,61.599513 73.8240696,61.2221217 74.0152,60.9068174 C74.4303304,60.311513 74.2574609,58.531687 74.0809391,56.9965565 C73.8715478,55.3019478 73.8885913,53.4612522 74.261113,51.7167304 C74.6214609,49.9673391 75.4310261,48.2824696 76.7969391,47.1271652 C77.1122435,46.8593391 77.5833739,46.8982957 77.8512,47.2148174 C78.0033739,47.3937739 78.0557217,47.6250783 78.0143304,47.8393391 L78.0094609,47.8624696 Z" id="Fill-6" fill="#717791" mask="url(#mask-4)"></path>
                </g>
                <path d="M26.6614783,55.8652348 C28.4753913,53.0201913 30.7373043,50.620713 33.0113913,48.2346261 C35.3025217,45.8668 37.7056522,43.6109739 40.0673913,41.3125391 C44.8334783,36.7582783 49.5313913,32.1382783 54.3571304,27.6436696 C54.7990435,27.2309739 55.4941739,27.2565391 55.9056522,27.6996696 C56.300087,28.1221043 56.2927826,28.7758435 55.9056522,29.1934087 C51.4122609,34.0179304 46.7910435,38.7170609 42.238,43.4831478 C39.9395652,45.844887 37.6837391,48.2480174 35.3146957,50.5391478 C32.9286087,52.8132348 30.5303478,55.0739304 27.6853043,56.8878435 C27.3407826,57.1081913 26.8818261,57.0071478 26.6614783,56.6614087 C26.502,56.4118435 26.5129565,56.1001913 26.6614783,55.8652348" id="Fill-9" fill="#717791"></path>
                <path d="M34.8788696,27.135287 C37.4341739,29.6905913 37.4341739,33.8345913 34.8788696,36.3898957 C32.3223478,38.9464174 28.1795652,38.9464174 25.6230435,36.3898957 C23.0677391,33.8345913 23.0677391,29.6905913 25.6230435,27.135287 C28.1795652,24.5787652 32.3223478,24.5787652 34.8788696,27.135287 Z" id="Stroke-11" stroke="#717791" stroke-width="2.2" stroke-linecap="round" stroke-linejoin="round"></path>
                <path d="M56.366313,48.3569739 C58.9228348,50.9122783 58.9228348,55.0562783 56.366313,57.6128 C53.8110087,60.1681043 49.6670087,60.1681043 47.110487,57.6128 C44.5564,55.0562783 44.5564,50.9122783 47.110487,48.3569739 C49.6670087,45.8004522 53.8110087,45.8004522 56.366313,48.3569739 Z" id="Stroke-13" stroke="#717791" stroke-width="2.2" stroke-linecap="round" stroke-linejoin="round"></path>
                <path d="M75.972887,28.2545565 C76.1554957,29.117687 76.0629739,29.9114261 75.8998435,30.6881217 C75.7318435,31.4623826 75.5017565,32.2220348 75.0854087,32.9354261 C74.7664522,33.4832522 74.0640174,33.6670783 73.5149739,33.3481217 C73.1668,33.1436 72.964713,32.7771652 72.9476696,32.4009913 C72.9148,31.5756 73.0718435,30.797687 73.2861043,30.0343826 C73.508887,29.2722957 73.8010609,28.5284696 74.3683652,27.8528174 C74.6946261,27.4644696 75.2753217,27.4133391 75.664887,27.7408174 C75.8280174,27.8783826 75.932713,28.0609913 75.972887,28.2545565" id="Fill-15" fill="#717791"></path>
            </g>
        </g>
    </g>
</svg>