<?xml version="1.0" encoding="UTF-8"?>
<svg width="84px" height="84px" viewBox="0 0 84 84" version="1.1" xmlns="http://www.w3.org/2000/svg" xmlns:xlink="http://www.w3.org/1999/xlink">
    <!-- Generator: Sketch 52.6 (67491) - http://www.bohemiancoding.com/sketch -->
    <title>Group 16</title>
    <desc>Created with Sketch.</desc>
    <defs>
        <polygon id="path-1" points="7.70642202e-05 0.0578752294 83.2316697 0.0578752294 83.2316697 83.2293578 7.70642202e-05 83.2293578"></polygon>
    </defs>
    <g id="Page-2" stroke="none" stroke-width="1" fill="none" fill-rule="evenodd">
        <g id="Index-page" transform="translate(-338.000000, -2611.000000)">
            <g id="Group-16" transform="translate(338.000000, 2611.000000)">
                <g id="Group-3" transform="translate(0.000000, 0.712844)">
                    <mask id="mask-2" fill="white">
                        <use xlink:href="#path-1"></use>
                    </mask>
                    <g id="Clip-2"></g>
                    <path d="M24.1882239,13.0408844 C23.5270128,13.0408844 22.9444073,12.7441872 22.3841505,12.1400037 C21.4169945,11.0950128 20.3997468,10.0669761 19.4164073,9.07361835 L17.926756,7.56701284 C17.4767009,7.11464587 17.4782422,6.38253578 17.9306092,5.93171009 C18.3845174,5.48242569 19.1158569,5.48396697 19.5659119,5.93633394 L21.0586459,7.44679266 C22.0558569,8.45402202 23.0869761,9.49515963 24.0803339,10.5686642 C24.1581688,10.6518936 24.2105725,10.6981321 24.2421688,10.7227927 C24.2907193,10.7104624 24.3831963,10.6804073 24.5373248,10.6087376 C26.4415817,9.72172844 28.3358202,8.92334312 30.3402606,8.07794862 C30.8727743,7.85369174 31.4068294,7.62866422 31.9455083,7.39978349 L31.9455083,1.21383853 C31.9455083,0.575746789 32.4626092,0.0578752294 33.1014716,0.0578752294 L50.023233,0.0578752294 C50.6620954,0.0578752294 51.1791963,0.575746789 51.1791963,1.21383853 L51.1791963,7.29574679 L51.8635266,7.60246239 C52.4469028,7.86293945 52.7081505,8.54649908 52.4469028,9.12910459 C52.1864257,9.71171009 51.5020954,9.97449908 50.9202606,9.71248073 L49.5531413,9.10136147 C49.1362239,8.9156367 48.8672697,8.50180183 48.8672697,8.04558165 L48.8672697,2.36980183 L34.2574349,2.36980183 L34.2574349,8.16348991 C34.2574349,8.62664587 33.981545,9.04433394 33.5561505,9.2262055 C32.7770312,9.55989358 32.0040771,9.88587523 31.2388294,10.2080037 C29.253655,11.0449211 27.3786826,11.8356 25.5137284,12.7041138 C25.0336183,12.9283706 24.5958936,13.0408844 24.1882239,13.0408844 Z M8.27600367,34.3807376 L5.07167339,34.3807376 C4.43358165,34.3807376 3.91571009,33.8636367 3.91571009,33.2247743 C3.91571009,32.5859119 4.43358165,32.068811 5.07167339,32.068811 L7.42290275,32.068811 C7.43215046,32.0395266 7.44062752,32.0102422 7.44910459,31.9817284 C7.64715963,31.3220587 7.85215046,30.6400404 8.13035229,29.9780587 C8.77152661,28.4544991 9.63464587,26.4516 10.6233798,24.4564073 C10.6434165,24.4171046 10.6580587,24.383967 10.6696183,24.3569945 C10.6557468,24.3431229 10.6403339,24.3277101 10.6218385,24.3099853 C9.5182789,23.2834899 8.43706789,22.2346459 7.37204037,21.202756 L6.15596697,20.026756 C5.93248073,19.8117468 5.80532477,19.5158202 5.80147156,19.206022 C5.79838899,18.8962239 5.91937982,18.5979853 6.1382422,18.3783523 L14.0165174,10.4638569 C14.4665725,10.0114899 15.1986826,10.009178 15.6510495,10.4600037 C16.1041872,10.9100587 16.1057284,11.6429394 15.6549028,12.0945358 L8.60352661,19.1782789 L8.98037064,19.5427927 C10.0346092,20.5638936 11.1050312,21.601178 12.1954899,22.6168844 C13.0801872,23.4399303 13.2435633,24.3770312 12.6948661,25.4836734 C11.7338752,27.4218385 10.8892514,29.3831229 10.261178,30.8750862 C10.030756,31.4230128 9.85196697,32.017178 9.66315963,32.646022 C9.57068257,32.9542789 9.47743486,33.266389 9.37571009,33.580811 C9.22158165,34.0570679 8.7769211,34.3807376 8.27600367,34.3807376 Z M1.15604037,34.9525541 C0.517177982,34.9525541 7.70642202e-05,34.4346826 7.70642202e-05,33.7965908 L7.70642202e-05,33.2247743 C7.70642202e-05,32.5859119 0.517177982,32.068811 1.15604037,32.068811 L1.49666422,32.068811 C2.13475596,32.068811 2.65262752,32.5859119 2.65262752,33.2247743 C2.65262752,33.561545 2.50774679,33.865178 2.27732477,34.0763339 C2.15248073,34.5795633 1.69780183,34.9525541 1.15604037,34.9525541 Z M50.0848844,83.2294349 L33.1330679,83.2294349 C32.4942055,83.2294349 31.9771046,82.7123339 31.9771046,82.0734716 L31.9771046,76.000811 L30.6631596,75.4166642 C28.4722239,74.4394899 26.3984257,73.5162606 24.3015083,72.630022 C24.2652881,72.6438936 24.2275266,72.6616183 24.2074899,72.6754899 C23.1293615,73.7181688 22.0381321,74.8348294 20.9831229,75.9144991 L19.8826459,77.0380954 C19.6653248,77.2592697 19.3686275,77.3841138 19.0588294,77.3841138 C18.7490312,77.3841138 18.4531046,77.2600404 18.2350128,77.0396367 L6.20914128,64.8396 C5.99182018,64.6191963 5.8716,64.3209578 5.87622385,64.0111596 C5.88084771,63.7021321 6.00877431,63.4069761 6.23226055,63.1935083 C6.59908624,62.8420954 6.97747156,62.4752697 7.36587523,62.099967 C8.38928807,61.1089211 9.44815046,60.083967 10.5586459,59.0721138 C10.605655,59.0304991 10.638022,58.9965908 10.6596,58.9727009 C10.6441872,58.9226092 10.6141321,58.8409211 10.5555633,58.7153064 C9.66393028,56.8110495 8.85013211,54.916811 7.98778349,52.9100587 C7.75813211,52.3760037 7.52616881,51.8380954 7.29112294,51.2947927 L1.15604037,51.2947927 C0.517177982,51.2947927 7.70642202e-05,50.7776917 7.70642202e-05,50.1388294 L7.70642202e-05,37.2876 C7.70642202e-05,36.6495083 0.517177982,36.1316367 1.15604037,36.1316367 C1.79413211,36.1316367 2.31200367,36.6495083 2.31200367,37.2876 L2.31200367,48.9828661 L8.0502055,48.9828661 C8.5102789,48.9828661 8.92642569,49.2556734 9.11060917,49.6779853 C9.45046239,50.4601872 9.78260917,51.2331413 10.1109028,51.9976183 C10.9663156,53.9858752 11.7739486,55.8647009 12.6486275,57.7350495 C13.0401138,58.5711963 13.3329578,59.6732147 12.1161138,60.7821688 C11.0310495,61.7701321 9.98451743,62.7819853 8.9742055,63.7607009 C8.87402202,63.8578018 8.77460917,63.9533615 8.67596697,64.0489211 L19.0557468,74.5789761 L19.3293248,74.299233 C20.3958936,73.207233 21.4994532,72.0774716 22.6261321,70.9916367 C23.1725174,70.4645174 24.2413982,70.0976917 25.0174349,70.4229028 C27.1983523,71.3415083 29.3391963,72.2955633 31.6041138,73.3051046 L33.602389,74.193655 C34.0200771,74.3793798 34.2890312,74.7932147 34.2890312,75.2502055 L34.2890312,80.9175083 L48.9289211,80.9175083 L48.9289211,75.1939486 C48.9289211,74.7338752 49.2017284,74.3177284 49.6232697,74.1343156 C50.4077835,73.7921505 51.1830495,73.4584624 51.9490679,73.1293982 C53.9404073,72.272444 55.821545,71.4632697 57.688811,70.5824257 C58.8948661,70.0121505 59.8311963,70.1816917 60.7189761,71.1311229 C61.6961505,72.1761138 62.7303523,73.2149394 63.7298752,74.2190862 C63.8678202,74.3578018 64.0065358,74.4972881 64.1444807,74.6367743 L74.5080771,64.1860954 L70.3797468,60.3066826 C70.0298752,59.9776183 69.920444,59.4659119 70.1038569,59.022022 L73.9948294,49.6271229 C74.1728477,49.1947927 74.594389,48.9127376 75.0629394,48.9127376 L80.9198202,48.9127376 L80.9198202,34.3167743 L75.035967,34.3167743 C74.5689578,34.3167743 74.1481872,34.0362606 73.9693982,33.6047009 L70.1077101,24.3045908 C69.9235266,23.8614716 70.0329578,23.3497651 70.3820587,23.0199303 L74.3647376,19.2676734 L64.0096183,8.78385688 L63.7738018,9.02506789 C62.7118569,10.1178385 61.6136917,11.2483706 60.4893248,12.3473064 C60.030022,12.7958202 59.0089211,13.2674532 58.1750862,12.9137284 C57.7180954,12.7195266 57.2634165,12.5237835 56.807967,12.3257284 C56.2222789,12.0721872 55.9540954,11.3909394 56.2076367,10.8052514 C56.4619486,10.2203339 57.1431963,9.95060917 57.7281138,10.2049211 C58.1057284,10.3690679 58.4833431,10.5316734 58.8609578,10.6927376 C58.8763706,10.6850312 58.8894716,10.6780954 58.8994899,10.6711596 C59.9760771,9.61615046 61.0642239,8.49640734 62.1161505,7.41365505 L63.1765541,6.32473761 C63.3938752,6.10202202 63.6728477,5.96330642 64.0034532,5.97640734 C64.3117101,5.97640734 64.6084073,6.10048073 64.8257284,6.32011376 L76.8415817,18.4847009 C77.0596734,18.7066459 77.1806642,19.0071963 77.1752697,19.3185358 C77.1691046,19.6291046 77.0380954,19.9258018 76.8115266,20.1384991 L72.5491046,24.1550862 L75.8081505,32.0048477 L82.0757835,32.0048477 C82.7138752,32.0048477 83.2317468,32.5227193 83.2317468,33.160811 L83.2317468,50.0687009 C83.2317468,50.7075633 82.7138752,51.2246642 82.0757835,51.2246642 L75.8351229,51.2246642 L72.5452514,59.168444 L76.9564073,63.3144991 C77.1837468,63.527967 77.314756,63.8238936 77.3201505,64.1360037 C77.325545,64.4481138 77.2053248,64.7486642 76.9856917,64.9706092 L64.964444,77.092811 C64.7478936,77.3116734 64.451967,77.4349761 64.1444807,77.4349761 L64.1421688,77.4349761 C63.8331413,77.4342055 63.5379853,77.3101321 63.3206642,77.0897284 C62.9114532,76.6751229 62.5014716,76.2620587 62.0907193,75.8497651 C61.0780954,74.8332881 60.0323339,73.7813615 59.0304991,72.7101688 C58.9719303,72.6477468 58.9280037,72.6069028 58.8987193,72.5814716 C58.8532514,72.5961138 58.7815817,72.6223156 58.675233,72.6724073 C56.7717468,73.5709761 54.8728844,74.3878569 52.8630495,75.2532881 C52.3266826,75.4829394 51.7864624,75.7156734 51.2408477,75.9522606 L51.2408477,82.0734716 C51.2408477,82.7123339 50.7237468,83.2294349 50.0848844,83.2294349 Z" id="Fill-1" fill="#717791" mask="url(#mask-2)"></path>
                </g>
                <path d="M31.194055,33.1303706 C30.8865688,33.1303706 30.5798532,33.0086092 30.3517431,32.7666275 C29.914789,32.3019303 29.936367,31.5705908 30.4018349,31.1328661 L30.6291743,30.9217101 C31.101578,30.4924624 31.8329174,30.5263706 32.2621651,30.997233 C32.6921835,31.4696367 32.6575046,32.2002055 32.1858716,32.6309945 L31.9862752,32.8159486 C31.762789,33.0263339 31.478422,33.1303706 31.194055,33.1303706" id="Fill-4" fill="#717791"></path>
                <path d="M41.2958642,58.478411 C32.5598642,58.478411 25.4530018,51.3715486 25.4530018,42.6355486 C25.4530018,39.4396954 26.4001211,36.3594385 28.1926349,33.7276954 C28.5509835,33.1998055 29.2707633,33.0626312 29.7986532,33.4232917 C30.3265431,33.782411 30.4621761,34.5014202 30.1038275,35.0293101 C28.5733321,37.2757321 27.7649284,39.9059339 27.7649284,42.6355486 C27.7649284,50.0969064 33.8345064,56.1664844 41.2958642,56.1664844 C48.7564514,56.1664844 54.8268,50.0969064 54.8268,42.6355486 C54.8268,35.1749615 48.7564514,29.1046128 41.2958642,29.1046128 C39.3507633,29.1046128 37.4734789,29.5084294 35.7171853,30.3045028 C35.1368917,30.5672917 34.4502495,30.3098972 34.1866899,29.728833 C33.9239009,29.1469982 34.1812954,28.4618972 34.7623596,28.1983376 C36.8199743,27.2658606 39.0186165,26.7926862 41.2958642,26.7926862 C50.0310936,26.7926862 57.1387266,33.8995486 57.1387266,42.6355486 C57.1387266,51.3715486 50.0310936,58.478411 41.2958642,58.478411" id="Fill-6" fill="#717791"></path>
                <path d="M51.247244,19.3683193 C51.1493725,19.3683193 51.049189,19.3490532 50.9528587,19.3089798 C50.7987303,19.2457872 50.6438312,19.1825945 50.4881615,19.1217138 C50.0912807,18.9668147 49.8955376,18.5198422 50.0504367,18.1237321 C50.2053358,17.727622 50.6530789,17.5311083 51.049189,17.686778 C51.2141064,17.7515119 51.3790239,17.8170165 51.5424,17.8856037 C51.9361982,18.0482092 52.1226936,18.4990349 51.9600881,18.8920624 C51.837556,19.1887596 51.5501064,19.3683193 51.247244,19.3683193" id="Fill-8" fill="#A3ACD6"></path>
                <path d="M24.0964404,23.8766532 C23.8829725,23.8766532 23.6695046,23.7880294 23.5176881,23.6154055 C23.2364037,23.295589 23.268,22.8085431 23.5870459,22.5272587 C25.4743486,20.8665248 27.5966972,19.4762862 29.893211,18.3958459 C34.7837064,16.0947083 40.1789725,15.3286899 45.4940917,16.1763963 C45.9148624,16.2434422 46.2007706,16.6387817 46.1337248,17.0587817 C46.0666789,17.4795523 45.6713394,17.7662312 45.2505688,17.6984147 C40.2413945,16.8992587 35.1582385,17.6228917 30.5497982,19.7899376 C28.3835229,20.8094972 26.3837064,22.119589 24.6050642,23.6839927 C24.4594128,23.8134606 24.2767706,23.8766532 24.0964404,23.8766532" id="Fill-10" fill="#A3ACD6"></path>
                <path d="M23.1699743,62.0803156 C22.9765431,62.0803156 22.7831119,62.0078752 22.6336073,61.8629945 C20.3178275,59.6158018 18.4405431,56.9825174 17.0556991,54.0371229 C14.1187817,47.7941505 13.698011,40.7504807 15.8689101,34.2046459 C16.0022312,33.8008294 16.437644,33.5804257 16.8430018,33.7160587 C17.2468183,33.8501505 17.4664514,34.2863339 17.3323596,34.6901505 C15.2855339,40.8591413 15.6824147,47.4974532 18.4505615,53.3813064 C19.7560294,56.1579303 21.5246532,58.6393982 23.7063413,60.7563523 C24.0122862,61.0530495 24.0199927,61.5408661 23.7232954,61.8460404 C23.5714789,62.0017101 23.3711119,62.0803156 23.1699743,62.0803156" id="Fill-12" fill="#A3ACD6"></path>
                <path d="M41.3132037,69.4374826 C38.2522128,69.4374826 35.182745,68.9065101 32.2173138,67.8384 C31.8173505,67.6942899 31.6092771,67.2527119 31.7541578,66.851978 C31.8982679,66.451244 32.3413872,66.2447119 32.7398092,66.3880514 C39.0829651,68.6730055 45.9385982,68.3516477 52.0413138,65.4810055 C58.1432587,62.6111339 62.7624881,57.5356844 65.0482128,51.1917578 C67.3339376,44.8470606 67.0118092,37.9921982 64.141167,31.8902532 C62.5960294,28.6057761 60.4243596,25.7574826 57.6847266,23.4232073 C57.3602862,23.1473174 57.3217541,22.6610422 57.597644,22.3366018 C57.8727633,22.0121615 58.3598092,21.9744 58.6842495,22.2502899 C61.5918826,24.7271339 63.897644,27.7503633 65.5360294,31.2336661 C71.8229284,44.600455 66.0631486,60.5889688 52.6971303,66.8758679 C49.0743413,68.5797578 45.2010936,69.4374826 41.3132037,69.4374826" id="Fill-14" fill="#A3ACD6"></path>
            </g>
        </g>
    </g>
</svg>