<?xml version="1.0" encoding="UTF-8"?>
<svg width="195px" height="50px" viewBox="0 0 195 50" version="1.1" xmlns="http://www.w3.org/2000/svg" xmlns:xlink="http://www.w3.org/1999/xlink">
    <!-- Generator: Sketch 52.6 (67491) - http://www.bohemiancoding.com/sketch -->
    <title>AngularJS_logo</title>
    <desc>Created with Sketch.</desc>
    <g id="Page-2" stroke="none" stroke-width="1" fill="none" fill-rule="evenodd">
        <g id="Index-page" transform="translate(-906.000000, -3413.000000)">
            <g id="AngularJS_logo" transform="translate(906.000000, 3413.000000)">
                <g id="g12" transform="translate(50.000000, 12.994350)">
                    <polygon id="polygon14" fill="#CCCCCC" points="2.65734463 3.30932203 14.8963277 19.420904 14.8963277 3.30932203 17.3429379 3.30932203 17.3429379 23.3096045 14.7559322 23.3096045 2.5180791 7.05649718 2.5180791 23.3096045 0.0700564972 23.3096045 0.0700564972 3.30932203"></polygon>
                    <path d="M37.2028249,22.5262712 C35.5903955,23.1426554 33.850565,23.4497175 31.9858757,23.4497175 C24.7420904,23.4497175 21.1186441,19.9768362 21.1186441,13.0299435 C21.1186441,6.45621469 24.6152542,3.16892655 31.6073446,3.16892655 C33.6135593,3.16892655 35.4788136,3.44943503 37.2025424,4.00960452 L37.2025424,6.24717514 C35.4785311,5.59435028 33.7059322,5.26751412 31.8870056,5.26751412 C26.4333333,5.26751412 23.7070621,7.8559322 23.7070621,13.0299435 C23.7070621,18.5774011 26.390678,21.3525424 31.7629944,21.3525424 C32.619774,21.3525424 33.5706215,21.240113 34.6158192,21.0155367 L34.6158192,14.2189266 L37.2028249,14.2189266 L37.2028249,22.5262712 Z" id="path16" fill="#CCCCCC"></path>
                    <path d="M41.329096,15.5892655 L41.329096,3.31016949 L43.9146893,3.31016949 L43.9146893,15.5889831 C43.9146893,19.4305085 45.8268362,21.3533898 49.6502825,21.3533898 C53.4725989,21.3533898 55.3847458,19.430226 55.3847458,15.5889831 L55.3847458,3.31016949 L57.9717514,3.31016949 L57.9717514,15.5889831 C57.9717514,20.8310734 55.1980226,23.450565 49.6502825,23.450565 C44.1028249,23.4508475 41.329096,20.8310734 41.329096,15.5892655 Z" id="path18" fill="#CCCCCC"></path>
                    <polygon id="polygon20" fill="#CCCCCC" points="75.6378531 21.2124294 75.6378531 23.3096045 62.5884181 23.3096045 62.5884181 3.30932203 65.1742938 3.30932203 65.1742938 21.2124294"></polygon>
                    <polygon id="polygon22" fill="#CCCCCC" points="86.629661 0.671186441 96.5734463 23.3101695 93.7070621 23.3101695 91.1186441 17.0152542 84.5050847 17.0152542 85.2177966 14.919774 90.2528249 14.919774 86.5183616 5.85536723 79.370904 23.3101695 76.6861582 23.3101695"></polygon>
                    <path d="M99.3011299,23.3096045 L99.3011299,3.30932203 L107.833051,3.30932203 C111.637853,3.30932203 113.539548,4.90903955 113.539548,8.10621469 C113.539548,10.7084746 111.680508,12.6341808 107.959322,13.8822034 L114.826271,23.3096045 L111.413559,23.3096045 L105.050847,14.3169492 L105.050847,12.6259887 C108.872881,12.0183616 110.783898,10.55 110.783898,8.21977401 C110.783898,6.37429379 109.721186,5.44971751 107.59661,5.44971751 L101.888701,5.44971751 L101.888701,23.310452 L99.3014124,23.310452 L99.3011299,23.3096045 Z" id="path24" fill="#CCCCCC"></path>
                    <path d="M124.519209,3.30932203 L124.519209,17.5477401 C124.519209,21.3889831 122.25791,23.309322 117.734746,23.309322 L117.734746,21.2118644 C120.532486,21.2118644 121.931638,19.9889831 121.931638,17.5474576 L121.931638,3.30932203 L124.519209,3.30932203 Z" id="path26" fill="#CCCCCC"></path>
                    <path d="M129.134746,22.6101695 L129.134746,20.2322034 C131.233333,20.9779661 133.498305,21.3522599 135.932203,21.3522599 C139.372881,21.3522599 141.093785,20.0932203 141.093785,17.5737288 C141.093785,15.4324859 139.824576,14.3576271 137.288701,14.3576271 L134.714407,14.3576271 C130.528814,14.3576271 128.433898,12.540678 128.433898,8.9039548 C128.433898,5.08163842 131.116102,3.16836158 136.478814,3.16836158 C138.80904,3.16836158 140.976554,3.45028249 142.981921,4.00903955 L142.981921,6.38672316 C140.975989,5.64011299 138.80904,5.26694915 136.478814,5.26694915 C132.841808,5.26694915 131.023729,6.47966102 131.023729,8.9039548 C131.023729,11.0474576 132.253672,12.1200565 134.714407,12.1200565 L137.288701,12.1200565 C141.548588,12.1200565 143.680791,13.939548 143.680791,17.5737288 C143.680791,21.4912429 141.098305,23.4497175 135.931638,23.4497175 C133.498305,23.4497175 131.233333,23.1689266 129.134746,22.6101695 Z" id="path28" fill="#CCCCCC"></path>
                    <polygon id="polygon30" fill="#000000" points="3.31158192 2.6559322 15.549435 18.7677966 15.549435 2.6559322 17.9974576 2.6559322 17.9974576 22.6562147 15.4101695 22.6562147 3.17146893 6.40310734 3.17146893 22.6562147 0.724576271 22.6562147 0.724576271 2.6559322"></polygon>
                    <path d="M37.8573446,21.8728814 C36.2449153,22.4892655 34.5059322,22.7960452 32.640678,22.7960452 C25.3963277,22.7960452 21.7734463,19.3234463 21.7734463,12.3765537 C21.7734463,5.80282486 25.2700565,2.51525424 32.2635593,2.51525424 C34.2680791,2.51525424 36.1336158,2.7960452 37.8573446,3.3559322 L37.8573446,5.59322034 C36.1333333,4.94039548 34.3607345,4.61355932 32.5429379,4.61355932 C27.0889831,4.61355932 24.3621469,7.2019774 24.3621469,12.3759887 C24.3621469,17.9237288 27.0468927,20.6988701 32.4177966,20.6988701 C33.2748588,20.6988701 34.2268362,20.5870056 35.2717514,20.3618644 L35.2717514,13.5649718 L37.8576271,13.5649718 L37.8573446,21.8728814 Z" id="path32" fill="#000000"></path>
                    <path d="M41.9833333,14.9353107 L41.9833333,2.65480226 L44.5689266,2.65480226 L44.5689266,14.9350282 C44.5689266,18.7762712 46.4810734,20.6980226 50.3048023,20.6980226 C54.1268362,20.6980226 56.0389831,18.7759887 56.0389831,14.9350282 L56.0389831,2.65480226 L58.6259887,2.65480226 L58.6259887,14.9350282 C58.6259887,20.1768362 55.8522599,22.7951977 50.3048023,22.7951977 C44.7570621,22.7951977 41.9833333,20.1774011 41.9833333,14.9353107 Z" id="path34" fill="#000000"></path>
                    <polygon id="polygon36" fill="#000000" points="76.2912429 20.5579096 76.2912429 22.6550847 63.2429379 22.6550847 63.2429379 2.65480226 65.8288136 2.65480226 65.8288136 20.5579096"></polygon>
                    <polygon id="polygon38" fill="#000000" points="87.2844633 0.015819209 97.2282486 22.6559322 94.3601695 22.6559322 91.7731638 16.3615819 85.1581921 16.3615819 85.8725989 14.2644068 90.9062147 14.2644068 87.1728814 5.2 80.0254237 22.6559322 77.3403955 22.6559322"></polygon>
                    <path d="M99.9556497,22.6562147 L99.9556497,2.6559322 L108.487288,2.6559322 C112.292373,2.6559322 114.192373,4.25451977 114.192373,7.45310734 C114.192373,10.0539548 112.334463,11.980791 108.613559,13.2285311 L115.480791,22.6562147 L112.066667,22.6562147 L105.704802,13.6632768 L105.704802,11.9706215 C109.527119,11.3629944 111.438983,9.8960452 111.438983,7.56440678 C111.438983,5.71892655 110.375141,4.79576271 108.249153,4.79576271 L102.542938,4.79576271 L102.542938,22.6562147 C102.542938,22.6562147 99.9556497,22.6562147 99.9556497,22.6562147 Z" id="path40" fill="#000000"></path>
                    <path d="M125.173729,2.65480226 L125.173729,16.8935028 C125.173729,20.7358757 122.912429,22.6550847 118.389548,22.6550847 L118.389548,20.5579096 C121.187006,20.5579096 122.586158,19.3347458 122.586158,16.8932203 L122.586158,2.65480226 L125.173729,2.65480226 Z" id="path42" fill="#A6120D"></path>
                    <path d="M129.788136,21.9556497 L129.788136,19.5782486 C131.887006,20.3237288 134.151695,20.6983051 136.585876,20.6983051 C140.026271,20.6983051 141.747175,19.4387006 141.747175,16.9206215 C141.747175,14.7782486 140.478249,13.7045198 137.94209,13.7045198 L135.367797,13.7045198 C131.182203,13.7045198 129.087571,11.8864407 129.087571,8.24943503 C129.087571,4.42711864 131.768644,2.51412429 137.132203,2.51412429 C139.462429,2.51412429 141.630226,2.7960452 143.635593,3.35480226 L143.635593,5.73276836 C141.629379,4.98587571 139.462429,4.61271186 137.132203,4.61271186 C133.495198,4.61271186 131.677119,5.82542373 131.677119,8.24971751 C131.677119,10.3932203 132.906215,11.4658192 135.367797,11.4658192 L137.94209,11.4658192 C142.201695,11.4658192 144.334181,13.2844633 144.334181,16.9206215 C144.334181,20.8372881 141.751977,22.7954802 136.585311,22.7954802 C134.151977,22.7951977 131.886723,22.5144068 129.788136,21.9556497 Z" id="path44" fill="#A6120D"></path>
                </g>
                <g id="g48">
                    <polygon id="polygon50" fill="#B3B3B3" points="3.84774011 39.070904 23.5398305 49.8940678 43.3333333 38.9242938 47.0231638 8.3220339 23.5149718 0.247175141 0.156497175 8.46751412"></polygon>
                    <polygon id="polygon52" fill="#A6120D" points="23.460452 47.3081921 41.2545198 37.4601695 44.6932203 10.090678 23.460452 2.85"></polygon>
                    <polygon id="polygon54" fill="#DD1B16" points="23.4601695 47.3081921 23.4601695 2.84915254 2.77768362 10.2211864 5.94067797 37.5909605"></polygon>
                    <path d="M29.3050847,26.5172316 L23.460452,29.2502825 L17.3002825,29.2502825 L14.4045198,36.4932203 L9.01836158,36.5929379 L23.460452,4.46440678 L29.3050847,26.5172316 Z M28.740113,25.1412429 L23.4991525,14.7658192 L19.2002825,24.9627119 L23.4601695,24.9627119 L28.740113,25.1412429 Z" id="path56" fill="#F2F2F2" fill-rule="nonzero"></path>
                    <polygon id="polygon58" fill="#B3B3B3" points="28.3768362 24.9706215 23.4711864 24.9706215 23.4601695 29.2437853 30.2435028 29.2502825 33.4138418 36.5940678 38.5675141 36.689548 23.4601695 4.46440678 23.4988701 14.7658192"></polygon>
                </g>
            </g>
        </g>
    </g>
</svg>