<?xml version="1.0" encoding="UTF-8"?>
<svg width="173px" height="50px" viewBox="0 0 173 50" version="1.1" xmlns="http://www.w3.org/2000/svg" xmlns:xlink="http://www.w3.org/1999/xlink">
    <!-- Generator: Sketch 52.6 (67491) - http://www.bohemiancoding.com/sketch -->
    <title>microsoft-azure-seeklogo.com</title>
    <desc>Created with Sketch.</desc>
    <g id="Page-2" stroke="none" stroke-width="1" fill="none" fill-rule="evenodd">
        <g id="Index-page" transform="translate(-229.000000, -3413.000000)" fill="#035BDA">
            <g id="microsoft-azure-seeklogo.com" transform="translate(229.000000, 3413.000000)">
                <polygon id="path7291" points="39.7476945 7.52894085 30.2776268 26.6016823 46.9503774 45.9256152 16.0057713 49.4386274 64.0230854 49.9410177"></polygon>
                <polygon id="path7293" points="37.8802683 0 16.1392805 18.1946244 0 45.4237555 13.7383866 44.0432555"></polygon>
                <path d="M82.1724268,19.256847 L71.7735,44.7560482 L75.3092256,44.7560482 L78.0130854,37.607664 L89.5080488,37.607664 L92.3819329,44.7560482 L95.8982622,44.7560482 L85.4616768,19.256847 L82.1724268,19.256847 Z M83.722628,22.3506518 L83.797939,22.3506518 C83.9365854,23.1330555 84.0752256,23.7024012 84.213878,24.0580415 L88.4679329,34.9228598 L79.0714634,34.9228598 L83.2878659,24.0580415 C83.4517195,23.6431299 83.5965854,23.0737835 83.722628,22.3506518 Z M164.126909,26.1207573 C161.593451,26.1207573 159.469707,27.0155171 157.755524,28.8055622 C156.053945,30.5837543 155.203433,32.8898951 155.203433,35.723147 C155.203433,38.7223659 155.984915,41.0514043 157.547841,42.7110512 C159.110774,44.3588409 161.259415,45.1827677 163.994543,45.1827677 C166.792689,45.1827677 169.042628,44.6022372 170.744201,43.440486 L170.744201,40.7020043 C168.916585,42.0534299 166.912805,42.7287634 164.732268,42.7287634 C162.791213,42.7287634 161.266165,42.177525 160.156988,41.075047 C159.047811,39.9725659 158.467787,38.4078 158.417366,36.3806616 L172.08672,36.3806616 L172.08672,34.8514713 C172.08672,32.1130561 171.393512,29.9736232 170.007049,28.4325244 C168.620579,26.8914244 166.660366,26.1207573 164.126909,26.1207573 Z M150.274415,26.2275695 C149.152634,26.2275695 148.138012,26.589203 147.2305,27.3123348 C146.322994,28.0236116 145.649037,29.0190293 145.207884,30.2993274 L145.132,30.2993274 L145.132,26.5474689 L142.03161,26.5474689 L142.03161,44.7560482 L145.132,44.7560482 L145.132,35.4740988 C145.132,33.4469573 145.57339,31.8465091 146.455689,30.6729018 C147.350591,29.4992945 148.45972,28.9123738 149.783165,28.9123738 C150.80411,28.9123738 151.585591,29.1078354 152.127573,29.4990384 L152.127573,26.4760835 C151.69903,26.3101177 151.081085,26.2275695 150.274415,26.2275695 Z M99.0500122,26.5474689 L99.0500122,29.0369006 L109.429543,29.0369006 L97.9722317,43.8494896 L97.9722317,44.7560482 L113.872451,44.7560482 L113.872451,42.2666226 L102.528683,42.2666226 L113.985988,27.3831848 L113.985988,26.5474689 L99.0500122,26.5474689 Z M118.649707,26.5474689 L118.649707,37.43 C118.649707,42.5986122 120.956805,45.1827677 125.569963,45.1827677 C128.267274,45.1827677 130.258604,44.080286 131.544244,41.8753317 L131.619555,41.8753317 L131.619555,44.7560482 L134.720518,44.7560482 L134.720518,26.5474689 L131.619555,26.5474689 L131.619555,37.0387116 C131.619555,38.7339213 131.128372,40.1090823 130.145244,41.1641445 C129.174713,42.2073506 127.933171,42.7287634 126.420659,42.7287634 C123.294805,42.7287634 121.731841,40.8087561 121.731841,36.9678616 L121.731841,26.5474689 L118.649707,26.5474689 Z M164.070427,28.5747616 C165.582933,28.5747616 166.761665,29.0429104 167.606152,29.979425 C168.463244,30.9159421 168.897835,32.2255902 168.910439,33.9089445 L158.455024,33.9089445 C158.694506,32.3204256 159.324896,31.0342104 160.345841,30.0502774 C161.366787,29.0663439 162.608329,28.5747616 164.070427,28.5747616 Z" id="text7295" fill-rule="nonzero"></path>
            </g>
        </g>
    </g>
</svg>