<?xml version="1.0" encoding="UTF-8"?>
<svg width="146px" height="50px" viewBox="0 0 146 50" version="1.1" xmlns="http://www.w3.org/2000/svg" xmlns:xlink="http://www.w3.org/1999/xlink">
    <!-- Generator: Sketch 52.6 (67491) - http://www.bohemiancoding.com/sketch -->
    <title>elastic-logo</title>
    <desc>Created with Sketch.</desc>
    <g id="Page-2" stroke="none" stroke-width="1" fill="none" fill-rule="evenodd">
        <g id="Index-page" transform="translate(-709.000000, -3413.000000)">
            <g id="elastic-logo" transform="translate(709.000000, 3413.000000)">
                <path d="M50.1271186,26.2288136 C50.1271186,22.0338983 47.5211864,18.3474576 43.6016949,16.9279661 C43.7711864,16.0381356 43.8559322,15.1483051 43.8559322,14.2372881 C43.8559322,6.41949153 37.5,0.063559322 29.7033898,0.063559322 C25.1271186,0.063559322 20.8898305,2.24576271 18.220339,5.93220339 C16.9067797,4.91525424 15.2966102,4.36440678 13.6228814,4.36440678 C9.47033898,4.36440678 6.10169492,7.73305085 6.10169492,11.8855932 C6.10169492,12.7966102 6.27118644,13.6864407 6.56779661,14.5127119 C2.66949153,15.9110169 0,19.6610169 0,23.8347458 C0,28.0508475 2.62711864,31.7372881 6.54661017,33.1567797 C6.37711864,34.0254237 6.29237288,34.9364407 6.29237288,35.8474576 C6.29237288,43.6440678 12.6271186,49.9788136 20.4237288,49.9788136 C25,49.9788136 29.2372881,47.7754237 31.8855932,44.0889831 C33.1991525,45.1271186 34.809322,45.6991525 36.4830508,45.6991525 C40.6355932,45.6991525 44.0042373,42.3305085 44.0042373,38.1779661 C44.0042373,37.2669492 43.8347458,36.3771186 43.5381356,35.5508475 C47.4364407,34.1525424 50.1271186,30.4025424 50.1271186,26.2288136" id="Path" fill="#FFFFFF"></path>
                <path d="M19.7033898,21.5677966 L30.6779661,26.5677966 L41.7372881,16.8644068 C41.9067797,16.059322 41.970339,15.2754237 41.970339,14.4279661 C41.970339,7.6059322 36.4194915,2.05508475 29.5974576,2.05508475 C25.5084746,2.05508475 21.7161017,4.06779661 19.4067797,7.43644068 L17.5635593,16.9915254 L19.7033898,21.5677966 Z" id="Path" fill="#FED10A"></path>
                <path d="M8.34745763,33.1779661 C8.1779661,33.9830508 8.11440678,34.809322 8.11440678,35.6567797 C8.11440678,42.5 13.6864407,48.0508475 20.529661,48.0508475 C24.6398305,48.0508475 28.4745763,46.0169492 30.7838983,42.6271186 L32.6059322,33.1144068 L30.1694915,28.4533898 L19.1525424,23.4322034 L8.34745763,33.1779661 Z" id="Path" fill="#24BBB1"></path>
                <path d="M8.28389831,14.1949153 L15.8050847,15.9745763 L17.4576271,7.43644068 C16.440678,6.65254237 15.1694915,6.22881356 13.8559322,6.22881356 C10.5932203,6.22881356 7.92372881,8.87711864 7.92372881,12.1610169 C7.92372881,12.8601695 8.05084746,13.559322 8.28389831,14.1949153" id="Path" fill="#EF5098"></path>
                <path d="M7.62711864,15.9957627 C4.27966102,17.0974576 1.9279661,20.3177966 1.9279661,23.8559322 C1.9279661,27.309322 4.06779661,30.3813559 7.26694915,31.6101695 L17.8177966,22.0762712 L15.8898305,17.9449153 L7.62711864,15.9957627 Z" id="Path" fill="#17A8E0"></path>
                <path d="M32.690678,42.6271186 C33.7288136,43.4110169 34.9788136,43.8559322 36.2711864,43.8559322 C39.5338983,43.8559322 42.2033898,41.2076271 42.2033898,37.9237288 C42.2033898,37.2033898 42.0762712,36.5042373 41.8432203,35.8686441 L34.3432203,34.1101695 L32.690678,42.6271186 Z" id="Path" fill="#93C83E"></path>
                <path d="M34.2161017,32.1398305 L42.4788136,34.0677966 C45.8474576,32.9661017 48.1779661,29.7457627 48.1779661,26.1864407 C48.1779661,22.7542373 46.0381356,19.6610169 42.8389831,18.4533898 L32.0338983,27.9237288 L34.2161017,32.1398305 Z" id="Path" fill="#0779A1"></path>
                <path d="M70.0847458,35.1271186 L71.0805085,35.0211864 L71.1440678,37.0550847 C68.5169492,37.4152542 66.2711864,37.6059322 64.4067797,37.6059322 C61.9279661,37.6059322 60.1694915,36.8855932 59.1313559,35.4449153 C58.0932203,34.0042373 57.5847458,31.7584746 57.5847458,28.7288136 C57.5847458,22.6694915 60,19.6398305 64.809322,19.6398305 C67.1398305,19.6398305 68.8771186,20.2966102 70.0211864,21.5889831 C71.1652542,22.8813559 71.7372881,24.9364407 71.7372881,27.7118644 L71.5889831,29.6822034 L60.190678,29.6822034 C60.190678,31.5889831 60.529661,33.0084746 61.2288136,33.9194915 C61.9279661,34.8305085 63.1144068,35.2966102 64.8305085,35.2966102 C66.5677966,35.3389831 68.3050847,35.2754237 70.0847458,35.1271186 Z M69.1525424,27.6483051 C69.1525424,25.529661 68.8135593,24.0254237 68.1355932,23.1567797 C67.4576271,22.2881356 66.3559322,21.8432203 64.8305085,21.8432203 C63.3050847,21.8432203 62.1398305,22.309322 61.3771186,23.220339 C60.6144068,24.1313559 60.2118644,25.6144068 60.190678,27.6483051 L69.1525424,27.6483051 Z" id="Shape" fill="#000000" fill-rule="nonzero"></path>
                <polygon id="Path" fill="#000000" points="75.3389831 37.2881356 75.3389831 12.5 77.9237288 12.5 77.9237288 37.2881356"></polygon>
                <path d="M94.2584746,25.2330508 L94.2584746,33.7288136 C94.2584746,34.5974576 96.3983051,34.7669492 96.3983051,34.7669492 L96.2711864,37.0550847 C94.4491525,37.0550847 92.9449153,37.2033898 92.0338983,36.3347458 C89.9576271,37.2457627 87.9025424,37.6271186 85.8262712,37.6271186 C84.2372881,37.6271186 83.029661,37.1822034 82.2033898,36.2711864 C81.3771186,35.3813559 80.9533898,34.0889831 80.9533898,32.3940678 C80.9533898,30.720339 81.3771186,29.470339 82.2245763,28.6864407 C83.0720339,27.9025424 84.4067797,27.3940678 86.2288136,27.2245763 L91.6525424,26.7161017 L91.6525424,25.2330508 C91.6525424,24.0677966 91.3983051,23.220339 90.8898305,22.7118644 C90.3813559,22.2033898 89.6822034,21.9491525 88.8135593,21.9491525 L82.0127119,21.9491525 L82.0127119,19.6610169 L88.6440678,19.6610169 C90.5932203,19.6610169 92.0127119,20.1059322 92.9025424,21.0169492 C93.8135593,21.9067797 94.2584746,23.3262712 94.2584746,25.2330508 Z M83.6228814,32.2669492 C83.6228814,34.3855932 84.4915254,35.4449153 86.25,35.4449153 C87.8177966,35.4449153 89.3644068,35.190678 90.8686441,34.6610169 L91.6525424,34.3855932 L91.6525424,28.6864407 L86.5466102,29.1737288 C85.5084746,29.2584746 84.7669492,29.5550847 84.3008475,30.0635593 C83.8347458,30.5720339 83.6228814,31.3135593 83.6228814,32.2669492 Z" id="Shape" fill="#000000" fill-rule="nonzero"></path>
                <path d="M104.364407,21.970339 C101.864407,21.970339 100.59322,22.8389831 100.59322,24.5974576 C100.59322,25.4025424 100.889831,25.9745763 101.461864,26.3135593 C102.033898,26.6525424 103.347458,26.9915254 105.402542,27.3516949 C107.457627,27.7118644 108.898305,28.1991525 109.745763,28.8559322 C110.59322,29.4915254 111.016949,30.6991525 111.016949,32.4788136 C111.016949,34.2584746 110.444915,35.5508475 109.300847,36.3771186 C108.15678,37.2033898 106.504237,37.6271186 104.300847,37.6271186 C102.881356,37.6271186 98.1144068,37.0974576 98.1144068,37.0974576 L98.2627119,34.8516949 C100.995763,35.1059322 102.987288,35.3177966 104.322034,35.3177966 C105.65678,35.3177966 106.673729,35.1059322 107.372881,34.6822034 C108.072034,34.2584746 108.432203,33.5381356 108.432203,32.5423729 C108.432203,31.5466102 108.135593,30.8686441 107.542373,30.5084746 C106.949153,30.1483051 105.635593,29.809322 103.601695,29.4915254 C101.567797,29.1737288 100.127119,28.7076271 99.279661,28.0720339 C98.4322034,27.4576271 98.0084746,26.2923729 98.0084746,24.6186441 C98.0084746,22.9449153 98.6016949,21.6949153 99.7881356,20.8898305 C100.974576,20.0847458 102.457627,19.6822034 104.216102,19.6822034 C105.614407,19.6822034 110.487288,20.0423729 110.487288,20.0423729 L110.487288,22.309322 C107.923729,22.1610169 105.826271,21.970339 104.364407,21.970339 Z" id="Path" fill="#000000"></path>
                <path d="M123.516949,22.2669492 L118.029661,22.2669492 L118.029661,30.529661 C118.029661,32.5 118.177966,33.8135593 118.45339,34.4279661 C118.75,35.0423729 119.427966,35.3601695 120.508475,35.3601695 L123.580508,35.1483051 L123.75,37.2881356 C122.20339,37.5423729 121.038136,37.6694915 120.233051,37.6694915 C118.432203,37.6694915 117.20339,37.2245763 116.504237,36.3559322 C115.805085,35.4872881 115.466102,33.8135593 115.466102,31.3559322 L115.466102,22.2669492 L113.008475,22.2669492 L113.008475,20.0211864 L115.466102,20.0211864 L115.466102,14.7245763 L118.029661,14.7245763 L118.029661,20 L123.516949,20 L123.516949,22.2669492 Z" id="Path" fill="#000000"></path>
                <path d="M127.118644,16.1016949 L127.118644,13.1144068 L129.70339,13.1144068 L129.70339,16.1228814 L127.118644,16.1016949 Z M127.118644,37.2881356 L127.118644,20.0211864 L129.70339,20.0211864 L129.70339,37.2881356 L127.118644,37.2881356 Z" id="Shape" fill="#000000" fill-rule="nonzero"></path>
                <path d="M140.932203,19.6610169 C141.694915,19.6610169 142.987288,19.809322 144.809322,20.0847458 L145.635593,20.190678 L145.529661,22.2881356 C143.686441,22.0762712 142.330508,21.970339 141.461864,21.970339 C139.512712,21.970339 138.177966,22.4364407 137.478814,23.3686441 C136.779661,24.3008475 136.419492,26.0381356 136.419492,28.559322 C136.419492,31.0805085 136.737288,32.8389831 137.394068,33.8347458 C138.050847,34.8305085 139.40678,35.3177966 141.483051,35.3177966 L145.550847,35 L145.65678,37.1398305 C143.516949,37.4576271 141.90678,37.6271186 140.847458,37.6271186 C138.15678,37.6271186 136.292373,36.9279661 135.275424,35.5508475 C134.258475,34.1737288 133.728814,31.8432203 133.728814,28.559322 C133.728814,25.2754237 134.279661,22.9661017 135.381356,21.6525424 C136.504237,20.3389831 138.347458,19.6610169 140.932203,19.6610169 Z" id="Path" fill="#000000"></path>
            </g>
        </g>
    </g>
</svg>