<?xml version="1.0" encoding="UTF-8"?>
<svg width="60px" height="60px" viewBox="0 0 60 60" version="1.1" xmlns="http://www.w3.org/2000/svg" xmlns:xlink="http://www.w3.org/1999/xlink">
    <!-- Generator: Sketch 52.6 (67491) - http://www.bohemiancoding.com/sketch -->
    <title>typescript-seeklogo.com</title>
    <desc>Created with Sketch.</desc>
    <g id="Page-2" stroke="none" stroke-width="1" fill="none" fill-rule="evenodd">
        <g id="Index-page" transform="translate(-1152.000000, -3408.000000)">
            <g id="typescript-seeklogo.com" transform="translate(1152.000000, 3408.000000)">
                <polygon id="Path" fill="#007ACC" transform="translate(30.000000, 30.000000) scale(-1, 1) rotate(-180.000000) translate(-30.000000, -30.000000) " points="0 30 0 0 30 0 60 0 60 30 60 60 30 60 0 60"></polygon>
                <path d="M34.373,52.3680146 L34.3920474,49.9108718 L30.4872856,49.9108718 L26.5825238,49.9108718 L26.5825238,38.8156336 L26.5825238,27.7203957 L23.8206191,27.7203957 L21.0587142,27.7203957 L21.0587142,38.8156336 L21.0587142,49.9108718 L17.1539523,49.9108718 L13.2491904,49.9108718 L13.2491904,52.3203957 C13.2491904,53.6537288 13.2777618,54.7680146 13.3158571,54.7965861 C13.3444285,54.8346814 18.0968094,54.8537288 23.8587142,54.8442052 L34.3444285,54.8156337 L34.373,52.3680146 Z" id="Path" fill="#FFFFFF" transform="translate(23.820619, 41.283514) rotate(-180.000000) translate(-23.820619, -41.283514) "></path>
                <path d="M48.4140541,54.9075337 C49.9378638,54.5265813 51.0997685,53.8503907 52.1664352,52.745629 C52.7188162,52.1551528 53.5378638,51.0789623 53.6045304,50.8218194 C53.623578,50.7456288 51.0140543,48.993248 49.4331019,48.0122955 C49.3759589,47.9742002 49.1473875,48.2218193 48.8902446,48.6027717 C48.1188162,49.7265813 47.3092924,50.2122956 46.0711971,50.2980098 C44.2521495,50.4218194 43.0807209,49.4694384 43.0902448,47.8789622 C43.0902448,47.4122955 43.1569113,47.136105 43.3473877,46.7551528 C43.7473875,45.9265812 44.4902447,45.4313433 46.8235781,44.4218194 C51.1188162,42.5742002 52.9569115,41.3551528 54.0997685,39.6218194 C55.3759589,37.688486 55.6616733,34.6027718 54.7950066,32.3075337 C53.8426256,29.8122956 51.4807209,28.1170575 48.1569115,27.5551528 C47.1283399,27.3742003 44.6902446,27.4027718 43.5854829,27.6027717 C41.1759591,28.0313433 38.8902448,29.2218194 37.480721,30.7837242 C36.9283399,31.393248 35.8521495,32.983724 35.9188162,33.0980098 C35.9473875,33.1361051 36.1950066,33.2884861 36.4711971,33.4503907 C36.7378638,33.6027717 37.7473875,34.183724 38.6997684,34.7361051 L40.423578,35.736105 L40.7854828,35.2027718 C41.2902448,34.4313431 42.3950067,33.3742003 43.0616733,33.0218194 C44.975959,32.0122955 47.6045304,32.1551526 48.8997684,33.3170576 C49.4521495,33.8218193 49.6807209,34.3456289 49.6807209,35.1170576 C49.6807209,35.8122956 49.5950067,36.1170574 49.233102,36.640867 C48.7664351,37.3075336 47.8140541,37.8694385 45.1092923,39.040867 C42.0140543,40.3742004 40.6807209,41.2027718 39.4616733,42.5170575 C38.7569114,43.2789623 38.0902446,44.4980098 37.8140543,45.5170575 C37.5854829,46.3646765 37.5283399,48.488486 37.7092924,49.3456289 C38.3473875,52.3361051 40.6045303,54.4218194 43.8616732,55.0408671 C44.9188162,55.240867 47.375959,55.1646764 48.4140541,54.9075337 Z" id="Path" fill="#FFFFFF" transform="translate(45.604338, 41.294587) scale(-1, 1) rotate(-180.000000) translate(-45.604338, -41.294587) "></path>
            </g>
        </g>
    </g>
</svg>