<?xml version="1.0" encoding="UTF-8"?>
<svg width="320px" height="238px" viewBox="0 0 320 238" version="1.1" xmlns="http://www.w3.org/2000/svg" xmlns:xlink="http://www.w3.org/1999/xlink">
    <!-- Generator: Sketch 52.6 (67491) - http://www.bohemiancoding.com/sketch -->
    <title>Group 130</title>
    <desc>Created with Sketch.</desc>
    <defs>
        <polygon id="path-1" points="0.586590273 0.618363525 78.9572867 0.618363525 78.9572867 2.93852459 0.586590273 2.93852459"></polygon>
        <polygon id="path-3" points="0 238.020492 319.24159 238.020492 319.24159 0.477020492 0 0.477020492"></polygon>
    </defs>
    <g id="Page-2" stroke="none" stroke-width="1" fill="none" fill-rule="evenodd">
        <g id="Index-page-(Mobile)" transform="translate(-28.000000, -111.000000)">
            <g id="Group-130" transform="translate(28.000000, 110.000000)">
                <path d="M285.13145,224.231171 L290.623315,224.231171 L285.13145,224.231171 Z" id="Fill-1" fill="#E5EEFD"></path>
                <g id="Group-129" transform="translate(0.000000, 0.502488)">
                    <path d="M285.131645,223.03098 C286.04663,222.677377 286.961615,222.643095 287.877578,222.654849 C288.791584,222.664644 289.707547,222.729291 290.622532,222.924214 C291.065835,223.018246 291.349627,223.455107 291.256661,223.898824 C291.186202,224.226959 290.930789,224.467918 290.622532,224.533545 C289.707547,224.727488 288.791584,224.792136 287.877578,224.80291 C286.961615,224.814664 286.04663,224.780382 285.131645,224.4258 C284.74608,224.276914 284.555254,223.844951 284.704,223.459025 C284.782287,223.255287 284.943755,223.104443 285.131645,223.03098" id="Fill-2" fill="#717791"></path>
                    <path d="M34.4712416,223.728782 L281.097297,223.728782" id="Fill-4" fill="#E5EEFD"></path>
                    <path d="M34.4712416,223.06732 C44.7474495,222.765631 55.0236575,222.717635 65.2998654,222.724492 L96.1275107,222.700004 L157.784758,222.651029 L219.441028,222.601074 L250.269651,222.576586 C260.544881,222.584422 270.821089,222.60793 281.097297,222.865541 C281.572893,222.877295 281.949651,223.273016 281.937908,223.750037 C281.926165,224.211385 281.552343,224.578701 281.097297,224.591434 C270.821089,224.849045 260.544881,224.872553 250.269651,224.880389 L219.441028,224.855902 L157.784758,224.805947 L96.1275107,224.756971 L65.2998654,224.732484 C55.0236575,224.73934 44.7474495,224.691344 34.4712416,224.389656 C34.1062263,224.378881 33.8194985,224.074254 33.830263,223.708898 C33.8400489,223.357254 34.1248196,223.078094 34.4712416,223.06732" id="Fill-6" fill="#717791"></path>
                    <path d="M28.4037676,223.728782 L29.2062141,223.728782" id="Fill-8" fill="#E5EEFD"></path>
                    <path d="M28.4037676,222.749273 C28.5378349,222.718909 28.6709235,222.749273 28.8049908,222.752212 C28.8725138,222.749273 28.9390581,222.783556 29.0056024,222.800208 C29.0731254,222.817839 29.1396697,222.840368 29.2062141,222.885425 C29.6720245,223.198868 29.7943486,223.83065 29.4821774,224.295917 C29.4068257,224.406601 29.3109235,224.500634 29.2062141,224.571159 C29.1396697,224.616216 29.0731254,224.638745 29.0056024,224.656376 C28.9390581,224.674007 28.8725138,224.70829 28.8049908,224.705351 C28.6709235,224.70829 28.5378349,224.737675 28.4037676,224.70829 C27.8626055,224.585851 27.5240122,224.049081 27.6453578,223.508392 C27.7324526,223.117568 28.0377737,222.831552 28.4037676,222.749273" id="Fill-10" fill="#717791"></path>
                    <path d="M18.5289786,223.728782 L22.5255535,223.728782" id="Fill-12" fill="#E5EEFD"></path>
                    <path d="M18.5289786,223.01521 C19.1954006,222.841837 19.860844,222.778169 20.5272661,222.748784 C21.1936881,222.705685 21.8591315,222.734091 22.5255535,222.937829 C22.9620061,223.071042 23.207633,223.53239 23.0755229,223.97023 C22.9923425,224.241554 22.777052,224.440394 22.5255535,224.519734 C21.8591315,224.722493 21.1936881,224.750898 20.5272661,224.70878 C19.860844,224.678415 19.1954006,224.614747 18.5289786,224.442353 C18.1355841,224.339505 17.8987645,223.936927 18.0015168,223.543165 C18.0709969,223.275759 18.2794373,223.080837 18.5289786,223.01521" id="Fill-14" fill="#717791"></path>
                    <path d="M129.383339,236.860362 L206.357529,236.860362" id="Fill-16" fill="#E5EEFD"></path>
                    <g id="Group-20" transform="translate(128.195719, 235.081967)">
                        <mask id="mask-2" fill="white">
                            <use xlink:href="#path-1"></use>
                        </mask>
                        <g id="Clip-19"></g>
                        <path d="M1.1876208,1.1169332 C4.39447095,0.813285656 7.60229969,0.774105328 10.8091498,0.768228279 L20.4306789,0.717293852 L39.6747156,0.618363525 L58.9177737,0.622281557 L68.5402813,0.623261066 C71.7481101,0.637953689 74.9549602,0.656564344 78.1618104,0.915154508 C78.6383853,0.953355328 78.9926361,1.37160533 78.9544709,1.84862582 C78.9202202,2.27765041 78.5777125,2.60774467 78.1618104,2.64104795 C74.9549602,2.90061762 71.7481101,2.91922828 68.5402813,2.93294139 L58.9177737,2.93490041 L39.6747156,2.93881844 L20.4306789,2.83988811 L10.8091498,2.78895369 C7.60229969,2.78307664 4.39447095,2.74389631 1.1876208,2.44024877 C0.822605505,2.40498648 0.554470948,2.08076926 0.589700306,1.7154127 C0.620036697,1.39315451 0.876428135,1.14631844 1.1876208,1.1169332" id="Fill-18" fill="#717791" mask="url(#mask-2)"></path>
                    </g>
                    <path d="M97.7118532,236.860362 L117.436379,236.860362" id="Fill-21" fill="#E5EEFD"></path>
                    <path d="M97.7118532,236.147182 C100.998948,235.973809 104.287021,235.910141 107.574116,235.880756 C110.86219,235.848432 114.149284,235.861166 117.436379,236.068822 C117.87381,236.097227 118.204575,236.473359 118.177174,236.910219 C118.151731,237.312797 117.829774,237.627219 117.436379,237.651707 C114.149284,237.860342 110.86219,237.872096 107.574116,237.840752 C104.287021,237.810387 100.998948,237.746719 97.7118532,237.573346 C97.3194373,237.552777 97.0160734,237.216805 97.0376024,236.823043 C97.0561957,236.454748 97.3536881,236.167752 97.7118532,236.147182" id="Fill-23" fill="#717791"></path>
                    <path d="M208.231731,123.177074 C208.188673,123.80102 208.157358,124.424967 208.128979,125.049893" id="Fill-25" fill="#93B9F4"></path>
                    <path d="M287.527437,114.795324 C259.555327,104.995345 228.913615,115.363439 200.921933,110.654943 C193.446459,109.398234 183.563645,106.872082 177.6823,100.595394 C174.742606,97.4570496 197.109333,83.3041357 222.57918,78.2214676 C233.373064,76.0665496 246.325725,77.7669758 255.995205,70.7507586 C262.73282,65.8630127 267.774532,54.6309922 264.893554,45.2590578 C256.226153,17.0629348 215.860159,40.0588488 178.564012,44.4734922 C129.824196,50.2427955 93.6544098,28.6808816 48.452208,31.7291111 C28.2853578,33.089648 10.545419,63.926525 39.1301284,69.9318898 C49.6754495,72.1465578 62.7553272,73.5962299 72.1547156,80.005152 C77.2639511,83.4892627 79.7662141,90.8953242 75.7520245,96.7802094 C71.8259083,102.533841 63.3150826,102.07739 57.6979572,103.139177 C43.380159,105.847517 28.5378349,108.852648 16.8857248,120.152255 C5.3608318,131.329423 2.02382875,151.355468 13.3304954,164.271263 C24.5530031,177.093025 65.8232171,190.669988 109.636795,174.778447 C125.186642,169.137459 140.115083,157.415685 156.459547,157.258964 C170.105052,157.128689 182.749456,165.383984 195.593492,171.20716 C240.247682,191.452615 287.531352,178.544656 301.012453,164.792361 C315.924257,149.581578 312.325969,123.484541 287.527437,114.795324" id="Fill-27" fill="#E5EEFD"></path>
                    <path d="M288.3063,67.1972988 C293.102385,70.7107947 298.816391,71.7813971 303.821896,69.7195324 C305.974801,68.8330775 307.995596,67.3667537 309.757064,65.2666881 C314.521835,59.5855406 316.112049,50.8022906 313.749725,43.2199176 C311.208318,35.0615939 303.816024,27.5595406 296.276942,29.1424258 C289.515841,30.5627127 280.89737,40.1246717 279.242569,48.220307 C277.733578,55.6018807 283.452477,63.641684 288.3063,67.1972988" id="Fill-29" fill="#E5EEFD"></path>
                    <mask id="mask-4" fill="white">
                        <use xlink:href="#path-3"></use>
                    </mask>
                    <g id="Clip-32"></g>
                    <polygon id="Fill-31" fill="#FFFFFF" mask="url(#mask-4)" points="180.342018 222.460025 274.331988 222.460025 274.331988 133.698951 180.342018 133.698951"></polygon>
                    <polygon id="Fill-33" fill="#E5EEFD" mask="url(#mask-4)" points="205.659107 116.480274 232.997089 133.613832 256.192685 116.739844 294.824612 116.739844 274.555988 134.195659 227.886875 134.195659 187.420086 133.700028 187.420086 117.502881 198.080881 116.2305"></polygon>
                    <path d="M232.133774,170.920458 C232.688636,174.625938 232.86674,178.332397 232.952856,182.038856 C232.987107,183.892085 232.9783,185.744335 232.907841,187.597565 C232.839339,189.450794 232.717994,191.304024 232.457688,193.157253 C232.382336,193.691085 231.889125,194.063298 231.354813,193.988856 C230.914446,193.926167 230.583682,193.577462 230.523988,193.157253 C230.264661,191.304024 230.142336,189.450794 230.074813,187.597565 C230.003376,185.744335 229.994569,183.892085 230.029798,182.038856 C230.114936,178.332397 230.292061,174.625938 230.847902,170.920458 C230.900746,170.564897 231.232489,170.32002 231.58674,170.372913 C231.876404,170.416011 232.092673,170.645216 232.133774,170.920458" id="Fill-34" fill="#717791" mask="url(#mask-4)"></path>
                    <path d="M187.628722,132.726789 L273.632391,132.726789 L272.746765,133.024559 L295.779914,115.568744 L296.665541,118.209498 L256.191902,118.209498 L257.048171,117.934256 C255.634104,119.029346 254.184807,120.075461 252.700281,121.0726 C251.231413,122.092268 249.719486,123.051207 248.229089,124.037572 C245.243401,126.009322 242.21759,127.923281 239.169272,129.806875 C238.844379,130.007674 238.416734,129.906785 238.216122,129.581588 C238.032147,129.282838 238.101627,128.89985 238.364869,128.6824 C241.124502,126.398186 243.907621,124.143359 246.730862,121.947301 C248.143951,120.850252 249.536489,119.724797 250.972086,118.660072 C252.392024,117.572818 253.847193,116.534539 255.336612,115.546215 L255.384563,115.514871 C255.634104,115.349334 255.913982,115.269994 256.191902,115.270973 L296.665541,115.270973 C297.476795,115.270973 298.133431,115.928223 298.133431,116.740236 C298.133431,117.215297 297.902483,117.643342 297.552147,117.911727 L274.518018,135.367543 C274.253798,135.568342 273.940648,135.665314 273.632391,135.665314 L187.628722,135.665314 C186.818446,135.665314 186.160832,135.008064 186.160832,134.196051 C186.160832,133.384039 186.818446,132.726789 187.628722,132.726789" id="Fill-35" fill="#717791" mask="url(#mask-4)"></path>
                    <polyline id="Stroke-36" stroke="#717791" stroke-width="3.556" stroke-linecap="round" stroke-linejoin="round" mask="url(#mask-4)" points="232.320098 133.4289 207.164379 116.74004 187.420281 116.74004 187.420281 133.699245"></polyline>
                    <path d="M275.100086,134.196051 C275.125529,141.24949 275.202838,148.303908 275.18718,155.357346 L275.134336,176.518641 L274.98559,197.679936 C274.945468,204.733375 274.806508,211.786814 274.26241,218.841232 C274.234031,219.188957 273.931645,219.449506 273.583266,219.42208 C273.269138,219.397592 273.026446,219.146838 273.00296,218.841232 C272.457884,211.786814 272.318924,204.733375 272.278801,197.679936 L272.130055,176.518641 L272.077211,155.357346 C272.061554,148.303908 272.138862,141.24949 272.164306,134.196051 C272.167242,133.384039 272.826813,132.728748 273.638067,132.731686 C274.444428,132.734625 275.09715,133.389916 275.100086,134.196051" id="Fill-37" fill="#717791" mask="url(#mask-4)"></path>
                    <path d="M233.787988,134.963692 C233.803645,136.63963 233.777223,138.314589 233.761566,139.990528 L233.748844,141.247237 L233.741994,141.876081 C233.636306,142.085696 233.662728,142.294331 233.64707,142.503946 L233.540404,145.017364 L233.137223,155.070057 C233.11863,155.52161 232.738936,155.873253 232.287804,155.855622 C231.85918,155.837991 231.522544,155.491245 231.503951,155.070057 L231.100771,145.017364 L230.994104,142.503946 C230.978446,142.294331 231.00389,142.085696 230.89918,141.876081 L230.89233,141.247237 L230.879609,139.990528 C230.863951,138.314589 230.83655,136.63963 230.852208,134.963692 C230.860037,134.152659 231.523523,133.500307 232.333798,133.508143 C233.135266,133.514999 233.780159,134.165393 233.787988,134.963692" id="Fill-38" fill="#717791" mask="url(#mask-4)"></path>
                    <path d="M203.945688,116.975807 L213.23156,120.427594 L213.23156,207.002406 C213.23156,215.362508 206.460673,222.139725 198.108379,222.139725 L176.353272,222.139725 L181.394006,132.64402" id="Fill-39" fill="#3F72BA" mask="url(#mask-4)"></path>
                    <path d="M208.288196,36.0525623 L208.288196,198.503997 C208.288196,210.963341 198.198899,221.052275 185.760979,221.052275 L117.573578,221.052275 C107.337492,221.052275 98.6965138,214.225103 95.955474,204.8708 C95.3595107,202.853013 95.0453823,200.717685 95.0453823,198.503997 L95.0453823,36.0525623 C95.0453823,34.7596115 95.1540061,33.4862508 95.368318,32.2520705 C97.1689297,21.6048164 106.426422,13.5042836 117.573578,13.5042836 L185.760979,13.5042836 C196.907156,13.5042836 206.164648,21.6048164 207.955474,32.2520705 C208.181529,33.4862508 208.288196,34.7596115 208.288196,36.0525623" id="Fill-40" fill="#FFFFFF" mask="url(#mask-4)"></path>
                    <path d="M207.955572,32.2521684 L95.3684159,32.2521684 C97.1690275,21.6049143 106.42652,13.5043816 117.573676,13.5043816 L185.761076,13.5043816 C196.907254,13.5043816 206.164746,21.6049143 207.955572,32.2521684" id="Fill-41" fill="#E5EEFD" mask="url(#mask-4)"></path>
                    <path d="M93.9035596,71.7724836 C93.844844,71.5795205 93.8830092,71.3865574 93.9417248,71.1935943 C93.9984832,70.9996516 94.0748135,70.807668 94.201052,70.6137254 C94.5024587,70.1494385 95.124844,70.0181844 95.5886972,70.3208525 C95.7080856,70.3992131 95.8079021,70.5020615 95.8812966,70.6137254 C96.0065566,70.807668 96.084844,70.9996516 96.1406239,71.1935943 C96.200318,71.3865574 96.2375046,71.5795205 96.178789,71.7724836 C95.9899205,72.4013279 95.3264343,72.7568893 94.6981774,72.5678443 C94.3047829,72.4493238 94.0160979,72.1378402 93.9035596,71.7724836" id="Fill-42" fill="#717791" mask="url(#mask-4)"></path>
                    <path d="M94.2199388,65.8749627 C93.9968196,59.8206225 93.8725382,53.7662824 93.7042202,47.7119422 C93.6259327,44.6842824 93.586789,41.6566225 93.5770031,38.6299422 L93.5730887,36.3594422 C93.5799388,35.5924873 93.6406116,34.7608848 93.675841,33.9645447 C93.7257492,33.161348 93.8960245,32.3679463 94.0026911,31.5696471 C94.1348012,30.775266 94.3823853,30.002434 94.5692966,29.2188275 C96.3650153,23.005807 100.817615,17.6508357 106.564893,14.7142701 C109.427278,13.2322742 112.594985,12.3419012 115.807706,12.1107373 C117.456636,11.9941758 118.935291,12.0245406 120.450153,12.021602 L124.985933,12.019643 L161.279021,12.0039709 L179.425076,11.9971143 L183.961835,11.9951553 C184.731988,12.0049504 185.444404,11.9706676 186.261529,12.0186635 C187.064954,12.0764545 187.876208,12.0549053 188.673761,12.1861594 C191.876697,12.5691471 195.002324,13.6172209 197.792294,15.240266 C203.390826,18.464807 207.584098,24.029393 209.097982,30.3266512 C209.329908,31.1034012 209.430703,31.9056184 209.552049,32.7048971 C209.706667,33.5012373 209.72526,34.3093316 209.766361,35.1164463 C209.822141,35.9421717 209.813333,36.6895365 209.812355,37.4447373 L209.813333,39.7142578 L209.817248,48.7962578 L209.832905,85.1232783 L209.862263,157.777319 L209.848563,194.10434 L209.838777,198.654155 C209.795719,199.46127 209.768318,200.271323 209.704709,201.0755 C209.580428,201.875758 209.471804,202.678955 209.325994,203.473336 C208.661529,206.644004 207.33945,209.671664 205.478165,212.315356 C201.778104,217.62527 195.863486,221.33075 189.459572,222.28675 L188.261774,222.466979 L187.052232,222.533586 L185.84367,222.592356 L184.704587,222.596274 L180.16685,222.593336 L171.094312,222.588438 L152.948257,222.578643 L134.801223,222.568848 L125.727706,222.56395 L121.191927,222.561991 L118.922569,222.560032 C118.171009,222.562971 117.420428,222.567868 116.595474,222.512036 C110.140673,222.291647 103.850275,219.27868 99.5982875,214.425217 C97.4610398,212.011709 95.8121101,209.164278 94.7943731,206.100377 C94.5066667,205.346155 94.3657492,204.544918 94.1485015,203.768168 C93.9439755,202.9875 93.8793884,202.178426 93.7423853,201.384045 C93.618104,200.586725 93.6347401,199.775692 93.5789602,198.972495 C93.533945,198.159504 93.5672171,197.443483 93.5574312,196.67359 L93.5770031,160.346569 L93.5955963,124.019549 L93.6053823,105.856528 C93.6024465,99.8021881 93.675841,93.747848 94.3305199,87.6925283 C94.373578,87.300725 94.7258716,87.0166676 95.1182875,87.0587865 C95.4588379,87.0960078 95.716208,87.366352 95.7514373,87.6925283 C96.4061162,93.747848 96.4804893,99.8021881 96.4775535,105.856528 L96.4863609,124.019549 L96.5059327,160.346569 L96.524526,196.67359 C96.5352905,197.418016 96.5039755,198.216315 96.5480122,198.915684 C96.6047706,199.61995 96.5812844,200.333032 96.6938226,201.030442 C96.8200612,201.724914 96.8689908,202.436036 97.0519878,203.118754 C97.248685,203.796573 97.3631804,204.49986 97.6195719,205.159069 C98.5130275,207.838024 99.9593884,210.330873 101.834373,212.442692 C105.570642,216.692778 111.065443,219.31786 116.715841,219.504946 C117.400856,219.555881 118.16318,219.551963 118.922569,219.548045 L121.191927,219.547065 L125.727706,219.545106 L134.801223,219.539229 L152.948257,219.530414 L171.094312,219.520618 L180.16685,219.515721 L184.704587,219.513762 L185.832905,219.508864 L186.888807,219.453032 L187.943731,219.3972 L188.988869,219.234602 C194.562936,218.398102 199.714251,215.164745 202.936758,210.532651 C204.55633,208.226889 205.703242,205.592012 206.278654,202.833717 C206.402936,202.141205 206.492966,201.441836 206.606483,200.746385 L206.720979,198.635545 L206.724893,194.10434 L206.711193,157.777319 L206.74055,85.1232783 L206.756208,48.7962578 L206.759144,39.7142578 L206.760122,37.4447373 C206.76208,36.6856184 206.769908,35.9186635 206.718043,35.2339873 C206.681835,34.5287414 206.672049,33.820557 206.534067,33.1270652 C206.426422,32.4296553 206.34422,31.727348 206.137737,31.0505078 C204.824465,25.5603643 201.16159,20.6882906 196.270581,17.865348 C193.834862,16.4460406 191.110459,15.5292209 188.308746,15.1912906 C186.914251,15.0365283 185.513884,15.0081225 183.961835,15.0188971 L179.425076,15.0169381 L161.279021,15.009102 L124.985933,14.9944094 L120.450153,14.9924504 C118.940183,14.9934299 117.392049,14.9689422 116.022018,15.0708111 C113.204648,15.2716102 110.433272,16.0473807 107.92318,17.3442496 C102.882446,19.9105611 98.9651376,24.6141594 97.390581,30.056307 C97.2310703,30.7449012 97.0069725,31.4188029 96.8924771,32.1171922 C96.8034251,32.8175406 96.6458716,33.5110324 96.6047706,34.2182373 C96.57737,34.9342578 96.5186544,35.6120775 96.5098471,36.3594422 L96.5059327,38.6299422 C96.4961468,41.6566225 96.4570031,44.6842824 96.3787156,47.7119422 C96.2103976,53.7662824 96.0851376,59.8206225 95.8629969,65.8749627 C95.8463609,66.3294545 95.4647095,66.6840365 95.0116208,66.6673848 C94.578104,66.6507332 94.2365749,66.3010488 94.2199388,65.8749627" id="Fill-43" fill="#717791" mask="url(#mask-4)"></path>
                    <path d="M144.069872,22.3240693 C145.393908,22.0331553 146.717945,21.9146348 148.041982,21.8284381 C149.366018,21.7402824 150.690055,21.7559545 152.014092,21.7716266 C154.662165,21.814725 157.310239,21.9498971 159.958312,22.3240693 C160.455437,22.3945939 160.802838,22.8549627 160.731401,23.3525529 C160.674642,23.7639463 160.349749,24.0724914 159.958312,24.1273439 C157.310239,24.501516 154.662165,24.6366881 152.014092,24.6797865 C150.690055,24.6954586 149.366018,24.7111307 148.041982,24.622975 C146.717945,24.5367783 145.393908,24.4182578 144.069872,24.1273439 C143.571768,24.0176389 143.256661,23.5259258 143.366263,23.0283357 C143.445529,22.6649381 143.729321,22.3994914 144.069872,22.3240693" id="Fill-44" fill="#717791" mask="url(#mask-4)"></path>
                    <path d="M158.307229,212.434758 C157.597749,214.047029 156.10148,215.336061 154.345884,215.931602 C152.583437,216.536939 150.608636,216.433111 148.865761,215.748434 C147.129737,215.058861 145.591388,213.810967 144.669554,212.170291 C143.717382,210.556061 143.327902,208.616635 143.595058,206.778098 C143.854385,204.931725 144.754691,203.206811 146.066006,201.933451 C147.387107,200.674783 149.106495,199.829467 150.906128,199.655115 C152.691083,199.439623 154.535731,199.879422 156.012428,200.838361 C157.474446,201.817869 158.576343,203.278316 159.017688,204.901361 C159.09304,205.178561 158.929615,205.464578 158.652673,205.54 C158.420746,205.602689 158.183927,205.49984 158.068453,205.302959 L158.064538,205.296102 C156.58882,202.79052 153.787107,201.485816 151.216343,201.955 C149.934385,202.150902 148.770838,202.829701 147.905761,203.74848 C147.053407,204.686848 146.522031,205.885766 146.422214,207.118967 C146.137443,209.607898 147.680685,212.078217 149.959829,212.987201 C150.521541,213.22816 151.128269,213.349619 151.73989,213.382922 C152.354446,213.437775 152.97096,213.376066 153.579645,213.255586 C154.80093,213.004832 155.973284,212.427902 157.099645,211.544385 L157.129982,211.519898 C157.463682,211.258369 157.946128,211.31616 158.207413,211.651152 C158.388453,211.881336 158.415853,212.184004 158.307229,212.434758" id="Fill-45" fill="#717791" mask="url(#mask-4)"></path>
                    <path d="M196.729443,195.163776 C198.606385,194.735731 200.484306,194.553542 202.361248,194.434042 C204.23819,194.322378 206.115131,194.262628 207.993052,194.372333 C208.803327,194.420329 209.421798,195.116759 209.374826,195.927792 C209.32981,196.681034 208.726997,197.268739 207.993052,197.310858 C206.115131,197.421542 204.23819,197.361792 202.361248,197.249149 C200.484306,197.129649 198.606385,196.94844 196.729443,196.519415 C196.355621,196.434198 196.121737,196.061985 196.206875,195.686833 C196.267547,195.418448 196.477945,195.221567 196.729443,195.163776" id="Fill-46" fill="#717791" mask="url(#mask-4)"></path>
                    <path d="M177.300942,195.250364 C177.821554,194.886967 178.342165,194.726327 178.863755,194.636213 C179.384367,194.571565 179.904979,194.446188 180.42559,195.076991 C180.798434,195.528545 180.785713,196.171102 180.42559,196.606983 C179.904979,197.237786 179.384367,197.11143 178.863755,197.046782 C178.342165,196.956668 177.821554,196.796028 177.300942,196.43361 C176.97507,196.205385 176.894826,195.75677 177.121859,195.430594 C177.171768,195.35811 177.234398,195.297381 177.300942,195.250364" id="Fill-47" fill="#717791" mask="url(#mask-4)"></path>
                    <path d="M95.1879633,194.372235 C107.490838,194.171436 119.793713,194.18319 132.095609,194.196903 L150.548942,194.34383 C156.700379,194.434924 162.851817,194.220411 169.003254,195.272403 C169.317382,195.326276 169.528758,195.624047 169.474936,195.939448 C169.431878,196.187264 169.237138,196.371411 169.003254,196.411571 C162.851817,197.463563 156.700379,197.249051 150.548942,197.339166 L132.095609,197.486092 C119.793713,197.500784 107.490838,197.511559 95.1879633,197.31076 C94.3776881,197.298026 93.7318165,196.629022 93.7435596,195.817989 C93.7572599,195.023608 94.4001957,194.385948 95.1879633,194.372235" id="Fill-48" fill="#717791" mask="url(#mask-4)"></path>
                    <path d="M108.003425,31.8498844 C116.336147,31.0408107 124.66789,31.1426795 133.000612,31.079991 L157.997798,30.9399213 L182.994985,30.9164131 L207.99315,31.0339541 C208.803425,31.0368926 209.457125,31.6980607 209.453211,32.510073 C209.449297,33.3162082 208.796575,33.9685607 207.99315,33.9724787 L182.994985,34.0890402 L157.997798,34.065532 L133.000612,33.9254623 C124.66789,33.8627738 116.336147,33.9646426 108.003425,33.1555689 C107.643303,33.1203066 107.379083,32.8000074 107.413333,32.4395484 C107.444648,32.1221877 107.698104,31.8792697 108.003425,31.8498844" id="Fill-49" fill="#717791" mask="url(#mask-4)"></path>
                    <path d="M180.463266,63.1367475 L188.563083,63.1367475 C190.988037,63.1367475 192.954031,65.1036 192.954031,67.5308213 L192.954031,172.443985 C192.954031,174.870227 190.988037,176.838059 188.563083,176.838059 L105.466813,176.838059 C103.042838,176.838059 101.077823,174.870227 101.077823,172.443985 L101.077823,67.5308213 C101.077823,65.1036 103.042838,63.1367475 105.466813,63.1367475 L159.387303,63.1367475" id="Fill-50" fill="#3F72BA" mask="url(#mask-4)"></path>
                    <path d="M185.134483,56.9885705 L193.2343,56.9885705 C195.659254,56.9885705 197.624269,58.9564025 197.624269,61.3826443 L197.624269,166.295808 C197.624269,168.72303 195.659254,170.689882 193.2343,170.689882 L110.138031,170.689882 C107.714055,170.689882 105.748061,168.72303 105.748061,166.295808 L105.748061,61.3826443 C105.748061,58.9564025 107.714055,56.9885705 110.138031,56.9885705 L164.05852,56.9885705" id="Fill-51" fill="#FFFFFF" mask="url(#mask-4)"></path>
                    <path d="M185.134483,56.322309 C187.12592,55.9824197 189.116379,55.8452885 191.107817,55.7737844 C191.60592,55.7483172 192.104024,55.7532148 192.602128,55.7424402 C192.864391,55.7414607 193.06696,55.728727 193.381089,55.7375426 C193.70011,55.7424402 194.017174,55.7826 194.33326,55.838432 C195.593688,56.0901656 196.757235,56.7787598 197.578275,57.7641451 C198.396379,58.7485508 198.873933,60.0238705 198.888612,61.3060467 L198.89644,64.3131369 L198.904269,70.2920549 L198.940477,94.2096861 L199.01485,142.044948 L199.051058,165.96258 L199.05008,166.348506 L199.024636,166.842178 C198.986471,167.169334 198.939498,167.497469 198.848489,167.815809 C198.676257,168.454448 198.395401,169.063702 198.021578,169.608309 C197.274911,170.698502 196.144636,171.511493 194.874422,171.889584 C194.556379,171.983616 194.232465,172.047284 193.903657,172.088424 C193.587572,172.120748 193.206899,172.132502 192.994544,172.129563 L191.501211,172.131522 L188.513566,172.13642 L176.56592,172.15503 L128.776318,172.226534 L116.828673,172.220657 L110.855339,172.217719 L110.097908,172.21576 C109.763229,172.206944 109.430508,172.184416 109.098765,172.121727 C108.438214,172.002227 107.797235,171.770084 107.213015,171.43901 C106.040661,170.78176 105.125676,169.701362 104.633443,168.45151 C104.384881,167.827563 104.248856,167.1566 104.233199,166.488575 C104.216563,165.892055 104.229284,165.46401 104.22537,164.94487 L104.227327,161.954432 L104.230263,155.975514 L104.235156,144.016698 L104.257664,96.1814361 L104.26745,72.2647844 L104.270385,66.2848869 L104.272343,63.2954279 L104.272343,61.8006984 L104.273321,61.4265262 L104.293872,60.9436287 C104.322251,60.6145139 104.36433,60.2814811 104.453382,59.9602025 C104.766532,58.6603951 105.552343,57.4928213 106.615095,56.6974607 C107.145492,56.2978213 107.743413,55.9853582 108.37852,55.784559 C108.994055,55.5837598 109.735829,55.5102967 110.293627,55.5151943 L116.267939,55.5181328 L140.163229,55.5289074 C148.128979,55.6141246 156.092771,55.2399525 164.05852,56.1841984 C164.501823,56.2370918 164.818887,56.6396697 164.767021,57.0843664 C164.722006,57.4634361 164.421578,57.750432 164.05852,57.7925508 C156.092771,58.7367967 148.128979,58.3626246 140.163229,58.4488213 L116.267939,58.4595959 L110.293627,58.4625344 C109.523474,58.4498008 108.938275,58.6437434 108.388306,59.0531779 C107.857908,59.4508582 107.465492,60.0326861 107.315768,60.6742639 C107.266838,60.8319648 107.25118,60.9984811 107.235523,61.1630385 L107.22378,61.4265262 L107.224758,61.8006984 L107.224758,63.2954279 L107.226716,66.2848869 L107.229651,72.2647844 L107.239437,96.1814361 L107.261945,144.016698 L107.266838,155.975514 L107.269774,161.954432 L107.271731,164.94487 C107.274667,165.420911 107.265859,165.990006 107.277602,166.389645 C107.283474,166.71778 107.350018,167.039059 107.472343,167.339768 C107.711119,167.938248 108.153443,168.473059 108.723963,168.786502 C109.007755,168.945182 109.314055,169.055866 109.633076,169.113657 C109.792587,169.145981 109.955034,169.152838 110.118459,169.160674 L110.855339,169.161653 L116.828673,169.158715 L128.776318,169.152838 L176.56592,169.224342 L188.513566,169.242952 L191.501211,169.24785 L192.994544,169.249809 C193.279315,169.252748 193.396746,169.240993 193.575829,169.229239 C193.74219,169.20867 193.906593,169.177325 194.067083,169.130309 C194.704147,168.940284 195.285431,168.532809 195.668061,167.977428 C195.857908,167.700227 195.999804,167.392661 196.087878,167.069424 C196.137786,166.909764 196.158336,166.742268 196.181823,166.576731 L196.195523,166.323039 L196.19748,165.96258 L196.234667,142.044948 L196.307083,94.2096861 L196.343291,70.2920549 L196.353076,64.3131369 L196.355034,61.3403295 C196.348183,60.626268 196.087878,59.9337557 195.637725,59.3813131 C195.182679,58.8327885 194.538765,58.4527393 193.84592,58.3087516 C193.671731,58.2793664 193.495584,58.2538992 193.315523,58.2519402 C193.132526,58.238227 192.836012,58.2411656 192.602128,58.2352885 C192.104024,58.2235344 191.60592,58.228432 191.107817,58.2029648 C189.116379,58.1324402 187.12592,57.995309 185.134483,57.6544402 C184.766532,57.5917516 184.519927,57.2430467 184.582557,56.8747516 C184.631486,56.5848172 184.860477,56.3693254 185.134483,56.322309" id="Fill-52" fill="#717791" mask="url(#mask-4)"></path>
                    <path d="M119.818177,142.360742 L183.529492,142.360742" id="Fill-53" fill="#E5EEFD" mask="url(#mask-4)"></path>
                    <path d="M119.818177,141.270745 C125.128024,140.714384 130.437872,140.629167 135.745761,140.657573 L151.674324,140.787848 C156.984171,140.806458 162.29304,140.96122 167.601908,141.040561 C172.911755,141.135573 178.221602,141.291315 183.529492,141.478401 C184.01781,141.496032 184.397505,141.904487 184.380869,142.392282 C184.364232,142.857548 183.987474,143.225843 183.529492,143.243475 C178.221602,143.430561 172.911755,143.586302 167.601908,143.681315 C162.29304,143.760655 156.984171,143.915417 151.674324,143.933048 L135.745761,144.065282 C130.437872,144.092708 125.128024,144.007491 119.818177,143.45113 C119.217321,143.388442 118.77989,142.848733 118.843498,142.247315 C118.8983,141.722298 119.314202,141.323639 119.818177,141.270745" id="Fill-54" fill="#A3ACD6" mask="url(#mask-4)"></path>
                    <path d="M139.069847,154.032072 L168.295535,154.032072" id="Fill-55" fill="#E5EEFD" mask="url(#mask-4)"></path>
                    <path d="M139.069847,153.128671 C143.941284,152.122716 148.811743,152.316659 153.68318,152.383266 C158.553639,152.49297 163.425076,152.704544 168.295535,153.218786 C168.744709,153.265802 169.069602,153.66838 169.02263,154.117975 C168.981529,154.508798 168.671315,154.805589 168.295535,154.845749 C163.425076,155.359011 158.553639,155.571565 153.68318,155.68127 C148.811743,155.746897 143.941284,155.940839 139.069847,154.935864 C138.570765,154.833016 138.250765,154.34522 138.353517,153.845671 C138.429847,153.474438 138.721468,153.201155 139.069847,153.128671" id="Fill-56" fill="#A3ACD6" mask="url(#mask-4)"></path>
                    <path d="M119.818177,154.032072 L132.117138,154.032072" id="Fill-57" fill="#E5EEFD" mask="url(#mask-4)"></path>
                    <path d="M119.818177,153.001923 C121.86833,152.194808 123.917505,152.309411 125.967657,152.354468 C128.01781,152.42989 130.067963,152.591509 132.117138,153.001923 C132.684722,153.115546 133.053651,153.668968 132.940135,154.238062 C132.854018,154.666107 132.519339,154.981509 132.117138,155.061829 C130.067963,155.472243 128.01781,155.634841 125.967657,155.709284 C123.917505,155.75532 121.86833,155.868943 119.818177,155.061829 C119.250593,154.838501 118.970716,154.195943 119.193835,153.626849 C119.310287,153.330058 119.54515,153.110648 119.818177,153.001923" id="Fill-58" fill="#A3ACD6" mask="url(#mask-4)"></path>
                    <path d="M170.328465,56.7384041 L170.790361,56.7384041" id="Fill-59" fill="#FFFFFF" mask="url(#mask-4)"></path>
                    <path d="M170.329443,55.7172668 L170.790361,55.6183365 C171.408832,55.4870824 172.016538,55.8808447 172.146691,56.4989143 C172.278801,57.1179635 171.885407,57.7262381 171.267914,57.8584717 C171.107425,57.8927545 170.941064,57.889816 170.790361,57.8584717 L170.329443,57.7595414 C169.765774,57.6390619 169.40663,57.0846602 169.526997,56.5204635 C169.616049,56.105152 169.939963,55.800525 170.329443,55.7172668" id="Fill-60" fill="#717791" mask="url(#mask-4)"></path>
                    <path d="M145.829284,75.6627963 C145.829284,75.6627963 141.850324,75.4629766 142.048979,75.4629766 C142.247633,75.4629766 128.915278,81.903243 128.915278,81.903243 L122.282373,85.8212758 L127.65485,97.3069889 L135.21644,95.1158291 L135.08433,103.480829 L151.069651,124.262075 L162.47907,124.195468 L170.504514,123.664575 L170.571058,96.2442225 L171.898031,95.2490422 L178.066104,97.9044889 L182.776073,85.4892225 L162.411547,75.330743 L145.829284,75.6627963 Z" id="Fill-61" fill="#B8D4FF" mask="url(#mask-4)"></path>
                    <path d="M169.938593,124.966341 C168.708502,125.164202 167.479388,125.066251 166.250275,125.10935 C165.021162,125.12796 163.792049,125.126001 162.561957,125.122083 L160.718287,125.118165 C160.102752,125.093677 159.488196,125.016296 158.873639,124.990829 L155.1863,124.752809 C154.892722,124.734198 154.669602,124.480505 154.689174,124.187632 C154.706789,123.917288 154.92208,123.706694 155.1863,123.690042 L158.873639,123.452022 C159.488196,123.427534 160.102752,123.350153 160.718287,123.324686 L162.561957,123.321747 C163.792049,123.31685 165.021162,123.314891 166.250275,123.333501 C167.479388,123.377579 168.708502,123.279628 169.938593,123.476509 C170.349602,123.543116 170.628502,123.930022 170.562936,124.341415 C170.510092,124.67053 170.249786,124.915407 169.938593,124.966341" id="Fill-62" fill="#717791" mask="url(#mask-4)"></path>
                    <path d="M134.020208,99.8066939 L134.020208,94.6084439 L135.882471,95.8200955 L130.894581,98.0406406 L129.646875,98.5960217 C128.876722,98.9466857 127.913786,98.9202389 127.166141,98.5049275 C126.788404,98.3031488 126.453725,98.0122348 126.206141,97.6586324 C126.144489,97.5704766 126.083817,97.4803619 126.034887,97.3853496 L125.922349,97.1659398 L125.774581,96.8573947 L125.184489,95.6251734 L122.82608,90.6982471 L121.645896,88.234784 L121.351339,87.6186734 L121.203572,87.3101283 C121.136049,87.1710381 121.041125,86.9320381 120.993174,86.7341775 C120.786691,85.8927799 120.987303,84.9710627 121.531401,84.3010791 C121.797578,83.9651078 122.154765,83.6869275 122.532502,83.510616 L123.149015,83.2187225 L124.383021,82.6359152 L126.852012,81.4703004 L131.789994,79.1380914 L141.664,74.4746529 C141.84504,74.3894357 142.041737,74.3482963 142.229627,74.3473168 L163.224367,74.3473168 L163.235131,74.3473168 C163.427914,74.3473168 163.615804,74.3933537 163.780208,74.4697553 L173.661064,79.1351529 L178.599046,81.4673619 L181.067058,82.6339561 L182.302043,83.2167635 L182.919535,83.5076775 C183.289443,83.6790914 183.652502,83.9602102 183.9177,84.2942225 C184.463755,84.9622471 184.667303,85.8790668 184.464734,86.7214439 C184.417761,86.9212635 184.326752,87.1543865 184.255315,87.3042512 L184.107547,87.6118168 L183.812991,88.2279275 L182.632807,90.6913906 L180.273419,95.6183168 L179.683327,96.8495586 L179.536538,97.1571242 C179.508159,97.2168742 179.373113,97.494075 179.258618,97.6439398 C179.012991,97.9985217 178.680269,98.2933537 178.302532,98.4970914 C177.553908,98.9153414 176.601737,98.9506037 175.816905,98.5999398 L174.570177,98.0445586 L169.581309,95.824993 L169.571523,95.8200955 L171.433786,94.6084439 C171.442593,98.1542635 171.325162,101.699104 171.190116,105.243944 C171.047242,108.788784 170.887731,112.334604 170.646997,115.879444 C170.626446,116.176235 170.370055,116.400542 170.072563,116.379973 C169.800514,116.362341 169.590116,116.143911 169.572502,115.879444 C169.331768,112.334604 169.172257,108.788784 169.028404,105.243944 C168.894336,101.699104 168.775927,98.1542635 168.783755,94.6084439 C168.784734,93.8757717 169.37874,93.2821898 170.110728,93.2831693 C170.298618,93.2831693 170.486508,93.3262676 170.647976,93.3967922 L170.656783,93.4007102 L175.644673,95.6212553 L176.890422,96.1746775 C176.938373,96.1923086 176.988281,96.1942676 177.036232,96.1668414 C176.967731,96.4381652 177.515743,95.2186775 177.883694,94.4722922 L180.242104,89.5463455 L181.422287,87.0828824 L181.716844,86.4667717 L181.86559,86.1592061 C181.890055,86.1023947 181.879291,86.1229643 181.888098,86.1004357 C181.897884,86.0573373 181.888098,85.9936693 181.853847,85.956448 C181.833297,85.9358783 181.831339,85.9280422 181.788281,85.9074725 L181.171768,85.6155791 L179.937761,85.0327717 L177.469749,83.867157 L172.534703,81.536907 L162.669505,76.878366 L163.224367,76.999825 L142.229627,76.999825 L142.794275,76.8734684 L132.919291,81.536907 L127.981309,83.869116 L125.513297,85.0347307 L124.278312,85.6185176 L123.661798,85.9094316 C123.626569,85.9270627 123.617761,85.9388168 123.600147,85.958407 C123.564917,85.9946488 123.559046,86.0563578 123.565896,86.0994561 C123.576661,86.1219848 123.56296,86.0965176 123.593297,86.1631242 L123.740086,86.4706898 L124.035621,87.0868004 L125.214826,89.551243 L127.574214,94.4801283 L128.164306,95.7123496 L128.312073,96.0199152 L128.347303,96.0953373 L128.354153,96.1041529 C128.355131,96.1119889 128.361982,96.113948 128.363939,96.119825 C128.375682,96.1403947 128.395254,96.1550873 128.417761,96.1678209 C128.470606,96.1942676 128.510728,96.1952471 128.571401,96.1717389 L129.818128,95.6173373 L134.806997,93.3967922 C135.474398,93.0990217 136.258251,93.4007102 136.555743,94.0697143 C136.632073,94.2430873 136.668281,94.4301734 136.66926,94.6084439 L136.66926,99.8066939 C136.66926,100.539366 136.077211,101.132948 135.345223,101.132948 C134.612257,101.132948 134.020208,100.539366 134.020208,99.8066939" id="Fill-63" fill="#717791" mask="url(#mask-4)"></path>
                    <path d="M143.515596,81.3299369 L143.423609,80.6609328 C143.370765,80.2730475 143.641835,79.9165066 144.029358,79.8626336 C144.158532,79.8450025 144.283792,79.8636131 144.39633,79.9106295 L144.479511,79.9449123 L145.034373,80.1780352 C145.595107,80.4131172 145.859327,81.0595926 145.623486,81.6208508 C145.388624,82.182109 144.743731,82.4465762 144.182997,82.2105148 C143.811131,82.054773 143.569419,81.7178221 143.517554,81.345609 L143.515596,81.3299369 Z" id="Fill-64" fill="#717791" mask="url(#mask-4)"></path>
                    <path d="M164.117627,75.9889725 C163.935609,77.8186939 163.312245,79.6366611 162.256343,81.1656734 C161.210226,82.6995832 159.791266,83.984698 158.139401,84.825116 C156.507107,85.7076529 154.643865,86.1043537 152.822703,86.0994561 C151.008391,86.1023947 149.156893,85.5176283 147.82992,84.3089152 C147.611694,84.110075 147.595058,83.7701857 147.793713,83.5507758 C147.915058,83.4175627 148.087291,83.3597717 148.252673,83.3793619 L148.27518,83.3823004 C149.887902,83.5801611 151.316648,83.7163127 152.761052,83.6007307 C154.194691,83.5008209 155.585272,83.0845299 156.803621,82.371448 C158.031755,81.6710996 159.080807,80.6896324 159.885211,79.5367512 C160.698422,78.3858291 161.216098,77.0507594 161.489125,75.6539807 L161.498911,75.6030463 C161.639829,74.8840873 162.336587,74.4158824 163.053896,74.555952 C163.729125,74.6881857 164.182214,75.3170299 164.117627,75.9889725" id="Fill-65" fill="#717791" mask="url(#mask-4)"></path>
                    <path d="M144.43019,129.118673 C144.187498,129.10398 143.940893,129.106918 143.701138,129.071656 C142.406459,128.876734 141.268355,129.24405 140.212453,129.986517 C138.573309,131.142336 138.556673,131.146255 136.899914,129.98064 C135.82444,129.224459 134.674593,128.914935 133.358385,129.068718 C131.506887,129.285189 131.41392,129.225439 130.633003,127.502484 C130.065419,126.249693 129.184685,125.372054 127.934043,124.806877 C126.225419,124.035025 126.164746,123.940013 126.37808,122.07307 C126.53074,120.734082 126.20389,119.572386 125.430801,118.487091 C124.299547,116.897349 124.298569,116.848373 125.435694,115.253734 C126.209761,114.16648 126.529761,113.003804 126.377101,111.666775 C126.164746,109.812566 126.238141,109.693066 127.936979,108.936886 C129.194471,108.377586 130.068355,107.498968 130.633982,106.244218 C131.416856,104.508529 131.521566,104.450738 133.407315,104.680923 C134.707865,104.839603 135.839119,104.518324 136.894043,103.767041 C138.549823,102.588693 138.568416,102.589673 140.206581,103.753328 C141.276183,104.514406 142.421138,104.840582 143.742239,104.678964 C145.601566,104.450738 145.734654,104.531058 146.501872,106.263808 C147.05282,107.506804 147.917896,108.371709 149.158752,108.924152 C150.89282,109.696984 150.964257,109.810607 150.749945,111.685386 C150.597284,113.024373 150.929028,114.185091 151.705052,115.269406 C152.818691,116.826824 152.820648,116.918898 151.716795,118.459664 C150.929028,119.558673 150.592391,120.734082 150.750924,122.09266 C150.964257,123.919443 150.876183,124.054615 149.175388,124.813734 C147.937468,125.365197 147.034226,126.21541 146.517529,127.472119 C146.431413,127.680755 146.315939,127.876656 146.228844,128.085291 C145.892208,128.892406 145.345174,129.32241 144.43019,129.118673" id="Fill-66" fill="#FFFFFF" mask="url(#mask-4)"></path>
                    <path d="M143.50992,127.197955 C143.305394,127.185221 143.097933,127.18816 142.895364,127.157795 C141.803254,126.994217 140.843254,127.303742 139.953713,127.930627 C138.57096,128.904258 138.55726,128.908176 137.160807,127.92475 C136.25463,127.28709 135.283865,127.026541 134.174141,127.155836 C132.612306,127.338025 132.534018,127.28807 131.876404,125.83448 C131.397872,124.779549 130.655119,124.039041 129.600196,123.56202 C128.159706,122.911627 128.10882,122.831307 128.287902,121.257238 C128.417076,120.127865 128.142092,119.148357 127.48937,118.232516 C126.535242,116.892549 126.535242,116.85141 127.493284,115.506545 C128.146985,114.590705 128.416098,113.609238 128.286924,112.482803 C128.10882,110.918529 128.170471,110.817639 129.603131,110.17998 C130.662948,109.708836 131.400807,108.968328 131.877382,107.90948 C132.536954,106.446094 132.625028,106.398098 134.21622,106.591061 C135.312245,106.725254 136.266373,106.45491 137.155914,105.821168 C138.552367,104.827947 138.567046,104.827947 139.947841,105.810393 C140.850104,106.450992 141.816954,106.727213 142.929615,106.590082 C144.499278,106.398098 144.610838,106.465684 145.256709,107.926131 C145.721541,108.974205 146.451572,109.704918 147.496709,110.170184 C148.958728,110.821557 149.020379,110.917549 148.839339,112.498475 C148.710165,113.626869 148.990043,114.606377 149.644722,115.520258 C150.584171,116.832799 150.58515,116.91116 149.654508,118.209988 C148.990043,119.137582 148.706251,120.127865 148.839339,121.273889 C149.019401,122.814656 148.946006,122.928279 147.511388,123.567898 C146.467229,124.033164 145.705884,124.749184 145.27041,125.809992 C145.197994,125.985324 145.100135,126.150861 145.02674,126.326193 C144.742948,127.006951 144.281052,127.370348 143.50992,127.197955" id="Fill-67" fill="#D5BEFD" mask="url(#mask-4)"></path>
                    <path d="M152.467278,119.237982 C152.571988,119.933432 152.492722,120.367355 152.392905,120.825764 C152.299939,121.289072 152.29211,121.738666 152.358654,122.264662 C152.393884,122.570268 152.43107,122.88665 152.443792,123.259842 C152.446728,123.615404 152.456514,124.148256 152.118899,124.732043 C151.757798,125.293301 151.322324,125.525445 151.019939,125.701756 C150.69896,125.87415 150.411254,126.005404 150.132355,126.13176 C149.176269,126.549031 148.485382,127.149469 148.053823,127.98401 C148.001957,128.087838 147.95107,128.194605 147.906055,128.305289 L147.718165,128.706887 C147.601713,128.937072 147.455902,129.356301 147.179939,129.733412 C146.915719,130.114441 146.463609,130.515059 145.912661,130.689412 C145.362691,130.870621 144.84208,130.827523 144.421284,130.737408 L144.601346,130.763855 C144.230459,130.739367 143.717676,130.709982 143.509235,130.680596 C143.239144,130.659047 142.974924,130.667863 142.714618,130.707043 C142.194006,130.784424 141.68318,130.997957 141.188991,131.313359 L140.336636,131.901064 C140.008807,132.103822 139.680979,132.384941 138.955841,132.556355 C138.580061,132.631777 138.152416,132.579863 137.844159,132.473096 C137.55156,132.369268 137.319633,132.244871 137.14055,132.135166 C136.768685,131.910859 136.477064,131.701244 136.18055,131.496527 C135.692232,131.15174 135.196086,130.923514 134.669602,130.805973 C134.405382,130.747203 134.137248,130.715859 133.858349,130.715859 C133.569664,130.7139 133.33578,130.742305 132.935535,130.789322 C132.550948,130.821645 132.192783,130.889232 131.597798,130.828502 C131.318899,130.805973 130.899083,130.682555 130.576147,130.456289 C130.240489,130.228064 130.032049,129.95576 129.894067,129.746145 C129.36367,128.898871 129.19633,128.276883 128.888073,127.834145 C128.586667,127.361043 128.20893,126.971199 127.750948,126.657756 C127.521957,126.501035 127.273394,126.363904 127.007217,126.244404 C126.679388,126.094539 126.344709,125.951531 125.945443,125.729182 C125.751682,125.620457 125.514862,125.473531 125.265321,125.23551 C125.00893,125.008264 124.762324,124.594912 124.674251,124.249145 C124.491254,123.526268 124.585199,123.142301 124.598899,122.739723 L124.655657,122.180424 C124.671315,122.023703 124.680122,121.893428 124.685015,121.7514 C124.692844,121.474199 124.671315,121.204834 124.622385,120.943305 C124.522569,120.421227 124.320979,119.919719 124.00685,119.437801 L123.404037,118.556244 C123.209297,118.207539 122.868746,117.836305 122.793394,116.968461 C122.774801,116.557068 122.889297,116.165264 123.006728,115.909613 C123.125138,115.648084 123.245505,115.452182 123.358043,115.275871 C123.577248,114.935982 123.816024,114.62058 123.984343,114.373744 C124.311193,113.896723 124.535291,113.399133 124.639021,112.872158 C124.691865,112.60867 124.717309,112.338326 124.714373,112.059166 C124.714373,111.920076 124.705566,111.779027 124.690887,111.636018 L124.637064,111.093371 C124.611621,110.705486 124.548991,110.307805 124.662508,109.668186 C124.730031,109.337113 124.914006,108.940412 125.164526,108.662232 C125.417982,108.370338 125.649908,108.235166 125.86422,108.095096 C126.275229,107.856096 126.616758,107.71015 126.950459,107.561264 C127.246972,107.43099 127.480856,107.309531 127.719633,107.152809 C128.187401,106.849162 128.571988,106.462256 128.880245,105.992092 C129.041713,105.747215 129.158165,105.523887 129.302018,105.208486 C129.458593,104.873494 129.599511,104.54242 129.854924,104.12515 C129.989969,103.915535 130.152416,103.675555 130.440122,103.432637 C130.7337,103.186781 131.128073,103.0281 131.447095,102.972268 C132.070459,102.878236 132.457003,102.947781 132.840612,102.979125 L133.379817,103.041814 C133.521713,103.057486 133.661651,103.06924 133.800612,103.071199 C134.077554,103.076096 134.346667,103.053568 134.611865,103.000674 C135.138349,102.895867 135.644281,102.664703 136.128685,102.329711 C136.408563,102.137727 136.706055,101.919297 137.053456,101.699887 C137.23841,101.588223 137.425321,101.470682 137.702263,101.359018 C137.953761,101.247355 138.358899,101.149404 138.746422,101.192502 C139.54789,101.300248 139.88159,101.616629 140.225076,101.81449 L141.096024,102.421785 C141.584343,102.745023 142.096147,102.960514 142.633394,103.055527 C142.902508,103.104502 143.17945,103.120174 143.462263,103.1094 C143.720612,103.103523 144.071927,103.046711 144.471193,103.013408 C144.86263,102.993818 145.289297,102.913498 145.975291,103.116256 C146.313884,103.224002 146.65737,103.458105 146.872661,103.698084 C147.077187,103.929248 147.223976,104.156494 147.324771,104.344559 C147.539083,104.732445 147.681957,105.072334 147.829725,105.400469 C147.948135,105.670814 148.087095,105.925486 148.247584,106.158609 C148.564648,106.628773 148.9737,106.997068 149.437554,107.341855 L149.796697,107.603383 L149.986544,107.736596 C150.070703,107.793408 150.154862,107.850219 150.235107,107.912908 C150.561957,108.154846 150.870214,108.415395 151.132477,108.708268 C151.356575,108.957064 151.336024,109.341031 151.086483,109.565338 C150.958287,109.679941 150.794862,109.730875 150.63633,109.719121 L150.445505,109.704428 C150.073639,109.675043 149.747768,109.613334 149.439511,109.533014 C149.361223,109.516363 149.287829,109.492855 149.213456,109.468367 L148.920856,109.375314 C148.724159,109.305768 148.536269,109.214674 148.346422,109.119662 C147.59682,108.722961 146.948012,108.095096 146.460673,107.391809 C146.216024,107.040166 146.01052,106.667953 145.841223,106.288883 C145.695413,105.969564 145.554495,105.655141 145.421407,105.422018 C145.354862,105.296641 145.297125,105.230035 145.268746,105.191834 C145.241346,105.171264 145.281468,105.20065 145.281468,105.20065 C145.283425,105.187916 144.982018,105.172244 144.669847,105.210445 C144.36159,105.235912 144.010275,105.29958 143.558165,105.322109 C143.13052,105.341699 142.693089,105.321129 142.26055,105.247666 C141.394495,105.103678 140.57052,104.753014 139.871804,104.297543 L138.988135,103.690248 C138.738593,103.513936 138.460673,103.402273 138.544832,103.440473 C138.674006,103.421863 138.517431,103.443412 138.260061,103.616785 C138.008563,103.778404 137.731621,103.981162 137.428257,104.195674 C136.749113,104.674654 135.942752,105.065477 135.07474,105.244727 C134.642202,105.334842 134.199878,105.375982 133.767339,105.370105 C133.550092,105.369125 133.334801,105.354432 133.123425,105.331904 L132.601835,105.275092 C132.280856,105.23885 131.952049,105.231014 131.870826,105.250605 C131.841468,105.262359 131.899205,105.242768 131.91682,105.222199 C131.931498,105.210445 131.883547,105.261379 131.828746,105.351494 C131.710336,105.541518 131.564526,105.863777 131.424587,106.17526 C131.277798,106.508293 131.072294,106.920666 130.841346,107.27133 C130.377492,107.995186 129.743364,108.64558 129.021162,109.120641 C128.668869,109.358662 128.268624,109.565338 127.91633,109.724018 C127.600245,109.865068 127.291009,110.010035 127.08844,110.131494 C127.007217,110.185367 126.931865,110.241199 126.958287,110.225527 C126.973945,110.215732 127.003303,110.149125 126.993517,110.164797 C126.978838,110.229445 126.981774,110.549744 127.017982,110.868084 L127.07474,111.386244 C127.096269,111.597818 127.111927,111.81135 127.114862,112.027822 C127.121713,112.460764 127.085505,112.902523 127.002324,113.337424 C126.838899,114.211145 126.466055,115.035891 125.993394,115.734281 C125.761468,116.076129 125.572599,116.329822 125.408196,116.590371 C125.226177,116.849941 125.212477,117.023314 125.234006,116.861695 C125.19682,116.716727 125.276086,116.967482 125.45419,117.212359 L126.063853,118.08608 C126.531621,118.790346 126.899572,119.625867 127.050275,120.505465 C127.127584,120.943305 127.158899,121.388002 127.143242,121.821924 C127.136391,122.034477 127.117798,122.259764 127.095291,122.457625 L127.041468,122.959133 C127.00526,123.260822 127.011131,123.60365 127.022875,123.571326 C127.029725,123.566428 126.96318,123.476314 126.971988,123.489047 C126.979817,123.495904 127.040489,123.548797 127.155963,123.612465 C127.377125,123.738822 127.69419,123.883789 128.012232,124.030715 C128.392905,124.205068 128.768685,124.413703 129.124893,124.661518 C129.840245,125.154211 130.465566,125.812441 130.920612,126.544133 C131.395229,127.296395 131.639878,128.06335 131.882569,128.414994 C131.93737,128.50217 131.959878,128.511965 131.921713,128.4816 C131.891376,128.453195 131.817982,128.452215 131.894312,128.460051 C132.005872,128.48258 132.361101,128.458092 132.68208,128.423809 C132.987401,128.389527 133.46104,128.333695 133.884771,128.34349 C134.317309,128.348387 134.758654,128.400301 135.189235,128.499232 C136.051376,128.693174 136.86263,129.092814 137.529052,129.573752 C137.81578,129.775531 138.103486,129.980248 138.339327,130.124236 C138.461651,130.203576 138.549725,130.237859 138.590826,130.257449 C138.621162,130.260387 138.553639,130.250592 138.529174,130.261367 C138.502752,130.278998 138.78263,130.153621 139.042936,129.967514 C139.321835,129.783367 139.579205,129.588445 139.952049,129.351404 C140.656636,128.907686 141.484526,128.553105 142.375046,128.427727 C142.81737,128.36308 143.268502,128.352305 143.706911,128.391486 C144.204037,128.458092 144.402691,128.448297 144.740306,128.477682 L144.765749,128.479641 C144.816636,128.483559 144.871437,128.493355 144.920367,128.50315 C145.080856,128.538412 145.180673,128.528617 145.202202,128.519801 C145.224709,128.510986 145.254067,128.507068 145.335291,128.400301 C145.417492,128.293535 145.476208,128.141711 145.622997,127.836105 L145.817737,127.423732 C145.887217,127.258195 145.965505,127.094617 146.049664,126.932018 C146.71315,125.617518 147.973578,124.599809 149.21737,124.087527 C149.483547,123.969986 149.741896,123.851465 149.949358,123.74176 C150.165627,123.632055 150.251743,123.528227 150.215535,123.577203 C150.188135,123.640871 150.235107,123.545859 150.225321,123.309797 C150.21945,123.08451 150.193028,122.804371 150.160734,122.515416 C150.078532,121.853268 150.084404,121.089252 150.239021,120.378129 C150.379939,119.663088 150.765505,118.972535 151.492599,118.646359 C151.84,118.489637 152.248073,118.645379 152.404648,118.993105 C152.430092,119.050895 152.447706,119.109666 152.456514,119.169416 L152.467278,119.237982 Z" id="Fill-68" fill="#717791" mask="url(#mask-4)"></path>
                    <path d="M133.055902,121.72985 C133.502141,120.457469 134.299694,119.537711 135.114862,118.634605 C135.940795,117.741293 136.864587,116.946912 137.747278,116.111391 C139.525382,114.454064 141.302508,112.793797 143.148135,111.205035 C143.518043,110.886695 144.075841,110.928814 144.393884,111.299068 C144.682569,111.634059 144.67474,112.124793 144.393884,112.450969 C142.806606,114.299301 141.14789,116.077109 139.49211,117.857855 C138.65737,118.741371 137.863731,119.666027 136.971254,120.491752 C136.068991,121.307682 135.150092,122.106961 133.878899,122.552637 C133.542263,122.671158 133.174312,122.493867 133.055902,122.157895 C133.005994,122.013908 133.009908,121.863064 133.055902,121.72985" id="Fill-69" fill="#717791" mask="url(#mask-4)"></path>
                    <path d="M136.307083,111.354606 C137.249468,112.296893 137.249468,113.825905 136.307083,114.768192 C135.365676,115.711458 133.83907,115.711458 132.896685,114.768192 C131.9543,113.825905 131.9543,112.296893 132.896685,111.354606 C133.83907,110.411339 135.365676,110.411339 136.307083,111.354606 Z" id="Stroke-70" stroke="#717791" stroke-width="2.2" stroke-linecap="round" stroke-linejoin="round" mask="url(#mask-4)"></path>
                    <path d="M144.226642,119.183031 C145.169028,120.125318 145.169028,121.65433 144.226642,122.596617 C143.284257,123.539884 141.757651,123.539884 140.816245,122.596617 C139.873859,121.65433 139.873859,120.125318 140.816245,119.183031 C141.757651,118.240744 143.284257,118.240744 144.226642,119.183031 Z" id="Stroke-71" stroke="#717791" stroke-width="2.2" stroke-linecap="round" stroke-linejoin="round" mask="url(#mask-4)"></path>
                    <path d="M158.139107,94.1806926 C159.523817,94.0993934 163.51452,94.1806926 165.020575,94.1806926" id="Fill-72" fill="#FFFFFF" mask="url(#mask-4)"></path>
                    <path d="M158.085578,93.2609344 C159.227596,93.0258525 160.387229,92.976877 161.544905,92.9827541 C162.704538,92.9984262 163.866128,93.0807049 165.020869,93.4049221 C165.448514,93.5254016 165.698055,93.9700984 165.577688,94.3981434 C165.500379,94.6773033 165.281174,94.881041 165.020869,94.9554836 C163.882765,95.2806803 162.751511,95.3619795 161.615364,95.3776516 C160.480196,95.3835287 159.345028,95.3355328 158.193223,95.0994713 L158.086557,95.0779221 C157.584538,94.9760533 157.261602,94.4853197 157.364355,93.9838115 C157.440685,93.6086598 157.734263,93.333418 158.085578,93.2609344" id="Fill-73" fill="#717791" mask="url(#mask-4)"></path>
                    <path d="M151.802128,111.854841 C152.032098,112.21432 152.041884,112.517968 151.994911,112.807902 C151.943046,113.095877 151.842251,113.372099 151.590752,113.610119 C151.169957,114.010738 150.506471,113.993107 150.107205,113.571918 C149.998581,113.457316 149.919315,113.320185 149.871364,113.181095 C149.76274,112.85198 149.80482,112.561066 149.893872,112.281906 C149.987817,112.003726 150.139498,111.740238 150.512343,111.531603 C150.961517,111.280849 151.526165,111.427775 151.802128,111.854841" id="Fill-74" fill="#717791" mask="url(#mask-4)"></path>
                    <path d="M150.727046,115.417116 C151.182092,115.331899 151.618544,115.386751 152.097076,115.644362 C152.322153,115.777575 152.578544,115.98621 152.751755,116.268309 C152.926924,116.553345 153.048269,116.896173 153.052183,117.202759 C153.092306,117.828665 152.903437,118.298829 152.681297,118.681817 C152.45622,119.071661 152.17145,119.378247 151.810349,119.625083 C151.55885,119.798456 151.214385,119.734788 151.041174,119.482075 C150.977566,119.388042 150.946251,119.282255 150.944294,119.176468 L150.944294,119.132391 C150.937443,118.725895 151.007902,118.375231 151.036281,118.064727 C151.072489,117.755202 151.090104,117.488776 151.071511,117.368296 C151.032367,117.256632 151.09989,117.247817 150.97463,117.036243 C150.870899,116.828587 150.625272,116.566079 150.399217,116.187989 L150.388453,116.170358 C150.245578,115.931358 150.322887,115.622813 150.560685,115.479805 C150.613529,115.44846 150.670287,115.427891 150.727046,115.417116" id="Fill-75" fill="#717791" mask="url(#mask-4)"></path>
                    <polygon id="Fill-76" fill="#3F72BA" mask="url(#mask-4)" points="90.2223853 147.951775 105.149847 146.773426 113.360245 146.773426 116.494679 161.913684 119.647706 156.722291 123.062997 156.98284 130.376024 220.931012 112.165382 219.884898"></polygon>
                    <polygon id="Fill-77" fill="#FFFFFF" mask="url(#mask-4)" points="115.574116 172.279232 54.4590092 172.279232 60.4587645 145.325125 109.574361 145.325125"></polygon>
                    <polygon id="Stroke-78" stroke="#717791" stroke-width="3" stroke-linecap="round" stroke-linejoin="round" mask="url(#mask-4)" points="115.574116 172.279232 54.4590092 172.279232 60.4587645 145.325125 109.574361 145.325125"></polygon>
                    <path d="M47.7014312,221.139354 C46.9792294,220.333218 46.5760489,219.240087 46.6797798,218.066636 L52.0336636,158.041395 C52.1765382,156.441858 53.5152538,155.216493 55.1191682,155.216493 L118.002593,155.216493 C118.857884,155.216493 119.571278,155.869825 119.648587,156.721997 L125.118924,218.066636 C125.244183,219.476149 124.637456,220.770079 123.624612,221.588948 C123.186202,221.94353 122.841737,222.371575 122.59611,222.841739" id="Fill-79" fill="#FFFFFF" mask="url(#mask-4)"></path>
                    <path d="M47.1442202,221.640176 C46.2507645,220.778209 45.7213456,219.510725 45.7262385,218.219734 C45.7565749,217.084484 45.7918043,216.102037 45.8563914,215.038291 C45.9787156,212.949 46.0628746,210.85677 46.2165138,208.770418 C46.4914985,204.595754 46.8682569,200.429906 47.2225076,196.261119 L49.3705199,171.255254 L50.4450153,158.751832 L50.5125382,157.971164 C50.5409174,157.647926 50.609419,157.215963 50.7356575,156.859422 C50.9754128,156.114016 51.4187156,155.442074 51.9862997,154.909221 C52.5617125,154.385184 53.2662997,153.993381 54.0296024,153.813152 C54.3985321,153.714221 54.8242202,153.681898 55.1657492,153.67798 L55.9496024,153.675041 L62.2184709,153.654471 L87.2929664,153.573172 L112.367462,153.547705 L115.502875,153.548684 L117.069602,153.549664 L117.853456,153.549664 C117.929786,153.550643 118.224343,153.543787 118.485627,153.586885 C118.745933,153.622148 119.001346,153.69659 119.245994,153.791602 C120.22263,154.184385 120.983976,155.058107 121.223731,156.089529 C121.349969,156.721311 121.313761,156.808488 121.352905,157.111156 L121.422385,157.891824 L121.701284,161.016455 L122.811988,173.516939 L124.945321,198.523783 L126.011988,211.028184 L126.545321,217.279406 L126.610887,218.10709 C126.633394,218.461672 126.618716,218.821152 126.567829,219.174754 C126.472905,219.884898 126.230214,220.573492 125.874985,221.190582 C125.533456,221.793959 125.005015,222.380684 124.516697,222.759754 C124.227034,222.949779 123.887462,222.998754 122.940183,223.022262 L122.860917,223.024221 C122.597676,223.030098 122.365749,222.882193 122.253211,222.661803 C121.789358,221.757717 122.121101,220.979008 122.633884,220.500029 C122.962691,220.227725 123.134924,220.016152 123.314985,219.712504 C123.477431,219.42257 123.587034,219.105209 123.626177,218.777074 C123.649664,218.613496 123.655535,218.447959 123.641835,218.280463 L123.576269,217.544852 L122.994985,211.297549 L121.831437,198.801963 L119.505321,173.81177 L118.387768,161.313246 L118.108869,158.188615 L117.988502,156.871176 C117.994373,156.879012 117.990459,156.880971 117.99633,156.880971 L112.367462,156.88391 L87.2929664,156.858443 L62.2184709,156.777143 L55.9496024,156.756574 L55.1657492,156.754615 C54.9876453,156.759512 54.8878287,156.76343 54.7508257,156.798693 C54.4944343,156.853545 54.2585933,156.988717 54.0570031,157.16209 C53.8651988,157.344279 53.7086239,157.567607 53.6293578,157.82032 C53.5804281,157.957451 53.5657492,158.044627 53.5432416,158.241508 L53.4718043,159.023156 L52.3160856,171.518742 L50.0056269,196.509914 C49.6161468,200.674783 49.2491743,204.841611 48.7814067,208.999623 C48.564159,211.080098 48.2764526,213.153717 48.0269113,215.232234 C47.9094801,216.251902 47.7450765,217.35091 47.6110092,218.300053 C47.5190214,219.101291 47.7480122,219.946607 48.2598165,220.638139 L48.2686239,220.651852 C48.5152294,220.985865 48.4457492,221.457008 48.1120489,221.702865 C47.8125994,221.925213 47.4035474,221.89093 47.1442202,221.640176" id="Fill-80" fill="#717791" mask="url(#mask-4)"></path>
                    <polygon id="Fill-81" fill="#E5EEFD" mask="url(#mask-4)" points="54.4493211 155.219627 65.2324404 150.240787 60.370789 145.217869 109.623388 145.217869 106.029015 149.394492 118.344612 155.207873"></polygon>
                    <polygon id="Stroke-82" stroke="#717791" stroke-width="3" stroke-linecap="round" stroke-linejoin="round" mask="url(#mask-4)" points="54.4493211 155.219627 65.2324404 150.240787 60.370789 145.217869 109.623388 145.217869 106.029015 149.394492 118.344612 155.207873"></polygon>
                    <path d="M101.254557,169.532985 L101.254557,176.347423 C101.254557,185.165936 93.3025076,190.980296 84.4922324,190.980296 C75.6819572,190.980296 69.3504587,185.165936 69.3504587,176.347423 L69.3504587,169.532985" id="Stroke-83" stroke="#717791" stroke-width="3" stroke-linecap="round" stroke-linejoin="round" mask="url(#mask-4)"></path>
                    <path d="M74.1072049,172.186473 C73.7617615,173.303112 72.7949113,174.221891 71.6313639,174.648956 C70.4599878,175.09953 69.1281223,175.003538 67.9567462,174.554923 C66.790263,174.093575 65.7490398,173.260993 65.1364404,172.153169 C64.5023119,171.063956 64.2439633,169.759251 64.4328318,168.530948 C64.6177859,167.294809 65.2284281,166.144866 66.1101407,165.306407 C67.0016391,164.480682 68.1534434,163.941952 69.3424343,163.844001 C70.5206606,163.721563 71.7292232,164.032067 72.6735657,164.686378 C73.6169297,165.343628 74.2745443,166.340768 74.4849419,167.388841 C74.5417003,167.673878 74.3577248,167.951079 74.0739327,168.007891 C73.8694067,168.04903 73.6697737,167.965772 73.5523425,167.811009 L73.531792,167.783583 C72.5111193,166.43578 70.9972355,165.866686 69.6536269,166.149764 C68.3080612,166.413251 67.3177248,167.631759 67.2648807,168.872796 C67.1503853,170.130485 67.9313028,171.324505 69.051792,171.794669 C69.6105688,172.037587 70.2446972,172.036608 70.8651254,171.973919 C71.4943609,171.889682 72.1372966,171.683005 72.8986422,171.29512 L72.9925872,171.248104 C73.3820673,171.049264 73.8576636,171.205005 74.0553394,171.59485 C74.1522202,171.783895 74.1649419,171.997427 74.1072049,172.186473" id="Fill-84" fill="#717791" mask="url(#mask-4)"></path>
                    <path d="M104.843058,172.186473 C104.498593,173.303112 103.530765,174.221891 102.367217,174.648956 C101.195841,175.09953 99.8649541,175.003538 98.693578,174.554923 C97.5261162,174.093575 96.4858716,173.260993 95.8732722,172.153169 C95.2391437,171.063956 94.9807951,169.759251 95.168685,168.530948 C95.3536391,167.294809 95.9642813,166.144866 96.8459939,165.306407 C97.7384709,164.480682 98.8902752,163.941952 100.078287,163.844001 C101.256514,163.721563 102.465076,164.032067 103.410398,164.686378 C104.353761,165.343628 105.010398,166.340768 105.220795,167.388841 C105.277554,167.673878 105.093578,167.951079 104.809786,168.007891 C104.606239,168.04903 104.405627,167.965772 104.288196,167.811009 L104.267645,167.783583 C103.246972,166.43578 101.734067,165.866686 100.38948,166.149764 C99.0439144,166.413251 98.053578,167.631759 98.0017125,168.872796 C97.8872171,170.130485 98.667156,171.324505 99.7876453,171.794669 C100.347401,172.037587 100.98055,172.036608 101.600979,171.973919 C102.230214,171.889682 102.87315,171.683005 103.635474,171.29512 L103.72844,171.248104 C104.11792,171.049264 104.593517,171.205005 104.792171,171.59485 C104.889052,171.783895 104.900795,171.997427 104.843058,172.186473" id="Fill-85" fill="#717791" mask="url(#mask-4)"></path>
                    <path d="M75.8817859,14.6597115 C73.2601346,15.134773 70.6394618,15.3698549 68.0178104,15.5353918 C65.396159,15.6852566 62.7745076,15.7783098 60.1538349,15.6529328 L60.0109602,15.6460762 C59.352367,15.614732 58.8239266,15.1239984 58.7192171,14.4980926 L58.7192171,14.4971131 C58.1663119,11.9543098 57.5977492,9.51043689 56.4058226,7.53574836 C55.2305321,5.58260902 53.3633761,4.01637541 51.2828869,3.55208852 C49.2738349,3.08584262 46.8831315,3.82243279 45.7420917,5.38768689 C44.548208,6.95392049 44.5511437,9.43011721 44.7811131,11.9601869 L41.8560979,11.9474533 C41.9725505,10.7005393 41.6398287,9.37526475 40.9411131,8.3771459 C40.2541407,7.36825246 39.1982385,6.74626475 38.0033761,6.6081541 C36.8143853,6.47592049 35.693896,6.86086721 35.0333456,7.71010082 C34.3307156,8.56227295 34.1017248,9.8346541 34.5039266,10.6946623 L31.8176881,11.8808467 C31.8118165,11.8769287 31.7893089,11.8269738 31.6523058,11.7701623 C31.5192171,11.7172689 31.3166483,11.7074738 31.1698593,11.7427361 C30.9105321,11.7956295 30.4701651,12.1678426 30.227474,12.7437934 C29.9730398,13.3079902 29.8536514,14.0387033 29.9006239,14.726318 C29.9417248,15.4227484 30.1472294,16.1103631 30.4799511,16.7039451 L30.4956086,16.7303918 C30.8890031,17.4522893 30.6257615,18.3573549 29.9055168,18.7520967 C29.6921835,18.8686582 29.4631927,18.9274287 29.2371376,18.9342852 L29.2234373,18.9342852 C26.8258838,18.9989328 24.4283303,18.9793426 22.0317554,18.9489779 C19.6332232,18.8862893 17.2366483,18.84515 14.8390948,18.731527 C10.0449664,18.548359 5.24985933,18.3181746 0.455730887,17.9567361 C0.183681957,17.9361664 -0.0198654434,17.6991254 0.00166360856,17.4278016 C0.0202568807,17.1819451 0.216954128,16.990941 0.455730887,16.9733098 C5.24985933,16.6118713 10.0449664,16.3816869 14.8390948,16.1985189 C17.2366483,16.0848959 19.6332232,16.0437566 22.0317554,15.981068 C24.4283303,15.9507033 26.8258838,15.9301336 29.2234373,15.9957607 L27.9512661,18.1986746 L27.9268012,18.1545967 C27.3641101,17.1535393 27.0392171,16.0417975 26.9707156,14.9104656 C26.9051498,13.7752156 27.0617248,12.6429041 27.552,11.5331213 C28.0442324,10.4586008 28.9249664,9.30669918 30.468208,8.88942869 C31.2109602,8.71605574 31.9586055,8.75229754 32.6837431,9.01970328 C33.3990948,9.28123197 34.1359755,9.85620328 34.5039266,10.6966213 L34.5107768,10.7113139 C34.8366483,11.4547607 34.498055,12.3206459 33.7562813,12.6468221 C33.0135291,12.9729984 32.1484526,12.635068 31.822581,11.8916213 L31.8186667,11.8828057 C30.9144465,9.77980164 31.4565872,7.47501885 32.7493089,5.86470738 C33.3990948,5.04779754 34.3268012,4.38467049 35.3083303,4.03204754 C36.2957309,3.67550656 37.3349969,3.57657623 38.3341407,3.68824016 C39.3332844,3.80480164 40.3001346,4.12803934 41.1710826,4.64424016 C42.0518165,5.17219508 42.7847829,5.88821557 43.3494312,6.69728934 C44.4738349,8.32523197 44.9494312,10.2862074 44.7801346,12.214859 C44.7096758,13.0229533 43.9972599,13.6204533 43.1899205,13.5499287 C42.4667401,13.4862607 41.9108991,12.9044328 41.8551193,12.2021254 C41.7484526,10.8768508 41.6535291,9.48007213 41.805211,8.00885082 C41.9539572,6.55036311 42.392367,4.96258033 43.3885749,3.63142869 C44.3808685,2.29929754 45.7949358,1.39031393 47.2833761,0.910354918 C48.7786667,0.429416393 50.3796453,0.341260656 51.9287584,0.685068033 C54.9946911,1.39227295 57.4069235,3.52074426 58.9178716,6.01653115 C60.4376269,8.55835492 61.0208685,11.3235066 61.587474,13.8672893 L60.1538349,12.7134287 C62.7745076,12.5880516 65.396159,12.6801254 68.0178104,12.8309697 C70.6394618,12.9965066 73.2601346,13.2315885 75.8817859,13.70665 C76.1450275,13.7546459 76.3192171,14.0063795 76.2712661,14.2698672 C76.2340795,14.4736049 76.0735902,14.6244492 75.8817859,14.6597115" id="Fill-86" fill="#717791" mask="url(#mask-4)"></path>
                    <path d="M262.249394,97.5248316 L196.558385,97.5248316 C195.144318,97.5248316 193.998385,96.3778275 193.998385,94.9624381 L193.998385,82.9517086 C193.998385,81.5363193 195.144318,80.3893152 196.558385,80.3893152 L262.249394,80.3893152 C263.662483,80.3893152 264.809394,81.5363193 264.809394,82.9517086 L264.809394,94.9624381 C264.809394,96.3778275 263.662483,97.5248316 262.249394,97.5248316" id="Fill-87" fill="#FFFFFF" mask="url(#mask-4)"></path>
                    <path d="M214.437774,79.676527 C217.798263,79.3816951 221.157774,79.3630844 224.518263,79.3591664 L234.598752,79.3719 L254.758752,79.3963877 L259.799486,79.4032443 L262.319364,79.4061828 C262.488661,79.4042238 262.849761,79.4081418 263.130618,79.4659328 C263.424196,79.5276418 263.714838,79.6157975 263.980037,79.7558672 C264.517284,80.0242525 264.976245,80.4425025 265.290373,80.9528262 C265.611352,81.459232 265.77967,82.062609 265.78652,82.65815 L265.785541,83.9275926 L265.782606,86.4508057 L265.775755,91.495273 L265.77282,94.0175066 L265.768905,95.2996828 C265.756183,95.8942443 265.576122,96.4897852 265.251229,96.9893344 C264.928294,97.4888836 264.469333,97.9022361 263.930128,98.1578877 C263.663951,98.2911008 263.375266,98.3792566 263.081688,98.43215 C262.791046,98.4909205 262.460281,98.4821049 262.28707,98.4830844 L259.767193,98.4801459 L249.687682,98.4674123 L209.366703,98.4174574 L199.287193,98.4057033 L196.766336,98.4027648 C196.530495,98.3978672 196.405235,98.4115803 196.077407,98.3910107 C195.788722,98.3733795 195.501015,98.314609 195.227988,98.2137197 C194.678997,98.0217361 194.193615,97.6681336 193.827621,97.2195189 C193.464563,96.7669861 193.225786,96.2135639 193.155327,95.6366336 C193.13282,95.4955844 193.13282,95.3418016 193.126948,95.2105475 L193.127927,94.8951459 L193.127927,94.2643426 L193.131841,91.742109 L193.136734,86.6966623 L193.13967,84.1744287 L193.141627,82.9138016 C193.143584,82.7374902 193.135755,82.4181705 193.192514,82.1370516 C193.244379,81.8529943 193.330495,81.5738344 193.45967,81.3152443 C193.952881,80.270109 195.063584,79.545273 196.223217,79.5413549 L198.761688,79.5795557 C200.441933,79.6187361 202.122177,79.6912197 203.802422,79.8361869 C204.106765,79.8616541 204.333798,80.1310189 204.306398,80.4366254 C204.28389,80.7099082 204.065664,80.919523 203.802422,80.9420516 C202.122177,81.0870189 200.441933,81.1595025 198.761688,81.1986828 L196.260404,81.2417811 C195.729028,81.2476582 195.224073,81.5816705 194.998018,82.06065 C194.937346,82.1772115 194.901138,82.3045475 194.877651,82.4338426 C194.851229,82.5650967 194.856122,82.6708836 194.854165,82.9138016 L194.856122,84.1744287 L194.859058,86.6966623 L194.86493,91.742109 L194.868844,94.2643426 L194.868844,94.8951459 L194.869823,95.2105475 C194.876673,95.2889082 194.87178,95.3466992 194.884502,95.4133057 C194.915817,95.6718959 195.023462,95.916773 195.186887,96.1205107 C195.353248,96.3213098 195.571474,96.4819492 195.817101,96.5652074 C196.057835,96.6631582 196.281933,96.6465066 196.766336,96.6474861 L199.287193,96.6445475 L209.366703,96.6327934 L249.687682,96.581859 L259.767193,96.5701049 L262.28707,96.5671664 C262.533676,96.5652074 262.626642,96.5681459 262.748966,96.5436582 C262.868355,96.5211295 262.985786,96.4868467 263.095388,96.4300352 C263.315572,96.3281664 263.50444,96.1528344 263.635572,95.9490967 C263.769639,95.7424205 263.840098,95.5044 263.844991,95.2575639 L263.845969,94.0175066 L263.842055,91.495273 L263.837162,86.4508057 L263.834226,83.9275926 L263.831291,82.6748016 C263.82444,82.4318836 263.760832,82.1948426 263.630679,81.9911049 C263.50444,81.7863877 263.315572,81.6159533 263.102239,81.5111459 C262.995572,81.4523754 262.879119,81.4229902 262.762667,81.3955639 C262.629578,81.3749943 262.569884,81.3710762 262.319364,81.3720557 L259.799486,81.3749943 L254.758752,81.3818508 L234.598752,81.4063385 L224.518263,81.4190721 C221.157774,81.4151541 217.798263,81.3965434 214.437774,81.1017115 C214.045358,81.0674287 213.754716,80.7197033 213.788966,80.3269205 C213.819303,79.975277 214.09918,79.7059123 214.437774,79.676527" id="Fill-88" fill="#717791" mask="url(#mask-4)"></path>
                    <path d="M211.774434,79.6315676 L211.956453,79.7393135 C212.314618,79.9538258 212.432049,80.4181127 212.217737,80.7766127 C212.152171,80.8872971 212.059205,80.9764324 211.956453,81.0391209 L211.774434,81.1468668 C211.356575,81.3966414 210.816391,81.2595102 210.56685,80.8412602 C210.317309,80.4230102 210.453333,79.8803627 210.872171,79.6315676 C211.159878,79.4601537 211.5063,79.4719078 211.774434,79.6315676" id="Fill-89" fill="#717791" mask="url(#mask-4)"></path>
                    <path d="M205.004526,85.2947902 L205.999755,87.3145361 C206.071193,87.4595033 206.210153,87.5603926 206.370642,87.5839008 L208.596942,87.9071385 C209.001101,87.9668885 209.162569,88.4634992 208.869969,88.7485361 L207.259205,90.3206467 C207.143731,90.4342697 207.089908,90.596868 207.117309,90.7575074 L207.497982,92.9760934 C207.566483,93.3786713 207.144709,93.6862369 206.78263,93.4962123 L204.791193,92.4481385 C204.648318,92.3727164 204.476086,92.3727164 204.332232,92.4481385 L202.341774,93.4962123 C201.979694,93.6862369 201.55792,93.3786713 201.627401,92.9760934 L202.007095,90.7575074 C202.034495,90.596868 201.981651,90.4342697 201.865199,90.3206467 L200.254434,88.7485361 C199.961835,88.4634992 200.123303,87.9668885 200.527462,87.9071385 L202.753761,87.5839008 C202.914251,87.5603926 203.053211,87.4595033 203.124648,87.3145361 L204.120856,85.2947902 C204.300917,84.9274746 204.822508,84.9274746 205.004526,85.2947902" id="Fill-90" fill="#FDD1BE" mask="url(#mask-4)"></path>
                    <path d="M204.691083,84.4219504 L205.792979,86.6581676 C205.872245,86.8197865 206.025884,86.9314504 206.203988,86.9569176 L208.669064,87.3154176 C209.116281,87.3810447 209.295364,87.9315283 208.972428,88.2469299 L207.188453,89.987516 C207.059278,90.112893 207.000563,90.294102 207.030899,90.471393 L207.451694,92.9289791 C207.528024,93.3756348 207.061235,93.7155242 206.660991,93.5049299 L204.455242,92.3442127 C204.296709,92.259975 204.105884,92.259975 203.947352,92.3442127 L201.741602,93.5049299 C201.341358,93.7155242 200.874569,93.3756348 200.950899,92.9289791 L201.371694,90.471393 C201.402031,90.294102 201.343315,90.112893 201.214141,89.987516 L199.431144,88.2469299 C199.107229,87.9315283 199.286312,87.3810447 199.733529,87.3154176 L202.198606,86.9569176 C202.376709,86.9314504 202.530349,86.8197865 202.609615,86.6581676 L203.712489,84.4219504 C203.912122,84.0154545 204.490471,84.0154545 204.691083,84.4219504 Z" id="Stroke-91" stroke="#717791" stroke-linecap="round" stroke-linejoin="round" mask="url(#mask-4)"></path>
                    <path d="M217.655486,85.2947902 L218.650716,87.3145361 C218.723131,87.4595033 218.861113,87.5603926 219.021602,87.5839008 L221.247902,87.9071385 C221.652061,87.9668885 221.813529,88.4634992 221.52093,88.7485361 L219.910165,90.3206467 C219.794691,90.4342697 219.740869,90.596868 219.768269,90.7575074 L220.148942,92.9760934 C220.217443,93.3786713 219.79567,93.6862369 219.43359,93.4962123 L217.442153,92.4481385 C217.299278,92.3727164 217.128024,92.3727164 216.983193,92.4481385 L214.992734,93.4962123 C214.630654,93.6862369 214.208881,93.3786713 214.278361,92.9760934 L214.658055,90.7575074 C214.685456,90.596868 214.632612,90.4342697 214.516159,90.3206467 L212.905394,88.7485361 C212.613774,88.4634992 212.774263,87.9668885 213.178422,87.9071385 L215.404722,87.5839008 C215.565211,87.5603926 215.704171,87.4595033 215.775609,87.3145361 L216.771817,85.2947902 C216.951878,84.9274746 217.474446,84.9274746 217.655486,85.2947902" id="Fill-92" fill="#FDD1BE" mask="url(#mask-4)"></path>
                    <path d="M217.342043,84.4219504 L218.443939,86.6581676 C218.524183,86.8197865 218.676844,86.9314504 218.854948,86.9569176 L221.320024,87.3154176 C221.767242,87.3810447 221.946324,87.9315283 221.623388,88.2469299 L219.839413,89.987516 C219.710239,90.112893 219.651523,90.294102 219.682838,90.471393 L220.102654,92.9289791 C220.178985,93.3756348 219.712196,93.7155242 219.311951,93.5049299 L217.106202,92.3442127 C216.94767,92.259975 216.756844,92.259975 216.598312,92.3442127 L214.392563,93.5049299 C213.993297,93.7155242 213.525529,93.3756348 213.601859,92.9289791 L214.022654,90.471393 C214.052991,90.294102 213.994275,90.112893 213.86608,89.987516 L212.082104,88.2469299 C211.75819,87.9315283 211.937272,87.3810447 212.384489,87.3154176 L214.849566,86.9569176 C215.02767,86.9314504 215.181309,86.8197865 215.260575,86.6581676 L216.36345,84.4219504 C216.563083,84.0154545 217.141431,84.0154545 217.342043,84.4219504 Z" id="Stroke-93" stroke="#717791" stroke-linecap="round" stroke-linejoin="round" mask="url(#mask-4)"></path>
                    <path d="M230.306544,85.2947902 L231.302752,87.3145361 C231.37419,87.4595033 231.512171,87.5603926 231.672661,87.5839008 L233.89896,87.9071385 C234.303119,87.9668885 234.464587,88.4634992 234.171988,88.7485361 L232.561223,90.3206467 C232.445749,90.4342697 232.391927,90.596868 232.419327,90.7575074 L232.8,92.9760934 C232.868502,93.3786713 232.446728,93.6862369 232.084648,93.4962123 L230.093211,92.4481385 C229.950336,92.3727164 229.779083,92.3727164 229.634251,92.4481385 L227.643792,93.4962123 C227.282691,93.6862369 226.859939,93.3786713 226.929419,92.9760934 L227.309113,90.7575074 C227.336514,90.596868 227.28367,90.4342697 227.167217,90.3206467 L225.556453,88.7485361 C225.264832,88.4634992 225.4263,87.9668885 225.82948,87.9071385 L228.05578,87.5839008 C228.216269,87.5603926 228.355229,87.4595033 228.426667,87.3145361 L229.422875,85.2947902 C229.602936,84.9274746 230.125505,84.9274746 230.306544,85.2947902" id="Fill-94" fill="#FDD1BE" mask="url(#mask-4)"></path>
                    <path d="M229.993101,84.4219504 L231.094997,86.6581676 C231.175242,86.8197865 231.327902,86.9314504 231.506006,86.9569176 L233.971083,87.3154176 C234.419278,87.3810447 234.598361,87.9315283 234.274446,88.2469299 L232.490471,89.987516 C232.361297,90.112893 232.302581,90.294102 232.333896,90.471393 L232.753713,92.9289791 C232.830043,93.3756348 232.363254,93.7155242 231.963009,93.5049299 L229.75726,92.3442127 C229.598728,92.259975 229.407902,92.259975 229.24937,92.3442127 L227.044599,93.5049299 C226.644355,93.7155242 226.176587,93.3756348 226.252917,92.9289791 L226.673713,90.471393 C226.705028,90.294102 226.645333,90.112893 226.517138,89.987516 L224.733162,88.2469299 C224.409248,87.9315283 224.58833,87.3810447 225.035547,87.3154176 L227.500624,86.9569176 C227.678728,86.9314504 227.832367,86.8197865 227.911633,86.6581676 L229.014508,84.4219504 C229.214141,84.0154545 229.792489,84.0154545 229.993101,84.4219504 Z" id="Stroke-95" stroke="#717791" stroke-linecap="round" stroke-linejoin="round" mask="url(#mask-4)"></path>
                    <path d="M242.957505,85.2947902 L243.953713,87.3145361 C244.02515,87.4595033 244.163131,87.5603926 244.323621,87.5839008 L246.550899,87.9071385 C246.95408,87.9668885 247.115547,88.4634992 246.822948,88.7485361 L245.212183,90.3206467 C245.096709,90.4342697 245.043865,90.596868 245.070287,90.7575074 L245.45096,92.9760934 C245.519462,93.3786713 245.097688,93.6862369 244.735609,93.4962123 L242.744171,92.4481385 C242.601297,92.3727164 242.430043,92.3727164 242.28619,92.4481385 L240.294752,93.4962123 C239.933651,93.6862369 239.511878,93.3786713 239.580379,92.9760934 L239.960073,90.7575074 C239.987474,90.596868 239.93463,90.4342697 239.819156,90.3206467 L238.207413,88.7485361 C237.915792,88.4634992 238.07726,87.9668885 238.48044,87.9071385 L240.70674,87.5839008 C240.867229,87.5603926 241.00619,87.4595033 241.077627,87.3145361 L242.073835,85.2947902 C242.253896,84.9274746 242.776465,84.9274746 242.957505,85.2947902" id="Fill-96" fill="#FDD1BE" mask="url(#mask-4)"></path>
                    <path d="M242.644061,84.4219504 L243.746936,86.6581676 C243.826202,86.8197865 243.979841,86.9314504 244.156966,86.9569176 L246.622043,87.3154176 C247.070239,87.3810447 247.249321,87.9315283 246.925407,88.2469299 L245.141431,89.987516 C245.012257,90.112893 244.953541,90.294102 244.984856,90.471393 L245.404673,92.9289791 C245.481003,93.3756348 245.014214,93.7155242 244.613969,93.5049299 L242.409199,92.3442127 C242.249688,92.259975 242.058862,92.259975 241.90033,92.3442127 L239.69556,93.5049299 C239.295315,93.7155242 238.827547,93.3756348 238.903878,92.9289791 L239.324673,90.471393 C239.355988,90.294102 239.296294,90.112893 239.168098,89.987516 L237.384122,88.2469299 C237.060208,87.9315283 237.239291,87.3810447 237.686508,87.3154176 L240.151584,86.9569176 C240.329688,86.9314504 240.483327,86.8197865 240.562593,86.6581676 L241.665468,84.4219504 C241.865101,84.0154545 242.44345,84.0154545 242.644061,84.4219504 Z" id="Stroke-97" stroke="#717791" stroke-linecap="round" stroke-linejoin="round" mask="url(#mask-4)"></path>
                    <path d="M255.608563,85.2947902 L256.604771,87.3145361 C256.676208,87.4595033 256.81419,87.5603926 256.974679,87.5839008 L259.201957,87.9071385 C259.605138,87.9668885 259.766606,88.4634992 259.474006,88.7485361 L257.86422,90.3206467 C257.747768,90.4342697 257.694924,90.596868 257.721346,90.7575074 L258.102018,92.9760934 C258.17052,93.3786713 257.748746,93.6862369 257.386667,93.4962123 L255.395229,92.4481385 C255.252355,92.3727164 255.081101,92.3727164 254.937248,92.4481385 L252.94581,93.4962123 C252.584709,93.6862369 252.162936,93.3786713 252.231437,92.9760934 L252.611131,90.7575074 C252.639511,90.596868 252.585688,90.4342697 252.470214,90.3206467 L250.858471,88.7485361 C250.56685,88.4634992 250.728318,87.9668885 251.132477,87.9071385 L253.357798,87.5839008 C253.518287,87.5603926 253.657248,87.4595033 253.728685,87.3145361 L254.724893,85.2947902 C254.904954,84.9274746 255.427523,84.9274746 255.608563,85.2947902" id="Fill-98" fill="#FDD1BE" mask="url(#mask-4)"></path>
                    <path d="M255.295021,84.4219504 L256.397896,86.6581676 C256.477162,86.8197865 256.630801,86.9314504 256.808905,86.9569176 L259.273003,87.3154176 C259.721199,87.3810447 259.900281,87.9315283 259.576367,88.2469299 L257.792391,89.987516 C257.663217,90.112893 257.604502,90.294102 257.635817,90.471393 L258.056612,92.9289791 C258.132942,93.3756348 257.665174,93.7155242 257.26493,93.5049299 L255.060159,92.3442127 C254.900648,92.259975 254.710801,92.259975 254.551291,92.3442127 L252.34652,93.5049299 C251.946275,93.7155242 251.478508,93.3756348 251.554838,92.9289791 L251.975633,90.471393 C252.006948,90.294102 251.947254,90.112893 251.819058,89.987516 L250.035083,88.2469299 C249.711168,87.9315283 249.890251,87.3810447 250.337468,87.3154176 L252.802544,86.9569176 C252.980648,86.9314504 253.134287,86.8197865 253.213554,86.6581676 L254.316428,84.4219504 C254.516061,84.0154545 255.09441,84.0154545 255.295021,84.4219504 Z" id="Stroke-99" stroke="#717791" stroke-linecap="round" stroke-linejoin="round" mask="url(#mask-4)"></path>
                    <path d="M85.3447829,63.950327 C79.182581,63.950327 74.1868624,58.9499377 74.1868624,52.7819746 L74.1868624,48.05095 L96.5027034,48.05095 L96.5027034,52.7819746 C96.5027034,58.9499377 91.5079633,63.950327 85.3447829,63.950327" id="Fill-100" fill="#FFFFFF" mask="url(#mask-4)"></path>
                    <path d="M85.3447829,63.950327 C79.182581,63.950327 74.1868624,58.9499377 74.1868624,52.7819746 L74.1868624,48.05095 L96.5027034,48.05095 L96.5027034,52.7819746 C96.5027034,58.9499377 91.5079633,63.950327 85.3447829,63.950327 Z" id="Stroke-101" stroke="#717791" stroke-width="2.331" stroke-linecap="round" stroke-linejoin="round" mask="url(#mask-4)"></path>
                    <path d="M107.806532,63.950327 C101.64433,63.950327 96.6486116,58.9499377 96.6486116,52.7819746 L96.6486116,48.05095 L118.964453,48.05095 L118.964453,52.7819746 C118.964453,58.9499377 113.969713,63.950327 107.806532,63.950327" id="Fill-102" fill="#FFBFBF" mask="url(#mask-4)"></path>
                    <path d="M107.806532,63.950327 C101.64433,63.950327 96.6486116,58.9499377 96.6486116,52.7819746 L96.6486116,48.05095 L118.964453,48.05095 L118.964453,52.7819746 C118.964453,58.9499377 113.969713,63.950327 107.806532,63.950327 Z" id="Stroke-103" stroke="#717791" stroke-width="2.331" stroke-linecap="round" stroke-linejoin="round" mask="url(#mask-4)"></path>
                    <path d="M130.268281,63.950327 C124.105101,63.950327 119.110361,58.9499377 119.110361,52.7819746 L119.110361,48.05095 L141.426202,48.05095 L141.426202,52.7819746 C141.426202,58.9499377 136.430483,63.950327 130.268281,63.950327" id="Fill-104" fill="#FFFFFF" mask="url(#mask-4)"></path>
                    <path d="M130.268281,63.950327 C124.105101,63.950327 119.110361,58.9499377 119.110361,52.7819746 L119.110361,48.05095 L141.426202,48.05095 L141.426202,52.7819746 C141.426202,58.9499377 136.430483,63.950327 130.268281,63.950327 Z" id="Stroke-105" stroke="#717791" stroke-width="2.331" stroke-linecap="round" stroke-linejoin="round" mask="url(#mask-4)"></path>
                    <path d="M152.730031,63.950327 C146.56685,63.950327 141.57211,58.9499377 141.57211,52.7819746 L141.57211,48.05095 L163.887951,48.05095 L163.887951,52.7819746 C163.887951,58.9499377 158.892232,63.950327 152.730031,63.950327" id="Fill-106" fill="#FFBFBF" mask="url(#mask-4)"></path>
                    <path d="M152.730031,63.950327 C146.56685,63.950327 141.57211,58.9499377 141.57211,52.7819746 L141.57211,48.05095 L163.887951,48.05095 L163.887951,52.7819746 C163.887951,58.9499377 158.892232,63.950327 152.730031,63.950327 Z" id="Stroke-107" stroke="#717791" stroke-width="2.331" stroke-linecap="round" stroke-linejoin="round" mask="url(#mask-4)"></path>
                    <path d="M175.190899,63.950327 C169.028697,63.950327 164.032979,58.9499377 164.032979,52.7819746 L164.032979,48.05095 L186.34882,48.05095 L186.34882,52.7819746 C186.34882,58.9499377 181.35408,63.950327 175.190899,63.950327" id="Fill-108" fill="#FFFFFF" mask="url(#mask-4)"></path>
                    <path d="M175.190899,63.950327 C169.028697,63.950327 164.032979,58.9499377 164.032979,52.7819746 L164.032979,48.05095 L186.34882,48.05095 L186.34882,52.7819746 C186.34882,58.9499377 181.35408,63.950327 175.190899,63.950327 Z" id="Stroke-109" stroke="#717791" stroke-width="2.331" stroke-linecap="round" stroke-linejoin="round" mask="url(#mask-4)"></path>
                    <path d="M197.652648,63.950327 C191.489468,63.950327 186.494728,58.9499377 186.494728,52.7819746 L186.494728,48.05095 L208.810569,48.05095 L208.810569,52.7819746 C208.810569,58.9499377 203.81485,63.950327 197.652648,63.950327" id="Fill-110" fill="#FFBFBF" mask="url(#mask-4)"></path>
                    <path d="M197.652648,63.950327 C191.489468,63.950327 186.494728,58.9499377 186.494728,52.7819746 L186.494728,48.05095 L208.810569,48.05095 L208.810569,52.7819746 C208.810569,58.9499377 203.81485,63.950327 197.652648,63.950327 Z" id="Stroke-111" stroke="#717791" stroke-width="2.331" stroke-linecap="round" stroke-linejoin="round" mask="url(#mask-4)"></path>
                    <path d="M220.114398,63.950327 C213.951217,63.950327 208.956477,58.9499377 208.956477,52.7819746 L208.956477,48.05095 L231.272318,48.05095 L231.272318,52.7819746 C231.272318,58.9499377 226.276599,63.950327 220.114398,63.950327" id="Fill-112" fill="#FFFFFF" mask="url(#mask-4)"></path>
                    <path d="M220.114398,63.950327 C213.951217,63.950327 208.956477,58.9499377 208.956477,52.7819746 L208.956477,48.05095 L231.272318,48.05095 L231.272318,52.7819746 C231.272318,58.9499377 226.276599,63.950327 220.114398,63.950327 Z" id="Stroke-113" stroke="#717791" stroke-width="2.331" stroke-linecap="round" stroke-linejoin="round" mask="url(#mask-4)"></path>
                    <polygon id="Fill-114" fill="#FFFFFF" mask="url(#mask-4)" points="111.982777 30.2926623 95.9984343 30.2926623 74.1865688 48.0619205 96.5033884 48.0619205"></polygon>
                    <polygon id="Stroke-115" stroke="#717791" stroke-width="2.331" stroke-linecap="round" stroke-linejoin="round" mask="url(#mask-4)" points="111.982777 30.2926623 95.9984343 30.2926623 74.1865688 48.0619205 96.5033884 48.0619205"></polygon>
                    <polygon id="Fill-116" fill="#FFBFBF" mask="url(#mask-4)" points="128.111364 30.2926623 112.128 30.2926623 96.6486116 48.0619205 118.964453 48.0619205"></polygon>
                    <polygon id="Stroke-117" stroke="#717791" stroke-width="2.331" stroke-linecap="round" stroke-linejoin="round" mask="url(#mask-4)" points="128.111364 30.2926623 112.128 30.2926623 96.6486116 48.0619205 118.964453 48.0619205"></polygon>
                    <polygon id="Fill-118" fill="#FFFFFF" mask="url(#mask-4)" points="143.537615 30.2926623 128.256881 30.2926623 119.109969 48.0619205 141.426789 48.0619205"></polygon>
                    <polygon id="Stroke-119" stroke="#717791" stroke-width="2.331" stroke-linecap="round" stroke-linejoin="round" mask="url(#mask-4)" points="143.537615 30.2926623 128.256881 30.2926623 119.109969 48.0619205 141.426789 48.0619205"></polygon>
                    <polygon id="Fill-120" fill="#FFBFBF" mask="url(#mask-4)" points="159.666202 30.2926623 143.681859 30.2926623 141.572012 48.0619205 163.887853 48.0619205"></polygon>
                    <polygon id="Stroke-121" stroke="#717791" stroke-width="2.331" stroke-linecap="round" stroke-linejoin="round" mask="url(#mask-4)" points="159.666202 30.2926623 143.681859 30.2926623 141.572012 48.0619205 163.887853 48.0619205"></polygon>
                    <polygon id="Fill-122" fill="#FFFFFF" mask="url(#mask-4)" points="175.091474 30.2926623 159.811719 30.2926623 164.032391 48.0619205 186.349211 48.0619205"></polygon>
                    <polygon id="Stroke-123" stroke="#717791" stroke-width="2.331" stroke-linecap="round" stroke-linejoin="round" mask="url(#mask-4)" points="175.091474 30.2926623 159.811719 30.2926623 164.032391 48.0619205 186.349211 48.0619205"></polygon>
                    <polygon id="Fill-124" fill="#FFBFBF" mask="url(#mask-4)" points="191.22104 30.2926623 175.236697 30.2926623 186.494434 48.0619205 208.811254 48.0619205"></polygon>
                    <polygon id="Stroke-125" stroke="#717791" stroke-width="2.331" stroke-linecap="round" stroke-linejoin="round" mask="url(#mask-4)" points="191.22104 30.2926623 175.236697 30.2926623 186.494434 48.0619205 208.811254 48.0619205"></polygon>
                    <polygon id="Fill-126" fill="#FFFFFF" mask="url(#mask-4)" points="207.349725 30.2926623 191.365382 30.2926623 208.956575 48.0619205 231.272416 48.0619205"></polygon>
                    <polygon id="Stroke-127" stroke="#717791" stroke-width="2.331" stroke-linecap="round" stroke-linejoin="round" mask="url(#mask-4)" points="207.349725 30.2926623 191.365382 30.2926623 208.956575 48.0619205 231.272416 48.0619205"></polygon>
                    <path d="M247.42811,48.5695016 C249.908844,48.0944402 252.388599,47.8593582 254.869333,47.6938213 C257.349089,47.5439566 259.828844,47.4509033 262.308599,47.5762803 L260.87496,48.7311205 L260.87496,48.730141 C261.410251,46.3234893 261.964135,43.6993869 263.409517,41.2790221 C264.849028,38.9027352 267.144807,36.8741738 270.072758,36.1992926 C271.552391,35.8701779 273.081933,35.9544156 274.5097,36.4128254 C275.931596,36.8712352 277.284012,37.7410385 278.234226,39.0163582 C279.186398,40.2906984 279.605235,41.8079566 279.746153,43.1968992 C279.890006,44.5975959 279.799976,45.9228705 279.69918,47.1786 C279.634593,47.9876738 278.928049,48.5910508 278.119731,48.5273828 C277.395572,48.4695918 276.836795,47.8926615 276.774165,47.1913336 C276.612697,45.3478992 277.065786,43.4750795 278.142239,41.9176615 C278.682422,41.1448295 279.384073,40.4591738 280.226642,39.9537475 C281.061382,39.4590959 281.985174,39.1495713 282.942239,39.0388869 C283.899303,38.9321205 284.894532,39.0261533 285.840832,39.3680016 C286.783217,39.705932 287.673737,40.3435918 288.297101,41.1262189 C289.536,42.6709033 290.05759,44.8787148 289.188599,46.9013992 C288.868599,47.6468049 288.00548,47.9915918 287.260771,47.6712926 C286.515083,47.3500139 286.171596,46.4860877 286.491596,45.740682 L286.496489,45.7308869 L286.503339,45.7152148 C286.860526,44.8973254 287.576856,44.3399852 288.268722,44.0862926 C288.971352,43.8277025 289.693554,43.7934197 290.41282,43.9609156 C291.907131,44.3654525 292.751657,45.4762148 293.224318,46.5066574 C293.694043,47.5704033 293.843768,48.6527598 293.781138,49.7400139 C293.715572,50.8204115 293.404379,51.8851369 292.866153,52.8421164 L292.842667,52.8852148 L291.570495,50.6813213 C293.839853,50.6166738 296.107254,50.6362639 298.375633,50.6676082 C300.644012,50.7293172 302.911413,50.7714361 305.179792,50.885059 C309.715572,51.068227 314.251352,51.2984115 318.78811,51.65985 C319.05918,51.6813992 319.260771,51.9184402 319.24022,52.1897639 C319.21967,52.434641 319.02493,52.6236861 318.78811,52.6422967 C314.251352,53.0037352 309.715572,53.2339197 305.179792,53.4170877 C302.911413,53.5307107 300.644012,53.5728295 298.375633,53.6345385 C296.107254,53.6658828 293.839853,53.685473 291.570495,53.6208254 L291.561688,53.6208254 C290.740648,53.5973172 290.093798,52.9116615 290.116306,52.0898541 C290.124135,51.8479156 290.190679,51.6157721 290.299303,51.416932 L290.312024,51.3924443 C290.623217,50.8409811 290.814043,50.2023418 290.851229,49.5548869 C290.895266,48.9162475 290.783706,48.2364689 290.548844,47.71635 C290.325725,47.1854566 289.921566,46.8543828 289.711168,46.814223 C289.587865,46.7848377 289.41074,46.7936533 289.301138,46.8367516 C289.186642,46.885727 289.184685,46.9180508 289.189578,46.8994402 L286.503339,45.7132557 C286.870312,44.9335672 286.661872,43.7571779 286.013064,42.9725918 C285.406336,42.1919238 284.376856,41.8363623 283.273982,41.9578213 C282.164257,42.0871164 281.189578,42.6611082 280.550557,43.5984975 C279.900771,44.5260918 279.589578,45.7622311 279.698202,46.9239279 L276.773187,46.9366615 C276.992391,44.543723 276.98652,42.221309 275.879731,40.7726164 C274.824807,39.3209852 272.591657,38.630432 270.71863,39.0653336 C268.776122,39.4982762 267.02444,40.9655795 265.922544,42.7982393 C264.803034,44.6514689 264.264807,46.9542926 263.743217,49.3609443 C263.63655,50.0103582 263.090495,50.4766041 262.460281,50.5079484 L262.308599,50.5157844 C259.828844,50.6411615 257.349089,50.5481082 254.869333,50.3982434 C252.388599,50.2327066 249.908844,49.9976246 247.42811,49.5225631 C247.164869,49.4716287 246.993615,49.2179361 247.043523,48.9544484 C247.081688,48.7536492 247.24022,48.606723 247.42811,48.5695016" id="Fill-128" fill="#717791" mask="url(#mask-4)"></path>
                </g>
            </g>
        </g>
    </g>
</svg>