<?xml version="1.0" encoding="utf-8"?>
<!-- Generator: Adobe Illustrator 17.0.0, SVG Export Plug-In . SVG Version: 6.00 Build 0)  -->
<!DOCTYPE svg PUBLIC "-//W3C//DTD SVG 1.1//EN" "http://www.w3.org/Graphics/SVG/1.1/DTD/svg11.dtd">
<svg version="1.1" id="Layer_1" xmlns="http://www.w3.org/2000/svg" xmlns:xlink="http://www.w3.org/1999/xlink" x="0px" y="0px"
	 width="899.289px" height="183.585px" viewBox="0 0 899.289 183.585" enable-background="new 0 0 899.289 183.585"
	 xml:space="preserve">
<g>
	<path fill="#231F20" d="M77.409,124.804c-22.896,0-32.708-13.736-32.708-39.249c0-23.767,11.992-37.069,31.182-37.069
		c8.286,0,16.135,1.309,23.332,4.143l5.015-37.069c-8.503-2.617-18.753-3.926-28.347-3.926C27.693,11.634,0,43.253,0,92.314
		c0,29.657,11.993,69.559,69.777,69.559c11.774,0,24.64-1.744,34.888-5.451l-5.451-36.198
		C93.109,123.278,83.733,124.804,77.409,124.804z"/>
	<path fill="#231F20" d="M212.53,87.081c0-25.076-11.34-38.596-50.371-38.596c-14.391,0-30.964,2.617-42.52,6.323l6.323,30.746
		c8.721-3.924,19.842-6.759,29.219-6.759c12.647,0,17.226,2.398,17.226,8.503v2.835c-32.708,0-59.093,9.812-59.093,39.031
		c0,17.881,10.466,33.363,32.271,33.363c13.738,0,26.167-6.106,31.401-16.355h0.218c-0.873,5.015-0.873,9.594-0.873,13.738h37.069
		c-0.871-8.068-0.871-16.355-0.871-23.114V87.081z M172.408,118.481c0,7.414-5.67,14.173-13.738,14.173
		c-5.234,0-8.068-3.489-8.068-7.413c0-6.761,4.36-10.467,21.805-10.467V118.481z"/>
	<path fill="#231F20" d="M267.889,67.675h-0.218c0.654-5.888,1.089-12.429,1.089-16.137h-36.632v108.373h39.685v-45.355
		c0-23.332,8.723-30.746,24.64-26.602l1.962-39.251C284.025,48.267,274.213,55.899,267.889,67.675z"/>
	<path fill="#231F20" d="M631.815,48.19c-14.391,0-26.602,6.543-32.708,17.228C594.31,52.769,582.971,48.19,569.67,48.19
		c-14.391,0-26.602,6.543-33.362,17.228h-0.218c0.871-5.67,1.089-11.776,1.089-14.61h-36.85V159.18h39.685v-52.333
		c0-13.738,9.158-25.076,16.79-25.076c4.579,0,6.106,3.706,6.106,10.249v67.16h39.249v-52.333c0-13.738,9.158-25.076,16.79-25.076
		c4.579,0,6.106,3.706,6.106,10.249v67.16h39.686V85.259C664.742,60.619,653.402,48.19,631.815,48.19z"/>
	<path fill="#231F20" d="M751.061,48.19c-13.3,0-23.332,5.016-28.129,12.211h-0.218c0.873-5.888,1.526-15.264,1.526-22.459V0
		h-39.685v155.909c13.518,3.924,27.911,6.106,44.7,6.106c40.777,0,61.492-28.784,61.492-63.236
		C790.747,68.251,777.447,48.19,751.061,48.19z M731.872,130.178c-3.706,0-5.888-0.436-7.632-0.871v-22.896
		c0-16.79,6.761-25.076,13.955-25.076c7.196,0,10.685,5.888,10.685,21.587C748.881,123.855,741.031,130.178,731.872,130.178z"/>
	<path fill="#231F20" d="M899.289,159.18c-0.871-8.068-0.871-16.355-0.871-23.114V86.35c0-25.076-11.34-38.596-50.371-38.596
		c-14.391,0-30.964,2.617-42.52,6.323l6.323,30.746c8.721-3.924,19.842-6.759,29.219-6.759c12.647,0,17.226,2.398,17.226,8.503
		v2.835c-32.708,0-59.093,9.812-59.093,39.031c0,17.881,10.466,33.363,32.271,33.363c13.738,0,26.167-6.106,31.401-16.355h0.218
		c-0.873,5.015-0.873,9.594-0.873,13.738H899.289z M858.295,117.749c0,7.414-5.67,14.173-13.738,14.173
		c-5.234,0-8.068-3.489-8.068-7.413c0-6.76,4.36-10.467,21.805-10.467V117.749z"/>
	<path fill="#231F20" d="M467.899,46.18c-14.23-19.98-36.676-33.696-62.421-36.185c-2.789-0.27-5.615-0.417-8.474-0.417
		c-35.019,0-65.187,20.701-78.985,50.524C312.884,71.199,310,83.55,310,96.581c0,12.825,2.798,24.99,7.78,35.952
		c2.317,5.098,5.11,9.931,8.325,14.446c14.23,19.981,36.676,33.698,62.421,36.188c2.79,0.27,5.616,0.417,8.477,0.417
		c35.02,0,65.188-20.701,78.985-50.525c5.135-11.097,8.019-23.448,8.019-36.479c0-12.929-2.842-25.187-7.9-36.217
		C473.813,55.362,471.06,50.618,467.899,46.18z M426.1,146.979h-58.193h-0.114l-0.056-0.095l-28.93-50.495l4.56-7.84l24.65-42.369
		H426.1h0.11l0.056,0.099l28.874,50.397L426.1,146.979z"/>
</g>
</svg>
