<?xml version="1.0" encoding="utf-8"?><!-- Generator: Adobe Illustrator 21.0.2, SVG Export Plug-In . SVG Version: 6.00 Build 0)  --><svg version="1.1" id="Lager_1" xmlns="http://www.w3.org/2000/svg" xmlns:xlink="http://www.w3.org/1999/xlink" x="0px" y="0px"	 viewBox="0 0 708.7 106.4" style="enable-background:new 0 0 708.7 106.4;" xml:space="preserve"><style type="text/css">	.st0{fill:#AE1917;}	.st1{fill:#1D1D1B;}</style><g>	<path class="st0" d="M181.8,28.3h-10.3v62.7h-18.1V28.3h-6V17.3h6c0-6.5,0.8-9.8,2.4-12.3c1.6-2.5,6.5-5,14.6-5h11.4v9.9h-3.5		c-3.1,0-5,0.6-5.7,1.8c-0.8,1.2-1.1,3.1-1.1,5.7h10.3V28.3z"/>	<path class="st0" d="M218.1,28.3h-10.3v62.7h-18.1V28.3h-6V17.3h6c0-6.5,0.8-9.8,2.4-12.3c1.6-2.5,6.5-5,14.6-5h11.4v9.9h-3.5		c-3.1,0-5,0.6-5.7,1.8c-0.8,1.2-1.1,3.1-1.1,5.7h10.3V28.3z"/>	<path class="st1" d="M567.1,13.9H549V0.6h18.1V13.9z M567.1,90.4H549V16.8h18.1V90.4z"/>	<path class="st1" d="M708.7,90.4h-11.4c-9.3-0.3-11.5-1.7-14.6-4.9c-2.3-2.3-2.4-7.2-2.4-14.1V27.7h-8V16.8h8V2h18.1v14.8h9.8v10.9		h-9.8v44.7c0,2.2,0.6,3.6,1.9,4.3c1.3,0.7,4.1,1.1,8.5,1.1V90.4z"/>	<g>		<polygon class="st0" points="18.1,77.2 18.1,31.5 18.1,17.2 0,17.2 0,106.4 18.1,106.4 18.1,89.1 		"/>		<path class="st0" d="M37.1,19.8c-3.5-2.1-7.3-3.1-11.4-3.1c-2.3,0-4.5,0.4-6.4,1.2v10.8c0.5-0.3,1.1-0.5,1.9-0.5			c2,0,3.1,1.1,3.1,3.4V77c0,2.2-1,3.4-3.1,3.4c-0.8,0-1.4-0.2-1.9-0.5v9.9c2.4,1.3,5.7,2,10,2c3.6,0,6.7-0.9,9.3-2.8			c2.5-1.9,3.8-4.3,3.8-7.4V28.7C42.3,24.9,40.6,21.9,37.1,19.8z"/>	</g>	<g>		<polygon class="st0" points="68.5,19.7 68.5,17.2 50.5,17.2 50.5,90.8 68.5,90.8 68.5,31.6 		"/>		<path class="st0" d="M88.9,19.6c-2.6-1.9-5.6-2.9-9.2-2.9c-4.2,0-7.5,0.7-9.9,2.1v10c0.5-0.3,1.1-0.4,1.8-0.4c2,0,3.1,1.1,3.1,3.4			v14.8h18.1V27.2C92.7,24,91.4,21.5,88.9,19.6z"/>	</g>	<g>		<path class="st0" d="M118.9,76.8v-45c0-2.1,0.8-3.3,2.5-3.6V16.7c-13.7,0.2-20.6,5.4-20.6,15.5v44.1c0,10.1,6.9,15.3,20.6,15.5			V80.5C119.8,80.2,118.9,79,118.9,76.8z"/>		<path class="st0" d="M137,20.3c-4.1-2.4-8.9-3.6-14.3-3.6v11.5c1.7,0.2,2.5,1.4,2.5,3.6v45c0,2.3-0.9,3.5-2.5,3.7v11.3			c13.7-0.1,20.6-5,20.6-14.9V31.6C143.3,26.5,141.2,22.7,137,20.3z"/>	</g>	<g>		<path class="st0" d="M246.7,37.2l-0.4,6.4H264V31.5c0-9.9-6.7-14.8-20.2-14.9V28C245.7,28.4,246.7,31.4,246.7,37.2z"/>		<path class="st0" d="M241.5,42.7c-1-2-1.5-5-1.5-9c0-3.3,0.9-5.2,2.5-5.6V16.6c-13.4,0.2-20.1,5.4-20.1,15.5V42			c0,3.9,1,6.9,2.9,8.8c1.9,2,7.6,5.4,17,10.4c0.1,0,0.1,0.1,0.2,0.1V44.1C242,43.6,241.7,43.1,241.5,42.7z"/>		<path class="st0" d="M258.1,53.2c-6.9-3.4-11.7-6.1-14.3-8.1v17.5c1.6,2.2,2.4,5.7,2.4,10.6c0,4.2-0.8,6.6-2.4,7.1v11.4			c13.7-0.2,20.6-5.4,20.6-15.5v-11C264.3,60.2,262.2,56.2,258.1,53.2z"/>		<path class="st0" d="M240.1,76.7V62.2H222v14.5c0,9.8,6.9,14.8,20.5,14.9V80.4C240.9,80.1,240.1,78.9,240.1,76.7z"/>	</g>	<g>		<path class="st1" d="M523.3,36.9l-0.4,6.4h17.6V31.2c0-9.9-6.7-14.8-20.2-14.9v11.5C522.3,28.1,523.3,31.2,523.3,36.9z"/>		<path class="st1" d="M518.1,42.5c-1-2-1.5-5-1.5-9c0-3.3,0.9-5.2,2.6-5.6V16.3c-13.4,0.2-20.1,5.4-20.1,15.5v9.9			c0,3.9,1,6.9,2.9,8.8c1.9,2,7.6,5.4,17,10.4c0.1,0,0.1,0.1,0.2,0.2V43.8C518.6,43.3,518.2,42.9,518.1,42.5z"/>		<path class="st1" d="M534.6,52.9c-6.9-3.4-11.7-6.1-14.3-8.1v17.6c1.6,2.2,2.3,5.7,2.3,10.6c0,4.2-0.8,6.5-2.3,7v11.4			c13.7-0.2,20.6-5.4,20.6-15.5v-11C540.9,59.9,538.8,55.9,534.6,52.9z"/>		<path class="st1" d="M516.6,76.4V62h-18.1v14.5c0,9.8,6.9,14.8,20.6,14.9V80.1C517.5,79.9,516.6,78.6,516.6,76.4z"/>	</g>	<g>		<path class="st1" d="M369.4,16.9c-0.1,0-0.1,0-0.2,0v11.5c1.5,0.3,2.3,1.5,2.3,3.5v10.9c0,0.8-0.8,1.7-2.3,2.8V59			c0.7-0.3,1.4-0.5,2.3-0.8v18.9c0,2-0.8,3.1-2.3,3.3v10.6c2.2-0.6,3.7-1.6,4.4-3v2.9h16V32.4C389.5,22,382.8,16.9,369.4,16.9z"/>		<path class="st1" d="M365.3,77.2V63.8c0-1.8,0.9-3.2,2.7-4.2V46.3c-0.8,0.5-1.7,1-2.8,1.5c-7.2,3.7-12,6.7-14.4,9.2			c-2.4,2.5-3.6,5.3-3.6,8.6v14.8c0,7.7,4.9,11.5,14.8,11.5c2.3,0,4.3-0.2,6-0.5v-11C366.2,80.3,365.3,79.2,365.3,77.2z"/>		<path class="st1" d="M347.8,31.8v12.3h17.4c0-1.1-0.1-0.3-0.3-2.3c-0.1-2.1-0.2-3.6-0.2-4.7c0-5.5,1-8.4,3.1-8.8V16.9			C354.6,17.2,347.8,22.2,347.8,31.8z"/>	</g>	<g>		<path class="st1" d="M448.8,31.2v12.3h17.4c0-1.1-0.1-0.3-0.3-2.3c-0.1-2.1-0.2-3.6-0.2-4.7c0-5.5,1-8.4,3.1-8.8V16.3			C455.5,16.7,448.8,21.6,448.8,31.2z"/>		<path class="st1" d="M466.2,76.6V63.3c0-1.8,0.9-3.2,2.7-4.2V45.8c-0.8,0.5-1.7,1-2.8,1.5c-7.2,3.7-12,6.7-14.4,9.2			c-2.4,2.5-3.6,5.3-3.6,8.6v14.8c0,7.7,4.9,11.5,14.8,11.5c2.3,0,4.3-0.2,6-0.5V79.9C467.1,79.8,466.2,78.7,466.2,76.6z"/>		<path class="st1" d="M470.3,16.3c-0.1,0-0.1,0-0.2,0v11.5c1.5,0.3,2.3,1.5,2.3,3.5v10.9c0,0.8-0.8,1.7-2.3,2.7v13.5			c0.7-0.3,1.4-0.5,2.3-0.7v18.9c0,2-0.8,3.1-2.3,3.3v10.6c2.2-0.6,3.7-1.6,4.4-3v2.9h16V31.8C490.4,21.5,483.7,16.3,470.3,16.3z"/>	</g>	<g>		<path class="st1" d="M649.9,31.4v16.9h-2.6v11H668v-28c0-9.8-6.9-14.7-20.6-14.9v11.5C649.1,28,649.9,29.2,649.9,31.4z"/>		<path class="st1" d="M643.7,76.4V59.2h2.4v-11h-2.4V31.4c0-2.1,0.8-3.3,2.4-3.6V16.3c-13.7,0.1-20.5,5.3-20.5,15.5v44.1			c0,10.2,6.8,15.4,20.5,15.5V80.1C644.6,79.8,643.7,78.6,643.7,76.4z"/>		<path class="st1" d="M668,76.5V62.8h-18.1v13.6c0,2.3-0.9,3.5-2.6,3.7v11.3C661.1,91.2,668,86.3,668,76.5z"/>	</g>	<g>		<path class="st1" d="M418.8,80.5c-2.1,0-3.1-1.1-3.1-3.4v-46c0-2.2,1-3.4,3.1-3.4c0.8,0,1.4,0.2,1.8,0.5v-9.3			c-3.5-1.7-6.4-2.6-8.7-2.6c-9.6,0-14.4,4-14.4,12v52.9c0,3,1.3,5.5,3.9,7.4c2.6,1.9,5.7,2.8,9.2,2.8c4.3,0,7.6-0.7,9.9-1.9V80			C420.2,80.3,419.6,80.5,418.8,80.5z"/>		<path class="st1" d="M415.5,95.3h-14.6V106h18.7c0.4,0,0.7,0,1.1,0V93.2C419.6,94.6,417.9,95.3,415.5,95.3z"/>		<path class="st1" d="M421.9,16.8v89.1c8.4-0.2,13.1-2.1,15.2-4.7c2.1-2.6,2.8-5.9,2.8-10.7V16.8H421.9z"/>	</g>	<g>		<polygon class="st1" points="593.3,19.3 593.3,16.8 575.2,16.8 575.2,90.4 593.3,90.4 593.3,31.2 		"/>		<path class="st1" d="M613.4,19c-2.7-1.8-5.7-2.7-9-2.7c-4.3,0-7.6,0.7-9.9,2.1v10c0.5-0.3,1.1-0.5,1.9-0.5c2.1,0,3.1,1.1,3.1,3.4			v59.1h18.1V26.8C617.6,23.3,616.2,20.7,613.4,19z"/>	</g>	<g>		<polygon class="st1" points="290.5,20 290.5,17.4 272.5,17.4 272.5,90.9 290.5,90.9 290.5,31.9 		"/>		<path class="st1" d="M314.8,20.4c-0.3-0.4-2-3.6-13.1-3.5c-4.2,0-7.6,0.8-10,2.2v10c0.5-0.3,1.1-0.5,1.9-0.5c2,0,3.1,1.1,3.1,3.4			v58.9h18.1V32V20.4z"/>		<path class="st1" d="M334.9,19.7c-2.7-1.9-5.7-2.8-8.8-2.8c-4,0-7.4,0.9-10.1,2.7v9.7c0.5-0.3,1.1-0.5,1.9-0.5			c2,0,3.1,1.1,3.1,3.4v58.8h18.1V27.5C339.1,24.2,337.7,21.6,334.9,19.7z"/>	</g></g></svg>