<?xml version="1.0" encoding="utf-8"?>
<!-- Generator: Adobe Illustrator 17.1.0, SVG Export Plug-In . SVG Version: 6.00 Build 0)  -->
<!DOCTYPE svg PUBLIC "-//W3C//DTD SVG 1.1//EN" "http://www.w3.org/Graphics/SVG/1.1/DTD/svg11.dtd">
<svg version="1.1" id="Layer_1" xmlns="http://www.w3.org/2000/svg" xmlns:xlink="http://www.w3.org/1999/xlink" x="0px" y="0px"
	 width="14px" height="14px" viewBox="0 0 14 14" enable-background="new 0 0 14 14" xml:space="preserve">
<g>
	<g>
		<path fill-rule="evenodd" clip-rule="evenodd" fill="#5D5E5E" d="M5,0H1C0.4,0,0,0.4,0,1v4c0,0.6,0.4,1,1,1h4c0.6,0,1-0.4,1-1V1
			C6,0.4,5.6,0,5,0z M13,0H9C8.4,0,8,0.4,8,1v4c0,0.6,0.4,1,1,1h4c0.6,0,1-0.4,1-1V1C14,0.4,13.6,0,13,0z M5,8H1C0.4,8,0,8.4,0,9v4
			c0,0.6,0.4,1,1,1h4c0.6,0,1-0.4,1-1V9C6,8.4,5.6,8,5,8z M13,8H9C8.4,8,8,8.4,8,9v4c0,0.6,0.4,1,1,1h4c0.6,0,1-0.4,1-1V9
			C14,8.4,13.6,8,13,8z"/>
	</g>
</g>
</svg>
