<?xml version="1.0" standalone="no"?>
<!DOCTYPE svg PUBLIC "-//W3C//DTD SVG 1.1//EN" "http://www.w3.org/Graphics/SVG/1.1/DTD/svg11.dtd" >
<svg xmlns="http://www.w3.org/2000/svg" xmlns:xlink="http://www.w3.org/1999/xlink" version="1.1">
<metadata>
Created by FontForge 20161116 at Mon Apr  7 15:14:21 2014
 By Jimmy Warting
Copyright (c) 2013, Natanael Gama (www.ndiscovered.com . info(at)ndiscovered.com), with Reserved Font Name Exo. This Font Software is licensed under the SIL Open Font License, Version 1.1.
</metadata>
<defs>
<font id="Exo2-SemiBold" horiz-adv-x="568" >
  <font-face 
    font-family="Exo 2 Semi Bold"
    font-weight="600"
    font-stretch="normal"
    units-per-em="1000"
    panose-1="0 0 7 0 0 0 0 0 0 0"
    ascent="800"
    descent="-200"
    x-height="490"
    cap-height="690"
    bbox="-175 -285 1241 944"
    underline-thickness="50"
    underline-position="-100"
    stemh="123"
    stemv="86"
    unicode-range="U+0020-FB02"
  />
<missing-glyph horiz-adv-x="600" 
 />
    <glyph glyph-name=".notdef" horiz-adv-x="600" 
 />
    <glyph glyph-name="A" unicode="A" horiz-adv-x="636" 
d="M446 195h-256l-57 -195h-128l207 657c6 21 24 33 45 33h122c21 0 39 -12 45 -33l207 -657h-128zM416 298l-69 238c-5 19 -12 40 -15 59h-27l-16 -59l-69 -238h196z" />
    <glyph glyph-name="Aacute" unicode="&#xc1;" horiz-adv-x="636" 
d="M280 724l-38 54l188 147l63 -89zM446 195h-256l-57 -195h-128l208 657c5 21 23 33 44 33h122c22 0 39 -12 45 -33l207 -657h-128zM416 298l-69 238c-5 19 -12 40 -15 59h-27l-16 -59l-69 -238h196z" />
    <glyph glyph-name="Abreve" unicode="&#x102;" horiz-adv-x="636" 
d="M319 741c-105 0 -167 62 -159 143l59 8c0 -42 33 -66 100 -66c64 0 98 24 98 66l59 -8c8 -81 -54 -143 -157 -143zM446 195h-256l-57 -195h-128l208 657c5 21 23 33 44 33h122c22 0 39 -12 45 -33l207 -657h-128zM416 298l-69 238c-5 19 -12 40 -15 59h-27l-16 -59
l-69 -238h196z" />
    <glyph glyph-name="Acircumflex" unicode="&#xc2;" horiz-adv-x="636" 
d="M180 723l-37 50l131 132h88l132 -133l-39 -49l-133 96h-8zM446 195h-256l-57 -195h-128l208 657c5 21 23 33 44 33h122c22 0 39 -12 45 -33l207 -657h-128zM416 298l-69 238c-5 19 -12 40 -15 59h-27l-16 -59l-69 -238h196z" />
    <glyph glyph-name="Adieresis" unicode="&#xc4;" horiz-adv-x="636" 
d="M249 763h-41c-20 0 -29 9 -29 30v55c0 19 9 31 29 31h41c20 0 29 -12 29 -31v-55c0 -21 -9 -30 -29 -30zM427 763h-39c-21 0 -31 9 -31 30v55c0 19 10 31 31 31h39c19 0 31 -12 31 -31v-55c0 -21 -12 -30 -31 -30zM446 195h-256l-57 -195h-128l208 657c5 21 23 33 44 33
h122c22 0 39 -12 45 -33l207 -657h-128zM416 298l-69 238c-5 19 -12 40 -15 59h-27l-16 -59l-69 -238h196z" />
    <glyph glyph-name="Agrave" unicode="&#xc0;" horiz-adv-x="636" 
d="M341 724l-212 112l62 89l188 -147zM446 195h-256l-57 -195h-128l208 657c5 21 23 33 44 33h122c22 0 39 -12 45 -33l207 -657h-128zM416 298l-69 238c-5 19 -12 40 -15 59h-27l-16 -59l-69 -238h196z" />
    <glyph glyph-name="Amacron" unicode="&#x100;" horiz-adv-x="636" 
d="M464 778h-290v84h290v-84zM446 195h-256l-57 -195h-128l208 657c5 21 23 33 44 33h122c22 0 39 -12 45 -33l207 -657h-128zM416 298l-69 238c-5 19 -12 40 -15 59h-27l-16 -59l-69 -238h196z" />
    <glyph glyph-name="Aogonek" unicode="&#x104;" horiz-adv-x="636" 
d="M635 -145l13 -48c-138 -55 -190 9 -165 79c11 32 39 73 95 114h-75l-57 195h-256l-57 -195h-128l208 657c5 21 23 33 44 33h122c22 0 39 -12 45 -33l207 -657h1c-26 -32 -50 -64 -66 -106c-20 -44 14 -56 69 -39zM416 298l-69 238c-5 19 -12 40 -15 59h-27l-16 -59
l-69 -238h196z" />
    <glyph glyph-name="Aring" unicode="&#xc5;" horiz-adv-x="636" 
d="M319 713c-63 0 -113 47 -113 111c0 62 51 111 113 111c61 0 113 -49 113 -111c0 -64 -51 -111 -113 -111zM319 878c-30 0 -53 -21 -53 -54c0 -34 24 -54 53 -54s53 20 53 54c0 33 -24 54 -53 54zM446 195h-256l-57 -195h-128l208 657c5 21 23 33 44 33h122
c22 0 39 -12 45 -33l207 -657h-128zM416 298l-69 238c-5 19 -12 40 -15 59h-27l-16 -59l-69 -238h196z" />
    <glyph glyph-name="Atilde" unicode="&#xc3;" horiz-adv-x="636" 
d="M205 760h-53c-12 91 30 134 80 130c64 -5 100 -43 155 -50c35 -5 43 10 43 45h53c13 -86 -25 -133 -80 -129c-68 5 -108 45 -156 52c-35 4 -42 -12 -42 -48zM446 195h-256l-57 -195h-128l208 657c5 21 23 33 44 33h122c22 0 39 -12 45 -33l207 -657h-128zM416 298
l-69 238c-5 19 -12 40 -15 59h-27l-16 -59l-69 -238h196z" />
    <glyph glyph-name="AE" unicode="&#xc6;" horiz-adv-x="921" 
d="M870 102l6 -96c-97 -8 -204 -8 -307 -8c-74 0 -123 54 -123 131v73h-217l-107 -202h-130l312 568c49 94 107 123 262 123c124 0 212 -1 310 -7l-6 -97h-248c-35 0 -59 -23 -59 -61v-116h270v-97h-270v-153c0 -42 16 -58 59 -58h248zM446 301v239c0 27 12 56 26 69h-9
c-16 -10 -33 -32 -48 -57l-133 -251h164z" />
    <glyph glyph-name="B" unicode="B" horiz-adv-x="628" 
d="M439 360v-4c104 -9 139 -74 139 -184c0 -142 -65 -180 -226 -180c-126 0 -192 1 -275 8v690c74 7 134 8 244 8c174 0 236 -38 236 -180c0 -99 -34 -150 -118 -158zM315 597h-115v-194h125c84 0 112 20 112 99c0 77 -30 95 -122 95zM200 94l131 -1c93 0 122 19 122 102
c0 92 -31 116 -126 117h-127v-218z" />
    <glyph glyph-name="C" unicode="C" horiz-adv-x="578" 
d="M334 702c92 0 138 -6 198 -22l-12 -95c-62 5 -103 7 -186 7c-114 0 -149 -58 -149 -247s35 -247 149 -247c88 0 142 2 201 10l11 -94c-61 -19 -117 -26 -212 -26c-207 0 -281 94 -281 357s74 357 281 357z" />
    <glyph glyph-name="Cacute" unicode="&#x106;" horiz-adv-x="578" 
d="M498 836l-213 -112l-38 54l188 147zM334 702c92 0 138 -6 198 -22l-11 -95c-63 5 -103 7 -187 7c-114 0 -149 -58 -149 -247s35 -247 149 -247c89 0 142 2 201 10l11 -94c-61 -19 -117 -26 -212 -26c-207 0 -281 94 -281 357s74 357 281 357z" />
    <glyph glyph-name="Ccaron" unicode="&#x10c;" horiz-adv-x="578" 
d="M499 872l-149 -131h-52l-148 131l37 50l133 -81h8l132 81zM334 702c92 0 138 -6 198 -22l-11 -95c-63 5 -103 7 -187 7c-114 0 -149 -58 -149 -247s35 -247 149 -247c89 0 142 2 201 10l11 -94c-61 -19 -117 -26 -212 -26c-207 0 -281 94 -281 357s74 357 281 357z" />
    <glyph glyph-name="Ccedilla" unicode="&#xc7;" horiz-adv-x="578" 
d="M334 702c92 0 138 -6 198 -22l-11 -95c-63 5 -103 7 -187 7c-114 0 -149 -58 -149 -247s35 -247 149 -247c89 0 142 2 201 10l11 -94c-61 -19 -117 -26 -212 -26c-207 0 -281 94 -281 357s74 357 281 357zM259 -108l12 53c92 10 133 2 131 -65c-3 -94 -83 -143 -185 -130
l17 59c48 -1 83 22 86 61c1 18 -10 22 -61 22z" />
    <glyph glyph-name="Cdotaccent" unicode="&#x10a;" horiz-adv-x="578" 
d="M305 876h38c22 0 34 -12 34 -35v-54c0 -22 -12 -34 -34 -34h-38c-23 0 -35 12 -35 34v54c0 23 12 35 35 35zM334 702c92 0 138 -6 198 -22l-11 -95c-63 5 -103 7 -187 7c-114 0 -149 -58 -149 -247s35 -247 149 -247c89 0 142 2 201 10l11 -94c-61 -19 -117 -26 -212 -26
c-207 0 -281 94 -281 357s74 357 281 357z" />
    <glyph glyph-name="D" unicode="D" horiz-adv-x="671" 
d="M335 699c207 0 282 -84 282 -354s-75 -354 -282 -354c-100 0 -182 4 -258 9v690c76 5 157 9 258 9zM335 96c114 0 150 59 150 249s-36 250 -150 250c-51 0 -93 -1 -133 -1v-496c39 -1 83 -2 133 -2z" />
    <glyph glyph-name="Eth" unicode="&#xd0;" horiz-adv-x="675" 
d="M339 699c208 0 282 -84 282 -354s-74 -354 -282 -354c-99 0 -182 4 -258 9v331h-62v66h62v293c76 5 158 9 258 9zM339 96c114 0 150 59 150 249s-36 250 -150 250c-50 0 -93 -1 -132 -1v-197h134v-66h-134v-233c39 -1 83 -2 132 -2z" />
    <glyph glyph-name="Dcaron" unicode="&#x10e;" horiz-adv-x="671" 
d="M295 741l-148 131l37 50l133 -81h8l132 81l39 -50l-149 -131h-52zM335 699c207 0 282 -84 282 -354s-75 -354 -282 -354c-100 0 -182 4 -258 9v690c76 5 157 9 258 9zM335 96c114 0 150 59 150 249s-36 250 -150 250c-50 0 -93 -1 -133 -1v-496c39 -1 83 -2 133 -2z" />
    <glyph glyph-name="Dcroat" unicode="&#x110;" horiz-adv-x="675" 
d="M339 699c208 0 282 -84 282 -354s-74 -354 -282 -354c-99 0 -182 4 -258 9v331h-62v66h62v293c76 5 158 9 258 9zM339 96c114 0 150 59 150 249s-36 250 -150 250c-50 0 -93 -1 -132 -1v-197h134v-66h-134v-233c39 -1 83 -2 132 -2z" />
    <glyph glyph-name="E" unicode="E" 
d="M517 101l6 -95c-91 -8 -203 -8 -304 -8c-91 0 -147 50 -148 131v432c1 81 58 131 148 131c101 0 213 0 304 -8l-6 -96h-270c-36 0 -50 -15 -50 -58v-121h283v-96h-283v-154c0 -43 14 -58 50 -58h270z" />
    <glyph glyph-name="Eacute" unicode="&#xc9;" 
d="M273 741l-38 54l188 147l63 -89zM517 101l6 -95c-92 -8 -203 -8 -305 -8c-90 0 -146 50 -147 131v432c1 81 57 131 147 131c102 0 213 0 305 -8l-6 -96h-270c-37 0 -50 -15 -50 -58v-121h282v-96h-282v-154c0 -43 13 -58 50 -58h270z" />
    <glyph glyph-name="Ecaron" unicode="&#x11a;" 
d="M286 757l-148 131l37 50l133 -81h8l132 81l39 -50l-149 -131h-52zM517 101l6 -95c-92 -8 -203 -8 -305 -8c-90 0 -146 50 -147 131v432c1 81 57 131 147 131c102 0 213 0 305 -8l-6 -96h-270c-37 0 -50 -15 -50 -58v-121h282v-96h-282v-154c0 -43 13 -58 50 -58h270z" />
    <glyph glyph-name="Ecircumflex" unicode="&#xca;" 
d="M173 740l-37 50l131 132h88l132 -133l-39 -49l-133 96h-8zM517 101l6 -95c-92 -8 -203 -8 -305 -8c-90 0 -146 50 -147 131v432c1 81 57 131 147 131c102 0 213 0 305 -8l-6 -96h-270c-37 0 -50 -15 -50 -58v-121h282v-96h-282v-154c0 -43 13 -58 50 -58h270z" />
    <glyph glyph-name="Edieresis" unicode="&#xcb;" 
d="M242 780h-41c-20 0 -29 9 -29 30v55c0 19 9 31 29 31h41c20 0 29 -12 29 -31v-55c0 -21 -9 -30 -29 -30zM420 780h-39c-21 0 -31 9 -31 30v55c0 19 10 31 31 31h39c19 0 31 -12 31 -31v-55c0 -21 -12 -30 -31 -30zM517 101l6 -95c-92 -8 -203 -8 -305 -8
c-90 0 -146 50 -147 131v432c1 81 57 131 147 131c102 0 213 0 305 -8l-6 -96h-270c-37 0 -50 -15 -50 -58v-121h282v-96h-282v-154c0 -43 13 -58 50 -58h270z" />
    <glyph glyph-name="Edotaccent" unicode="&#x116;" 
d="M331 770h-38c-23 0 -35 12 -35 34v54c0 23 12 35 35 35h38c22 0 34 -12 34 -35v-54c0 -22 -12 -34 -34 -34zM517 101l6 -95c-92 -8 -203 -8 -305 -8c-90 0 -146 50 -147 131v432c1 81 57 131 147 131c102 0 213 0 305 -8l-6 -96h-270c-37 0 -50 -15 -50 -58v-121h282v-96
h-282v-154c0 -43 13 -58 50 -58h270z" />
    <glyph glyph-name="Egrave" unicode="&#xc8;" 
d="M334 741l-212 112l62 89l188 -147zM517 101l6 -95c-92 -8 -203 -8 -305 -8c-90 0 -146 50 -147 131v432c1 81 57 131 147 131c102 0 213 0 305 -8l-6 -96h-270c-37 0 -50 -15 -50 -58v-121h282v-96h-282v-154c0 -43 13 -58 50 -58h270z" />
    <glyph glyph-name="Emacron" unicode="&#x112;" 
d="M457 794h-290v84h290v-84zM517 101l6 -95c-92 -8 -203 -8 -305 -8c-90 0 -146 50 -147 131v432c1 81 57 131 147 131c102 0 213 0 305 -8l-6 -96h-270c-37 0 -50 -15 -50 -58v-121h282v-96h-282v-154c0 -43 13 -58 50 -58h270z" />
    <glyph glyph-name="Eogonek" unicode="&#x118;" 
d="M526 -139l13 -48c-138 -55 -190 9 -165 79c10 31 37 70 90 110c-78 -4 -165 -4 -246 -4c-90 0 -146 50 -147 131v432c1 81 57 131 147 131c102 0 213 0 305 -8l-6 -96h-270c-37 0 -50 -15 -50 -58v-121h282v-96h-282v-154c0 -43 13 -58 50 -58h270l6 -95
c-26 -32 -50 -64 -66 -106c-20 -44 14 -56 69 -39z" />
    <glyph glyph-name="F" unicode="F" horiz-adv-x="546" 
d="M510 588h-250c-44 0 -59 -15 -59 -58v-133h272v-97h-272v-300h-126v556c0 87 58 136 148 136c98 0 206 0 294 -9z" />
    <glyph glyph-name="G" unicode="G" horiz-adv-x="635" 
d="M576 398v-398h-93l-11 68c-37 -35 -106 -81 -202 -81c-153 0 -216 112 -216 361c0 276 79 355 302 355c69 0 137 -6 198 -23l-10 -93c-65 4 -135 6 -182 6c-131 0 -177 -27 -177 -252c0 -185 31 -246 124 -246c58 0 103 22 145 48v255h122z" />
    <glyph glyph-name="Gbreve" unicode="&#x11e;" horiz-adv-x="635" 
d="M333 741c-105 0 -167 62 -159 143l59 8c0 -42 33 -66 100 -66c64 0 98 24 98 66l59 -8c8 -81 -54 -143 -157 -143zM575 398v-398h-92l-12 68c-37 -36 -106 -81 -201 -81c-153 0 -216 112 -216 361c0 276 79 355 302 355c69 0 137 -6 199 -23l-11 -93c-65 4 -135 6 -181 6
c-132 0 -177 -27 -177 -252c0 -185 30 -246 123 -246c57 0 103 22 145 47v256h121z" />
    <glyph glyph-name="Gcommaaccent" unicode="&#x122;" horiz-adv-x="635" 
d="M575 398v-398h-92l-12 68c-37 -36 -106 -81 -201 -81c-153 0 -216 112 -216 361c0 276 79 355 302 355c69 0 137 -6 199 -23l-11 -93c-65 4 -135 6 -181 6c-132 0 -177 -27 -177 -252c0 -185 30 -246 123 -246c57 0 103 22 145 47v256h121zM315 -55h29c30 0 39 -9 38 -36
l1 -53c-1 -58 -16 -101 -40 -141l-50 13c8 34 12 64 12 103c-20 0 -31 12 -31 31v47c2 27 13 36 41 36z" />
    <glyph glyph-name="Gdotaccent" unicode="&#x120;" horiz-adv-x="635" 
d="M351 753h-38c-23 0 -35 12 -35 34v54c0 23 12 35 35 35h38c22 0 34 -12 34 -35v-54c0 -22 -12 -34 -34 -34zM575 398v-398h-92l-12 68c-37 -36 -106 -81 -201 -81c-153 0 -216 112 -216 361c0 276 79 355 302 355c69 0 137 -6 199 -23l-11 -93c-65 4 -135 6 -181 6
c-132 0 -177 -27 -177 -252c0 -185 30 -246 123 -246c57 0 103 22 145 47v256h121z" />
    <glyph glyph-name="H" unicode="H" horiz-adv-x="678" 
d="M600 690v-690h-125v316h-273v-316h-125v690h125v-271h273v271h125z" />
    <glyph glyph-name="Hbar" unicode="&#x126;" horiz-adv-x="685" 
d="M668 516h-64v-516h-125v316h-273v-316h-125v516h-65v62h65v112h125v-112h273v112h125v-112h64v-62zM479 516h-273v-97h273v97z" />
    <glyph glyph-name="I" unicode="I" horiz-adv-x="279" 
d="M202 0h-125v690h125v-690z" />
    <glyph glyph-name="IJ" unicode="&#x132;" horiz-adv-x="633" 
d="M202 0h-125v690h125v-690zM558 690v-538c0 -105 -52 -163 -144 -163c-31 0 -85 7 -110 17l13 87h47c47 0 70 22 70 62v535h124z" />
    <glyph glyph-name="Iacute" unicode="&#xcd;" horiz-adv-x="279" 
d="M315 836l-213 -112l-38 54l188 147zM202 0h-125v690h125v-690z" />
    <glyph glyph-name="Icircumflex" unicode="&#xce;" horiz-adv-x="279" 
d="M316 772l-39 -49l-133 96h-8l-134 -96l-37 50l131 132h88zM202 0h-125v690h125v-690z" />
    <glyph glyph-name="Idieresis" unicode="&#xcf;" horiz-adv-x="279" 
d="M30 879h41c20 0 29 -12 29 -31v-55c0 -21 -9 -30 -29 -30h-41c-20 0 -29 9 -29 30v55c0 19 9 31 29 31zM210 879h39c19 0 31 -12 31 -31v-55c0 -21 -12 -30 -31 -30h-39c-21 0 -31 9 -31 30v55c0 19 10 31 31 31zM202 0h-125v690h125v-690z" />
    <glyph glyph-name="Idotaccent" unicode="&#x130;" horiz-adv-x="279" 
d="M122 876h38c22 0 34 -12 34 -35v-54c0 -22 -12 -34 -34 -34h-38c-23 0 -35 12 -35 34v54c0 23 12 35 35 35zM202 0h-125v690h125v-690z" />
    <glyph glyph-name="Igrave" unicode="&#xcc;" horiz-adv-x="279" 
d="M200 778l-38 -54l-212 112l62 89zM202 0h-125v690h125v-690z" />
    <glyph glyph-name="Imacron" unicode="&#x12a;" horiz-adv-x="279" 
d="M285 778h-290v84h290v-84zM202 0h-125v690h125v-690z" />
    <glyph glyph-name="Iogonek" unicode="&#x12e;" horiz-adv-x="279" 
d="M190 -145l13 -48c-138 -55 -190 9 -165 79c11 32 39 73 95 114h-56v690h125v-690h-15c-26 -32 -50 -64 -66 -106c-20 -44 14 -56 69 -39z" />
    <glyph glyph-name="J" unicode="J" horiz-adv-x="354" 
d="M279 690v-538c0 -105 -52 -163 -144 -163c-31 0 -85 7 -110 17l13 87h47c47 0 70 22 70 62v535h124z" />
    <glyph glyph-name="K" unicode="K" horiz-adv-x="612" 
d="M264 311h-69c4 -23 7 -46 7 -68v-243h-125v690h125v-203c0 -28 -2 -54 -7 -80h68l189 283h136l-186 -278c-13 -21 -25 -34 -46 -52v-3c22 -18 41 -38 54 -59l191 -298h-140z" />
    <glyph glyph-name="Kcommaaccent" unicode="&#x136;" horiz-adv-x="612" 
d="M601 0h-139l-198 311h-69c4 -23 7 -46 7 -68v-243h-125v690h125v-203c0 -28 -2 -54 -7 -80h68l190 283h136l-186 -278c-14 -21 -26 -34 -46 -52v-3c21 -18 41 -38 53 -59zM308 -55h29c30 0 39 -9 38 -36l1 -53c-1 -58 -16 -101 -40 -141l-50 13c8 34 12 64 12 103
c-20 0 -31 12 -31 31v47c2 27 13 36 41 36z" />
    <glyph glyph-name="L" unicode="L" horiz-adv-x="521" 
d="M200 690v-529c0 -42 15 -57 59 -57h240l5 -97c-87 -8 -181 -9 -274 -9c-115 0 -155 60 -155 143v549h125z" />
    <glyph glyph-name="Lacute" unicode="&#x139;" horiz-adv-x="521" 
d="M315 836l-213 -112l-38 54l188 147zM200 690v-529c0 -42 15 -57 59 -57h239l6 -97c-87 -8 -181 -9 -274 -9c-115 0 -155 60 -155 143v549h125z" />
    <glyph glyph-name="Lcaron" unicode="&#x13d;" horiz-adv-x="521" 
d="M340 692h29c30 0 39 -9 38 -36l1 -53c-1 -58 -16 -101 -40 -141l-50 13c8 34 12 64 12 103c-20 0 -31 12 -31 31v47c2 27 13 36 41 36zM200 690v-529c0 -42 15 -57 59 -57h239l6 -97c-87 -8 -181 -9 -274 -9c-115 0 -155 60 -155 143v549h125z" />
    <glyph glyph-name="Lcommaaccent" unicode="&#x13b;" horiz-adv-x="521" 
d="M200 690v-529c0 -42 15 -57 59 -57h239l6 -97c-87 -8 -181 -9 -274 -9c-115 0 -155 60 -155 143v549h125zM280 -55h29c30 0 39 -9 38 -36l1 -53c-1 -58 -16 -101 -40 -141l-50 13c8 34 12 64 12 103c-20 0 -31 12 -31 31v47c2 27 13 36 41 36z" />
    <glyph glyph-name="Ldot" unicode="&#x13f;" horiz-adv-x="521" 
d="M200 690v-529c0 -42 15 -57 59 -57h239l6 -97c-87 -8 -181 -9 -274 -9c-115 0 -155 60 -155 143v549h125zM421 341h-38c-22 0 -34 12 -34 35v54c0 22 12 34 34 34h38c23 0 35 -12 35 -34v-54c0 -23 -12 -35 -35 -35z" />
    <glyph glyph-name="Lslash" unicode="&#x141;" horiz-adv-x="528" 
d="M505 104l5 -97c-87 -8 -181 -9 -273 -9c-116 0 -156 60 -156 143v180l-64 -26v72l64 26v297h125v-246l111 45v-72l-111 -45v-211c0 -42 15 -57 59 -57h240z" />
    <glyph glyph-name="M" unicode="M" horiz-adv-x="894" 
d="M625 690h129c32 0 48 -17 49 -49l28 -641h-123l-23 589h-19l-119 -459c-7 -27 -24 -42 -52 -42h-96c-29 0 -46 15 -53 42l-121 459h-17l-22 -589h-122l26 641c1 32 17 49 49 49h130c28 0 44 -14 51 -42l98 -374c9 -32 14 -62 21 -94h15c6 32 12 62 21 95l98 373
c7 28 24 42 52 42z" />
    <glyph glyph-name="N" unicode="N" horiz-adv-x="715" 
d="M638 690v-644c0 -30 -16 -46 -46 -46h-99c-27 0 -41 12 -52 38l-194 423c-13 28 -34 71 -41 103h-12c5 -35 6 -70 6 -104v-460h-123v644c0 30 17 46 47 46h97c27 0 40 -12 52 -38l188 -411c13 -30 33 -72 48 -109h12c-3 38 -5 75 -5 112v446h122z" />
    <glyph glyph-name="Nacute" unicode="&#x143;" horiz-adv-x="715" 
d="M539 836l-213 -112l-38 54l188 147zM637 690v-644c0 -30 -15 -46 -45 -46h-100c-26 0 -40 12 -51 38l-194 423c-13 28 -34 71 -41 103h-12c4 -35 6 -70 6 -104v-460h-123v644c0 30 16 46 46 46h98c27 0 40 -12 52 -38l187 -411c14 -30 34 -72 49 -109h12
c-3 38 -5 75 -5 112v446h121z" />
    <glyph glyph-name="Ncaron" unicode="&#x147;" horiz-adv-x="715" 
d="M540 872l-149 -131h-52l-148 131l37 50l133 -81h8l132 81zM637 690v-644c0 -30 -15 -46 -45 -46h-100c-26 0 -40 12 -51 38l-194 423c-13 28 -34 71 -41 103h-12c4 -35 6 -70 6 -104v-460h-123v644c0 30 16 46 46 46h98c27 0 40 -12 52 -38l187 -411
c14 -30 34 -72 49 -109h12c-3 38 -5 75 -5 112v446h121z" />
    <glyph glyph-name="Ncommaaccent" unicode="&#x145;" horiz-adv-x="715" 
d="M637 690v-644c0 -30 -15 -46 -45 -46h-100c-26 0 -40 12 -51 38l-194 423c-13 28 -34 71 -41 103h-12c4 -35 6 -70 6 -104v-460h-123v644c0 30 16 46 46 46h98c27 0 40 -12 52 -38l187 -411c14 -30 34 -72 49 -109h12c-3 38 -5 75 -5 112v446h121zM334 -55h29
c30 0 39 -9 38 -36l1 -53c-1 -58 -16 -101 -40 -141l-50 13c8 34 12 64 12 103c-20 0 -31 12 -31 31v47c2 27 13 36 41 36z" />
    <glyph glyph-name="Eng" unicode="&#x14a;" horiz-adv-x="715" 
d="M638 690v-756c0 -94 -57 -148 -140 -147c-29 0 -76 6 -104 17l13 79h45c47 0 71 19 71 61v57h-32c-14 0 -23 17 -32 33l-213 410c-13 26 -30 69 -42 102h-10c5 -34 6 -68 6 -103v-443h-123v644c0 30 16 46 47 46h78c28 0 40 -12 53 -38l205 -394c14 -27 33 -71 48 -108
h12c-3 36 -5 72 -5 109v431h123z" />
    <glyph glyph-name="Ntilde" unicode="&#xd1;" horiz-adv-x="715" 
d="M277 890c64 -5 100 -43 155 -50c35 -5 43 10 43 45h53c13 -86 -25 -133 -80 -129c-68 5 -108 45 -156 52c-35 4 -42 -12 -42 -48h-53c-12 91 30 134 80 130zM637 690v-644c0 -30 -15 -46 -45 -46h-100c-26 0 -40 12 -51 38l-194 423c-13 28 -34 71 -41 103h-12
c4 -35 6 -70 6 -104v-460h-123v644c0 30 16 46 46 46h98c27 0 40 -12 52 -38l187 -411c14 -30 34 -72 49 -109h12c-3 38 -5 75 -5 112v446h121z" />
    <glyph glyph-name="O" unicode="O" horiz-adv-x="675" 
d="M337 703c211 0 285 -84 285 -358s-74 -358 -285 -358c-210 0 -284 84 -284 358s74 358 284 358zM337 596c-116 0 -152 -59 -152 -251s36 -251 152 -251c117 0 153 59 153 251s-36 251 -153 251z" />
    <glyph glyph-name="Oacute" unicode="&#xd3;" horiz-adv-x="675" 
d="M511 836l-213 -112l-38 54l188 147zM338 703c210 0 284 -84 284 -358s-74 -358 -284 -358s-285 84 -285 358s75 358 285 358zM338 596c-117 0 -153 -59 -153 -251s36 -251 153 -251c116 0 153 59 153 251s-37 251 -153 251z" />
    <glyph glyph-name="Ocircumflex" unicode="&#xd4;" horiz-adv-x="675" 
d="M512 772l-39 -49l-133 96h-8l-134 -96l-37 50l131 132h88zM338 703c210 0 284 -84 284 -358s-74 -358 -284 -358s-285 84 -285 358s75 358 285 358zM338 596c-117 0 -153 -59 -153 -251s36 -251 153 -251c116 0 153 59 153 251s-37 251 -153 251z" />
    <glyph glyph-name="Odieresis" unicode="&#xd6;" horiz-adv-x="675" 
d="M226 879h41c20 0 29 -12 29 -31v-55c0 -21 -9 -30 -29 -30h-41c-20 0 -29 9 -29 30v55c0 19 9 31 29 31zM406 879h39c19 0 31 -12 31 -31v-55c0 -21 -12 -30 -31 -30h-39c-21 0 -31 9 -31 30v55c0 19 10 31 31 31zM338 703c210 0 284 -84 284 -358s-74 -358 -284 -358
s-285 84 -285 358s75 358 285 358zM338 596c-117 0 -153 -59 -153 -251s36 -251 153 -251c116 0 153 59 153 251s-37 251 -153 251z" />
    <glyph glyph-name="Ograve" unicode="&#xd2;" horiz-adv-x="675" 
d="M396 778l-38 -54l-212 112l62 89zM338 703c210 0 284 -84 284 -358s-74 -358 -284 -358s-285 84 -285 358s75 358 285 358zM338 596c-117 0 -153 -59 -153 -251s36 -251 153 -251c116 0 153 59 153 251s-37 251 -153 251z" />
    <glyph glyph-name="Ohungarumlaut" unicode="&#x150;" horiz-adv-x="675" 
d="M380 881l-145 -164l-51 39l112 182zM559 881l-145 -164l-50 39l111 182zM338 703c210 0 284 -84 284 -358s-74 -358 -284 -358s-285 84 -285 358s75 358 285 358zM338 596c-117 0 -153 -59 -153 -251s36 -251 153 -251c116 0 153 59 153 251s-37 251 -153 251z" />
    <glyph glyph-name="Omacron" unicode="&#x14c;" horiz-adv-x="675" 
d="M482 778h-290v84h290v-84zM338 703c210 0 284 -84 284 -358s-74 -358 -284 -358s-285 84 -285 358s75 358 285 358zM338 596c-117 0 -153 -59 -153 -251s36 -251 153 -251c116 0 153 59 153 251s-37 251 -153 251z" />
    <glyph glyph-name="Oslash" unicode="&#xd8;" horiz-adv-x="675" 
d="M549 731l-32 -67c75 -48 105 -146 105 -319c0 -274 -74 -358 -284 -358c-51 0 -94 5 -130 16l-30 -64l-55 23l31 67c-72 49 -101 146 -101 316c0 274 75 358 285 358c49 0 90 -5 125 -15l31 66zM185 345c0 -90 8 -151 28 -190l201 428c-21 9 -46 13 -76 13
c-117 0 -153 -59 -153 -251zM338 94c116 0 153 59 153 251c0 94 -9 156 -31 195l-202 -431c21 -10 47 -15 80 -15z" />
    <glyph glyph-name="Otilde" unicode="&#xd5;" horiz-adv-x="675" 
d="M250 890c64 -5 100 -43 155 -50c35 -5 43 10 43 45h53c13 -86 -25 -133 -80 -129c-68 5 -108 45 -156 52c-35 4 -42 -12 -42 -48h-53c-12 91 30 134 80 130zM338 703c210 0 284 -84 284 -358s-74 -358 -284 -358s-285 84 -285 358s75 358 285 358zM338 596
c-117 0 -153 -59 -153 -251s36 -251 153 -251c116 0 153 59 153 251s-37 251 -153 251z" />
    <glyph glyph-name="OE" unicode="&#x152;" horiz-adv-x="930" 
d="M879 101l6 -95c-94 -8 -208 -8 -312 -8c-27 0 -52 8 -72 22c-50 -24 -93 -33 -164 -33c-210 0 -284 84 -284 358s74 358 284 358c74 0 118 -9 172 -30c20 12 45 19 73 19c102 0 212 0 303 -8l-6 -96h-251c-43 0 -58 -15 -58 -58v-120h272v-97h-272v-154
c0 -43 15 -58 58 -58h251zM185 345c0 -192 36 -251 152 -251c53 0 80 4 110 12c-2 11 -3 23 -3 35v408c0 12 1 24 4 35c-31 7 -59 12 -111 12c-116 0 -152 -57 -152 -251z" />
    <glyph glyph-name="P" unicode="P" horiz-adv-x="601" 
d="M327 699c179 0 237 -48 237 -222c0 -175 -58 -222 -221 -222c-50 0 -99 3 -141 8v-263h-125v690c79 8 132 9 250 9zM202 357h122c87 1 114 25 114 120s-27 119 -114 119l-122 -1v-238z" />
    <glyph glyph-name="Thorn" unicode="&#xde;" horiz-adv-x="601" 
d="M327 573c177 0 235 -49 235 -226s-58 -224 -220 -224c-49 0 -97 3 -139 8v-131h-126v690h126v-118c34 1 73 1 124 1zM203 226h120c86 1 113 24 113 121c0 99 -27 123 -113 123l-120 -1v-243z" />
    <glyph glyph-name="Q" unicode="Q" horiz-adv-x="677" 
d="M338 703c210 0 285 -84 285 -358s-75 -358 -285 -358s-284 84 -284 358s74 358 284 358zM338 596c-116 0 -153 -59 -153 -251s37 -251 153 -251c117 0 153 59 153 251s-36 251 -153 251zM261 -111l31 73c87 -31 182 -52 288 -66l-39 -120c-113 27 -204 71 -280 113z" />
    <glyph glyph-name="R" unicode="R" horiz-adv-x="629" 
d="M593 0h-133l-55 214c-14 45 -38 62 -80 62h-124v-276h-124v690c79 8 133 9 251 9c170 0 240 -45 240 -202c0 -103 -34 -162 -129 -174v-5c34 -8 77 -36 92 -102zM201 379h124c88 1 116 25 116 110s-28 107 -116 107h-124v-217z" />
    <glyph glyph-name="Racute" unicode="&#x154;" horiz-adv-x="629" 
d="M270 724l-38 54l188 147l63 -89zM593 0h-133l-55 214c-14 45 -38 62 -80 62h-124v-276h-124v690c79 8 133 9 251 9c170 0 239 -45 239 -202c0 -103 -33 -162 -128 -174v-5c34 -8 77 -36 92 -102zM201 379h124c88 1 116 25 116 110s-28 107 -116 107h-124v-217z" />
    <glyph glyph-name="Rcaron" unicode="&#x158;" horiz-adv-x="629" 
d="M282 741l-148 131l37 50l133 -81h8l132 81l39 -50l-149 -131h-52zM593 0h-133l-55 214c-14 45 -38 62 -80 62h-124v-276h-124v690c79 8 133 9 251 9c170 0 239 -45 239 -202c0 -103 -33 -162 -128 -174v-5c34 -8 77 -36 92 -102zM201 379h124c88 1 116 25 116 110
s-28 107 -116 107h-124v-217z" />
    <glyph glyph-name="Rcommaaccent" unicode="&#x156;" horiz-adv-x="629" 
d="M593 0h-133l-55 214c-14 45 -38 62 -80 62h-124v-276h-124v690c79 8 133 9 251 9c170 0 239 -45 239 -202c0 -103 -33 -162 -128 -174v-5c34 -8 77 -36 92 -102zM201 379h124c88 1 116 25 116 110s-28 107 -116 107h-124v-217zM316 -55h29c30 0 39 -9 38 -36l1 -53
c-1 -58 -16 -101 -40 -141l-50 13c8 34 12 64 12 103c-20 0 -31 12 -31 31v47c2 27 13 36 41 36z" />
    <glyph glyph-name="S" unicode="S" horiz-adv-x="570" 
d="M285 702c66 0 143 -4 217 -23l-8 -89c-57 2 -137 4 -205 4c-84 0 -115 -5 -115 -79c0 -61 23 -75 77 -92l133 -41c109 -35 142 -100 142 -201c0 -157 -68 -193 -245 -193c-42 0 -124 2 -224 22l8 92c131 -3 171 -4 219 -4c90 0 115 13 115 84c0 63 -23 75 -73 91l-139 44
c-102 33 -139 97 -139 200c0 158 72 185 237 185z" />
    <glyph glyph-name="Sacute" unicode="&#x15a;" horiz-adv-x="570" 
d="M458 836l-213 -112l-38 54l188 147zM285 702c66 0 143 -4 217 -23l-8 -89c-58 2 -137 4 -205 4c-84 0 -115 -5 -115 -79c0 -61 23 -75 77 -92l133 -41c109 -35 142 -100 142 -201c0 -157 -68 -193 -245 -193c-43 0 -124 2 -224 22l7 92c132 -3 172 -4 219 -4
c91 0 116 13 116 84c0 63 -23 75 -73 91l-139 44c-102 33 -139 97 -139 200c0 158 72 185 237 185z" />
    <glyph glyph-name="Scaron" unicode="&#x160;" horiz-adv-x="570" 
d="M458 872l-149 -131h-52l-148 131l37 50l133 -81h8l132 81zM285 702c66 0 143 -4 217 -23l-8 -89c-58 2 -137 4 -205 4c-84 0 -115 -5 -115 -79c0 -61 23 -75 77 -92l133 -41c109 -35 142 -100 142 -201c0 -157 -68 -193 -245 -193c-43 0 -124 2 -224 22l7 92
c132 -3 172 -4 219 -4c91 0 116 13 116 84c0 63 -23 75 -73 91l-139 44c-102 33 -139 97 -139 200c0 158 72 185 237 185z" />
    <glyph glyph-name="Scedilla" unicode="&#x15e;" horiz-adv-x="570" 
d="M285 702c66 0 143 -4 217 -23l-8 -89c-58 2 -137 4 -205 4c-84 0 -115 -5 -115 -79c0 -61 23 -75 77 -92l133 -41c109 -35 142 -100 142 -201c0 -157 -68 -193 -245 -193c-43 0 -124 2 -224 22l7 92c132 -3 172 -4 219 -4c91 0 116 13 116 84c0 63 -23 75 -73 91l-139 44
c-102 33 -139 97 -139 200c0 158 72 185 237 185zM224 -108l12 53c92 10 133 2 131 -65c-3 -94 -83 -143 -185 -130l17 59c48 -1 83 22 86 61c1 18 -10 22 -61 22z" />
    <glyph glyph-name="Scommaaccent" unicode="&#x218;" horiz-adv-x="570" 
d="M285 702c66 0 143 -4 217 -23l-8 -89c-58 2 -137 4 -205 4c-84 0 -115 -5 -115 -79c0 -61 23 -75 77 -92l133 -41c109 -35 142 -100 142 -201c0 -157 -68 -193 -245 -193c-43 0 -124 2 -224 22l7 92c132 -3 172 -4 219 -4c91 0 116 13 116 84c0 63 -23 75 -73 91l-139 44
c-102 33 -139 97 -139 200c0 158 72 185 237 185zM268 -55h29c30 0 39 -9 38 -36l1 -53c-1 -58 -16 -101 -40 -141l-50 13c8 34 12 64 12 103c-20 0 -31 12 -31 31v47c2 27 13 36 41 36z" />
    <glyph glyph-name="T" unicode="T" horiz-adv-x="592" 
d="M571 583h-213v-583h-126v583h-211v107h550v-107z" />
    <glyph glyph-name="Tbar" unicode="&#x166;" horiz-adv-x="592" 
d="M359 583v-166h133v-65h-133v-352h-126v352h-134v65h134v166h-211v107h549v-107h-212z" />
    <glyph glyph-name="Tcaron" unicode="&#x164;" horiz-adv-x="592" 
d="M270 741l-148 131l37 50l133 -81h8l132 81l39 -50l-149 -131h-52zM570 583h-212v-583h-126v583h-211v107h549v-107z" />
    <glyph glyph-name="Tcedilla" unicode="&#x162;" horiz-adv-x="592" 
d="M570 690v-107h-212v-583h-126v583h-211v107h549zM228 -96l12 53c92 10 133 2 131 -65c-3 -94 -83 -143 -185 -130l17 59c48 -1 83 22 86 61c1 18 -10 22 -61 22z" />
    <glyph glyph-name="uni021A" unicode="&#x21a;" horiz-adv-x="592" 
d="M570 583h-212v-583h-126v583h-211v107h549v-107zM270 -55h29c30 0 39 -9 38 -36l1 -53c-1 -58 -16 -101 -40 -141l-50 13c8 34 12 64 12 103c-20 0 -31 12 -31 31v47c2 27 13 36 41 36z" />
    <glyph glyph-name="U" unicode="U" horiz-adv-x="671" 
d="M599 690v-420c0 -206 -69 -283 -258 -283c-197 0 -269 77 -269 283v420h125v-420c0 -133 35 -176 139 -176c102 0 137 43 137 176v420h126z" />
    <glyph glyph-name="Uacute" unicode="&#xda;" horiz-adv-x="671" 
d="M511 836l-213 -112l-38 54l188 147zM599 690v-420c0 -206 -69 -283 -258 -283c-197 0 -269 77 -269 283v420h125v-420c0 -133 35 -176 139 -176c101 0 137 43 137 176v420h126z" />
    <glyph glyph-name="Ucircumflex" unicode="&#xdb;" horiz-adv-x="671" 
d="M512 772l-39 -49l-133 96h-8l-134 -96l-37 50l131 132h88zM599 690v-420c0 -206 -69 -283 -258 -283c-197 0 -269 77 -269 283v420h125v-420c0 -133 35 -176 139 -176c101 0 137 43 137 176v420h126z" />
    <glyph glyph-name="Udieresis" unicode="&#xdc;" horiz-adv-x="671" 
d="M226 879h41c20 0 29 -12 29 -31v-55c0 -21 -9 -30 -29 -30h-41c-20 0 -29 9 -29 30v55c0 19 9 31 29 31zM406 879h39c19 0 31 -12 31 -31v-55c0 -21 -12 -30 -31 -30h-39c-21 0 -31 9 -31 30v55c0 19 10 31 31 31zM599 690v-420c0 -206 -69 -283 -258 -283
c-197 0 -269 77 -269 283v420h125v-420c0 -133 35 -176 139 -176c101 0 137 43 137 176v420h126z" />
    <glyph glyph-name="Ugrave" unicode="&#xd9;" horiz-adv-x="671" 
d="M396 778l-38 -54l-212 112l62 89zM599 690v-420c0 -206 -69 -283 -258 -283c-197 0 -269 77 -269 283v420h125v-420c0 -133 35 -176 139 -176c101 0 137 43 137 176v420h126z" />
    <glyph glyph-name="Uhungarumlaut" unicode="&#x170;" horiz-adv-x="671" 
d="M380 881l-145 -164l-51 39l112 182zM559 881l-145 -164l-50 39l111 182zM599 690v-420c0 -206 -69 -283 -258 -283c-197 0 -269 77 -269 283v420h125v-420c0 -133 35 -176 139 -176c101 0 137 43 137 176v420h126z" />
    <glyph glyph-name="Umacron" unicode="&#x16a;" horiz-adv-x="671" 
d="M482 778h-290v84h290v-84zM599 690v-420c0 -206 -69 -283 -258 -283c-197 0 -269 77 -269 283v420h125v-420c0 -133 35 -176 139 -176c101 0 137 43 137 176v420h126z" />
    <glyph glyph-name="Uogonek" unicode="&#x172;" horiz-adv-x="671" 
d="M599 690v-420c0 -193 -61 -273 -223 -282c-26 -31 -49 -62 -64 -103c-20 -44 14 -56 69 -39l13 -48c-138 -55 -190 9 -165 79c11 32 37 70 90 110c-180 6 -247 85 -247 283v420h125v-420c0 -133 35 -176 139 -176c101 0 137 43 137 176v420h126z" />
    <glyph glyph-name="Uring" unicode="&#x16e;" horiz-adv-x="671" 
d="M337 935c61 0 113 -49 113 -111c0 -64 -51 -111 -113 -111c-63 0 -113 47 -113 111c0 62 51 111 113 111zM337 878c-30 0 -53 -21 -53 -54c0 -34 24 -54 53 -54s53 20 53 54c0 33 -24 54 -53 54zM599 690v-420c0 -206 -69 -283 -258 -283c-197 0 -269 77 -269 283v420
h125v-420c0 -133 35 -176 139 -176c101 0 137 43 137 176v420h126z" />
    <glyph glyph-name="V" unicode="V" horiz-adv-x="622" 
d="M611 690l-195 -655c-6 -21 -24 -35 -46 -35h-118c-22 0 -40 14 -45 35l-196 655h129l141 -518l18 -77h25c5 25 12 52 19 77l139 518h129z" />
    <glyph glyph-name="W" unicode="W" horiz-adv-x="961" 
d="M932 690l-119 -655c-5 -21 -23 -35 -46 -35h-131c-23 0 -42 14 -46 36l-87 481c-5 27 -9 54 -13 81h-20c-4 -27 -8 -55 -13 -81l-86 -481c-4 -22 -24 -36 -47 -36h-130c-23 0 -42 14 -46 35l-119 655h130l82 -503c5 -29 8 -59 11 -94h21c5 33 10 64 16 94l85 463
c4 24 21 40 46 40h122c23 0 41 -16 45 -40l85 -464c6 -31 11 -63 14 -93h22c4 30 7 63 11 92l83 505h130z" />
    <glyph glyph-name="Wacute" unicode="&#x1e82;" horiz-adv-x="961" 
d="M656 835l-213 -112l-38 54l188 147zM932 690l-119 -655c-5 -21 -23 -35 -46 -35h-130c-23 0 -43 14 -47 36l-86 481c-5 27 -10 54 -14 81h-19c-5 -27 -9 -55 -13 -81l-86 -481c-4 -22 -24 -36 -47 -36h-131c-23 0 -42 14 -46 35l-119 655h131l82 -503c4 -29 7 -59 11 -94
h21c4 33 9 64 15 94l85 463c4 24 21 40 46 40h122c23 0 41 -16 45 -40l85 -464c6 -31 11 -63 15 -93h22c3 30 6 63 11 92l82 505h130z" />
    <glyph glyph-name="Wcircumflex" unicode="&#x174;" horiz-adv-x="961" 
d="M657 771l-39 -49l-133 96h-8l-134 -96l-37 50l131 132h88zM932 690l-119 -655c-5 -21 -23 -35 -46 -35h-130c-23 0 -43 14 -47 36l-86 481c-5 27 -10 54 -14 81h-19c-5 -27 -9 -55 -13 -81l-86 -481c-4 -22 -24 -36 -47 -36h-131c-23 0 -42 14 -46 35l-119 655h131
l82 -503c4 -29 7 -59 11 -94h21c4 33 9 64 15 94l85 463c4 24 21 40 46 40h122c23 0 41 -16 45 -40l85 -464c6 -31 11 -63 15 -93h22c3 30 6 63 11 92l82 505h130z" />
    <glyph glyph-name="Wdieresis" unicode="&#x1e84;" horiz-adv-x="961" 
d="M371 878h41c20 0 29 -12 29 -31v-55c0 -21 -9 -30 -29 -30h-41c-20 0 -29 9 -29 30v55c0 19 9 31 29 31zM551 878h39c19 0 31 -12 31 -31v-55c0 -21 -12 -30 -31 -30h-39c-21 0 -31 9 -31 30v55c0 19 10 31 31 31zM932 690l-119 -655c-5 -21 -23 -35 -46 -35h-130
c-23 0 -43 14 -47 36l-86 481c-5 27 -10 54 -14 81h-19c-5 -27 -9 -55 -13 -81l-86 -481c-4 -22 -24 -36 -47 -36h-131c-23 0 -42 14 -46 35l-119 655h131l82 -503c4 -29 7 -59 11 -94h21c4 33 9 64 15 94l85 463c4 24 21 40 46 40h122c23 0 41 -16 45 -40l85 -464
c6 -31 11 -63 15 -93h22c3 30 6 63 11 92l82 505h130z" />
    <glyph glyph-name="Wgrave" unicode="&#x1e80;" horiz-adv-x="961" 
d="M541 777l-38 -54l-212 112l62 89zM932 690l-119 -655c-5 -21 -23 -35 -46 -35h-130c-23 0 -43 14 -47 36l-86 481c-5 27 -10 54 -14 81h-19c-5 -27 -9 -55 -13 -81l-86 -481c-4 -22 -24 -36 -47 -36h-131c-23 0 -42 14 -46 35l-119 655h131l82 -503c4 -29 7 -59 11 -94
h21c4 33 9 64 15 94l85 463c4 24 21 40 46 40h122c23 0 41 -16 45 -40l85 -464c6 -31 11 -63 15 -93h22c3 30 6 63 11 92l82 505h130z" />
    <glyph glyph-name="X" unicode="X" horiz-adv-x="626" 
d="M322 312h-19l-154 -312h-132l183 355l-170 335h131l140 -288h23l140 288h132l-171 -335l184 -355h-133z" />
    <glyph glyph-name="Y" unicode="Y" horiz-adv-x="589" 
d="M357 233v-233h-125v235l-227 455h132l126 -268c12 -26 20 -57 28 -83h8c8 26 16 57 28 83l126 268h130z" />
    <glyph glyph-name="Yacute" unicode="&#xdd;" horiz-adv-x="589" 
d="M256 724l-38 54l188 147l63 -89zM357 233v-233h-125v235l-227 455h132l126 -268c12 -26 20 -57 28 -83h9c7 26 16 57 28 83l125 268h131z" />
    <glyph glyph-name="Ycircumflex" unicode="&#x176;" horiz-adv-x="589" 
d="M156 723l-37 50l131 132h88l132 -133l-39 -49l-133 96h-8zM357 233v-233h-125v235l-227 455h132l126 -268c12 -26 20 -57 28 -83h9c7 26 16 57 28 83l125 268h131z" />
    <glyph glyph-name="Ydieresis" unicode="&#x178;" horiz-adv-x="589" 
d="M225 763h-41c-20 0 -29 9 -29 30v55c0 19 9 31 29 31h41c20 0 29 -12 29 -31v-55c0 -21 -9 -30 -29 -30zM403 763h-39c-21 0 -31 9 -31 30v55c0 19 10 31 31 31h39c19 0 31 -12 31 -31v-55c0 -21 -12 -30 -31 -30zM357 233v-233h-125v235l-227 455h132l126 -268
c12 -26 20 -57 28 -83h9c7 26 16 57 28 83l125 268h131z" />
    <glyph glyph-name="Ygrave" unicode="&#x1ef2;" horiz-adv-x="589" 
d="M316 724l-212 112l62 89l188 -147zM357 233v-233h-125v235l-227 455h132l126 -268c12 -26 20 -57 28 -83h9c7 26 16 57 28 83l125 268h131z" />
    <glyph glyph-name="Z" unicode="Z" horiz-adv-x="574" 
d="M530 102v-102h-485v102l340 486h-334v102h472v-102l-340 -486h347z" />
    <glyph glyph-name="Zacute" unicode="&#x179;" horiz-adv-x="574" 
d="M253 724l-38 54l188 147l63 -89zM531 102v-102h-486v102l340 486h-334v102h472v-102l-339 -486h347z" />
    <glyph glyph-name="Zcaron" unicode="&#x17d;" horiz-adv-x="574" 
d="M265 741l-148 131l37 50l133 -81h8l132 81l39 -50l-149 -131h-52zM531 102v-102h-486v102l340 486h-334v102h472v-102l-339 -486h347z" />
    <glyph glyph-name="Zdotaccent" unicode="&#x17b;" horiz-adv-x="574" 
d="M310 753h-38c-23 0 -35 12 -35 34v54c0 23 12 35 35 35h38c22 0 34 -12 34 -35v-54c0 -22 -12 -34 -34 -34zM531 102v-102h-486v102l340 486h-334v102h472v-102l-339 -486h347z" />
    <glyph glyph-name="a" unicode="a" horiz-adv-x="558" 
d="M310 504c121 0 184 -40 184 -171v-333h-96l-13 74c-35 -38 -99 -85 -187 -85c-90 0 -155 50 -155 142v50c0 78 53 123 145 123h184v30c-1 56 -20 70 -90 70c-45 0 -128 -4 -205 -10l-12 86c70 13 180 24 245 24zM164 166v-19c0 -42 20 -60 64 -60c38 0 93 16 144 58v76
h-156c-40 -2 -52 -22 -52 -55z" />
    <glyph glyph-name="aacute" unicode="&#xe1;" horiz-adv-x="558" 
d="M236 544l-38 54l188 147l63 -89zM309 504c121 0 185 -40 185 -171v-333h-96l-13 74c-35 -38 -99 -85 -186 -85c-91 0 -156 50 -156 142v50c0 78 53 123 145 123h184v30c-1 56 -20 70 -90 70c-45 0 -129 -4 -206 -10l-11 86c70 13 180 24 244 24zM165 166v-19
c0 -42 19 -60 63 -60c38 0 94 16 144 57v77h-155c-41 -2 -52 -22 -52 -55z" />
    <glyph glyph-name="abreve" unicode="&#x103;" horiz-adv-x="558" 
d="M275 561c-105 0 -167 62 -159 143l59 8c0 -42 33 -66 100 -66c64 0 98 24 98 66l59 -8c8 -81 -54 -143 -157 -143zM309 504c121 0 185 -40 185 -171v-333h-96l-13 74c-35 -38 -99 -85 -186 -85c-91 0 -156 50 -156 142v50c0 78 53 123 145 123h184v30
c-1 56 -20 70 -90 70c-45 0 -129 -4 -206 -10l-11 86c70 13 180 24 244 24zM165 166v-19c0 -42 19 -60 63 -60c38 0 94 16 144 57v77h-155c-41 -2 -52 -22 -52 -55z" />
    <glyph glyph-name="acircumflex" unicode="&#xe2;" horiz-adv-x="558" 
d="M136 543l-37 50l131 132h88l132 -133l-39 -49l-133 96h-8zM309 504c121 0 185 -40 185 -171v-333h-96l-13 74c-35 -38 -99 -85 -186 -85c-91 0 -156 50 -156 142v50c0 78 53 123 145 123h184v30c-1 56 -20 70 -90 70c-45 0 -129 -4 -206 -10l-11 86c70 13 180 24 244 24z
M165 166v-19c0 -42 19 -60 63 -60c38 0 94 16 144 57v77h-155c-41 -2 -52 -22 -52 -55z" />
    <glyph glyph-name="adieresis" unicode="&#xe4;" horiz-adv-x="558" 
d="M205 583h-41c-20 0 -29 9 -29 30v55c0 19 9 31 29 31h41c20 0 29 -12 29 -31v-55c0 -21 -9 -30 -29 -30zM383 583h-39c-21 0 -31 9 -31 30v55c0 19 10 31 31 31h39c19 0 31 -12 31 -31v-55c0 -21 -12 -30 -31 -30zM309 504c121 0 185 -40 185 -171v-333h-96l-13 74
c-35 -38 -99 -85 -186 -85c-91 0 -156 50 -156 142v50c0 78 53 123 145 123h184v30c-1 56 -20 70 -90 70c-45 0 -129 -4 -206 -10l-11 86c70 13 180 24 244 24zM165 166v-19c0 -42 19 -60 63 -60c38 0 94 16 144 57v77h-155c-41 -2 -52 -22 -52 -55z" />
    <glyph glyph-name="agrave" unicode="&#xe0;" horiz-adv-x="558" 
d="M296 544l-212 112l62 89l188 -147zM309 504c121 0 185 -40 185 -171v-333h-96l-13 74c-35 -38 -99 -85 -186 -85c-91 0 -156 50 -156 142v50c0 78 53 123 145 123h184v30c-1 56 -20 70 -90 70c-45 0 -129 -4 -206 -10l-11 86c70 13 180 24 244 24zM165 166v-19
c0 -42 19 -60 63 -60c38 0 94 16 144 57v77h-155c-41 -2 -52 -22 -52 -55z" />
    <glyph glyph-name="amacron" unicode="&#x101;" horiz-adv-x="558" 
d="M420 598h-290v84h290v-84zM309 504c121 0 185 -40 185 -171v-333h-96l-13 74c-35 -38 -99 -85 -186 -85c-91 0 -156 50 -156 142v50c0 78 53 123 145 123h184v30c-1 56 -20 70 -90 70c-45 0 -129 -4 -206 -10l-11 86c70 13 180 24 244 24zM165 166v-19
c0 -42 19 -60 63 -60c38 0 94 16 144 57v77h-155c-41 -2 -52 -22 -52 -55z" />
    <glyph glyph-name="aogonek" unicode="&#x105;" horiz-adv-x="558" 
d="M497 -145l13 -48c-138 -55 -190 9 -165 79c11 32 39 73 95 114h-42l-13 74c-35 -38 -99 -85 -186 -85c-91 0 -156 50 -156 142v50c0 78 53 123 145 123h184v30c-1 56 -20 70 -90 70c-45 0 -129 -4 -206 -10l-11 86c70 13 180 24 244 24c121 0 185 -40 185 -171v-333
c-26 -32 -50 -64 -66 -106c-20 -44 14 -56 69 -39zM165 166v-19c0 -42 19 -60 63 -60c38 0 94 16 144 57v77h-155c-41 -2 -52 -22 -52 -55z" />
    <glyph glyph-name="aring" unicode="&#xe5;" horiz-adv-x="558" 
d="M275 533c-63 0 -113 47 -113 111c0 62 51 111 113 111c61 0 113 -49 113 -111c0 -64 -51 -111 -113 -111zM275 698c-30 0 -53 -21 -53 -54c0 -34 24 -54 53 -54s53 20 53 54c0 33 -24 54 -53 54zM309 504c121 0 185 -40 185 -171v-333h-96l-13 74
c-35 -38 -99 -85 -186 -85c-91 0 -156 50 -156 142v50c0 78 53 123 145 123h184v30c-1 56 -20 70 -90 70c-45 0 -129 -4 -206 -10l-11 86c70 13 180 24 244 24zM165 166v-19c0 -42 19 -60 63 -60c38 0 94 16 144 57v77h-155c-41 -2 -52 -22 -52 -55z" />
    <glyph glyph-name="atilde" unicode="&#xe3;" horiz-adv-x="558" 
d="M160 580h-53c-12 91 30 134 80 130c64 -5 100 -43 155 -50c35 -5 43 10 43 45h53c13 -86 -25 -133 -80 -129c-68 5 -108 45 -156 52c-35 4 -42 -12 -42 -48zM309 504c121 0 185 -40 185 -171v-333h-96l-13 74c-35 -38 -99 -85 -186 -85c-91 0 -156 50 -156 142v50
c0 78 53 123 145 123h184v30c-1 56 -20 70 -90 70c-45 0 -129 -4 -206 -10l-11 86c70 13 180 24 244 24zM165 166v-19c0 -42 19 -60 63 -60c38 0 94 16 144 57v77h-155c-41 -2 -52 -22 -52 -55z" />
    <glyph glyph-name="ae" unicode="&#xe6;" horiz-adv-x="870" 
d="M630 87c46 0 116 5 175 12l11 -78c-52 -25 -139 -33 -202 -33c-114 0 -182 30 -216 100c-32 -40 -101 -99 -200 -99c-90 0 -155 50 -155 142v50c0 77 53 123 144 123h184v30c0 56 -20 70 -90 70c-45 0 -128 -4 -205 -10l-11 86c70 13 179 24 244 24c61 0 108 -10 139 -38
c38 27 90 38 159 38c159 0 221 -59 222 -170c0 -88 -40 -140 -131 -140h-200c10 -89 47 -107 132 -107zM612 408c-85 0 -113 -26 -117 -129h169c39 0 44 31 44 57c0 52 -22 72 -96 72zM228 87c39 0 98 18 150 64c-4 21 -7 44 -8 69l-154 1c-41 -2 -52 -22 -52 -55v-19
c0 -42 19 -60 64 -60z" />
    <glyph glyph-name="b" unicode="b" horiz-adv-x="581" 
d="M356 504c122 0 179 -73 179 -256c0 -157 -47 -260 -230 -260c-69 0 -176 12 -239 37v675h122v-165c0 -42 -2 -78 -11 -114c51 54 114 83 179 83zM302 85c78 1 107 39 108 163c-1 116 -17 154 -100 154c-44 0 -78 -22 -123 -55l1 -250c38 -9 81 -13 114 -12z" />
    <glyph glyph-name="c" unicode="c" horiz-adv-x="498" 
d="M286 504c48 0 120 -7 171 -28l-14 -76c-49 2 -100 2 -136 2c-100 0 -134 -34 -134 -156c0 -123 34 -158 134 -158c30 0 93 2 147 10l11 -80c-51 -21 -118 -30 -180 -30c-175 0 -239 68 -239 258c0 189 65 258 240 258z" />
    <glyph glyph-name="cacute" unicode="&#x107;" horiz-adv-x="498" 
d="M444 656l-213 -112l-38 54l188 147zM286 504c48 0 120 -7 171 -28l-14 -76c-49 2 -100 2 -136 2c-100 0 -134 -34 -134 -156c0 -123 34 -158 134 -158c30 0 93 2 147 10l11 -80c-51 -21 -118 -30 -180 -30c-175 0 -239 68 -239 258c0 189 65 258 240 258z" />
    <glyph glyph-name="ccaron" unicode="&#x10d;" horiz-adv-x="498" 
d="M445 692l-149 -131h-52l-148 131l37 50l133 -81h8l132 81zM286 504c48 0 120 -7 171 -28l-14 -76c-49 2 -100 2 -136 2c-100 0 -134 -34 -134 -156c0 -123 34 -158 134 -158c30 0 93 2 147 10l11 -80c-51 -21 -118 -30 -180 -30c-175 0 -239 68 -239 258
c0 189 65 258 240 258z" />
    <glyph glyph-name="ccedilla" unicode="&#xe7;" horiz-adv-x="498" 
d="M286 504c48 0 120 -7 171 -28l-14 -76c-49 2 -100 2 -136 2c-100 0 -134 -34 -134 -156c0 -123 34 -158 134 -158c30 0 93 2 147 10l11 -80c-51 -21 -118 -30 -180 -30c-175 0 -239 68 -239 258c0 189 65 258 240 258zM212 -106l12 53c92 10 133 2 131 -65
c-3 -94 -83 -143 -185 -130l17 59c48 -1 83 22 86 61c1 18 -10 22 -61 22z" />
    <glyph glyph-name="cdotaccent" unicode="&#x10b;" horiz-adv-x="498" 
d="M251 696h38c22 0 34 -12 34 -35v-54c0 -22 -12 -34 -34 -34h-38c-23 0 -35 12 -35 34v54c0 23 12 35 35 35zM286 504c48 0 120 -7 171 -28l-14 -76c-49 2 -100 2 -136 2c-100 0 -134 -34 -134 -156c0 -123 34 -158 134 -158c30 0 93 2 147 10l11 -80
c-51 -21 -118 -30 -180 -30c-175 0 -239 68 -239 258c0 189 65 258 240 258z" />
    <glyph glyph-name="d" unicode="d" horiz-adv-x="583" 
d="M515 700v-700h-96l-10 67c-44 -41 -109 -79 -190 -79c-124 0 -172 94 -172 260c0 195 64 256 188 256c58 0 115 -13 163 -44c-4 32 -5 64 -5 99v141h122zM172 249c0 -129 27 -158 92 -158c49 0 75 15 129 51v243c-44 10 -78 20 -122 20c-72 0 -99 -24 -99 -156z" />
    <glyph glyph-name="eth" unicode="&#xf0;" 
d="M455 670l-61 -49c75 -66 121 -175 121 -336c0 -191 -52 -298 -235 -298c-159 0 -233 70 -233 230c0 151 55 233 208 233c35 0 81 -5 122 -27c-12 61 -34 104 -64 134l-72 -58l-40 48l58 46c-40 18 -87 22 -138 20l12 85c77 4 147 -8 206 -40l76 61zM281 84
c95 0 108 64 108 204c0 18 0 35 -1 52c-34 9 -69 13 -109 13c-79 0 -105 -42 -105 -134c0 -101 31 -135 107 -135z" />
    <glyph glyph-name="dcaron" unicode="&#x10f;" horiz-adv-x="583" 
d="M666 670l1 -48c-1 -52 -16 -91 -40 -127l-49 12c8 31 11 57 12 93c-20 0 -31 11 -31 28v42c2 24 13 32 41 32h29c29 0 38 -8 37 -32zM393 700h122v-700h-96l-10 67c-44 -41 -109 -79 -190 -79c-124 0 -172 94 -172 260c0 195 64 256 188 256c58 0 115 -13 163 -44
c-4 32 -5 64 -5 99v141zM172 249c0 -129 27 -158 92 -158c49 0 75 15 129 51v243c-44 10 -78 20 -122 20c-72 0 -99 -24 -99 -156z" />
    <glyph glyph-name="dcroat" unicode="&#x111;" horiz-adv-x="579" 
d="M578 564h-63v-564h-96l-10 67c-44 -41 -109 -79 -190 -79c-124 0 -172 94 -172 260c0 195 64 256 188 256c58 0 115 -13 163 -44c-4 32 -5 64 -5 99v5h-140v64h140v72h122v-72h63v-64zM172 249c0 -129 27 -158 92 -158c49 0 75 15 129 51v243c-44 10 -78 20 -122 20
c-72 0 -99 -24 -99 -156z" />
    <glyph glyph-name="e" unicode="e" horiz-adv-x="548" 
d="M306 87c47 0 117 5 176 12l11 -78c-52 -25 -140 -33 -202 -33c-178 0 -245 72 -245 258c0 194 71 258 237 258c159 0 223 -59 223 -170c0 -88 -40 -140 -131 -140h-200c10 -89 47 -107 131 -107zM288 408c-85 0 -112 -26 -116 -129h169c39 0 44 31 44 57
c0 52 -22 72 -97 72z" />
    <glyph glyph-name="eacute" unicode="&#xe9;" horiz-adv-x="548" 
d="M247 544l-38 54l188 147l63 -89zM306 87c47 0 117 5 176 12l12 -78c-53 -25 -141 -33 -203 -33c-178 0 -245 72 -245 258c0 194 71 258 237 258c160 0 223 -59 223 -170c0 -88 -40 -140 -131 -140h-200c10 -89 47 -107 131 -107zM288 408c-85 0 -112 -26 -116 -129h169
c39 0 45 31 45 57c0 52 -23 72 -98 72z" />
    <glyph glyph-name="ecaron" unicode="&#x11b;" horiz-adv-x="548" 
d="M260 561l-148 131l37 50l133 -81h8l132 81l39 -50l-149 -131h-52zM306 87c47 0 117 5 176 12l12 -78c-53 -25 -141 -33 -203 -33c-178 0 -245 72 -245 258c0 194 71 258 237 258c160 0 223 -59 223 -170c0 -88 -40 -140 -131 -140h-200c10 -89 47 -107 131 -107zM288 408
c-85 0 -112 -26 -116 -129h169c39 0 45 31 45 57c0 52 -23 72 -98 72z" />
    <glyph glyph-name="ecircumflex" unicode="&#xea;" horiz-adv-x="548" 
d="M147 543l-37 50l131 132h88l132 -133l-39 -49l-133 96h-8zM306 87c47 0 117 5 176 12l12 -78c-53 -25 -141 -33 -203 -33c-178 0 -245 72 -245 258c0 194 71 258 237 258c160 0 223 -59 223 -170c0 -88 -40 -140 -131 -140h-200c10 -89 47 -107 131 -107zM288 408
c-85 0 -112 -26 -116 -129h169c39 0 45 31 45 57c0 52 -23 72 -98 72z" />
    <glyph glyph-name="edieresis" unicode="&#xeb;" horiz-adv-x="548" 
d="M216 583h-41c-20 0 -29 9 -29 30v55c0 19 9 31 29 31h41c20 0 29 -12 29 -31v-55c0 -21 -9 -30 -29 -30zM394 583h-39c-21 0 -31 9 -31 30v55c0 19 10 31 31 31h39c19 0 31 -12 31 -31v-55c0 -21 -12 -30 -31 -30zM306 87c47 0 117 5 176 12l12 -78
c-53 -25 -141 -33 -203 -33c-178 0 -245 72 -245 258c0 194 71 258 237 258c160 0 223 -59 223 -170c0 -88 -40 -140 -131 -140h-200c10 -89 47 -107 131 -107zM288 408c-85 0 -112 -26 -116 -129h169c39 0 45 31 45 57c0 52 -23 72 -98 72z" />
    <glyph glyph-name="edotaccent" unicode="&#x117;" horiz-adv-x="548" 
d="M305 573h-38c-23 0 -35 12 -35 34v54c0 23 12 35 35 35h38c22 0 34 -12 34 -35v-54c0 -22 -12 -34 -34 -34zM306 87c47 0 117 5 176 12l12 -78c-53 -25 -141 -33 -203 -33c-178 0 -245 72 -245 258c0 194 71 258 237 258c160 0 223 -59 223 -170
c0 -88 -40 -140 -131 -140h-200c10 -89 47 -107 131 -107zM288 408c-85 0 -112 -26 -116 -129h169c39 0 45 31 45 57c0 52 -23 72 -98 72z" />
    <glyph glyph-name="egrave" unicode="&#xe8;" horiz-adv-x="548" 
d="M307 544l-212 112l62 89l188 -147zM306 87c47 0 117 5 176 12l12 -78c-53 -25 -141 -33 -203 -33c-178 0 -245 72 -245 258c0 194 71 258 237 258c160 0 223 -59 223 -170c0 -88 -40 -140 -131 -140h-200c10 -89 47 -107 131 -107zM288 408c-85 0 -112 -26 -116 -129h169
c39 0 45 31 45 57c0 52 -23 72 -98 72z" />
    <glyph glyph-name="emacron" unicode="&#x113;" horiz-adv-x="548" 
d="M430 598h-290v84h290v-84zM306 87c47 0 117 5 176 12l12 -78c-53 -25 -141 -33 -203 -33c-178 0 -245 72 -245 258c0 194 71 258 237 258c160 0 223 -59 223 -170c0 -88 -40 -140 -131 -140h-200c10 -89 47 -107 131 -107zM288 408c-85 0 -112 -26 -116 -129h169
c39 0 45 31 45 57c0 52 -23 72 -98 72z" />
    <glyph glyph-name="eogonek" unicode="&#x119;" horiz-adv-x="548" 
d="M497 -124l13 -48c-138 -55 -190 9 -165 79c9 26 29 58 66 90c-41 -6 -85 -9 -120 -9c-178 0 -245 72 -245 258c0 194 71 258 237 258c160 0 223 -59 223 -170c0 -88 -40 -140 -131 -140h-200c10 -89 47 -107 131 -107c47 0 117 5 176 12l12 -78c-26 -32 -50 -64 -66 -106
c-20 -44 14 -56 69 -39zM288 408c-85 0 -112 -26 -116 -129h169c39 0 45 31 45 57c0 52 -23 72 -98 72z" />
    <glyph glyph-name="f" unicode="f" horiz-adv-x="395" 
d="M403 624h-96c-55 0 -74 -19 -74 -69v-65h143v-88h-143v-402h-122v402h-87v83l87 5v81c0 91 40 148 153 148c34 0 108 -2 149 -9z" />
    <glyph glyph-name="g" unicode="g" 
d="M545 431l-64 -7c9 -22 13 -47 13 -78c0 -111 -54 -158 -221 -158c-34 0 -64 2 -90 6c-13 -24 -10 -59 29 -65l179 -25c97 -13 135 -58 135 -143c0 -121 -62 -157 -247 -157c-190 0 -248 38 -248 150c0 52 24 80 77 107c-45 41 -33 123 12 152c-49 25 -68 67 -68 132
c0 115 55 159 222 159c52 0 94 -4 126 -14h152zM273 273c83 0 109 19 109 73c0 55 -26 72 -109 72s-110 -17 -110 -72c0 -54 27 -73 110 -73zM409 -34c0 42 -17 45 -83 53l-139 17c-25 -21 -39 -40 -39 -69c0 -58 24 -66 130 -66s131 10 131 65z" />
    <glyph glyph-name="gbreve" unicode="&#x11f;" 
d="M276 561c-105 0 -167 62 -159 143l59 8c0 -42 33 -66 100 -66c64 0 98 24 98 66l59 -8c8 -81 -54 -143 -157 -143zM545 431l-65 -8c9 -21 13 -46 13 -77c0 -111 -54 -158 -220 -158c-35 0 -65 2 -90 6c-13 -24 -10 -59 29 -65l179 -25c97 -13 135 -58 135 -143
c0 -121 -62 -157 -247 -157c-190 0 -248 38 -248 150c0 52 24 80 77 107c-45 41 -33 122 12 152c-49 24 -68 67 -68 132c0 115 54 159 222 159c52 0 93 -4 125 -14h153zM273 273c83 0 109 19 109 73c0 55 -26 72 -109 72s-110 -17 -110 -72c0 -54 27 -73 110 -73zM408 -34
c0 42 -16 45 -82 53l-140 17c-25 -21 -38 -39 -38 -69c0 -58 23 -66 130 -66c106 0 130 10 130 65z" />
    <glyph glyph-name="gcommaaccent" unicode="&#x123;" 
d="M304 553h-29c-30 0 -39 9 -38 36l-1 53c1 58 16 101 40 141l50 -13c-8 -34 -12 -64 -12 -103c20 0 31 -12 31 -31v-47c-2 -27 -13 -36 -41 -36zM545 431l-65 -8c9 -21 13 -46 13 -77c0 -111 -54 -158 -220 -158c-35 0 -65 2 -90 6c-13 -24 -10 -59 29 -65l179 -25
c97 -13 135 -58 135 -143c0 -121 -62 -157 -247 -157c-190 0 -248 38 -248 150c0 52 24 80 77 107c-45 41 -33 122 12 152c-49 24 -68 67 -68 132c0 115 54 159 222 159c52 0 93 -4 125 -14h153zM273 273c83 0 109 19 109 73c0 55 -26 72 -109 72s-110 -17 -110 -72
c0 -54 27 -73 110 -73zM408 -34c0 42 -16 45 -82 53l-140 17c-25 -21 -38 -39 -38 -69c0 -58 23 -66 130 -66c106 0 130 10 130 65z" />
    <glyph glyph-name="gdotaccent" unicode="&#x121;" 
d="M295 573h-38c-23 0 -35 12 -35 34v54c0 23 12 35 35 35h38c22 0 34 -12 34 -35v-54c0 -22 -12 -34 -34 -34zM545 431l-65 -8c9 -21 13 -46 13 -77c0 -111 -54 -158 -220 -158c-35 0 -65 2 -90 6c-13 -24 -10 -59 29 -65l179 -25c97 -13 135 -58 135 -143
c0 -121 -62 -157 -247 -157c-190 0 -248 38 -248 150c0 52 24 80 77 107c-45 41 -33 122 12 152c-49 24 -68 67 -68 132c0 115 54 159 222 159c52 0 93 -4 125 -14h153zM273 273c83 0 109 19 109 73c0 55 -26 72 -109 72s-110 -17 -110 -72c0 -54 27 -73 110 -73zM408 -34
c0 42 -16 45 -82 53l-140 17c-25 -21 -38 -39 -38 -69c0 -58 23 -66 130 -66c106 0 130 10 130 65z" />
    <glyph glyph-name="h" unicode="h" horiz-adv-x="590" 
d="M390 504c87 0 135 -48 135 -136v-368h-122v331c0 55 -13 70 -52 70c-49 0 -93 -21 -161 -59v-342h-122v700h122l1 -180c0 -36 -3 -70 -8 -98c69 51 138 82 207 82z" />
    <glyph glyph-name="hbar" unicode="&#x127;" horiz-adv-x="594" 
d="M394 504c87 0 135 -48 135 -136v-368h-122v331c0 55 -13 70 -53 70c-48 0 -92 -21 -160 -59v-342h-122v564h-70v64h70v72h122v-72h133v-64h-132v-44c0 -36 -3 -71 -8 -98c68 51 138 82 207 82z" />
    <glyph glyph-name="i" unicode="i" horiz-adv-x="265" 
d="M104 703h56c24 0 35 -13 35 -35v-55c0 -23 -11 -35 -35 -35h-56c-23 0 -35 12 -35 35v55c0 22 12 35 35 35zM193 0h-121v490h121v-490z" />
    <glyph glyph-name="dotlessi" unicode="&#x131;" horiz-adv-x="266" 
d="M194 0h-122v490h122v-490z" />
    <glyph glyph-name="iacute" unicode="&#xed;" horiz-adv-x="266" 
d="M309 656l-213 -112l-38 54l188 147zM194 0h-122v490h122v-490z" />
    <glyph glyph-name="icircumflex" unicode="&#xee;" horiz-adv-x="266" 
d="M310 592l-39 -49l-133 96h-8l-134 -96l-37 50l131 132h88zM194 0h-122v490h122v-490z" />
    <glyph glyph-name="idieresis" unicode="&#xef;" horiz-adv-x="266" 
d="M24 699h41c20 0 29 -12 29 -31v-55c0 -21 -9 -30 -29 -30h-41c-20 0 -29 9 -29 30v55c0 19 9 31 29 31zM204 699h39c19 0 31 -12 31 -31v-55c0 -21 -12 -30 -31 -30h-39c-21 0 -31 9 -31 30v55c0 19 10 31 31 31zM194 0h-122v490h122v-490z" />
    <glyph glyph-name="igrave" unicode="&#xec;" horiz-adv-x="266" 
d="M194 598l-38 -54l-212 112l62 89zM194 0h-122v490h122v-490z" />
    <glyph glyph-name="ij" unicode="&#x133;" horiz-adv-x="532" 
d="M371 704h56c24 0 35 -13 35 -35v-54c0 -24 -11 -35 -35 -35h-56c-24 0 -35 11 -35 35v54c0 22 11 35 35 35zM104 703h56c24 0 35 -13 35 -35v-55c0 -23 -11 -35 -35 -35h-56c-24 0 -35 12 -35 35v55c0 22 11 35 35 35zM193 0h-121v490h121v-490zM460 490v-481
c0 -86 -43 -166 -112 -209l-68 53c41 49 58 94 58 156v481h122z" />
    <glyph glyph-name="imacron" unicode="&#x12b;" horiz-adv-x="266" 
d="M279 598h-290v84h290v-84zM194 0h-122v490h122v-490z" />
    <glyph glyph-name="iogonek" unicode="&#x12f;" horiz-adv-x="266" 
d="M153 573h-38c-23 0 -35 12 -35 34v54c0 23 12 35 35 35h38c22 0 34 -12 34 -35v-54c0 -22 -12 -34 -34 -34zM187 -145l13 -48c-138 -55 -190 9 -165 79c11 32 39 73 95 114h-58v490h122v-490h-10c-26 -32 -50 -64 -66 -106c-20 -44 14 -56 69 -39z" />
    <glyph glyph-name="j" unicode="j" horiz-adv-x="267" 
d="M106 704h56c24 0 35 -13 35 -35v-54c0 -24 -11 -35 -35 -35h-56c-24 0 -35 11 -35 35v54c0 22 11 35 35 35zM195 490v-481c0 -86 -43 -166 -112 -209l-68 53c41 49 58 94 58 156v481h122z" />
    <glyph glyph-name="k" unicode="k" horiz-adv-x="534" 
d="M238 234h-54c4 -26 6 -52 6 -75v-159h-122v700h122l1 -298c0 -30 -2 -58 -7 -86h53l134 174h138l-137 -174c-11 -17 -30 -34 -41 -41v-2c11 -7 30 -29 41 -47l153 -226h-138z" />
    <glyph glyph-name="kcommaaccent" unicode="&#x137;" horiz-adv-x="534" 
d="M525 0h-138l-149 234h-54c4 -26 6 -52 6 -75v-159h-122v700h122v-298c0 -30 -2 -58 -6 -86h53l134 174h138l-137 -174c-11 -17 -30 -34 -41 -41v-2c11 -7 30 -29 41 -47zM271 -53h29c30 0 39 -9 38 -36l1 -53c-1 -58 -16 -101 -40 -141l-50 13c8 34 12 64 12 103
c-20 0 -31 12 -31 31v47c2 27 13 36 41 36z" />
    <glyph glyph-name="l" unicode="l" horiz-adv-x="314" 
d="M191 700l-1 -547c0 -39 20 -57 59 -57h42l14 -90c-22 -11 -76 -17 -104 -17c-81 0 -132 48 -132 134v577h122z" />
    <glyph glyph-name="lacute" unicode="&#x13a;" horiz-adv-x="314" 
d="M308 855l-213 -112l-38 54l188 147zM190 700v-547c0 -39 20 -57 59 -57h42l14 -90c-22 -11 -77 -17 -104 -17c-81 0 -132 48 -132 134v577h121z" />
    <glyph glyph-name="lcaron" unicode="&#x13e;" horiz-adv-x="314" 
d="M275 702h29c29 0 38 -8 37 -32l1 -48c-1 -52 -16 -91 -40 -127l-49 12c8 31 11 57 12 93c-20 0 -31 11 -31 28v42c2 24 13 32 41 32zM190 700v-547c0 -39 20 -57 59 -57h42l14 -90c-22 -11 -77 -17 -104 -17c-81 0 -132 48 -132 134v577h121z" />
    <glyph glyph-name="lcommaaccent" unicode="&#x13c;" horiz-adv-x="314" 
d="M190 700v-547c0 -39 20 -57 59 -57h42l14 -90c-22 -11 -77 -17 -104 -17c-81 0 -132 48 -132 134v577h121zM163 -55h29c30 0 39 -9 38 -36l1 -53c-1 -58 -16 -101 -40 -141l-50 13c8 34 12 64 12 103c-20 0 -31 12 -31 31v47c2 27 13 36 41 36z" />
    <glyph glyph-name="ldot" unicode="&#x140;" horiz-adv-x="351" 
d="M190 700v-547c0 -39 20 -57 59 -57h42l14 -90c-22 -11 -77 -17 -104 -17c-81 0 -132 48 -132 134v577h121zM323 328h-38c-23 0 -35 12 -35 35v54c0 22 12 34 35 34h38c22 0 34 -12 34 -34v-54c0 -23 -12 -35 -34 -35z" />
    <glyph glyph-name="lslash" unicode="&#x142;" horiz-adv-x="344" 
d="M313 96l14 -90c-22 -11 -76 -17 -104 -17c-81 0 -132 48 -132 134v196l-76 -31v72l76 31v309h122v-259l101 41v-73l-102 -41v-215c0 -39 20 -57 59 -57h42z" />
    <glyph glyph-name="m" unicode="m" horiz-adv-x="875" 
d="M677 504c87 0 133 -48 133 -136v-368h-119v331c-1 50 -15 70 -61 70c-41 0 -68 -15 -132 -59v-342h-117v331c1 53 -19 70 -61 70c-38 0 -65 -14 -131 -58v-343h-121v490h99l8 -72c63 56 123 86 191 86c66 0 108 -28 125 -82c61 55 121 82 186 82z" />
    <glyph glyph-name="n" unicode="n" horiz-adv-x="590" 
d="M390 504c87 0 135 -48 135 -136v-368h-122v331c0 55 -13 70 -52 70c-49 0 -93 -22 -162 -60l1 -341h-122v490h102l8 -73c70 54 140 87 212 87z" />
    <glyph glyph-name="nacute" unicode="&#x144;" horiz-adv-x="590" 
d="M264 544l-38 54l188 147l63 -89zM390 504c87 0 135 -48 135 -136v-368h-122v331c0 55 -12 70 -52 70c-48 0 -94 -22 -162 -60l1 -341h-122v490h102l8 -73c70 54 141 87 212 87z" />
    <glyph glyph-name="ncaron" unicode="&#x148;" horiz-adv-x="590" 
d="M276 561l-148 131l37 50l133 -81h8l132 81l39 -50l-149 -131h-52zM390 504c87 0 135 -48 135 -136v-368h-122v331c0 55 -12 70 -52 70c-48 0 -94 -22 -162 -60l1 -341h-122v490h102l8 -73c70 54 141 87 212 87z" />
    <glyph glyph-name="ncommaaccent" unicode="&#x146;" horiz-adv-x="590" 
d="M390 504c87 0 135 -48 135 -136v-368h-122v331c0 55 -12 70 -52 70c-48 0 -94 -22 -162 -60l1 -341h-122v490h102l8 -73c70 54 141 87 212 87zM278 -54h29c30 0 39 -9 38 -36l1 -53c-1 -57 -16 -100 -40 -141l-50 13c8 35 12 64 12 104c-20 0 -31 11 -31 31v46
c2 27 13 36 41 36z" />
    <glyph glyph-name="eng" unicode="&#x14b;" horiz-adv-x="590" 
d="M389 504c89 0 136 -47 136 -136v-423c0 -94 -47 -148 -133 -147c-29 0 -77 5 -105 17l14 77h40c41 0 62 21 62 63v376c0 47 -12 63 -55 63c-44 0 -98 -22 -159 -54l1 -340h-122v490h95l10 -76c73 59 146 90 216 90z" />
    <glyph glyph-name="ntilde" unicode="&#xf1;" horiz-adv-x="590" 
d="M188 580h-53c-12 91 30 134 80 130c64 -5 100 -43 155 -50c35 -5 43 10 43 45h53c13 -86 -25 -133 -80 -129c-68 5 -108 45 -156 52c-35 4 -42 -12 -42 -48zM390 504c87 0 135 -48 135 -136v-368h-122v331c0 55 -12 70 -52 70c-48 0 -94 -22 -162 -60l1 -341h-122v490
h102l8 -73c70 54 141 87 212 87z" />
    <glyph glyph-name="o" unicode="o" horiz-adv-x="576" 
d="M289 504c176 0 241 -71 241 -259s-65 -258 -241 -258c-177 0 -243 70 -243 258s66 259 243 259zM289 407c-90 0 -116 -35 -116 -162c0 -126 26 -161 116 -161c88 0 115 35 115 161c0 127 -27 162 -115 162z" />
    <glyph glyph-name="oacute" unicode="&#xf3;" horiz-adv-x="576" 
d="M463 656l-213 -112l-38 54l188 147zM289 504c176 0 241 -71 241 -259s-65 -258 -241 -258c-177 0 -243 70 -243 258s66 259 243 259zM288 407c-89 0 -115 -35 -115 -162c0 -126 26 -161 115 -161s116 35 116 161c0 127 -27 162 -116 162z" />
    <glyph glyph-name="ocircumflex" unicode="&#xf4;" horiz-adv-x="576" 
d="M464 592l-39 -49l-133 96h-8l-134 -96l-37 50l131 132h88zM289 504c176 0 241 -71 241 -259s-65 -258 -241 -258c-177 0 -243 70 -243 258s66 259 243 259zM288 407c-89 0 -115 -35 -115 -162c0 -126 26 -161 115 -161s116 35 116 161c0 127 -27 162 -116 162z" />
    <glyph glyph-name="odieresis" unicode="&#xf6;" horiz-adv-x="576" 
d="M178 699h41c20 0 29 -12 29 -31v-55c0 -21 -9 -30 -29 -30h-41c-20 0 -29 9 -29 30v55c0 19 9 31 29 31zM358 699h39c19 0 31 -12 31 -31v-55c0 -21 -12 -30 -31 -30h-39c-21 0 -31 9 -31 30v55c0 19 10 31 31 31zM289 504c176 0 241 -71 241 -259s-65 -258 -241 -258
c-177 0 -243 70 -243 258s66 259 243 259zM288 407c-89 0 -115 -35 -115 -162c0 -126 26 -161 115 -161s116 35 116 161c0 127 -27 162 -116 162z" />
    <glyph glyph-name="ograve" unicode="&#xf2;" horiz-adv-x="576" 
d="M348 598l-38 -54l-212 112l62 89zM289 504c176 0 241 -71 241 -259s-65 -258 -241 -258c-177 0 -243 70 -243 258s66 259 243 259zM288 407c-89 0 -115 -35 -115 -162c0 -126 26 -161 115 -161s116 35 116 161c0 127 -27 162 -116 162z" />
    <glyph glyph-name="ohungarumlaut" unicode="&#x151;" horiz-adv-x="576" 
d="M331 700l-145 -164l-51 39l112 182zM510 700l-145 -164l-50 39l111 182zM289 504c176 0 241 -71 241 -259s-65 -258 -241 -258c-177 0 -243 70 -243 258s66 259 243 259zM288 407c-89 0 -115 -35 -115 -162c0 -126 26 -161 115 -161s116 35 116 161
c0 127 -27 162 -116 162z" />
    <glyph glyph-name="omacron" unicode="&#x14d;" horiz-adv-x="576" 
d="M433 598h-290v84h290v-84zM289 504c176 0 241 -71 241 -259s-65 -258 -241 -258c-177 0 -243 70 -243 258s66 259 243 259zM288 407c-89 0 -115 -35 -115 -162c0 -126 26 -161 115 -161s116 35 116 161c0 127 -27 162 -116 162z" />
    <glyph glyph-name="oslash" unicode="&#xf8;" horiz-adv-x="576" 
d="M456 549l-32 -68c76 -34 106 -108 106 -236c0 -188 -65 -258 -241 -258c-34 0 -64 3 -90 8l-36 -77l-47 22l33 71c-73 35 -103 108 -103 234c0 188 66 259 243 259c32 0 61 -2 86 -7l35 75zM173 245c0 -64 7 -104 25 -129l133 287c-12 3 -26 4 -43 4
c-89 0 -115 -35 -115 -162zM288 84c89 0 116 35 116 161c0 67 -8 108 -28 132l-134 -288c13 -4 28 -5 46 -5z" />
    <glyph glyph-name="otilde" unicode="&#xf5;" horiz-adv-x="576" 
d="M201 710c64 -5 100 -43 155 -50c35 -5 43 10 43 45h53c13 -86 -25 -133 -80 -129c-68 5 -108 45 -156 52c-35 4 -42 -12 -42 -48h-53c-12 91 30 134 80 130zM289 504c176 0 241 -71 241 -259s-65 -258 -241 -258c-177 0 -243 70 -243 258s66 259 243 259zM288 407
c-89 0 -115 -35 -115 -162c0 -126 26 -161 115 -161s116 35 116 161c0 127 -27 162 -116 162z" />
    <glyph glyph-name="oe" unicode="&#x153;" horiz-adv-x="903" 
d="M663 87c44 0 115 5 174 12l11 -78c-53 -25 -140 -33 -202 -33c-82 0 -141 15 -180 50c-38 -36 -96 -51 -178 -51c-176 0 -242 70 -242 258s66 259 242 259c80 0 138 -15 176 -49c37 34 92 48 168 48c165 0 229 -62 229 -158c0 -113 -45 -146 -160 -146h-172
c9 -94 46 -112 134 -112zM288 84c82 0 111 30 115 135l-1 29v26c-4 103 -32 133 -114 133c-89 0 -115 -35 -115 -162c0 -126 26 -161 115 -161zM635 407c-77 0 -104 -27 -108 -127h160c42 0 56 16 54 67c-4 41 -33 60 -106 60z" />
    <glyph glyph-name="p" unicode="p" horiz-adv-x="591" 
d="M377 503c119 0 167 -96 167 -262c0 -192 -64 -253 -188 -253c-61 0 -120 14 -169 48c2 -34 3 -67 2 -102v-129h-121v685h100l9 -72c45 50 128 85 200 85zM320 87c72 0 99 25 99 155c0 124 -24 161 -87 161c-47 0 -87 -21 -143 -61v-234c48 -11 85 -21 131 -21z" />
    <glyph glyph-name="thorn" unicode="&#xfe;" horiz-adv-x="584" 
d="M359 502c128 0 177 -83 177 -261c0 -194 -58 -254 -182 -254c-56 0 -116 13 -167 40c2 -30 3 -61 3 -93v-129h-122v895h122v-149c0 -38 -2 -73 -4 -109c45 36 101 60 173 60zM311 81c72 0 100 34 100 160c0 129 -28 162 -95 162c-42 0 -82 -21 -126 -53v-240
c45 -17 84 -29 121 -29z" />
    <glyph glyph-name="q" unicode="q" horiz-adv-x="580" 
d="M279 504c64 0 172 -12 235 -37v-662h-121l-1 151c0 38 2 72 10 106c-52 -43 -116 -75 -184 -75c-116 0 -172 80 -172 256c0 162 46 261 233 261zM171 237c0 -100 16 -146 90 -146c50 0 86 20 132 50v253c-38 10 -82 14 -116 13c-79 -3 -106 -36 -106 -170z" />
    <glyph glyph-name="r" unicode="r" horiz-adv-x="413" 
d="M400 504l-13 -114h-35c-47 0 -92 -16 -162 -43v-347h-122v490h95l11 -72c67 55 138 86 202 86h24z" />
    <glyph glyph-name="racute" unicode="&#x155;" horiz-adv-x="413" 
d="M194 544l-38 54l188 147l63 -89zM163 490l11 -73c66 55 137 87 202 87h24l-13 -114h-35c-47 0 -92 -16 -162 -43v-347h-122v490h95z" />
    <glyph glyph-name="rcaron" unicode="&#x159;" horiz-adv-x="413" 
d="M207 561l-148 131l37 50l133 -81h8l132 81l39 -50l-149 -131h-52zM163 490l11 -73c66 55 137 87 202 87h24l-13 -114h-35c-47 0 -92 -16 -162 -43v-347h-122v490h95z" />
    <glyph glyph-name="rcommaaccent" unicode="&#x157;" horiz-adv-x="413" 
d="M400 504l-13 -114h-35c-47 0 -92 -16 -162 -43v-347h-122v490h95l11 -73c66 55 137 87 202 87h24zM105 -53h29c30 0 39 -9 38 -36l1 -53c-1 -58 -16 -101 -40 -141l-50 13c8 34 12 64 12 103c-20 0 -31 12 -31 31v47c2 27 13 36 41 36z" />
    <glyph glyph-name="s" unicode="s" horiz-adv-x="517" 
d="M243 504c67 -1 157 -8 217 -18l-9 -84c-62 2 -125 4 -187 4c-82 0 -104 -1 -104 -42c0 -39 21 -40 67 -53l132 -36c81 -23 117 -55 117 -141c0 -120 -66 -145 -219 -145c-33 0 -116 1 -205 16l8 85c39 -3 104 -4 167 -4c104 0 132 8 132 47c0 37 -26 40 -72 53l-129 35
c-87 25 -115 66 -115 144c0 108 56 139 200 139z" />
    <glyph glyph-name="sacute" unicode="&#x15b;" horiz-adv-x="517" 
d="M438 656l-213 -112l-38 54l188 147zM243 504c67 -1 157 -8 217 -18l-9 -84c-62 2 -125 4 -187 4c-82 0 -104 -1 -104 -42c0 -39 21 -40 67 -53l131 -36c82 -23 118 -55 118 -141c0 -120 -67 -145 -219 -145c-33 0 -116 1 -205 16l8 85c39 -3 104 -4 167 -4
c104 0 132 8 132 47c0 37 -26 40 -72 53l-129 35c-87 25 -115 66 -115 144c0 108 56 139 200 139z" />
    <glyph glyph-name="scaron" unicode="&#x161;" horiz-adv-x="517" 
d="M438 692l-149 -131h-52l-148 131l37 50l133 -81h8l132 81zM243 504c67 -1 157 -8 217 -18l-9 -84c-62 2 -125 4 -187 4c-82 0 -104 -1 -104 -42c0 -39 21 -40 67 -53l131 -36c82 -23 118 -55 118 -141c0 -120 -67 -145 -219 -145c-33 0 -116 1 -205 16l8 85
c39 -3 104 -4 167 -4c104 0 132 8 132 47c0 37 -26 40 -72 53l-129 35c-87 25 -115 66 -115 144c0 108 56 139 200 139z" />
    <glyph glyph-name="scedilla" unicode="&#x15f;" horiz-adv-x="517" 
d="M243 504c67 -1 157 -8 217 -18l-9 -84c-62 2 -125 4 -187 4c-82 0 -104 -1 -104 -42c0 -39 21 -40 67 -53l131 -36c82 -23 118 -55 118 -141c0 -120 -67 -145 -219 -145c-33 0 -116 1 -205 16l8 85c39 -3 104 -4 167 -4c104 0 132 8 132 47c0 37 -26 40 -72 53l-129 35
c-87 25 -115 66 -115 144c0 108 56 139 200 139zM188 -105l12 53c92 10 133 2 131 -65c-3 -94 -83 -143 -185 -130l17 59c48 -1 83 22 86 61c1 18 -10 22 -61 22z" />
    <glyph glyph-name="scommaaccent" unicode="&#x219;" horiz-adv-x="517" 
d="M243 504c67 -1 157 -8 217 -18l-9 -84c-62 2 -125 4 -187 4c-82 0 -104 -1 -104 -42c0 -39 21 -40 67 -53l131 -36c82 -23 118 -55 118 -141c0 -120 -67 -145 -219 -145c-33 0 -116 1 -205 16l8 85c39 -3 104 -4 167 -4c104 0 132 8 132 47c0 37 -26 40 -72 53l-129 35
c-87 25 -115 66 -115 144c0 108 56 139 200 139zM247 -53h29c30 0 39 -9 38 -36l1 -53c-1 -58 -16 -101 -40 -141l-50 13c8 34 12 64 12 103c-20 0 -31 12 -31 31v47c2 27 13 36 41 36z" />
    <glyph glyph-name="germandbls" unicode="&#xdf;" horiz-adv-x="691" 
d="M491 309l88 -47c61 -34 84 -62 84 -132c0 -110 -57 -141 -186 -141c-44 0 -98 3 -162 11l7 87c46 -2 93 -3 128 -3c69 0 93 4 93 51c0 34 -21 44 -65 69l-88 46c-48 26 -78 63 -78 116c0 68 51 92 105 132c40 31 55 48 55 80s-14 54 -118 54c-97 0 -122 -18 -122 -96
v-536h-122v401h-87v89h87v60c0 148 81 177 239 177c178 0 236 -36 236 -144c0 -43 -10 -80 -77 -129c-49 -37 -81 -48 -81 -84c0 -28 24 -39 64 -61z" />
    <glyph glyph-name="t" unicode="t" horiz-adv-x="400" 
d="M231 402v-249c0 -43 15 -57 59 -57h67l13 -90c-34 -11 -96 -17 -126 -17c-86 0 -133 52 -133 143l-1 270h-88v83l88 5v141h121v-141h144v-88h-144z" />
    <glyph glyph-name="tbar" unicode="&#x167;" horiz-adv-x="400" 
d="M231 402v-82h116v-63h-116v-104c0 -43 14 -57 58 -57h67l14 -90c-35 -11 -96 -17 -126 -17c-87 0 -134 52 -134 143v125h-61v63h61v82h-88v83l88 5v141h121v-141h144v-88h-144z" />
    <glyph glyph-name="tcaron" unicode="&#x165;" horiz-adv-x="400" 
d="M308 670c-20 0 -31 12 -31 31v47c2 27 13 36 41 36h29c30 0 39 -9 38 -36l1 -53c-1 -58 -16 -101 -40 -141l-50 13c8 34 12 64 12 103zM231 490h144v-88h-144v-249c0 -43 14 -57 58 -57h67l14 -90c-35 -11 -96 -17 -126 -17c-87 0 -134 52 -134 143v270h-88v83l88 5v141
h121v-141z" />
    <glyph glyph-name="tcedilla" unicode="&#x163;" horiz-adv-x="400" 
d="M231 402v-249c0 -43 14 -57 58 -57h67l14 -90c-35 -11 -96 -17 -126 -17c-87 0 -134 52 -134 143v270h-88v83l88 5v141h121v-141h144v-88h-144zM160 -104l12 53c92 10 133 2 131 -65c-3 -94 -83 -143 -185 -130l17 59c48 -1 83 22 86 61c1 18 -10 22 -61 22z" />
    <glyph glyph-name="uni021B" unicode="&#x21b;" horiz-adv-x="400" 
d="M231 402v-249c0 -43 14 -57 58 -57h67l14 -90c-35 -11 -96 -17 -126 -17c-87 0 -134 52 -134 143v270h-88v83l88 5v141h121v-141h144v-88h-144zM216 -55h29c30 0 39 -9 38 -36l1 -53c-1 -58 -16 -101 -40 -141l-50 13c8 34 12 64 12 103c-20 0 -31 12 -31 31v47
c2 27 13 36 41 36z" />
    <glyph glyph-name="u" unicode="u" horiz-adv-x="579" 
d="M511 490v-490h-96l-9 66c-70 -53 -135 -79 -205 -79c-89 0 -136 46 -136 136v367h122v-331c-1 -52 14 -69 60 -69c42 0 82 18 143 53v347h121z" />
    <glyph glyph-name="uacute" unicode="&#xfa;" horiz-adv-x="579" 
d="M254 550l-38 54l188 147l63 -89zM511 490v-490h-97l-9 66c-69 -53 -134 -79 -204 -79c-89 0 -136 46 -136 136v367h122v-331c-1 -52 14 -69 60 -69c42 0 82 18 143 53v347h121z" />
    <glyph glyph-name="ucircumflex" unicode="&#xfb;" horiz-adv-x="579" 
d="M154 549l-37 50l131 132h88l132 -133l-39 -49l-133 96h-8zM511 490v-490h-97l-9 66c-69 -53 -134 -79 -204 -79c-89 0 -136 46 -136 136v367h122v-331c-1 -52 14 -69 60 -69c42 0 82 18 143 53v347h121z" />
    <glyph glyph-name="udieresis" unicode="&#xfc;" horiz-adv-x="579" 
d="M223 589h-41c-20 0 -29 9 -29 30v55c0 19 9 31 29 31h41c20 0 29 -12 29 -31v-55c0 -21 -9 -30 -29 -30zM401 589h-39c-21 0 -31 9 -31 30v55c0 19 10 31 31 31h39c19 0 31 -12 31 -31v-55c0 -21 -12 -30 -31 -30zM511 490v-490h-97l-9 66c-69 -53 -134 -79 -204 -79
c-89 0 -136 46 -136 136v367h122v-331c-1 -52 14 -69 60 -69c42 0 82 18 143 53v347h121z" />
    <glyph glyph-name="ugrave" unicode="&#xf9;" horiz-adv-x="579" 
d="M314 550l-212 112l62 89l188 -147zM511 490v-490h-97l-9 66c-69 -53 -134 -79 -204 -79c-89 0 -136 46 -136 136v367h122v-331c-1 -52 14 -69 60 -69c42 0 82 18 143 53v347h121z" />
    <glyph glyph-name="uhungarumlaut" unicode="&#x171;" horiz-adv-x="579" 
d="M191 542l-51 39l112 182l84 -57zM320 581l111 182l84 -57l-145 -164zM390 490h121v-490h-97l-9 66c-69 -53 -134 -79 -204 -79c-89 0 -136 46 -136 136v367h122v-331c-1 -52 14 -69 60 -69c42 0 82 18 143 53v347z" />
    <glyph glyph-name="umacron" unicode="&#x16b;" horiz-adv-x="579" 
d="M438 603h-290v84h290v-84zM511 490v-490h-97l-9 66c-69 -53 -134 -79 -204 -79c-89 0 -136 46 -136 136v367h122v-331c-1 -52 14 -69 60 -69c42 0 82 18 143 53v347h121z" />
    <glyph glyph-name="uogonek" unicode="&#x173;" horiz-adv-x="579" 
d="M517 -145l13 -48c-138 -55 -190 9 -165 79c11 32 39 73 95 114h-46l-9 66c-69 -53 -134 -79 -204 -79c-89 0 -136 46 -136 136v367h122v-331c-1 -52 14 -69 60 -69c42 0 82 18 143 53v347h121v-490h3c-26 -32 -50 -64 -66 -106c-20 -44 14 -56 69 -39z" />
    <glyph glyph-name="uring" unicode="&#x16f;" horiz-adv-x="579" 
d="M293 538c-63 0 -113 47 -113 111c0 62 51 111 113 111c61 0 113 -49 113 -111c0 -64 -51 -111 -113 -111zM293 703c-30 0 -53 -21 -53 -54c0 -34 24 -54 53 -54s53 20 53 54c0 33 -24 54 -53 54zM511 490v-490h-97l-9 66c-69 -53 -134 -79 -204 -79
c-89 0 -136 46 -136 136v367h122v-331c-1 -52 14 -69 60 -69c42 0 82 18 143 53v347h121z" />
    <glyph glyph-name="v" unicode="v" horiz-adv-x="546" 
d="M535 490l-168 -461c-7 -18 -21 -29 -41 -29h-106c-19 0 -35 11 -40 29l-168 461h128l102 -323c8 -28 17 -57 24 -85h13c9 28 17 57 26 85l101 323h129z" />
    <glyph glyph-name="w" unicode="w" horiz-adv-x="834" 
d="M815 490l-129 -457c-5 -21 -22 -33 -43 -33h-103c-23 0 -41 15 -45 38l-59 301c-5 27 -7 53 -13 80h-12l-14 -80l-57 -301c-4 -23 -23 -38 -46 -38h-101c-22 0 -40 12 -44 33l-130 457h124l81 -337c6 -26 11 -52 13 -78h13c5 26 11 52 15 78l60 301c4 22 20 36 43 36h99
c23 0 40 -14 44 -37l58 -300c4 -26 10 -51 15 -78h13c4 27 7 52 13 78l81 337h124z" />
    <glyph glyph-name="wacute" unicode="&#x1e83;" horiz-adv-x="834" 
d="M593 656l-213 -112l-38 54l188 147zM815 490l-129 -457c-5 -21 -22 -33 -44 -33h-103c-22 0 -41 15 -45 38l-58 301c-5 27 -8 53 -13 80h-12l-14 -80l-58 -301c-4 -23 -23 -38 -46 -38h-101c-21 0 -39 12 -43 33l-130 457h124l81 -337c6 -26 10 -52 13 -78h13l15 78
l59 301c4 22 20 36 44 36h99c22 0 39 -14 43 -37l58 -300c5 -26 11 -51 16 -78h13c3 27 6 52 13 78l81 337h124z" />
    <glyph glyph-name="wcircumflex" unicode="&#x175;" horiz-adv-x="834" 
d="M594 592l-39 -49l-133 96h-8l-134 -96l-37 50l131 132h88zM815 490l-129 -457c-5 -21 -22 -33 -44 -33h-103c-22 0 -41 15 -45 38l-58 301c-5 27 -8 53 -13 80h-12l-14 -80l-58 -301c-4 -23 -23 -38 -46 -38h-101c-21 0 -39 12 -43 33l-130 457h124l81 -337
c6 -26 10 -52 13 -78h13l15 78l59 301c4 22 20 36 44 36h99c22 0 39 -14 43 -37l58 -300c5 -26 11 -51 16 -78h13c3 27 6 52 13 78l81 337h124z" />
    <glyph glyph-name="wdieresis" unicode="&#x1e85;" horiz-adv-x="834" 
d="M308 699h41c20 0 29 -12 29 -31v-55c0 -21 -9 -30 -29 -30h-41c-20 0 -29 9 -29 30v55c0 19 9 31 29 31zM488 699h39c19 0 31 -12 31 -31v-55c0 -21 -12 -30 -31 -30h-39c-21 0 -31 9 -31 30v55c0 19 10 31 31 31zM815 490l-129 -457c-5 -21 -22 -33 -44 -33h-103
c-22 0 -41 15 -45 38l-58 301c-5 27 -8 53 -13 80h-12l-14 -80l-58 -301c-4 -23 -23 -38 -46 -38h-101c-21 0 -39 12 -43 33l-130 457h124l81 -337c6 -26 10 -52 13 -78h13l15 78l59 301c4 22 20 36 44 36h99c22 0 39 -14 43 -37l58 -300c5 -26 11 -51 16 -78h13
c3 27 6 52 13 78l81 337h124z" />
    <glyph glyph-name="wgrave" unicode="&#x1e81;" horiz-adv-x="834" 
d="M478 598l-38 -54l-212 112l62 89zM815 490l-129 -457c-5 -21 -22 -33 -44 -33h-103c-22 0 -41 15 -45 38l-58 301c-5 27 -8 53 -13 80h-12l-14 -80l-58 -301c-4 -23 -23 -38 -46 -38h-101c-21 0 -39 12 -43 33l-130 457h124l81 -337c6 -26 10 -52 13 -78h13l15 78l59 301
c4 22 20 36 44 36h99c22 0 39 -14 43 -37l58 -300c5 -26 11 -51 16 -78h13c3 27 6 52 13 78l81 337h124z" />
    <glyph glyph-name="x" unicode="x" horiz-adv-x="546" 
d="M280 210h-14l-123 -210h-128l155 252l-143 238h127l111 -192h16l111 192h127l-143 -238l155 -252h-128z" />
    <glyph glyph-name="y" unicode="y" horiz-adv-x="546" 
d="M533 490l-182 -505c-32 -91 -103 -196 -247 -188l-10 77c79 22 120 58 144 115l5 11h-24c-20 0 -36 11 -41 30l-166 460h129l107 -337c7 -22 12 -43 16 -65h14c7 22 14 46 20 65l105 337h130z" />
    <glyph glyph-name="yacute" unicode="&#xfd;" horiz-adv-x="546" 
d="M237 544l-38 54l188 147l63 -89zM533 490l-181 -505c-33 -91 -104 -196 -247 -188l-11 77c80 22 120 58 144 115l5 11h-24c-20 0 -35 11 -41 30l-166 460h129l107 -337c7 -22 13 -43 17 -65h13c7 22 14 46 20 65l105 337h130z" />
    <glyph glyph-name="ycircumflex" unicode="&#x177;" horiz-adv-x="546" 
d="M137 543l-37 50l131 132h88l132 -133l-39 -49l-133 96h-8zM533 490l-181 -505c-33 -91 -104 -196 -247 -188l-11 77c80 22 120 58 144 115l5 11h-24c-20 0 -35 11 -41 30l-166 460h129l107 -337c7 -22 13 -43 17 -65h13c7 22 14 46 20 65l105 337h130z" />
    <glyph glyph-name="ydieresis" unicode="&#xff;" horiz-adv-x="546" 
d="M206 583h-41c-20 0 -29 9 -29 30v55c0 19 9 31 29 31h41c20 0 29 -12 29 -31v-55c0 -21 -9 -30 -29 -30zM384 583h-39c-21 0 -31 9 -31 30v55c0 19 10 31 31 31h39c19 0 31 -12 31 -31v-55c0 -21 -12 -30 -31 -30zM533 490l-181 -505c-33 -91 -104 -196 -247 -188l-11 77
c80 22 120 58 144 115l5 11h-24c-20 0 -35 11 -41 30l-166 460h129l107 -337c7 -22 13 -43 17 -65h13c7 22 14 46 20 65l105 337h130z" />
    <glyph glyph-name="ygrave" unicode="&#x1ef3;" horiz-adv-x="546" 
d="M297 544l-212 112l62 89l188 -147zM533 490l-181 -505c-33 -91 -104 -196 -247 -188l-11 77c80 22 120 58 144 115l5 11h-24c-20 0 -35 11 -41 30l-166 460h129l107 -337c7 -22 13 -43 17 -65h13c7 22 14 46 20 65l105 337h130z" />
    <glyph glyph-name="z" unicode="z" horiz-adv-x="518" 
d="M473 93v-93h-428v93l288 304h-284v93h420v-93l-288 -304h292z" />
    <glyph glyph-name="zacute" unicode="&#x17a;" horiz-adv-x="518" 
d="M222 544l-38 54l188 147l63 -89zM473 93v-93h-428v93l288 304h-284v93h420v-93l-287 -304h291z" />
    <glyph glyph-name="zcaron" unicode="&#x17e;" horiz-adv-x="518" 
d="M235 561l-148 131l37 50l133 -81h8l132 81l39 -50l-149 -131h-52zM473 93v-93h-428v93l288 304h-284v93h420v-93l-287 -304h291z" />
    <glyph glyph-name="zdotaccent" unicode="&#x17c;" horiz-adv-x="518" 
d="M280 573h-38c-23 0 -35 12 -35 34v54c0 23 12 35 35 35h38c22 0 34 -12 34 -35v-54c0 -22 -12 -34 -34 -34zM473 93v-93h-428v93l288 304h-284v93h420v-93l-287 -304h291z" />
    <glyph glyph-name="uni00630074" horiz-adv-x="851" 
d="M682 402v-249c0 -43 15 -57 59 -57h67l13 -90c-34 -11 -96 -17 -126 -17c-86 0 -133 52 -133 143l-1 270h-254c-100 0 -134 -34 -134 -156c0 -123 34 -158 134 -158c28 0 86 2 134 10l11 -80c-47 -21 -109 -30 -167 -30c-175 0 -239 68 -239 258c0 179 77 244 240 244
h275v141h121v-141h144v-88h-144z" />
    <glyph glyph-name="f_f" horiz-adv-x="740" 
d="M747 624h-96c-55 0 -74 -19 -74 -69v-65h144v-88h-144v-402h-121v402h-224v-402h-121v402h-87v83l87 5v71c0 91 49 148 152 148c30 0 94 -2 130 -9l-11 -86h-76c-55 0 -74 -13 -74 -69v-55h224v81c0 91 40 148 153 148c33 0 107 -2 149 -9z" />
    <glyph glyph-name="f_f_i" horiz-adv-x="976" 
d="M905 490v-490h-121v402h-216v-402h-120v402h-225v-402h-121v402h-78v83l78 4v72c1 91 49 148 153 148c30 0 94 -2 129 -9l-10 -86h-77c-55 0 -74 -13 -74 -69v-55h225v68c0 100 40 161 152 161c31 0 86 -2 123 -9v-86h-80c-56 0 -75 -21 -75 -81v-53h337zM816 704h56
c23 0 35 -13 35 -35v-54c0 -24 -12 -35 -35 -35h-56c-24 0 -35 11 -35 35v54c0 22 11 35 35 35z" />
    <glyph glyph-name="f_f_l" horiz-adv-x="1046" 
d="M1024 84l14 -78c-22 -11 -77 -17 -104 -17c-81 0 -131 46 -131 122v514h-152c-54 1 -74 -21 -74 -82v-53h133v-88h-133v-402h-121v402h-224v-402h-121v402h-87v83l87 5v71c0 91 49 148 152 148c30 0 94 -2 130 -9l-11 -86h-76c-55 0 -74 -13 -74 -69v-55h224v68
c0 100 40 162 153 161c58 0 229 0 316 -16v-563c0 -38 20 -56 58 -56h41z" />
    <glyph glyph-name="uni006600660079" horiz-adv-x="1248" 
d="M1235 490l-181 -505c-33 -91 -104 -196 -248 -188l-10 77c79 22 120 58 144 115l5 11h-24c-20 0 -35 11 -41 30l-121 334c-9 26 -26 38 -53 38h-128v-402h-121v402h-225v-402h-121v402h-87v83l87 5v71c0 91 49 148 152 148c30 0 94 -2 130 -9l-11 -86h-76
c-55 0 -74 -13 -74 -69v-55h225v81c0 91 40 148 153 148c34 0 107 -2 148 -9l-11 -86h-95c-56 0 -74 -19 -74 -69v-65h157c74 0 118 -33 140 -102l75 -235c7 -22 12 -43 16 -65h15c7 21 13 44 19 65l105 337h130z" />
    <glyph glyph-name="uni00660074" horiz-adv-x="743" 
d="M575 402v-249c0 -43 14 -57 58 -57h67l14 -90c-35 -11 -96 -17 -126 -17c-87 0 -134 52 -134 143v270h-221v-402h-122v402h-87v83l87 5v81c0 91 40 148 153 148c31 0 99 -2 136 -9l-10 -86h-83c-55 0 -74 -19 -74 -69v-65h221v141h121v-141h143v-88h-143z" />
    <glyph glyph-name="uni00660079" horiz-adv-x="902" 
d="M889 490l-181 -505c-33 -91 -104 -196 -247 -188l-11 77c80 22 120 58 144 115l5 11h-24c-20 0 -35 11 -41 30l-121 334c-9 26 -26 38 -53 38h-127v-402h-122v402h-87v83l87 5v81c0 91 40 148 153 148c34 0 108 -2 149 -9l-10 -86h-96c-55 0 -74 -19 -74 -69v-65h156
c74 0 118 -33 140 -102l75 -235c7 -22 13 -43 17 -65h13c7 22 15 46 20 65l105 337h130z" />
    <glyph glyph-name="fi" unicode="&#xfb01;" horiz-adv-x="641" 
d="M569 490v-490h-121v402h-215v-402h-122v402h-87v83l87 5v68c0 100 40 161 153 161c31 0 86 -2 124 -9v-86h-81c-56 0 -74 -21 -74 -81v-53h336zM480 704h56c24 0 35 -13 35 -35v-54c0 -24 -11 -35 -35 -35h-56c-24 0 -35 11 -35 35v54c0 22 11 35 35 35z" />
    <glyph glyph-name="fl" unicode="&#xfb02;" horiz-adv-x="699" 
d="M678 84l14 -78c-23 -11 -77 -17 -104 -17c-81 0 -131 46 -131 122v514h-152c-55 1 -73 -21 -73 -82v-53h132v-88h-132v-402h-122v402h-87v83l87 5v68c0 100 40 162 152 161c59 0 229 0 317 -16v-563c0 -38 20 -56 57 -56h42z" />
    <glyph glyph-name="s_t" horiz-adv-x="876" 
d="M707 402v-249c0 -43 15 -57 59 -57h67l13 -90c-34 -11 -96 -17 -126 -17c-86 0 -134 52 -134 143v270h-322c-82 0 -104 -1 -104 -38c0 -38 21 -40 67 -53l132 -36c80 -23 115 -55 115 -141c0 -120 -65 -145 -217 -145c-33 0 -116 1 -205 16l8 85c39 -3 105 -4 167 -4
c101 0 130 8 130 47c0 37 -25 41 -70 53l-129 35c-87 25 -115 66 -115 144c0 97 56 126 200 125h343v141h121v-141h144v-88h-144z" />
    <glyph glyph-name="uni00740074" horiz-adv-x="761" 
d="M592 402v-249c0 -43 15 -57 59 -57h67l13 -90c-34 -11 -96 -17 -126 -17c-86 0 -133 52 -133 143l-1 270h-240v-249c0 -43 15 -57 59 -57h67l13 -90c-34 -11 -96 -17 -126 -17c-86 0 -133 52 -133 143l-1 270h-88v83l88 5v141h121v-141h240v141h121v-141h144v-88h-144z
" />
    <glyph glyph-name="uni00740079" horiz-adv-x="923" 
d="M910 490l-182 -505c-32 -91 -103 -196 -247 -188l-10 77c79 22 120 57 144 115l5 11h-24c-20 0 -36 11 -41 30l-121 334c-9 26 -27 38 -53 38h-150v-249c0 -43 15 -57 59 -57h67l13 -90c-34 -11 -96 -17 -126 -17c-86 0 -133 52 -133 143l-1 270h-88v83l88 5v141h121
v-141h179c74 0 118 -33 140 -102l75 -235c7 -22 12 -43 16 -65h13c8 23 16 49 21 65l105 337h130z" />
    <glyph glyph-name="ordfeminine" unicode="&#xaa;" horiz-adv-x="439" 
d="M251 612c79 0 125 -29 125 -118v-220h-72l-10 58c-26 -30 -72 -66 -136 -66c-60 0 -104 31 -104 90v37c0 51 37 82 99 82h133v20c0 28 -13 44 -55 44c-43 0 -98 -3 -152 -6l-8 63c48 8 119 16 180 16zM188 339c31 0 69 17 98 39v50l-102 -9c-33 -2 -43 -14 -43 -34v-10
c0 -28 16 -36 47 -36z" />
    <glyph glyph-name="ordmasculine" unicode="&#xba;" horiz-adv-x="441" 
d="M221 612c126 0 171 -47 171 -174c0 -126 -45 -172 -171 -172c-127 0 -171 46 -171 172c0 127 44 174 171 174zM221 541c-60 0 -78 -21 -78 -103c0 -80 18 -102 78 -102c59 0 77 22 77 102c0 82 -18 103 -77 103z" />
    <glyph glyph-name="uni0410" unicode="&#x410;" horiz-adv-x="636" 
d="M446 195h-256l-57 -195h-128l207 657c6 21 24 33 45 33h122c21 0 39 -12 45 -33l207 -657h-128zM416 298l-69 238c-5 19 -12 40 -15 59h-27l-16 -59l-69 -238h196z" />
    <glyph glyph-name="uni0411" unicode="&#x411;" horiz-adv-x="607" 
d="M204 404h120c180 0 241 -51 241 -208c0 -186 -86 -205 -256 -205c-72 0 -147 2 -228 9h-3v690c76 4 151 7 225 7c75 0 148 -3 221 -7l-10 -101h-310v-185zM203 93h121c96 0 115 21 115 108c0 84 -17 111 -115 111h-120z" />
    <glyph glyph-name="uni0412" unicode="&#x412;" horiz-adv-x="628" 
d="M439 360v-4c104 -9 140 -74 140 -184c0 -142 -66 -180 -227 -180c-125 0 -191 1 -274 8v690c74 7 134 8 243 8c175 0 237 -38 237 -180c0 -99 -34 -150 -119 -158zM315 597h-115v-194h126c84 0 111 20 111 99c0 77 -30 95 -122 95zM200 94l132 -1c92 0 121 19 121 102
c0 92 -30 116 -126 117h-127v-218z" />
    <glyph glyph-name="uni0413" unicode="&#x413;" horiz-adv-x="524" 
d="M214 692c98 0 205 0 294 -9l-6 -95h-242c-44 0 -59 -15 -59 -63v-525h-125v549c0 85 58 143 138 143z" />
    <glyph glyph-name="uni0403" unicode="&#x403;" horiz-adv-x="524" 
d="M470 836l-213 -112l-38 54l188 147zM214 692c99 0 205 0 294 -9l-6 -95h-242c-44 0 -59 -15 -59 -63v-525h-125v549c0 85 58 143 138 143z" />
    <glyph glyph-name="uni0490" unicode="&#x490;" horiz-adv-x="531" 
d="M514 842v-168l-6 -86h-248c-44 0 -59 -15 -59 -63v-525h-125v549c0 85 58 143 138 143c67 0 139 0 205 -5l13 155h82z" />
    <glyph glyph-name="uni0414" unicode="&#x414;" horiz-adv-x="717" 
d="M690 97v-248h-87l-11 151h-474l-11 -151h-87v248h71c61 143 82 298 93 452c5 86 63 141 157 141h261v-593h88zM477 97v496h-108c-46 0 -62 -16 -65 -64c-15 -188 -37 -313 -94 -432h267z" />
    <glyph glyph-name="uni0415" unicode="&#x415;" 
d="M517 101l5 -95c-91 -8 -202 -8 -304 -8c-91 0 -146 50 -146 131v432c0 81 56 131 146 131c102 0 213 0 304 -8l-5 -96h-271c-36 0 -49 -15 -49 -58v-121h282v-96h-282v-154c0 -43 13 -58 49 -58h271z" />
    <glyph glyph-name="uni0401" unicode="&#x401;" 
d="M241 779h-40c-20 0 -30 10 -30 31v55c0 19 10 30 30 30h40c20 0 30 -11 30 -30v-55c0 -21 -10 -31 -30 -31zM420 779h-40c-20 0 -30 10 -30 31v55c0 19 10 30 30 30h40c19 0 30 -11 30 -30v-55c0 -21 -11 -31 -30 -31zM517 101l5 -95c-91 -8 -202 -8 -304 -8
c-91 0 -146 50 -146 131v432c0 81 56 131 146 131c102 0 213 0 304 -8l-5 -96h-271c-36 0 -49 -15 -49 -58v-121h282v-96h-282v-154c0 -43 13 -58 49 -58h271z" />
    <glyph glyph-name="uni0416" unicode="&#x416;" horiz-adv-x="926" 
d="M664 362v-4c133 -15 159 -117 237 -358h-131c-77 222 -99 311 -198 311h-55c4 -23 7 -46 7 -68v-243h-120v243c0 22 3 45 7 68h-58c-98 0 -121 -89 -198 -311h-131c78 241 104 343 237 358v4c-126 15 -151 122 -218 328h127c61 -180 91 -283 182 -283h59
c-5 26 -7 52 -7 80v203h120v-203c0 -28 -2 -54 -7 -80h54c93 0 123 103 185 283h127c-67 -206 -93 -313 -219 -328z" />
    <glyph glyph-name="uni0417" unicode="&#x417;" horiz-adv-x="557" 
d="M254 698c171 0 231 -38 231 -180c0 -99 -33 -150 -116 -158v-4c102 -9 137 -74 137 -184c0 -142 -65 -180 -222 -180c-104 0 -179 7 -252 27l10 89c65 -9 140 -16 219 -16c88 0 116 19 116 103c0 90 -30 115 -122 115l-125 1v93l125 1c79 0 106 20 106 97
c0 78 -29 97 -116 97c-74 0 -132 -7 -187 -12l-10 93c64 13 122 18 206 18z" />
    <glyph glyph-name="uni0418" unicode="&#x418;" horiz-adv-x="701" 
d="M623 0h-121v452c0 29 3 58 8 87h-6c-11 -29 -24 -60 -38 -84l-261 -455h-127v690h120v-446c0 -30 -2 -60 -8 -90h7c10 29 23 56 38 83l260 453h128v-690z" />
    <glyph glyph-name="uni0419" unicode="&#x419;" horiz-adv-x="701" 
d="M426 888h86c8 -80 -53 -147 -157 -147c-105 0 -167 67 -159 147h86c-1 -56 24 -84 73 -84c47 0 72 28 71 84zM623 0h-121v452c0 29 3 58 8 87h-6c-10 -29 -24 -60 -38 -84l-261 -455h-127v690h120v-446c0 -30 -2 -60 -7 -90h6c10 29 23 56 39 83l259 453h128v-690z" />
    <glyph glyph-name="uni040D" unicode="&#x40d;" horiz-adv-x="701" 
d="M414 778l-38 -54l-212 112l62 89zM623 0h-121v452c0 29 3 58 8 87h-6c-10 -29 -24 -60 -38 -84l-261 -455h-127v690h120v-446c0 -30 -2 -60 -7 -90h6c10 29 23 56 39 83l259 453h128v-690z" />
    <glyph glyph-name="uni041A" unicode="&#x41a;" horiz-adv-x="619" 
d="M357 362v-4c134 -15 156 -117 238 -358h-131c-73 222 -95 311 -210 311h-58c4 -23 7 -46 7 -68v-243h-125v690h125v-203c0 -27 -3 -54 -7 -80h58c109 0 139 103 196 283h127c-68 -206 -94 -313 -220 -328z" />
    <glyph glyph-name="uni040C" unicode="&#x40c;" horiz-adv-x="619" 
d="M277 724l-38 54l188 147l63 -89zM357 362v-4c134 -15 156 -117 238 -358h-131c-73 222 -95 311 -210 311h-58c4 -23 7 -46 7 -68v-243h-125v690h125v-203c0 -27 -2 -54 -7 -80h58c109 0 139 103 196 283h127c-68 -206 -94 -313 -220 -328z" />
    <glyph glyph-name="uni041B" unicode="&#x41b;" horiz-adv-x="665" 
d="M587 690v-690h-126v593h-107c-42 0 -63 -20 -67 -63c-17 -201 -27 -302 -63 -390c-42 -104 -109 -150 -207 -142l-10 97c47 11 81 30 99 78c31 79 43 162 59 377c8 92 60 140 154 140h268z" />
    <glyph glyph-name="uni041C" unicode="&#x41c;" horiz-adv-x="895" 
d="M626 690h128c32 0 48 -17 50 -49l27 -641h-122l-24 589h-18l-119 -459c-7 -27 -24 -42 -53 -42h-95c-29 0 -47 15 -54 42l-120 459h-18l-21 -589h-122l26 641c1 32 17 49 49 49h129c28 0 44 -14 51 -42l99 -374c8 -32 14 -62 20 -94h15c7 32 13 62 21 95l98 373
c7 28 24 42 53 42z" />
    <glyph glyph-name="uni041D" unicode="&#x41d;" horiz-adv-x="679" 
d="M601 690v-690h-126v316h-272v-316h-125v690h125v-271h272v271h126z" />
    <glyph glyph-name="uni041E" unicode="&#x41e;" horiz-adv-x="675" 
d="M337 703c211 0 285 -84 285 -358s-74 -358 -285 -358c-210 0 -284 84 -284 358s74 358 284 358zM337 596c-116 0 -152 -59 -152 -251s36 -251 152 -251c117 0 153 59 153 251s-36 251 -153 251z" />
    <glyph glyph-name="uni041F" unicode="&#x41f;" horiz-adv-x="678" 
d="M600 690v-690h-125v593h-272v-593h-125v690h522z" />
    <glyph glyph-name="uni0420" unicode="&#x420;" horiz-adv-x="601" 
d="M328 699c178 0 237 -48 237 -222c0 -175 -59 -222 -222 -222c-49 0 -97 3 -139 8v-263h-126v690c79 8 132 9 250 9zM204 357h121c87 1 114 25 114 120s-27 119 -114 119l-121 -1v-238z" />
    <glyph glyph-name="uni0421" unicode="&#x421;" horiz-adv-x="578" 
d="M334 702c92 0 138 -6 198 -22l-12 -95c-62 5 -103 7 -186 7c-114 0 -149 -58 -149 -247s35 -247 149 -247c88 0 142 2 201 10l11 -94c-61 -19 -117 -26 -212 -26c-207 0 -281 94 -281 357s74 357 281 357z" />
    <glyph glyph-name="uni0422" unicode="&#x422;" horiz-adv-x="592" 
d="M571 583h-213v-583h-126v583h-211v107h550v-107z" />
    <glyph glyph-name="uni0423" unicode="&#x423;" horiz-adv-x="579" 
d="M574 690l-177 -515c-36 -103 -77 -175 -169 -183c-40 -3 -108 5 -145 15l14 91c130 -7 140 -7 173 75l9 25h-36c-45 0 -67 19 -80 58l-150 434h128l123 -377c2 -8 9 -13 18 -13h32l131 390h129z" />
    <glyph glyph-name="uni040E" unicode="&#x40e;" horiz-adv-x="579" 
d="M290 741c-105 0 -167 62 -159 143l59 8c0 -42 33 -66 100 -66c64 0 98 24 98 66l59 -8c8 -81 -54 -143 -157 -143zM574 690l-177 -515c-36 -103 -77 -175 -169 -183c-40 -3 -108 5 -145 15l14 91c130 -7 140 -7 173 75l9 25h-36c-45 0 -67 19 -80 58l-150 434h128
l123 -377c2 -8 9 -13 18 -13h32l131 390h129z" />
    <glyph glyph-name="uni0424" unicode="&#x424;" horiz-adv-x="829" 
d="M791 352c-1 -204 -84 -279 -313 -290v-92h-126v92c-231 11 -313 85 -313 290c0 210 82 286 313 297v92h125l1 -92c229 -11 312 -87 313 -297zM166 352c0 -137 42 -181 191 -189v385c-149 -8 -191 -54 -191 -196zM472 548v-385c148 8 190 52 191 189
c-1 142 -43 187 -191 196z" />
    <glyph glyph-name="uni0425" unicode="&#x425;" horiz-adv-x="626" 
d="M322 312h-19l-154 -312h-132l183 355l-170 335h131l140 -288h23l140 288h132l-171 -335l184 -355h-133z" />
    <glyph glyph-name="uni0427" unicode="&#x427;" horiz-adv-x="641" 
d="M563 690v-690h-125v296c-77 -38 -163 -55 -220 -55c-112 0 -165 52 -165 163v286h125v-260c-1 -56 22 -79 85 -79c58 0 105 9 175 39v300h125z" />
    <glyph glyph-name="uni0426" unicode="&#x426;" horiz-adv-x="703" 
d="M675 97v-248h-87l-11 151h-499v690h125v-593h262v593h126v-593h84z" />
    <glyph glyph-name="uni0428" unicode="&#x428;" horiz-adv-x="951" 
d="M873 690v-690h-795v690h123v-593h213v593h122v-593h214v593h123z" />
    <glyph glyph-name="uni0429" unicode="&#x429;" horiz-adv-x="979" 
d="M951 97v-248h-87l-11 151h-775v690h123v-593h211v593h121v-593h212v593h122v-593h84z" />
    <glyph glyph-name="uni040F" unicode="&#x40f;" horiz-adv-x="683" 
d="M605 690v-690h-212l-5 -151h-86l-6 151h-218v690h125v-593h276v593h126z" />
    <glyph glyph-name="uni042F" unicode="&#x42f;" horiz-adv-x="623" 
d="M296 699c117 0 171 -1 250 -9v-690h-126v270h-119c-42 0 -67 -17 -80 -63l-53 -207h-132l58 211c17 66 63 92 101 99l-1 6c-97 12 -132 72 -131 181c0 146 67 202 233 202zM420 373v222l-121 1c-84 0 -110 -22 -111 -107c0 -83 27 -116 111 -116h121z" />
    <glyph glyph-name="uni042C" unicode="&#x42c;" horiz-adv-x="601" 
d="M203 426h119c180 0 240 -54 240 -219c0 -168 -63 -215 -219 -215c-121 0 -182 1 -262 8h-3v690h125v-264zM203 96h119c95 0 114 22 114 113c0 88 -17 120 -114 120h-119v-233z" />
    <glyph glyph-name="uni042A" unicode="&#x42a;" horiz-adv-x="754" 
d="M360 426h115c180 0 240 -54 240 -219c0 -168 -63 -215 -219 -215c-120 0 -181 1 -262 8v583h-214v107h340v-264zM360 96h115c95 0 114 22 114 113c0 88 -17 120 -114 120h-115v-233z" />
    <glyph glyph-name="uni042B" unicode="&#x42b;" horiz-adv-x="873" 
d="M203 426h118c180 0 240 -54 240 -219c0 -168 -63 -215 -219 -215c-120 0 -181 1 -261 8h-3v690h125v-264zM795 690v-690h-125v690h125zM203 96h118c95 0 114 22 114 113c0 88 -17 120 -114 120h-118v-233z" />
    <glyph glyph-name="uni0409" unicode="&#x409;" horiz-adv-x="973" 
d="M579 426h116c180 0 239 -54 239 -218c0 -169 -63 -216 -218 -216c-121 0 -179 1 -260 8v593h-105c-40 0 -54 -24 -57 -63c-20 -212 -29 -299 -63 -390c-42 -106 -99 -142 -203 -142l-9 85c35 12 67 31 96 91c40 88 45 200 59 374c5 95 57 142 157 142h248v-264zM579 96
h116c94 0 113 22 113 115c0 87 -17 118 -113 118h-116v-233z" />
    <glyph glyph-name="uni040A" unicode="&#x40a;" horiz-adv-x="977" 
d="M583 423h117c178 0 238 -53 238 -216c0 -168 -63 -215 -217 -215c-121 0 -181 1 -262 8v325h-256v-325h-125v690h125v-267h256v267h124v-267zM583 96h117c93 0 112 22 112 113c0 86 -17 118 -112 118h-117v-231z" />
    <glyph glyph-name="uni0405" unicode="&#x405;" horiz-adv-x="570" 
d="M285 702c66 0 143 -4 217 -23l-8 -89c-57 2 -137 4 -205 4c-84 0 -115 -5 -115 -79c0 -61 23 -75 77 -92l133 -41c109 -35 142 -100 142 -201c0 -157 -68 -193 -245 -193c-42 0 -124 2 -224 22l8 92c131 -3 171 -4 219 -4c90 0 115 13 115 84c0 63 -23 75 -73 91l-139 44
c-102 33 -139 97 -139 200c0 158 72 185 237 185z" />
    <glyph glyph-name="uni0404" unicode="&#x404;" horiz-adv-x="583" 
d="M534 109l12 -95c-59 -19 -114 -26 -207 -26c-211 0 -286 94 -286 357s75 357 286 357c93 0 141 -6 201 -22l-12 -95c-62 4 -105 6 -189 6c-105 0 -147 -44 -155 -181h284v-94h-286c3 -165 43 -217 157 -217c87 0 138 2 195 10z" />
    <glyph glyph-name="uni042D" unicode="&#x42d;" horiz-adv-x="583" 
d="M243 702c211 0 287 -94 287 -357s-76 -357 -287 -357c-93 0 -147 7 -206 26l12 95c57 -8 108 -10 195 -10c113 0 153 52 157 217h-286v94h284c-9 137 -51 181 -155 181c-84 0 -127 -2 -190 -6l-11 95c60 16 108 22 200 22z" />
    <glyph glyph-name="uni0406" unicode="&#x406;" horiz-adv-x="280" 
d="M203 0h-125v690h125v-690z" />
    <glyph glyph-name="uni0407" unicode="&#x407;" horiz-adv-x="280" 
d="M31 878h40c20 0 29 -11 29 -30v-56c0 -20 -9 -30 -29 -30h-40c-20 0 -30 10 -30 30v56c0 19 10 30 30 30zM210 878h40c19 0 30 -11 30 -30v-56c0 -20 -11 -30 -30 -30h-40c-21 0 -30 10 -30 30v56c0 19 9 30 30 30zM203 0h-125v690h125v-690z" />
    <glyph glyph-name="uni0408" unicode="&#x408;" horiz-adv-x="354" 
d="M279 690v-538c0 -105 -52 -163 -144 -163c-31 0 -85 7 -110 17l13 87h47c47 0 70 22 70 62v535h124z" />
    <glyph glyph-name="uni040B" unicode="&#x40b;" horiz-adv-x="776" 
d="M561 448c114 0 167 -51 167 -162v-286h-125v260c0 60 -20 80 -86 80c-54 0 -97 -10 -159 -37v-303h-126v583h-211v107h549v-107h-212v-183c71 33 149 48 203 48z" />
    <glyph glyph-name="uni042E" unicode="&#x42e;" horiz-adv-x="950" 
d="M611 703c211 0 285 -84 285 -358s-74 -358 -285 -358c-189 0 -261 77 -268 322h-139v-309h-125v690h125v-284h140c11 226 85 297 267 297zM611 94c116 0 152 59 153 251c-1 192 -37 251 -153 251c-112 0 -146 -59 -146 -251s34 -251 146 -251z" />
    <glyph glyph-name="uni0402" unicode="&#x402;" horiz-adv-x="757" 
d="M547 447c96 0 174 -33 174 -211c0 -188 -103 -249 -260 -243l-12 90c103 10 147 37 147 142c0 106 -27 117 -93 117c-42 0 -88 -9 -145 -38v-304h-126v583h-211v107h549v-107h-212v-185c65 36 136 49 189 49z" />
    <glyph glyph-name="uni04B0" unicode="&#x4b0;" horiz-adv-x="598" 
d="M507 213h-144v-213h-126v213h-143v70h119l-203 407h132l126 -268c12 -26 21 -57 28 -83h9c7 26 16 57 28 83l126 268h130l-202 -407h119z" />
    <glyph glyph-name="uni04B6" unicode="&#x4b6;" horiz-adv-x="675" 
d="M649 85v-236h-87l-11 151h-112v292c-77 -35 -161 -51 -218 -51c-115 0 -168 52 -168 163v286h126v-260c-2 -58 22 -81 87 -81c57 0 103 9 173 39v302h126v-605h84z" />
    <glyph glyph-name="uni04BA" unicode="&#x4ba;" horiz-adv-x="642" 
d="M421 449c115 0 168 -52 168 -163v-286h-125v260c1 58 -23 81 -88 81c-54 0 -106 -9 -173 -39v-302h-125v690h125v-291c75 34 164 50 218 50z" />
    <glyph glyph-name="uni04C0" unicode="&#x4c0;" horiz-adv-x="282" 
d="M204 0h-125v690h125v-690z" />
    <glyph glyph-name="uni0430" unicode="&#x430;" horiz-adv-x="562" 
d="M311 504c122 0 185 -40 185 -171v-333h-96l-13 75c-36 -39 -99 -86 -187 -86c-90 0 -155 50 -155 142v50c0 78 53 123 145 123h184v30c-1 56 -20 70 -90 70c-45 0 -128 -4 -206 -10l-11 86c70 13 180 24 244 24zM166 166v-19c0 -42 19 -60 64 -60c38 0 93 16 144 58v76
h-156c-41 -2 -52 -22 -52 -55z" />
    <glyph glyph-name="uni0431" unicode="&#x431;" horiz-adv-x="584" 
d="M486 739l26 -95c-86 -51 -145 -36 -230 -60c-82 -23 -108 -81 -118 -126c-9 -34 -12 -61 -13 -73h2c28 46 68 90 182 90c148 0 200 -70 200 -233c0 -162 -51 -254 -236 -254c-225 0 -238 135 -238 309c0 203 25 330 181 378c88 28 158 15 244 64zM303 380
c-99 0 -116 -43 -116 -140c0 -120 28 -155 111 -155c82 0 110 35 110 154c0 112 -24 141 -105 141z" />
    <glyph glyph-name="uni0432" unicode="&#x432;" horiz-adv-x="561" 
d="M392 254v-3c91 -7 124 -51 124 -130c0 -101 -59 -128 -201 -128c-111 0 -171 1 -246 6v491c67 5 121 6 218 6c156 0 210 -28 210 -131c0 -69 -30 -105 -105 -111zM282 407h-99v-115h108c69 0 93 14 93 61c0 42 -26 54 -102 54zM183 83h112c73 0 99 12 99 64
c0 49 -26 66 -103 66h-108v-130z" />
    <glyph glyph-name="uni0433" unicode="&#x433;" horiz-adv-x="474" 
d="M186 495c90 0 190 0 271 -11l-5 -85h-214c-35 0 -50 -15 -50 -51v-348h-121v381c0 76 39 114 119 114z" />
    <glyph glyph-name="uni0453" unicode="&#x453;" horiz-adv-x="474" 
d="M443 656l-213 -112l-38 54l188 147zM185 495c91 0 191 0 272 -11l-5 -85h-214c-35 0 -51 -15 -51 -51v-348h-120v381c0 76 39 114 118 114z" />
    <glyph glyph-name="uni0491" unicode="&#x491;" horiz-adv-x="477" 
d="M459 636v-152l-6 -85h-214c-35 1 -50 -15 -50 -51v-348h-121v381c0 76 39 114 118 114c59 0 122 0 182 -3l11 144h80z" />
    <glyph glyph-name="uni0434" unicode="&#x434;" horiz-adv-x="611" 
d="M581 93v-236h-79l-10 143h-378l-9 -143h-79v236h60c39 90 56 182 65 278c6 79 50 119 137 119h219v-397h74zM393 93v308h-79c-35 0 -52 -17 -55 -52c-10 -104 -29 -184 -65 -256h199z" />
    <glyph glyph-name="uni0435" unicode="&#x435;" horiz-adv-x="551" 
d="M308 87c47 0 117 5 176 12l11 -78c-53 -25 -140 -33 -202 -33c-178 0 -245 72 -245 258c0 194 70 258 237 258c159 0 222 -59 222 -170c1 -88 -40 -140 -130 -140h-200c10 -89 47 -107 131 -107zM290 408c-85 0 -112 -26 -116 -129h169c39 0 44 31 44 57
c0 52 -23 72 -97 72z" />
    <glyph glyph-name="uni0451" unicode="&#x451;" horiz-adv-x="551" 
d="M217 583h-40c-20 0 -30 9 -30 30v55c0 19 10 31 30 31h40c20 0 30 -12 30 -31v-55c0 -21 -10 -30 -30 -30zM396 583h-40c-21 0 -30 9 -30 30v55c0 19 9 31 30 31h40c19 0 30 -12 30 -31v-55c0 -21 -11 -30 -30 -30zM308 87c47 0 117 5 176 12l11 -78
c-53 -25 -140 -33 -202 -33c-178 0 -245 72 -245 258c0 194 70 258 237 258c159 0 222 -59 222 -170c1 -88 -40 -140 -130 -140h-200c10 -89 47 -107 131 -107zM290 408c-85 0 -112 -26 -116 -129h169c39 0 44 31 44 57c0 52 -23 72 -97 72z" />
    <glyph glyph-name="uni0436" unicode="&#x436;" horiz-adv-x="807" 
d="M590 258v-3c109 -14 127 -63 191 -255h-123c-62 165 -76 210 -145 211h-60c3 -15 5 -31 5 -44v-167h-106v167c0 13 2 29 5 44h-64c-66 -1 -81 -46 -143 -211h-123c64 192 80 241 190 255v3c-104 12 -119 67 -176 232h120c50 -138 71 -192 139 -192h57c-4 19 -5 38 -5 57
v135h106v-135c0 -19 -1 -38 -5 -57h54c69 0 89 54 138 192h121c-57 -165 -71 -220 -176 -232z" />
    <glyph glyph-name="uni0437" unicode="&#x437;" horiz-adv-x="509" 
d="M212 501c167 0 232 -22 232 -133c0 -73 -28 -107 -103 -114v-3c86 -7 122 -48 122 -129c0 -112 -68 -133 -220 -133c-67 0 -141 4 -210 18l9 89c56 -5 130 -9 193 -9c80 0 103 9 103 60c0 47 -24 60 -103 60l-130 1v83l129 1c70 0 90 12 90 59c0 42 -24 51 -107 51
c-56 0 -116 -4 -159 -9l-8 89c59 17 121 19 162 19z" />
    <glyph glyph-name="uni0438" unicode="&#x438;" horiz-adv-x="595" 
d="M524 0h-109v283c0 24 3 45 5 73h-3c-8 -22 -24 -48 -36 -66l-211 -290h-100v490h108v-286c0 -23 -1 -44 -4 -69h3c10 22 23 45 36 62l211 293h100v-490z" />
    <glyph glyph-name="uni0439" unicode="&#x439;" horiz-adv-x="595" 
d="M368 708h86c8 -80 -53 -147 -157 -147c-105 0 -167 67 -159 147h86c-1 -56 24 -84 73 -84c47 0 72 28 71 84zM524 0h-109v283c0 24 2 45 5 73h-4c-8 -22 -23 -48 -35 -66l-211 -290h-100v490h108v-286c0 -23 -1 -44 -5 -69h4c10 22 23 45 35 62l212 293h100v-490z" />
    <glyph glyph-name="uni045D" unicode="&#x45d;" horiz-adv-x="595" 
d="M356 598l-38 -54l-212 112l62 89zM524 0h-109v283c0 24 2 45 5 73h-4c-8 -22 -23 -48 -35 -66l-211 -290h-100v490h108v-286c0 -23 -1 -44 -5 -69h4c10 22 23 45 35 62l212 293h100v-490z" />
    <glyph glyph-name="uni043A" unicode="&#x43a;" horiz-adv-x="551" 
d="M330 257v-3c111 -13 129 -61 194 -254h-127c-58 167 -72 209 -155 210h-56c3 -15 5 -30 5 -43v-167h-121v490h121v-134c0 -19 -2 -38 -6 -57h49c86 0 106 52 151 191h123c-58 -169 -72 -219 -178 -233z" />
    <glyph glyph-name="uni045C" unicode="&#x45c;" horiz-adv-x="551" 
d="M247 544l-38 54l188 147l63 -89zM329 257v-3c112 -13 129 -61 194 -254h-127c-57 167 -72 209 -155 210h-55c3 -15 5 -30 5 -43v-167h-121v490h121v-134c0 -19 -2 -38 -6 -57h49c86 0 105 52 150 191h124c-58 -169 -72 -219 -179 -233z" />
    <glyph glyph-name="uni043B" unicode="&#x43b;" horiz-adv-x="578" 
d="M508 490v-490h-122v400h-81c-37 0 -50 -12 -55 -55c-11 -82 -23 -173 -41 -234c-24 -89 -87 -123 -181 -116l-12 91c54 10 71 22 85 59c17 51 29 146 36 222c8 82 49 123 137 123h234z" />
    <glyph glyph-name="uni043C" unicode="&#x43c;" horiz-adv-x="767" 
d="M528 490h117c28 0 43 -15 43 -43l18 -447h-111l-16 401h-16l-95 -304c-7 -25 -21 -38 -46 -38h-79c-26 0 -40 13 -47 38l-95 304h-15l-15 -401h-110l17 447c0 28 15 43 44 43h116c24 0 39 -13 45 -38l76 -244c8 -24 12 -47 17 -72h13c5 25 10 49 16 72l76 244
c7 25 21 38 47 38z" />
    <glyph glyph-name="uni043D" unicode="&#x43d;" horiz-adv-x="593" 
d="M523 490v-490h-119v215h-214v-215h-120v490h120v-186h214v186h119z" />
    <glyph glyph-name="uni043E" unicode="&#x43e;" horiz-adv-x="580" 
d="M290 504c177 0 242 -71 242 -259s-65 -258 -242 -258c-176 0 -242 70 -242 258s66 259 242 259zM290 407c-89 0 -115 -35 -115 -162c0 -126 26 -161 115 -161s116 35 116 161c0 127 -27 162 -116 162z" />
    <glyph glyph-name="uni043F" unicode="&#x43f;" horiz-adv-x="585" 
d="M514 491v-491h-118v398h-208v-398h-118v491h444z" />
    <glyph glyph-name="uni0440" unicode="&#x440;" horiz-adv-x="595" 
d="M379 503c119 0 167 -96 167 -262c0 -192 -64 -253 -188 -253c-60 0 -119 14 -169 48c2 -34 3 -67 2 -102v-129h-121v685h100l9 -72c45 50 128 85 200 85zM322 87c72 0 99 25 99 155c0 124 -24 161 -86 161c-47 0 -88 -21 -144 -61v-234c49 -11 85 -21 131 -21z" />
    <glyph glyph-name="uni0441" unicode="&#x441;" horiz-adv-x="501" 
d="M288 504c48 0 119 -7 171 -28l-14 -76c-50 2 -101 2 -137 2c-99 0 -133 -34 -133 -156c0 -123 34 -158 133 -158c31 0 94 2 147 10l12 -80c-52 -21 -118 -30 -180 -30c-175 0 -239 68 -239 258c0 189 65 258 240 258z" />
    <glyph glyph-name="uni0442" unicode="&#x442;" horiz-adv-x="503" 
d="M480 394h-168v-394h-120v394h-169v96h457v-96z" />
    <glyph glyph-name="uni0443" unicode="&#x443;" horiz-adv-x="549" 
d="M535 490l-182 -505c-19 -55 -52 -119 -108 -155c-55 -38 -123 -40 -201 -29l11 84c47 -3 90 -1 121 18c26 17 49 50 65 87l4 10h-24c-20 0 -36 11 -41 30l-167 460h130l107 -337c6 -22 12 -43 16 -65h14c7 22 14 46 19 65l105 337h131z" />
    <glyph glyph-name="uni045E" unicode="&#x45e;" horiz-adv-x="549" 
d="M273 561c-105 0 -167 66 -159 147h86c-1 -56 25 -84 73 -84s72 28 71 84h86c9 -81 -53 -147 -157 -147zM534 490l-181 -505c-19 -55 -52 -119 -108 -155c-55 -38 -123 -40 -201 -29l11 84c47 -3 90 -1 121 18c26 17 49 50 64 87l4 10h-24c-20 0 -35 11 -41 30l-166 460
h129l107 -337c7 -22 13 -43 17 -65h13c7 22 14 46 20 65l105 337h130z" />
    <glyph glyph-name="uni0444" unicode="&#x444;" horiz-adv-x="734" 
d="M687 245c0 -171 -73 -245 -265 -256v-184h-110v184c-192 11 -265 85 -265 256c0 172 73 246 265 258v197h110v-197c192 -12 265 -86 265 -258zM163 245c0 -112 38 -152 153 -159v320c-115 -8 -153 -49 -153 -161zM418 406v-320c115 7 153 47 153 159s-38 153 -153 161z
" />
    <glyph glyph-name="uni0445" unicode="&#x445;" horiz-adv-x="550" 
d="M281 210h-13l-123 -210h-128l154 252l-142 238h127l111 -192h16l111 192h127l-143 -238l155 -252h-129z" />
    <glyph glyph-name="uni0447" unicode="&#x447;" horiz-adv-x="550" 
d="M480 490l-2 -490h-119v191c-61 -20 -132 -30 -175 -30c-91 0 -136 35 -136 110v219h120v-179c0 -41 15 -55 57 -55s82 6 134 26v208h121z" />
    <glyph glyph-name="uni0446" unicode="&#x446;" horiz-adv-x="611" 
d="M582 93v-236h-80l-11 143h-421v490h120v-397h199v397h121l-1 -397h73z" />
    <glyph glyph-name="uni0448" unicode="&#x448;" horiz-adv-x="822" 
d="M752 490v-490h-682v490h117v-397h170v397h108v-397h170v397h117z" />
    <glyph glyph-name="uni0449" unicode="&#x449;" horiz-adv-x="854" 
d="M825 93v-236h-80l-11 143h-664v490h117v-397h170v397h107v-397h171v397h117v-397h73z" />
    <glyph glyph-name="uni045F" unicode="&#x45f;" horiz-adv-x="590" 
d="M520 490v-490h-176l-9 -164h-81l-9 164h-175v490h120l2 -397h207l1 397h120z" />
    <glyph glyph-name="uni044C" unicode="&#x44c;" horiz-adv-x="526" 
d="M187 314h91c162 0 212 -38 212 -161c0 -124 -57 -159 -191 -159c-104 0 -158 1 -225 6h-4v490h117v-176zM187 85h91c67 0 89 13 89 73c0 55 -18 72 -89 72h-91v-145z" />
    <glyph glyph-name="uni044A" unicode="&#x44a;" horiz-adv-x="641" 
d="M306 314h88c162 0 211 -38 211 -161c0 -124 -57 -159 -191 -159c-104 0 -157 1 -225 6v398h-167v92h284v-176zM306 85h88c67 0 89 13 89 73c0 55 -18 72 -89 72h-88v-145z" />
    <glyph glyph-name="uni044B" unicode="&#x44b;" horiz-adv-x="753" 
d="M187 314h91c161 0 211 -38 211 -161c0 -124 -57 -159 -191 -159c-103 0 -157 1 -224 6h-4v490h117v-176zM682 490v-490h-121v490h121zM187 85h91c67 0 89 13 89 73c0 55 -19 72 -89 72h-91v-145z" />
    <glyph glyph-name="uni0459" unicode="&#x459;" horiz-adv-x="819" 
d="M483 313h90c160 0 210 -38 210 -160c0 -124 -57 -159 -191 -159c-102 0 -154 1 -222 6h-1v404h-59c-36 0 -49 -11 -52 -44c-14 -117 -25 -192 -47 -254c-30 -88 -102 -119 -178 -110l-9 82c28 8 61 17 80 60c24 50 31 114 45 244c8 71 49 108 125 108h209v-177zM483 84
h90c67 0 89 13 89 74c0 55 -19 72 -89 72h-90v-146z" />
    <glyph glyph-name="uni045A" unicode="&#x45a;" horiz-adv-x="822" 
d="M486 310h91c160 0 209 -37 209 -157c0 -124 -56 -159 -189 -159c-102 0 -156 1 -224 6h-1v227h-190v-227h-112v490h112v-180h190v180h114v-180zM486 84h91c66 0 88 13 88 73c0 54 -18 71 -88 71h-91v-144z" />
    <glyph glyph-name="uni0454" unicode="&#x454;" horiz-adv-x="522" 
d="M474 94l11 -82c-53 -17 -104 -23 -184 -23c-186 0 -253 67 -253 254c0 191 67 256 253 256c80 0 125 -4 179 -21l-11 -81c-55 2 -97 3 -168 3c-86 1 -121 -22 -129 -108h246v-84h-247c6 -96 40 -119 130 -119c76 0 122 1 173 5z" />
    <glyph glyph-name="uni044D" unicode="&#x44d;" horiz-adv-x="522" 
d="M220 499c187 0 254 -65 254 -256c0 -187 -67 -254 -254 -254c-81 0 -131 6 -183 23l10 82c52 -4 97 -5 173 -5c93 0 125 23 130 119h-246v84h245c-8 86 -43 109 -129 108c-71 0 -112 -1 -168 -3l-11 81c54 17 100 21 179 21z" />
    <glyph glyph-name="uni044E" unicode="&#x44e;" horiz-adv-x="815" 
d="M526 504c176 0 240 -55 240 -259c0 -198 -64 -254 -240 -254c-159 0 -221 49 -228 216h-107v-207h-121v490h121v-193h108c10 162 72 207 227 207zM523 89c91 0 117 35 118 158c-1 123 -27 157 -118 157c-88 0 -112 -34 -112 -157s24 -158 112 -158z" />
    <glyph glyph-name="uni044F" unicode="&#x44f;" horiz-adv-x="555" 
d="M258 498c118 0 166 -1 228 -7v-491h-119v173h-110c-38 0 -60 -14 -66 -42l-35 -131h-125l43 150c12 43 61 56 94 60v4c-80 15 -108 59 -108 134c0 104 43 150 198 150zM367 258v147h-107c-70 0 -82 -14 -82 -72c0 -57 12 -75 82 -75h107z" />
    <glyph glyph-name="uni0452" unicode="&#x452;" horiz-adv-x="597" 
d="M413 408c90 0 136 -46 137 -135v-264c0 -86 -43 -166 -111 -209l-67 53c41 49 56 93 56 155v229c0 48 -17 65 -70 65c-43 0 -82 -15 -143 -47v-255h-121v485h-71v64h71v151h121v-151h173v-64h-173v-60c0 -31 -2 -62 -6 -88c69 48 138 71 204 71z" />
    <glyph glyph-name="uni0455" unicode="&#x455;" horiz-adv-x="520" 
d="M245 504c67 -1 156 -8 217 -18l-9 -84c-63 2 -126 4 -187 4c-82 0 -104 -1 -104 -42c0 -39 21 -40 67 -53l131 -36c81 -23 118 -55 118 -141c0 -120 -67 -145 -219 -145c-33 0 -116 1 -205 16l7 85c40 -3 105 -4 168 -4c104 0 131 8 131 47c0 37 -25 40 -72 53l-129 35
c-86 25 -114 66 -114 144c0 108 56 139 200 139z" />
    <glyph glyph-name="uni0456" unicode="&#x456;" horiz-adv-x="269" 
d="M107 703h56c23 0 35 -13 35 -35v-55c0 -23 -12 -35 -35 -35h-56c-24 0 -35 12 -35 35v55c0 22 11 35 35 35zM195 0h-121v490h121v-490z" />
    <glyph glyph-name="uni0457" unicode="&#x457;" horiz-adv-x="269" 
d="M25 699h40c20 0 30 -12 30 -31v-55c0 -21 -10 -30 -30 -30h-40c-20 0 -29 9 -29 30v55c0 19 9 31 29 31zM204 699h40c19 0 30 -12 30 -31v-55c0 -21 -11 -30 -30 -30h-40c-20 0 -30 9 -30 30v55c0 19 10 31 30 31zM195 0h-121v490h121v-490z" />
    <glyph glyph-name="uni0458" unicode="&#x458;" horiz-adv-x="270" 
d="M107 704h56c24 0 35 -13 35 -35v-54c0 -24 -11 -35 -35 -35h-56c-24 0 -35 11 -35 35v54c0 22 11 35 35 35zM196 490v-481c0 -86 -42 -166 -112 -209l-67 53c41 49 57 94 57 156v481h122z" />
    <glyph glyph-name="uni045B" unicode="&#x45b;" horiz-adv-x="597" 
d="M413 408c90 0 137 -46 137 -135v-273h-122v237c0 49 -17 65 -70 65c-43 0 -82 -15 -143 -47v-255h-121v485h-71v64h71v151h121v-151h173v-64h-173v-60c0 -31 -2 -62 -6 -88c69 48 138 71 204 71z" />
    <glyph glyph-name="uni04B1" unicode="&#x4b1;" horiz-adv-x="600" 
d="M387 87h119v-75h-143v-207h-125v207h-144v75h119l-202 403h131l126 -264c12 -25 20 -56 28 -83h9c7 27 15 58 27 84l126 263h131z" />
    <glyph glyph-name="uni04B7" unicode="&#x4b7;" horiz-adv-x="581" 
d="M552 93v-236h-81l-10 143h-103v190c-61 -19 -131 -29 -174 -29c-91 0 -136 35 -136 110v219h120v-179c0 -41 15 -55 56 -55c43 0 82 6 134 26v208h121l-1 -397h74z" />
    <glyph glyph-name="Delta" unicode="&#x394;" horiz-adv-x="641" 
d="M620 46v-46h-600v46l238 644h125zM321 570c-8 -29 -14 -58 -23 -86l-134 -386h311l-132 387c-10 27 -15 57 -22 85z" />
    <glyph glyph-name="Omega" unicode="&#x3a9;" horiz-adv-x="719" 
d="M360 703c209 0 290 -107 290 -323c0 -139 -39 -211 -138 -284c25 7 45 11 68 11h89l1 -107h-265l-1 101c87 66 116 135 116 263c0 170 -43 233 -161 233c-120 0 -160 -63 -160 -235c0 -139 33 -194 115 -261v-101h-265v107h90c22 0 43 -3 68 -11
c-99 76 -139 150 -138 286c0 214 80 321 291 321z" />
    <glyph glyph-name="mu" unicode="&#x3bc;" horiz-adv-x="608" 
d="M527 490v-490h-95l-11 71c-44 -39 -107 -84 -187 -84c-20 0 -39 3 -56 8c4 -19 6 -39 6 -58v-132h-106v685h122v-331c-1 -42 21 -60 69 -60c42 0 79 13 136 42v349h122z" />
    <glyph glyph-name="pi" unicode="&#x3c0;" horiz-adv-x="645" 
d="M620 398h-84v-398h-121v398h-185v-398h-121v398h-85v93h597z" />
    <glyph glyph-name="zero" unicode="0" horiz-adv-x="617" 
d="M308 703c188 0 253 -100 253 -358s-65 -358 -253 -358s-252 100 -252 358s64 358 252 358zM307 598c-98 0 -129 -60 -129 -253s31 -253 129 -253c101 0 132 60 132 253s-31 253 -132 253z" />
    <glyph glyph-name="one" unicode="1" horiz-adv-x="414" 
d="M312 0h-125v509c0 23 1 45 5 68l-162 -46l-15 89l172 70h125v-690z" />
    <glyph glyph-name="two" unicode="2" horiz-adv-x="569" 
d="M277 702c136 0 221 -27 221 -156c0 -82 -24 -138 -115 -237l-183 -197c34 5 73 6 107 6h213v-118h-470v75c0 21 4 37 18 52l180 199c83 88 125 154 124 210c-2 51 -39 57 -108 57c-66 0 -114 -2 -202 -12l-7 96c96 21 156 25 222 25z" />
    <glyph glyph-name="three" unicode="3" horiz-adv-x="561" 
d="M265 703c154 0 219 -38 219 -160c0 -92 -21 -159 -101 -174v-4c90 -15 117 -75 119 -173c2 -142 -58 -205 -227 -205c-78 0 -156 8 -229 18l6 98c75 -5 128 -8 190 -8c101 0 136 25 136 112c0 70 -20 108 -117 107h-128v93h128c95 0 104 45 104 105c-1 75 -29 84 -120 84
c-67 0 -132 -2 -180 -6l-6 95c71 12 138 18 206 18z" />
    <glyph glyph-name="four" unicode="4" horiz-adv-x="627" 
d="M590 253v-84l-87 -13h-2v-156h-118v156h-271c-62 0 -97 60 -73 116l184 418h121l-175 -401c-11 -25 1 -36 22 -36h192v192l21 112h97v-304h89z" />
    <glyph glyph-name="five" unicode="5" horiz-adv-x="544" 
d="M471 587h-284l-8 -147l87 -10c172 -17 230 -86 229 -221c0 -113 -41 -221 -231 -221c-60 0 -141 8 -220 23l13 101c63 -10 129 -15 176 -15c114 0 137 36 139 113c3 105 -46 111 -191 124l-66 7c-27 2 -45 23 -43 50l16 299h387z" />
    <glyph glyph-name="six" unicode="6" horiz-adv-x="579" 
d="M340 454c148 0 193 -61 193 -223c0 -149 -37 -243 -230 -243c-201 0 -245 76 -245 349c0 316 92 365 278 365c30 0 91 0 152 -17l-8 -87c-48 2 -77 2 -144 2c-108 0 -148 -28 -155 -204c44 44 89 58 159 58zM304 90c99 0 110 48 110 140c0 94 -22 127 -109 127
c-46 0 -78 -11 -125 -46c1 -177 10 -221 124 -221z" />
    <glyph glyph-name="seven" unicode="7" horiz-adv-x="519" 
d="M32 690h402c46 0 69 -30 55 -72l-211 -618h-124l182 526c6 20 14 40 26 59h-324z" />
    <glyph glyph-name="eight" unicode="8" horiz-adv-x="610" 
d="M305 701c186 0 230 -56 230 -183c0 -84 -29 -150 -100 -158v-4c90 -9 116 -82 116 -184c0 -126 -47 -182 -246 -184c-195 -1 -245 58 -245 184c0 102 25 175 115 184v4c-71 8 -99 74 -99 158c0 127 45 183 229 183zM306 606c-95 0 -117 -24 -117 -101
c0 -79 23 -100 118 -100c97 0 114 22 114 100c0 77 -20 101 -115 101zM307 311c-105 -1 -129 -25 -129 -112c0 -83 24 -108 128 -108c103 0 126 25 126 108c0 89 -23 112 -125 112z" />
    <glyph glyph-name="nine" unicode="9" horiz-adv-x="579" 
d="M280 702c206 0 240 -80 240 -349c-1 -307 -77 -365 -277 -365c-34 0 -97 0 -165 17l9 88c52 -3 79 -3 155 -3c114 0 151 44 157 208c-45 -47 -90 -62 -162 -62c-145 0 -189 98 -189 223c-1 166 59 243 232 243zM273 332c46 0 78 12 127 49c-1 175 -10 219 -121 219
c-97 0 -114 -47 -113 -140c-1 -85 22 -128 107 -128z" />
    <glyph glyph-name="fraction" unicode="&#x2044;" horiz-adv-x="160" 
d="M-93 0h-82l428 690h82z" />
    <glyph glyph-name="onehalf" unicode="&#xbd;" horiz-adv-x="900" 
d="M236 276h-93v288c0 15 1 30 4 45l-106 -24l-11 63l113 42h93v-414zM219 0h-82l429 690h81zM681 421c106 0 160 -17 160 -102c0 -39 -25 -82 -76 -132l-114 -108c23 4 40 4 64 4l141 -1l-1 -82h-323v51c0 16 3 28 14 39l112 106c50 47 78 83 81 113c2 29 -23 33 -65 33
c-44 0 -75 -1 -134 -5l-4 70c64 12 113 14 145 14z" />
    <glyph glyph-name="onequarter" unicode="&#xbc;" horiz-adv-x="881" 
d="M143 276v288c0 15 1 30 4 45l-106 -24l-11 63l113 42h93v-414h-93zM655 690l-428 -690h-82l428 690h82zM845 97l-49 -7v-90h-87v89h-182c-35 0 -63 26 -43 70l117 255h88l-108 -237c-4 -10 2 -18 16 -18h112v109l15 66h72v-175h49v-62z" />
    <glyph glyph-name="threequarters" unicode="&#xbe;" horiz-adv-x="970" 
d="M361 389c1 -87 -41 -123 -157 -123c-52 0 -106 5 -155 11l4 69c52 -3 84 -4 126 -4c66 0 86 14 86 59c0 31 -11 54 -73 54l-85 2v62l85 3c61 0 66 26 66 53c0 36 -16 45 -75 45c-45 0 -89 -1 -122 -3l-4 68c49 7 96 10 142 10c113 0 150 -23 150 -95
c0 -58 -14 -96 -76 -105v-2c67 -9 87 -43 88 -104zM752 690l-429 -690h-81l428 690h82zM934 97l-48 -7v-90h-87v89h-182c-35 0 -64 26 -43 70l117 255h88l-108 -237c-5 -10 2 -18 15 -18h113v109l15 66h72v-175h48v-62z" />
    <glyph glyph-name="onesuperior" unicode="&#xb9;" horiz-adv-x="300" 
d="M233 360h-94v288c0 15 0 30 4 45l-106 -24l-11 63l113 42h94v-414z" />
    <glyph glyph-name="twosuperior" unicode="&#xb2;" horiz-adv-x="433" 
d="M204 781c106 0 159 -17 159 -102c0 -39 -24 -82 -76 -132l-114 -108c23 4 40 4 64 4l142 -1l-1 -82h-324v51c0 16 3 28 15 39l112 106c50 47 78 83 80 113c3 29 -23 33 -65 33c-43 0 -75 -1 -134 -5l-4 70c65 12 113 14 146 14z" />
    <glyph glyph-name="threesuperior" unicode="&#xb3;" horiz-adv-x="414" 
d="M202 782c113 0 151 -23 151 -96c0 -57 -15 -96 -77 -105v-2c67 -9 87 -43 88 -104c2 -87 -40 -123 -157 -123c-53 0 -106 5 -155 11l4 69c52 -3 84 -4 127 -4c66 0 86 14 86 60c0 30 -12 53 -74 53h-85v67h85c61 0 67 27 67 54c0 35 -16 44 -75 44c-46 0 -90 -1 -123 -2
l-4 67c48 7 95 11 142 11z" />
    <glyph glyph-name="asterisk" unicode="*" horiz-adv-x="450" 
d="M249 527l104 -129l-55 -41l-73 122l-73 -121l-56 40l104 128l-10 165h70zM183 560l-1 -30l-14 -19l-124 31l22 65zM406 541l-123 -30l-16 19v30l117 47z" />
    <glyph glyph-name="backslash" unicode="\" horiz-adv-x="535" 
d="M513 -69h-98l-393 759h98z" />
    <glyph glyph-name="bullet" unicode="&#x2022;" horiz-adv-x="369" 
d="M180 371h13c71 0 95 -24 95 -94v-14c0 -75 -24 -99 -95 -99h-13c-75 0 -99 24 -99 99v14c0 70 24 94 99 94z" />
    <glyph glyph-name="colon" unicode=":" horiz-adv-x="251" 
d="M103 446h36c33 0 44 -11 44 -43v-51c0 -32 -11 -43 -44 -43h-36c-33 0 -44 11 -44 43v51c0 32 11 43 44 43zM103 137h36c33 0 44 -10 44 -43v-50c0 -33 -11 -44 -44 -44h-36c-33 0 -44 11 -44 44v50c0 33 11 43 44 43z" />
    <glyph glyph-name="comma" unicode="," horiz-adv-x="238" 
d="M103 137h33c32 0 42 -11 41 -43l1 -64c-1 -70 -17 -122 -44 -170l-55 15c9 42 13 77 13 125c-22 0 -34 14 -34 38v56c2 32 14 43 45 43z" />
    <glyph glyph-name="ellipsis" unicode="&#x2026;" horiz-adv-x="880" 
d="M97 137h37c32 0 43 -11 43 -43v-51c0 -32 -11 -43 -43 -43h-37c-32 0 -43 11 -43 43v51c0 32 11 43 43 43zM417 137h37c32 0 43 -11 43 -43v-51c0 -32 -11 -43 -43 -43h-37c-32 0 -43 11 -43 43v51c0 32 11 43 43 43zM737 137h37c32 0 43 -11 43 -43v-51
c0 -32 -11 -43 -43 -43h-37c-32 0 -43 11 -43 43v51c0 32 11 43 43 43z" />
    <glyph glyph-name="exclam" unicode="!" horiz-adv-x="287" 
d="M204 410l-13 -194h-95l-13 194v285h121v-285zM130 137h29c32 0 43 -11 43 -43v-51c0 -32 -11 -43 -43 -43h-29c-33 0 -44 11 -44 43v51c0 32 11 43 44 43z" />
    <glyph glyph-name="exclamdown" unicode="&#xa1;" horiz-adv-x="271" 
d="M122 501h29c32 0 43 -11 43 -43v-52c0 -32 -11 -42 -43 -42h-29c-33 0 -44 10 -44 42v52c0 32 11 43 44 43zM196 91v-281h-121v281l13 194h95z" />
    <glyph glyph-name="numbersign" unicode="#" horiz-adv-x="698" 
d="M537 435l-28 -157h110l-15 -74h-108l-35 -204h-93l35 204h-158l-35 -204h-93l35 204h-116l14 74h115l28 157h-115l14 75h114l31 180h93l-31 -180h158l31 180h93l-31 -180h111l-15 -75h-109zM444 435h-158l-28 -157h158z" />
    <glyph glyph-name="period" unicode="." horiz-adv-x="240" 
d="M102 137h36c33 0 44 -11 44 -43v-51c0 -32 -11 -43 -44 -43h-36c-33 0 -44 11 -44 43v51c0 32 11 43 44 43z" />
    <glyph glyph-name="periodcentered" unicode="&#xb7;" horiz-adv-x="249" 
d="M106 327h37c32 0 43 -11 43 -44v-50c0 -33 -11 -44 -43 -44h-37c-32 0 -43 11 -43 44v50c0 33 11 44 43 44z" />
    <glyph glyph-name="question" unicode="?" horiz-adv-x="508" 
d="M265 712c140 0 208 -49 208 -155c0 -148 -169 -171 -179 -341h-101c-5 179 147 226 152 318c3 53 -29 77 -107 77c-100 0 -131 -3 -199 -7l-5 85c73 13 107 23 231 23zM229 137h29c33 0 44 -11 44 -43v-51c0 -32 -11 -43 -44 -43h-29c-33 0 -44 11 -44 43v51
c0 32 11 43 44 43z" />
    <glyph glyph-name="questiondown" unicode="&#xbf;" horiz-adv-x="503" 
d="M250 505h28c33 0 44 -11 44 -43v-52c0 -32 -11 -43 -44 -43h-28c-33 0 -44 11 -44 43v52c0 32 11 43 44 43zM213 289h100c6 -180 -147 -226 -152 -319c-3 -52 29 -76 108 -76c99 0 130 3 198 7l5 -85c-73 -14 -107 -23 -231 -23c-139 0 -208 49 -208 155
c0 148 170 171 180 341z" />
    <glyph glyph-name="quotedbl" unicode="&#x22;" horiz-adv-x="367" 
d="M146 472h-79l-7 218h94zM300 472h-78l-8 218h94z" />
    <glyph glyph-name="quotesingle" unicode="'" horiz-adv-x="213" 
d="M146 472h-79l-7 218h94z" />
    <glyph glyph-name="semicolon" unicode=";" horiz-adv-x="252" 
d="M109 446h37c32 0 43 -11 43 -43v-51c0 -32 -11 -43 -43 -43h-37c-32 0 -43 11 -43 43v51c0 32 11 43 43 43zM111 137h32c32 0 43 -11 42 -43l1 -64c-1 -70 -18 -122 -45 -170l-54 15c9 42 12 77 13 125c-22 0 -34 14 -35 38l1 56c2 32 13 43 45 43z" />
    <glyph glyph-name="slash" unicode="/" horiz-adv-x="534" 
d="M119 -69h-97l393 759h97z" />
    <glyph glyph-name="underscore" unicode="_" 
d="M505 -86h-442v86h442v-86z" />
    <glyph glyph-name="braceleft" unicode="{" horiz-adv-x="331" 
d="M292 768v-75c-64 0 -82 -17 -82 -72v-163c1 -83 -20 -116 -97 -130c79 -23 100 -56 101 -126v-221c0 -55 18 -71 82 -71v-75c-141 -15 -198 40 -198 136v247c0 49 -17 53 -59 69v82c45 14 55 14 55 73v190c0 96 57 151 198 136z" />
    <glyph glyph-name="braceright" unicode="}" horiz-adv-x="332" 
d="M40 693v75c141 15 198 -40 198 -136v-190c0 -59 10 -59 55 -73v-82c-42 -16 -59 -20 -59 -69v-247c0 -96 -57 -151 -198 -136v75c64 0 82 16 82 71v221c1 70 22 103 101 126c-77 14 -98 47 -97 130v163c0 55 -18 72 -82 72z" />
    <glyph glyph-name="bracketleft" unicode="[" horiz-adv-x="339" 
d="M303 691h-90c-9 0 -17 -7 -17 -18v-743c0 -11 8 -18 17 -18h90v-77h-153c-39 0 -67 18 -67 67v799c0 39 28 67 67 67h153v-77z" />
    <glyph glyph-name="bracketright" unicode="]" horiz-adv-x="339" 
d="M36 768h152c40 0 68 -28 68 -67v-799c0 -39 -28 -67 -68 -67h-152v77h89c10 0 17 7 17 18v743c0 11 -7 18 -17 18h-89v77z" />
    <glyph glyph-name="parenleft" unicode="(" horiz-adv-x="362" 
d="M324 790l14 -54c-125 -59 -175 -203 -175 -423c0 -216 50 -361 175 -424l-14 -54c-192 67 -279 217 -279 477c0 262 87 412 279 478z" />
    <glyph glyph-name="parenright" unicode=")" horiz-adv-x="362" 
d="M24 736l15 54c192 -66 279 -216 279 -478c0 -260 -87 -410 -279 -477l-15 54c125 63 175 208 175 424c0 220 -50 364 -175 423z" />
    <glyph glyph-name="emdash" unicode="&#x2014;" horiz-adv-x="874" 
d="M810 211h-746v86h746v-86z" />
    <glyph glyph-name="endash" unicode="&#x2013;" horiz-adv-x="574" 
d="M510 211h-446v86h446v-86z" />
    <glyph glyph-name="hyphen" unicode="-" horiz-adv-x="428" 
d="M364 211h-300v86h300v-86z" />
    <glyph glyph-name="softhyphen" unicode="&#xad;" horiz-adv-x="428" 
d="M365 211h-301v86h301v-86z" />
    <glyph glyph-name="guillemotleft" unicode="&#xab;" horiz-adv-x="504" 
d="M262 421l-114 -170l115 -174l-64 -41l-160 202v26l159 198zM458 421l-114 -170l115 -174l-64 -41l-160 202v26l159 198z" />
    <glyph glyph-name="guillemotright" unicode="&#xbb;" horiz-adv-x="504" 
d="M269 264v-26l-160 -202l-64 41l115 174l-114 170l64 41zM465 264v-26l-160 -202l-64 41l115 174l-114 170l64 41z" />
    <glyph glyph-name="guilsinglleft" unicode="&#x2039;" horiz-adv-x="308" 
d="M262 421l-114 -170l115 -174l-64 -41l-160 202v26l159 198z" />
    <glyph glyph-name="guilsinglright" unicode="&#x203a;" horiz-adv-x="310" 
d="M270 264v-26l-161 -202l-64 41l115 174l-114 170l64 41z" />
    <glyph glyph-name="quotedblbase" unicode="&#x201e;" horiz-adv-x="406" 
d="M103 124h32c31 0 41 -10 41 -40l1 -58c-1 -63 -17 -111 -44 -155l-54 14c9 38 12 71 13 114c-22 0 -34 13 -34 34v51c2 30 14 40 45 40zM274 124h32c32 0 42 -10 41 -40l1 -58c-1 -63 -17 -111 -44 -155l-54 14c9 38 13 71 13 114c-22 0 -34 13 -34 34l1 51
c1 30 13 40 44 40z" />
    <glyph glyph-name="quotedblleft" unicode="&#x201c;" horiz-adv-x="395" 
d="M128 474h-32c-32 0 -42 10 -41 39l-1 58c1 64 17 111 44 155l54 -14c-9 -38 -13 -70 -13 -113c22 0 34 -13 34 -35l-1 -51c-2 -29 -13 -39 -44 -39zM299 474h-32c-31 0 -42 10 -41 39l-1 58c1 64 17 111 44 155l54 -14c-9 -38 -13 -70 -13 -113c22 0 34 -13 34 -35v-51
c-2 -29 -14 -39 -45 -39z" />
    <glyph glyph-name="quotedblright" unicode="&#x201d;" horiz-adv-x="392" 
d="M95 719h32c31 0 41 -10 41 -39l1 -58c-1 -64 -17 -111 -44 -155l-54 14c9 38 12 70 13 113c-22 0 -34 13 -34 35v51c2 29 14 39 45 39zM266 719h32c32 0 42 -10 41 -39l1 -58c-1 -64 -17 -111 -44 -155l-54 14c9 38 13 70 13 113c-22 0 -34 13 -34 35l1 51
c1 29 13 39 44 39z" />
    <glyph glyph-name="quoteleft" unicode="&#x2018;" horiz-adv-x="224" 
d="M128 474h-32c-32 0 -42 10 -41 39l-1 58c1 64 17 111 44 155l54 -14c-9 -38 -13 -70 -13 -113c22 0 34 -13 34 -35l-1 -51c-2 -29 -13 -39 -44 -39z" />
    <glyph glyph-name="quoteright" unicode="&#x2019;" horiz-adv-x="221" 
d="M95 719h32c31 0 41 -10 41 -39l1 -58c-1 -64 -17 -111 -44 -155l-54 14c9 38 12 70 13 113c-22 0 -34 13 -34 35v51c2 29 14 39 45 39z" />
    <glyph glyph-name="quotesinglbase" unicode="&#x201a;" horiz-adv-x="235" 
d="M103 127h32c31 0 42 -10 41 -40l1 -59c-1 -64 -17 -112 -44 -156l-54 14c9 38 13 71 13 115c-22 0 -34 13 -34 35v51c2 30 14 40 45 40z" />
    <glyph glyph-name="space" unicode=" " horiz-adv-x="220" 
 />
    <glyph glyph-name="uni00A0" unicode="&#xa0;" horiz-adv-x="220" 
 />
    <glyph glyph-name="florin" unicode="&#x192;" horiz-adv-x="464" 
d="M435 606h-71c-49 0 -70 -12 -74 -68l-13 -134h129l-8 -89h-129l-30 -322c-8 -92 -51 -149 -161 -149c-27 0 -85 3 -116 9l16 87h65c51 0 71 18 76 68l28 307h-98l6 85l100 4l14 149c8 92 60 148 165 148c28 0 86 -2 118 -8z" />
    <glyph glyph-name="cent" unicode="&#xa2;" horiz-adv-x="513" 
d="M453 199l12 -78c-47 -19 -105 -28 -163 -30l-9 -91h-54l9 92c-148 9 -203 80 -203 257c0 188 65 258 241 258h13l9 83h54l-8 -87c35 -4 72 -12 103 -24l-14 -78c-35 3 -70 5 -100 5l-30 -316c33 0 91 2 140 9zM165 349c0 -105 24 -145 94 -156l29 314
c-92 -4 -123 -42 -123 -158z" />
    <glyph glyph-name="currency" unicode="&#xa4;" horiz-adv-x="589" 
d="M493 351c0 -42 -13 -81 -35 -113l73 -71l-52 -52l-72 72c-32 -22 -71 -35 -113 -35s-81 13 -113 35l-70 -71l-55 55l71 71c-21 31 -33 69 -33 109c0 43 13 82 36 114l-71 70l52 52l69 -71c33 22 72 35 114 35c43 0 82 -13 114 -36l72 72l51 -52l-72 -71
c21 -32 34 -71 34 -113zM294 223c69 -1 127 57 127 129s-58 129 -127 129c-71 0 -129 -57 -129 -129s58 -130 129 -129z" />
    <glyph glyph-name="dollar" unicode="$" horiz-adv-x="570" 
d="M326 400l59 -18c108 -35 141 -100 141 -201c0 -157 -67 -193 -244 -193h-2l-9 -110h-55l10 111c-44 2 -102 8 -168 21l8 95l170 -4l17 196l-64 20c-102 33 -139 97 -139 200c0 158 71 185 236 185h12l8 94h54l-8 -96c49 -2 100 -8 150 -21l-8 -89c-43 1 -98 3 -151 4z
M175 515c0 -61 24 -75 78 -92l19 -6l16 177c-82 0 -113 -6 -113 -79zM306 280l-16 -179c86 1 110 16 110 81c0 63 -23 75 -73 91z" />
    <glyph glyph-name="Euro" unicode="&#x20ac;" horiz-adv-x="636" 
d="M581 108l11 -94c-47 -15 -103 -26 -184 -26c-186 0 -266 87 -285 264h-79v69h75v24c0 12 0 24 1 35h-75v70h80c21 169 101 252 283 252c75 0 124 -9 170 -22l-11 -95c-35 6 -108 13 -167 7c-84 -5 -126 -49 -142 -142h236l-8 -70h-235l-1 -37v-22h211l-7 -69h-199
c14 -102 56 -150 145 -154c55 -4 127 0 181 10z" />
    <glyph glyph-name="sterling" unicode="&#xa3;" horiz-adv-x="577" 
d="M531 105v-105h-476v105c70 31 82 95 77 170l-3 55h-77l-1 67h73l-7 121c-8 155 64 184 198 184c41 0 117 -3 194 -10l-7 -98c-47 2 -67 3 -177 3c-66 0 -90 -16 -85 -83l8 -117h192l-4 -67h-184l4 -55c6 -93 -20 -133 -71 -176c24 6 47 6 71 6h275z" />
    <glyph glyph-name="yen" unicode="&#xa5;" horiz-adv-x="635" 
d="M424 333h125v-68h-160l-8 -16v-32h168v-67h-168v-150h-125v150h-164l-1 67h165v32l-8 16h-156l-2 68h122l-184 357h130l127 -259c12 -25 20 -56 29 -83h9c8 27 18 58 29 84l126 258h129z" />
    <glyph glyph-name="approxequal" unicode="&#x2248;" horiz-adv-x="584" 
d="M177 456c61 -3 158 -50 221 -53c31 -2 37 9 37 48h79c16 -91 -22 -139 -109 -136c-64 1 -159 51 -220 54c-31 1 -37 -11 -37 -50h-78c-18 100 32 141 107 137zM177 263c61 -3 158 -50 221 -54c31 -1 37 10 37 49h79c16 -91 -22 -138 -109 -136c-64 1 -159 50 -220 53
c-31 2 -37 -10 -37 -50h-78c-18 101 32 142 107 138z" />
    <glyph glyph-name="asciitilde" unicode="~" horiz-adv-x="519" 
d="M148 357c62 -3 155 -48 205 -53c33 -5 39 10 39 48h59c13 -92 -24 -137 -79 -134c-68 2 -156 47 -206 53c-33 4 -38 -11 -38 -50h-59c-13 95 27 138 79 136z" />
    <glyph glyph-name="divide" unicode="&#xf7;" horiz-adv-x="560" 
d="M264 539h30c33 0 44 -11 44 -44v-41c0 -33 -11 -43 -44 -43h-30c-33 0 -44 10 -44 43v41c0 33 11 44 44 44zM505 250h-450v88h450v-88zM264 176h30c33 0 44 -11 44 -44v-40c0 -33 -11 -44 -44 -44h-30c-33 0 -44 11 -44 44v40c0 33 11 44 44 44z" />
    <glyph glyph-name="emptyset" unicode="&#x2205;" horiz-adv-x="685" 
d="M343 633c161 0 292 -131 292 -292c0 -162 -131 -293 -292 -293c-162 0 -293 131 -293 293c0 161 131 292 293 292zM343 545c-66 0 -83 -5 -122 -11l3 -45c40 6 58 9 119 9c42 0 66 -17 66 -46c0 -65 -97 -96 -97 -211h54c0 105 94 120 94 211c0 63 -41 93 -117 93z
M359 171h-39c-4 0 -7 -3 -7 -8v-37c0 -4 3 -7 7 -7h39c5 0 8 3 8 7v37c0 5 -3 8 -8 8z" />
    <glyph glyph-name="equal" unicode="=" horiz-adv-x="582" 
d="M516 357h-450v88h450v-88zM516 145h-450v88h450v-88z" />
    <glyph glyph-name="greater" unicode="&#x3e;" horiz-adv-x="523" 
d="M477 347v-95l-414 -167v95l311 120l-311 120v96z" />
    <glyph glyph-name="greaterequal" unicode="&#x2265;" horiz-adv-x="558" 
d="M488 418v-95l-418 -127v95l314 79l-314 85v96zM500 63h-436v90h436v-90z" />
    <glyph glyph-name="infinity" unicode="&#x221e;" horiz-adv-x="773" 
d="M579 450c76 0 143 -43 143 -140c0 -99 -70 -152 -156 -152c-76 0 -135 41 -178 85c-48 -45 -110 -85 -184 -85c-81 0 -153 53 -153 152c0 97 68 140 151 140c80 0 138 -41 185 -89c43 41 111 89 192 89zM224 242c48 0 79 26 111 61c-31 38 -57 63 -115 63
c-44 0 -69 -18 -69 -60c0 -43 26 -64 73 -64zM550 242c45 0 73 21 73 64c0 42 -26 60 -68 60c-58 0 -86 -32 -116 -67c23 -27 56 -57 111 -57z" />
    <glyph glyph-name="integral" unicode="&#x222b;" horiz-adv-x="363" 
d="M223 714c24 0 70 0 111 -4l-7 -87h-64c-38 0 -54 -15 -51 -64l46 -648c7 -89 -25 -133 -123 -133c-18 0 -85 1 -106 4l8 87h61c40 0 55 17 53 68l-46 644c-6 88 40 133 118 133z" />
    <glyph glyph-name="less" unicode="&#x3c;" horiz-adv-x="523" 
d="M460 420l-311 -120l311 -120v-95l-414 167v95l414 169v-96z" />
    <glyph glyph-name="lessequal" unicode="&#x2264;" horiz-adv-x="558" 
d="M489 455l-315 -85l315 -79v-95l-419 127v95l419 133v-96zM494 63h-435v90h435v-90z" />
    <glyph glyph-name="logicalnot" unicode="&#xac;" horiz-adv-x="587" 
d="M516 344v-210h-91v121h-360v89h451z" />
    <glyph glyph-name="minus" unicode="&#x2212;" horiz-adv-x="582" 
d="M516 250h-450v88h450v-88z" />
    <glyph glyph-name="multiply" unicode="&#xd7;" horiz-adv-x="486" 
d="M313 291l141 -127l-58 -70l-151 135l-150 -135l-59 70l141 127l-141 126l59 70l150 -135l151 135l58 -70z" />
    <glyph glyph-name="notequal" unicode="&#x2260;" horiz-adv-x="616" 
d="M353 357l-75 -124h255v-88h-308l-75 -123l-31 16l65 107h-102v88h155l75 124h-230v88h283l66 109l32 -16l-56 -93h126v-88h-180z" />
    <glyph glyph-name="partialdiff" unicode="&#x2202;" horiz-adv-x="579" 
d="M122 614v89c299 5 420 -56 406 -366c-11 -233 -84 -349 -260 -349c-182 0 -228 127 -222 244c6 118 69 222 212 221c55 -1 106 -17 148 -62c3 173 -49 223 -284 223zM271 92c100 0 123 90 132 227c-46 30 -83 36 -116 36c-85 0 -116 -51 -120 -124
c-5 -83 26 -139 104 -139z" />
    <glyph glyph-name="percent" unicode="%" horiz-adv-x="901" 
d="M206 703c124 0 167 -55 167 -205c0 -149 -43 -205 -167 -205s-167 56 -167 205c0 150 43 205 167 205zM276 0h-81l428 690h80zM205 631c-58 0 -75 -30 -75 -133c0 -104 17 -133 75 -133c59 0 77 29 77 133c0 103 -18 133 -77 133zM694 400c124 0 167 -56 167 -205
c0 -151 -43 -206 -167 -206c-123 0 -166 55 -166 206c0 149 43 205 166 205zM694 327c-59 0 -76 -27 -75 -132c-1 -105 16 -134 75 -134c58 0 76 29 76 134s-18 132 -76 132z" />
    <glyph glyph-name="perthousand" unicode="&#x2030;" horiz-adv-x="1283" 
d="M206 703c124 0 167 -55 167 -205c0 -149 -43 -205 -167 -205s-167 56 -167 205c0 150 43 205 167 205zM276 0h-81l428 690h80zM205 631c-58 0 -75 -28 -75 -133c0 -106 17 -133 75 -133c59 0 77 27 77 133c0 105 -18 133 -77 133zM694 400c124 0 167 -56 167 -205
c0 -151 -43 -206 -167 -206c-123 0 -166 55 -166 206c0 149 43 205 166 205zM1075 400c124 0 166 -56 166 -205c0 -151 -42 -206 -166 -206s-166 55 -166 206c0 149 42 205 166 205zM694 327c-59 0 -76 -27 -75 -132c-1 -105 16 -134 75 -134c58 0 76 29 76 134
s-18 132 -76 132zM1074 327c-58 0 -75 -27 -75 -132s17 -134 75 -134c60 0 77 29 77 134s-17 132 -77 132z" />
    <glyph glyph-name="plus" unicode="+" horiz-adv-x="546" 
d="M497 255h-179v-171h-91v171h-178v90h178v171h91v-171h179v-90z" />
    <glyph glyph-name="plusminus" unicode="&#xb1;" horiz-adv-x="581" 
d="M515 411v-90h-180v-125h-90v125h-179v90h179v126h91v-126h179zM66 145h449v-90h-449v90z" />
    <glyph glyph-name="product" unicode="&#x220f;" horiz-adv-x="718" 
d="M683 592h-94v-692h-121v692h-218v-692h-121v692h-94v98h648v-98z" />
    <glyph glyph-name="radical" unicode="&#x221a;" horiz-adv-x="574" 
d="M557 876l-237 -868c-2 -5 -7 -8 -13 -8h-143c-6 0 -12 3 -13 8l-125 482h99l104 -411h13l215 797h100z" />
    <glyph glyph-name="summation" unicode="&#x2211;" horiz-adv-x="595" 
d="M539 593h-346l153 -253l-167 -368h370v-97h-504v97l166 368l-154 253v97h482v-97z" />
    <glyph glyph-name="lozenge" unicode="&#x25ca;" horiz-adv-x="570" 
d="M294 691l246 -336c4 -7 4 -11 0 -18l-246 -338c-5 -7 -12 -7 -17 0l-247 338c-4 7 -4 11 0 18l247 336c5 7 12 7 17 0zM126 346l160 -228l158 228l-158 226z" />
    <glyph glyph-name="ampersand" unicode="&#x26;" horiz-adv-x="767" 
d="M713 92l13 -86c-32 -11 -88 -17 -118 -17c-65 0 -109 29 -124 78c-56 -57 -118 -78 -221 -78c-146 0 -205 47 -205 186c0 105 35 172 136 181v4c-84 8 -115 61 -115 161c0 160 76 180 264 180c42 0 101 -1 161 -11l-15 -91c-31 2 -97 3 -150 3c-102 0 -133 -13 -133 -100
c0 -79 26 -100 109 -100h166l9 114h102v-114h115v-91h-115v-162c0 -42 13 -57 54 -57h67zM190 198c0 -81 24 -104 107 -104c73 1 134 20 181 58v159h-170c-89 0 -118 -25 -118 -113z" />
    <glyph glyph-name="asciicircum" unicode="^" horiz-adv-x="447" 
d="M417 397l-48 -28l-141 169h-8l-142 -169l-48 28l150 219h88z" />
    <glyph glyph-name="at" unicode="@" horiz-adv-x="737" 
d="M363 594h147c104 0 163 -40 163 -156v-304h-90l-11 71c-34 -37 -103 -81 -183 -81c-78 0 -136 42 -136 125v49c0 66 40 107 119 107h187v30c0 50 -17 63 -73 63h-123c-164 0 -185 -8 -185 -231c0 -232 24 -234 224 -234h270v-86c-89 -7 -180 -11 -270 -11
c-304 -2 -338 39 -338 331c0 287 30 327 299 327zM559 337l-142 -4c-41 -2 -53 -14 -53 -47v-16c0 -41 19 -55 53 -55c45 0 104 17 142 54v68z" />
    <glyph glyph-name="bar" unicode="|" horiz-adv-x="254" 
d="M170 -169h-86v950h86v-950z" />
    <glyph glyph-name="brokenbar" unicode="&#xa6;" horiz-adv-x="256" 
d="M171 381h-86v400h86v-400zM171 -169h-86v400h86v-400z" />
    <glyph glyph-name="copyright" unicode="&#xa9;" horiz-adv-x="822" 
d="M411 703c201 0 360 -150 360 -358s-159 -358 -360 -358s-361 150 -361 358s160 358 361 358zM411 643c-163 0 -298 -126 -298 -298s135 -298 298 -298c164 0 297 126 297 298s-133 298 -297 298zM416 560c63 0 95 -4 135 -14l-8 -68c-43 2 -71 3 -128 3
c-78 0 -101 -31 -101 -134c0 -104 23 -134 101 -134c61 0 98 1 139 4l7 -67c-41 -11 -80 -16 -145 -16c-143 0 -195 56 -195 213c0 156 52 213 195 213z" />
    <glyph glyph-name="dagger" unicode="&#x2020;" horiz-adv-x="464" 
d="M285 -110h-106l6 529v66l-6 206h106l-6 -206v-66zM36 392v98h129v-86zM428 490v-98l-129 12v86h129z" />
    <glyph glyph-name="daggerdbl" unicode="&#x2021;" horiz-adv-x="502" 
d="M298 489v-397l6 -202h-106l6 202v397l-6 202h106zM184 404l-129 -12v98h129v-86zM447 392l-129 12v86h129v-98zM184 177v-86h-129v98zM447 91h-129v86l129 12v-98z" />
    <glyph glyph-name="degree" unicode="&#xb0;" horiz-adv-x="352" 
d="M176 703c72 0 133 -57 133 -129s-60 -132 -133 -132s-133 60 -133 132c0 71 59 129 133 129zM176 636c-35 0 -63 -25 -63 -62c0 -38 28 -64 63 -64c34 0 62 26 62 64c0 37 -27 62 -62 62z" />
    <glyph glyph-name="paragraph" unicode="&#xb6;" horiz-adv-x="596" 
d="M345 702c44 0 112 -4 162 -17v-685h-87v624c-26 2 -52 3 -73 3v-837h-85v411c-164 15 -229 86 -229 249c0 185 88 252 312 252z" />
    <glyph glyph-name="registered" unicode="&#xae;" horiz-adv-x="536" 
d="M269 702c123 0 222 -99 222 -222c0 -124 -99 -223 -222 -223c-124 0 -223 99 -223 223c0 123 99 222 223 222zM269 295c100 0 183 83 183 185c0 103 -83 185 -183 185c-102 0 -184 -82 -184 -185c0 -102 82 -185 184 -185zM323 476v-2c16 -2 33 -11 40 -38l26 -76h-56
l-23 74c-7 17 -17 23 -35 23h-53v-97h-53v244c34 3 56 3 107 3c73 0 103 -16 103 -71c0 -34 -14 -55 -56 -60zM222 494h53c39 1 51 9 50 37c1 30 -11 36 -50 36h-53v-73z" />
    <glyph glyph-name="section" unicode="&#xa7;" horiz-adv-x="548" 
d="M266 703c56 -1 153 -5 220 -12l-8 -92c-56 4 -89 5 -178 5c-72 1 -113 -1 -116 -44c-2 -40 24 -58 59 -77l146 -80c104 -54 116 -129 87 -242h-86c5 81 -9 117 -73 153l-162 93c-54 31 -100 65 -100 157c0 115 74 139 211 139zM73 372h86c-6 -83 7 -117 72 -153l162 -92
c54 -31 101 -66 101 -159c0 -120 -80 -140 -210 -140c-56 1 -149 4 -222 12l9 92c61 -4 104 -5 179 -6c72 0 113 3 114 47c3 40 -24 59 -57 76l-146 81c-104 53 -117 128 -88 242z" />
    <glyph glyph-name="trademark" unicode="&#x2122;" horiz-adv-x="973" 
d="M394 696v-69h-124v-311h-85v311h-125v69h334zM908 316h-78l-15 315h-10l-71 -237c-5 -18 -15 -27 -34 -27h-57c-19 0 -29 10 -34 27l-71 237h-10l-14 -315h-78l15 348c1 21 11 32 31 32h82c18 0 29 -10 34 -27l57 -192c5 -17 7 -36 12 -55h9c5 19 7 38 13 56l55 191
c5 18 16 27 34 27h84c20 0 31 -11 32 -32z" />
    <glyph glyph-name="acute" unicode="&#xb4;" horiz-adv-x="337" 
d="M302 642l-213 -112l-38 54l188 147z" />
    <glyph glyph-name="breve" unicode="&#x2d8;" horiz-adv-x="385" 
d="M292 702l59 -8c8 -81 -54 -143 -157 -143c-105 0 -167 62 -159 143l59 8c0 -42 33 -66 100 -66c64 0 98 24 98 66z" />
    <glyph glyph-name="caron" unicode="&#x2c7;" horiz-adv-x="436" 
d="M394 685l-149 -131h-52l-148 131l37 50l133 -81h8l132 81z" />
    <glyph glyph-name="cedilla" unicode="&#xb8;" horiz-adv-x="242" 
d="M71 -93l12 53c92 10 133 2 131 -65c-3 -94 -83 -143 -185 -130l17 59c48 -1 83 22 86 61c1 18 -10 22 -61 22z" />
    <glyph glyph-name="circumflex" unicode="&#x2c6;" horiz-adv-x="436" 
d="M395 586l-39 -49l-133 96h-8l-134 -96l-37 50l131 132h88z" />
    <glyph glyph-name="brevecy" horiz-adv-x="385" 
d="M265 698h86c8 -80 -53 -147 -157 -147c-105 0 -167 67 -159 147h86c-1 -56 24 -84 73 -84c47 0 72 28 71 84z" />
    <glyph glyph-name="dieresis" unicode="&#xa8;" horiz-adv-x="418" 
d="M100 703h41c20 0 29 -12 29 -31v-55c0 -21 -9 -30 -29 -30h-41c-20 0 -29 9 -29 30v55c0 19 9 31 29 31zM280 703h39c19 0 31 -12 31 -31v-55c0 -21 -12 -30 -31 -30h-39c-21 0 -31 9 -31 30v55c0 19 10 31 31 31z" />
    <glyph glyph-name="dotaccent" unicode="&#x2d9;" horiz-adv-x="229" 
d="M96 694h38c22 0 34 -12 34 -35v-54c0 -22 -12 -34 -34 -34h-38c-23 0 -35 12 -35 34v54c0 23 12 35 35 35z" />
    <glyph glyph-name="grave" unicode="`" horiz-adv-x="337" 
d="M274 584l-38 -54l-212 112l62 89z" />
    <glyph glyph-name="hungarumlaut" unicode="&#x2dd;" horiz-adv-x="481" 
d="M247 686l-145 -164l-51 39l112 182zM426 686l-145 -164l-50 39l111 182z" />
    <glyph glyph-name="macron" unicode="&#xaf;" horiz-adv-x="400" 
d="M345 601h-290v84h290v-84z" />
    <glyph glyph-name="ogonek" unicode="&#x2db;" horiz-adv-x="251" 
d="M142 2l51 -2c-26 -32 -50 -64 -66 -106c-20 -44 14 -56 69 -39l13 -48c-138 -55 -190 9 -165 79c11 33 40 74 98 116z" />
    <glyph glyph-name="ring" unicode="&#x2da;" horiz-adv-x="306" 
d="M153 750c61 0 113 -49 113 -111c0 -64 -51 -111 -113 -111c-63 0 -113 47 -113 111c0 62 51 111 113 111zM153 693c-30 0 -53 -21 -53 -54c0 -34 24 -54 53 -54s53 20 53 54c0 33 -24 54 -53 54z" />
    <glyph glyph-name="tilde" unicode="&#x2dc;" horiz-adv-x="431" 
d="M130 707c64 -5 100 -43 155 -50c35 -5 43 10 43 45h53c13 -86 -25 -133 -80 -129c-68 5 -108 45 -156 52c-35 4 -42 -12 -42 -48h-53c-12 91 30 134 80 130z" />
    </font>
</defs>
</svg>
