<?xml version="1.0" encoding="utf-8"?>
<!-- Generator: Adobe Illustrator 17.1.0, SVG Export Plug-In . SVG Version: 6.00 Build 0)  -->
<!DOCTYPE svg PUBLIC "-//W3C//DTD SVG 1.1//EN" "http://www.w3.org/Graphics/SVG/1.1/DTD/svg11.dtd">
<svg version="1.1" id="Layer_1" xmlns="http://www.w3.org/2000/svg" xmlns:xlink="http://www.w3.org/1999/xlink" x="0px" y="0px"
	 width="20.8px" height="17px" viewBox="0 2 20.8 17" enable-background="new 0 2 20.8 17" xml:space="preserve">
<path fill="#FFFFFF" d="M19.7,2H1.1C0.6,2,0,2.5,0,3c0,0.7,0.6,1.1,1.1,1.1h18.6c0.6,0,1.1-0.5,1.1-1C20.8,2.5,20.3,2,19.7,2z"/>
<path fill="#FFFFFF" d="M19.7,9.4H1.1c-0.6,0-1.1,0.5-1.1,1c0,0.7,0.6,1.1,1.1,1.1h18.6c0.6,0,1.1-0.5,1.1-1
	C20.8,9.9,20.3,9.4,19.7,9.4z"/>
<path fill="#FFFFFF" d="M19.7,16.8H1.1c-0.6,0-1.1,0.5-1.1,1C0,18.5,0.6,19,1.1,19h18.6c0.6,0,1.1-0.5,1.1-1
	C20.8,17.3,20.3,16.8,19.7,16.8z"/>
</svg>
