<svg id="icon" viewBox="0 0 16 16" fill="currentColor" xmlns="http://www.w3.org/2000/svg">
<path d="M12.2857 10.5714L9.71428 8L12.2857 5.42857C12.6012 5.11304 12.6012 4.60125 12.2857 4.28571L11.7143 3.71429C11.3987 3.39875 10.887 3.39875 10.5714 3.71429L8 6.28571L5.42857 3.71429C5.11304 3.39875 4.60125 3.39875 4.28572 3.71429L3.71429 4.28571C3.39875 4.60125 3.39875 5.11304 3.71429 5.42857L6.28572 8L3.71429 10.5714C3.39875 10.887 3.39875 11.3987 3.71429 11.7143L4.28572 12.2857C4.60125 12.6012 5.11304 12.6012 5.42857 12.2857L8 9.71429L10.5714 12.2857C10.887 12.6012 11.3987 12.6012 11.7143 12.2857L12.2857 11.7143C12.6012 11.3987 12.6012 10.887 12.2857 10.5714Z"/>
</svg>
