<?xml version="1.0" standalone="no"?>
<!DOCTYPE svg PUBLIC "-//W3C//DTD SVG 1.1//EN" "http://www.w3.org/Graphics/SVG/1.1/DTD/svg11.dtd">
<svg xmlns="http://www.w3.org/2000/svg">
<defs >
<font id="Exo2" horiz-adv-x="549" ><font-face
    font-family="Exo 2 Light"
    units-per-em="1000"
    panose-1="0 0 4 0 0 0 0 0 0 0"
    ascent="996"
    descent="-204"
    alphabetic="0" />
<glyph unicode=" " glyph-name="space" horiz-adv-x="226" />
<glyph unicode="!" glyph-name="exclam" horiz-adv-x="266" d="M165 377L159 208H108L101 377V695H165V377ZM125 107H142Q167 107 167 82V25Q167 0 142 0H125Q100 0 100 25V82Q100 107 125 107Z" />
<glyph unicode="&quot;" glyph-name="quotedbl" horiz-adv-x="344" d="M126 478H81L77 690H130L126 478ZM263 478H219L215 690H268L263 478Z" />
<glyph unicode="#" glyph-name="numbersign" horiz-adv-x="678" d="M511 456L477 261H586L578 218H469L431 0H379L416 218H218L180 0H128L165 218H50L58 261H173L207 456H92L100 499H214L248 690H300L267 499H465L499 690H551L518 499H628L620 456H511ZM458 456H260L226
261H424L458 456Z" />
<glyph unicode="$" glyph-name="dollar" horiz-adv-x="562" d="M308 376L367 363Q443 348 474 304T506 174Q506 114 494 77T451 21T383 -4T283 -11H277L269 -130H232L241 -11Q161 -9 72 4L77 55Q197 49 245 49L263 321L197 335Q124 350 93 394T61 522Q61 582 73
618T116 673T182 696T280 701H292L299 801H335L329 700Q416 696 478 685L473 637Q389 641 325 642L308 376ZM288 643H282Q243 643 223 642T181 634T150 615T134 579T127 520Q127 458 149 431T223 393L271 383L288 643ZM282 49H285Q376 50 408 73T440 175Q440 240
419 267T343 304L300 313L282 49Z" />
<glyph unicode="%" glyph-name="percent" horiz-adv-x="890" d="M122 702T209 702T331 655T366 498T331 341T209 294T87 341T52 498T87 655ZM238 0H190L649 690H697L238 0ZM208 661Q149 661 126 624T102 498Q102 408 125 372T208 335Q269 335 292 371T315 498Q315
587 292 624T208 661ZM595 401T681 401T802 354T838 196T803 39T681 -8T559 39T524 196T559 353ZM680 359Q621 359 598 322T575 196Q574 107 597 70T680 33Q740 33 763 69T787 196T764 322T680 359Z" />
<glyph unicode="&amp;" glyph-name="ampersand" horiz-adv-x="776" d="M718 48L725 2Q677 -8 627 -8Q521 -8 510 83Q464 33 409 12T272 -9Q162 -9 117 31T72 174Q72 258 103 304T208 356V360Q145 365 119 404T92 521Q92 580 106 616T155 670T233 693T351 699Q441
699 510 690L502 641Q466 644 349 644Q236 644 197 620T158 513Q158 436 190 410T307 383H510L517 521H569V383H700L699 332H569V119Q569 82 586 65T639 48H718ZM509 332H304Q212 332 176 301T140 184Q140 106 171 77T285 48Q428 48 509 139V332Z" />
<glyph unicode="&apos;" glyph-name="quotesingle" horiz-adv-x="206" d="M126 478H81L77 690H130L126 478Z" />
<glyph unicode="(" glyph-name="parenleft" horiz-adv-x="358" d="M313 790L321 757Q218 706 170 597T122 313Q122 141 170 32T321 -132L313 -165Q182 -110 121 5T59 312Q59 504 120 620T313 790Z" />
<glyph unicode=")" glyph-name="parenright" horiz-adv-x="358" d="M37 757L45 790Q176 736 237 620T299 312Q299 121 238 6T45 -165L37 -132Q140 -78 188 31T236 313Q236 488 188 597T37 757Z" />
<glyph unicode="*" glyph-name="asterisk" horiz-adv-x="451" d="M240 533L338 404L305 379L225 504L146 380L112 405L210 533L205 690H247L240 533ZM194 553L193 535L185 523L60 559L74 598L194 553ZM391 557L266 523L257 535V553L378 597L391 557Z" />
<glyph unicode="+" glyph-name="plus" horiz-adv-x="552" d="M491 274H300V93H251V274H60V323H250V503H300V323H491V274Z" />
<glyph unicode="," glyph-name="comma" horiz-adv-x="221" d="M101 107H121Q145 107 145 82V18Q143 -62 116 -126L86 -117Q94 -53 94 0Q74 0 76 21V82Q77 107 101 107Z" />
<glyph unicode="-" glyph-name="hyphen" horiz-adv-x="461" d="M384 227H77V277H384V227Z" />
<glyph unicode="." glyph-name="period" horiz-adv-x="221" d="M99 107H121Q146 107 146 82V25Q146 0 121 0H99Q75 0 75 25V82Q75 107 99 107Z" />
<glyph unicode="/" glyph-name="slash" horiz-adv-x="509" d="M85 -63H31L424 690H478L85 -63Z" />
<glyph unicode="0" glyph-name="zero" horiz-adv-x="596" d="M172 702T298 702T476 619T528 345T476 72T298 -12T121 71T69 345T120 618ZM390 645T298 645T170 576T133 345T169 114T298 45T426 114T463 345T427 576Z" />
<glyph unicode="1" glyph-name="one" horiz-adv-x="391" d="M274 0H208V572Q208 603 212 627L37 571L28 618L208 690H274V0Z" />
<glyph unicode="2" glyph-name="two" horiz-adv-x="560" d="M69 625L63 676Q175 702 269 702Q376 702 426 673T477 557Q477 492 448 435T348 298L138 60Q175 62 253 62H504V0H58V40Q58 59 68 70L282 314Q351 391 381 447T410 557Q408 611 374 627T266 644Q171
644 69 625Z" />
<glyph unicode="3" glyph-name="three" horiz-adv-x="555" d="M73 635L66 685Q170 702 254 702Q370 702 417 667T465 543Q465 390 360 369V365Q426 354 453 311T483 192Q485 86 436 37T269 -12Q183 -12 55 5L61 57Q178 46 255 46Q343 46 380 80T418 198Q418 265
387 301T269 338H141V389L269 390Q312 391 340 403T381 437T398 480T402 530Q401 599 369 621T247 644Q156 644 73 635Z" />
<glyph unicode="4" glyph-name="four" horiz-adv-x="608" d="M560 186L474 179V0H411V179H110Q72 179 53 209T51 275L257 690H322L118 276Q109 257 117 245T144 233H411V444L424 559H474V233H560V186Z" />
<glyph unicode="5" glyph-name="five" horiz-adv-x="533" d="M449 634H152L141 419L209 415Q355 407 414 364T472 205Q472 169 468 141T450 82T413 33T349 1T254 -12Q167 -12 57 14L65 66Q168 46 240 46Q340 46 373 84T408 205Q408 236 404 258T391 297T365 325T330
342T280 353T220 358T143 362L109 365Q97 365 90 373T83 395L98 690H452L449 634Z" />
<glyph unicode="6" glyph-name="six" horiz-adv-x="569" d="M466 688L458 640Q416 646 334 646Q259 646 221 626T161 546T137 365Q176 411 217 429T321 447Q429 447 469 397T510 217Q510 159 502 121T473 51T408 4T297 -12Q225 -12 182 3T114 60T81 160T72 318Q72
442 86 518T135 635T214 689T334 702Q413 702 466 688ZM298 44Q390 44 418 84T447 218Q447 315 418 354T306 393Q257 393 220 377T137 318V315Q137 248 139 209T151 133T178 80T225 54T298 44Z" />
<glyph unicode="7" glyph-name="seven" horiz-adv-x="510" d="M42 690H428Q485 690 468 636L249 0H183L386 588Q388 594 404 634H45L42 690Z" />
<glyph unicode="8" glyph-name="eight" horiz-adv-x="609" d="M188 356V360Q90 371 90 518Q90 616 135 657T305 699T474 658T519 518Q519 371 421 360V356Q483 349 508 304T534 172Q534 73 487 33T305 -9Q172 -10 124 31T75 172Q75 259 100 304T188 356ZM397 645T305
645T182 617T150 513Q150 434 180 410T306 385Q402 385 430 409T458 513Q458 589 428 617ZM306 331Q202 330 170 303T137 184Q137 107 171 78T305 48T437 77T471 184Q471 276 439 303T306 331Z" />
<glyph unicode="9" glyph-name="nine" horiz-adv-x="570" d="M93 2L101 50Q157 45 233 45Q290 45 324 55T383 97T418 183T431 327Q391 280 350 262T245 243Q145 243 102 301T59 468Q59 588 107 645T274 702Q334 702 373 690T437 657T474 590T491 493T495 354Q495
260 485 196T457 91T406 27T333 -4T233 -12Q151 -12 93 2ZM261 296Q310 296 347 312T431 373Q431 432 430 466T423 535T407 588T380 621T336 641T273 646Q185 646 154 603T122 467Q122 380 152 338T261 296Z" />
<glyph unicode=":" glyph-name="colon" horiz-adv-x="225" d="M100 437H122Q146 437 146 412V355Q146 330 122 330H100Q75 330 75 355V412Q75 437 100 437ZM100 107H122Q146 107 146 82V25Q146 0 122 0H100Q75 0 75 25V82Q75 107 100 107Z" />
<glyph unicode=";" glyph-name="semicolon" horiz-adv-x="227" d="M103 437H124Q149 437 149 412V355Q149 330 124 330H103Q78 330 78 355V412Q78 437 103 437ZM105 107H124Q148 107 148 82V18Q146 -62 119 -126L89 -117Q97 -53 97 0Q78 0 80 21V82Q80 107 105 107Z" />
<glyph unicode="&lt;" glyph-name="less" horiz-adv-x="534" d="M459 448L113 297L459 150V98L57 271V322L459 500V448Z" />
<glyph unicode="=" glyph-name="equal" horiz-adv-x="587" d="M509 373H78V422H509V373ZM509 162H78V211H509V162Z" />
<glyph unicode="&gt;" glyph-name="greater" horiz-adv-x="534" d="M476 322V271L75 98V150L420 297L75 448V500L476 322Z" />
<glyph unicode="?" glyph-name="question" horiz-adv-x="506" d="M48 646L43 692Q51 693 78 698T116 704T150 707T199 711T257 712Q457 712 457 557Q457 516 439 481T393 418T339 364T293 296T273 208H217Q216 260 233 303T276 374T328 429T372 485T391 548Q392
604 357 631T246 658Q163 658 48 646ZM235 107H253Q278 107 278 82V25Q278 0 253 0H235Q211 0 211 25V82Q211 107 235 107Z" />
<glyph unicode="@" glyph-name="at" horiz-adv-x="709" d="M346 578H489Q559 578 595 547T632 445V131H585L578 208Q545 176 486 150T368 124Q308 124 274 153T239 238V290Q239 338 269 364T354 391H573V443Q573 485 552 505T478 525H347Q309 525 287 524T240
519T203 509T177 488T159 456T149 410T143 348T142 266Q142 215 143 181T149 117T160 70T181 38T210 17T252 6T306 1T377 0H629V-48Q504 -54 378 -54Q307 -55 264 -52T184 -36T130 -3T100 55T85 141T82 265Q82 340 84 384T98 468T124 525T172 557T243 574T346 578ZM573
352L373 348Q299 345 299 283V248Q299 176 378 176Q425 175 480 195T573 248V352Z" />
<glyph unicode="A" glyph-name="A" horiz-adv-x="615" d="M458 228H157L81 0H13L244 671Q250 690 270 690H345Q365 690 371 671L602 0H534L458 228ZM439 285L340 582Q339 587 332 607T322 638H294L275 582L176 285H439Z" />
<glyph unicode="B" glyph-name="B" horiz-adv-x="617" d="M416 360V356Q491 349 522 304T554 172Q554 68 506 30T336 -8Q179 -8 93 0V690Q168 698 306 698Q434 698 483 661T533 518Q533 443 505 405T416 360ZM157 383H320Q405 384 437 410T469 511Q469 589 434
615T304 642Q194 642 157 641V383ZM157 332V50Q241 48 328 48Q419 48 453 75T487 181Q487 268 451 299T320 332H157Z" />
<glyph unicode="C" glyph-name="C" horiz-adv-x="567" d="M521 58L529 9Q451 -12 331 -12Q185 -12 126 68T67 345T126 622T331 702Q440 702 515 683L507 634Q431 643 331 643Q221 643 178 578T135 345T178 112T331 47Q445 47 521 58Z" />
<glyph unicode="D" glyph-name="D" horiz-adv-x="662" d="M93 0V690Q217 699 332 699Q478 699 536 621T595 345T537 70T332 -9Q219 -9 93 0ZM158 639V51Q258 49 332 49Q441 49 483 114T526 345T484 576T332 642Q314 642 158 639Z" />
<glyph unicode="E" glyph-name="E" horiz-adv-x="557" d="M500 55L504 5Q410 -1 209 -1Q154 -1 121 30T87 113V577Q87 629 120 660T209 691Q410 691 504 685L500 635H220Q153 635 153 562V393H461V340H153V127Q153 55 220 55H500Z" />
<glyph unicode="F" glyph-name="F" horiz-adv-x="536" d="M495 635H228Q156 635 156 562V385H456V332H156V0H90V574Q90 628 123 659T212 691Q407 691 499 685L495 635Z" />
<glyph unicode="G" glyph-name="G" horiz-adv-x="626" d="M553 399V0H506L497 78Q409 -12 288 -12Q170 -12 119 73T67 346Q67 547 128 624T344 702Q458 702 538 683L530 634Q440 644 348 644Q266 644 222 619T157 530T136 343Q136 181 174 113T305 45Q342 45 378
58T435 85T489 124V399H553Z" />
<glyph unicode="H" glyph-name="H" horiz-adv-x="664" d="M571 690V0H506V341H158V0H93V690H158V397H506V690H571Z" />
<glyph unicode="I" glyph-name="I" horiz-adv-x="251" d="M158 0H93V690H158V0Z" />
<glyph unicode="J" glyph-name="J" horiz-adv-x="334" d="M245 690V134Q245 -8 115 -8Q75 -8 33 2L40 48H93Q179 48 179 132V690H245Z" />
<glyph unicode="K" glyph-name="K" horiz-adv-x="581" d="M248 333H152Q158 292 158 255V0H93V690H158V467Q158 426 152 387H248L469 690H542L330 397Q319 380 298 361V358Q319 339 333 319L557 0H483L248 333Z" />
<glyph unicode="L" glyph-name="L" horiz-adv-x="511" d="M156 690V128Q156 55 228 55H485L487 5Q381 -1 217 -1Q154 -1 122 32T90 119V690H156Z" />
<glyph unicode="M" glyph-name="M" horiz-adv-x="869" d="M654 690H732Q761 690 761 661L790 0H725L698 635H676L497 94Q490 72 467 72H401Q378 72 371 94L191 635H170L144 0H79L107 661Q107 690 136 690H215Q236 690 244 667L395 217Q411 167 423 123H445Q451
145 474 218L625 667Q631 690 654 690Z" />
<glyph unicode="N" glyph-name="N" horiz-adv-x="699" d="M606 690V28Q606 0 579 0H509Q487 0 477 22L214 546Q177 623 175 629H156Q158 602 158 546V0H93V662Q93 690 120 690H188Q210 690 220 668L477 156Q508 94 523 63H544Q541 112 541 162V690H606Z" />
<glyph unicode="O" glyph-name="O" horiz-adv-x="666" d="M185 702T333 702T540 624T599 345T540 67T333 -12T126 66T67 345T126 623ZM444 644T333 644T179 579T135 345T178 112T333 46T487 111T530 345T487 578Z" />
<glyph unicode="P" glyph-name="P" horiz-adv-x="587" d="M93 0V690Q176 698 324 698Q445 698 491 654T538 487T493 321T331 276Q244 276 158 284V0H93ZM158 333H323Q407 334 439 365T471 487Q471 578 439 610T323 642Q238 642 158 640V333Z" />
<glyph unicode="Q" glyph-name="Q" horiz-adv-x="667" d="M185 702T333 702T540 624T600 345T541 67T333 -12T126 66T67 345T126 623ZM444 644T333 644T179 579T136 345T179 112T333 46T487 111T531 345T488 578ZM275 -85L295 -46Q402 -100 546 -121L525 -187Q390
-162 275 -85Z" />
<glyph unicode="R" glyph-name="R" horiz-adv-x="614" d="M564 0H494L428 217Q400 296 329 296Q238 296 158 298V0H93V690Q176 698 324 698Q443 698 491 657T539 501Q539 414 510 373T412 321V317Q471 300 494 219L564 0ZM158 353H324Q408 354 440 384T473 498Q473
582 441 612T324 642Q238 642 158 640V353Z" />
<glyph unicode="S" glyph-name="S" horiz-adv-x="559" d="M341 304L194 335Q121 350 90 394T59 522Q59 582 71 618T113 673T179 696T277 701Q388 701 476 685L471 637Q353 643 280 643Q231 643 208 641T163 626T133 589T125 520Q125 458 146 431T220 393L364 363Q441
348 472 304T504 174Q504 114 491 77T448 21T380 -4T280 -11Q166 -11 70 4L74 53Q198 47 282 47Q373 48 405 72T437 175Q437 240 416 267T341 304Z" />
<glyph unicode="T" glyph-name="T" horiz-adv-x="575" d="M550 632H320V0H254V632H25V690H550V632Z" />
<glyph unicode="U" glyph-name="U" horiz-adv-x="667" d="M579 690V261Q579 112 524 50T336 -12Q200 -12 144 50T88 261V690H153V261Q153 142 193 94T334 46Q433 46 473 94T513 261V690H579Z" />
<glyph unicode="V" glyph-name="V" horiz-adv-x="603" d="M583 690L364 19Q357 0 338 0H265Q244 0 239 19L20 690H88L266 127Q274 102 288 52H315Q329 102 337 127L515 690H583Z" />
<glyph unicode="W" glyph-name="W" horiz-adv-x="941" d="M910 690L754 20Q749 0 727 0H648Q625 0 620 21L499 562L482 639H460Q448 587 442 562L321 21Q316 0 294 0H214Q192 0 187 20L32 690H101L227 131Q235 98 243 51H268Q276 94 284 130L406 667Q411 690 433
690H508Q530 690 535 667L657 130Q662 109 673 51H699Q701 60 703 76T708 105T714 129L841 690H910Z" />
<glyph unicode="X" glyph-name="X" horiz-adv-x="605" d="M316 334H288L102 0H30L233 358L43 690H114L286 385H318L490 690H562L372 358L575 0H502L316 334Z" />
<glyph unicode="Y" glyph-name="Y" horiz-adv-x="559" d="M312 247V0H247V248L15 690H85L243 384Q256 358 276 310H283Q296 341 316 383L474 690H543L312 247Z" />
<glyph unicode="Z" glyph-name="Z" horiz-adv-x="563" d="M515 56V0H50V56L436 634H54V690H509V634L123 56H515Z" />
<glyph unicode="[" glyph-name="bracketleft" horiz-adv-x="323" d="M278 724H171Q157 724 157 710V-107Q157 -121 171 -121H278V-165H142Q122 -165 110 -153T97 -119V722Q97 742 109 755T142 768H278V724Z" />
<glyph unicode="\" glyph-name="backslash" horiz-adv-x="510" d="M479 -63H424L31 690H86L479 -63Z" />
<glyph unicode="]" glyph-name="bracketright" horiz-adv-x="323" d="M44 768H180Q200 768 213 755T226 722V-119Q226 -139 213 -152T180 -165H44V-121H152Q166 -121 166 -107V710Q166 724 152 724H44V768Z" />
<glyph unicode="^" glyph-name="asciicircum" horiz-adv-x="414" d="M384 386L358 367L211 544H203L57 367L30 386L184 591H230L384 386Z" />
<glyph unicode="_" glyph-name="underscore" horiz-adv-x="582" d="M509 -50H73V0H509V-50Z" />
<glyph unicode="`" glyph-name="grave" horiz-adv-x="301" d="M238 572L214 542L36 670L74 718L238 572Z" />
<glyph unicode="a" glyph-name="a" horiz-adv-x="545" d="M83 428L77 475Q222 497 310 497Q388 497 426 463T465 348V0H415L407 85Q371 49 314 21T195 -8Q131 -8 94 26T57 123V179Q57 235 90 266T184 297H401V348Q401 396 379 419T298 442Q212 442 83 428ZM121
171V129Q121 48 206 48Q250 47 304 69T401 130V246H194Q121 243 121 171Z" />
<glyph unicode="b" glyph-name="b" horiz-adv-x="566" d="M145 700V506Q145 436 138 402Q235 497 330 497Q423 497 464 438T506 243Q506 110 460 49T298 -12Q187 -12 82 21V700H145ZM145 359V62Q219 41 297 43Q375 43 407 88T440 243Q440 354 413 397T312 441Q273
441 237 422T145 359Z" />
<glyph unicode="c" glyph-name="c" horiz-adv-x="485" d="M438 54L445 10Q371 -12 287 -12Q162 -12 111 45T60 242T111 439T287 497Q376 497 436 475L426 434Q373 442 297 442Q201 442 164 400T126 242T163 85T297 43Q381 43 438 54Z" />
<glyph unicode="d" glyph-name="d" horiz-adv-x="569" d="M435 0L428 75Q329 -12 234 -12Q142 -12 102 49T61 243Q61 381 104 439T242 497Q334 497 425 450Q421 483 421 545V700H484V0H435ZM421 121V406Q318 441 255 441Q184 441 156 399T127 244Q127 131 155
88T252 44Q293 44 329 61T421 121Z" />
<glyph unicode="e" glyph-name="e" horiz-adv-x="534" d="M368 211H126Q132 115 170 79T294 43Q369 43 461 55L468 12Q406 -12 285 -12Q163 -12 112 46T60 244Q60 384 110 440T277 497Q380 497 429 460T479 346Q481 211 368 211ZM126 261H353Q417 261 415 345Q414
396 382 419T280 442Q195 442 161 403T126 261Z" />
<glyph unicode="f" glyph-name="f" horiz-adv-x="371" d="M380 663H276Q224 663 203 642T182 571V484H345V434H182V0H118V434H31V479L118 484V577Q118 646 149 681T254 716Q328 716 384 710L380 663Z" />
<glyph unicode="g" glyph-name="g" horiz-adv-x="553" d="M525 448L444 442Q472 408 472 343Q472 264 426 228T270 192Q202 192 160 205Q145 186 142 166T152 128T197 105L383 74Q449 64 474 33T500 -59Q500 -141 451 -173T275 -205Q147 -205 97 -174T47 -61Q47
-13 65 15T129 68Q86 95 87 143T127 219Q67 252 67 343Q67 424 113 460T270 497Q337 497 377 484H529L525 448ZM192 241T270 241T380 265T412 343Q412 399 380 423T270 447Q191 447 159 423T126 343Q126 289 159 265ZM172 54L168 51Q135 28 122 5T109 -57Q109 -112
144 -131T275 -151Q369 -151 403 -131T438 -57Q438 -15 422 1T353 26L172 54Z" />
<glyph unicode="h" glyph-name="h" horiz-adv-x="577" d="M149 700V499Q149 441 142 405Q266 497 365 497Q429 497 462 463T496 364V0H432V347Q432 398 413 420T348 442Q304 442 259 423T147 358V0H84V700H149Z" />
<glyph unicode="i" glyph-name="i" horiz-adv-x="238" d="M105 688H134Q155 688 155 667V609Q155 588 134 588H105Q84 588 84 609V667Q84 688 105 688ZM151 0H88V484H151V0Z" />
<glyph unicode="j" glyph-name="j" horiz-adv-x="239" d="M105 688H135Q156 688 156 667V609Q156 588 135 588H105Q85 588 85 609V667Q85 688 105 688ZM152 484V-24Q152 -134 68 -206L33 -178Q88 -108 88 -24V484H152Z" />
<glyph unicode="k" glyph-name="k" horiz-adv-x="497" d="M215 251H143Q147 214 147 170V0H84V700H149V382Q149 344 144 299H215L382 484H457L295 303Q280 284 265 275V273Q280 262 295 239L473 0H399L215 251Z" />
<glyph unicode="l" glyph-name="l" horiz-adv-x="287" d="M148 700V120Q148 50 219 50H270L277 2Q250 -8 197 -8Q145 -8 115 22T85 108V700H148Z" />
<glyph unicode="m" glyph-name="m" horiz-adv-x="877" d="M136 484L140 404Q247 497 344 497Q447 497 467 406Q573 497 669 497Q731 497 764 463T797 364V0H734V347Q733 397 713 419T648 442Q608 442 571 424T471 358V0H410V347Q410 397 389 419T324 442Q285 442
248 424T147 359V0H84V484H136Z" />
<glyph unicode="n" glyph-name="n" horiz-adv-x="577" d="M137 484L142 404Q263 497 366 497Q496 497 496 364V0H433V347Q433 398 414 420T349 442Q305 442 261 422T148 358V0H84V484H137Z" />
<glyph unicode="o" glyph-name="o" horiz-adv-x="565" d="M161 497T283 497T455 440T505 242T455 45T283 -12T111 45T60 242Q60 382 110 439ZM371 442T283 442T161 399T127 242T161 85T283 42T405 85T439 242T405 399Z" />
<glyph unicode="p" glyph-name="p" horiz-adv-x="573" d="M136 484L142 404Q235 497 342 497Q432 497 472 435T512 240Q512 103 470 46T332 -12Q236 -12 145 39Q149 -2 147 -57V-204H84V484H136ZM147 358V80Q258 44 318 44Q389 44 418 86T447 241Q447 351 419
396T324 441Q284 441 244 422T147 358Z" />
<glyph unicode="q" glyph-name="q" horiz-adv-x="566" d="M484 -204H420V-26Q420 35 426 72Q325 -12 226 -12Q140 -12 100 48T60 241Q60 376 107 436T272 497Q380 497 484 463V-204ZM421 119V422Q343 444 273 442Q191 441 159 398T126 237Q126 133 152 89T246
44Q289 44 327 61T421 119Z" />
<glyph unicode="r" glyph-name="r" horiz-adv-x="394" d="M375 497L367 437H343Q301 437 258 420T148 362V0H84V484H133L140 404Q259 497 354 497H375Z" />
<glyph unicode="s" glyph-name="s" horiz-adv-x="505" d="M310 205L162 233Q105 244 80 274T54 365Q54 447 95 472T240 497Q350 495 438 482L432 436Q312 442 248 442Q168 443 142 431T116 365Q116 324 133 308T190 284L339 256Q397 244 424 215T451 126Q451 41
406 15T250 -11Q151 -11 65 2L70 49Q149 42 239 43Q328 44 358 59T389 126Q389 165 370 181T310 205Z" />
<glyph unicode="t" glyph-name="t" horiz-adv-x="369" d="M330 50L338 2Q288 -8 237 -8Q117 -8 117 113V434H29V479L117 484V631H180V484H344V434H180V120Q180 50 251 50H330Z" />
<glyph unicode="u" glyph-name="u" horiz-adv-x="567" d="M482 484V0H432L427 76Q315 -12 212 -12Q81 -12 81 120V484H144V137Q144 87 165 65T233 43Q274 43 315 61T419 123V484H482Z" />
<glyph unicode="v" glyph-name="v" horiz-adv-x="522" d="M499 484L314 16Q308 0 290 0H231Q213 0 207 16L22 484H90L222 134Q228 119 238 89T254 47H267L300 135L432 484H499Z" />
<glyph unicode="w" glyph-name="w" horiz-adv-x="820" d="M792 484L641 19Q635 0 615 0H556Q535 0 530 21L434 368Q430 380 424 405T415 443H404L385 368L290 21Q285 0 263 0H205Q184 0 179 19L28 484H94L208 113Q213 96 227 43H240L259 113L356 464Q361 484 381
484H439Q459 484 464 463L561 113L579 43H593Q608 101 611 113L726 484H792Z" />
<glyph unicode="x" glyph-name="x" horiz-adv-x="520" d="M271 227H249L98 0H28L197 251L40 484H110L247 278H273L410 484H480L323 251L493 0H422L271 227Z" />
<glyph unicode="y" glyph-name="y" horiz-adv-x="521" d="M498 484L294 -34Q265 -108 221 -153T102 -207L94 -166Q151 -147 183 -113T235 -27L247 0H231Q212 0 206 17L22 484H90L233 106Q249 64 253 50H267L288 107L430 484H498Z" />
<glyph unicode="z" glyph-name="z" horiz-adv-x="506" d="M456 53V0H50V53L380 432H54V484H452V432L123 53H456Z" />
<glyph unicode="{" glyph-name="braceleft" horiz-adv-x="312" d="M266 768V727Q212 727 192 706T171 634V445Q172 385 155 362T87 328Q139 311 157 289T175 215V-31Q175 -81 195 -102T270 -124V-165Q188 -169 151 -137T114 -35V227Q114 247 112 258T98 279T80
291T49 303V353Q74 361 80 363T97 375T108 396T110 433V638Q110 708 147 740T266 768Z" />
<glyph unicode="|" glyph-name="bar" horiz-adv-x="242" d="M145 -169H97V781H145V-169Z" />
<glyph unicode="}" glyph-name="braceright" horiz-adv-x="312" d="M46 727V768Q128 772 165 740T202 638V433Q202 409 203 397T215 375T231 364T263 353V303Q219 286 210 275Q198 261 198 227V-35Q198 -105 161 -137T42 -165V-124Q96 -124 116 -103T137 -31V215Q137
267 155 289T225 328Q174 339 157 362T141 445V634Q141 684 121 705T46 727Z" />
<glyph unicode="~" glyph-name="asciitilde" horiz-adv-x="528" d="M115 233H80Q76 287 97 315T157 341Q196 339 263 311T364 279Q392 277 403 290T414 336H448Q453 283 432 256T372 231Q325 233 259 261T164 292Q137 295 126 281T115 233Z" />
<glyph unicode="&#xa0;" glyph-name="uni00A0" horiz-adv-x="226" />
<glyph unicode="&#xa1;" glyph-name="exclamdown" horiz-adv-x="248" d="M116 488H133Q158 488 158 464V406Q158 382 133 382H116Q91 382 91 406V464Q91 488 116 488ZM156 112V-199H92V112L98 280H150L156 112Z" />
<glyph unicode="&#xa2;" glyph-name="cent" horiz-adv-x="506" d="M438 161L445 117Q371 95 286 95H284L276 0H240L248 97Q145 104 102 162T59 350Q59 489 110 546T286 604H289L296 690H333L325 603Q393 597 435 583L426 539Q383 547 320 549L289 150H297Q379
150 438 161ZM253 152L283 549Q194 547 159 504T123 350Q123 248 152 204T253 152Z" />
<glyph unicode="&#xa3;" glyph-name="sterling" horiz-adv-x="566" d="M512 56V0H65V56Q114 84 131 133T145 256L140 343H59V383H138L131 523Q128 580 139 616T177 671T236 695T317 701Q392 701 488 691L484 640Q414 645 308 645Q241 645 216 618T195 523L202
383H428L426 343H204L209 256Q212 182 197 134T137 54Q158 56 201 56H512Z" />
<glyph unicode="&#xa4;" glyph-name="currency" horiz-adv-x="597" d="M493 127L419 201Q366 158 298 158Q229 158 176 200L103 127L72 158L145 231Q103 284 103 352Q103 421 146 474L74 546L103 576L175 503Q229 546 298 546T420 503L494 576L523 546L449 474Q491
421 491 352T448 230L523 156L493 127ZM298 198Q360 197 405 242T450 352T405 461T298 506Q234 506 189 461T144 352T189 243T298 198Z" />
<glyph unicode="&#xa5;" glyph-name="yen" horiz-adv-x="612" d="M364 317H524V277H342L339 271V205H524V165H339V0H273V165H93V205H273V271L270 277H92V317H248L42 690H111L267 405Q287 366 303 330H310Q336 387 345 404L501 690H570L364 317Z" />
<glyph unicode="&#xa6;" glyph-name="brokenbar" horiz-adv-x="244" d="M146 381H98V781H146V381ZM146 -169H98V231H146V-169Z" />
<glyph unicode="&#xa7;" glyph-name="section" horiz-adv-x="544" d="M348 327L169 429Q114 461 90 494T66 581Q66 654 112 678T257 702Q380 700 474 690L469 641Q377 647 271 648Q242 648 225 648T189 644T159 633T141 613T134 580Q133 544 151 521T204 477L377
380Q443 344 460 291T464 150H416Q422 218 407 260T348 327ZM81 398H129Q122 329 136 289T197 223L376 121Q429 91 453 57T478 -32Q478 -65 469 -88T444 -125T403 -145T351 -153T288 -155Q166 -153 71 -143L76 -94Q176 -100 275 -101Q304 -101 320 -101T356 -97T386
-86T403 -65T411 -30Q412 34 341 73L169 170Q102 206 85 258T81 398Z" />
<glyph unicode="&#xa8;" glyph-name="dieresis" horiz-adv-x="407" d="M104 686H126Q145 686 145 666V611Q145 592 126 592H104Q86 592 86 611V666Q86 686 104 686ZM282 686H303Q322 686 322 666V611Q322 592 303 592H282Q263 592 263 611V666Q263 686 282 686Z" />
<glyph unicode="&#xa9;" glyph-name="copyright" horiz-adv-x="844" d="M422 702Q573 702 676 601T780 345T677 90T422 -12Q272 -12 168 89T64 345T168 600T422 702ZM556 665T422 665T195 574T101 345T194 117T422 25T649 116T742 345T649 573ZM566 174L571 137Q509
123 427 123Q319 123 276 173T232 348Q232 471 275 521T427 572Q509 572 561 559L554 522Q500 527 426 527Q346 527 315 488T283 348Q283 247 314 208T426 168Q518 168 566 174Z" />
<glyph unicode="&#xaa;" glyph-name="ordfeminine" horiz-adv-x="442" d="M89 554L84 590Q185 605 255 605Q308 605 335 581T363 502V271H324L318 333Q249 266 165 266Q120 266 95 288T69 351V390Q69 428 92 448T159 469H314V503Q314 563 246 563Q183 563 89 554ZM118
387V360Q118 309 179 309Q210 308 248 324T314 363V440L173 434Q118 431 118 387Z" />
<glyph unicode="&#xab;" glyph-name="guillemotleft" horiz-adv-x="473" d="M241 435L107 251L242 64L209 42L47 243V259L208 457L241 435ZM414 435L280 251L415 64L382 42L220 243V259L381 457L414 435Z" />
<glyph unicode="&#xac;" glyph-name="logicalnot" horiz-adv-x="591" d="M509 322V131H458V272H78V322H509Z" />
<glyph unicode="&#xad;" glyph-name="softhyphen" horiz-adv-x="460" d="M384 227H77V277H384V227Z" />
<glyph unicode="&#xae;" glyph-name="registered" horiz-adv-x="563" d="M282 701Q374 701 439 636T504 479Q504 386 439 321T282 256Q189 256 124 321T59 479Q59 571 124 636T282 701ZM282 281Q362 281 420 339T478 479T421 619T282 677T144 619T86 479T143 339T282
281ZM333 471V469Q362 464 372 430L405 346H371L340 428Q328 459 294 459L214 460V346H182V613Q217 616 292 616Q348 616 371 600T394 540Q394 507 380 491T333 471ZM214 483H291Q331 484 346 495T362 537Q362 568 347 579T291 590H214V483Z" />
<glyph unicode="&#xaf;" glyph-name="overscore" horiz-adv-x="400" d="M336 615H64V664H336V615Z" />
<glyph unicode="&#xb0;" glyph-name="degree" horiz-adv-x="370" d="M185 702Q237 702 275 665T313 577Q313 525 275 488T185 450T96 487T58 577T95 665T185 702ZM221 662T185 662T125 638T100 577Q100 542 125 517T185 491T245 516T271 577Q271 613 246 637Z" />
<glyph unicode="&#xb1;" glyph-name="plusminus" horiz-adv-x="592" d="M511 379V330H320V192H271V330H81V379H271V517H321V379H511ZM81 127H511V78H81V127Z" />
<glyph unicode="&#xb2;" glyph-name="twosuperior" horiz-adv-x="437" d="M73 728L69 766Q143 781 207 781Q284 781 318 763T352 690Q352 654 332 620T267 540L130 404Q179 406 203 405H370V360H65V388Q65 400 74 411L213 549Q297 633 297 687Q297 718 275 728T205
738Q146 738 73 728Z" />
<glyph unicode="&#xb3;" glyph-name="threesuperior" horiz-adv-x="419" d="M76 734L72 771Q135 781 200 781Q281 781 313 761T345 686Q345 594 269 581V579Q316 573 335 547T356 475Q358 411 324 382T209 353Q155 353 65 363L69 401Q135 395 198 395Q256 395
280 414T304 481Q304 517 284 537T208 558H123V595L208 596Q236 597 255 604T282 624T292 648T295 675Q295 712 274 725T194 739Q128 739 76 734Z" />
<glyph unicode="&#xb4;" glyph-name="acute" horiz-adv-x="301" d="M259 670L81 542L57 572L221 718L259 670Z" />
<glyph unicode="&#xb6;" glyph-name="paragraph" horiz-adv-x="595" d="M275 -210V201Q152 212 99 270T45 450Q45 588 114 645T348 702Q435 702 494 685V0H443V652Q409 655 326 658V-210H275Z" />
<glyph unicode="&#xb7;" glyph-name="middot" horiz-adv-x="225" d="M102 311H124Q148 311 148 286V229Q148 204 124 204H102Q77 204 77 229V286Q77 311 102 311Z" />
<glyph unicode="&#xb8;" glyph-name="cedilla" horiz-adv-x="228" d="M88 -76L95 -45Q147 -40 171 -54T194 -110Q192 -170 149 -202T37 -226L47 -191Q91 -192 118 -170T147 -114Q147 -93 135 -85T88 -76Z" />
<glyph unicode="&#xb9;" glyph-name="onesuperior" horiz-adv-x="291" d="M210 360H159V692Q159 716 162 728L46 696L39 731L159 774H210V360Z" />
<glyph unicode="&#xba;" glyph-name="ordmasculine" horiz-adv-x="446" d="M136 605T223 605T345 567T381 434T346 302T223 263T101 301T65 434T100 566ZM283 564T223 564T140 536T116 434T139 333T223 305T306 332T329 434T306 536Z" />
<glyph unicode="&#xbb;" glyph-name="guillemotright" horiz-adv-x="473" d="M253 259V243L91 42L58 64L193 251L59 435L92 457L253 259ZM426 259V243L264 42L231 64L366 251L232 435L265 457L426 259Z" />
<glyph unicode="&#xbc;" glyph-name="onequarter" horiz-adv-x="855" d="M164 276V608Q164 632 167 644L50 612L44 647L164 690H214V276H164ZM640 690L181 0H133L592 690H640ZM809 109L762 105V0H714V104H508Q483 104 471 121T471 163L605 414H655L524 169Q519
159 524 152T542 144H714V267L724 335H762V144H809V109Z" />
<glyph unicode="&#xbd;" glyph-name="onehalf" horiz-adv-x="881" d="M214 276H164V608Q164 632 167 644L50 612L44 647L164 690H214V276ZM177 0H129L588 690H636L177 0ZM531 368L527 406Q601 421 665 421Q742 421 776 403T810 330Q810 294 790 260T724 180L588
44Q637 46 661 45H828V0H523V28Q523 40 531 51L671 189Q755 274 755 327Q755 358 733 368T663 378Q604 378 531 368Z" />
<glyph unicode="&#xbe;" glyph-name="threequarters" horiz-adv-x="946" d="M265 495V493Q312 487 331 461T352 389Q354 325 320 296T205 267Q152 267 60 277L64 315Q132 309 194 309Q252 309 276 328T300 394Q300 430 280 451T204 472L118 473V508L204 510Q232
511 251 518T278 538T288 562T291 588Q291 626 270 639T190 653Q124 653 72 648L68 685Q132 695 196 695Q277 695 309 675T341 600Q341 508 265 495ZM742 690L283 0H235L694 690H742ZM900 109L847 104V0H800V104H598Q573 104 561 121T561 163L696 414H746L614 169Q609
159 614 152T632 144H800V267L809 335H847V144H900V109Z" />
<glyph unicode="&#xbf;" glyph-name="questiondown" horiz-adv-x="502" d="M251 496H269Q293 496 293 471V414Q293 389 269 389H251Q226 389 226 414V471Q226 496 251 496ZM231 288H286Q287 236 270 193T227 122T176 67T132 11T113 -52Q112 -108 147 -134T258
-161Q350 -161 455 -150L460 -196Q453 -197 425 -202T388 -208T354 -211T305 -215T246 -216Q46 -216 46 -61Q46 -20 64 15T110 78T164 132T210 200T231 288Z" />
<glyph unicode="&#xc0;" glyph-name="Agrave" horiz-adv-x="615" d="M330 731L152 859L190 907L354 761L330 731ZM458 228H157L81 0H13L244 671Q250 690 270 690H345Q365 690 371 671L602 0H534L458 228ZM439 285L340 582Q339 587 332 607T322 638H294L275 582L176
285H439Z" />
<glyph unicode="&#xc1;" glyph-name="Aacute" horiz-adv-x="615" d="M273 731L249 761L413 907L451 859L273 731ZM458 228H157L81 0H13L244 671Q250 690 270 690H345Q365 690 371 671L602 0H534L458 228ZM439 285L340 582Q339 587 332 607T322 638H294L275 582L176
285H439Z" />
<glyph unicode="&#xc2;" glyph-name="Acircumflex" horiz-adv-x="615" d="M174 739L151 767L284 891H331L464 767L441 739L311 838H303L174 739ZM458 228H157L81 0H13L244 671Q250 690 270 690H345Q365 690 371 671L602 0H534L458 228ZM439 285L340 582Q339 587
332 607T322 638H294L275 582L176 285H439Z" />
<glyph unicode="&#xc3;" glyph-name="Atilde" horiz-adv-x="615" d="M186 769H155Q150 823 172 850T232 875Q263 872 306 845T378 815T418 825T430 870H461Q465 819 444 792T384 768Q348 771 304 798T238 828Q209 831 198 817T186 769ZM458 228H157L81 0H13L244
671Q250 690 270 690H345Q365 690 371 671L602 0H534L458 228ZM439 285L340 582Q339 587 332 607T322 638H294L275 582L176 285H439Z" />
<glyph unicode="&#xc4;" glyph-name="Adieresis" horiz-adv-x="615" d="M230 771H208Q190 771 190 790V845Q190 865 208 865H230Q249 865 249 845V790Q249 771 230 771ZM407 771H385Q367 771 367 790V845Q367 865 385 865H407Q426 865 426 845V790Q426 771 407
771ZM458 228H157L81 0H13L244 671Q250 690 270 690H345Q365 690 371 671L602 0H534L458 228ZM439 285L340 582Q339 587 332 607T322 638H294L275 582L176 285H439Z" />
<glyph unicode="&#xc5;" glyph-name="Aring" horiz-adv-x="615" d="M351 716T308 716T235 745T205 817T235 889T308 919Q350 919 380 889T411 817Q411 774 381 745ZM336 884T308 884T262 866T243 817Q243 788 261 770T308 751T354 769T373 817Q373 847 355 865ZM458
228H157L81 0H13L244 671Q250 690 270 690H345Q365 690 371 671L602 0H534L458 228ZM439 285L340 582Q339 587 332 607T322 638H294L275 582L176 285H439Z" />
<glyph unicode="&#xc6;" glyph-name="AE" horiz-adv-x="911" d="M855 55L857 5Q763 -1 570 -1Q521 -1 491 31T460 113V242H220L73 0H3L366 590Q401 649 446 669T570 690Q753 690 857 685L855 634H594Q562 634 542 614T522 560V393H814V339H522V128Q522 55 594
55H855ZM460 297V568Q460 590 470 611T495 642H487Q453 624 423 576L254 297H460Z" />
<glyph unicode="&#xc7;" glyph-name="Ccedilla" horiz-adv-x="567" d="M521 58L529 9Q451 -12 331 -12Q185 -12 126 68T67 345T126 622T331 702Q440 702 515 683L507 634Q431 643 331 643Q221 643 178 578T135 345T178 112T331 47Q445 47 521 58ZM282 -88L289
-57Q342 -52 365 -66T388 -122Q387 -182 344 -214T231 -238L241 -203Q285 -204 312 -182T341 -126Q342 -105 330 -97T282 -88Z" />
<glyph unicode="&#xc8;" glyph-name="Egrave" horiz-adv-x="557" d="M332 753L154 881L192 929L356 783L332 753ZM500 55L504 5Q410 -1 209 -1Q154 -1 121 30T87 113V577Q87 629 120 660T209 691Q410 691 504 685L500 635H220Q153 635 153 562V393H461V340H153V127Q153
55 220 55H500Z" />
<glyph unicode="&#xc9;" glyph-name="Eacute" horiz-adv-x="557" d="M275 753L251 783L415 929L453 881L275 753ZM500 55L504 5Q410 -1 209 -1Q154 -1 121 30T87 113V577Q87 629 120 660T209 691Q410 691 504 685L500 635H220Q153 635 153 562V393H461V340H153V127Q153
55 220 55H500Z" />
<glyph unicode="&#xca;" glyph-name="Ecircumflex" horiz-adv-x="557" d="M176 761L153 789L286 913H332L466 789L443 761L313 860H305L176 761ZM500 55L504 5Q410 -1 209 -1Q154 -1 121 30T87 113V577Q87 629 120 660T209 691Q410 691 504 685L500 635H220Q153
635 153 562V393H461V340H153V127Q153 55 220 55H500Z" />
<glyph unicode="&#xcb;" glyph-name="Edieresis" horiz-adv-x="557" d="M232 793H210Q191 793 191 813V868Q191 887 210 887H232Q251 887 251 868V813Q251 793 232 793ZM409 793H387Q368 793 368 813V868Q368 887 387 887H409Q428 887 428 868V813Q428 793 409
793ZM500 55L504 5Q410 -1 209 -1Q154 -1 121 30T87 113V577Q87 629 120 660T209 691Q410 691 504 685L500 635H220Q153 635 153 562V393H461V340H153V127Q153 55 220 55H500Z" />
<glyph unicode="&#xcc;" glyph-name="Igrave" horiz-adv-x="251" d="M171 761L147 731L-31 859L7 907L171 761ZM158 0H93V690H158V0Z" />
<glyph unicode="&#xcd;" glyph-name="Iacute" horiz-adv-x="251" d="M268 859L90 731L66 761L230 907L268 859ZM158 0H93V690H158V0Z" />
<glyph unicode="&#xce;" glyph-name="Icircumflex" horiz-adv-x="251" d="M281 767L258 739L129 838H121L-9 739L-32 767L102 891H148L281 767ZM158 0H93V690H158V0Z" />
<glyph unicode="&#xcf;" glyph-name="Idieresis" horiz-adv-x="251" d="M25 865H47Q66 865 66 845V790Q66 771 47 771H25Q7 771 7 790V845Q7 865 25 865ZM203 865H224Q243 865 243 845V790Q243 771 224 771H203Q184 771 184 790V845Q184 865 203 865ZM158 0H93V690H158V0Z"
/>
<glyph unicode="&#xd0;" glyph-name="Eth" horiz-adv-x="666" d="M97 388V690Q221 699 336 699Q482 699 540 621T599 345T541 70T336 -9Q223 -9 97 0V349H24V388H97ZM162 349V51Q262 49 336 49Q445 49 487 114T530 345T488 576T336 642Q318 642 162 639V388H325V349H162Z" />
<glyph unicode="&#xd1;" glyph-name="Ntilde" horiz-adv-x="699" d="M238 769H206Q202 823 223 850T283 875Q314 872 357 845T429 815Q458 812 469 825T481 870H513Q517 819 496 792T436 768Q400 771 356 798T289 828Q261 831 250 817T238 769ZM606 690V28Q606
0 579 0H509Q487 0 477 22L214 546Q177 623 175 629H156Q158 602 158 546V0H93V662Q93 690 120 690H188Q210 690 220 668L477 156Q508 94 523 63H544Q541 112 541 162V690H606Z" />
<glyph unicode="&#xd2;" glyph-name="Ograve" horiz-adv-x="666" d="M379 761L355 731L177 859L215 907L379 761ZM185 702T333 702T540 624T599 345T540 67T333 -12T126 66T67 345T126 623ZM444 644T333 644T179 579T135 345T178 112T333 46T487 111T530 345T487 578Z" />
<glyph unicode="&#xd3;" glyph-name="Oacute" horiz-adv-x="666" d="M475 859L298 731L274 761L438 907L475 859ZM185 702T333 702T540 624T599 345T540 67T333 -12T126 66T67 345T126 623ZM444 644T333 644T179 579T135 345T178 112T333 46T487 111T530 345T487 578Z" />
<glyph unicode="&#xd4;" glyph-name="Ocircumflex" horiz-adv-x="666" d="M489 767L466 739L336 838H328L199 739L176 767L309 891H355L489 767ZM185 702T333 702T540 624T599 345T540 67T333 -12T126 66T67 345T126 623ZM444 644T333 644T179 579T135 345T178
112T333 46T487 111T530 345T487 578Z" />
<glyph unicode="&#xd5;" glyph-name="Otilde" horiz-adv-x="666" d="M211 769H179Q175 823 196 850T256 875Q287 872 330 845T402 815Q431 812 442 825T454 870H486Q490 819 469 792T409 768Q373 771 329 798T262 828Q234 831 223 817T211 769ZM185 702T333 702T540
624T599 345T540 67T333 -12T126 66T67 345T126 623ZM444 644T333 644T179 579T135 345T178 112T333 46T487 111T530 345T487 578Z" />
<glyph unicode="&#xd6;" glyph-name="Odieresis" horiz-adv-x="666" d="M233 865H255Q274 865 274 845V790Q274 771 255 771H233Q214 771 214 790V845Q214 865 233 865ZM410 865H432Q451 865 451 845V790Q451 771 432 771H410Q391 771 391 790V845Q391 865 410
865ZM185 702T333 702T540 624T599 345T540 67T333 -12T126 66T67 345T126 623ZM444 644T333 644T179 579T135 345T178 112T333 46T487 111T530 345T487 578Z" />
<glyph unicode="&#xd7;" glyph-name="multiply" horiz-adv-x="486" d="M53 428L407 111L438 149L85 467L53 428Z" />
<glyph unicode="&#xd8;" glyph-name="Oslash" horiz-adv-x="666" d="M531 731L499 663Q552 627 575 551T599 345Q599 145 540 67T333 -12Q245 -12 194 12L162 -55L125 -39L159 33Q110 70 89 145T67 345Q67 545 126 623T333 702Q413 702 463 682L494 747L531 731ZM189
98L436 624Q397 644 333 644Q222 644 179 579T135 345Q135 162 189 98ZM469 600L221 71Q264 46 333 46Q444 46 487 111T530 345Q530 539 469 600Z" />
<glyph unicode="&#xd9;" glyph-name="Ugrave" horiz-adv-x="667" d="M380 761L357 731L179 859L216 907L380 761ZM579 690V261Q579 112 524 50T336 -12Q200 -12 144 50T88 261V690H153V261Q153 142 193 94T334 46Q433 46 473 94T513 261V690H579Z" />
<glyph unicode="&#xda;" glyph-name="Uacute" horiz-adv-x="667" d="M477 859L299 731L275 761L439 907L477 859ZM579 690V261Q579 112 524 50T336 -12Q200 -12 144 50T88 261V690H153V261Q153 142 193 94T334 46Q433 46 473 94T513 261V690H579Z" />
<glyph unicode="&#xdb;" glyph-name="Ucircumflex" horiz-adv-x="667" d="M491 767L467 739L338 838H330L200 739L178 767L311 891H357L491 767ZM579 690V261Q579 112 524 50T336 -12Q200 -12 144 50T88 261V690H153V261Q153 142 193 94T334 46Q433 46 473 94T513
261V690H579Z" />
<glyph unicode="&#xdc;" glyph-name="Udieresis" horiz-adv-x="667" d="M234 865H257Q275 865 275 845V790Q275 771 257 771H234Q216 771 216 790V845Q216 865 234 865ZM412 865H434Q453 865 453 845V790Q453 771 434 771H412Q393 771 393 790V845Q393 865 412
865ZM579 690V261Q579 112 524 50T336 -12Q200 -12 144 50T88 261V690H153V261Q153 142 193 94T334 46Q433 46 473 94T513 261V690H579Z" />
<glyph unicode="&#xdd;" glyph-name="Yacute" horiz-adv-x="559" d="M244 731L220 761L384 907L422 859L244 731ZM312 247V0H247V248L15 690H85L243 384Q256 358 276 310H283Q296 341 316 383L474 690H543L312 247Z" />
<glyph unicode="&#xde;" glyph-name="Thorn" horiz-adv-x="589" d="M158 690V560Q204 563 324 563Q445 563 491 519T538 350T493 182T331 138Q233 138 158 145V0H93V555V690H158ZM158 195H323Q407 196 439 227T471 350Q471 442 439 474T323 506Q199 506 158 505V195Z" />
<glyph unicode="&#xdf;" glyph-name="germandbls" horiz-adv-x="667" d="M419 295L534 252Q582 232 603 205T624 125Q624 43 584 16T454 -11Q373 -11 292 0L296 48Q361 42 443 42Q511 43 536 58T562 127Q562 164 546 180T492 211L377 256Q293 288 293 365Q293
380 296 392T302 414T315 432T330 447T351 460T372 472T399 484T426 496Q467 515 482 535T497 592Q497 631 461 648T339 665Q247 665 215 639T182 533V0H118V433H31V482L118 484V539Q118 597 132 634T178 689T245 712T337 718Q453 718 504 691T556 593Q556 544
537 516T464 462Q452 456 432 447T403 434T383 423T366 409T358 391T354 366Q354 338 369 324T419 295Z" />
<glyph unicode="&#xe0;" glyph-name="agrave" horiz-adv-x="545" d="M290 550L112 678L150 726L314 580L290 550ZM83 428L77 475Q222 497 310 497Q388 497 426 463T465 348V0H415L407 85Q371 49 314 21T195 -8Q131 -8 94 26T57 123V179Q57 235 90 266T184 297H401V348Q401
396 379 419T298 442Q212 442 83 428ZM121 171V129Q121 48 206 48Q250 47 304 69T401 130V246H194Q121 243 121 171Z" />
<glyph unicode="&#xe1;" glyph-name="aacute" horiz-adv-x="545" d="M233 550L209 580L373 726L411 678L233 550ZM83 428L77 475Q222 497 310 497Q388 497 426 463T465 348V0H415L407 85Q371 49 314 21T195 -8Q131 -8 94 26T57 123V179Q57 235 90 266T184 297H401V348Q401
396 379 419T298 442Q212 442 83 428ZM121 171V129Q121 48 206 48Q250 47 304 69T401 130V246H194Q121 243 121 171Z" />
<glyph unicode="&#xe2;" glyph-name="acircumflex" horiz-adv-x="545" d="M134 558L111 586L245 710H291L425 586L401 558L272 658H264L134 558ZM83 428L77 475Q222 497 310 497Q388 497 426 463T465 348V0H415L407 85Q371 49 314 21T195 -8Q131 -8 94 26T57 123V179Q57
235 90 266T184 297H401V348Q401 396 379 419T298 442Q212 442 83 428ZM121 171V129Q121 48 206 48Q250 47 304 69T401 130V246H194Q121 243 121 171Z" />
<glyph unicode="&#xe3;" glyph-name="atilde" horiz-adv-x="545" d="M147 589H115Q111 642 132 669T192 694Q223 691 266 664T338 634Q367 631 378 644T390 689H421Q426 638 405 611T345 587Q308 590 264 617T198 648Q170 651 159 637T147 589ZM83 428L77 475Q222
497 310 497Q388 497 426 463T465 348V0H415L407 85Q371 49 314 21T195 -8Q131 -8 94 26T57 123V179Q57 235 90 266T184 297H401V348Q401 396 379 419T298 442Q212 442 83 428ZM121 171V129Q121 48 206 48Q250 47 304 69T401 130V246H194Q121 243 121 171Z" />
<glyph unicode="&#xe4;" glyph-name="adieresis" horiz-adv-x="545" d="M191 590H168Q150 590 150 610V665Q150 684 168 684H191Q209 684 209 665V610Q209 590 191 590ZM368 590H346Q327 590 327 610V665Q327 684 346 684H368Q386 684 386 665V610Q386 590 368
590ZM83 428L77 475Q222 497 310 497Q388 497 426 463T465 348V0H415L407 85Q371 49 314 21T195 -8Q131 -8 94 26T57 123V179Q57 235 90 266T184 297H401V348Q401 396 379 419T298 442Q212 442 83 428ZM121 171V129Q121 48 206 48Q250 47 304 69T401 130V246H194Q121
243 121 171Z" />
<glyph unicode="&#xe5;" glyph-name="aring" horiz-adv-x="545" d="M311 536T268 536T195 565T165 637Q165 679 195 708T268 738Q311 738 341 709T372 637Q372 594 342 565ZM296 703T268 703T222 685T203 637T221 590T268 571T315 589T334 637T315 684ZM83 428L77
475Q222 497 310 497Q388 497 426 463T465 348V0H415L407 85Q371 49 314 21T195 -8Q131 -8 94 26T57 123V179Q57 235 90 266T184 297H401V348Q401 396 379 419T298 442Q212 442 83 428ZM121 171V129Q121 48 206 48Q250 47 304 69T401 130V246H194Q121 243 121 171Z"
/>
<glyph unicode="&#xe6;" glyph-name="ae" horiz-adv-x="874" d="M688 211H468Q473 115 511 79T635 43Q712 43 802 55L809 12Q748 -12 627 -12Q544 -12 495 13T423 96Q387 57 325 25T195 -8Q131 -8 94 26T57 123V179Q57 235 90 266T184 297H401V348Q401 396 379
419T298 442Q212 442 83 428L77 475Q222 497 310 497Q414 497 447 435Q496 497 618 497Q721 497 770 460T820 346Q821 276 790 244T688 211ZM467 261H674Q720 261 738 282T756 345Q755 395 723 418T621 442Q536 442 502 403T467 261ZM121 171V129Q121 48 206 48Q252
47 309 71T411 135Q401 178 401 244V246H194Q121 243 121 171Z" />
<glyph unicode="&#xe7;" glyph-name="ccedilla" horiz-adv-x="485" d="M438 54L445 10Q371 -12 287 -12Q162 -12 111 45T60 242T111 439T287 497Q376 497 436 475L426 434Q373 442 297 442Q201 442 164 400T126 242T163 85T297 43Q381 43 438 54ZM236 -88L243
-57Q296 -52 320 -66T343 -122Q341 -182 298 -214T185 -238L195 -203Q239 -204 266 -182T295 -126Q296 -105 284 -97T236 -88Z" />
<glyph unicode="&#xe8;" glyph-name="egrave" horiz-adv-x="534" d="M301 550L123 678L161 726L325 580L301 550ZM368 211H126Q132 115 170 79T294 43Q369 43 461 55L468 12Q406 -12 285 -12Q163 -12 112 46T60 244Q60 384 110 440T277 497Q380 497 429 460T479
346Q481 211 368 211ZM126 261H353Q417 261 415 345Q414 396 382 419T280 442Q195 442 161 403T126 261Z" />
<glyph unicode="&#xe9;" glyph-name="eacute" horiz-adv-x="534" d="M243 550L220 580L384 726L421 678L243 550ZM368 211H126Q132 115 170 79T294 43Q369 43 461 55L468 12Q406 -12 285 -12Q163 -12 112 46T60 244Q60 384 110 440T277 497Q380 497 429 460T479
346Q481 211 368 211ZM126 261H353Q417 261 415 345Q414 396 382 419T280 442Q195 442 161 403T126 261Z" />
<glyph unicode="&#xea;" glyph-name="ecircumflex" horiz-adv-x="534" d="M145 558L122 586L255 710H301L435 586L412 558L282 658H274L145 558ZM368 211H126Q132 115 170 79T294 43Q369 43 461 55L468 12Q406 -12 285 -12Q163 -12 112 46T60 244Q60 384 110 440T277
497Q380 497 429 460T479 346Q481 211 368 211ZM126 261H353Q417 261 415 345Q414 396 382 419T280 442Q195 442 161 403T126 261Z" />
<glyph unicode="&#xeb;" glyph-name="edieresis" horiz-adv-x="534" d="M201 590H179Q160 590 160 610V665Q160 684 179 684H201Q219 684 219 665V610Q219 590 201 590ZM378 590H356Q337 590 337 610V665Q337 684 356 684H378Q397 684 397 665V610Q397 590 378
590ZM368 211H126Q132 115 170 79T294 43Q369 43 461 55L468 12Q406 -12 285 -12Q163 -12 112 46T60 244Q60 384 110 440T277 497Q380 497 429 460T479 346Q481 211 368 211ZM126 261H353Q417 261 415 345Q414 396 382 419T280 442Q195 442 161 403T126 261Z" />
<glyph unicode="&#xec;" glyph-name="igrave" horiz-adv-x="239" d="M165 580L141 550L-37 678L1 726L165 580ZM151 0H88V484H151V0Z" />
<glyph unicode="&#xed;" glyph-name="iacute" horiz-adv-x="239" d="M262 678L84 550L60 580L224 726L262 678ZM151 0H88V484H151V0Z" />
<glyph unicode="&#xee;" glyph-name="icircumflex" horiz-adv-x="239" d="M275 586L252 558L123 658H115L-15 558L-38 586L96 710H142L275 586ZM151 0H88V484H151V0Z" />
<glyph unicode="&#xef;" glyph-name="idieresis" horiz-adv-x="239" d="M19 684H41Q60 684 60 665V610Q60 590 41 590H19Q1 590 1 610V665Q1 684 19 684ZM197 684H218Q237 684 237 665V610Q237 590 218 590H197Q178 590 178 610V665Q178 684 197 684ZM151 0H88V484H151V0Z"
/>
<glyph unicode="&#xf0;" glyph-name="eth" horiz-adv-x="555" d="M437 676L366 623Q485 519 485 281Q485 212 477 164T448 74T383 10T273 -12Q163 -12 112 43T61 220Q61 332 108 389T263 447Q345 447 411 405Q389 528 320 589L237 528L214 558L287 613Q222 654
118 652L126 698Q249 703 333 647L413 707L437 676ZM274 42Q363 42 391 100T420 287Q420 327 417 360Q350 393 270 393Q192 393 160 349T127 220Q127 124 162 83T274 42Z" />
<glyph unicode="&#xf1;" glyph-name="ntilde" horiz-adv-x="577" d="M174 589H142Q138 642 159 669T219 694Q250 691 293 664T365 634Q394 631 405 644T417 689H449Q453 638 432 611T372 587Q335 590 291 617T225 648Q197 651 186 637T174 589ZM137 484L142 404Q263
497 366 497Q496 497 496 364V0H433V347Q433 398 414 420T349 442Q305 442 261 422T148 358V0H84V484H137Z" />
<glyph unicode="&#xf2;" glyph-name="ograve" horiz-adv-x="565" d="M328 580L304 550L126 678L164 726L328 580ZM161 497T283 497T455 440T505 242T455 45T283 -12T111 45T60 242Q60 382 110 439ZM371 442T283 442T161 399T127 242T161 85T283 42T405 85T439
242T405 399Z" />
<glyph unicode="&#xf3;" glyph-name="oacute" horiz-adv-x="565" d="M424 678L246 550L223 580L387 726L424 678ZM161 497T283 497T455 440T505 242T455 45T283 -12T111 45T60 242Q60 382 110 439ZM371 442T283 442T161 399T127 242T161 85T283 42T405 85T439
242T405 399Z" />
<glyph unicode="&#xf4;" glyph-name="ocircumflex" horiz-adv-x="565" d="M438 586L415 558L285 658H277L148 558L125 586L258 710H304L438 586ZM161 497T283 497T455 440T505 242T455 45T283 -12T111 45T60 242Q60 382 110 439ZM371 442T283 442T161 399T127
242T161 85T283 42T405 85T439 242T405 399Z" />
<glyph unicode="&#xf5;" glyph-name="otilde" horiz-adv-x="565" d="M160 589H128Q124 642 145 669T205 694Q236 691 279 664T351 634Q380 631 391 644T403 689H435Q439 638 418 611T358 587Q321 590 277 617T211 648Q183 651 172 637T160 589ZM161 497T283 497T455
440T505 242T455 45T283 -12T111 45T60 242Q60 382 110 439ZM371 442T283 442T161 399T127 242T161 85T283 42T405 85T439 242T405 399Z" />
<glyph unicode="&#xf6;" glyph-name="odieresis" horiz-adv-x="565" d="M182 684H204Q222 684 222 665V610Q222 590 204 590H182Q163 590 163 610V665Q163 684 182 684ZM359 684H381Q400 684 400 665V610Q400 590 381 590H359Q340 590 340 610V665Q340 684 359
684ZM161 497T283 497T455 440T505 242T455 45T283 -12T111 45T60 242Q60 382 110 439ZM371 442T283 442T161 399T127 242T161 85T283 42T405 85T439 242T405 399Z" />
<glyph unicode="&#xf7;" glyph-name="divide" horiz-adv-x="577" d="M278 517H296Q321 517 321 492V438Q321 414 296 414H278Q264 414 259 419T254 438V492Q254 517 278 517ZM504 271H73V320H504V271ZM278 176H296Q321 176 321 151V98Q321 74 296 74H278Q264 74
259 79T254 98V151Q254 176 278 176Z" />
<glyph unicode="&#xf8;" glyph-name="oslash" horiz-adv-x="565" d="M437 537L408 475Q459 451 482 395T505 242Q505 102 455 45T283 -12Q223 -12 186 -1L154 -70L121 -55L153 12Q104 37 82 92T60 242Q60 382 110 439T283 497Q337 497 374 487L404 553L437 537ZM178
67L349 435Q324 442 283 442Q195 442 161 399T127 242Q127 106 178 67ZM382 420L210 51Q240 42 283 42Q371 42 405 85T439 242Q439 382 382 420Z" />
<glyph unicode="&#xf9;" glyph-name="ugrave" horiz-adv-x="567" d="M307 553L129 680L167 728L331 582L307 553ZM482 484V0H432L427 76Q315 -12 212 -12Q81 -12 81 120V484H144V137Q144 87 165 65T233 43Q274 43 315 61T419 123V484H482Z" />
<glyph unicode="&#xfa;" glyph-name="uacute" horiz-adv-x="567" d="M249 553L225 582L389 728L427 680L249 553ZM482 484V0H432L427 76Q315 -12 212 -12Q81 -12 81 120V484H144V137Q144 87 165 65T233 43Q274 43 315 61T419 123V484H482Z" />
<glyph unicode="&#xfb;" glyph-name="ucircumflex" horiz-adv-x="567" d="M151 561L128 589L261 712H307L441 589L418 561L288 660H280L151 561ZM482 484V0H432L427 76Q315 -12 212 -12Q81 -12 81 120V484H144V137Q144 87 165 65T233 43Q274 43 315 61T419 123V484H482Z" />
<glyph unicode="&#xfc;" glyph-name="udieresis" horiz-adv-x="567" d="M207 593H185Q166 593 166 612V667Q166 687 185 687H207Q225 687 225 667V612Q225 593 207 593ZM384 593H362Q343 593 343 612V667Q343 687 362 687H384Q403 687 403 667V612Q403 593 384
593ZM482 484V0H432L427 76Q315 -12 212 -12Q81 -12 81 120V484H144V137Q144 87 165 65T233 43Q274 43 315 61T419 123V484H482Z" />
<glyph unicode="&#xfd;" glyph-name="yacute" horiz-adv-x="521" d="M228 550L204 580L368 726L406 678L228 550ZM498 484L294 -34Q265 -108 221 -153T102 -207L94 -166Q151 -147 183 -113T235 -27L247 0H231Q212 0 206 17L22 484H90L233 106Q249 64 253 50H267L288
107L430 484H498Z" />
<glyph unicode="&#xfe;" glyph-name="thorn" horiz-adv-x="570" d="M148 700V518Q148 454 144 420Q237 496 332 496T467 437T507 240Q507 101 467 45T331 -12T145 35Q148 3 148 -57V-204H84V700H148ZM148 367V82Q250 41 313 41Q383 41 412 85T442 240Q442 352
414 396T316 441Q246 441 148 367Z" />
<glyph unicode="&#xff;" glyph-name="ydieresis" horiz-adv-x="521" d="M185 590H163Q144 590 144 610V665Q144 684 163 684H185Q204 684 204 665V610Q204 590 185 590ZM362 590H340Q321 590 321 610V665Q321 684 340 684H362Q381 684 381 665V610Q381 590 362
590ZM498 484L294 -34Q265 -108 221 -153T102 -207L94 -166Q151 -147 183 -113T235 -27L247 0H231Q212 0 206 17L22 484H90L233 106Q249 64 253 50H267L288 107L430 484H498Z" />
<glyph unicode="&#x2013;" glyph-name="endash" horiz-adv-x="603" d="M526 227H77V277H526V227Z" />
<glyph unicode="&#x2014;" glyph-name="emdash" horiz-adv-x="909" d="M832 227H77V277H832V227Z" />
<glyph unicode="&#x2018;" glyph-name="quoteleft" horiz-adv-x="210" d="M114 507H96Q72 507 72 531V592Q74 666 100 730L130 721Q122 670 122 609Q141 609 139 589V531Q139 507 114 507Z" />
<glyph unicode="&#x2019;" glyph-name="quoteright" horiz-adv-x="207" d="M95 723H114Q137 723 137 699V638Q135 563 109 499L80 508Q87 563 87 620Q68 620 70 641V699Q71 723 95 723Z" />
<glyph unicode="&#x201a;" glyph-name="quotesinglbase" horiz-adv-x="221" d="M102 103H121Q145 103 145 79V18Q143 -59 116 -121L86 -112Q94 -50 94 0Q74 0 76 21V79Q77 103 102 103Z" />
<glyph unicode="&#x201c;" glyph-name="quotedblleft" horiz-adv-x="349" d="M253 507H234Q211 507 211 531V592Q213 666 239 730L269 721Q261 670 261 609Q280 609 278 589V531Q278 507 253 507ZM114 507H96Q72 507 72 531V592Q74 666 100 730L130 721Q122 670
122 609Q141 609 139 589V531Q139 507 114 507Z" />
<glyph unicode="&#x201d;" glyph-name="quotedblright" horiz-adv-x="346" d="M95 723H114Q137 723 137 699V638Q135 563 109 499L80 508Q87 563 87 620Q68 620 70 641V699Q71 723 95 723ZM234 723H253Q276 723 276 699V638Q274 563 248 499L219 508Q226 563 226
620Q207 620 209 641V699Q210 723 234 723Z" />
<glyph unicode="&#x201e;" glyph-name="quotedblbase" horiz-adv-x="360" d="M101 103H120Q144 103 144 79V18Q142 -57 116 -121L86 -112Q94 -50 94 0Q75 0 77 21V79Q77 103 101 103ZM240 103H259Q283 103 283 79V18Q281 -57 255 -121L225 -112Q233 -50 233 0Q214
0 216 21V79Q216 103 240 103Z" />
<glyph unicode="&#x2022;" glyph-name="bullet" horiz-adv-x="359" d="M175 351H186Q229 351 245 334T262 274V263Q262 219 246 202T186 184H175Q130 184 113 201T96 263V274Q96 317 113 334T175 351Z" />
<glyph unicode="&#x2039;" glyph-name="guilsinglleft" horiz-adv-x="264" d="M225 435L91 251L226 64L193 42L31 243V259L192 457L225 435Z" />
<glyph unicode="&#x203a;" glyph-name="guilsinglright" horiz-adv-x="265" d="M234 259V243L71 42L37 64L172 251L38 435L72 457L234 259Z" />
</font>
</defs>
</svg>
